<svg id="Layer_1" data-name="Layer 1" xmlns="http://www.w3.org/2000/svg" viewBox="0 0 267 100"><defs><style>.cls-1{fill:none;}.cls-2{fill:#77797a;}</style></defs><title>3m-8</title><rect class="cls-1" width="267" height="100"/><path class="cls-2" d="M149.23,55.88l-9.69-34.25H117.8v9.18C115,25.31,108.12,22,98.58,22c-11.21,0-21.21,5.26-21.75,17.62H91.18c.46-3.82,3.2-5.72,6.94-5.72,3.13,0,6.25,1.29,6.25,4.81,0,5-5.26,5.49-9.46,5.49V53.6c3.81,0,9.92.53,9.92,6,0,3.13-2.44,6.25-7.09,6.25-5,0-7.63-3-7.63-7.93h-15c0,13.2,9.23,19.83,21.74,19.83,9.74,0,17.1-3,20.9-8.69v7.56H134V57.95c0-4.43-.61-11.83-1.15-16.63H133l10,35.24h12.51l10-35.24h.15a169.42,169.42,0,0,0-1.14,18.46V76.56h16.17V21.63H158.92Zm-31.43-5a12.43,12.43,0,0,0-4.8-3.27,10.68,10.68,0,0,0,4.8-4.39Z"/></svg>