<svg id="Layer_1" data-name="Layer 1" xmlns="http://www.w3.org/2000/svg" viewBox="0 0 267 100"><defs><style>.cls-1{fill:none;}.cls-2{fill:#78797a;fill-rule:evenodd;}</style></defs><title>dji-8</title><rect class="cls-1" width="267" height="100"/><path class="cls-2" d="M165,31.86h14.36l-7.13,30.22H157.9Zm-18.4,0H161L154,60.81c-1.68,7-6.53,14.44-16.49,14.44H116l3.31-9.81h9.88c4.67,0,9.87-2.57,11-7.24Zm-1.7-10.7H130.14l-6.89,29c-.67,2.82-1.61,4.44-5,4.44H105.74c-2.85,0-2.78-1.68-2.19-4.11l1.94-8c.48-2,1.13-2.89,3.79-2.89h12.37l1.84-7.74h-24c-5.69,0-9.13,2.75-10.47,8.4L85.76,53.81c-1.35,5.67.74,8.27,4.84,8.27h35.1c7.37,0,10.22-2.88,11.51-8.33Z"/></svg>