<svg id="Layer_1" data-name="Layer 1" xmlns="http://www.w3.org/2000/svg" viewBox="0 0 267 100"><defs><style>.cls-1{fill:none;}.cls-2{fill:#78797a;}.cls-3{fill:#fff;}</style></defs><title>dupont-8</title><rect class="cls-1" width="267" height="100"/><path class="cls-2" d="M131.6,26.73H137a1.82,1.82,0,0,0,.3.06c1.06,0,2.12,0,3.19.08,1.63.06,3.26.12,4.89.22q2.82.17,5.63.41c1.61.14,3.22.3,4.83.5s3.07.4,4.6.67c2.48.44,5,.87,7.42,1.4A76.8,76.8,0,0,1,178,33a47,47,0,0,1,9.22,4.46,22.89,22.89,0,0,1,5.94,5.27,13,13,0,0,1,2.53,5.41c.1.53.17,1.08.25,1.61v1.3a2.3,2.3,0,0,0-.07.33,12.34,12.34,0,0,1-2.2,6.07,21.49,21.49,0,0,1-5.82,5.59,44.13,44.13,0,0,1-9.24,4.67A79.56,79.56,0,0,1,167.44,71,113.74,113.74,0,0,1,156,73c-2.06.24-4.12.48-6.19.66s-4.16.31-6.25.41c-1.77.09-3.54.1-5.31.16-.42,0-.84.05-1.25.08H131.6a2.15,2.15,0,0,0-.33-.06c-.91,0-1.83,0-2.74,0q-3.78-.18-7.56-.4c-1.5-.09-3-.21-4.5-.36-1.68-.17-3.35-.36-5-.6-2.37-.34-4.73-.69-7.08-1.12a90.88,90.88,0,0,1-9-2.14A59.81,59.81,0,0,1,84,65.13a28.25,28.25,0,0,1-7.74-5.7,13.58,13.58,0,0,1-3.65-7c-.07-.44-.13-.88-.2-1.31s0-.87,0-1.3c0-.11.06-.22.08-.33a25,25,0,0,1,.54-2.64A15.44,15.44,0,0,1,78,39.89a35.07,35.07,0,0,1,9-5.44,68.8,68.8,0,0,1,11-3.72A109,109,0,0,1,112,28.11c2.53-.3,5.07-.57,7.61-.81,1.81-.16,3.62-.26,5.43-.35s3.47-.1,5.2-.16C130.7,26.79,131.15,26.75,131.6,26.73Zm7.3,45.14,5.38-.25c1.34-.07,2.69-.12,4-.23q2.49-.19,5-.46c1.79-.19,3.58-.37,5.36-.64q3.7-.57,7.37-1.29a75.08,75.08,0,0,0,11.49-3.18,40.37,40.37,0,0,0,9.2-4.58,16.89,16.89,0,0,0,5.66-6,9.91,9.91,0,0,0,.67-8,13.56,13.56,0,0,0-4.17-5.84A29.49,29.49,0,0,0,181.93,37a62.22,62.22,0,0,0-10.46-3.73A100.36,100.36,0,0,0,160,30.91c-2.45-.36-4.9-.64-7.36-.9-2.09-.22-4.18-.39-6.27-.53-1.9-.13-3.81-.21-5.71-.27s-3.79-.11-5.69-.09c-3.42,0-6.83.13-10.25.22-1.21,0-2.42.11-3.62.2q-2.61.2-5.21.46c-1.51.15-3,.29-4.52.5-1.87.26-3.75.52-5.6.88-2.67.52-5.34,1.08-8,1.71a60.05,60.05,0,0,0-8.27,2.65,37.6,37.6,0,0,0-8.15,4.31,16.59,16.59,0,0,0-5,5.29,10,10,0,0,0-.41,9.43,14.24,14.24,0,0,0,3.72,4.78A31.59,31.59,0,0,0,88,64.62a66.64,66.64,0,0,0,12.3,3.91c2.22.49,4.47.9,6.71,1.3,1.62.29,3.26.52,4.9.74,1.33.18,2.67.3,4,.43s2.91.29,4.36.39,2.62.16,3.93.22c2.2.09,4.4.21,6.61.24C133.73,71.9,136.61,71.87,138.9,71.87Z"/><path class="cls-2" d="M189.34,73a3.4,3.4,0,1,1,3.42-3.43A3.36,3.36,0,0,1,189.34,73Zm2.87-3.42a2.86,2.86,0,0,0-2.85-2.85,2.87,2.87,0,1,0,0,5.73A2.86,2.86,0,0,0,192.21,69.63Z"/><path class="cls-2" d="M164.69,66.76l-5.76-20.33h-.09c0,.11,0,.21,0,.32q0,10.24,0,20.48c0,.22,0,.42-.29.47-1,.13-1.94.29-2.91.44a1.73,1.73,0,0,1-.24,0V32.92c.37,0,.72,0,1.07.08l2.2.29a.4.4,0,0,1,.38.35q1.09,4,2.19,8l3.49,12.66a.55.55,0,0,0,.18.3V34.22c1.1.25,2.14.48,3.18.74.09,0,.18.18.2.28a2.63,2.63,0,0,1,0,.51q0,15,0,29.91c0,.29-.1.39-.37.45C166.86,66.31,165.8,66.53,164.69,66.76Z"/><path class="cls-2" d="M138.69,50.5q0-7.24,0-14.47a3.8,3.8,0,0,1,3.41-4,17.11,17.11,0,0,1,4.37,0,8.25,8.25,0,0,1,2.62.62,4.05,4.05,0,0,1,2.48,4.11q0,7,0,14,0,6.57,0,13.14a6.48,6.48,0,0,1-.27,2.13,4,4,0,0,1-3.11,2.64,18.26,18.26,0,0,1-2.53.35,20,20,0,0,1-2.4.06,6,6,0,0,1-2.64-.63,3.48,3.48,0,0,1-1.86-2.74,8.39,8.39,0,0,1-.07-1.23q0-7,0-14Zm3.46-.07q0,6.69,0,13.38a1.66,1.66,0,0,0,1.3,1.74,6.69,6.69,0,0,0,3.65-.14,1.49,1.49,0,0,0,1.12-1.54q0-13.33,0-26.65a1.64,1.64,0,0,0-1.31-1.7,8.41,8.41,0,0,0-3-.24,1.8,1.8,0,0,0-1.75,1.94Q142.15,43.83,142.15,50.43Z"/><path class="cls-2" d="M125.47,58.33v.55c0,3.26,0,6.52,0,9.77,0,.33-.09.43-.42.42-1-.05-2-.07-3-.1v-.4q0-18,0-36c0-.47,0-.47.46-.49,2.32-.12,4.65-.26,7-.35a15.2,15.2,0,0,1,2.79.08,3.18,3.18,0,0,1,2.7,2.87,9.54,9.54,0,0,1,.07,1.13q0,9.07,0,18.14a4.4,4.4,0,0,1-.61,2.42,4.16,4.16,0,0,1-3,1.81,10.72,10.72,0,0,1-1.67.13c-1.27,0-2.54,0-3.81,0Zm0-23.11v.46q0,9.39,0,18.79c0,.33.1.42.43.42,1.39,0,2.79,0,4.18.09a1.26,1.26,0,0,0,1.47-1.29c0-.1,0-.21,0-.31q0-8.67,0-17.35c0-.64-.27-.89-.91-.88l-3.18.06Z"/><path class="cls-2" d="M113.4,32.79c0,.14,0,.26,0,.37q0,15,0,30a6.38,6.38,0,0,1-.39,2.42,3.17,3.17,0,0,1-2.76,2,14.18,14.18,0,0,1-4.74-.44,10.9,10.9,0,0,1-2.79-.88,3.8,3.8,0,0,1-2.16-3.16,15.08,15.08,0,0,1-.07-1.64q0-13,0-26c0-.35.09-.49.44-.56.95-.18,1.89-.42,2.88-.64,0,.2,0,.36,0,.53q0,13.41,0,26.83c0,1.17.35,1.72,1.46,2a21.52,21.52,0,0,0,3.13.53c1,.1,1.47-.4,1.52-1.41,0-.19,0-.39,0-.58q0-14.2,0-28.4c0-.37.05-.53.48-.56C111.4,33.09,112.38,32.93,113.4,32.79Z"/><path class="cls-2" d="M96.68,50.5q0,5,0,10A3.51,3.51,0,0,1,95,63.69a2.37,2.37,0,0,1-2,.26,48.4,48.4,0,0,1-7.36-3c-1-.54-1-.55-1-1.68q0-9.07,0-18.14a.61.61,0,0,1,.34-.63,34.63,34.63,0,0,1,7.6-3.25,3.13,3.13,0,0,1,4.18,2.95c0,1.73,0,3.45,0,5.18S96.68,48.78,96.68,50.5Zm-3.44,0h0q0-4,0-8.06a4.23,4.23,0,0,0,0-.48c-.1-.86-.63-1.22-1.44-.91-1.19.45-2.36,1-3.55,1.43-.22.09-.23.25-.23.44Q88,50.49,88,58a.45.45,0,0,0,.32.49c.74.31,1.46.64,2.2.95a13.88,13.88,0,0,0,1.6.59.84.84,0,0,0,1.07-.73,3.93,3.93,0,0,0,.05-.65Q93.25,54.6,93.25,50.54Z"/><path class="cls-2" d="M185,45.44a33.27,33.27,0,0,0-4.71-2.82c0,.19,0,.32,0,.46q0,9.38,0,18.76a.45.45,0,0,1-.32.49l-3,1.25c0-.17,0-.29,0-.42q0-10.8,0-21.61c0-.31-.06-.5-.39-.6-1.41-.43-2.8-.88-4.2-1.34-.11,0-.26-.15-.26-.24,0-1.11,0-2.21,0-3.38.66.18,1.29.34,1.9.52a43.07,43.07,0,0,1,7.4,2.84c1.16.59,2.28,1.24,3.42,1.88a.4.4,0,0,1,.19.28C185,42.79,185,44.07,185,45.44Z"/><path class="cls-3" d="M192.21,69.63a2.86,2.86,0,0,1-2.86,2.88,2.87,2.87,0,1,1,0-5.73A2.86,2.86,0,0,1,192.21,69.63Zm-2.11,0c.21-.21.49-.39.61-.64a1,1,0,0,0-.86-1.38c-.51-.06-1,0-1.54-.08-.22,0-.3.06-.3.29q0,1.73,0,3.46c0,.19,0,.28.25.26s.35,0,.34-.26,0-.82,0-1.23c0-.19.06-.28.25-.27s.27,0,.41,0c.53.07.61.16.69.67a5.86,5.86,0,0,1,.11.71c0,.32.17.39.44.36l.34,0c-.06-.34-.14-.65-.16-1S190.53,69.78,190.1,69.67Z"/><path class="cls-2" d="M190.1,69.67c.43.11.54.48.57.91s.1.62.16,1l-.34,0c-.27,0-.43,0-.44-.36a5.86,5.86,0,0,0-.11-.71c-.08-.51-.16-.6-.69-.67-.14,0-.27,0-.41,0s-.26.09-.25.27c0,.41,0,.82,0,1.23s-.16.24-.34.26-.25-.08-.25-.26q0-1.73,0-3.46c0-.23.07-.3.3-.29.51,0,1,0,1.54.08a1,1,0,0,1,.86,1.38C190.59,69.28,190.31,69.46,190.1,69.67Zm-1.5-1a2,2,0,0,0,0,.37c0,.07.1.18.14.18a3.52,3.52,0,0,0,1-.1c.15-.05.27-.34.3-.54a.37.37,0,0,0-.38-.4c-.18,0-.36,0-.54,0C188.6,68.15,188.6,68.15,188.6,68.68Z"/><path class="cls-3" d="M188.6,68.68c0-.53,0-.53.53-.53.18,0,.36,0,.54,0a.37.37,0,0,1,.38.4c0,.2-.15.48-.3.54a3.52,3.52,0,0,1-1,.1s-.13-.11-.14-.18A2,2,0,0,1,188.6,68.68Z"/></svg>