<svg id="Layer_1" data-name="Layer 1" xmlns="http://www.w3.org/2000/svg" viewBox="0 0 267 103.6"><defs><style>.cls-1{fill:none;}.cls-2{fill:#78797a;}.cls-3{fill:#fff;}</style></defs><title>GPM-8</title><rect class="cls-1" y="1.3" width="267" height="100"/><path class="cls-2" d="M104.2,57.64V51.81h13.37V63.75a27.41,27.41,0,0,1-6.79,3.56,23.07,23.07,0,0,1-7,.95,17,17,0,0,1-8.13-1.7,11.64,11.64,0,0,1-4.87-5.06A16.64,16.64,0,0,1,89,53.78a16.11,16.11,0,0,1,1.89-8,12.25,12.25,0,0,1,5.54-5.15,18,18,0,0,1,7.66-1.36,21.52,21.52,0,0,1,6.94.84,9,9,0,0,1,3.82,2.61,11.59,11.59,0,0,1,2.28,4.48l-8.35,1.49a4.52,4.52,0,0,0-1.75-2.43,5.46,5.46,0,0,0-3.14-.84,5.67,5.67,0,0,0-4.54,2q-1.69,2-1.69,6.26,0,4.55,1.71,6.5a6,6,0,0,0,4.77,1.95,9.07,9.07,0,0,0,2.77-.42,14.94,14.94,0,0,0,3-1.43V57.64Z" transform="translate(0 1.3)"/><path class="cls-2" d="M125.41,39.77H139.8q4.7,0,7,2.24a8.38,8.38,0,0,1,2.34,6.36A8.64,8.64,0,0,1,146.63,55q-2.55,2.39-7.79,2.39H134.1V67.78h-8.69Zm8.69,11.94h2.12a5.46,5.46,0,0,0,3.52-.87,2.8,2.8,0,0,0,1-2.23,3.12,3.12,0,0,0-.88-2.24q-.88-.92-3.31-.92H134.1Z" transform="translate(0 1.3)"/><path class="cls-2" d="M156.35,39.77h11.38l4.39,17,4.36-17h11.38v28h-7.09V46.42l-5.46,21.36h-6.42l-5.45-21.36V67.78h-7.09Z" transform="translate(0 1.3)"/><path class="cls-2" d="M144.25,29.88c.19.22,1.69-.78,1.69-.78a.26.26,0,0,0,.34,0A26,26,0,0,1,149,27.41c.16,0,0,.25.28.22s2.27-1.59,2.31-1.37-1.84,1.52-1.87,1.81.13.38.13.38A27.49,27.49,0,0,0,146.56,31c.2.41.91-.16.91-.16s-.41.44-.22.56,2-1.28,2-1.28-.11.17,0,.28A7.35,7.35,0,0,1,151.59,29c.59-.12,7.59-6.34,8.69-6.75s4.91-3.22,4.31-4.75c-.28-.53-.94.66-1.06.19s1.06-2.06,1.06-2.53-2.44.28-2.44.28.23-.28.06-.36c-1.62.27-3.45,3.11-5.16,3.67-3.58,2.72-5.21,4.41-5.62,5.13C149.52,26.77,144.07,29.67,144.25,29.88Z" transform="translate(0 1.3)"/><path class="cls-2" d="M159.5,29.88c.19.22,1.69-.78,1.69-.78a.26.26,0,0,0,.34,0,26,26,0,0,1,2.72-1.69c.16,0,0,.25.28.22s2.27-1.59,2.31-1.37S165,27.77,165,28.06s.13.38.13.38A27.49,27.49,0,0,0,161.81,31c.2.41.91-.16.91-.16s-.41.44-.22.56,2-1.28,2-1.28-.11.17,0,.28A7.35,7.35,0,0,1,166.84,29c.59-.12,7.59-6.34,8.69-6.75s4.91-3.22,4.31-4.75c-.28-.53-.94.66-1.06.19s1.06-2.06,1.06-2.53-2.44.28-2.44.28.23-.28.06-.36c-1.62.27-3.45,3.11-5.16,3.67-3.58,2.72-5.21,4.41-5.62,5.13C164.77,26.77,159.32,29.67,159.5,29.88Z" transform="translate(0 1.3)"/><path class="cls-2" d="M175.06,29.88c.19.22,1.69-.78,1.69-.78a.26.26,0,0,0,.34,0,26,26,0,0,1,2.72-1.69c.16,0,0,.25.28.22s2.27-1.59,2.31-1.37-1.84,1.52-1.87,1.81.13.38.13.38A27.49,27.49,0,0,0,177.38,31c.2.41.91-.16.91-.16s-.41.44-.22.56,2-1.28,2-1.28-.11.17,0,.28A7.35,7.35,0,0,1,182.41,29c.59-.12,7.59-6.34,8.69-6.75s4.91-3.22,4.31-4.75c-.28-.53-.94.66-1.06.19s1.06-2.06,1.06-2.53-2.44.28-2.44.28.23-.28.06-.36c-1.62.27-3.45,3.11-5.16,3.67-3.58,2.72-5.21,4.41-5.62,5.13C180.33,26.77,174.88,29.67,175.06,29.88Z" transform="translate(0 1.3)"/><path class="cls-2" d="M85.38,69.16h0a.28.28,0,0,1-.23-.33C92.23,27.1,62.72-.53,62.42-.81a.28.28,0,0,1,0-.4.28.28,0,0,1,.4,0c.3.28,30,28.11,22.85,70.15A.28.28,0,0,1,85.38,69.16Z" transform="translate(0 1.3)"/><path class="cls-2" d="M99.5,85.16h-.07a.28.28,0,0,1-.21-.34c6.18-25.87,3.32-44.41-.17-55.41C95.28,17.5,90,11.62,89.92,11.57a.28.28,0,1,1,.42-.38c.21.23,21.34,23.94,9.44,73.76A.28.28,0,0,1,99.5,85.16Z" transform="translate(0 1.3)"/><path class="cls-2" d="M111.63,76h-.08a.28.28,0,0,1-.19-.35c9.47-30.51-1.74-50.45-1.85-50.65a.28.28,0,0,1,.49-.28c.12.2,11.45,20.34,1.9,51.1A.28.28,0,0,1,111.63,76Z" transform="translate(0 1.3)"/><path class="cls-2" d="M117,102.3a.28.28,0,0,1-.14,0,.28.28,0,0,1-.11-.38,100,100,0,0,0,10.34-35,.29.29,0,0,1,.31-.26.28.28,0,0,1,.26.31,100.6,100.6,0,0,1-10.41,35.25A.28.28,0,0,1,117,102.3Z" transform="translate(0 1.3)"/><path class="cls-2" d="M101.92,18.92a61.64,61.64,0,0,1-6.86-.38,45.28,45.28,0,0,1-13.18-3.26.28.28,0,1,1,.25-.51c.19.09,19.47,9,46.77-1.79a.28.28,0,1,1,.21.53A73.66,73.66,0,0,1,101.92,18.92Z" transform="translate(0 1.3)"/><path class="cls-2" d="M119.24,34.32C101,34.32,82,26.06,71.55,21.54c-3.5-1.52-6-2.61-6.8-2.61a.28.28,0,1,1,0-.57c.89,0,3.2,1,7,2.66,13.55,5.87,41.74,18.09,63.51,10.09a.28.28,0,0,1,.2.53A46.94,46.94,0,0,1,119.24,34.32Z" transform="translate(0 1.3)"/><path class="cls-2" d="M128.25,77.16h-.06C94.48,70.46,72.74,43,72.53,42.67a.28.28,0,1,1,.45-.35c.21.28,21.83,27.62,55.33,34.27a.28.28,0,0,1-.05.56Z" transform="translate(0 1.3)"/><path class="cls-2" d="M143.56,57.86c-33.27,0-53.4-15.47-53.61-15.64a.28.28,0,0,1,.35-.45C90.53,42,113.92,59.92,152,57a.28.28,0,0,1,.3.26.28.28,0,0,1-.26.3C149.12,57.76,146.29,57.86,143.56,57.86Z" transform="translate(0 1.3)"/><path class="cls-2" d="M80.32,87.52c-.17,0,0,.39,0,.47C80.57,87.82,80.28,87.41,80.32,87.52Z" transform="translate(0 1.3)"/><polygon class="cls-2" points="82.7 87.15 82.7 87.33 82.97 86.81 82.7 87.15"/><path class="cls-2" d="M85.2,85.15c-.43-.62-.87.37-1.39.25l-.12-.14,0,.61C84.16,85.64,84.76,85.07,85.2,85.15Z" transform="translate(0 1.3)"/><path class="cls-2" d="M86.92,86.27c-.15-.25.22-.31-.33,0l.07.05A1.1,1.1,0,0,1,86.92,86.27Z" transform="translate(0 1.3)"/><path class="cls-2" d="M86.67,86.32c-.25.09.23.18,0,0Z" transform="translate(0 1.3)"/><path class="cls-2" d="M87.83,85.83l-.28.34c.11.14.43.09.34.24C88.21,86.17,88.1,86,87.83,85.83Z" transform="translate(0 1.3)"/><path class="cls-2" d="M88,85.23l-.15.15C87.92,85.44,88,85.45,88,85.23Z" transform="translate(0 1.3)"/><path class="cls-2" d="M87.55,85.7l.32-.32c-.08-.1-.14-.32-.15.13C87.7,85.29,87.67,85.51,87.55,85.7Z" transform="translate(0 1.3)"/><path class="cls-2" d="M87.31,85.66c-.23-.1-.51-.12-.22-.46C86.45,85.49,86.68,85.94,87.31,85.66Z" transform="translate(0 1.3)"/><path class="cls-2" d="M85.13,84.4l-.32-.13-.16.29C84.73,84.43,85.2,84.62,85.13,84.4Z" transform="translate(0 1.3)"/><path class="cls-2" d="M90.07,85.65c0-.15-.21-.37-.28-.55l-.22.23C89.73,85.39,90,85.43,90.07,85.65Z" transform="translate(0 1.3)"/><path class="cls-2" d="M89.79,85.1l.33-.34C89.76,84.8,89.73,84.94,89.79,85.1Z" transform="translate(0 1.3)"/><polygon class="cls-2" points="87.89 85.74 87.4 86.45 88.01 85.7 87.89 85.74"/><polygon class="cls-2" points="91.55 86.64 91.41 87.03 91.68 86.43 91.55 86.64"/><path class="cls-2" d="M92.52,85.07c-.1.32.33.43.2.64a1.51,1.51,0,0,0,.58-.67C93.1,85.22,92.87,85.24,92.52,85.07Z" transform="translate(0 1.3)"/><path class="cls-2" d="M93.57,84.66a2.08,2.08,0,0,0-.27.39A1.09,1.09,0,0,0,93.57,84.66Z" transform="translate(0 1.3)"/><path class="cls-2" d="M90.79,84.69a.66.66,0,0,0,.4.36l-.25-.38Z" transform="translate(0 1.3)"/><path class="cls-2" d="M90.94,84.65h0l.33,0Z" transform="translate(0 1.3)"/><path class="cls-2" d="M90.75,84.69h0S90.76,84.64,90.75,84.69Z" transform="translate(0 1.3)"/><path class="cls-2" d="M89,84.56c.17-.28.59-.63,0-.89C88.94,84,89.25,84.13,89,84.56Z" transform="translate(0 1.3)"/><path class="cls-2" d="M90.44,84.22H90c0,.11.15.25.06.39Z" transform="translate(0 1.3)"/><polygon class="cls-2" points="90.61 85.34 90.44 85.51 90.6 85.52 90.61 85.34"/><path class="cls-2" d="M92.78,84.42a.9.9,0,0,1,.54-.36,2.21,2.21,0,0,0-.74,0C92.58,84.23,92.53,84.49,92.78,84.42Z" transform="translate(0 1.3)"/><path class="cls-2" d="M91.88,84.49l0,0S91.86,84.42,91.88,84.49Z" transform="translate(0 1.3)"/><polygon class="cls-2" points="95.48 84.89 95.43 84.82 95.44 84.9 95.48 84.89"/><path class="cls-2" d="M92.52,84c-.2,0-.28.08-.35.23a1.53,1.53,0,0,1,.41-.16C92.58,84,92.58,84,92.52,84Z" transform="translate(0 1.3)"/><path class="cls-2" d="M94.13,84.33a1.92,1.92,0,0,0-.36-.16C93.89,84.28,94.12,84.44,94.13,84.33Z" transform="translate(0 1.3)"/><path class="cls-2" d="M92,84.56l0,0C92.05,84.66,92,84.62,92,84.56Z" transform="translate(0 1.3)"/><path class="cls-2" d="M92,84.56a1.15,1.15,0,0,0,.18-.31,1,1,0,0,0-.26.2Z" transform="translate(0 1.3)"/><path class="cls-2" d="M95.6,80.76a.54.54,0,0,1-.85.53c-.34.38.19,1.6.68,2.23,0-.17-.05-.33.31-.65-.19-.18-1-.3-.74-.72.5-.32.47,0,.78.19-.32-.43.55-.86.29-1.54l-.43.36C95.61,81,95.75,80.83,95.6,80.76Z" transform="translate(0 1.3)"/><path class="cls-2" d="M94.65,83.65l-.16.08a1.5,1.5,0,0,1,.69.4.69.69,0,0,0,.26-.54l-.84.13Z" transform="translate(0 1.3)"/><path class="cls-2" d="M93.74,83.91c0-.45.41-.72.06-1.12-.49.14-.27.43-.53.67.77-.28-.18.28.45.4a1.45,1.45,0,0,1-.4.2,2.34,2.34,0,0,1,.45.1l0,0h0s-.06-.07,0-.05h0a.74.74,0,0,1,0-.17c.25,0,.06.1,0,.17v.06h0l.74-.4A1.77,1.77,0,0,0,93.74,83.91Z" transform="translate(0 1.3)"/><path class="cls-2" d="M89.24,82.67a.17.17,0,0,1,0,.09C89.33,82.7,89.34,82.66,89.24,82.67Z" transform="translate(0 1.3)"/><path class="cls-2" d="M89.63,82.85c0,.07-.05.25-.25.25s0-.2-.09-.34c-.09.14-.33.39.08.51l0-.07c.36.07.9.51.85.58A3.58,3.58,0,0,0,89.63,82.85Z" transform="translate(0 1.3)"/><path class="cls-2" d="M91.7,83.27l.62-.35-.42-.29.07.21C91.56,82.84,91.7,83.09,91.7,83.27Z" transform="translate(0 1.3)"/><polygon class="cls-2" points="95.6 85.08 95.61 85.55 95.86 84.84 95.6 85.08"/><polygon class="cls-2" points="96.45 84.84 96.5 85.24 96.67 84.95 96.45 84.84"/><path class="cls-2" d="M146,74l.2-.11A.6.6,0,0,0,146,74Z" transform="translate(0 1.3)"/><path class="cls-2" d="M144.54,74l0,.2C144.57,74.11,144.6,74,144.54,74Z" transform="translate(0 1.3)"/><path class="cls-2" d="M117.88,80.4c.33.34.71.89.63.45l-.13-.42A.49.49,0,0,1,117.88,80.4Z" transform="translate(0 1.3)"/><path class="cls-2" d="M132.61,76.74l-.09-.13-.18.43Z" transform="translate(0 1.3)"/><path class="cls-2" d="M132.73,74.94l.4.26A1.28,1.28,0,0,0,132.73,74.94Z" transform="translate(0 1.3)"/><path class="cls-2" d="M154,73.55l.24-.44C153.91,73.11,154.07,73.33,154,73.55Z" transform="translate(0 1.3)"/><path class="cls-2" d="M105.32,81.85A1.39,1.39,0,0,0,106,82C105.64,81.81,105.34,81.48,105.32,81.85Z" transform="translate(0 1.3)"/><path class="cls-2" d="M145.5,78.65a.3.3,0,0,0,.17-.26C145.54,78.46,145.47,78.54,145.5,78.65Z" transform="translate(0 1.3)"/><path class="cls-2" d="M106.69,81.88l-.15-.08a1.16,1.16,0,0,1-.57.2C106.22,82.15,106.49,82.22,106.69,81.88Z" transform="translate(0 1.3)"/><path class="cls-2" d="M183.11,75l.06.06C183.18,75,183.15,75,183.11,75Z" transform="translate(0 1.3)"/><path class="cls-2" d="M191.15,80.1a1.56,1.56,0,0,1-.34,0A.49.49,0,0,0,191.15,80.1Z" transform="translate(0 1.3)"/><path class="cls-2" d="M100,83.09c-.18.06,0,.05,0,0Z" transform="translate(0 1.3)"/><path class="cls-2" d="M98.76,81.55a.33.33,0,0,0,0-.22A.42.42,0,0,1,98.76,81.55Z" transform="translate(0 1.3)"/><path class="cls-2" d="M108.17,79h0C108.12,78.89,108.13,78.9,108.17,79Z" transform="translate(0 1.3)"/><path class="cls-2" d="M99.65,82.94a.9.9,0,0,0,.26.09A1,1,0,0,0,99.65,82.94Z" transform="translate(0 1.3)"/><path class="cls-2" d="M99.73,83.13h-.17C99.55,83.19,99.58,83.23,99.73,83.13Z" transform="translate(0 1.3)"/><path class="cls-2" d="M100.22,83a.81.81,0,0,1-.31,0s.06,0,.05.06Z" transform="translate(0 1.3)"/><path class="cls-2" d="M167.5,75.37l0,0C167.73,75.24,167.65,75.27,167.5,75.37Z" transform="translate(0 1.3)"/><path class="cls-2" d="M122.39,75.49l0,0h0Z" transform="translate(0 1.3)"/><path class="cls-2" d="M123,75.11c-.25.56-.42.51-.65.42l.33,1.23Z" transform="translate(0 1.3)"/><path class="cls-2" d="M149.53,73.9l-.48-.39c.58-.64,1-.43.54-1-.06,1.36-1.87.15-1.93,1.51l-.32-.28c.09,0,.1-.07.19-.05-.62-.65-.45,1-1.24.8-.28-.1-.47-.3-.29-.46l-.61.34a.12.12,0,1,1,0-.24l-.94.12v0a4.74,4.74,0,0,1-.57.7c-.24-.19.12-.15.05-.32l-.51.34c-.22-.35.21-.7.57-.66-.51-1.34-.42.35-1.49-.41l.49-.19c-.33-.76-.71-.47-1.28-.94.14.25,1.14,1.18.58,1.53-.16-.1-.37-.14-.67.14,0-.48-.31-.36-.68-.32v-.64c-.4.2-.36.52-.59.82-.45-.05-.56-.54-.68-1-.72-.08.52.78-.33.92-.6-.23-1,0-1.72.45-.43-.21.06-.39-.1-.57l-.35.52c-.09,0-.07-.17-.06-.25-.3.21,0,.64-.49.83-.1.71-1-1-1.62-.18-.16-.17.06-.4,0-.64a4.53,4.53,0,0,0-1.35,1.16l-.6-.39c.45.46-.07,1.05-.52,1.55a5.72,5.72,0,0,0,.39.51l-.74.38c-.1-.1,0-.32.08-.6l-.13.16c-.28-.22-.16-.6,0-1l.29.38a2.42,2.42,0,0,0,.27-1.21.51.51,0,0,1-.24.19.4.4,0,0,0,0-.27c0-.07-.1.08-.22.25l-.21-.7,0,.29-1-.39c-.68.76-1.24,1.84-2.35,2.2.25-.54,0-.86,0-1.48.35.64.86-.33,1.46-.23a.29.29,0,0,1-.19-.46l-1,.65c0-.51-.25-.37-.53-.56.27,1-.74.71-1.15,1,0-.33,0-.68.56-.63-.62-.72-.67,1.21-1.27.61.13,0,.2,0,.24-.14-.28.31-1,.12-.87-.18h.13c-.85-.06-2.57.21-2.62,1.06a9.55,9.55,0,0,1,.07-1.21l-1.27,3c.07-.74-.58-2.43.09-2.9a.77.77,0,0,0-.87.11c.15.09.43,1,.25,1.11-.58-.77-.39-.4-1.08-1,.22.14.09,1.3-.24,1.29,0-.18-.13-1.12,0-1.25l-.71,1.19c.18-.22-.05-1-.26-1.25.1.21-.7,0-.91.17l.37.23c-.93-.09-.75,1.65-1.65,1.67.09-.24.13-1.45-.35-1.55-.16.59-.65,2.83-1.39,3.38l-.19-.31-.56.45a19.2,19.2,0,0,1,1.66-3.62c-.37-.23-.13-.38-.64-.29-.21-.28.23-.5.38-.53L115,75.2c.12.66-.84.78-.73,1.33l1.21-.85c.12.66-.54,2-1.39,2-.24-.24,0-1.21,0-1.43-.08.24-.75.54-.84.38l.32-.4c-.5-.19-.66,1-1.3.41-.2,0-.68-.79-.67-.39a8.94,8.94,0,0,1,.61,3.67,6.54,6.54,0,0,1-1.36-1c-.39-.56.3-1.48,0-2a1,1,0,0,1-.2.51c-.22-.13,0-.57-.42-.44,0,.69-.91.05-.14.6-.41.25-.48-.08-1,0a2,2,0,0,1-.66,1.79,1,1,0,0,0-.19-.48,18.73,18.73,0,0,0-2.23-.08c-.1-.15-.52-.28-.4-.6-.1.14-.17.39-.43.44-.58-.5.55-.18.07-.82,0,.4-.57.65-.9,1,.2.59.85,0,1.17-.33a2.55,2.55,0,0,1-1.16,2.34c-.64.32-.38-.49-.48-.35-1.29.06-.84,1.63-2,1.21-.51-.46-.2-1.05-.35-1.42.52-.29.9.2,1.27.11l-.5-.17c.15-.21.49-.4.72-.28-.43-.42-2.17.26-3.23,0-.14.21-.41.44-.23.63l.3-.13c.36.38-.48.69-.05.82-.36.37-.74.92-1.37.77l-.22-.58c0,.17.45.3.58.08-.19.31-1-.67-1.17.17l.49.35c-.36.36-.74,1.12-1.29,1,.35.54.1-.09.6.52-.48-.82,1.31-.22.63-1,.53.75.71.24,1.33.84-.05-.2-.24-.35.21-.33a.84.84,0,0,1,.06-.19h0l0,0s0,0,0,0a.71.71,0,0,1-.28-.27c.13-.49.82-.59,1-.87.27.05-.07.25.11.44l.29-.41c.11.44.81.62.25,1l.55-.07a1,1,0,0,0,1.06,0c.27.05.57-.6.4-.21l.81-.42,0,.11c.85-.08,1.62-1,2.7-.38a1.38,1.38,0,0,1,1-.28l.15.37c.35-.18,1.15.25,1.25-.17.53,1,1.8,0,2.47.12l0-.51a3.54,3.54,0,0,0,1.38-.49l-.09-.44c.43-.42,1.26.17,2,0,0,.18-.23.16-.37.07,1,.9,1.81-1,2.71-.31a.35.35,0,0,1,.5,0l0,0h.08c.1.07.2.15.31.21a1,1,0,0,0-.26-.22,1.81,1.81,0,0,0,.61-.23l.15.47.05,0c.25.16.16-.24,0-.59a1.19,1.19,0,0,0,.28-.32c.26.76.59-.31.92.49.12-.42,1.15-.4,1.2-1.26,0,.11.09.16,0,.17.27.07.54.15.75-.11l.16.6.5-.87c.38.34.54.55.23,1,.77-.79.65-.33,1.3-1.11v.4c.25,0,.62-.6.79-.29.62.68,2.81-.11,4.31.52-.35-1.15.71.48.71-.42.1.27.31.41.09.67.73-.31,1.14.38,1.61-.41.1.27-.14.41-.05.57.06-.06.22-.25.31-.09s-.1.24-.21.36c.75-.09.79-.94.8-1.74.4.36.59.29.85-.25.15.25.38.51-.08.63.27,0,1.64.29,1.64-.35.09.16.37,0,.44-.05a6.38,6.38,0,0,0,1.23,0l-.17-.1c.2-.78.48-.19.95-.29v.08c1.1.53.46-.28,1.55.32l-.07-.48c.07-1,1,.58,1.57.17l-.23-.27c.33-.36,1,1.38,1.33,1.49.08.09-.11.15-.21.22.9.58.1-.63.76-.8.13.34-.14.87.31.92.23.27,1.27-1.14,1.89-.5-.14-.26-.28-.51,0-.72.47-.11,1.29,1,1.7.14a.33.33,0,0,1,.09.2c.36-.21,1.17-.36,1.38-.81.35,1.65,2.24-.82,2.24.71l1.11-.09,0,.16a1.1,1.1,0,0,0,1.21-.64c.16.1,0,.25,0,.33,1,.3,1.14.24,2-.53l.09.5c.24-.28,1.49.8,2.51.24a.37.37,0,0,1-.11.22c1.15-.56,2.71,1.42,3.16-.38l.76-.43c-1-.15.16-.78-.24-1.09.39-.1,1,.56.51.64l-.07-.09c-.19.94,1.21.35,1.17,1,1.92,0,3.78.59,5.58.69l-.18-.74.63.06c.16.18.2.58-.25.53.22.42.76-.32.78-.48.87.32-.37.84-.11.87l.37,0-.08-.09c.31-.29.35-.6.88-.55.33.16.16.46.29.49s0,.08.2,0l.79.1L170,78.4c.36-.27.74.07.41-.6.49,1,2.93.51,3.25.83a1.9,1.9,0,0,1,1.59-.29c-.14-.13-.2-.78.32-.68-.26,1.33.92.62,1.28,1.62-.34-.66,1.48-.07.95-1,.43.14,0,.5.3.84,1.06-.45,2.24.48,3.52.38,0-.17-.16-.46.13-.7l.61.92c.26-.07.3-1,.72-.35-.05-.15-.13-.38,0-.43,2.42,1,5.14-.31,7.51,1.52-.31-.37-.08-.38.18-.37-.16-.1,0-.43,0-.67l1,.76c.26-.64,1.13.06,1.3-.55l-.34.08c.52-.7-.45-1.71-.29-2.66-.58.8-1.2-1.39-2.14-.25-.16-.21.18-.29.11-.52-.25.39-.51.45-1,.23l.06-.1c-1.32,0-1.85-.48-3.3-.85l.07.48c-.31-.09-.37-.24-.51-.37-.42.69.89.11.49.87-.34-1-2.23-.18-2.43-1.3-.49,0,.1.56-.38.51l-.11-.31-.15.37a.73.73,0,0,1-.44-.72c.08,0,.23-.05.31-.07-.39-.38-1.18,0-1.31-.09l.46.21c-1.35.19-3-.3-4.28.22l.08.23c-1,.35-.77-.3-1.86-.17l0-.05a1,1,0,0,1-.82.27c.29-.25-.49-.53-.11-.8-1.09.39-.55.32-1.29,1.12l-.14-.38c-.26.32-.29.5-.83.57.46-.3-.32-.58.2-1-1.09-.87-1.72.74-2.18-.47-.56,1,1,.62.65.82.23.35-.46.75-.81.63s-.56-1.34-1.47-1.36c.09,0,.1-.07.19-.06-.33-.27-.68.33-1.08-.11-.26.61-.54-.05-.64.74l.84-.16c-.48.19-1,1.1-1.72.63a1.47,1.47,0,0,1,.47-.47c-.22-.24-.44.14-.67-.11.1-.79,1-.14,1.55-.73-.23-.34-1,.54-.69-.31-.41,1.08-.89-.17-1.54.65l.06-.47c-.1.07-.31.29-.49.27l.35-.6c-.52.51-.95-.49-1.44-.22,1,0,.21.58.62.94-1.25.59-.67-1.26-2.07-1.08.19-.06.7.31.4.52a1.66,1.66,0,0,1-.76-.55c-.92.07.13.49-.27.77-.3-.59-.46.22-.86.4v-.48c-1-.33-.3,1-1.23.61l.41-.66-.49.17.11-.55c-.54.4-.71.29-1.23.13a.66.66,0,0,1-.55.88c-.31-.29.18-.46-.47-.4.15-.3.32-.68.6-.23,0-.16.15-.3.18-.46-.33-.33-.85-.09-1.09-.09a.44.44,0,0,1,.26.12l-1,.65c-.15-.18,0-.33.09-.47-.19,0-.33.27-.61.31.08-.39.07-.8.47-1l-.91.42c-.06-.17-.46-.48-.34-.62-.5-.24-1.24.74-1.91.43a.41.41,0,0,1-.25.2c-.63-.09-1.18-.57-1.93,0l-.42-.7c-.58.16.57.88-.4,1.15-.69.23-.26-.6-.5-.79-.34.36-.93,1.08-1.56.51C149.17,73.85,149.33,74,149.53,73.9Zm-7.17.4c.14-.1.41-.43.52-.14C142.72,74.72,142.59,74.45,142.35,74.3Zm-10.84,1.57c.09-.17.26-.09.45.08A.48.48,0,0,1,131.51,75.87Zm-29.59,6.49v0C102.26,82.47,102.14,82.42,101.92,82.36Zm-.66-.1a.17.17,0,0,0,0,.2c0-.13.16-.16.33-.15C101.52,82.2,101.43,82.12,101.26,82.26Zm68.13-3.58-.12-.13C169.56,78.42,169.47,78.55,169.39,78.68Z" transform="translate(0 1.3)"/><path class="cls-2" d="M132.71,75.15a.77.77,0,0,1,.07.26A.18.18,0,0,0,132.71,75.15Z" transform="translate(0 1.3)"/><path class="cls-2" d="M154,73.63h0a.33.33,0,0,0,0-.09Z" transform="translate(0 1.3)"/><path class="cls-2" d="M110.47,76.77a.59.59,0,0,1,.29.22C110.74,76.86,110.67,76.77,110.47,76.77Z" transform="translate(0 1.3)"/><path class="cls-2" d="M98.1,83.61l.38-.19c-.19.06-.28,0-.39-.1C98.11,83.44,98.22,83.59,98.1,83.61Z" transform="translate(0 1.3)"/><path class="cls-2" d="M94.06,81.43c0,.07-.12,0-.17.1l.06.22C94.2,81.68,94.34,81.47,94.06,81.43Z" transform="translate(0 1.3)"/><path class="cls-2" d="M97.43,82.11c-.11-.39-.33-.2-.6-.07h0C96.91,82.61,97.17,82.36,97.43,82.11Z" transform="translate(0 1.3)"/><path class="cls-2" d="M96.77,82.07a.61.61,0,0,1-.26.07C96.53,82.36,96.63,82.16,96.77,82.07Z" transform="translate(0 1.3)"/><path class="cls-2" d="M100.51,82.66c-.15-.08,0,.52-.1.37C100.36,83.56,101.19,82.27,100.51,82.66Z" transform="translate(0 1.3)"/><polygon class="cls-2" points="96.95 82.14 97.15 82.61 97.23 82.18 96.95 82.14"/><path class="cls-2" d="M99.25,80.82l-.48-.06a.18.18,0,0,1-.09.19C99,80.91,99.29,81,99.25,80.82Z" transform="translate(0 1.3)"/><path class="cls-2" d="M98.68,80.94a.47.47,0,0,0-.35.14A1,1,0,0,0,98.68,80.94Z" transform="translate(0 1.3)"/><polygon class="cls-2" points="97.54 81.87 97.69 81.95 98.02 81.94 97.54 81.87"/><path class="cls-2" d="M104.13,80.11l.47-.22c0-.18-.13-.26-.3-.16S104,80,104.13,80.11Z" transform="translate(0 1.3)"/><path class="cls-2" d="M102.41,79c.15.08.18.19.28.34l-.08-.62Z" transform="translate(0 1.3)"/><path class="cls-2" d="M103.84,78.62c0-.18.65-.61,0-.47C103.84,78.33,103.36,78.55,103.84,78.62Z" transform="translate(0 1.3)"/><polygon class="cls-2" points="111.45 79.66 111.32 79.68 111.47 80.69 111.45 79.66"/><path class="cls-2" d="M117.83,75.19c-.62-.19-.08.64-.65.38-.12.25.46.21.34.43C117.86,75.72,118.06,75.84,117.83,75.19Z" transform="translate(0 1.3)"/><path class="cls-2" d="M117.53,76a1.25,1.25,0,0,0-.17.17A.58.58,0,0,0,117.53,76Z" transform="translate(0 1.3)"/><polygon class="cls-2" points="192.48 82.07 192.83 82.32 192.63 81.96 192.48 82.07"/><path class="cls-2" d="M193.27,80.1l0,.65.29-.56C193.49,80.21,193.32,80.25,193.27,80.1Z" transform="translate(0 1.3)"/><path class="cls-2" d="M141.25,73l0,.16c.06.17.15.18.34.2Z" transform="translate(0 1.3)"/><polygon class="cls-2" points="146.48 74.7 146.39 74.69 146.57 75.28 146.48 74.7"/><path class="cls-2" d="M150.86,72.63c-.18,0-.39.11-.57.08C150.68,72.61,150.91,73.37,150.86,72.63Z" transform="translate(0 1.3)"/><path class="cls-2" d="M133,78.83v-4h1l1.2,2.81.24.59.27-.63,1.22-2.76h.91v4h-.65V75.51l-1.48,3.32h-.61l-1.47-3.37v3.37Z" transform="translate(0 1.3)"/><path class="cls-2" d="M137.84,79.68h-.65a.85.85,0,0,1-.74-.43.85.85,0,0,1-.74.43h-.61a.85.85,0,0,1-.74-.42.85.85,0,0,1-.74.42H133a.85.85,0,0,1-.85-.85v-4A.85.85,0,0,1,133,74h1a.85.85,0,0,1,.78.52l.68,1.58.7-1.58a.85.85,0,0,1,.78-.51h.91a.85.85,0,0,1,.85.85v4A.85.85,0,0,1,137.84,79.68Z" transform="translate(0 1.3)"/><path class="cls-2" d="M142.76,74.86h.67v2.29a2.17,2.17,0,0,1-.17.95,1.3,1.3,0,0,1-.63.57,2.73,2.73,0,0,1-1.19.22,3,3,0,0,1-1.17-.19,1.25,1.25,0,0,1-.65-.56,2.12,2.12,0,0,1-.19-1V74.86h.67v2.29a1.78,1.78,0,0,0,.12.76.82.82,0,0,0,.42.38,1.8,1.8,0,0,0,.73.13,1.67,1.67,0,0,0,1.06-.26,1.27,1.27,0,0,0,.32-1Z" transform="translate(0 1.3)"/><path class="cls-2" d="M141.45,79.75a3.85,3.85,0,0,1-1.5-.26,2.09,2.09,0,0,1-1.07-.94,2.9,2.9,0,0,1-.3-1.4V74.86a.85.85,0,0,1,.85-.85h.67a.85.85,0,0,1,.85.85v2.29a1.25,1.25,0,0,0,0,.39,3.12,3.12,0,0,0,.39,0,1.44,1.44,0,0,0,.5-.06s0-.13,0-.36V74.86a.85.85,0,0,1,.85-.85h.67a.85.85,0,0,1,.85.85v2.29a3,3,0,0,1-.26,1.32,2.12,2.12,0,0,1-1,1A3.51,3.51,0,0,1,141.45,79.75Z" transform="translate(0 1.3)"/><path class="cls-2" d="M145,78.83v-4h.67v3.5h2.5v.47Z" transform="translate(0 1.3)"/><path class="cls-2" d="M148.2,79.68H145a.85.85,0,0,1-.85-.85v-4A.85.85,0,0,1,145,74h.67a.85.85,0,0,1,.85.85v2.64h1.65a.85.85,0,0,1,.85.85v.47A.85.85,0,0,1,148.2,79.68Z" transform="translate(0 1.3)"/><path class="cls-2" d="M150.27,78.83v-3.5h-1.67v-.47h4v.47h-1.68v3.5Z" transform="translate(0 1.3)"/><path class="cls-2" d="M150.94,79.68h-.67a.85.85,0,0,1-.85-.85V76.18h-.82a.85.85,0,0,1-.85-.85v-.47a.85.85,0,0,1,.85-.85h4a.85.85,0,0,1,.85.85v.47a.85.85,0,0,1-.85.85h-.83v2.64A.85.85,0,0,1,150.94,79.68Z" transform="translate(0 1.3)"/><path class="cls-2" d="M153.93,78.83v-4h.67v4Z" transform="translate(0 1.3)"/><rect class="cls-2" x="153.08" y="75.31" width="2.37" height="5.66" rx="0.85" ry="0.85"/><path class="cls-2" d="M156.26,78.83v-4h1l1.2,2.81.24.59.27-.63,1.22-2.76h.91v4h-.65V75.51L159,78.83h-.61l-1.47-3.37v3.37Z" transform="translate(0 1.3)"/><path class="cls-2" d="M161.12,79.68h-.65a.85.85,0,0,0-1.48,0h-.61a.85.85,0,0,0-1.47,0h-.65a.85.85,0,0,1-.85-.85v-4a.85.85,0,0,1,.85-.85h1a.85.85,0,0,1,.78.52l.68,1.58.7-1.58a.85.85,0,0,1,.78-.51h.91a.85.85,0,0,1,.85.85v4A.85.85,0,0,1,161.12,79.68Z" transform="translate(0 1.3)"/><path class="cls-2" d="M162.71,78.83v-4h3.68v.47h-3v1.21h2.81V77h-2.81v1.35h3.12v.47Z" transform="translate(0 1.3)"/><path class="cls-2" d="M166.51,79.68h-3.79a.85.85,0,0,1-.85-.85v-4a.85.85,0,0,1,.85-.85h3.68a.85.85,0,0,1,.85.85v.47a.85.85,0,0,1-.37.7.84.84,0,0,1,.17.52V77a.85.85,0,0,1-.21.56.85.85,0,0,1,.52.79v.47A.85.85,0,0,1,166.51,79.68Z" transform="translate(0 1.3)"/><path class="cls-2" d="M167.94,78.83v-4h1.75a5.39,5.39,0,0,1,.91.06,2,2,0,0,1,.75.28,1.68,1.68,0,0,1,.6.68,2.14,2.14,0,0,1,.2.94,2.21,2.21,0,0,1-.13.8,1.8,1.8,0,0,1-.35.58,1.68,1.68,0,0,1-.46.36,2.19,2.19,0,0,1-.61.2,4.41,4.41,0,0,1-.82.07Zm.67-.47h1.09a3.34,3.34,0,0,0,.79-.07,1.21,1.21,0,0,0,.46-.21,1.23,1.23,0,0,0,.37-.5,2,2,0,0,0,.13-.76,1.52,1.52,0,0,0-.26-1,1.27,1.27,0,0,0-.64-.45,3.35,3.35,0,0,0-.87-.08h-1.07Z" transform="translate(0 1.3)"/><path class="cls-2" d="M169.77,79.68h-1.84a.85.85,0,0,1-.85-.85v-4a.85.85,0,0,1,.85-.85h1.75a6.14,6.14,0,0,1,1.06.07,2.79,2.79,0,0,1,1.06.41,2.53,2.53,0,0,1,.9,1,3,3,0,0,1,.28,1.31,3,3,0,0,1-.19,1.11,2.65,2.65,0,0,1-.52.85,2.54,2.54,0,0,1-.7.54,3,3,0,0,1-.84.28A5.35,5.35,0,0,1,169.77,79.68Zm-.31-2.17h.24a2.49,2.49,0,0,0,.58,0,.49.49,0,0,0,.14-.05.39.39,0,0,0,.11-.16,1.13,1.13,0,0,0,.07-.43.81.81,0,0,0-.08-.43.41.41,0,0,0-.22-.16,2.64,2.64,0,0,0-.62,0h-.22Z" transform="translate(0 1.3)"/><path class="cls-2" d="M173.68,78.83v-4h.67v4Z" transform="translate(0 1.3)"/><rect class="cls-2" x="172.83" y="75.31" width="2.37" height="5.66" rx="0.85" ry="0.85"/><path class="cls-2" d="M175.83,76.9a1.89,1.89,0,0,1,.68-1.54,2.68,2.68,0,0,1,1.76-.56,3,3,0,0,1,1.27.26,1.91,1.91,0,0,1,1.16,1.79,1.9,1.9,0,0,1-1.2,1.8,3.11,3.11,0,0,1-1.24.24,2.93,2.93,0,0,1-1.28-.27,2,2,0,0,1-.86-.74A1.84,1.84,0,0,1,175.83,76.9Zm.69,0A1.39,1.39,0,0,0,177,78a2.08,2.08,0,0,0,2.49,0,1.46,1.46,0,0,0,.49-1.18,1.65,1.65,0,0,0-.21-.84,1.41,1.41,0,0,0-.61-.56,2.17,2.17,0,0,0-2.14.18A1.49,1.49,0,0,0,176.53,76.91Z" transform="translate(0 1.3)"/><path class="cls-2" d="M178.26,79.75a3.78,3.78,0,0,1-1.65-.35,2.83,2.83,0,0,1-1.21-1.05A2.69,2.69,0,0,1,175,76.9a2.75,2.75,0,0,1,1-2.2,3.51,3.51,0,0,1,2.3-.75,3.84,3.84,0,0,1,1.63.34,2.76,2.76,0,0,1,1.65,2.57,2.75,2.75,0,0,1-1.71,2.58A4,4,0,0,1,178.26,79.75Zm0-3.65a1.17,1.17,0,0,0-.72.21c-.14.11-.17.38-.17.59a.54.54,0,0,0,.19.48,1,1,0,0,0,.7.21,1,1,0,0,0,.7-.21.62.62,0,0,0,.19-.53.82.82,0,0,0-.09-.42.55.55,0,0,0-.25-.22A1.18,1.18,0,0,0,178.27,76.1Z" transform="translate(0 1.3)"/><path class="cls-2" d="M181.83,77.55l.63,0a.94.94,0,0,0,.21.49,1.14,1.14,0,0,0,.51.31,2.43,2.43,0,0,0,.78.12,2.36,2.36,0,0,0,.68-.09,1,1,0,0,0,.44-.24.49.49,0,0,0,.14-.34.45.45,0,0,0-.14-.33,1.08,1.08,0,0,0-.46-.23q-.2-.06-.91-.19a5.57,5.57,0,0,1-1-.25,1.32,1.32,0,0,1-.54-.37.77.77,0,0,1-.18-.49.85.85,0,0,1,.22-.56,1.34,1.34,0,0,1,.64-.4,3,3,0,0,1,.93-.14,3.19,3.19,0,0,1,1,.14,1.42,1.42,0,0,1,.67.42,1,1,0,0,1,.25.63l-.65,0a.77.77,0,0,0-.35-.57,1.66,1.66,0,0,0-.89-.19,1.74,1.74,0,0,0-.89.17.5.5,0,0,0-.28.42.41.41,0,0,0,.2.35,3.16,3.16,0,0,0,1,.28,8.24,8.24,0,0,1,1.13.25,1.53,1.53,0,0,1,.66.4.83.83,0,0,1,.21.56.92.92,0,0,1-.23.6,1.5,1.5,0,0,1-.67.44,2.91,2.91,0,0,1-1,.16,3.68,3.68,0,0,1-1.16-.16,1.59,1.59,0,0,1-.73-.47A1.14,1.14,0,0,1,181.83,77.55Z" transform="translate(0 1.3)"/><path class="cls-2" d="M184,79.75a4.47,4.47,0,0,1-1.43-.2,2.44,2.44,0,0,1-1.11-.73,2,2,0,0,1-.48-1.23.85.85,0,0,1,.47-.79,1.61,1.61,0,0,1-.28-.9,1.71,1.71,0,0,1,.42-1.11,2.18,2.18,0,0,1,1-.66,4.28,4.28,0,0,1,2.46,0,2.25,2.25,0,0,1,1,.68,1.9,1.9,0,0,1,.45,1.13.85.85,0,0,1-.26.66,1.68,1.68,0,0,1,.41,1.11,1.78,1.78,0,0,1-.43,1.14,2.34,2.34,0,0,1-1,.69A3.77,3.77,0,0,1,184,79.75Z" transform="translate(0 1.3)"/><path class="cls-3" d="M133,78.83v-4h1l1.2,2.81.24.59.27-.63,1.22-2.76h.91v4h-.65V75.51l-1.48,3.32h-.61l-1.47-3.37v3.37Z" transform="translate(0 1.3)"/><path class="cls-3" d="M142.76,74.86h.67v2.29a2.17,2.17,0,0,1-.17.95,1.3,1.3,0,0,1-.63.57,2.73,2.73,0,0,1-1.19.22,3,3,0,0,1-1.17-.19,1.25,1.25,0,0,1-.65-.56,2.12,2.12,0,0,1-.19-1V74.86h.67v2.29a1.78,1.78,0,0,0,.12.76.82.82,0,0,0,.42.38,1.8,1.8,0,0,0,.73.13,1.67,1.67,0,0,0,1.06-.26,1.27,1.27,0,0,0,.32-1Z" transform="translate(0 1.3)"/><path class="cls-3" d="M145,78.83v-4h.67v3.5h2.5v.47Z" transform="translate(0 1.3)"/><path class="cls-3" d="M150.27,78.83v-3.5h-1.67v-.47h4v.47h-1.68v3.5Z" transform="translate(0 1.3)"/><path class="cls-3" d="M153.93,78.83v-4h.67v4Z" transform="translate(0 1.3)"/><path class="cls-3" d="M156.26,78.83v-4h1l1.2,2.81.24.59.27-.63,1.22-2.76h.91v4h-.65V75.51L159,78.83h-.61l-1.47-3.37v3.37Z" transform="translate(0 1.3)"/><path class="cls-3" d="M162.71,78.83v-4h3.68v.47h-3v1.21h2.81V77h-2.81v1.35h3.12v.47Z" transform="translate(0 1.3)"/><path class="cls-3" d="M167.94,78.83v-4h1.75a5.39,5.39,0,0,1,.91.06,2,2,0,0,1,.75.28,1.68,1.68,0,0,1,.6.68,2.14,2.14,0,0,1,.2.94,2.21,2.21,0,0,1-.13.8,1.8,1.8,0,0,1-.35.58,1.68,1.68,0,0,1-.46.36,2.19,2.19,0,0,1-.61.2,4.41,4.41,0,0,1-.82.07Zm.67-.47h1.09a3.34,3.34,0,0,0,.79-.07,1.21,1.21,0,0,0,.46-.21,1.23,1.23,0,0,0,.37-.5,2,2,0,0,0,.13-.76,1.52,1.52,0,0,0-.26-1,1.27,1.27,0,0,0-.64-.45,3.35,3.35,0,0,0-.87-.08h-1.07Z" transform="translate(0 1.3)"/><path class="cls-3" d="M173.68,78.83v-4h.67v4Z" transform="translate(0 1.3)"/><path class="cls-3" d="M175.83,76.9a1.89,1.89,0,0,1,.68-1.54,2.68,2.68,0,0,1,1.76-.56,3,3,0,0,1,1.27.26,1.91,1.91,0,0,1,1.16,1.79,1.9,1.9,0,0,1-1.2,1.8,3.11,3.11,0,0,1-1.24.24,2.93,2.93,0,0,1-1.28-.27,2,2,0,0,1-.86-.74A1.84,1.84,0,0,1,175.83,76.9Zm.69,0A1.39,1.39,0,0,0,177,78a2.08,2.08,0,0,0,2.49,0,1.46,1.46,0,0,0,.49-1.18,1.65,1.65,0,0,0-.21-.84,1.41,1.41,0,0,0-.61-.56,2.17,2.17,0,0,0-2.14.18A1.49,1.49,0,0,0,176.53,76.91Z" transform="translate(0 1.3)"/><path class="cls-3" d="M181.83,77.55l.63,0a.94.94,0,0,0,.21.49,1.14,1.14,0,0,0,.51.31,2.43,2.43,0,0,0,.78.12,2.36,2.36,0,0,0,.68-.09,1,1,0,0,0,.44-.24.49.49,0,0,0,.14-.34.45.45,0,0,0-.14-.33,1.08,1.08,0,0,0-.46-.23q-.2-.06-.91-.19a5.57,5.57,0,0,1-1-.25,1.32,1.32,0,0,1-.54-.37.77.77,0,0,1-.18-.49.85.85,0,0,1,.22-.56,1.34,1.34,0,0,1,.64-.4,3,3,0,0,1,.93-.14,3.19,3.19,0,0,1,1,.14,1.42,1.42,0,0,1,.67.42,1,1,0,0,1,.25.63l-.65,0a.77.77,0,0,0-.35-.57,1.66,1.66,0,0,0-.89-.19,1.74,1.74,0,0,0-.89.17.5.5,0,0,0-.28.42.41.41,0,0,0,.2.35,3.16,3.16,0,0,0,1,.28,8.24,8.24,0,0,1,1.13.25,1.53,1.53,0,0,1,.66.4.83.83,0,0,1,.21.56.92.92,0,0,1-.23.6,1.5,1.5,0,0,1-.67.44,2.91,2.91,0,0,1-1,.16,3.68,3.68,0,0,1-1.16-.16,1.59,1.59,0,0,1-.73-.47A1.14,1.14,0,0,1,181.83,77.55Z" transform="translate(0 1.3)"/></svg>