<svg id="Layer_1" data-name="Layer 1" xmlns="http://www.w3.org/2000/svg" viewBox="0 0 267 100"><defs><style>.cls-1{fill:none;}.cls-2{fill:#77797a;}</style></defs><title>hescon_423</title><rect class="cls-1" width="267" height="100"/><polygon class="cls-2" points="73.41 45.34 63.59 45.34 63.59 56.51 59.84 56.51 59.84 30.94 63.59 30.94 63.59 41.9 73.41 41.9 73.41 30.94 77.16 30.94 77.16 56.51 73.41 56.51 73.41 45.34"/><polygon class="cls-2" points="83.11 30.94 98.94 30.94 98.94 34.59 86.86 34.59 86.86 41.9 97.17 41.9 97.17 45.34 86.86 45.34 86.86 52.87 98.94 52.87 98.94 56.51 83.11 56.51 83.11 30.94"/><path class="cls-2" d="M103.4,50.32a10.66,10.66,0,0,0,7,2.55q4.83-.07,4.9-3.56,0-2.86-3.23-3.44l-3.28-.47A8,8,0,0,1,104,42.95a6.92,6.92,0,0,1-1.72-4.74,7.13,7.13,0,0,1,2.16-5.41,8.25,8.25,0,0,1,5.92-2.07,13.63,13.63,0,0,1,8,2.64l-2.09,3.18a11.11,11.11,0,0,0-6.14-2,4.58,4.58,0,0,0-2.89.9A3.37,3.37,0,0,0,106,38.26a2.87,2.87,0,0,0,.83,2,4.71,4.71,0,0,0,2.67,1.26q1,.18,2.79.4a7.63,7.63,0,0,1,5.15,2.58,7.41,7.41,0,0,1,1.65,4.77q-.19,7.34-8.69,7.44a13.81,13.81,0,0,1-9.46-3.49Z"/><path class="cls-2" d="M140.41,49.37a9.65,9.65,0,0,1-3.11,5.46,8.67,8.67,0,0,1-5.59,1.89,8.91,8.91,0,0,1-7.76-4.6q-.27-.58-.49-1.1a7.34,7.34,0,0,1-.34-1.37,44.16,44.16,0,0,1-.25-5.93,44,44,0,0,1,.26-6,7.21,7.21,0,0,1,.83-2.44,8.72,8.72,0,0,1,2.89-3.16,8.93,8.93,0,0,1,10.72.75,9.72,9.72,0,0,1,2.85,5.38h-4a5.66,5.66,0,0,0-1.67-2.64,4.82,4.82,0,0,0-3.06-1.07,5.07,5.07,0,0,0-2.28.54,4.79,4.79,0,0,0-1.57,1.32,4.3,4.3,0,0,0-1,2.13,31.57,31.57,0,0,0-.27,5.15,30.85,30.85,0,0,0,.27,5.11,4.33,4.33,0,0,0,1,2.16,4.43,4.43,0,0,0,1.57,1.28,4.3,4.3,0,0,0,2.28.58q3.17,0,4.73-3.5Z"/><path class="cls-2" d="M142.83,43.73a44.25,44.25,0,0,1,.25-6,7.23,7.23,0,0,1,.83-2.44,8.71,8.71,0,0,1,2.89-3.15,8.34,8.34,0,0,1,4.87-1.43,8.51,8.51,0,0,1,7.74,4.6,6,6,0,0,1,.87,2.44,50.79,50.79,0,0,1,.22,6,50.88,50.88,0,0,1-.22,5.93,6,6,0,0,1-.87,2.47,8.24,8.24,0,0,1-2.82,3.12,8.65,8.65,0,0,1-4.92,1.47,8.91,8.91,0,0,1-7.76-4.6q-.27-.58-.49-1.11a7.37,7.37,0,0,1-.34-1.37,44.15,44.15,0,0,1-.25-5.93m3.75,0a30.85,30.85,0,0,0,.27,5.11,4.33,4.33,0,0,0,1,2.16,4.42,4.42,0,0,0,1.57,1.28,4.3,4.3,0,0,0,2.28.58,4.52,4.52,0,0,0,2.33-.58A4.19,4.19,0,0,0,155.5,51a4.57,4.57,0,0,0,1-2.16,33,33,0,0,0,.26-5.11,33.77,33.77,0,0,0-.26-5.15,5.37,5.37,0,0,0-2.5-3.45,5.33,5.33,0,0,0-2.33-.54,5.06,5.06,0,0,0-2.28.54,4.77,4.77,0,0,0-1.57,1.32,4.3,4.3,0,0,0-1,2.13,31.57,31.57,0,0,0-.27,5.15"/><polygon class="cls-2" points="165.58 30.94 169.12 30.94 180.34 49.12 180.4 49.12 180.4 30.94 184.15 30.94 184.15 56.51 180.6 56.51 169.4 38.33 169.33 38.33 169.33 56.51 165.58 56.51 165.58 30.94"/><path class="cls-2" d="M222,40.1a2,2,0,1,0-1.93-2.7H191.24v1.31h28.83A2,2,0,0,0,222,40.1"/><path class="cls-2" d="M227.35,41.28a2,2,0,0,0-1.93,1.39H191.24V44h34.18a2,2,0,1,0,1.93-2.7"/><path class="cls-2" d="M216.46,46.56A2,2,0,0,0,214.53,48H191.24v1.31h23.29a2,2,0,1,0,1.93-2.7"/><rect class="cls-2" x="189.79" y="28.05" width="3.5" height="30.57"/><path class="cls-2" d="M64.86,72.14s0,.09,0,.21q0,.66,0,.93c0,.12,0,.3,0,.54v.09c0,.08,0,.12-.1.12s-.13-.07-.2-.21l-.11-.23,0-.07a2.08,2.08,0,0,1-1.52.54,2.78,2.78,0,0,1-2.05-.82A2.81,2.81,0,0,1,60,71.16a2.85,2.85,0,0,1,.76-2,2.55,2.55,0,0,1,1.93-.8,2.46,2.46,0,0,1,1.54.48.14.14,0,0,0,.1,0s.08-.05.11-.16.13-.27.21-.27.09,0,.09.1l0,.11a8.38,8.38,0,0,0-.09,1.23c0,.34-.05.51-.13.51s-.11-.06-.13-.18a3.51,3.51,0,0,0-.29-1,1.36,1.36,0,0,0-1.28-.69,1.34,1.34,0,0,0-1.19.72,3.7,3.7,0,0,0-.44,1.94,3.4,3.4,0,0,0,.49,1.94,1.52,1.52,0,0,0,1.32.72A1.42,1.42,0,0,0,64,73.41a2.19,2.19,0,0,0,.56-1.19c0-.21.09-.31.16-.31s.12.08.12.23"/><path class="cls-2" d="M73.64,71.22a2.83,2.83,0,0,1-.77,2A2.48,2.48,0,0,1,71,74a2.68,2.68,0,0,1-2-.84,3,3,0,0,1,0-4.1,2.65,2.65,0,0,1,2-.8,2.52,2.52,0,0,1,1.93.84,2.92,2.92,0,0,1,.78,2.07m-1.15,0A3.82,3.82,0,0,0,71.92,69a1.17,1.17,0,0,0-1-.52,1.35,1.35,0,0,0-1.3,1,4.58,4.58,0,0,0-.28,1.73,3.71,3.71,0,0,0,.44,2,1.37,1.37,0,0,0,1.22.71q1.5,0,1.5-2.62"/><path class="cls-2" d="M82.21,68.49c0,.06-.09.09-.27.09h-.31c-.07,0-.12,0-.13,0a1.52,1.52,0,0,0,0,.33v4.51q0,.44,0,.52s0,.07-.11.07-.38-.34-.87-1c-.06-.09-.15-.21-.27-.37l-.13-.18q-.61-.81-2.21-3V73.3q0,.46.13.48a2.91,2.91,0,0,0,.47,0h0c.1,0,.15,0,.15.08s-.09.09-.27.09L78,74h-.57l-.5,0c-.13,0-.2,0-.2-.09s.08-.08.23-.08h.27c.2,0,.3-.05.31-.11a2.72,2.72,0,0,0,0-.36V69.94a3.07,3.07,0,0,0-.11-1.11.61.61,0,0,0-.57-.25c-.2,0-.31,0-.31-.1s.05-.08.16-.08h1.55l2.89,4V69a1.32,1.32,0,0,0,0-.35s-.08,0-.2,0h-.33q-.23,0-.23-.09s0-.06.12-.07H82.1q.11,0,.11.07"/><path class="cls-2" d="M90.6,68.49c0,.06-.09.09-.27.09H90c-.07,0-.12,0-.13,0a1.52,1.52,0,0,0,0,.33v4.51q0,.44,0,.52s0,.07-.11.07-.38-.34-.87-1c-.06-.09-.15-.21-.27-.37l-.13-.18q-.61-.81-2.21-3V73.3q0,.46.13.48a2.91,2.91,0,0,0,.47,0h0c.1,0,.15,0,.15.08S87,74,86.79,74l-.4,0h-.57l-.5,0c-.13,0-.2,0-.2-.09s.08-.08.23-.08h.27c.2,0,.3-.05.31-.11a2.72,2.72,0,0,0,0-.36V69.94a3.07,3.07,0,0,0-.11-1.11.61.61,0,0,0-.57-.25c-.2,0-.31,0-.31-.1s.05-.08.16-.08h1.55l2.89,4V69a1.32,1.32,0,0,0,0-.35s-.08,0-.2,0H89q-.23,0-.23-.09s0-.06.12-.07h1.61q.11,0,.11.07"/><path class="cls-2" d="M98.26,72.65l0,.16a2,2,0,0,0,0,.25v.71a.91.91,0,0,0,0,.24l-2,0-2.34,0q-.26,0-.26-.1c0-.07,0-.11.15-.11a1,1,0,0,0,.46-.05s.07-.17.07-.4V69.15q0-.5-.09-.53a1.71,1.71,0,0,0-.43,0c-.1,0-.15,0-.15-.09s.05-.1.16-.1H98v.27q0,.18.1,1.08a.72.72,0,0,1,0,.14c0,.1,0,.16-.09.16s-.13-.08-.16-.24q-.17-.93-.64-1.09a5.53,5.53,0,0,0-1.27-.09h-.62v2.29h.29a2.1,2.1,0,0,0,1-.13q.18-.13.24-.7,0-.34.15-.34t.12.24c0,.1,0,.25,0,.45s0,.36,0,.46q0,.8,0,1.09c0,.07,0,.12,0,.16s0,.2-.12.2-.12-.1-.14-.31q-.07-.66-.24-.79a2,2,0,0,0-1-.13h-.3v2.64a13.78,13.78,0,0,0,2.11-.1q.49-.13.57-1.17,0-.18.13-.18c.08,0,.12.11.12.34"/><path class="cls-2" d="M106.24,72.14s0,.09,0,.21q0,.66,0,.93c0,.12,0,.3,0,.54v.09c0,.08,0,.12-.1.12s-.13-.07-.2-.21l-.11-.23,0-.07a2.08,2.08,0,0,1-1.52.54,2.78,2.78,0,0,1-2.05-.82,2.81,2.81,0,0,1-.82-2.07,2.85,2.85,0,0,1,.76-2,2.55,2.55,0,0,1,1.93-.8,2.46,2.46,0,0,1,1.54.48.14.14,0,0,0,.1,0s.08-.05.11-.16.13-.27.21-.27.09,0,.09.1l0,.11a8.39,8.39,0,0,0-.09,1.23c0,.34-.05.51-.13.51s-.11-.06-.13-.18a3.51,3.51,0,0,0-.29-1,1.36,1.36,0,0,0-1.28-.69,1.34,1.34,0,0,0-1.19.72,3.7,3.7,0,0,0-.44,1.94,3.4,3.4,0,0,0,.49,1.94,1.52,1.52,0,0,0,1.32.72,1.42,1.42,0,0,0,1.06-.43,2.19,2.19,0,0,0,.56-1.19c0-.21.09-.31.16-.31s.12.08.12.23"/><rect class="cls-2" x="109.39" y="70.91" width="3.36" height="0.64"/><path class="cls-2" d="M120.55,69.88c0,.11,0,.17-.15.17s-.16-.07-.17-.22A1.92,1.92,0,0,0,120,69q-.23-.43-1.06-.43h-.38v4.91q0,.23.35.24t.35.1-.21.09h-2q-.24,0-.24-.09c0-.06.13-.09.4-.1a.51.51,0,0,0,.2,0,.14.14,0,0,0,.11-.13c0-.07,0-.28,0-.62v-4.4a2.37,2.37,0,0,0-1.24.19,1.41,1.41,0,0,0-.39,1c0,.19-.08.28-.16.28s-.11-.09-.11-.28,0-.69.11-1.37h2.85l1.54,0a1.1,1.1,0,0,0,.26,0v.25l0,.43,0,.5,0,.22c0,.07,0,.12,0,.14"/><path class="cls-2" d="M129.25,73.88q0,.09-.37.09h-1.7c-.18,0-.27,0-.27-.08s.07-.07.2-.08.4,0,.42-.11a1.75,1.75,0,0,0,0-.4V71.05h-2.31v2.52a.22.22,0,0,0,.1.17,1.44,1.44,0,0,0,.41,0c.09,0,.13,0,.13.09s-.08.09-.24.09h-1.89c-.12,0-.18,0-.18-.09s.12-.09.35-.1.28-.06.29-.15V69.06a2.46,2.46,0,0,0,0-.37q0-.1-.22-.1c-.28,0-.42,0-.42-.12s.06-.07.17-.07h1.93c.14,0,.21,0,.21.1s-.11.11-.32.1a.49.49,0,0,0-.26,0s-.05.11-.05.25v1.93h2.31V69.16a1.86,1.86,0,0,0,0-.43q0-.14-.24-.12h-.23q-.16,0-.16-.1c0-.07.09-.1.26-.1h1.77q.29,0,.29.09c0,.07-.06.1-.17.1h-.28c-.11,0-.17,0-.18.06a1.64,1.64,0,0,0,0,.39v4.23q0,.42.06.46a1.12,1.12,0,0,0,.43,0q.17,0,.17.1"/><path class="cls-2" d="M134.76,73.89s0,.07-.11.07H132.6c-.14,0-.21,0-.21-.06s.09-.09.27-.1.37,0,.38-.09a3.63,3.63,0,0,0,0-.53v-4a3.33,3.33,0,0,0,0-.56c0-.05-.08-.08-.18-.09h-.37c-.07,0-.11,0-.11-.09s.05-.09.16-.09h2c.13,0,.2,0,.2.1s-.14.08-.42.09c-.11,0-.18,0-.21.06a.85.85,0,0,0,0,.34v4.61a.15.15,0,0,0,.09.16,1.89,1.89,0,0,0,.43.06c.1,0,.15,0,.15.09"/><path class="cls-2" d="M143.26,68.49c0,.06-.09.09-.27.09h-.31c-.07,0-.12,0-.13,0a1.48,1.48,0,0,0,0,.33v4.51q0,.44,0,.52s0,.07-.11.07-.38-.34-.87-1c-.06-.09-.14-.21-.27-.37l-.13-.18q-.61-.81-2.21-3V73.3q0,.46.13.48a2.91,2.91,0,0,0,.47,0h0c.1,0,.15,0,.15.08s-.09.09-.27.09l-.4,0h-.57l-.5,0c-.13,0-.2,0-.2-.09s.08-.08.23-.08h.27c.2,0,.3-.05.31-.11a2.64,2.64,0,0,0,0-.36V69.94a3.07,3.07,0,0,0-.11-1.11.61.61,0,0,0-.57-.25c-.2,0-.31,0-.31-.1s.05-.08.16-.08h1.55l2.89,4V69a1.32,1.32,0,0,0,0-.35s-.08,0-.2,0h-.33c-.16,0-.23,0-.23-.09s0-.06.12-.07h1.61q.11,0,.11.07"/><path class="cls-2" d="M151.89,72.28s-.07.07-.22.07h-.39s-.07,0-.09.11a1.89,1.89,0,0,0,0,.44v.49a2.85,2.85,0,0,1-1.86.66,3,3,0,0,1-2.14-.76,2.68,2.68,0,0,1-.79-2,3,3,0,0,1,.78-2.13,2.7,2.7,0,0,1,2-.81,3,3,0,0,1,1.42.42.22.22,0,0,0,.11,0c.07,0,.11-.05.13-.16s.11-.22.17-.22a.09.09,0,0,1,.1.1s0,.05,0,.21,0,.71,0,1.41c0,.19,0,.28-.15.28s-.11,0-.11-.15a1.92,1.92,0,0,0-.45-1.27,1.4,1.4,0,0,0-1.09-.47,1.45,1.45,0,0,0-1.28.73,3.7,3.7,0,0,0-.46,2,3.44,3.44,0,0,0,.47,1.93,1.46,1.46,0,0,0,1.28.71q.73,0,.9-.46a1.53,1.53,0,0,0,.06-.51,1.09,1.09,0,0,0-.05-.49,1,1,0,0,0-.46-.05h-.2c-.07,0-.1,0-.1-.08s.1-.1.29-.1h2q.21,0,.21.11"/><path class="cls-2" d="M164.12,72.86q0,.68,0,1.15h-.18l-.19,0-.46,0h-.57l-2.09,0h-1c-.11,0-.16,0-.16-.08s.16-.08.48-.1c.09,0,.14,0,.17-.06a.67.67,0,0,0,0-.27v-4.1c0-.46,0-.7-.11-.72a.57.57,0,0,0-.21,0h-.21c-.09,0-.13,0-.13-.1s.05-.09.16-.09h2q.23,0,.23.1s-.13.07-.4.08-.21,0-.23.09a1.93,1.93,0,0,0,0,.53v4.55h.71a3.2,3.2,0,0,0,1.64-.26,1.28,1.28,0,0,0,.34-.88c0-.2.06-.29.13-.29s.16.18.16.54"/><path class="cls-2" d="M169.45,73.89s0,.07-.11.07h-2.05c-.14,0-.21,0-.21-.06s.09-.09.27-.1.37,0,.39-.09a3.74,3.74,0,0,0,0-.53v-4a3.35,3.35,0,0,0,0-.56c0-.05-.08-.08-.18-.09h-.37c-.07,0-.11,0-.11-.09s.05-.09.16-.09h2c.13,0,.2,0,.2.1s-.14.08-.42.09c-.11,0-.18,0-.21.06a.85.85,0,0,0,0,.34v4.61a.15.15,0,0,0,.09.16,1.88,1.88,0,0,0,.43.06c.1,0,.15,0,.15.09"/><path class="cls-2" d="M177.06,69.88c0,.11,0,.16-.09.16s-.13-.08-.16-.24a1.62,1.62,0,0,0-.35-.93,2.11,2.11,0,0,0-1.35-.27h-.83v2.32h.28a1.94,1.94,0,0,0,1-.15c.12-.1.2-.39.24-.87,0-.11,0-.16.12-.16s.12.07.12.19,0,.15,0,.27,0,.39,0,.83c0,.07,0,.19,0,.37s0,.39,0,.64v0c0,.15,0,.23-.13.23s-.11-.06-.12-.19a1.74,1.74,0,0,0-.23-.87,1.64,1.64,0,0,0-.87-.13h-.39V73.5c0,.16,0,.25.17.28a1.51,1.51,0,0,0,.37,0c.11,0,.17,0,.17.09s-.05.09-.16.09h-2c-.14,0-.21,0-.21-.09s.06-.1.17-.1a.93.93,0,0,0,.44-.06s.06-.16.06-.37V69q0-.33-.06-.39a.94.94,0,0,0-.43-.07c-.11,0-.17,0-.17-.11s.09-.1.26-.1h2.34a14.08,14.08,0,0,0,1.72,0v.12l0,.56.06.63c0,.17,0,.25,0,.23"/><path class="cls-2" d="M184.7,72.65l0,.16a2.1,2.1,0,0,0,0,.25v.71a.91.91,0,0,0,0,.24l-2,0-2.34,0q-.26,0-.26-.1c0-.07,0-.11.15-.11a1,1,0,0,0,.46-.05s.07-.17.07-.4V69.15q0-.5-.09-.53a1.72,1.72,0,0,0-.43,0c-.1,0-.15,0-.15-.09s.05-.1.16-.1h4.18v.27q0,.18.1,1.08a.76.76,0,0,1,0,.14c0,.1,0,.16-.09.16s-.13-.08-.16-.24q-.17-.93-.65-1.09a5.53,5.53,0,0,0-1.27-.09h-.62v2.29h.29a2.1,2.1,0,0,0,1-.13c.12-.09.2-.32.24-.7,0-.23.07-.34.15-.34s.12.08.12.24,0,.25,0,.45,0,.36,0,.46q0,.8,0,1.09c0,.07,0,.12,0,.16s0,.2-.12.2-.12-.1-.14-.31q-.07-.66-.24-.79a2,2,0,0,0-1-.13h-.3v2.64a13.79,13.79,0,0,0,2.11-.1q.49-.13.57-1.17c0-.12.05-.18.13-.18s.12.11.12.34"/><path class="cls-2" d="M64.13,65.65s0,.06-.12.06H62.58c-.09,0-.13,0-.13-.05s.1-.06.3-.07.17,0,.19-.06a.93.93,0,0,0,0-.31V63.31H61v1.86a.72.72,0,0,0,0,.35.57.57,0,0,0,.31.07c.11,0,.17,0,.17.06s0,.06-.13.06H60c-.09,0-.13,0-.13-.05s0-.06.13-.07h.18a.26.26,0,0,0,.18-.07,1.57,1.57,0,0,0,0-.37V61.68a1.08,1.08,0,0,0,0-.35s-.09-.05-.21-.06l-.24,0s0,0,0-.06,0-.06.09-.06h1.47c.08,0,.12,0,.12.07s-.07.06-.21.06-.23,0-.26,0a.65.65,0,0,0,0,.31v1.52h2V61.73a.88.88,0,0,0-.05-.41s-.16-.06-.37-.06-.1,0-.1-.06,0-.06.11-.06H64c.09,0,.14,0,.14.06s-.1.06-.29.07h-.12a.11.11,0,0,0-.08.07,1.59,1.59,0,0,0,0,.31v3.5a1.1,1.1,0,0,0,0,.37s.17.07.38.07.1,0,.1.05"/><path class="cls-2" d="M68,64.65s0,.12,0,.32,0,.39,0,.57v.22q-.64,0-2.55,0h-.82c-.08,0-.12,0-.12-.05s0,0,0,0l.25,0q.17,0,.21-.07a.76.76,0,0,0,0-.31V61.51c0-.13,0-.2-.06-.23a1,1,0,0,0-.36,0c-.07,0-.11,0-.11-.06s0-.06.14-.06h2.79l.36,0q0,.28.06.78l0,.28a.46.46,0,0,1,0,.09s0,.07-.06.07-.08-.06-.11-.17a1.07,1.07,0,0,0-.41-.75,3,3,0,0,0-1.1-.12h-.54v1.93h.16a2.07,2.07,0,0,0,.9-.11q.16-.11.22-.65c0-.09,0-.14.07-.14s.07,0,.07.12,0,.2,0,.35,0,.27,0,.35q0,.7,0,1s0,.08,0,.11,0,.09-.07.09-.05,0-.06-.06,0-.16-.06-.37a.52.52,0,0,0-.32-.48,2.69,2.69,0,0,0-.62,0h-.29v2.2a12.69,12.69,0,0,0,1.7-.06q.43-.1.49-.83c0-.11,0-.16.09-.16s.07,0,.07.14"/><path class="cls-2" d="M72.06,65.51q0,.28-.46.28a.92.92,0,0,1-.8-.43,1,1,0,0,1-.16-.36c0-.11-.06-.4-.11-.87a.8.8,0,0,0-.27-.59,1.32,1.32,0,0,0-.75-.19v2.07c0,.09.07.14.21.16H70c.06,0,.09,0,.09.05s0,.06-.11.06H68.45c-.1,0-.14,0-.14-.06s.06,0,.19-.05.32,0,.34-.08a.64.64,0,0,0,0-.26V61.64q0-.26-.06-.32a.65.65,0,0,0-.34-.06c-.11,0-.16,0-.16-.06s0-.07.11-.07h.06l.87,0h.37l.37,0a1.56,1.56,0,0,1,1,.27.88.88,0,0,1,.36.74.94.94,0,0,1-.37.76,1.79,1.79,0,0,1-1,.35l-.07,0s0,0,.07,0a1.4,1.4,0,0,1,1,.48,2.87,2.87,0,0,1,.34,1.32q.05.54.37.54c.07,0,.1,0,.1,0h0a.3.3,0,0,1,0-.12c0-.09,0-.14.14-.14s.16.06.16.16M70.7,62.22q0-.94-.82-.94a.53.53,0,0,0-.3.06.25.25,0,0,0-.08.21v1.67a1.38,1.38,0,0,0,.91-.23,1,1,0,0,0,.28-.77"/><path class="cls-2" d="M75.93,65.51q0,.28-.46.28a.92.92,0,0,1-.8-.43A1,1,0,0,1,74.5,65c0-.11-.06-.4-.11-.87a.8.8,0,0,0-.27-.59,1.32,1.32,0,0,0-.75-.19v2.07c0,.09.07.14.21.16h.3c.06,0,.09,0,.09.05s0,.06-.11.06H72.32c-.1,0-.14,0-.14-.06s.06,0,.19-.05.32,0,.34-.08a.64.64,0,0,0,0-.26V61.64q0-.26-.06-.32a.65.65,0,0,0-.34-.06c-.11,0-.16,0-.16-.06s0-.07.11-.07h.06l.87,0h.37l.37,0a1.56,1.56,0,0,1,1,.27.88.88,0,0,1,.36.74.94.94,0,0,1-.37.76,1.79,1.79,0,0,1-1,.35l-.07,0s0,0,.07,0a1.4,1.4,0,0,1,1,.48,2.87,2.87,0,0,1,.34,1.32q.05.54.37.54c.07,0,.1,0,.1,0h0a.3.3,0,0,1,0-.12c0-.09,0-.14.14-.14s.16.06.16.16m-1.36-3.29q0-.94-.82-.94a.53.53,0,0,0-.3.06.25.25,0,0,0-.08.21v1.67a1.38,1.38,0,0,0,.91-.23,1,1,0,0,0,.28-.77"/><path class="cls-2" d="M80.14,65.67s0,.06-.1.06h-.12l-.83,0-.84,0h-.1c-.09,0-.13,0-.13-.07s.06-.08.18-.08q.58,0,.58-.12v-.05l-.05-.17,0-.09q-.06-.2-.29-.9H77a7.12,7.12,0,0,0-.39,1.21.1.1,0,0,0,.08.11l.33,0c.13,0,.19,0,.19.07s-.06.07-.17.07l-.7,0h-.2l-.2,0h-.09c-.06,0-.09,0-.09-.06s.07-.06.21-.07a.64.64,0,0,0,.3-.06.38.38,0,0,0,.14-.21q.85-2.43,1.38-3.9a.77.77,0,0,1,.06-.17l0-.12s0-.07.05-.07,0,0,0,0,.19.53.39,1.07l1.18,3.2a.31.31,0,0,0,.13.19,1,1,0,0,0,.34,0c.11,0,.17,0,.17.06m-1.79-1.57-.35-1-.32-.91q-.27.73-.66,1.89Z"/><path class="cls-2" d="M81.9,61.2s0,0-.14,0l-.31,0s-.06,0-.07.06a1.77,1.77,0,0,0,0,.26v2.73q0,.45,0,.74a3.57,3.57,0,0,1-.06.61,1,1,0,0,1-.39.59,1,1,0,0,1-.65.25.61.61,0,0,1-.41-.13A.44.44,0,0,1,79.7,66a.33.33,0,0,1,.37-.37.36.36,0,0,1,.25.09.3.3,0,0,1,.1.24.33.33,0,0,1-.09.22.21.21,0,0,0-.06.11s0,.06.1.06.24-.09.3-.26a3.83,3.83,0,0,0,0-.81V61.54c0-.14,0-.23-.12-.26a1.43,1.43,0,0,0-.32,0h-.15a0,0,0,0,1,0,0s0-.07.11-.07h1.48q.21,0,.21.06"/><path class="cls-2" d="M85.7,64.65s0,.12,0,.32,0,.39,0,.57v.22q-.64,0-2.55,0H82.3c-.08,0-.12,0-.12-.05s0,0,0,0l.25,0q.17,0,.21-.07a.76.76,0,0,0,0-.31V61.51c0-.13,0-.2-.06-.23a1,1,0,0,0-.36,0c-.07,0-.11,0-.11-.06s0-.06.14-.06h2.79l.36,0q0,.28.06.78l0,.28a.46.46,0,0,1,0,.09s0,.07-.06.07-.08-.06-.11-.17a1.07,1.07,0,0,0-.41-.75,3,3,0,0,0-1.1-.12h-.54v1.93h.16a2.07,2.07,0,0,0,.9-.11q.16-.11.22-.65c0-.09,0-.14.07-.14s.07,0,.07.12,0,.2,0,.35,0,.27,0,.35q0,.7,0,1s0,.08,0,.11,0,.09-.07.09-.05,0-.06-.06,0-.16-.06-.37a.52.52,0,0,0-.32-.48,2.69,2.69,0,0,0-.62,0h-.29v2.2a12.69,12.69,0,0,0,1.7-.06q.43-.1.49-.83c0-.11,0-.16.09-.16s.07,0,.07.14"/><path class="cls-2" d="M88.91,64.43a1.26,1.26,0,0,1-.43,1,1.47,1.47,0,0,1-1,.4,2.17,2.17,0,0,1-.85-.22.55.55,0,0,0-.2-.06c-.05,0-.09.06-.1.18s0,.09-.09.09-.07,0-.07-.08a.39.39,0,0,1,0-.08,5.69,5.69,0,0,0,.05-.74s0-.17,0-.37a.68.68,0,0,1,0-.11c0-.07,0-.1.08-.1s.07.05.09.16q.17,1.18,1.11,1.18a.83.83,0,0,0,.62-.23.88.88,0,0,0,.22-.64,1,1,0,0,0-.21-.63,2.24,2.24,0,0,0-.73-.52,2.73,2.73,0,0,1-.87-.6,1.07,1.07,0,0,1-.24-.72,1.23,1.23,0,0,1,.35-.9,1.2,1.2,0,0,1,.89-.36,1.87,1.87,0,0,1,.62.15.65.65,0,0,0,.2.05.13.13,0,0,0,.1,0,.34.34,0,0,0,0-.14.07.07,0,0,1,.07-.07s.07,0,.07.08a.39.39,0,0,1,0,.08,3.05,3.05,0,0,0,0,.38,2.94,2.94,0,0,0,0,.5v.11s0,.07-.06.07-.08-.05-.1-.15a1.17,1.17,0,0,0-.34-.65.85.85,0,0,0-.61-.26.68.68,0,0,0-.52.21.81.81,0,0,0-.19.57.87.87,0,0,0,.28.68,3.45,3.45,0,0,0,.68.41,2.81,2.81,0,0,1,.89.63,1.09,1.09,0,0,1,.27.73"/><path class="cls-2" d="M93.41,64.43a1.26,1.26,0,0,1-.43,1,1.47,1.47,0,0,1-1,.4,2.17,2.17,0,0,1-.85-.22.55.55,0,0,0-.2-.06c-.05,0-.09.06-.1.18s0,.09-.09.09-.07,0-.07-.08a.39.39,0,0,1,0-.08,5.69,5.69,0,0,0,.05-.74s0-.17,0-.37a.68.68,0,0,1,0-.11c0-.07,0-.1.08-.1s.07.05.09.16Q91,65.66,92,65.66a.83.83,0,0,0,.62-.23.88.88,0,0,0,.22-.64,1,1,0,0,0-.21-.63,2.24,2.24,0,0,0-.73-.52A2.73,2.73,0,0,1,91,63a1.07,1.07,0,0,1-.24-.72,1.23,1.23,0,0,1,.35-.9,1.2,1.2,0,0,1,.89-.36,1.87,1.87,0,0,1,.62.15.65.65,0,0,0,.2.05.13.13,0,0,0,.1,0,.34.34,0,0,0,0-.14A.07.07,0,0,1,93,61s.07,0,.07.08a.39.39,0,0,1,0,.08,3.05,3.05,0,0,0,0,.38,2.94,2.94,0,0,0,0,.5v.11s0,.07-.06.07-.08-.05-.1-.15a1.17,1.17,0,0,0-.34-.65.85.85,0,0,0-.61-.26.68.68,0,0,0-.52.21.81.81,0,0,0-.19.57.87.87,0,0,0,.28.68,3.45,3.45,0,0,0,.68.41,2.81,2.81,0,0,1,.89.63,1.09,1.09,0,0,1,.27.73"/><path class="cls-2" d="M97.92,61.2s0,.05-.12.05h-.22c-.11,0-.18,0-.2.09a.59.59,0,0,0,0,.15V64a2.19,2.19,0,0,1-.36,1.4,1.41,1.41,0,0,1-1.15.44,1.54,1.54,0,0,1-1.34-.54,2.12,2.12,0,0,1-.26-1.19V61.42a.17.17,0,0,0-.16-.14h-.25c-.08,0-.11,0-.11-.07s0-.06.09-.06h1.48c.07,0,.11,0,.11.07s0,0,0,.05H95a.1.1,0,0,0-.07.09s0,.14,0,.37v2.35a1.84,1.84,0,0,0,.28,1.18,1,1,0,0,0,.82.32q1,0,1.13-1.13,0-.17,0-1.44V61.47a.16.16,0,0,0-.14-.18h-.27c-.09,0-.13,0-.13-.07s0-.06.09-.06h1.05q.15,0,.15.06"/><path class="cls-2" d="M101.43,64.51a1.05,1.05,0,0,1-.61,1,2.17,2.17,0,0,1-.85.2h-1.7c-.07,0-.11,0-.11-.06s.07-.06.2-.06.25,0,.28,0a.59.59,0,0,0,0-.3V61.69a1.1,1.1,0,0,0,0-.34q0-.08-.34-.09c-.12,0-.18,0-.18-.07s.05-.06.16-.06h.08l.13,0h1.28a2,2,0,0,1,1.06.24.88.88,0,0,1,.41.78.92.92,0,0,1-.34.73,1.74,1.74,0,0,1-.94.36v0a2,2,0,0,1,.93.25,1.05,1.05,0,0,1,.5,1m-.88-2.27a1,1,0,0,0-.29-.84,1,1,0,0,0-.57-.11l-.35,0v1.91h.42a.75.75,0,0,0,.58-.27,1.07,1.07,0,0,0,.21-.69m.19,2.2a.94.94,0,0,0-.67-1,3,3,0,0,0-.73-.06v2c0,.13,0,.2,0,.22a.84.84,0,0,0,.37,0,.94.94,0,0,0,.72-.29,1.2,1.2,0,0,0,.27-.85"/><path class="cls-2" d="M105.49,62.32c0,.06,0,.09-.08.09s-.09-.06-.11-.17l0-.24a1.14,1.14,0,0,0-.15-.4.65.65,0,0,0-.45-.28,1.38,1.38,0,0,0-.33,0H104v4q0,.24.12.3a1.21,1.21,0,0,0,.37,0c.05,0,.08,0,.08.06s0,.06-.1.06h-1.55c-.1,0-.15,0-.15-.05s.09-.06.28-.07.22,0,.26-.09a.65.65,0,0,0,0-.27V61.3a3.27,3.27,0,0,0-.81.07q-.41.15-.49.81c0,.13,0,.2-.09.2s-.08,0-.08-.14,0-.1,0-.14v-.15q0-.3.06-.8h.3l1.34,0h.74l1.09,0q0,.37.09,1.09a.24.24,0,0,0,0,0v0"/><path class="cls-2" d="M109.28,64.65s0,.12,0,.32,0,.39,0,.57v.22q-.64,0-2.55,0h-.82c-.08,0-.12,0-.12-.05s0,0,0,0l.25,0q.17,0,.21-.07a.76.76,0,0,0,0-.31V61.51c0-.13,0-.2-.06-.23a1,1,0,0,0-.36,0c-.07,0-.11,0-.11-.06s0-.06.14-.06h2.79l.36,0q0,.28.06.78l0,.28a.46.46,0,0,1,0,.09s0,.07-.06.07-.08-.06-.11-.17a1.07,1.07,0,0,0-.41-.75,3,3,0,0,0-1.1-.12h-.54v1.93h.16a2.07,2.07,0,0,0,.9-.11q.16-.11.22-.65c0-.09,0-.14.07-.14s.07,0,.07.12,0,.2,0,.35,0,.27,0,.35q0,.7,0,1s0,.08,0,.11,0,.09-.07.09-.05,0-.06-.06,0-.16-.06-.37a.52.52,0,0,0-.32-.48,2.69,2.69,0,0,0-.62,0h-.29v2.2a12.69,12.69,0,0,0,1.7-.06q.43-.1.49-.83c0-.11,0-.16.09-.16s.07,0,.07.14"/><path class="cls-2" d="M113.32,65.51q0,.28-.46.28a.92.92,0,0,1-.8-.43,1,1,0,0,1-.16-.36c0-.11-.06-.4-.11-.87a.8.8,0,0,0-.27-.59,1.32,1.32,0,0,0-.75-.19v2.07c0,.09.07.14.21.16h.3c.06,0,.09,0,.09.05s0,.06-.11.06h-1.55c-.1,0-.14,0-.14-.06s.06,0,.19-.05.32,0,.34-.08a.64.64,0,0,0,0-.26V61.64q0-.26-.06-.32a.65.65,0,0,0-.34-.06c-.11,0-.16,0-.16-.06s0-.07.11-.07h.06l.87,0H111l.37,0a1.56,1.56,0,0,1,1,.27.88.88,0,0,1,.36.74.94.94,0,0,1-.37.76,1.79,1.79,0,0,1-1,.35l-.07,0s0,0,.07,0a1.4,1.4,0,0,1,1,.48,2.87,2.87,0,0,1,.34,1.32q.05.54.37.54c.07,0,.1,0,.1,0h0a.3.3,0,0,1,0-.12c0-.09,0-.14.14-.14s.16.06.16.16M112,62.22q0-.94-.82-.94a.53.53,0,0,0-.3.06.25.25,0,0,0-.08.21v1.67a1.38,1.38,0,0,0,.91-.23,1,1,0,0,0,.28-.77"/><path class="cls-2" d="M117.19,65.51q0,.28-.46.28a.92.92,0,0,1-.8-.43,1,1,0,0,1-.16-.36c0-.11-.06-.4-.11-.87a.8.8,0,0,0-.27-.59,1.32,1.32,0,0,0-.75-.19v2.07c0,.09.07.14.21.16h.3c.06,0,.09,0,.09.05s0,.06-.11.06h-1.55c-.1,0-.14,0-.14-.06s.06,0,.19-.05.32,0,.34-.08a.64.64,0,0,0,0-.26V61.64q0-.26-.06-.32a.65.65,0,0,0-.34-.06c-.11,0-.16,0-.16-.06s0-.07.11-.07h.06l.87,0h.37l.37,0a1.56,1.56,0,0,1,1,.27.88.88,0,0,1,.36.74.94.94,0,0,1-.37.76,1.79,1.79,0,0,1-1,.35l-.07,0s0,0,.07,0a1.4,1.4,0,0,1,1,.48,2.87,2.87,0,0,1,.34,1.32q.05.54.37.54c.07,0,.1,0,.1,0h0a.3.3,0,0,1,0-.12c0-.09,0-.14.14-.14s.16.06.16.16m-1.36-3.29q0-.94-.82-.94a.53.53,0,0,0-.3.06.25.25,0,0,0-.08.21v1.67a1.38,1.38,0,0,0,.91-.23,1,1,0,0,0,.28-.77"/><path class="cls-2" d="M121.4,65.67s0,.06-.1.06h-.12l-.83,0-.84,0h-.1c-.09,0-.13,0-.13-.07s.06-.08.18-.08q.58,0,.58-.12v-.05l-.05-.17,0-.09q-.06-.2-.29-.9h-1.41a7.08,7.08,0,0,0-.39,1.21.1.1,0,0,0,.08.11l.33,0c.13,0,.19,0,.19.07s-.06.07-.17.07l-.7,0h-.2l-.2,0h-.09c-.06,0-.09,0-.09-.06s.07-.06.21-.07a.64.64,0,0,0,.3-.06.38.38,0,0,0,.14-.21q.85-2.43,1.38-3.9a.79.79,0,0,1,.06-.17l0-.12s0-.07.05-.07,0,0,0,0,.19.53.39,1.07l1.18,3.2a.31.31,0,0,0,.13.19,1,1,0,0,0,.34,0c.11,0,.17,0,.17.06m-1.79-1.57-.35-1-.32-.91q-.27.73-.66,1.89Zm.43-4.41-.6.62a2,2,0,0,1-.46.41s0,0,0,0v0l.22-.51.21-.45H120Z"/><path class="cls-2" d="M125.33,61.21s-.06.06-.16.06h-.26c-.07,0-.11,0-.13,0a.67.67,0,0,0,0,.22V65.3c0,.23,0,.37,0,.41s0,.06,0,.06-.06,0-.09-.07l-.84-1.23q-.73-1.07-1.78-2.68v3.67a.12.12,0,0,0,.1.11,2.79,2.79,0,0,0,.45,0q.09,0,.09.05s-.06.07-.17.07l-.38,0h-.76c-.1,0-.15,0-.15-.06s0-.06.13-.06a1.27,1.27,0,0,0,.45,0s.06-.12.06-.28V62q0-.55-.22-.69a.76.76,0,0,0-.37-.07c-.11,0-.17,0-.17-.07s0-.06.1-.06h.74l.42,0,2.27,3.39V61.6c0-.14,0-.22,0-.25a.09.09,0,0,0-.05-.07,1.12,1.12,0,0,0-.32,0q-.24,0-.24-.06s.05-.07.16-.07h1.06c.1,0,.14,0,.14.07"/><path class="cls-2" d="M129.12,64.65s0,.12,0,.32,0,.39,0,.57v.22q-.64,0-2.55,0h-.82c-.08,0-.12,0-.12-.05s0,0,0,0l.25,0q.17,0,.21-.07a.76.76,0,0,0,0-.31V61.51c0-.13,0-.2-.06-.23a1,1,0,0,0-.36,0c-.07,0-.11,0-.11-.06s0-.06.14-.06h2.79l.36,0q0,.28.06.78l0,.28a.46.46,0,0,1,0,.09s0,.07-.06.07-.08-.06-.11-.17a1.07,1.07,0,0,0-.41-.75,3,3,0,0,0-1.1-.12h-.54v1.93h.16a2.07,2.07,0,0,0,.9-.11q.16-.11.22-.65c0-.09,0-.14.07-.14s.07,0,.07.12,0,.2,0,.35,0,.27,0,.35q0,.7,0,1s0,.08,0,.11,0,.09-.07.09-.05,0-.06-.06,0-.16-.06-.37a.52.52,0,0,0-.32-.48,2.69,2.69,0,0,0-.62,0h-.29v2.2a12.69,12.69,0,0,0,1.7-.06q.43-.1.49-.83c0-.11,0-.16.09-.16s.07,0,.07.14"/><path class="cls-2" d="M133.71,63.45a2.44,2.44,0,0,1-.59,1.66,1.84,1.84,0,0,1-1.44.68,2,2,0,0,1-1.53-.69,2.44,2.44,0,0,1-.62-1.69,2.4,2.4,0,0,1,.6-1.68,2,2,0,0,1,1.52-.65,1.86,1.86,0,0,1,1.47.68,2.5,2.5,0,0,1,.59,1.7m-.74,0a3.13,3.13,0,0,0-.49-1.88,1,1,0,0,0-.86-.42,1,1,0,0,0-.82.32,2.86,2.86,0,0,0-.53,1.93,3.09,3.09,0,0,0,.37,1.65,1.17,1.17,0,0,0,1,.59,1,1,0,0,0,.94-.55,3.3,3.3,0,0,0,.35-1.64"/><path class="cls-2" d="M137.07,64.43a1.26,1.26,0,0,1-.43,1,1.47,1.47,0,0,1-1,.4,2.17,2.17,0,0,1-.85-.22.55.55,0,0,0-.2-.06c-.05,0-.09.06-.1.18s0,.09-.09.09-.07,0-.07-.08a.39.39,0,0,1,0-.08,5.69,5.69,0,0,0,.05-.74s0-.17,0-.37a.68.68,0,0,1,0-.11c0-.07,0-.1.08-.1s.07.05.09.16q.17,1.18,1.11,1.18a.83.83,0,0,0,.62-.23.88.88,0,0,0,.22-.64,1,1,0,0,0-.21-.63,2.24,2.24,0,0,0-.73-.52,2.73,2.73,0,0,1-.87-.6,1.07,1.07,0,0,1-.24-.72,1.23,1.23,0,0,1,.35-.9,1.2,1.2,0,0,1,.89-.36,1.87,1.87,0,0,1,.62.15.65.65,0,0,0,.2.05.13.13,0,0,0,.1,0,.34.34,0,0,0,0-.14.07.07,0,0,1,.07-.07s.07,0,.07.08a.39.39,0,0,1,0,.08,3.05,3.05,0,0,0,0,.38,2.94,2.94,0,0,0,0,.5v.11s0,.07-.06.07-.08-.05-.1-.15a1.17,1.17,0,0,0-.34-.65.85.85,0,0,0-.61-.26.68.68,0,0,0-.52.21.81.81,0,0,0-.19.57.87.87,0,0,0,.28.68,3.45,3.45,0,0,0,.68.41,2.81,2.81,0,0,1,.89.63,1.09,1.09,0,0,1,.27.73"/><path class="cls-2" d="M142.55,61.19s0,0-.11,0q-.36,0-.45.13a8.62,8.62,0,0,0-.57,1.13q-.22.47-.41.82a1.67,1.67,0,0,0-.15.33,2.23,2.23,0,0,0,0,.39v1.25q0,.22.06.26a1.12,1.12,0,0,0,.39.06c.12,0,.18,0,.18.06s0,0-.09,0h-.08l-.92,0h-.73c-.06,0-.09,0-.09-.06s.05-.06.15-.07a1,1,0,0,0,.43-.07s.07-.14.07-.31V63.82l-.38-.77-.66-1.3-.24-.43a.5.5,0,0,0-.31-.07c-.16,0-.24,0-.24-.07s0-.05.11-.05h1.76c.08,0,.12,0,.12.07s-.07.06-.22.06-.41,0-.41.15a4.47,4.47,0,0,0,.41.91l.6,1.14q.17-.3.38-.73l.39-.78a1.73,1.73,0,0,0,.21-.56c0-.06,0-.09-.11-.1l-.31,0c-.1,0-.14,0-.14-.07s0-.05.12-.05h.6q.67,0,.67.06"/><path class="cls-2" d="M147.7,64.24v.18q0,.37,0,.74s0,.09,0,.17a2.78,2.78,0,0,1,0,.29v.06c0,.06,0,.09-.05.09s-.07,0-.09-.1a.58.58,0,0,0-.18-.28,1.67,1.67,0,0,1-1.14.41,2.11,2.11,0,0,1-1.6-.67,2.38,2.38,0,0,1-.63-1.7,2.44,2.44,0,0,1,.58-1.69,1.92,1.92,0,0,1,1.5-.65,2.05,2.05,0,0,1,.54.06,2.26,2.26,0,0,1,.5.23.5.5,0,0,0,.22.09s.08,0,.11-.11.1-.18.14-.18a0,0,0,0,1,.05.05.41.41,0,0,1,0,.09,6.33,6.33,0,0,0-.07,1.18.28.28,0,0,1,0,.14l-.05,0s-.07,0-.09-.12a2.22,2.22,0,0,0-.24-.78,1.1,1.1,0,0,0-1-.53,1.06,1.06,0,0,0-.84.36,3.39,3.39,0,0,0-.1,3.57,1.27,1.27,0,0,0,1.07.53,1.18,1.18,0,0,0,.62-.17,1.16,1.16,0,0,0,.44-.47,2.78,2.78,0,0,0,.24-.72c0-.11.05-.16.09-.16s.07,0,.07.1"/><path class="cls-2" d="M152.45,63.45a2.44,2.44,0,0,1-.59,1.66,1.84,1.84,0,0,1-1.44.68,2,2,0,0,1-1.53-.69,2.44,2.44,0,0,1-.62-1.69,2.4,2.4,0,0,1,.6-1.68,2,2,0,0,1,1.52-.65,1.86,1.86,0,0,1,1.47.68,2.5,2.5,0,0,1,.59,1.7m-.74,0a3.13,3.13,0,0,0-.49-1.88,1,1,0,0,0-.86-.42,1,1,0,0,0-.82.32,2.86,2.86,0,0,0-.53,1.93,3.09,3.09,0,0,0,.37,1.65,1.17,1.17,0,0,0,1,.59,1,1,0,0,0,.94-.55,3.3,3.3,0,0,0,.35-1.64"/><path class="cls-2" d="M157,61.21s-.06.06-.16.06h-.26c-.07,0-.11,0-.13,0a.67.67,0,0,0,0,.22V65.3c0,.23,0,.37,0,.41s0,.06,0,.06-.06,0-.09-.07l-.84-1.23q-.73-1.07-1.78-2.68v3.67a.12.12,0,0,0,.1.11,2.79,2.79,0,0,0,.45,0q.09,0,.09.05s-.06.07-.17.07l-.38,0H153c-.1,0-.15,0-.15-.06s0-.06.13-.06a1.27,1.27,0,0,0,.45,0s.06-.12.06-.28V62q0-.55-.22-.69a.76.76,0,0,0-.37-.07c-.11,0-.17,0-.17-.07s0-.06.1-.06h.74l.42,0,2.27,3.39V61.6c0-.14,0-.22,0-.25a.09.09,0,0,0-.05-.07,1.12,1.12,0,0,0-.32,0q-.24,0-.24-.06s.05-.07.16-.07h1.06c.1,0,.14,0,.14.07"/><path class="cls-2" d="M160.73,64.65s0,.12,0,.32,0,.39,0,.57v.22q-.64,0-2.55,0h-.82c-.08,0-.12,0-.12-.05s0,0,0,0l.25,0q.17,0,.21-.07a.76.76,0,0,0,0-.31V61.51c0-.13,0-.2-.06-.23a1,1,0,0,0-.36,0c-.07,0-.11,0-.11-.06s0-.06.14-.06h2.79l.36,0q0,.28.06.78l0,.28a.46.46,0,0,1,0,.09s0,.07-.06.07-.08-.06-.11-.17a1.07,1.07,0,0,0-.41-.75,3,3,0,0,0-1.1-.12h-.54v1.93h.16a2.07,2.07,0,0,0,.9-.11q.16-.11.22-.65c0-.09,0-.14.07-.14s.07,0,.07.12,0,.2,0,.35,0,.27,0,.35q0,.7,0,1s0,.08,0,.11,0,.09-.07.09-.05,0-.06-.06,0-.16-.06-.37a.52.52,0,0,0-.32-.48,2.69,2.69,0,0,0-.62,0h-.29v2.2a12.69,12.69,0,0,0,1.7-.06q.43-.1.49-.83c0-.11,0-.16.09-.16s.07,0,.07.14"/><path class="cls-2" d="M164.87,64.24v.18q0,.37,0,.74s0,.09,0,.17a2.78,2.78,0,0,1,0,.29v.06c0,.06,0,.09-.05.09s-.07,0-.09-.1a.58.58,0,0,0-.18-.28,1.67,1.67,0,0,1-1.14.41,2.11,2.11,0,0,1-1.6-.67,2.38,2.38,0,0,1-.63-1.7,2.44,2.44,0,0,1,.58-1.69,1.92,1.92,0,0,1,1.5-.65,2.05,2.05,0,0,1,.54.06,2.26,2.26,0,0,1,.5.23.5.5,0,0,0,.22.09s.08,0,.11-.11.1-.18.14-.18a0,0,0,0,1,.05.05.41.41,0,0,1,0,.09,6.33,6.33,0,0,0-.07,1.18.28.28,0,0,1,0,.14l-.05,0s-.07,0-.09-.12a2.22,2.22,0,0,0-.24-.78,1.1,1.1,0,0,0-1-.53,1.06,1.06,0,0,0-.84.36,3.39,3.39,0,0,0-.1,3.57,1.27,1.27,0,0,0,1.07.53,1.18,1.18,0,0,0,.62-.17,1.16,1.16,0,0,0,.44-.47,2.78,2.78,0,0,0,.24-.72c0-.11.05-.16.09-.16s.07,0,.07.1"/><path class="cls-2" d="M168.91,62.32c0,.06,0,.09-.08.09s-.09-.06-.11-.17l0-.24a1.14,1.14,0,0,0-.15-.4.65.65,0,0,0-.45-.28,1.38,1.38,0,0,0-.33,0h-.37v4q0,.24.12.3a1.21,1.21,0,0,0,.37,0c.05,0,.08,0,.08.06s0,.06-.1.06h-1.55c-.1,0-.15,0-.15-.05s.09-.06.28-.07.22,0,.26-.09a.65.65,0,0,0,0-.27V61.3a3.27,3.27,0,0,0-.81.07q-.41.15-.49.81c0,.13,0,.2-.09.2s-.08,0-.08-.14,0-.1,0-.14v-.15q0-.3.06-.8h.3l1.34,0h.74l1.09,0q0,.37.09,1.09a.24.24,0,0,0,0,0v0"/><path class="cls-2" d="M173.47,63.45a2.44,2.44,0,0,1-.59,1.66,1.84,1.84,0,0,1-1.44.68,2,2,0,0,1-1.53-.69,2.44,2.44,0,0,1-.62-1.69,2.4,2.4,0,0,1,.6-1.68,2,2,0,0,1,1.52-.65,1.86,1.86,0,0,1,1.47.68,2.5,2.5,0,0,1,.59,1.7m-.74,0a3.13,3.13,0,0,0-.49-1.88,1,1,0,0,0-.86-.42,1,1,0,0,0-.82.32,2.86,2.86,0,0,0-.53,1.93,3.09,3.09,0,0,0,.37,1.65,1.17,1.17,0,0,0,1,.59,1,1,0,0,0,.94-.55,3.3,3.3,0,0,0,.35-1.64"/><path class="cls-2" d="M177.65,65.51q0,.28-.46.28a.92.92,0,0,1-.8-.43,1,1,0,0,1-.16-.36c0-.11-.06-.4-.11-.87a.8.8,0,0,0-.27-.59,1.32,1.32,0,0,0-.75-.19v2.07c0,.09.07.14.21.16h.3c.06,0,.09,0,.09.05s0,.06-.11.06H174c-.1,0-.14,0-.14-.06s.06,0,.19-.05.32,0,.34-.08a.64.64,0,0,0,0-.26V61.64q0-.26-.06-.32a.65.65,0,0,0-.34-.06c-.11,0-.16,0-.16-.06s0-.07.11-.07h.06l.87,0h.37l.37,0a1.56,1.56,0,0,1,1,.27.88.88,0,0,1,.36.74.94.94,0,0,1-.37.76,1.79,1.79,0,0,1-1,.35l-.07,0s0,0,.07,0a1.4,1.4,0,0,1,1,.48,2.87,2.87,0,0,1,.34,1.32q.05.54.37.54c.07,0,.1,0,.1,0h0a.3.3,0,0,1,0-.12c0-.09,0-.14.14-.14s.16.06.16.16m-1.36-3.29q0-.94-.82-.94a.53.53,0,0,0-.3.06.25.25,0,0,0-.08.21v1.67A1.38,1.38,0,0,0,176,63a1,1,0,0,0,.28-.77"/><path class="cls-2" d="M181.31,64.65s0,.12,0,.32,0,.39,0,.57v.22q-.64,0-2.55,0h-.82c-.08,0-.12,0-.12-.05s0,0,0,0l.25,0q.17,0,.21-.07a.76.76,0,0,0,0-.31V61.51c0-.13,0-.2-.06-.23a1,1,0,0,0-.36,0c-.07,0-.11,0-.11-.06s0-.06.14-.06h2.79l.36,0q0,.28.06.78l0,.28a.46.46,0,0,1,0,.09s0,.07-.06.07-.08-.06-.11-.17a1.07,1.07,0,0,0-.41-.75,3,3,0,0,0-1.1-.12H179v1.93h.16a2.07,2.07,0,0,0,.9-.11q.16-.11.22-.65c0-.09,0-.14.07-.14s.07,0,.07.12,0,.2,0,.35,0,.27,0,.35q0,.7,0,1s0,.08,0,.11,0,.09-.07.09-.05,0-.06-.06,0-.16-.06-.37a.52.52,0,0,0-.32-.48,2.69,2.69,0,0,0-.62,0H179v2.2a12.69,12.69,0,0,0,1.7-.06q.43-.1.49-.83c0-.11,0-.16.09-.16s.07,0,.07.14"/><path class="cls-2" d="M184.52,64.43a1.26,1.26,0,0,1-.43,1,1.47,1.47,0,0,1-1,.4,2.17,2.17,0,0,1-.85-.22.55.55,0,0,0-.2-.06c-.05,0-.09.06-.1.18s0,.09-.09.09-.07,0-.07-.08a.39.39,0,0,1,0-.08,5.69,5.69,0,0,0,.05-.74s0-.17,0-.37a.68.68,0,0,1,0-.11c0-.07,0-.1.08-.1s.07.05.09.16q.17,1.18,1.11,1.18a.83.83,0,0,0,.62-.23.88.88,0,0,0,.22-.64,1,1,0,0,0-.21-.63,2.24,2.24,0,0,0-.73-.52,2.73,2.73,0,0,1-.87-.6,1.07,1.07,0,0,1-.24-.72,1.23,1.23,0,0,1,.35-.9,1.2,1.2,0,0,1,.89-.36,1.87,1.87,0,0,1,.62.15.65.65,0,0,0,.2.05.13.13,0,0,0,.1,0,.34.34,0,0,0,0-.14.07.07,0,0,1,.07-.07s.07,0,.07.08a.39.39,0,0,1,0,.08,3.05,3.05,0,0,0,0,.38,2.94,2.94,0,0,0,0,.5v.11s0,.07-.06.07-.08-.05-.1-.15a1.17,1.17,0,0,0-.34-.65.85.85,0,0,0-.61-.26.68.68,0,0,0-.52.21.81.81,0,0,0-.19.57.87.87,0,0,0,.28.68,3.45,3.45,0,0,0,.68.41,2.81,2.81,0,0,1,.89.63,1.09,1.09,0,0,1,.27.73"/></svg>