<svg id="Layer_1" data-name="Layer 1" xmlns="http://www.w3.org/2000/svg" viewBox="0 0 267 100"><defs><style>.cls-1{fill:none;}.cls-2{fill:#78797a;}</style></defs><title>htc</title><rect class="cls-1" width="267" height="100"/><polygon class="cls-2" points="151.5 38.15 117.84 38.15 117.84 44.07 131.71 44.07 131.71 67 137.63 67 137.63 44.07 151.5 44.07 151.5 38.15"/><path class="cls-2" d="M99.43,38.29h-11a11.42,11.42,0,0,0-5.57,1.44V29.35H76.92V67h5.93V49.79a5.58,5.58,0,0,1,5.57-5.57h11A5.58,5.58,0,0,1,105,49.79V67h5.93V49.79A11.51,11.51,0,0,0,99.43,38.29Z"/><path class="cls-2" d="M191.16,61a5.46,5.46,0,0,1-1.28.16H168.6a5.54,5.54,0,0,1-5.53-5.53V49.77a5.54,5.54,0,0,1,5.53-5.53h21.29a5.52,5.52,0,0,1,1.28.15v-6a11.4,11.4,0,0,0-1.28-.07H168.6a11.43,11.43,0,0,0-11.41,11.41v5.82A11.43,11.43,0,0,0,168.6,67h21.29a11.4,11.4,0,0,0,1.28-.07Z"/></svg>