<svg id="Layer_1" data-name="Layer 1" xmlns="http://www.w3.org/2000/svg" viewBox="0 0 267 100"><defs><style>.cls-1,.cls-4{fill:none;}.cls-2,.cls-3{fill:#77797a;}.cls-3{font-size:3.86px;font-family:Arial-BoldMT, Arial;font-weight:700;}.cls-4{stroke:#77797a;stroke-miterlimit:10;stroke-width:0.28px;}</style></defs><title>idennto-8</title><rect class="cls-1" width="267" height="100"/><path class="cls-2" d="M59.11,48.48V64.09q0,3.58.11,4.51A1.94,1.94,0,0,0,60,70a4.37,4.37,0,0,0,2.43.49H63v1.26H51V70.51h.93a3.89,3.89,0,0,0,2.53-.56,2.17,2.17,0,0,0,.68-1.34q.1-.78.1-4.52V57.31a17.52,17.52,0,0,0-.37-4.81,1.8,1.8,0,0,0-1-1.09,7.22,7.22,0,0,0-2.15-.22H51V49.93a33.45,33.45,0,0,0,7.54-1.45Z"/><path class="cls-2" d="M85.1,51.76V43q0-3.58-.1-4.51a1.9,1.9,0,0,0-.78-1.42,4.37,4.37,0,0,0-2.43-.49h-.57V35.34a30.81,30.81,0,0,0,7.24-1.15H89V64.28A45.12,45.12,0,0,0,89.17,69,1.68,1.68,0,0,0,90,70.29a6.05,6.05,0,0,0,2.69.41V72a39.69,39.69,0,0,0-7.05.71,17.93,17.93,0,0,1-.33-4,15,15,0,0,1-4.17,3,10.31,10.31,0,0,1-4.44,1,9.78,9.78,0,0,1-7.5-3.5,12.2,12.2,0,0,1-3.16-8.47,12.27,12.27,0,0,1,3.22-8.84A10.26,10.26,0,0,1,77,48.48a11.31,11.31,0,0,1,4.29.82A12.9,12.9,0,0,1,85.1,51.76Zm0,1.59A14.08,14.08,0,0,0,81.48,51a9.2,9.2,0,0,0-3.65-.78,6.54,6.54,0,0,0-5.15,2.38Q70.61,55,70.61,60.37t2.12,8.06A6.5,6.5,0,0,0,78,71a7.83,7.83,0,0,0,3.85-1,10.74,10.74,0,0,0,3.28-3Z"/><path class="cls-2" d="M115.6,57H100q-.11,1.61-.11,2.4,0,5.9,1.84,8.87a6.06,6.06,0,0,0,5.51,3,7.21,7.21,0,0,0,7.05-4.45h1.31a7.64,7.64,0,0,1-3.47,4.36,10.87,10.87,0,0,1-11,.14A11.46,11.46,0,0,1,97,67.18a11.93,11.93,0,0,1-1.61-6.37A12.79,12.79,0,0,1,98.46,52a10,10,0,0,1,7.79-3.51,8.67,8.67,0,0,1,6.8,2.68A9.16,9.16,0,0,1,115.6,57Zm-4.78-1.09a8.76,8.76,0,0,0,.08-1.12A4.69,4.69,0,0,0,106,49.68q-5,0-5.93,6.18Z"/><path class="cls-2" d="M125.43,48.48h.74a14.89,14.89,0,0,1,.71,4.62A14.3,14.3,0,0,1,131,49.63a9.48,9.48,0,0,1,4.51-1.15,7.86,7.86,0,0,1,4.39,1.12,5,5,0,0,1,2.2,2.75,17.36,17.36,0,0,1,.49,4.74v7a44.73,44.73,0,0,0,.14,4.73,1.72,1.72,0,0,0,.86,1.27,5.79,5.79,0,0,0,2.66.42v1.26H134.81V70.51h.52a3.94,3.94,0,0,0,2.57-.57,2.13,2.13,0,0,0,.68-1.34q.08-.76.08-4.51V56.87a19.12,19.12,0,0,0-.26-3.79,3.55,3.55,0,0,0-1.39-2,4.59,4.59,0,0,0-2.88-.87,6.86,6.86,0,0,0-3.81,1.19A12.65,12.65,0,0,0,126.88,55v9.13a40.72,40.72,0,0,0,.15,4.73,1.76,1.76,0,0,0,.87,1.27,5.87,5.87,0,0,0,2.69.42v1.26H119.29V70.51a6.26,6.26,0,0,0,2.62-.38,1.68,1.68,0,0,0,.92-1.16,35.42,35.42,0,0,0,.18-4.88V57.42a40.79,40.79,0,0,0-.15-4.74,1.75,1.75,0,0,0-.87-1.26,5.88,5.88,0,0,0-2.69-.42V49.74A35.12,35.12,0,0,0,125.43,48.48Z"/><path class="cls-2" d="M155.17,48.48h.74a14.89,14.89,0,0,1,.71,4.62,14.3,14.3,0,0,1,4.13-3.47,9.48,9.48,0,0,1,4.51-1.15,7.86,7.86,0,0,1,4.39,1.12,5,5,0,0,1,2.2,2.75,17.36,17.36,0,0,1,.49,4.74v7a44.73,44.73,0,0,0,.14,4.73,1.72,1.72,0,0,0,.86,1.27,5.79,5.79,0,0,0,2.66.42v1.26H164.54V70.51h.52a3.94,3.94,0,0,0,2.57-.57,2.13,2.13,0,0,0,.68-1.34q.08-.76.08-4.51V56.87a19.12,19.12,0,0,0-.26-3.79,3.55,3.55,0,0,0-1.39-2,4.59,4.59,0,0,0-2.88-.87A6.86,6.86,0,0,0,160,51.39,12.65,12.65,0,0,0,156.62,55v9.13a40.72,40.72,0,0,0,.15,4.73,1.76,1.76,0,0,0,.87,1.27,5.87,5.87,0,0,0,2.69.42v1.26H149V70.51a6.26,6.26,0,0,0,2.62-.38,1.68,1.68,0,0,0,.92-1.16,35.42,35.42,0,0,0,.18-4.88V57.42a40.79,40.79,0,0,0-.15-4.74,1.75,1.75,0,0,0-.87-1.26A5.88,5.88,0,0,0,149,51V49.74A35.12,35.12,0,0,0,155.17,48.48Z"/><path class="cls-2" d="M192.56,50.64h-6.75V64.17a20.61,20.61,0,0,0,.27,4.2,3,3,0,0,0,1.16,1.74,3.14,3.14,0,0,0,1.9.66,4.1,4.1,0,0,0,3.42-2.24l.87.52a5.86,5.86,0,0,1-2.5,2.72,6.85,6.85,0,0,1-3.35.92,5.46,5.46,0,0,1-3.46-1.16,4.85,4.85,0,0,1-1.86-2.72,27.3,27.3,0,0,1-.37-5.47V50.64h-3.25V49.38a5.67,5.67,0,0,0,4-1.89,9.08,9.08,0,0,0,2.27-5.14h.87v7h6.75Z"/><path class="cls-2" d="M195.59,60.53a11.69,11.69,0,0,1,3.44-8.6,12.13,12.13,0,0,1,17,0,11.71,11.71,0,0,1,3.44,8.58q0,5.66-3.5,8.9a12,12,0,0,1-8.44,3.24,11.83,11.83,0,0,1-8.43-3.29A11.59,11.59,0,0,1,195.59,60.53Zm4.54.14q0,6,1.94,8.35A7.43,7.43,0,0,0,213,69q1.9-2.39,1.9-8.35T213,52.25a7.26,7.26,0,0,0-11,0Q200.13,54.74,200.13,60.67Z"/><text class="cls-3" transform="translate(219.79 52.73)">R</text><circle class="cls-4" cx="221.24" cy="51.32" r="2.15"/><path class="cls-2" d="M54.19,41.81l-4.07,3.43a6.18,6.18,0,0,0,10.29-2.11Z"/><path class="cls-2" d="M53.5,40.68s-7.94,6-8.63,6.52c-2-1.23-5-13.88,5.74-17Z"/><path class="cls-2" d="M55.27,40.1S68.7,42,70.85,42.35c2-6.86-4.51-19.9-19.46-17.4Z"/></svg>