<svg id="Layer_1" data-name="Layer 1" xmlns="http://www.w3.org/2000/svg" viewBox="0 0 267 100"><defs><style>.cls-1{fill:none;}.cls-2{fill:#77797a;}</style></defs><title>kia-8</title><rect class="cls-1" width="267" height="100"/><path class="cls-2" d="M126.57,35.17"/><path class="cls-2" d="M131.57,7.68c-29.84,0-54,12.42-54,27.73s24.19,27.73,54,27.73,54-12.42,54-27.73S161.41,7.68,131.57,7.68Zm.23,49.12c-27.29,0-49.4-9.51-49.4-21.25S104.52,14.3,131.8,14.3s49.4,9.52,49.4,21.25S159.09,56.8,131.8,56.8Z"/><path class="cls-2" d="M149.44,24.39a.7.7,0,0,0,.06-.25.56.56,0,0,0-.56-.56h-.75a.11.11,0,0,1-.11-.11V22.15a.11.11,0,0,1,.11-.11h10.12c.3,0,.59.06.69.37L167.8,48a.74.74,0,0,1,0,.15.49.49,0,0,1-.49.49H161a.83.83,0,0,1-.73-.57l-5.43-16.54c0-.14-.13-.26-.28-.26s-.24.11-.28.26l-5.43,16.54a.84.84,0,0,1-.73.57h-6.32a.49.49,0,0,1-.49-.49.46.46,0,0,1,0-.14Z"/><path class="cls-2" d="M128.34,24.37v-.24h0a.56.56,0,0,0-.57-.55h-.84a.11.11,0,0,1-.11-.11V22.14a.11.11,0,0,1,.11-.11h8.39a.56.56,0,0,1,.55.56V48.12a.56.56,0,0,1-.55.56h-6.43a.56.56,0,0,1-.55-.56V24.37Z"/><path class="cls-2" d="M122.9,48.67h-7.4a1.38,1.38,0,0,1-1-.56L107.15,38c-.12-.12-.13-.15-.22-.23a.4.4,0,0,0-.21-.06.31.31,0,0,0-.3.34v.14h0v10a.56.56,0,0,1-.55.56H99.64a.56.56,0,0,1-.55-.56v-24h0a.55.55,0,0,0-.55-.56h-.86a.11.11,0,0,1-.11-.11V22.14a.11.11,0,0,1,.11-.11h8.19a.56.56,0,0,1,.55.56v8.35h0v.14a.31.31,0,0,0,.3.34.42.42,0,0,0,.21-.06c.08-.07.09-.11.21-.23l1-1.41,5.1-7.11a1.39,1.39,0,0,1,1-.56h7.08a.48.48,0,0,1,.48.49.51.51,0,0,1-.07.28L113.9,34.19a.54.54,0,0,0-.13.35.47.47,0,0,0,.12.33l9.38,13a.44.44,0,0,1,.12.33A.49.49,0,0,1,122.9,48.67Z"/><path class="cls-2" d="M57.67,78.16H53.61l-.53,2.73h4.56l-.41,2h-7l2.17-11.21h6.77l-.41,2H54.46L54,76.14h4.09Z"/><path class="cls-2" d="M58.7,82.93,61,71.12h2.44L61.15,82.93Z"/><path class="cls-2" d="M68.15,71.94a13.63,13.63,0,0,1,3-.28,5.43,5.43,0,0,1,3,.75,2.67,2.67,0,0,1,1.24,2.38,3.86,3.86,0,0,1-1.55,3.14,6.07,6.07,0,0,1-3.66,1c-.41,0-.75,0-1-.07l-.78,4H66Zm1.41,5a4.89,4.89,0,0,0,.95.08,2.19,2.19,0,0,0,2.43-2c0-1.06-.78-1.41-1.73-1.41a6.3,6.3,0,0,0-1,.07Z"/><path class="cls-2" d="M78.79,83.11a3.26,3.26,0,0,1-3.53-3.36,4.93,4.93,0,0,1,5-5.14A3.27,3.27,0,0,1,83.74,78a4.89,4.89,0,0,1-4.94,5.14Zm.32-1.83c1.32,0,2.09-1.91,2.09-3.29,0-.76-.34-1.55-1.31-1.55-1.41,0-2.12,2-2.12,3.26,0,.95.49,1.58,1.32,1.58Z"/><path class="cls-2" d="M94.09,71.12l-1.68,8.65A26.83,26.83,0,0,0,92,82.93H89.8l.12-1.31h0a3.21,3.21,0,0,1-2.73,1.5c-1.4,0-2.56-1.1-2.56-3.06a5.28,5.28,0,0,1,5.22-5.44,3.25,3.25,0,0,1,1.12.2l.73-3.69Zm-3.5,5.61a1.58,1.58,0,0,0-1-.28c-1.46,0-2.49,1.65-2.49,3.21,0,1,.42,1.53,1.14,1.53s1.58-.73,1.88-2.28Z"/><path class="cls-2" d="M100.6,82.46a7.24,7.24,0,0,1-3.08.65c-2.38,0-3.6-1.31-3.6-3.44a4.93,4.93,0,0,1,4.84-5.06c1.68,0,2.88.93,2.88,2.44,0,2.06-2,2.81-5.38,2.73a1.57,1.57,0,0,0,.26.83,1.94,1.94,0,0,0,1.59.63,5.32,5.32,0,0,0,2.32-.52ZM99.35,77c0-.4-.34-.68-.9-.68a2.06,2.06,0,0,0-2,1.68c1.9,0,2.85-.23,2.85-1Z"/><path class="cls-2" d="M101.94,82.93l1-4.84c.22-1.23.34-2.59.42-3.29h2.1c0,.55-.08,1.1-.15,1.68h.07A3.06,3.06,0,0,1,108,74.61l.46,0L108,77a2.5,2.5,0,0,0-.38,0c-1.55,0-2.29,1.35-2.59,2.94l-.57,3Z"/><path class="cls-2" d="M120.67,71.12,119,79.77a26.81,26.81,0,0,0-.39,3.16h-2.22l.12-1.31h0a3.21,3.21,0,0,1-2.73,1.5c-1.41,0-2.57-1.1-2.57-3.06a5.29,5.29,0,0,1,5.23-5.44,3.24,3.24,0,0,1,1.12.2l.73-3.69Zm-3.49,5.61a1.58,1.58,0,0,0-1-.28c-1.46,0-2.49,1.65-2.49,3.21,0,1,.42,1.53,1.13,1.53s1.58-.73,1.88-2.28Z"/><path class="cls-2" d="M127.19,82.46a7.24,7.24,0,0,1-3.09.65c-2.37,0-3.6-1.31-3.6-3.44a4.93,4.93,0,0,1,4.84-5.06c1.68,0,2.89.93,2.89,2.44,0,2.06-2.06,2.81-5.38,2.73a1.58,1.58,0,0,0,.26.83,1.93,1.93,0,0,0,1.6.63,5.3,5.3,0,0,0,2.32-.52ZM125.93,77c0-.4-.34-.68-.9-.68a2.07,2.07,0,0,0-2,1.68c1.9,0,2.85-.23,2.85-1Z"/><path class="cls-2" d="M132.07,80.34a5.41,5.41,0,0,0,2.7.72c.94,0,1.8-.43,1.8-1.3,0-.65-.49-1-1.54-1.6-1.21-.63-2.36-1.53-2.36-3,0-2.26,2-3.64,4.49-3.64a5.71,5.71,0,0,1,2.68.55l-.76,2A4.59,4.59,0,0,0,137,73.6c-1.13,0-1.73.55-1.73,1.17s.69,1.06,1.66,1.6c1.39.71,2.25,1.63,2.25,3,0,2.49-2.11,3.78-4.63,3.78a6,6,0,0,1-3.26-.8Z"/><path class="cls-2" d="M143.81,83.11a3.26,3.26,0,0,1-3.53-3.36,4.93,4.93,0,0,1,5-5.14A3.27,3.27,0,0,1,148.77,78a4.89,4.89,0,0,1-4.94,5.14Zm.33-1.83c1.32,0,2.09-1.91,2.09-3.29,0-.76-.34-1.55-1.31-1.55-1.41,0-2.12,2-2.12,3.26,0,.95.49,1.58,1.33,1.58Z"/><path class="cls-2" d="M149.29,82.93l.95-4.84c.22-1.23.34-2.59.42-3.29h2.11c0,.55-.09,1.1-.15,1.68h.07a3.07,3.07,0,0,1,2.63-1.86l.46,0L155.3,77a2.54,2.54,0,0,0-.38,0c-1.54,0-2.29,1.35-2.6,2.94l-.57,3Z"/><path class="cls-2" d="M154.7,86.22l1.61-8.28c.18-1,.37-2.38.48-3.21H159L158.83,76h0a3.38,3.38,0,0,1,2.67-1.37c1.8,0,2.68,1.41,2.68,3.09,0,2.81-1.92,5.41-4.82,5.41a3.34,3.34,0,0,1-1.53-.33h-.06l-.65,3.44Zm3.5-5.31a1.64,1.64,0,0,0,1.12.38c1.31,0,2.33-1.81,2.33-3.41,0-.65-.29-1.33-1.07-1.33s-1.77,1-2.07,2.6Z"/><path class="cls-2" d="M164.75,82.93l1-4.84c.22-1.23.34-2.59.42-3.29h2.11c0,.55-.09,1.1-.15,1.68h.07a3.06,3.06,0,0,1,2.63-1.86l.46,0L170.76,77a2.6,2.6,0,0,0-.38,0c-1.54,0-2.29,1.35-2.59,2.94l-.57,3Z"/><path class="cls-2" d="M177.74,82.46a7.25,7.25,0,0,1-3.09.65c-2.38,0-3.6-1.31-3.6-3.44a4.93,4.93,0,0,1,4.84-5.06c1.68,0,2.88.93,2.88,2.44,0,2.06-2.05,2.81-5.38,2.73a1.58,1.58,0,0,0,.26.83,1.93,1.93,0,0,0,1.59.63,5.3,5.3,0,0,0,2.32-.52ZM176.49,77c0-.4-.34-.68-.9-.68A2.06,2.06,0,0,0,173.64,78c1.89,0,2.85-.23,2.85-1Z"/><path class="cls-2" d="M179.1,82.93l1-5.49c.2-1,.34-1.91.44-2.65h2.15l-.15,1.35h0a3.55,3.55,0,0,1,2.9-1.53,2,2,0,0,1,2.14,2.23,9.21,9.21,0,0,1-.14,1.36l-.91,4.72h-2.45l.87-4.51a5.09,5.09,0,0,0,.08-.9c0-.58-.2-1-.83-1-.79,0-1.71,1-2.07,2.78l-.68,3.61Z"/><path class="cls-2" d="M198.17,71.12l-1.68,8.65a26.71,26.71,0,0,0-.39,3.16h-2.22l.12-1.31h0a3.21,3.21,0,0,1-2.73,1.5c-1.41,0-2.56-1.1-2.56-3.06a5.28,5.28,0,0,1,5.23-5.44,3.26,3.26,0,0,1,1.12.2l.73-3.69Zm-3.5,5.61a1.58,1.58,0,0,0-1-.28c-1.46,0-2.49,1.65-2.49,3.21,0,1,.43,1.53,1.14,1.53s1.58-.73,1.89-2.28Z"/><path class="cls-2" d="M204.69,82.46a7.29,7.29,0,0,1-3.09.65c-2.37,0-3.59-1.31-3.59-3.44a4.92,4.92,0,0,1,4.83-5.06c1.68,0,2.88.93,2.88,2.44,0,2.06-2.05,2.81-5.37,2.73a1.58,1.58,0,0,0,.25.83,1.94,1.94,0,0,0,1.6.63,5.3,5.3,0,0,0,2.32-.52ZM203.43,77c0-.4-.34-.68-.9-.68a2.06,2.06,0,0,0-2,1.68c1.9,0,2.85-.23,2.85-1Z"/><path class="cls-2" d="M206,82.93l1-4.84c.22-1.23.34-2.59.43-3.29h2.1c0,.55-.08,1.1-.15,1.68h.07A3.06,3.06,0,0,1,212,74.61l.46,0L212,77a2.52,2.52,0,0,0-.38,0c-1.54,0-2.29,1.35-2.59,2.94l-.58,3Z"/><path class="cls-2" d="M211.94,67.8l-.2,1.05h1.46L212.39,73h1.22s.78-4,.82-4.12h1.47l.21-1.05Z"/><path class="cls-2" d="M219.81,67.8s-1.13,2.46-1.41,3.06c0-.65-.2-3.06-.2-3.06h-1.69l-1,5.17h1.14l.63-3.15.17,3.15h1.13l1.39-3.1c-.21,1.08-.61,3.1-.61,3.1h1.15l1-5.17Z"/></svg>