<?xml version="1.0" encoding="utf-8"?>
<!-- Generator: Adobe Illustrator 21.0.2, SVG Export Plug-In . SVG Version: 6.00 Build 0)  -->
<svg version="1.1" id="Layer_1" xmlns="http://www.w3.org/2000/svg" xmlns:xlink="http://www.w3.org/1999/xlink" x="0px" y="0px"
	 viewBox="0 0 267 100" style="enable-background:new 0 0 267 100;" xml:space="preserve">
<style type="text/css">
	.st0{fill:none;}
	.st1{fill:#78797A;}
</style>
<rect class="st0" width="267" height="100"/>
<path class="st1" d="M98.4,65.1h8.2V51.7v-0.5c0-2.3-0.2-3.9-0.4-4.9c-0.2-1-0.6-1.9-1.2-2.6c-0.7-0.9-1.6-1.7-2.7-2.1
	c-1-0.5-2.3-0.7-3.7-0.7c-1.8,0-3.3,0.4-4.6,1.1c-1.3,0.7-2.5,1.8-3.4,3.3c-0.5-1.5-1.4-2.6-2.6-3.3c-1.3-0.7-2.8-1.1-4.7-1.1
	c-1.8,0-3.3,0.4-4.6,1.2c-1.3,0.8-2.4,2-3.4,3.7v-4.1h-8.1v23.5h8.1v-9.9c0-3.3,0.3-5.5,0.9-6.6c0.6-1,1.7-1.6,3.3-1.6
	c1.3,0,2.1,0.4,2.6,1.1c0.5,0.8,0.8,2.2,0.8,4.2v12.8h8v-9.9c0-3.3,0.3-5.5,0.9-6.6c0.6-1.1,1.7-1.7,3.3-1.7c1.2,0,2.1,0.4,2.6,1.2
	c0.5,0.7,0.8,2.2,0.8,4.2V65.1L98.4,65.1z M130.3,53.4L130.3,53.4c0,1.8-0.5,3.3-1.4,4.3c-1,1-2.3,1.5-4,1.5c-1.7,0-3-0.5-4-1.5
	c-1-1.1-1.4-2.5-1.4-4.3c0-1.8,0.5-3.3,1.4-4.4c1-1,2.3-1.6,4-1.6c1.7,0,3,0.6,4,1.7C129.9,50.1,130.3,51.6,130.3,53.4L130.3,53.4z
	 M137.7,41.6L137.7,41.6H130v3.9c-0.9-1.5-2-2.7-3.3-3.5c-1.3-0.7-2.8-1.1-4.6-1.1c-3.3,0-5.9,1.1-7.9,3.4c-1.9,2.2-2.9,5.3-2.9,9.1
	c0,3.9,0.9,6.9,2.8,9.2c1.8,2.3,4.3,3.4,7.5,3.4c1.8,0,3.4-0.3,4.7-1.1c1.4-0.8,2.6-1.9,3.7-3.6v3.8h7.6V41.6L137.7,41.6z
	 M151.3,53.4L151.3,53.4c0-1.8,0.5-3.3,1.4-4.3c1-1,2.3-1.6,3.9-1.6c1.7,0,3,0.6,4,1.6c1,1,1.5,2.5,1.5,4.3c0,1.9-0.5,3.3-1.5,4.3
	c-1,1-2.3,1.5-4,1.5c-1.7,0-3-0.5-3.9-1.5C151.7,56.7,151.3,55.2,151.3,53.4L151.3,53.4z M144,29.1L144,29.1v36h7.6v-3.8
	c1,1.5,2.2,2.7,3.5,3.5c1.3,0.8,2.8,1.1,4.4,1.1c3.3,0,5.9-1.1,7.9-3.4c1.9-2.3,3-5.4,3-9.3c0-3.7-1-6.7-3-9
	c-1.9-2.3-4.5-3.5-7.6-3.5c-2,0-3.7,0.4-4.9,1.1c-1.3,0.7-2.4,1.9-3.4,3.6c0.1-0.5,0.2-1,0.2-1.7c0.1-0.6,0.1-1.5,0.1-2.5V29.1H144
	L144,29.1z M191.5,50.3L191.5,50.3h-9.5c0.2-1.4,0.8-2.5,1.6-3.3c0.7-0.7,1.8-1.1,3.2-1.1c1.3,0,2.3,0.5,3.1,1.3
	C190.8,48,191.4,49,191.5,50.3L191.5,50.3z M199.7,55L199.7,55v-0.3c0-4.3-1.1-7.7-3.4-10.1c-2.3-2.5-5.3-3.7-9.3-3.7
	c-3.8,0-6.9,1.3-9.4,3.7c-2.5,2.4-3.7,5.5-3.7,9.1c0,3.7,1.2,6.7,3.7,9c2.5,2.3,5.8,3.4,9.9,3.4c2.7,0,5-0.5,6.9-1.4
	c1.9-1,3.2-2.3,4-4.2l-6.3-2.6c-0.5,1-1.1,1.7-1.9,2.2c-0.9,0.5-1.9,0.7-3.1,0.7c-1.7,0-3-0.5-3.9-1.5c-0.9-1-1.4-2.4-1.4-4.2H199.7
	z"/>
</svg>
