<svg id="Layer_1" data-name="Layer 1" xmlns="http://www.w3.org/2000/svg" viewBox="0 0 267 100"><defs><style>.cls-1{fill:none;}.cls-2{fill:#77797a;}</style></defs><title>mabe-8</title><rect class="cls-1" width="267" height="100"/><path class="cls-2" d="M86.86,68.3H97.78V49.87a30.17,30.17,0,0,0-.53-6.45,8.68,8.68,0,0,0-1.59-3.49,9.19,9.19,0,0,0-3.57-2.81,12.14,12.14,0,0,0-4.93-1A12.29,12.29,0,0,0,81,37.66a11.81,11.81,0,0,0-4.48,4.4,8.05,8.05,0,0,0-3.41-4.4,12,12,0,0,0-6.22-1.52,11.31,11.31,0,0,0-6.07,1.59,14,14,0,0,0-4.48,4.86V37.12H45.59V68.3h10.7V55.1c0-4.4.38-7.36,1.21-8.8a4.7,4.7,0,0,1,4.32-2.12,3.7,3.7,0,0,1,3.41,1.52c.68,1.06,1.06,2.88,1.06,5.61v17H76.92V55.1c0-4.4.38-7.28,1.14-8.72a4.6,4.6,0,0,1,4.32-2.2,3.66,3.66,0,0,1,3.41,1.59c.68,1,1.06,2.88,1.06,5.54v17Zm42.46-15.55h0a8.26,8.26,0,0,1-1.9,5.77,7.14,7.14,0,0,1-5.31,2,6.91,6.91,0,0,1-5.31-2,8.26,8.26,0,0,1-1.9-5.77,8.47,8.47,0,0,1,1.9-5.84,7.6,7.6,0,0,1,10.62.08,8.14,8.14,0,0,1,1.9,5.77ZM139,37.12H128.86v5.16a12.35,12.35,0,0,0-4.4-4.63,11.8,11.8,0,0,0-6.07-1.52,13,13,0,0,0-10.47,4.55q-3.87,4.44-3.87,12.06c0,5.16,1.21,9.18,3.72,12.21a12.07,12.07,0,0,0,9.94,4.55,12.66,12.66,0,0,0,6.3-1.44,14.7,14.7,0,0,0,4.93-4.78v5H139V37.12Zm18.09,15.63h0a8.07,8.07,0,0,1,1.9-5.69,7.6,7.6,0,0,1,10.54,0,8.1,8.1,0,0,1,2,5.69,8,8,0,0,1-2,5.77,7.81,7.81,0,0,1-10.54,0,8.14,8.14,0,0,1-1.9-5.77Zm-9.71-32.24h0V68.3H157.5v-5a15.42,15.42,0,0,0,4.7,4.7A11,11,0,0,0,168,69.52c4.4,0,7.89-1.44,10.47-4.48s3.94-7.13,3.94-12.29c0-4.93-1.37-9-3.94-12a12.64,12.64,0,0,0-10.09-4.63A13.09,13.09,0,0,0,162,37.58a13.06,13.06,0,0,0-4.48,4.78,9.57,9.57,0,0,0,.23-2.28c.08-.83.15-2,.15-3.26V20.51Zm63.15,28.14H198a7.31,7.31,0,0,1,2.12-4.32,5.8,5.8,0,0,1,4.25-1.52,5.91,5.91,0,0,1,4.17,1.67,6.64,6.64,0,0,1,2,4.17Zm10.85,6.22h0v-.46c0-5.69-1.52-10.17-4.48-13.35s-7.05-4.93-12.29-4.93A17.29,17.29,0,0,0,192.21,41a16.29,16.29,0,0,0-4.85,12.14A15.45,15.45,0,0,0,192.21,65c3.34,3,7.66,4.48,13.12,4.48a19.8,19.8,0,0,0,9.18-1.9,11.07,11.07,0,0,0,5.31-5.54l-8.34-3.41a6.38,6.38,0,0,1-2.58,2.88,8.91,8.91,0,0,1-4.17.91,6.43,6.43,0,0,1-5.16-2,7.94,7.94,0,0,1-1.82-5.61Z"/></svg>