<svg id="Layer_1" data-name="Layer 1" xmlns="http://www.w3.org/2000/svg" viewBox="0 0 267 100"><defs><style>.cls-1{fill:none;}.cls-2{fill:#78797a;fill-rule:evenodd;}</style></defs><title>midland-8</title><rect class="cls-1" width="267" height="100"/><polygon class="cls-2" points="99.45 59.57 99.45 47.25 94.53 47.25 94.53 59.57 99.45 59.57 99.45 59.57"/><polygon class="cls-2" points="128.89 47.25 128.89 59.57 143.86 59.57 143.86 57.04 133.81 57.04 133.81 47.25 128.89 47.25 128.89 47.25"/><path class="cls-2" d="M116.16,49.78a3.63,3.63,0,0,1,0,7.26h-6.09V49.78Zm2.34-2.53H105.14V59.57H118.5a6.16,6.16,0,1,0,0-12.33Z"/><polygon class="cls-2" points="73.43 51.45 77.54 59.57 90.99 59.57 79.4 36.86 73.43 50.38 67.46 36.86 55.87 59.57 69.33 59.57 73.43 51.45 73.43 51.45"/><polygon class="cls-2" points="168.77 47.25 173.7 47.25 183.4 55.87 183.4 47.25 187.88 47.25 187.88 59.57 182.57 59.57 173.7 51.7 173.7 59.57 168.77 59.57 168.77 47.25 168.77 47.25"/><path class="cls-2" d="M158.54,55.15h-5.31l2.65-5,2.65,5Zm2.37,4.42h5.4L159,47.25h-6.19l-7.33,12.32h5.4l1-1.9h8l1,1.9Z"/><path class="cls-2" d="M212.84,42.47a1.8,1.8,0,1,1-1.76,1.79,1.74,1.74,0,0,1,1.76-1.79v-.36A2.16,2.16,0,1,0,215,44.26a2.15,2.15,0,0,0-2.18-2.15v.36Z"/><path class="cls-2" d="M212.38,43.34h.51c.26,0,.54.06.54.37s-.28.41-.6.41h-.45v.32h.43l.66,1.08h.42l-.71-1.1a.65.65,0,0,0,.64-.69c0-.49-.29-.71-.88-.71H212v2.49h.38V43.34Z"/><path class="cls-2" d="M205.09,49.78a3.63,3.63,0,0,1,0,7.26H199V49.78Zm2.34-2.53H194.07V59.57h13.36a6.16,6.16,0,1,0,0-12.33Z"/></svg>