<svg id="Layer_1" data-name="Layer 1" xmlns="http://www.w3.org/2000/svg" viewBox="0 0 267 100"><defs><style>.cls-1{fill:none;}.cls-2{fill:#78797a;fill-rule:evenodd;}</style></defs><title>motorola-8</title><rect class="cls-1" width="267" height="100"/><path class="cls-2" d="M133.49,15A34.63,34.63,0,1,1,98.87,49.66,34.54,34.54,0,0,1,133.49,15Zm-.08,41.88-9.68-32.13L111.19,65.93h2.35s1.58-7.16,4.15-11.43c1.4-2.32,3.56-4.22,6.44-4.16,2,0,3.79,1.15,6,4.22a51.37,51.37,0,0,1,3.36,6.54,51.46,51.46,0,0,1,3.36-6.54c2.19-3.07,4-4.18,6-4.22,2.88-.05,5,1.84,6.44,4.17,2.57,4.27,4.15,11.43,4.15,11.43h2.36L143.25,24.79l-9.69,32.13-.07.06-.08-.06Z"/></svg>