<svg id="Layer_1" data-name="Layer 1" xmlns="http://www.w3.org/2000/svg" viewBox="0 0 267 100"><defs><style>.cls-1{fill:#77797a;}.cls-2,.cls-6{fill:none;}.cls-3{fill:#fff;}.cls-4{fill:#9c9d9d;}.cls-5{fill:#f1efef;}.cls-6{stroke:#fff;stroke-miterlimit:10;stroke-width:2.11px;}</style></defs><title>museodelautomovil-8</title><path class="cls-1" d="M133.67,55l-46.24.67V49.88A44.62,44.62,0,0,1,132,5.27l1.39,0Z"/><rect class="cls-2" width="267" height="100"/><path class="cls-1" d="M143.44,16.47l2.3-3.81,1.5.19,0,.17L147,13a1.2,1.2,0,0,0-.48,0,.32.32,0,0,0-.18.2,4.66,4.66,0,0,0-.14.77l-.31,2.39a6,6,0,0,0-.07.76.39.39,0,0,0,.11.28.82.82,0,0,0,.44.14l.22,0,0,.17-2.33-.3,0-.17.17,0a.84.84,0,0,0,.44,0,.37.37,0,0,0,.19-.23,5.28,5.28,0,0,0,.13-.77l.4-3.1-2.5,4.12-.17,0-1.38-4.63-.37,2.86a5.94,5.94,0,0,0-.07.8.63.63,0,0,0,.17.4.88.88,0,0,0,.5.25l0,.17-1.75-.23,0-.17a.9.9,0,0,0,.53-.1.62.62,0,0,0,.29-.35,5.19,5.19,0,0,0,.15-.82l.28-2.12a4.87,4.87,0,0,0,.06-.76.33.33,0,0,0-.11-.25,1.13,1.13,0,0,0-.47-.13l-.13,0,0-.17,1.49.19Z"/><path class="cls-1" d="M153.07,14.47l1.57.48,0,.16a.9.9,0,0,0-.51,0,.51.51,0,0,0-.27.21,3.22,3.22,0,0,0-.21.57l-.48,1.56a6.37,6.37,0,0,1-.32.88,1.29,1.29,0,0,1-.45.49,1.59,1.59,0,0,1-.77.26,2.56,2.56,0,0,1-1-.12,2.51,2.51,0,0,1-1-.54,1.42,1.42,0,0,1-.45-.74,2,2,0,0,1,.09-1l.15-.48.45-1.46A5,5,0,0,0,150,14a.33.33,0,0,0-.07-.27,1.13,1.13,0,0,0-.44-.2l-.11,0,0-.16,2.15.66,0,.16-.09,0a1.2,1.2,0,0,0-.47-.08.32.32,0,0,0-.21.17,4.61,4.61,0,0,0-.26.73l-.45,1.48a6.09,6.09,0,0,0-.26,1.11,1,1,0,0,0,.23.69,1.52,1.52,0,0,0,.8.51,1.94,1.94,0,0,0,.83.08,1.33,1.33,0,0,0,.65-.24,1.19,1.19,0,0,0,.36-.43,6.14,6.14,0,0,0,.28-.79l.49-1.6a2.42,2.42,0,0,0,.13-.57.45.45,0,0,0-.12-.31,1.1,1.1,0,0,0-.44-.26Z"/><path class="cls-1" d="M154.79,20.32l.71-1.41.16.08q-.42,1.52.61,2a1.06,1.06,0,0,0,.85.1.93.93,0,0,0,.55-.46.84.84,0,0,0,.06-.67,3.1,3.1,0,0,0-.58-.88,6.65,6.65,0,0,1-.6-.8,1.36,1.36,0,0,1-.2-.65,1.32,1.32,0,0,1,.14-.66,1.16,1.16,0,0,1,.72-.62,1.28,1.28,0,0,1,1,.1,1.67,1.67,0,0,1,.48.35,1.5,1.5,0,0,1,.32.63.77.77,0,0,0,.36-.3l.14.07-.58,1.15-.14-.07a1.73,1.73,0,0,0,0-1,1.16,1.16,0,0,0-.58-.65.81.81,0,0,0-.68-.08.78.78,0,0,0-.42.37.76.76,0,0,0,0,.63,3.51,3.51,0,0,0,.58.89,9.62,9.62,0,0,1,.62.82,1.29,1.29,0,0,1,.2.63,1.4,1.4,0,0,1-.16.71,1.35,1.35,0,0,1-.84.73,1.58,1.58,0,0,1-1.18-.15,1.72,1.72,0,0,1-.93-1.16,1.24,1.24,0,0,0-.37.35Z"/><path class="cls-1" d="M163.28,23.87l.14.1-1,1.16-3.26-2.44.1-.13.08.06a.76.76,0,0,0,.44.21.44.44,0,0,0,.26-.12,5.76,5.76,0,0,0,.48-.6L162,20.18a5.37,5.37,0,0,0,.42-.61.35.35,0,0,0,0-.28,1,1,0,0,0-.33-.34l.1-.13L165,20.93,164.36,22l-.14-.1a1.91,1.91,0,0,0,.21-.76.72.72,0,0,0-.16-.46,3.5,3.5,0,0,0-.56-.49l-.54-.41-1.24,1.65.42.31a1.41,1.41,0,0,0,.44.25.32.32,0,0,0,.26,0,1.67,1.67,0,0,0,.33-.36l.14.1-1,1.35-.14-.1a1.42,1.42,0,0,0,.27-.48.33.33,0,0,0-.05-.27,1.67,1.67,0,0,0-.33-.3l-.43-.32-.7.93a2.53,2.53,0,0,0-.53.89q0,.19.39.49l.29.22a1.75,1.75,0,0,0,.57.3,1.14,1.14,0,0,0,.63,0A2.41,2.41,0,0,0,163.28,23.87Z"/><path class="cls-1" d="M165.67,24.69a2.35,2.35,0,0,1,1.89-.61,2.73,2.73,0,0,1,1.76,1A2.79,2.79,0,0,1,170,27a2.36,2.36,0,0,1-.92,1.79,2.45,2.45,0,0,1-1.89.64,3,3,0,0,1-2.51-2.94A2.46,2.46,0,0,1,165.67,24.69Zm.52.65a2.83,2.83,0,0,0-1,1.52,1.71,1.71,0,0,0,.47,1.47,1.6,1.6,0,0,0,1.3.61,2.77,2.77,0,0,0,1.66-.78,2.81,2.81,0,0,0,1-1.5,1.86,1.86,0,0,0-1.77-2.1A2.8,2.8,0,0,0,166.19,25.34Z"/><path class="cls-1" d="M174.18,32.62l.34.73q.43.92.56,1.24a3.61,3.61,0,0,1,.34,1.71,2.16,2.16,0,0,1-.49,1.19,2.8,2.8,0,0,1-1.11.77,2.86,2.86,0,0,1-1,.22,2.07,2.07,0,0,1-.86-.13,1.93,1.93,0,0,1-.67-.44,2.68,2.68,0,0,1-.45-.59,9,9,0,0,1-.39-.87l-.82-2,.15-.06.08.19a.85.85,0,0,0,.24.37.37.37,0,0,0,.29.05,5.24,5.24,0,0,0,.74-.26l2.2-.9a5.09,5.09,0,0,0,.69-.32.33.33,0,0,0,.16-.22,1.16,1.16,0,0,0-.12-.47l-.05-.13Zm.48,1.44-3,1.24q-.68.28-.86.38a.38.38,0,0,0-.21.26,1.24,1.24,0,0,0,.14.56,2.7,2.7,0,0,0,.56.91,1.45,1.45,0,0,0,.9.38,2.77,2.77,0,0,0,1.33-.24,3.57,3.57,0,0,0,1-.57,2,2,0,0,0,.56-.73,1.58,1.58,0,0,0,.13-.78,3.33,3.33,0,0,0-.25-.91Q174.78,34.31,174.66,34.06Z"/><path class="cls-1" d="M174.45,44.43l0,.17-1.52.23-.9-4,.16,0,0,.1a.76.76,0,0,0,.2.44.44.44,0,0,0,.27.08,5.74,5.74,0,0,0,.75-.14l2.35-.53a5.61,5.61,0,0,0,.71-.19.35.35,0,0,0,.21-.19,1,1,0,0,0,0-.47l.16,0,.78,3.43-1.17.38,0-.17a1.9,1.9,0,0,0,.65-.44.72.72,0,0,0,.18-.45,3.51,3.51,0,0,0-.11-.74l-.15-.67-2,.46.12.51a1.41,1.41,0,0,0,.17.48.32.32,0,0,0,.22.14,1.68,1.68,0,0,0,.49-.06l0,.17-1.64.37,0-.17a1.46,1.46,0,0,0,.52-.19.34.34,0,0,0,.13-.24,1.69,1.69,0,0,0-.06-.45l-.12-.53-1.14.26a2.52,2.52,0,0,0-1,.34c-.08.1-.09.3,0,.63l.08.36a1.73,1.73,0,0,0,.24.6,1.15,1.15,0,0,0,.51.38A2.4,2.4,0,0,0,174.45,44.43Z"/><path class="cls-1" d="M175,50.63l-1.45.09-.37-4.16h.17v.14a.85.85,0,0,0,.12.43.37.37,0,0,0,.26.13,5.2,5.2,0,0,0,.79,0L177,47a5,5,0,0,0,.75-.1.33.33,0,0,0,.22-.17,1.12,1.12,0,0,0,0-.49v-.11h.17l.21,2.35h-.17l0-.22a1.19,1.19,0,0,0-.1-.47.32.32,0,0,0-.24-.13,4.66,4.66,0,0,0-.78,0l-2.57.23a4.47,4.47,0,0,0-.66.09.31.31,0,0,0-.19.18,1.3,1.3,0,0,0,0,.56l0,.37a2.08,2.08,0,0,0,.14.66.94.94,0,0,0,.38.39,2.73,2.73,0,0,0,.88.28Z"/><path class="cls-1" d="M94.69,66.72l-1.78-3-.62.09a6,6,0,0,0-1.7.39.74.74,0,0,0-.4.56,1.17,1.17,0,0,0,.18.73l-.27.16-1.4-2.36.27-.16a1.47,1.47,0,0,0,.84.56,5.28,5.28,0,0,0,1.59-.1l.85-.12,6.87-1,.14.23-4.74,6.38L93.9,70a1.28,1.28,0,0,0-.25.59,1.41,1.41,0,0,0,.17.74l-.27.16L91.7,68.35l.27-.16a2.69,2.69,0,0,0,.54.73.38.38,0,0,0,.46,0,4,4,0,0,0,.61-.72Zm.2-.26,2.55-3.41-4.21.6Z"/><path class="cls-1" d="M107.15,73.57l2,2.32-.23.21a1.67,1.67,0,0,0-.81-.5.94.94,0,0,0-.64.07,6.07,6.07,0,0,0-.9.7l-2.3,2a12.12,12.12,0,0,1-1.37,1.08,2.43,2.43,0,0,1-1.19.34,3,3,0,0,1-1.47-.35,4.81,4.81,0,0,1-1.46-1.16,4.71,4.71,0,0,1-1.06-1.84,2.66,2.66,0,0,1,0-1.63,3.7,3.7,0,0,1,1.1-1.45l.71-.62,2.16-1.89a9.46,9.46,0,0,0,1-1,.62.62,0,0,0,.15-.5,2.11,2.11,0,0,0-.51-.76l-.14-.16.23-.21,2.78,3.16-.23.21-.12-.14a2.26,2.26,0,0,0-.67-.6.6.6,0,0,0-.5.06,8.65,8.65,0,0,0-1.14.91l-2.18,1.92a11.31,11.31,0,0,0-1.52,1.52,1.87,1.87,0,0,0-.31,1.32,2.85,2.85,0,0,0,.78,1.6,3.63,3.63,0,0,0,1.25.94,2.5,2.5,0,0,0,1.27.25,2.24,2.24,0,0,0,1-.33,11.72,11.72,0,0,0,1.23-1L106.47,76a4.6,4.6,0,0,0,.76-.79.85.85,0,0,0,.12-.61,2,2,0,0,0-.44-.84Z"/><path class="cls-1" d="M110.21,79.67,110,79.5l1.26-1.83,7.48,4.92-1.18,1.88-.24-.16a3.54,3.54,0,0,0,.37-1.33,1.13,1.13,0,0,0-.22-.74,4.29,4.29,0,0,0-.84-.66l-1.24-.82-3.58,5.44a12.11,12.11,0,0,0-.74,1.21.72.72,0,0,0,0,.57,1.54,1.54,0,0,0,.61.6l.38.25-.17.26-3.84-2.53.17-.26.4.26a1.61,1.61,0,0,0,.77.33.7.7,0,0,0,.5-.23,9.92,9.92,0,0,0,.86-1.19L114.23,80l-1.14-.75a5.33,5.33,0,0,0-1-.59,1.07,1.07,0,0,0-.76.11A3.62,3.62,0,0,0,110.21,79.67Z"/><path class="cls-1" d="M119.64,88.07a4.4,4.4,0,0,1,2.18-3,5.11,5.11,0,0,1,3.77-.44,5.24,5.24,0,0,1,3.21,2.07,4.42,4.42,0,0,1,.6,3.73,4.59,4.59,0,0,1-2.15,3.06,5.61,5.61,0,0,1-7.05-1.67A4.6,4.6,0,0,1,119.64,88.07Zm1.5.4a5.3,5.3,0,0,0,.1,3.46,3.2,3.2,0,0,0,2.33,1.7,3,3,0,0,0,2.65-.52,5.19,5.19,0,0,0,1.65-3,5.27,5.27,0,0,0-.11-3.41,3.48,3.48,0,0,0-5-1.21A5.25,5.25,0,0,0,121.15,88.47Z"/><path class="cls-1" d="M140.53,92.59l1.94-8.11,2.78-.51.06.31-.33.06a2.24,2.24,0,0,0-.86.27.59.59,0,0,0-.2.46,8.67,8.67,0,0,0,.19,1.44l.81,4.45a11.31,11.31,0,0,0,.31,1.39.74.74,0,0,0,.36.44,1.54,1.54,0,0,0,.86,0l.4-.07.06.31-4.34.79-.06-.31.32-.06a1.58,1.58,0,0,0,.77-.29.69.69,0,0,0,.2-.51,9.83,9.83,0,0,0-.2-1.46l-1-5.78-2.12,8.79-.31.06L135,86.8l1,5.31a10.92,10.92,0,0,0,.34,1.47,1.18,1.18,0,0,0,.54.62,1.65,1.65,0,0,0,1,.16l.06.31-3.25.59-.06-.31a1.68,1.68,0,0,0,.89-.49,1.16,1.16,0,0,0,.32-.78,9.88,9.88,0,0,0-.2-1.55L135,88.18a9.3,9.3,0,0,0-.32-1.39.62.62,0,0,0-.35-.39,2.11,2.11,0,0,0-.92,0l-.25,0-.06-.31,2.76-.5Z"/><path class="cls-1" d="M150.13,86.51a4.4,4.4,0,0,1-.7-3.65,5.11,5.11,0,0,1,2.26-3,5.24,5.24,0,0,1,3.71-.92A4.42,4.42,0,0,1,158.52,81a4.58,4.58,0,0,1,.76,3.66,5.61,5.61,0,0,1-6,4A4.61,4.61,0,0,1,150.13,86.51Zm1.33-.82A5.29,5.29,0,0,0,154,88a3.2,3.2,0,0,0,2.84-.54,3,3,0,0,0,1.44-2.29,5.2,5.2,0,0,0-1.08-3.27,5.28,5.28,0,0,0-2.56-2.26,3.48,3.48,0,0,0-4.3,2.82A5.25,5.25,0,0,0,151.45,85.69Z"/><path class="cls-1" d="M167.79,78.23l-.28.32L159.9,76.1l-.7-.24a2.11,2.11,0,0,0-1-.16,1.62,1.62,0,0,0-.8.55l-.24-.21,2.62-3,.24.21a3,3,0,0,0-.58.82.41.41,0,0,0,.14.47,3.36,3.36,0,0,0,.91.37l6.35,2-2.43-5a6,6,0,0,0-.9-1.5q-.59-.52-1.34.3l-.24-.21,1.86-2.12.24.21a1.16,1.16,0,0,0-.27.77,2.37,2.37,0,0,0,.27,1l.68,1.42Z"/><path class="cls-1" d="M165.42,66.33l-.27-.16,2.21-3.59.27.16-.1.17a2.26,2.26,0,0,0-.37.82.6.6,0,0,0,.21.46,8.74,8.74,0,0,0,1.2.82l3.85,2.38a12.25,12.25,0,0,0,1.24.71.72.72,0,0,0,.57,0,1.53,1.53,0,0,0,.58-.64l.14-.23.27.17L173,71l-.27-.16.14-.23a1.59,1.59,0,0,0,.3-.78.69.69,0,0,0-.25-.49,10.55,10.55,0,0,0-1.22-.83l-3.85-2.37a9.92,9.92,0,0,0-1.24-.69.61.61,0,0,0-.52,0,2.14,2.14,0,0,0-.58.71Z"/><path class="cls-1" d="M178.07,55.29l2.45,1.16-3.17,7.17-.29-.13.11-.25a1.59,1.59,0,0,0,.2-.81.69.69,0,0,0-.31-.46,9.71,9.71,0,0,0-1.32-.66l-4.14-1.83a9.3,9.3,0,0,0-1.33-.52.62.62,0,0,0-.51.07,2.13,2.13,0,0,0-.48.78l-.08.19-.29-.13,1.79-4L171,56l-.17.37a2.25,2.25,0,0,0-.26.86.6.6,0,0,0,.27.43,8.72,8.72,0,0,0,1.3.65l4.42,2a8.36,8.36,0,0,0,1.17.46.58.58,0,0,0,.48-.11,2.44,2.44,0,0,0,.55-.89L179,59a3.93,3.93,0,0,0,.37-1.21,1.76,1.76,0,0,0-.28-1,5.09,5.09,0,0,0-1.19-1.27Z"/><path class="cls-3" d="M93.86,49.54l-.22,0q.07-.65-.48-.71l-3.46-.3,4.06,2,0,.21L89.41,52l3.28.36q.65.07.73-.68l.22,0-.18,1.79-.22,0a.66.66,0,0,0-.64-.79l-3.31-.4H89a.22.22,0,0,0-.13.08.6.6,0,0,0-.1.22,2.45,2.45,0,0,0-.07.4l-.22,0,.16-1.53,3.92-1.12L89,48.5,89.14,47l.22,0a1.76,1.76,0,0,0,0,.39.48.48,0,0,0,.08.22.28.28,0,0,0,.14.1l.17,0,3.45.27q.6.06.66-.62l.22,0Z"/><path class="cls-3" d="M95.68,42.5l-.22-.1q.25-.88-.23-1.1l-3.34-1.55q-.62-.29-.89.65l-.22-.1,1.41-5,1.4.56-.05.31a1.49,1.49,0,0,0-.69,0,.88.88,0,0,0-.44.26,1.45,1.45,0,0,0-.28.5q-.11.31-.21.68l-.08.27q-.2.72.13.88l1.32.61q.22.1.29-.13l.09-.32q.07-.24.11-.45a1.15,1.15,0,0,0,0-.41.84.84,0,0,0-.16-.37,1.44,1.44,0,0,0-.39-.34l.1-.35,1.91.89-.1.35a1.57,1.57,0,0,0-.46-.09.47.47,0,0,0-.3.11.78.78,0,0,0-.21.3A4.14,4.14,0,0,0,94,39l0,.11q-.12.44.12.55l1.41.65q.42.2.63-.57l.08-.3a5.53,5.53,0,0,0,.2-1,1.93,1.93,0,0,0-.05-.7,1.61,1.61,0,0,0-.28-.54q-.19-.24-.46-.53l.13-.23,1.39.94Z"/><path class="cls-3" d="M101.55,28.34l-.18-.13q.32-.53.2-.62a.52.52,0,0,0-.32-.06H99.6l.57,1.73.07.1.08.08q.21.16.56-.42l.18.13-1,1.72-.18-.13a1.59,1.59,0,0,0,.06-1.13l-.63-2.09-2.34,0a.7.7,0,0,0-.36.12,1,1,0,0,0-.31.34l-.18-.13L97.24,26l.18.13q-.29.48-.13.6a.34.34,0,0,0,.2,0h1.57l-.51-1.52a.57.57,0,0,0-.16-.19q-.23-.17-.52.31l-.18-.13,1-1.68.18.13a1.15,1.15,0,0,0-.18.84l.63,2.24,2.69-.07q.27,0,.53-.44l.18.13Z"/><path class="cls-3" d="M107,21.37l-.16-.16q.55-.47.19-.84l-2.32-2.43a.67.67,0,0,0-1,0l-.16-.16,1.67-1.43.16.16a.57.57,0,0,0-.07.93l2.32,2.43q.36.38.91-.1l.16.16Z"/><path class="cls-3" d="M117.51,13a1.41,1.41,0,0,1,.13.68,1.37,1.37,0,0,1-.19.6,1.92,1.92,0,0,1-.46.52,3,3,0,0,1-.67.4,3.36,3.36,0,0,1-1.12.29,3.26,3.26,0,0,1-1.08-.1,3,3,0,0,1-1.71-1.19,2.45,2.45,0,0,1-.43-1,2,2,0,0,1,0-.93,2,2,0,0,1,.46-.8,2.47,2.47,0,0,1,.83-.58,2.79,2.79,0,0,1,1.34-.22.93.93,0,0,1,.38-.51.71.71,0,0,1,.17.11,3.49,3.49,0,0,1,.31.27q.18.17.38.41a5.94,5.94,0,0,1,.4.51l-.27.12a2.53,2.53,0,0,0-1.26-.62,2.2,2.2,0,0,0-1.25.16,1.51,1.51,0,0,0-.63.47,1.19,1.19,0,0,0-.23.61,1.57,1.57,0,0,0,.1.67,2.79,2.79,0,0,0,.35.66,4.77,4.77,0,0,0,.67.77,2.9,2.9,0,0,0,.77.51,2.17,2.17,0,0,0,.85.19,2.15,2.15,0,0,0,.92-.2,2.49,2.49,0,0,0,.5-.29,1.14,1.14,0,0,0,.32-.36,1.21,1.21,0,0,0,.14-.49,2.82,2.82,0,0,0,0-.66Z"/><path class="cls-3" d="M127.84,11.33a4.24,4.24,0,0,1-1.26.07,3.82,3.82,0,0,1-1.13-.28,3.09,3.09,0,0,1-.9-.58,2.26,2.26,0,0,1-.57-.81A1.79,1.79,0,0,1,124.15,8a2.48,2.48,0,0,1,.74-.7A3.35,3.35,0,0,1,126,6.9a4.6,4.6,0,0,1,1.29-.09,3.9,3.9,0,0,1,1.15.26,3,3,0,0,1,.91.56,2.23,2.23,0,0,1,.58.82,1.72,1.72,0,0,1,.12.86,1.93,1.93,0,0,1-.32.85,2.52,2.52,0,0,1-.75.71A3.41,3.41,0,0,1,127.84,11.33Zm0-.27a2,2,0,0,0,.81-.33,1.28,1.28,0,0,0,.43-.54,1.47,1.47,0,0,0,.1-.69,2.7,2.7,0,0,0-.2-.79,3.07,3.07,0,0,0-.42-.72,2.44,2.44,0,0,0-.62-.57,2.33,2.33,0,0,0-.82-.32,2.63,2.63,0,0,0-1,0,1.9,1.9,0,0,0-.81.34,1.23,1.23,0,0,0-.41.55,1.46,1.46,0,0,0-.06.69,3.07,3.07,0,0,0,.21.76,3.19,3.19,0,0,0,.44.77,2.36,2.36,0,0,0,.62.56,2.22,2.22,0,0,0,.8.3A2.6,2.6,0,0,0,127.81,11.07Z"/><circle class="cls-4" cx="107.73" cy="46.39" r="9.72"/><circle class="cls-4" cx="160.91" cy="45.26" r="9.72"/><circle class="cls-4" cx="134.52" cy="51.19" r="26.39"/><circle class="cls-5" cx="160.91" cy="45.26" r="7.89"/><circle class="cls-5" cx="107.73" cy="46.39" r="7.89"/><path class="cls-6" d="M134.24,27.83c10.68-.39,12.54,8.28,12.54,11.07s-1.24,35.68-12.23,35.68S122.4,40.72,122.4,38.49,123.56,28.21,134.24,27.83Z"/><line class="cls-6" x1="134.24" y1="27.83" x2="134.55" y2="74.57"/><path class="cls-6" d="M125.72,30.86a14.87,14.87,0,0,0,17.67,0"/><path class="cls-6" d="M122.77,35.88S136,42.3,146,34.93"/><path class="cls-6" d="M122.4,39.83s13.26,7.34,24.38-.94"/><path class="cls-6" d="M123,44.33s11.7,7.66,23.29-.23"/><path class="cls-6" d="M123,47.42c.08.88,11.82,10.59,23.29,0"/><path class="cls-6" d="M123.65,53.15s11.29,7.72,22-.7"/><path class="cls-6" d="M124.35,57.32s10.05,7.44,20.53,0"/><path class="cls-6" d="M125.76,62.37a14.87,14.87,0,0,0,17.67,0"/><path class="cls-6" d="M127.1,67.56s5.88,5,14.82,0"/></svg>