<svg id="Layer_1" data-name="Layer 1" xmlns="http://www.w3.org/2000/svg" viewBox="0 0 267 100"><defs><style>.cls-1{fill:none;}.cls-2{fill:#888b8d;fill-rule:evenodd;}</style></defs><title>nestle-8-2</title><rect class="cls-1" width="267" height="100"/><path class="cls-2" d="M93.2,58.89a5.66,5.66,0,0,0,2-.3A4.41,4.41,0,0,0,96.35,58a4.07,4.07,0,0,1,.7-.57,2.16,2.16,0,0,1,1-.16,3.63,3.63,0,0,1,1.63.43l.07-.85a6.42,6.42,0,0,0-2.31-.53,2.34,2.34,0,0,0-1.85.64,3.27,3.27,0,0,1-2.58.9c-.41,0-1.41-.11-1.81-.11a1.58,1.58,0,0,0-.43.06c.07.23.23.87.23.87a10.82,10.82,0,0,0,2.22.25Z"/><path class="cls-2" d="M85.81,46.35a.62.62,0,1,0-.61-.62.61.61,0,0,0,.61.62Z"/><path class="cls-2" d="M88.43,56.37c.31,0,1.22.14,2.28.24.6.06,1.24.11,1.85.11a8.53,8.53,0,0,0,3.63-1.16L96,54.75a8.67,8.67,0,0,1-2.41.75,6.65,6.65,0,0,1-1,0c-.29-.05-.63-.15-1-.22a9.3,9.3,0,0,0-1.43-.13c-.37,0-1,0-1.36.06A5.1,5.1,0,0,0,86,56.1a5.18,5.18,0,0,0-1.26,1.2,5.52,5.52,0,0,1,.75.17,4.94,4.94,0,0,1,2.91-1.1Z"/><path class="cls-2" d="M74,56.77a1.86,1.86,0,0,1,1.14.38,3.91,3.91,0,0,1,.57.45.49.49,0,0,1,0,.84,4.44,4.44,0,0,1-.64.49,5.18,5.18,0,0,1-.69.4,1.67,1.67,0,0,1-.66.17.67.67,0,0,1-.48-.15l-.93.58a1.68,1.68,0,0,0,1.13.29,4.42,4.42,0,0,0,1.69-.36A13.79,13.79,0,0,0,77,58.78a3.65,3.65,0,0,1,1.82-.56,5.12,5.12,0,0,1,1.92.68,6.94,6.94,0,0,0,2.81.8,10,10,0,0,0,1.86-.22,31.28,31.28,0,0,0,3.68-1.06l-.4-.72c-.3.11-1.34.4-2.45.65a14.47,14.47,0,0,1-2.34.38,4.83,4.83,0,0,1-1.29-.15c-.7-.22-1.34-.44-1.34-1a.86.86,0,0,1,.64-.87,7.92,7.92,0,0,1,2.61-.29c.12-.13.6-.7.6-.7a7.62,7.62,0,0,0-1.54-.16,5.44,5.44,0,0,0-2.13.36,3,3,0,0,0-1.33,1c-.13.18-.26.36-.46.36s-.88-.26-1.46-.26c-.25,0-.47.05-.69.05a5.29,5.29,0,0,1-2-.79,3,3,0,0,0-1.39-.45,2.08,2.08,0,0,0-.77.16,5.55,5.55,0,0,0-1.26.76l.45.32A3.14,3.14,0,0,1,74,56.77Z"/><path class="cls-2" d="M115.32,63.34a62.7,62.7,0,0,1-5.84-5.55,48,48,0,0,1-7.34-11.43c-.44-1.13-1.36-.75-.89.41a47.58,47.58,0,0,0,6.51,10.3l-1.86-.86a8.33,8.33,0,0,1-.88,1.1c-.43.45-.87.81-1,.94-.3.28-.52.3-.73,0a2.47,2.47,0,0,1-.39-.87l-.58-.74c-.31-.4-1.78-2.4-2.23-3.07a2.44,2.44,0,0,0-2-1.39c-1.17,0-1.57,1.28-1.66,2.46l.77-.33c.18-.73.54-1.11.89-1.11a.72.72,0,0,1,.55.62,11.28,11.28,0,0,0-.42,1.47l.76.26a3.35,3.35,0,0,1,.37-1.39,1.53,1.53,0,0,1,.29.33c0,.09.43.66.86,1.43s.82,1.52,1.22,2.19c.19.33.41.62.56.84a1.73,1.73,0,0,0,.56.62,1,1,0,0,0,.51.1,1.4,1.4,0,0,0,1.06-.45,16.51,16.51,0,0,0,1.72-2l1.31.6c.49.23,1,.48,1.54.69a44.4,44.4,0,0,0,3.69,3.7l.89.79.73.62,1-.31Z"/><path class="cls-2" d="M120.25,63a112.51,112.51,0,0,0-7.75-14.69l-.6-.83a27.29,27.29,0,0,0-2.66-3l-.69-.69c-1.76-1.7-3.73-3.4-5.23-4.61C102,38.06,101.05,35.6,98,35.6a3.86,3.86,0,0,0-4,2.95,3.68,3.68,0,0,1-.48,1.23l-1.73,2.07,2.05-.17-1,1.73c.59-.13,4.19-.85,4.93.31.89,1.41.28,2.93,2,6.13l.73,1.26a32.19,32.19,0,0,0,2.7,3.7l-.84,1.82.58.74,1.31-2.76a29.14,29.14,0,0,1-3.49-4.77c-1.87-3.4-1.14-5.14-2.28-6.7s-4.09-.76-4.09-.76l1.12-1.57-1.94.24L94.41,40a2.16,2.16,0,0,0,.32-.72A3.36,3.36,0,0,1,98,36.51c2.29,0,3,1.76,4.55,3.16a80.53,80.53,0,0,1,8.1,7.7c2.51,2.86,5.71,9.49,8.17,14.72-2.69-1.31-7.25-5.82-9.16-9.2l-.9-.1a30.15,30.15,0,0,0,10.8,10.88l.69-.71Z"/><path class="cls-2" d="M114,46.7a11.19,11.19,0,0,1,2.46-1.27,5.15,5.15,0,0,0,2.88,1.39l-.16,1.09A13,13,0,0,0,114,46.7l-.9.78A16.35,16.35,0,0,1,119.84,49l.44-2.88c-.89-.12-2.3-.37-2.79-1.07a19.73,19.73,0,0,1,5.47-.84V40.69a10.08,10.08,0,0,1-1.95.85c-.82.25-1.56.36-1.77,0s.91-1.11,2.07-1.73l-2.62-2.17a31.49,31.49,0,0,1-2.22,3c-.65.7-1.32,1.16-1.71.88-.2-.16-.21-.59,0-1.15a12.08,12.08,0,0,1,1.67-3.19l-3.63-.34a8.65,8.65,0,0,1-1.55,4.43,8.11,8.11,0,0,1-2.66,2.46l.69.69a10.08,10.08,0,0,0,4.36-6.66l1.25.14a9.5,9.5,0,0,0-1.15,3.41c0,.67.16.78.5,1,.63.48,1.4.16,2.15-.48a21,21,0,0,0,2.44-2.93l1.06.88c-1.34.83-1.72,1.72-1.31,2.3a1.19,1.19,0,0,0,.93.42,6.36,6.36,0,0,0,1.47-.25c.39-.09.81-.23,1.2-.35v1.42c-3.06.21-8.26,1.45-10.24,4.08l.6.83a4.52,4.52,0,0,1,.61-.79l.9-.78Z"/><path class="cls-2" d="M74.12,39.77l.41.31a12.5,12.5,0,0,0,3-4l-.36-.26a25.51,25.51,0,0,0-3.08,3.91Z"/><path class="cls-2" d="M73.49,38.82A2.42,2.42,0,0,1,76,35.54a1.66,1.66,0,0,1,2.56-.79,1.7,1.7,0,0,1,.08,2.67,2.63,2.63,0,0,1-2.62,3A2,2,0,0,1,72.8,42a1.86,1.86,0,0,1,.69-3.22Zm-.75-.33a1.41,1.41,0,0,0-1.1,1,2.19,2.19,0,0,0-2.26-2.6,2.91,2.91,0,0,0-4.45-2.73,2.39,2.39,0,0,0-3.56.14,2.22,2.22,0,0,0,.87,3.49,2.51,2.51,0,0,0,3,3,1.43,1.43,0,0,0,1,1,1.37,1.37,0,0,0-1.08.8,2.75,2.75,0,0,0-3.72,2.69,2.38,2.38,0,0,0-.91,4.05,2.3,2.3,0,0,0,3.81-.58,2.34,2.34,0,0,0,3.28-2.1c1.75.16,2.42-1.21,2.26-2.66l-.56,0A2,2,0,0,1,67,45.89a2.48,2.48,0,0,1-3,2.12,1.58,1.58,0,0,1-2.61.51,1.63,1.63,0,0,1,1-2.79c-.06-1.59,1.49-2.57,3.69-2.47a2.13,2.13,0,0,1,2.08-1v-.46A2.33,2.33,0,0,1,66.12,40C64.24,40.1,63,39,63,37.33a1.48,1.48,0,0,1-.6-2.28A1.56,1.56,0,0,1,64.79,35a2.83,2.83,0,0,1,3.88,2.73,2.38,2.38,0,0,1,1.57.57,3.83,3.83,0,0,1,.92,2.21,4,4,0,0,0,1.4,2.34c1.55,1.21,4,.89,4.2-1.66a2.48,2.48,0,0,0,2.73-3.42,2.41,2.41,0,0,0-.2-4,2.54,2.54,0,0,0-3.7,1.06,2.55,2.55,0,0,0-2.85,3.68Z"/><path class="cls-2" d="M82.28,50.84c.19-.75-.79-.86-.93-.17a6.7,6.7,0,0,1-1.88,2.76l.3.33a6.84,6.84,0,0,0,2.51-2.92Z"/><path class="cls-2" d="M87.2,38.56a.63.63,0,1,0-.62-.63.63.63,0,0,0,.62.63Z"/><path class="cls-2" d="M96.37,39.13a.74.74,0,1,1,.74.74.74.74,0,0,1-.74-.74Z"/><path class="cls-2" d="M95.2,52.41a78.66,78.66,0,0,0-9.59-.07l.34-.88a75.85,75.85,0,0,1,9.32,0l-.07.95Z"/><path class="cls-2" d="M66.16,55.75a9,9,0,0,0,.7.82,3.56,3.56,0,0,0,.5.54,7.1,7.1,0,0,0,3.51,1.76A5.9,5.9,0,0,0,72,59a2.26,2.26,0,0,0,1.43-.61l-.53-.61a3.45,3.45,0,0,1-.75,0c-1.94,0-4.4-1.27-5-2.74-.06-.14-.13-.22-.07-.36a3.17,3.17,0,0,0,.17-.68,3.31,3.31,0,0,0,.64.52c.73.46,2.1,1.1,2.37,1.27a8.2,8.2,0,0,0,1.62-.65,3.65,3.65,0,0,1,1.59-.39,11.5,11.5,0,0,1,4.58,1.56l1-.41c-1.35-1-4.31-2.29-5.95-2.29-1,0-1.88.71-2.52.71-.8,0-3.08-1.12-3.08-2,0-.72,1.48-1.12,3.85-1.42-.41.61-.8,1.24-1.16,1.89l.6.33a40.51,40.51,0,0,1,10.83-11A4.24,4.24,0,0,0,83.53,40c1-2.06,2-3.64,3.61-3.64a2.37,2.37,0,0,1,1.84,1l1.19.36L89,38.54,90.2,39a7.73,7.73,0,0,0-4.72,4.34c-1.72.09-2.55,1.48-3.11,2.65-.38.79-1,1.11-1.86,1.7l-7,4.92,1,.13,6.5-4.36a6.12,6.12,0,0,0,2.2-2.12c.6-1.21,1.25-2.1,2.53-2.1A2.69,2.69,0,0,1,87.5,45l1.14.37-1.24.77,1,.64c-3,.94-4.83,3.08-5.9,7.17l.79.18a13.84,13.84,0,0,1,1.48-3.7c1.73,0,3.48-.08,5.2-.08,4.58,0,8.38.19,10.44.8l-.73-1.26A61,61,0,0,0,90,49.28c-1.45,0-2.92,0-4.39.07A9.82,9.82,0,0,1,90,46.86L88.53,46l1.65-.91-2.25-.84a3.49,3.49,0,0,0-1.49-.83c.72-2.21,3.17-3.51,5.51-4.4l-1.64-.67L92,37.48l-2.56-.81a2.72,2.72,0,0,0-2.29-1.15c-2.37,0-3.36,2.06-4.3,3.89a4.09,4.09,0,0,1-1.65,1.91,37.35,37.35,0,0,0-6.36,5.36,18.19,18.19,0,0,1-4.16-4.62,5.06,5.06,0,0,0-.51,1c.25.26,3,3.08,4.07,4.27l-.24.26A24.16,24.16,0,0,1,69,48l-.55,1c.73-.07,3.58-.41,4.76-.48q-.54.66-1,1.35c-3.67.42-6.12,1.17-6.12,2.53,0,.22.09.47.09.71a1,1,0,0,1-.61,1c-.26.17-.28.28-.17.44.61,1-1.28,1.47,0,3.22l1.11.07a1.45,1.45,0,0,1-.37-2Z"/><path class="cls-2" d="M64.71,36.25l-.36.37a22.52,22.52,0,0,0,4,3.58l.44-.53a19.86,19.86,0,0,0-4.08-3.42Z"/><path class="cls-2" d="M63.12,46.68l.34.37a15.56,15.56,0,0,0,3.43-2.57l-.24-.36a12.47,12.47,0,0,0-3.53,2.56Z"/><path class="cls-2" d="M188.77,39.78a1.16,1.16,0,0,0-1.16-1.16h-1.72a1.16,1.16,0,0,0-1.17,1.16v18A1.17,1.17,0,0,0,185.89,59h1.72a1.17,1.17,0,0,0,1.16-1.17v-18Z"/><path class="cls-2" d="M191,40.26v.86a.64.64,0,0,0,.64.64H203.5a1,1,0,0,0,1-1V39.33a1,1,0,0,0-1-1S192,39.47,191.64,39.52a.73.73,0,0,0-.67.74Z"/><path class="cls-2" d="M181.34,59a4.67,4.67,0,0,1-4.81-4.74V47h-.84a.82.82,0,0,1-.82-.81V45a.82.82,0,0,1,.82-.81h.84V39.75a1.14,1.14,0,0,1,1.14-1.13h1.68a1.14,1.14,0,0,1,1.13,1.14v4.43h2.62a.82.82,0,0,1,.82.81v1.21a.82.82,0,0,1-.82.81h-2.62v6.67a2,2,0,0,0,2.22,2.2h.23a.88.88,0,0,1,.89.88v1.31a.88.88,0,0,1-.88.89Z"/><path class="cls-2" d="M153.66,43.67c-4.78,0-7.46,3.74-7.46,7.68,0,4.2,2.87,7.9,7.49,7.9,3.16,0,6.28-1.67,6.87-4.4a.71.71,0,0,0-.69-.86h-2.26a1.14,1.14,0,0,0-1,.49,3.33,3.33,0,0,1-3,1.46,3.46,3.46,0,0,1-3.46-3.29h9.61a1.14,1.14,0,0,0,1.28-1.3c0-3.84-2.27-7.68-7.44-7.68Zm0,3.08a3.38,3.38,0,0,1,3.44,3h-6.86a3.35,3.35,0,0,1,3.42-3Z"/><path class="cls-2" d="M197.44,43.67c-4.78,0-7.46,3.74-7.46,7.68,0,4.2,2.88,7.9,7.5,7.9,3.16,0,6.28-1.67,6.86-4.4a.7.7,0,0,0-.68-.86H201.4a1.14,1.14,0,0,0-1,.49,3.35,3.35,0,0,1-3,1.46A3.45,3.45,0,0,1,194,52.65h9.61a1.15,1.15,0,0,0,1.28-1.3c0-3.84-2.28-7.68-7.45-7.68Zm0,3.08a3.38,3.38,0,0,1,3.45,3H194a3.34,3.34,0,0,1,3.41-3Z"/><path class="cls-2" d="M173.29,38.82H142.16a1.27,1.27,0,0,0-1.27,1.28l.1,12.23s-6.7-12.12-7.05-12.74a2.29,2.29,0,0,0-2-1.11h-2.56a1.28,1.28,0,0,0-1.28,1.28V57.69A1.29,1.29,0,0,0,129.36,59H131a1.29,1.29,0,0,0,1.28-1.29l-.11-12.57s6.77,12.24,7.06,12.72a2.27,2.27,0,0,0,2,1.14h2.36a1.29,1.29,0,0,0,1.28-1.28V41.86h28.41a.87.87,0,0,0,.88-.88V39.69a.87.87,0,0,0-.88-.87Z"/><path class="cls-2" d="M168.25,46.6A2.75,2.75,0,0,1,171,47.94c.18.41.52.49,1,.49h1.86a.69.69,0,0,0,.66-.67c0-2.16-2.58-4.09-6.24-4.09S162,45.47,162,48.33c0,2.2,1.73,3.5,3.87,4.06,1,.26,2.63.67,3.43.88s1.65.49,1.65,1.24c0,1.18-1.24,1.58-2.59,1.58a3.14,3.14,0,0,1-2.93-1.49c-.21-.53-.59-.61-1.15-.61h-1.89a.72.72,0,0,0-.71.71V55c0,2.09,2.81,4.29,6.68,4.29,2.75,0,6.58-1.15,6.58-4.83,0-2.14-1.43-3.61-3.75-4.2l-3.57-.91c-.85-.22-1.64-.5-1.64-1.23,0-1.09,1-1.47,2.28-1.47Z"/><path class="cls-2" d="M188.77,39.78a1.16,1.16,0,0,0-1.16-1.16h-1.72a1.16,1.16,0,0,0-1.17,1.16v18A1.17,1.17,0,0,0,185.89,59h1.72a1.17,1.17,0,0,0,1.16-1.17v-18Z"/><path class="cls-2" d="M191,40.26v.86a.64.64,0,0,0,.64.64H203.5a1,1,0,0,0,1-1V39.33a1,1,0,0,0-1-1S192,39.47,191.64,39.52a.73.73,0,0,0-.67.74Z"/><path class="cls-2" d="M181.34,59a4.67,4.67,0,0,1-4.81-4.74V47h-.84a.82.82,0,0,1-.82-.81V45a.82.82,0,0,1,.82-.81h.84V39.75a1.14,1.14,0,0,1,1.14-1.13h1.68a1.14,1.14,0,0,1,1.13,1.14v4.43h2.62a.82.82,0,0,1,.82.81v1.21a.82.82,0,0,1-.82.81h-2.62v6.67a2,2,0,0,0,2.22,2.2h.23a.88.88,0,0,1,.89.88v1.31a.88.88,0,0,1-.88.89Z"/><path class="cls-2" d="M161.1,51.35c0-3.84-2.27-7.68-7.44-7.68-4.78,0-7.46,3.74-7.46,7.68,0,4.2,2.87,7.9,7.49,7.9,3.16,0,6.28-1.67,6.87-4.4a.71.71,0,0,0-.69-.86h-2.26a1.14,1.14,0,0,0-1,.49,3.33,3.33,0,0,1-3,1.46,3.46,3.46,0,0,1-3.46-3.29h9.61a1.14,1.14,0,0,0,1.28-1.3Zm-10.86-1.64a3.35,3.35,0,0,1,3.42-3,3.38,3.38,0,0,1,3.44,3Z"/><path class="cls-2" d="M204.89,51.35c0-3.84-2.28-7.68-7.45-7.68-4.78,0-7.46,3.74-7.46,7.68,0,4.2,2.88,7.9,7.5,7.9,3.16,0,6.28-1.67,6.86-4.4a.7.7,0,0,0-.68-.86H201.4a1.14,1.14,0,0,0-1,.49,3.35,3.35,0,0,1-3,1.46A3.45,3.45,0,0,1,194,52.65h9.61a1.15,1.15,0,0,0,1.28-1.3ZM194,49.71a3.34,3.34,0,0,1,3.41-3,3.38,3.38,0,0,1,3.45,3Z"/><path class="cls-2" d="M173.29,38.82H142.16a1.27,1.27,0,0,0-1.27,1.28l.1,12.23s-6.7-12.12-7.05-12.74a2.29,2.29,0,0,0-2-1.11h-2.56a1.28,1.28,0,0,0-1.28,1.28V57.69A1.29,1.29,0,0,0,129.36,59H131a1.29,1.29,0,0,0,1.28-1.29l-.11-12.57s6.77,12.24,7.06,12.72a2.27,2.27,0,0,0,2,1.14h2.36a1.29,1.29,0,0,0,1.28-1.28V41.86h28.41a.87.87,0,0,0,.88-.88V39.69a.87.87,0,0,0-.88-.87Z"/><path class="cls-2" d="M168.25,46.6A2.75,2.75,0,0,1,171,47.94c.18.41.52.49,1,.49h1.86a.69.69,0,0,0,.66-.67c0-2.16-2.58-4.09-6.24-4.09S162,45.47,162,48.33c0,2.2,1.73,3.5,3.87,4.06,1,.26,2.63.67,3.43.88s1.65.49,1.65,1.24c0,1.18-1.24,1.58-2.59,1.58a3.14,3.14,0,0,1-2.93-1.49c-.21-.53-.59-.61-1.15-.61h-1.89a.72.72,0,0,0-.71.71V55c0,2.09,2.81,4.29,6.68,4.29,2.75,0,6.58-1.15,6.58-4.83,0-2.14-1.43-3.61-3.75-4.2l-3.57-.91c-.85-.22-1.64-.5-1.64-1.23,0-1.09,1-1.47,2.28-1.47Z"/><path class="cls-2" d="M206.22,58.21h-.42v-2h.74c.51,0,.81.14.81.59a.46.46,0,0,1-.48.52l.51.86h-.5l-.46-.83h-.2v.83Zm.38-1.16c.19,0,.3,0,.3-.26s-.22-.22-.38-.22h-.3v.48Zm-.07,2a1.84,1.84,0,1,1,1.84-1.83,1.77,1.77,0,0,1-1.84,1.83Zm0-3.24a1.41,1.41,0,0,0,0,2.81h0a1.41,1.41,0,0,0,0-2.82Z"/></svg>