<svg id="Layer_1" data-name="Layer 1" xmlns="http://www.w3.org/2000/svg" viewBox="0 0 267 100"><defs><style>.cls-1{fill:none;}.cls-2,.cls-3{fill:#78797a;}.cls-2{fill-rule:evenodd;}.cls-3{font-size:11.2px;font-family:.SFNSText-Regular, System Font;}.cls-4{letter-spacing:-0.02em;}.cls-5{letter-spacing:0em;}</style></defs><title>nestle-8</title><rect class="cls-1" width="267" height="100"/><path class="cls-2" d="M53.2,51.42a3,3,0,0,0,1.08-.16,2.14,2.14,0,0,0,.61-.34,2.23,2.23,0,0,1,.38-.31,1.19,1.19,0,0,1,.52-.08,1.94,1.94,0,0,1,.88.23l0-.46A3.43,3.43,0,0,0,55.47,50a1.26,1.26,0,0,0-1,.34,1.76,1.76,0,0,1-1.39.49c-.22,0-.76-.06-1-.06a.83.83,0,0,0-.23,0c0,.12.13.47.13.47a6,6,0,0,0,1.19.13Z"/><path class="cls-2" d="M49.23,44.67a.33.33,0,1,0-.33-.33.33.33,0,0,0,.33.33Z"/><path class="cls-2" d="M50.63,50.07c.17,0,.66.08,1.23.13.32,0,.67.05,1,.05a4.61,4.61,0,0,0,2-.62l-.12-.44a4.66,4.66,0,0,1-1.3.41,2.9,2.9,0,0,1-.53,0l-.54-.12a5.57,5.57,0,0,0-.77-.07c-.2,0-.56,0-.73,0a2.75,2.75,0,0,0-1.48.47,2.88,2.88,0,0,0-.67.64,3.57,3.57,0,0,1,.4.09,2.66,2.66,0,0,1,1.56-.59Z"/><path class="cls-2" d="M42.84,50.28a1,1,0,0,1,.61.21,2.09,2.09,0,0,1,.31.24.26.26,0,0,1,0,.45,3,3,0,0,1-.72.48.87.87,0,0,1-.36.09.37.37,0,0,1-.25-.08l-.5.31a.91.91,0,0,0,.61.16,2.34,2.34,0,0,0,.91-.2,7.63,7.63,0,0,0,1-.58,2,2,0,0,1,1-.3,2.72,2.72,0,0,1,1,.36,3.72,3.72,0,0,0,1.51.43,5.13,5.13,0,0,0,1-.12,17,17,0,0,0,2-.57l-.22-.39c-.16.06-.72.22-1.32.35a7.69,7.69,0,0,1-1.26.21,2.4,2.4,0,0,1-.69-.08c-.38-.11-.72-.24-.72-.54a.46.46,0,0,1,.35-.47,4.24,4.24,0,0,1,1.4-.16l.32-.38a4.28,4.28,0,0,0-.83-.08,3,3,0,0,0-1.15.19,1.59,1.59,0,0,0-.71.56c-.07.1-.14.19-.25.19s-.47-.14-.79-.14c-.14,0-.25,0-.37,0a2.83,2.83,0,0,1-1.1-.43,1.58,1.58,0,0,0-.75-.24,1.13,1.13,0,0,0-.41.09,3,3,0,0,0-.68.41l.25.17a1.67,1.67,0,0,1,.78-.18Z"/><path class="cls-2" d="M65.1,53.82a34,34,0,0,1-3.14-3A25.73,25.73,0,0,1,58,44.68c-.24-.61-.74-.4-.48.22A25.55,25.55,0,0,0,61,50.44L60,50a4.2,4.2,0,0,1-.47.59c-.23.24-.47.44-.54.5s-.28.16-.39,0a1.32,1.32,0,0,1-.21-.47l-.31-.4c-.17-.21-1-1.29-1.2-1.65a1.33,1.33,0,0,0-1.06-.75c-.63,0-.84.69-.89,1.33l.42-.18c.1-.39.29-.6.48-.6a.38.38,0,0,1,.3.34,6.55,6.55,0,0,0-.22.79l.41.14a1.77,1.77,0,0,1,.2-.75.82.82,0,0,1,.16.18c0,.05.23.36.46.77s.44.82.66,1.18c.1.17.22.33.3.45a1,1,0,0,0,.3.33.55.55,0,0,0,.28.05.76.76,0,0,0,.57-.24,8.85,8.85,0,0,0,.93-1.05l.71.32.83.37a24.55,24.55,0,0,0,2,2l.48.42.4.34.53-.17Z"/><path class="cls-2" d="M67.76,53.61a60.27,60.27,0,0,0-4.17-7.91l-.32-.45a15.55,15.55,0,0,0-1.43-1.62l-.38-.37c-.95-.92-2-1.83-2.81-2.48s-1.22-1.9-2.85-1.9a2.07,2.07,0,0,0-2.14,1.59,2,2,0,0,1-.26.66l-.94,1.11,1.1-.09-.56.93c.32-.07,2.26-.46,2.65.17s.15,1.58,1.06,3.3l.39.68a17.64,17.64,0,0,0,1.45,2l-.45,1,.31.4.7-1.48a15.48,15.48,0,0,1-1.88-2.57c-1-1.83-.61-2.77-1.23-3.6s-2.2-.41-2.2-.41l.6-.84-1,.13.48-.58a1.11,1.11,0,0,0,.17-.39,1.81,1.81,0,0,1,1.76-1.48c1.24,0,1.59.95,2.45,1.7a42.61,42.61,0,0,1,4.36,4.14c1.35,1.54,3.07,5.1,4.4,7.92a15.18,15.18,0,0,1-4.93-5l-.48-.06A16.25,16.25,0,0,0,67.39,54l.37-.38Z"/><path class="cls-2" d="M64.4,44.86a5.83,5.83,0,0,1,1.33-.69,2.74,2.74,0,0,0,1.55.75l-.09.59a7,7,0,0,0-2.79-.65l-.49.42a8.79,8.79,0,0,1,3.62.84l.24-1.55c-.48-.07-1.24-.2-1.5-.58a10.54,10.54,0,0,1,2.94-.46V41.63a5.23,5.23,0,0,1-1,.45c-.44.13-.84.19-1,0s.49-.59,1.11-.93L66.92,40a16.21,16.21,0,0,1-1.19,1.62c-.35.38-.71.63-.92.47s-.11-.32,0-.62a6.44,6.44,0,0,1,.9-1.72l-1.95-.18a4.67,4.67,0,0,1-.83,2.38,4.4,4.4,0,0,1-1.43,1.33l.38.37a5.41,5.41,0,0,0,2.34-3.59l.67.08A5.13,5.13,0,0,0,64.23,42c0,.36.09.42.27.55.34.25.76.08,1.16-.26A11.2,11.2,0,0,0,67,40.68l.57.48c-.72.45-.93.92-.71,1.24a.63.63,0,0,0,.5.22,3.37,3.37,0,0,0,.79-.13c.21-.05.43-.12.64-.19v.76c-1.64.12-4.44.78-5.51,2.2l.32.45a2.55,2.55,0,0,1,.33-.43l.49-.42Z"/><path class="cls-2" d="M42.93,41.13l.22.17a6.73,6.73,0,0,0,1.63-2.13l-.2-.14a14,14,0,0,0-1.66,2.11Z"/><path class="cls-2" d="M42.6,40.62A1.3,1.3,0,0,1,44,38.85a.89.89,0,0,1,1.38-.43.92.92,0,0,1,0,1.44A1.41,1.41,0,0,1,44,41.48a1.06,1.06,0,0,1-1.76.87,1,1,0,0,1,.37-1.73Zm-.4-.17a.76.76,0,0,0-.59.54,1.18,1.18,0,0,0-1.22-1.4A1.57,1.57,0,0,0,38,38.12a1.28,1.28,0,0,0-1.91.08,1.19,1.19,0,0,0,.46,1.88,1.35,1.35,0,0,0,1.6,1.61.77.77,0,0,0,.54.55.72.72,0,0,0-.58.43,1.48,1.48,0,0,0-2,1.45,1.28,1.28,0,0,0-.49,2.18,1.24,1.24,0,0,0,2-.31,1.26,1.26,0,0,0,1.77-1.13c.94.09,1.3-.65,1.21-1.43l-.3,0a1.09,1.09,0,0,1-1.26,1,1.34,1.34,0,0,1-1.62,1.14.85.85,0,0,1-1.4.27.88.88,0,0,1,.52-1.5c0-.85.8-1.38,2-1.33a1.13,1.13,0,0,1,1.12-.55v-.24a1.27,1.27,0,0,1-1-1A1.38,1.38,0,0,1,37,39.82a.8.8,0,0,1-.32-1.22.84.84,0,0,1,1.28,0A1.52,1.52,0,0,1,40,40a1.28,1.28,0,0,1,.84.31,2,2,0,0,1,.5,1.19,2.19,2.19,0,0,0,.75,1.26,1.32,1.32,0,0,0,2.26-.9A1.34,1.34,0,0,0,45.83,40a1.3,1.3,0,0,0-.11-2.14,1.36,1.36,0,0,0-2,.57,1.37,1.37,0,0,0-1.53,2Z"/><path class="cls-2" d="M47.33,47.09c.1-.4-.43-.46-.5-.09a3.66,3.66,0,0,1-1,1.49l.16.18a3.65,3.65,0,0,0,1.35-1.57Z"/><path class="cls-2" d="M50,40.48a.34.34,0,1,0-.33-.34.33.33,0,0,0,.33.34Z"/><path class="cls-2" d="M54.91,40.78a.4.4,0,1,1,.4.4.4.4,0,0,1-.4-.4Z"/><path class="cls-2" d="M54.28,47.93a42.28,42.28,0,0,0-5.16,0l.18-.47a40.38,40.38,0,0,1,5,0l0,.51Z"/><path class="cls-2" d="M38.65,49.73s.15.2.37.44a1.89,1.89,0,0,0,.27.29,3.81,3.81,0,0,0,1.89.95,3.06,3.06,0,0,0,.59.07,1.21,1.21,0,0,0,.77-.33l-.28-.33a1.87,1.87,0,0,1-.4,0,3.14,3.14,0,0,1-2.67-1.47c0-.08-.07-.12,0-.19a2,2,0,0,0,.09-.37,1.79,1.79,0,0,0,.35.28c.39.25,1.13.59,1.27.69a4.68,4.68,0,0,0,.87-.35,1.88,1.88,0,0,1,.86-.21,6.24,6.24,0,0,1,2.46.84l.56-.22a7.44,7.44,0,0,0-3.2-1.23c-.52,0-1,.38-1.36.38s-1.66-.6-1.66-1.1.79-.6,2.07-.76c-.22.33-.43.66-.63,1l.33.18A21.76,21.76,0,0,1,47,42.39a2.27,2.27,0,0,0,1-1.12c.54-1.11,1.05-2,1.94-2a1.29,1.29,0,0,1,1,.52l.64.19-.65.44.67.27a4.14,4.14,0,0,0-2.54,2.33,2.07,2.07,0,0,0-1.67,1.43c-.2.42-.53.59-1,.91l-3.79,2.64.52.07,3.5-2.35a3.27,3.27,0,0,0,1.18-1.14c.32-.65.67-1.13,1.36-1.13a1.46,1.46,0,0,1,1,.42l.61.2-.67.41.56.35c-1.61.5-2.6,1.66-3.18,3.86l.43.1a7.57,7.57,0,0,1,.8-2c.93,0,1.87,0,2.8,0a24,24,0,0,1,5.62.43l-.39-.68a33.12,33.12,0,0,0-5.23-.31c-.78,0-1.57,0-2.36,0a5.26,5.26,0,0,1,2.36-1.34l-.8-.44.89-.49-1.21-.45a1.9,1.9,0,0,0-.8-.45c.39-1.19,1.7-1.89,3-2.36l-.89-.36.89-.49-1.37-.44a1.48,1.48,0,0,0-1.23-.61c-1.27,0-1.81,1.11-2.32,2.09a2.21,2.21,0,0,1-.89,1,19.84,19.84,0,0,0-3.42,2.88,9.72,9.72,0,0,1-2.24-2.48,2.48,2.48,0,0,0-.27.54c.13.14,1.63,1.65,2.19,2.3l-.13.14a12.92,12.92,0,0,1-2.66.2l-.3.52c.39,0,1.93-.22,2.56-.26q-.29.35-.57.73c-2,.22-3.29.63-3.29,1.36,0,.12,0,.26,0,.39a.56.56,0,0,1-.33.55c-.14.09-.15.15-.09.24.33.53-.69.79,0,1.74l.6,0a.78.78,0,0,1-.2-1.1Z"/><path class="cls-2" d="M37.87,39.24l-.2.2a12.43,12.43,0,0,0,2.15,1.93l.23-.29a10.56,10.56,0,0,0-2.19-1.84Z"/><path class="cls-2" d="M37,44.85l.18.2A8.57,8.57,0,0,0,39,43.67l-.13-.2A6.77,6.77,0,0,0,37,44.85Z"/><path class="cls-2" d="M104.63,41.14a.63.63,0,0,0-.63-.63h-.93a.63.63,0,0,0-.63.63v9.7a.63.63,0,0,0,.63.63H104a.63.63,0,0,0,.63-.63v-9.7Z"/><path class="cls-2" d="M105.82,41.39v.46a.35.35,0,0,0,.35.34h6.4a.53.53,0,0,0,.53-.53v-.78a.51.51,0,0,0-.53-.53l-6.38.63a.4.4,0,0,0-.36.4Z"/><path class="cls-2" d="M100.64,51.46A2.51,2.51,0,0,1,98,48.91V45h-.46a.44.44,0,0,1-.44-.44v-.65a.44.44,0,0,1,.44-.44H98V41.12a.61.61,0,0,1,.61-.61h.9a.61.61,0,0,1,.61.61v2.38h1.41a.44.44,0,0,1,.44.44v.65a.44.44,0,0,1-.44.44h-1.41v3.59a1.1,1.1,0,0,0,1.19,1.19h.13a.48.48,0,0,1,.48.48V51a.48.48,0,0,1-.48.48Z"/><path class="cls-2" d="M85.74,43.23a4,4,0,0,0-4,4.13,4,4,0,0,0,4,4.25c1.7,0,3.38-.9,3.7-2.37a.38.38,0,0,0-.37-.46H87.86a.61.61,0,0,0-.51.27,1.79,1.79,0,0,1-1.61.78,1.86,1.86,0,0,1-1.86-1.77h5.17a.62.62,0,0,0,.69-.7,3.85,3.85,0,0,0-4-4.13Zm0,1.66a1.81,1.81,0,0,1,1.85,1.59H83.9a1.8,1.8,0,0,1,1.84-1.59Z"/><path class="cls-2" d="M109.3,43.23a4,4,0,0,0-4,4.13,4,4,0,0,0,4,4.25c1.7,0,3.38-.9,3.7-2.37a.38.38,0,0,0-.37-.46h-1.22a.61.61,0,0,0-.51.27,1.79,1.79,0,0,1-1.61.78,1.86,1.86,0,0,1-1.86-1.77h5.17a.62.62,0,0,0,.69-.7,3.85,3.85,0,0,0-4-4.13Zm0,1.66a1.81,1.81,0,0,1,1.85,1.59h-3.69a1.8,1.8,0,0,1,1.84-1.59Z"/><path class="cls-2" d="M96.31,40.62H79.55a.69.69,0,0,0-.69.69l.06,6.58L75.13,41a1.23,1.23,0,0,0-1.08-.6H72.66a.69.69,0,0,0-.69.69v9.65a.69.69,0,0,0,.69.69h.88a.69.69,0,0,0,.69-.69L74.18,44s3.64,6.59,3.8,6.84a1.21,1.21,0,0,0,1.08.61h1.27a.69.69,0,0,0,.69-.69V42.25H96.31a.47.47,0,0,0,.47-.47v-.7a.47.47,0,0,0-.47-.47Z"/><path class="cls-2" d="M93.59,44.81a1.49,1.49,0,0,1,1.47.72c.09.22.28.26.53.26h1a.37.37,0,0,0,.36-.36c0-1.16-1.39-2.2-3.36-2.2s-3.37,1-3.37,2.51c0,1.18.93,1.88,2.08,2.18l1.85.47c.47.12.89.27.89.67,0,.63-.67.85-1.4.85a1.69,1.69,0,0,1-1.58-.8c-.11-.29-.31-.33-.62-.33h-1a.39.39,0,0,0-.38.38v.13c0,1.13,1.51,2.31,3.6,2.31,1.48,0,3.54-.61,3.54-2.6a2.34,2.34,0,0,0-2-2.26l-1.92-.49c-.46-.12-.88-.27-.88-.66,0-.59.55-.79,1.23-.79Z"/><path class="cls-2" d="M104.63,41.14a.63.63,0,0,0-.63-.63h-.93a.63.63,0,0,0-.63.63v9.7a.63.63,0,0,0,.63.63H104a.63.63,0,0,0,.63-.63v-9.7Z"/><path class="cls-2" d="M105.82,41.39v.46a.35.35,0,0,0,.35.34h6.4a.53.53,0,0,0,.53-.53v-.78a.51.51,0,0,0-.53-.53l-6.38.63a.4.4,0,0,0-.36.4Z"/><path class="cls-2" d="M100.64,51.46A2.51,2.51,0,0,1,98,48.91V45h-.46a.44.44,0,0,1-.44-.44v-.65a.44.44,0,0,1,.44-.44H98V41.12a.61.61,0,0,1,.61-.61h.9a.61.61,0,0,1,.61.61v2.38h1.41a.44.44,0,0,1,.44.44v.65a.44.44,0,0,1-.44.44h-1.41v3.59a1.1,1.1,0,0,0,1.19,1.19h.13a.48.48,0,0,1,.48.48V51a.48.48,0,0,1-.48.48Z"/><path class="cls-2" d="M89.74,47.36a3.85,3.85,0,0,0-4-4.13,4,4,0,0,0-4,4.13,4,4,0,0,0,4,4.25c1.7,0,3.38-.9,3.7-2.37a.38.38,0,0,0-.37-.46H87.86a.61.61,0,0,0-.51.27,1.79,1.79,0,0,1-1.61.78,1.86,1.86,0,0,1-1.86-1.77h5.17a.62.62,0,0,0,.69-.7Zm-5.84-.88a1.87,1.87,0,0,1,3.69,0Z"/><path class="cls-2" d="M113.31,47.36a3.85,3.85,0,0,0-4-4.13,4,4,0,0,0-4,4.13,4,4,0,0,0,4,4.25c1.7,0,3.38-.9,3.7-2.37a.38.38,0,0,0-.37-.46h-1.22a.61.61,0,0,0-.51.27,1.79,1.79,0,0,1-1.61.78,1.86,1.86,0,0,1-1.86-1.77h5.17a.62.62,0,0,0,.69-.7Zm-5.84-.88a1.87,1.87,0,0,1,3.69,0Z"/><path class="cls-2" d="M96.31,40.62H79.55a.69.69,0,0,0-.69.69l.06,6.58L75.13,41a1.23,1.23,0,0,0-1.08-.6H72.66a.69.69,0,0,0-.69.69v9.65a.69.69,0,0,0,.69.69h.88a.69.69,0,0,0,.69-.69L74.18,44s3.64,6.59,3.8,6.84a1.21,1.21,0,0,0,1.08.61h1.27a.69.69,0,0,0,.69-.69V42.25H96.31a.47.47,0,0,0,.47-.47v-.7a.47.47,0,0,0-.47-.47Z"/><path class="cls-2" d="M93.59,44.81a1.49,1.49,0,0,1,1.47.72c.09.22.28.26.53.26h1a.37.37,0,0,0,.36-.36c0-1.16-1.39-2.2-3.36-2.2s-3.37,1-3.37,2.51c0,1.18.93,1.88,2.08,2.18l1.85.47c.47.12.89.27.89.67,0,.63-.67.85-1.4.85a1.69,1.69,0,0,1-1.58-.8c-.11-.29-.31-.33-.62-.33h-1a.39.39,0,0,0-.38.38v.13c0,1.13,1.51,2.31,3.6,2.31,1.48,0,3.54-.61,3.54-2.6a2.34,2.34,0,0,0-2-2.26l-1.92-.49c-.46-.12-.88-.27-.88-.66,0-.59.55-.79,1.23-.79Z"/><path class="cls-2" d="M114,51.05h-.23V50h.4c.27,0,.44.08.44.32a.25.25,0,0,1-.26.28l.27.46h-.27l-.25-.45H114v.45Zm.2-.63c.1,0,.16,0,.16-.14s-.12-.12-.2-.12H114v.26Zm0,1.08a1,1,0,1,1,1-1,1,1,0,0,1-1,1Zm0-1.74a.76.76,0,0,0,0,1.51h0a.76.76,0,0,0,0-1.52Z"/><text class="cls-3" transform="translate(117.55 51.61)">Good Food, Good Li<tspan class="cls-4" x="105.36" y="0">f</tspan><tspan class="cls-5" x="109.16" y="0">e</tspan></text></svg>