<svg id="Layer_1" data-name="Layer 1" xmlns="http://www.w3.org/2000/svg" viewBox="0 0 267 100"><defs><style>.cls-1,.cls-3{fill:#78797a;}.cls-2,.cls-4{fill:none;}.cls-2{stroke:#78797a;stroke-miterlimit:10;stroke-width:0.57px;}.cls-3{fill-rule:evenodd;}</style></defs><title>nissan-8</title><path class="cls-1" d="M106.76,82.48v-6h1.62v6Z"/><path class="cls-1" d="M115.22,82.48h-1.54V80.27a2.58,2.58,0,0,0-.1-.91.69.69,0,0,0-.32-.32,1.16,1.16,0,0,0-.54-.11,1.55,1.55,0,0,0-.72.16.9.9,0,0,0-.44.43,2.83,2.83,0,0,0-.12,1v2h-1.54V78.15h1.43v.64a2.66,2.66,0,0,1,1.92-.73,3,3,0,0,1,.93.14,1.63,1.63,0,0,1,.64.35,1.15,1.15,0,0,1,.3.48,2.69,2.69,0,0,1,.09.77Z"/><path class="cls-1" d="M122.08,82.48h-1.54V80.27a2.58,2.58,0,0,0-.1-.91.69.69,0,0,0-.32-.32,1.16,1.16,0,0,0-.54-.11,1.55,1.55,0,0,0-.72.16.9.9,0,0,0-.44.43,2.83,2.83,0,0,0-.12,1v2h-1.54V78.15h1.43v.64a2.66,2.66,0,0,1,1.92-.73,3,3,0,0,1,.93.14,1.63,1.63,0,0,1,.64.35,1.16,1.16,0,0,1,.3.48,2.7,2.7,0,0,1,.08.77Z"/><path class="cls-1" d="M123.28,80.25a1.89,1.89,0,0,1,.38-1.1,2.36,2.36,0,0,1,1.07-.82,4.09,4.09,0,0,1,1.55-.28,3.49,3.49,0,0,1,2.17.64,1.94,1.94,0,0,1,.84,1.61,2,2,0,0,1-.85,1.63,3.45,3.45,0,0,1-2.15.65,4.38,4.38,0,0,1-1.53-.27,2.31,2.31,0,0,1-1.11-.79A2.1,2.1,0,0,1,123.28,80.25Zm1.58.06a1.21,1.21,0,0,0,.41,1,1.67,1.67,0,0,0,2,0,1.23,1.23,0,0,0,.41-1,1.21,1.21,0,0,0-.41-1,1.67,1.67,0,0,0-2,0A1.21,1.21,0,0,0,124.86,80.31Z"/><path class="cls-1" d="M132.1,82.48l-2.35-4.33h1.62l1.1,2.21.32.74.16-.37.17-.37,1.11-2.21h1.59l-2.31,4.33Z"/><path class="cls-1" d="M137.9,79.47l-1.4-.19a1.68,1.68,0,0,1,.81-.93A3.8,3.8,0,0,1,139,78a4.84,4.84,0,0,1,1.54.18,1.47,1.47,0,0,1,.71.46,1.83,1.83,0,0,1,.21,1l0,1.34a3.45,3.45,0,0,0,.07.84,2.09,2.09,0,0,0,.28.58h-1.52a3.5,3.5,0,0,1-.15-.34l-.05-.13a2.94,2.94,0,0,1-.84.43,3.16,3.16,0,0,1-1,.14,2.44,2.44,0,0,1-1.42-.36,1.08,1.08,0,0,1-.52-.92,1,1,0,0,1,.24-.65,1.48,1.48,0,0,1,.66-.44,6.6,6.6,0,0,1,1.23-.27,10.7,10.7,0,0,0,1.5-.28v-.11a.52.52,0,0,0-.22-.47,1.68,1.68,0,0,0-.83-.14,1.41,1.41,0,0,0-.64.12A.87.87,0,0,0,137.9,79.47Zm2.06.93c-.2,0-.51.11-.94.18a3.54,3.54,0,0,0-.84.2.46.46,0,0,0-.3.4.51.51,0,0,0,.24.42,1,1,0,0,0,.61.17,1.66,1.66,0,0,0,.8-.2.77.77,0,0,0,.37-.38,1.7,1.7,0,0,0,.06-.56Z"/><path class="cls-1" d="M145.67,78.15v.91h-1.05V80.8a3.3,3.3,0,0,0,0,.62.27.27,0,0,0,.14.14.55.55,0,0,0,.26.06,2.58,2.58,0,0,0,.62-.11l.13.89a4,4,0,0,1-1.22.17,2.52,2.52,0,0,1-.75-.1,1.13,1.13,0,0,1-.49-.27.91.91,0,0,1-.22-.45,4.14,4.14,0,0,1,0-.81V79.06h-.71v-.91h.71v-.86l1.55-.67v1.53Z"/><path class="cls-1" d="M146.74,77.56V76.5h1.54v1.06Zm0,4.92V78.15h1.54v4.33Z"/><path class="cls-1" d="M149.5,80.25a1.89,1.89,0,0,1,.38-1.1,2.36,2.36,0,0,1,1.07-.82A4.09,4.09,0,0,1,152.5,78a3.49,3.49,0,0,1,2.17.64,1.94,1.94,0,0,1,.84,1.61,2,2,0,0,1-.85,1.63,3.45,3.45,0,0,1-2.15.65,4.38,4.38,0,0,1-1.53-.27,2.31,2.31,0,0,1-1.11-.79A2.1,2.1,0,0,1,149.5,80.25Zm1.58.06a1.21,1.21,0,0,0,.41,1,1.67,1.67,0,0,0,2,0,1.23,1.23,0,0,0,.41-1,1.21,1.21,0,0,0-.41-1,1.67,1.67,0,0,0-2,0A1.21,1.21,0,0,0,151.08,80.31Z"/><path class="cls-1" d="M162,82.48h-1.54V80.27a2.58,2.58,0,0,0-.1-.91.69.69,0,0,0-.32-.32,1.16,1.16,0,0,0-.54-.11,1.55,1.55,0,0,0-.72.16.9.9,0,0,0-.44.43,2.83,2.83,0,0,0-.12,1v2h-1.54V78.15h1.43v.64a2.66,2.66,0,0,1,1.92-.73,3,3,0,0,1,.93.14,1.63,1.63,0,0,1,.64.35,1.15,1.15,0,0,1,.3.48,2.69,2.69,0,0,1,.09.77Z"/><path class="cls-1" d="M107,86.15v.91H105.9V88.8a3.3,3.3,0,0,0,0,.62.27.27,0,0,0,.14.14.55.55,0,0,0,.26.06,2.58,2.58,0,0,0,.62-.11l.13.89a4,4,0,0,1-1.22.17,2.52,2.52,0,0,1-.75-.1,1.13,1.13,0,0,1-.49-.27.91.91,0,0,1-.22-.45,4.13,4.13,0,0,1,0-.81V87.06h-.71v-.91h.71v-.86l1.55-.67v1.53Z"/><path class="cls-1" d="M109.56,84.5v2.2a2.63,2.63,0,0,1,1.78-.65,2.92,2.92,0,0,1,1,.15,1.58,1.58,0,0,1,.64.38,1.21,1.21,0,0,1,.3.51,3.35,3.35,0,0,1,.08.86v2.54h-1.54V88.19a2.55,2.55,0,0,0-.09-.87.64.64,0,0,0-.31-.29,1.27,1.27,0,0,0-.56-.11,1.62,1.62,0,0,0-.69.14.89.89,0,0,0-.44.42,1.92,1.92,0,0,0-.14.83v2.17H108v-6Z"/><path class="cls-1" d="M116,87.47l-1.4-.19a1.68,1.68,0,0,1,.81-.93,3.8,3.8,0,0,1,1.71-.3,4.84,4.84,0,0,1,1.54.18,1.47,1.47,0,0,1,.71.46,1.83,1.83,0,0,1,.21,1l0,1.34a3.45,3.45,0,0,0,.07.84,2.09,2.09,0,0,0,.28.58h-1.52a3.5,3.5,0,0,1-.15-.34l-.05-.13a2.94,2.94,0,0,1-.84.43,3.16,3.16,0,0,1-1,.14,2.44,2.44,0,0,1-1.42-.36,1.08,1.08,0,0,1-.52-.92,1,1,0,0,1,.24-.65,1.48,1.48,0,0,1,.66-.44,6.6,6.6,0,0,1,1.23-.27,10.7,10.7,0,0,0,1.5-.28v-.11a.52.52,0,0,0-.22-.47,1.68,1.68,0,0,0-.83-.14,1.41,1.41,0,0,0-.64.12A.87.87,0,0,0,116,87.47Zm2.06.93c-.2,0-.51.11-.94.18a3.54,3.54,0,0,0-.84.2.46.46,0,0,0-.3.4.51.51,0,0,0,.24.42,1,1,0,0,0,.61.17,1.66,1.66,0,0,0,.8-.2.77.77,0,0,0,.37-.38,1.7,1.7,0,0,0,.06-.56Z"/><path class="cls-1" d="M123.8,86.15v.91h-1.05V88.8a3.3,3.3,0,0,0,0,.62.27.27,0,0,0,.14.14.55.55,0,0,0,.26.06,2.58,2.58,0,0,0,.62-.11l.13.89a4,4,0,0,1-1.22.17,2.52,2.52,0,0,1-.75-.1,1.13,1.13,0,0,1-.49-.27.91.91,0,0,1-.22-.45,4.14,4.14,0,0,1,0-.81V87.06h-.71v-.91h.71v-.86l1.55-.67v1.53Z"/><path class="cls-1" d="M131.37,89.1l1.54.19a2,2,0,0,1-.93,1,3.48,3.48,0,0,1-1.6.33,3,3,0,0,1-2.25-.74,2.24,2.24,0,0,1,.18-3.18,3,3,0,0,1,1.91-.61,3.07,3.07,0,0,1,2.05.64,2.34,2.34,0,0,1,.72,2h-3.86a1,1,0,0,0,.37.79,1.38,1.38,0,0,0,.89.28,1.18,1.18,0,0,0,.61-.15A.91.91,0,0,0,131.37,89.1Zm.09-1.16a1,1,0,0,0-.34-.76,1.39,1.39,0,0,0-1.63,0,.9.9,0,0,0-.32.74Z"/><path class="cls-1" d="M133.5,90.48l2.1-2.23-2-2.1h1.88l1,1.19,1.09-1.19h1.81l-2,2.05,2.16,2.28h-1.89l-1.19-1.34-1.2,1.34Z"/><path class="cls-1" d="M145.57,87.43l-1.52.2a.78.78,0,0,0-.35-.51,1.3,1.3,0,0,0-.71-.17,1.36,1.36,0,0,0-.92.3,1.24,1.24,0,0,0-.34,1,1.42,1.42,0,0,0,.35,1.09,1.34,1.34,0,0,0,.94.32,1.27,1.27,0,0,0,.72-.19,1,1,0,0,0,.4-.64l1.51.19a2,2,0,0,1-.91,1.17,3.51,3.51,0,0,1-1.79.4,3.2,3.2,0,0,1-2-.6,2.2,2.2,0,0,1,0-3.33A3.25,3.25,0,0,1,143,86a3.56,3.56,0,0,1,1.69.34A2,2,0,0,1,145.57,87.43Z"/><path class="cls-1" d="M146.73,85.56V84.5h1.54v1.06Zm0,4.92V86.15h1.54v4.33Z"/><path class="cls-1" d="M152.53,86.15v.91h-1.05V88.8a3.3,3.3,0,0,0,0,.62.27.27,0,0,0,.14.14.55.55,0,0,0,.26.06,2.58,2.58,0,0,0,.62-.11l.13.89a4,4,0,0,1-1.22.17,2.52,2.52,0,0,1-.75-.1,1.13,1.13,0,0,1-.49-.27.91.91,0,0,1-.22-.45,4.14,4.14,0,0,1,0-.81V87.06h-.71v-.91h.71v-.86l1.55-.67v1.53Z"/><path class="cls-1" d="M157,89.1l1.54.19a2,2,0,0,1-.93,1,3.48,3.48,0,0,1-1.6.33,3,3,0,0,1-2.25-.74,2.24,2.24,0,0,1,.18-3.18,3,3,0,0,1,1.91-.61,3.07,3.07,0,0,1,2.05.64,2.34,2.34,0,0,1,.72,2h-3.86a1,1,0,0,0,.37.79,1.38,1.38,0,0,0,.89.28,1.18,1.18,0,0,0,.61-.15A.91.91,0,0,0,157,89.1Zm.09-1.16a1,1,0,0,0-.34-.76,1.39,1.39,0,0,0-1.63,0,.9.9,0,0,0-.32.74Z"/><path class="cls-1" d="M159.3,89.24l1.55-.18a.84.84,0,0,0,.4.51,1.71,1.71,0,0,0,.84.17,2,2,0,0,0,.9-.16.34.34,0,0,0,.2-.31.26.26,0,0,0-.11-.22,1.48,1.48,0,0,0-.52-.15,10.47,10.47,0,0,1-2.36-.56,1.07,1.07,0,0,1-.69-1,1.11,1.11,0,0,1,.6-.95A3.51,3.51,0,0,1,162,86a4.16,4.16,0,0,1,1.78.29,1.57,1.57,0,0,1,.8.86l-1.45.2a.7.7,0,0,0-.35-.39,1.65,1.65,0,0,0-.74-.13,2.18,2.18,0,0,0-.87.13.27.27,0,0,0-.18.23.24.24,0,0,0,.15.21,7.27,7.27,0,0,0,1.44.32,5.2,5.2,0,0,1,1.72.51,1,1,0,0,1,.48.85,1.22,1.22,0,0,1-.67,1,3.71,3.71,0,0,1-2,.43,4.14,4.14,0,0,1-1.88-.36A1.75,1.75,0,0,1,159.3,89.24Z"/><path class="cls-1" d="M162.39,61V58.24h1.15a2,2,0,0,1,.63.07.62.62,0,0,1,.32.26.78.78,0,0,1,.12.43.73.73,0,0,1-.18.5.87.87,0,0,1-.54.25,1.28,1.28,0,0,1,.29.23,3.18,3.18,0,0,1,.31.44l.33.53h-.66l-.4-.59a3.7,3.7,0,0,0-.29-.4.41.41,0,0,0-.17-.11.86.86,0,0,0-.28,0h-.11V61Zm.55-1.57h.41a2.14,2.14,0,0,0,.49,0,.29.29,0,0,0,.15-.12A.35.35,0,0,0,164,59a.32.32,0,0,0-.07-.22.33.33,0,0,0-.21-.11h-.83Z"/><circle class="cls-2" cx="163.48" cy="59.61" r="2.58"/><path class="cls-3" d="M106.24,40c-.47.07-.63-.17-.62-.54,0-2,0-3.85,0-5.78a1.62,1.62,0,0,1,.56-1.42,2.82,2.82,0,0,1,2.62-.3A2.25,2.25,0,0,1,110,33.22c.69,1.48,1.41,2.68,2.17,4.27a.49.49,0,0,0,.93-.29c-.12-1.9,0-3.52,0-5.38.75,0,1.32,0,2.06,0,0,2.16,0,4.33,0,6.48a1.51,1.51,0,0,1-.55,1.2c-1.2.86-3.41.73-4.08-.71s-1.42-2.72-2.09-4.19c-.15-.33-.72-.39-.73,0-.06,1.69,0,3.21,0,4.88,0,.34-.07.6-.5.55a2.7,2.7,0,0,0-.94,0Zm10.35,0c.89-.06,1.5,0,2.36,0,0-2.72,0-5.44,0-8.17a23.7,23.7,0,0,0-2.38,0c0,2.74,0,5.49,0,8.21Zm3.5,0c2.77,0,5.51,0,8.28,0a.77.77,0,0,0,.51-.07c.2-.12.2,0,.37-.14,1.85-1.63.15-3.46-1.54-3.82s-3-1.25-4.64-1.66c-.27-.07-.52-.44-.25-.62a.8.8,0,0,1,.47-.14c2.24,0,4.46,0,6.7,0a8.11,8.11,0,0,0,0-1.75c-1.63,0-3.45-.05-5.05,0s-4.09-.64-4.8,1.43a1.74,1.74,0,0,0,.05,1.16,1.9,1.9,0,0,0,1.3,1.35c1.74.59,3.29,1.26,5.07,1.84.41.13.44.7,0,.7H120a10.75,10.75,0,0,0,.05,1.73Zm11.06,0h8a1.84,1.84,0,0,0,1.17-.28,1.79,1.79,0,0,0,.72-1.39c0-.47,0-1.19-.47-1.44-2-1.16-4.28-1.67-6.51-2.62-.43-.18-.26-.74.22-.73,2.34,0,4.45,0,6.75,0a9.52,9.52,0,0,0,0-1.76c-1.63,0-3.45-.05-5.05,0s-4.09-.64-4.8,1.43a1.74,1.74,0,0,0,.05,1.16,1.9,1.9,0,0,0,1.3,1.35c1.75.59,3.29,1.26,5.08,1.84.41.13.44.7,0,.7-2.27,0-4.3,0-6.53,0a10,10,0,0,0,.05,1.72Zm18.12-5c-1.5,0-3.1.06-4.64,0-.05-1.76,1.73-1.42,2.87-1.46.83,0,2,.23,1.77,1.48Zm-6.4,5a.53.53,0,0,1-.68-.54,41.65,41.65,0,0,1,.11-6.25,1.6,1.6,0,0,1,.82-1.12,3.24,3.24,0,0,1,1.37-.33c1.19,0,2.52,0,3.67,0s3-.1,3.4,1.24.06,2.44.13,3.68,0,2.17,0,3.27a20.45,20.45,0,0,1-2.26,0c-.1-1.09.08-2-.11-3.18a44.71,44.71,0,0,0-4.71,0,21.65,21.65,0,0,0,0,2.69c0,.36-.14.58-.54.54a4.38,4.38,0,0,0-1.17,0ZM153,40c.76,0,1.29,0,2,0,0-1.69,0-3.41,0-5.11a.58.58,0,0,1,.32-.58c.2-.07.35.19.45.37.8,1.4,1.44,3,2.31,4.38s3.14,1.29,4.16.24a1.77,1.77,0,0,0,.29-1.2c0-2.05,0-4.16,0-6.23a20.46,20.46,0,0,0-2.06,0c0,1.9,0,3.67,0,5.6a.42.42,0,0,1-.77.21c-.77-1.51-1.58-2.93-2.3-4.43a2.27,2.27,0,0,0-1.36-1.27,2.61,2.61,0,0,0-2.77.66c-.53.69-.26,1.66-.28,2.51,0,1.62,0,3.3,0,4.92Zm3.51-13a24.7,24.7,0,0,0-44.38-.43A354.49,354.49,0,0,1,156.52,27Zm-22,19s-12.11-.05-22.62-.84a24.7,24.7,0,0,0,44.58.11C150.68,45.74,143.06,46.14,134.54,46ZM170,41.6s0,2.2-1.86,2.35c0,0-1.07.17-3,.42-3.77,12.9-16.15,22.37-30.86,22.37S107,57.21,103.32,44.23c-.9-.14-1.74-.29-2.48-.45a2.17,2.17,0,0,1-2.26-2.32c-.21-2.31-.51-9.16,0-11.21,0-.1.15-1.7,2.42-2.11l2.44-.5C107.28,14.86,119.6,5.5,134.23,5.5S161.37,15,165.12,28q1.58.21,3.12.45s1.74,0,1.78,2.32C170,30.72,170.29,38.42,170,41.6Z"/><rect class="cls-4" width="267" height="100"/></svg>