<svg xmlns="http://www.w3.org/2000/svg" viewBox="0 0 267 100"><defs><style>.cls-1{isolation:isolate;}.cls-2{fill:none;}.cls-3,.cls-72,.cls-73{fill:#1a1818;}.cls-4,.cls-74{fill:#464749;}.cls-5{opacity:0.15;}.cls-6{fill:#808285;opacity:0;}.cls-10,.cls-11,.cls-12,.cls-13,.cls-14,.cls-15,.cls-16,.cls-17,.cls-18,.cls-19,.cls-20,.cls-21,.cls-22,.cls-23,.cls-24,.cls-25,.cls-26,.cls-27,.cls-28,.cls-29,.cls-30,.cls-31,.cls-32,.cls-33,.cls-34,.cls-35,.cls-36,.cls-37,.cls-38,.cls-39,.cls-40,.cls-41,.cls-42,.cls-43,.cls-44,.cls-45,.cls-46,.cls-47,.cls-48,.cls-49,.cls-50,.cls-51,.cls-52,.cls-53,.cls-54,.cls-55,.cls-56,.cls-57,.cls-58,.cls-59,.cls-6,.cls-60,.cls-61,.cls-62,.cls-63,.cls-64,.cls-65,.cls-66,.cls-67,.cls-68,.cls-69,.cls-7,.cls-70,.cls-71,.cls-72,.cls-8,.cls-9{mix-blend-mode:multiply;}.cls-7{fill:#7d7f82;opacity:0.02;}.cls-8{fill:#7b7d7f;opacity:0.03;}.cls-9{fill:#797b7d;opacity:0.05;}.cls-10{fill:#77787b;opacity:0.06;}.cls-11{fill:#757679;opacity:0.08;}.cls-12{fill:#747476;opacity:0.09;}.cls-13{fill:#727274;opacity:0.11;}.cls-14{fill:#707072;opacity:0.12;}.cls-15{fill:#6e6e70;opacity:0.14;}.cls-16{fill:#6c6c6e;opacity:0.15;}.cls-17{fill:#6a6a6c;opacity:0.17;}.cls-18{fill:#68686a;opacity:0.18;}.cls-19{fill:#676668;opacity:0.2;}.cls-20{fill:#656466;opacity:0.21;}.cls-21{fill:#636264;opacity:0.23;}.cls-22{fill:#616062;opacity:0.24;}.cls-23{fill:#5f5e60;opacity:0.26;}.cls-24{fill:#5e5c5e;opacity:0.27;}.cls-25{fill:#5c5b5c;opacity:0.29;}.cls-26{fill:#5a595a;opacity:0.3;}.cls-27{fill:#585758;opacity:0.32;}.cls-28{fill:#575556;opacity:0.33;}.cls-29{fill:#555355;opacity:0.35;}.cls-30{fill:#535253;opacity:0.36;}.cls-31{fill:#525051;opacity:0.38;}.cls-32{fill:#504e4f;opacity:0.39;}.cls-33{fill:#4e4c4d;opacity:0.41;}.cls-34{fill:#4d4b4c;opacity:0.42;}.cls-35{fill:#4b494a;opacity:0.44;}.cls-36{fill:#494748;opacity:0.45;}.cls-37{fill:#484647;opacity:0.47;}.cls-38{fill:#464445;opacity:0.48;}.cls-39{fill:#454343;opacity:0.5;}.cls-40{fill:#434142;opacity:0.52;}.cls-41{fill:#424040;opacity:0.53;}.cls-42{fill:#403e3f;opacity:0.55;}.cls-43{fill:#3f3d3d;opacity:0.56;}.cls-44{fill:#3d3b3c;opacity:0.58;}.cls-45{fill:#3c3a3a;opacity:0.59;}.cls-46{fill:#3b3839;opacity:0.61;}.cls-47{fill:#393738;opacity:0.62;}.cls-48{fill:#383636;opacity:0.64;}.cls-49{fill:#363435;opacity:0.65;}.cls-50{fill:#353333;opacity:0.67;}.cls-51{fill:#343132;opacity:0.68;}.cls-52{fill:#323031;opacity:0.7;}.cls-53{fill:#312f2f;opacity:0.71;}.cls-54{fill:#302e2e;opacity:0.73;}.cls-55{fill:#2f2c2d;opacity:0.74;}.cls-56{fill:#2d2b2c;opacity:0.76;}.cls-57{fill:#2c2a2a;opacity:0.77;}.cls-58{fill:#2b2829;opacity:0.79;}.cls-59{fill:#2a2728;opacity:0.8;}.cls-60{fill:#282627;opacity:0.82;}.cls-61{fill:#272525;opacity:0.83;}.cls-62{fill:#262424;opacity:0.85;}.cls-63{fill:#252223;opacity:0.86;}.cls-64{fill:#242122;opacity:0.88;}.cls-65{fill:#222021;opacity:0.89;}.cls-66{fill:#211f1f;opacity:0.91;}.cls-67{fill:#201e1e;opacity:0.92;}.cls-68{fill:#1f1c1d;opacity:0.94;}.cls-69{fill:#1e1b1c;opacity:0.95;}.cls-70{fill:#1d1a1b;opacity:0.97;}.cls-71{fill:#1b1919;opacity:0.98;}.cls-73,.cls-74,.cls-75,.cls-76{fill-rule:evenodd;}.cls-75{fill:#6d6f72;}.cls-76{fill:#00516f;}</style></defs><title>opticas union BN</title><g class="cls-1"><g id="Layer_1" data-name="Layer 1"><rect class="cls-2" width="267" height="100"/><path class="cls-3" d="M101,76.93a5.25,5.25,0,0,1-1.76-.26,2.66,2.66,0,0,1-1.17-.77,3.23,3.23,0,0,1-.63-1.19,5.71,5.71,0,0,1-.2-1.59V68.64a4,4,0,0,1,.88-2.79,4.83,4.83,0,0,1,5.76,0,4,4,0,0,1,.88,2.78v4.47a4.11,4.11,0,0,1-.88,2.83A3.68,3.68,0,0,1,101,76.93Zm-.93-1.44a3,3,0,0,0,1.87,0,1.14,1.14,0,0,0,.56-.45,2,2,0,0,0,.26-.67,4.88,4.88,0,0,0,.07-.91V68.3a4.66,4.66,0,0,0-.07-.89,1.89,1.89,0,0,0-.26-.65,1.1,1.1,0,0,0-.56-.44,3.21,3.21,0,0,0-1.87,0,1.1,1.1,0,0,0-.56.44,1.88,1.88,0,0,0-.26.65,4.66,4.66,0,0,0-.07.89v5.16a4.88,4.88,0,0,0,.07.91,2,2,0,0,0,.26.67A1.14,1.14,0,0,0,100.06,75.5ZM100.53,64l1-2.88h1.82L101.45,64Z"/><path class="cls-3" d="M110.05,76.8V65h3.41a3.5,3.5,0,0,1,2.6.83,3.35,3.35,0,0,1,.8,2.43,2.9,2.9,0,0,1-.87,2.24,3.59,3.59,0,0,1-2.53.8H112V76.8ZM112,70.14h.87a2.86,2.86,0,0,0,1.73-.38,1.83,1.83,0,0,0,.47-1.47q0-.45,0-.74a2.27,2.27,0,0,0-.11-.54,1,1,0,0,0-.23-.39,1.16,1.16,0,0,0-.39-.24,2.26,2.26,0,0,0-.59-.14,8.23,8.23,0,0,0-.83,0H112Z"/><path class="cls-3" d="M123,76.8V66.23h-2.51V65h6.85v1.22h-2.42V76.8Z"/><path class="cls-3" d="M131.91,76.8V65h1.88V76.8Z"/><path class="cls-3" d="M142.86,76.93a5.13,5.13,0,0,1-1.5-.2,3,3,0,0,1-1.06-.54,2.68,2.68,0,0,1-.67-.85,3.77,3.77,0,0,1-.36-1.07,7.26,7.26,0,0,1-.1-1.26V68.85a7.64,7.64,0,0,1,.1-1.33,3.86,3.86,0,0,1,.36-1.09,2.47,2.47,0,0,1,.67-.83,3.05,3.05,0,0,1,1.06-.51,5.44,5.44,0,0,1,1.5-.19,3.52,3.52,0,0,1,2.66.86,3.58,3.58,0,0,1,.8,2.53v.94h-1.82V68.4q0-.27,0-.42t0-.38a1.89,1.89,0,0,0,0-.36q0-.13-.09-.3a.76.76,0,0,0-.14-.27l-.21-.21a.81.81,0,0,0-.28-.16,2.42,2.42,0,0,0-.37-.09,3,3,0,0,0-.48,0,2.9,2.9,0,0,0-.7.07,1.2,1.2,0,0,0-.49.23,1.51,1.51,0,0,0-.31.35,1.44,1.44,0,0,0-.18.49,5,5,0,0,0-.08.58q0,.28,0,.69v4.66a3.21,3.21,0,0,0,.39,1.85,1.63,1.63,0,0,0,1.39.52,2.68,2.68,0,0,0,.66-.07,1,1,0,0,0,.46-.23,1.59,1.59,0,0,0,.29-.34,1.35,1.35,0,0,0,.16-.48,4.88,4.88,0,0,0,.06-.56q0-.26,0-.67v-.87h1.82v.87a6.6,6.6,0,0,1-.1,1.21,3.61,3.61,0,0,1-.34,1,2.31,2.31,0,0,1-.63.77,2.89,2.89,0,0,1-1,.48A5.09,5.09,0,0,1,142.86,76.93Z"/><path class="cls-3" d="M150.8,76.8,153.74,65h1.85l2.94,11.79H156.7l-.63-3h-2.8l-.66,3Zm2.72-4.14h2.3l-1.15-5.33Z"/><path class="cls-3" d="M166.56,76.93a3.56,3.56,0,0,1-2.64-.92,3.79,3.79,0,0,1-1-2.51l1.71-.4q.18,2.53,2,2.53a1.62,1.62,0,0,0,1.12-.35,1.33,1.33,0,0,0,.39-1,2.19,2.19,0,0,0-.1-.69,1.83,1.83,0,0,0-.34-.6,4.39,4.39,0,0,0-.45-.47l-.6-.5-2.31-1.76a3.65,3.65,0,0,1-1-1.14,3.09,3.09,0,0,1-.32-1.47,2.44,2.44,0,0,1,.87-2,3.68,3.68,0,0,1,2.37-.73A3,3,0,0,1,169.63,68l-1.62.38a6.49,6.49,0,0,0-.09-.68,2.85,2.85,0,0,0-.19-.6,1.57,1.57,0,0,0-.32-.49,1.34,1.34,0,0,0-.51-.3,1.92,1.92,0,0,0-.73-.09q-1.52.09-1.52,1.29a1.67,1.67,0,0,0,.21.87,2.83,2.83,0,0,0,.7.73l2.32,1.76a6.45,6.45,0,0,1,1.44,1.49,3.16,3.16,0,0,1,.54,1.81,2.52,2.52,0,0,1-.91,2.05A3.61,3.61,0,0,1,166.56,76.93Z"/><path class="cls-4" d="M103.93,94.59a9.34,9.34,0,0,1-3.74,0,4.07,4.07,0,0,1-1.29-.51,2.5,2.5,0,0,1-.8-.84,3.43,3.43,0,0,1-.41-1.08,7.06,7.06,0,0,1-.11-1.34V83.28h2.23V90.9a7.56,7.56,0,0,0,0,.84,2.81,2.81,0,0,0,.18.72,1.54,1.54,0,0,0,.38.58,1.8,1.8,0,0,0,.65.36,3.11,3.11,0,0,0,1,.14,3.07,3.07,0,0,0,1-.14,1.78,1.78,0,0,0,.65-.36,1.58,1.58,0,0,0,.38-.58,2.78,2.78,0,0,0,.18-.71,7.67,7.67,0,0,0,0-.84V83.28h2.23v7.55a7,7,0,0,1-.11,1.34,3.43,3.43,0,0,1-.41,1.08,2.5,2.5,0,0,1-.8.84A4.07,4.07,0,0,1,103.93,94.59Z"/><path class="cls-4" d="M115.26,94.66V83.28h1.59l4.78,7.56V83.28h2V94.66h-1.5l-4.85-7.78v7.78Z"/><path class="cls-4" d="M132.58,94.66V83.28h2.3V94.66Z"/><path class="cls-4" d="M148.13,94.78a8,8,0,0,1-2.16-.25,3.41,3.41,0,0,1-1.43-.75,3,3,0,0,1-.77-1.15,4.42,4.42,0,0,1-.24-1.54V86.78a3.35,3.35,0,0,1,1.07-2.69,7.21,7.21,0,0,1,7,0,3.35,3.35,0,0,1,1.08,2.69V91.1a3.45,3.45,0,0,1-1.08,2.73A5.26,5.26,0,0,1,148.13,94.78ZM147,93.4a4.58,4.58,0,0,0,2.28,0A1.38,1.38,0,0,0,150,93a1.68,1.68,0,0,0,.32-.65,3.76,3.76,0,0,0,.09-.88v-5a3.59,3.59,0,0,0-.09-.86A1.63,1.63,0,0,0,150,85a1.34,1.34,0,0,0-.69-.42,4.93,4.93,0,0,0-2.28,0,1.34,1.34,0,0,0-.69.42,1.62,1.62,0,0,0-.32.63,3.59,3.59,0,0,0-.09.86v5a3.76,3.76,0,0,0,.09.88,1.68,1.68,0,0,0,.32.65A1.38,1.38,0,0,0,147,93.4Zm.57-11.07,1.23-2.78H151l-2.32,2.78Z"/><path class="cls-4" d="M161.28,94.66V83.28h1.59l4.78,7.56V83.28h2V94.66h-1.5l-4.85-7.78v7.78Z"/><g class="cls-5"><ellipse class="cls-6" cx="133.66" cy="50.32" rx="43.48" ry="2.12"/><path class="cls-7" d="M176.62,50.32c0,1.16-19.23,2.09-43,2.09s-42.95-.94-42.95-2.09,19.23-2.09,42.95-2.09S176.62,49.16,176.62,50.32Z"/><path class="cls-8" d="M176.09,50.32c0,1.14-19,2.06-42.43,2.06s-42.42-.92-42.42-2.06,19-2.06,42.42-2.06S176.09,49.18,176.09,50.32Z"/><path class="cls-9" d="M175.56,50.32c0,1.12-18.76,2-41.9,2s-41.89-.91-41.89-2,18.75-2,41.89-2S175.56,49.19,175.56,50.32Z"/><path class="cls-10" d="M175,50.32c0,1.11-18.52,2-41.37,2s-41.36-.9-41.36-2,18.52-2,41.36-2S175,49.21,175,50.32Z"/><path class="cls-11" d="M174.5,50.32c0,1.09-18.28,2-40.84,2s-40.83-.88-40.83-2,18.28-2,40.83-2S174.5,49.22,174.5,50.32Z"/><path class="cls-12" d="M174,50.32c0,1.08-18,1.95-40.31,1.95s-40.3-.87-40.3-1.95,18-1.95,40.3-1.95S174,49.24,174,50.32Z"/><path class="cls-13" d="M173.44,50.32c0,1.06-17.81,1.92-39.78,1.92S93.9,51.38,93.9,50.32s17.81-1.92,39.77-1.92S173.44,49.26,173.44,50.32Z"/><path class="cls-14" d="M172.91,50.32c0,1-17.57,1.89-39.24,1.89s-39.24-.85-39.24-1.89,17.57-1.89,39.24-1.89S172.91,49.27,172.91,50.32Z"/><path class="cls-15" d="M172.38,50.32c0,1-17.33,1.86-38.71,1.86S95,51.35,95,50.32s17.33-1.86,38.71-1.86S172.38,49.29,172.38,50.32Z"/><path class="cls-16" d="M171.85,50.32c0,1-17.09,1.83-38.18,1.83s-38.18-.82-38.18-1.83,17.09-1.83,38.18-1.83S171.85,49.3,171.85,50.32Z"/><path class="cls-17" d="M171.32,50.32c0,1-16.86,1.8-37.65,1.8S96,51.32,96,50.32s16.86-1.8,37.65-1.8S171.32,49.32,171.32,50.32Z"/><path class="cls-18" d="M170.79,50.32c0,1-16.62,1.78-37.12,1.78s-37.12-.79-37.12-1.78,16.62-1.77,37.12-1.77S170.79,49.34,170.79,50.32Z"/><path class="cls-19" d="M170.26,50.32c0,1-16.38,1.75-36.59,1.75s-36.59-.78-36.59-1.75,16.38-1.74,36.59-1.74S170.26,49.35,170.26,50.32Z"/><path class="cls-20" d="M169.73,50.32c0,.95-16.14,1.72-36.06,1.72S97.6,51.27,97.6,50.32s16.15-1.72,36.06-1.72S169.73,49.37,169.73,50.32Z"/><path class="cls-21" d="M169.2,50.32c0,.93-15.91,1.69-35.53,1.69s-35.53-.76-35.53-1.69,15.91-1.69,35.53-1.69S169.2,49.38,169.2,50.32Z"/><path class="cls-22" d="M168.67,50.32c0,.92-15.67,1.66-35,1.66s-35-.74-35-1.66,15.67-1.66,35-1.66S168.67,49.4,168.67,50.32Z"/><path class="cls-23" d="M168.14,50.32c0,.9-15.43,1.63-34.47,1.63s-34.47-.73-34.47-1.63,15.43-1.63,34.47-1.63S168.14,49.42,168.14,50.32Z"/><path class="cls-24" d="M167.61,50.32c0,.88-15.2,1.6-33.94,1.6s-33.94-.72-33.94-1.6,15.2-1.6,33.94-1.6S167.61,49.43,167.61,50.32Z"/><path class="cls-25" d="M167.08,50.32c0,.87-15,1.57-33.41,1.57s-33.41-.7-33.41-1.57,15-1.57,33.41-1.57S167.08,49.45,167.08,50.32Z"/><path class="cls-26" d="M166.55,50.32c0,.85-14.72,1.54-32.88,1.54s-32.88-.69-32.88-1.54,14.72-1.54,32.88-1.54S166.55,49.46,166.55,50.32Z"/><path class="cls-27" d="M166,50.32c0,.84-14.48,1.52-32.35,1.52s-32.35-.68-32.35-1.52,14.48-1.51,32.35-1.51S166,49.48,166,50.32Z"/><path class="cls-28" d="M165.49,50.32c0,.82-14.25,1.49-31.82,1.49s-31.82-.67-31.82-1.49,14.25-1.48,31.82-1.48S165.49,49.5,165.49,50.32Z"/><path class="cls-29" d="M165,50.32c0,.8-14,1.46-31.29,1.46s-31.29-.65-31.29-1.46,14-1.46,31.29-1.46S165,49.51,165,50.32Z"/><path class="cls-30" d="M164.43,50.32c0,.79-13.77,1.43-30.76,1.43s-30.76-.64-30.76-1.43,13.77-1.43,30.76-1.43S164.43,49.53,164.43,50.32Z"/><path class="cls-31" d="M163.9,50.32c0,.77-13.53,1.4-30.23,1.4s-30.23-.63-30.23-1.4,13.54-1.4,30.23-1.4S163.9,49.54,163.9,50.32Z"/><path class="cls-32" d="M163.37,50.32c0,.76-13.3,1.37-29.7,1.37S104,51.08,104,50.32,117.26,49,133.66,49,163.37,49.56,163.37,50.32Z"/><path class="cls-33" d="M162.84,50.32c0,.74-13.06,1.34-29.17,1.34s-29.17-.6-29.17-1.34S117.56,49,133.66,49,162.84,49.57,162.84,50.32Z"/><path class="cls-34" d="M162.31,50.32c0,.72-12.82,1.31-28.64,1.31S105,51,105,50.32,117.85,49,133.66,49,162.31,49.59,162.31,50.32Z"/><path class="cls-35" d="M161.78,50.32c0,.71-12.58,1.28-28.11,1.28s-28.11-.58-28.11-1.28S118.14,49,133.66,49,161.78,49.61,161.78,50.32Z"/><path class="cls-36" d="M161.25,50.32c0,.69-12.35,1.26-27.58,1.26s-27.58-.56-27.58-1.26,12.35-1.25,27.58-1.25S161.25,49.62,161.25,50.32Z"/><path class="cls-37" d="M160.72,50.32c0,.68-12.11,1.23-27.05,1.23s-27-.55-27-1.23,12.11-1.22,27-1.22S160.72,49.64,160.72,50.32Z"/><path class="cls-38" d="M160.19,50.32c0,.66-11.87,1.2-26.52,1.2s-26.52-.54-26.52-1.2,11.88-1.2,26.52-1.2S160.19,49.65,160.19,50.32Z"/><path class="cls-39" d="M159.66,50.32c0,.64-11.64,1.17-26,1.17s-26-.52-26-1.17,11.64-1.17,26-1.17S159.66,49.67,159.66,50.32Z"/><path class="cls-40" d="M159.13,50.32c0,.63-11.4,1.14-25.46,1.14s-25.46-.51-25.46-1.14,11.4-1.14,25.46-1.14S159.13,49.69,159.13,50.32Z"/><path class="cls-41" d="M158.6,50.32c0,.61-11.16,1.11-24.93,1.11s-24.93-.5-24.93-1.11,11.16-1.11,24.93-1.11S158.6,49.7,158.6,50.32Z"/><path class="cls-42" d="M158.07,50.32c0,.6-10.92,1.08-24.4,1.08s-24.4-.49-24.4-1.08,10.93-1.08,24.4-1.08S158.07,49.72,158.07,50.32Z"/><path class="cls-43" d="M157.54,50.32c0,.58-10.69,1.05-23.87,1.05s-23.87-.47-23.87-1.05,10.69-1.05,23.87-1.05S157.54,49.73,157.54,50.32Z"/><path class="cls-44" d="M157,50.32c0,.56-10.45,1-23.34,1s-23.34-.46-23.34-1,10.45-1,23.34-1S157,49.75,157,50.32Z"/><path class="cls-45" d="M156.48,50.32c0,.55-10.21,1-22.81,1s-22.81-.45-22.81-1,10.22-1,22.81-1S156.48,49.77,156.48,50.32Z"/><path class="cls-46" d="M155.95,50.32c0,.53-10,1-22.28,1s-22.28-.43-22.28-1,10-1,22.28-1S155.95,49.78,155.95,50.32Z"/><path class="cls-47" d="M155.42,50.32c0,.52-9.74.94-21.75.94s-21.75-.42-21.75-.94,9.74-.94,21.75-.94S155.42,49.8,155.42,50.32Z"/><path class="cls-48" d="M154.89,50.32c0,.5-9.5.91-21.22.91s-21.22-.41-21.22-.91,9.5-.91,21.22-.91S154.89,49.81,154.89,50.32Z"/><path class="cls-49" d="M154.36,50.32c0,.48-9.26.88-20.69.88S113,50.8,113,50.32s9.27-.88,20.69-.88S154.36,49.83,154.36,50.32Z"/><path class="cls-50" d="M153.82,50.32c0,.47-9,.85-20.16.85s-20.16-.38-20.16-.85,9-.85,20.16-.85S153.82,49.85,153.82,50.32Z"/><path class="cls-51" d="M153.29,50.32c0,.45-8.79.82-19.63.82S114,50.77,114,50.32s8.79-.82,19.63-.82S153.29,49.86,153.29,50.32Z"/><path class="cls-52" d="M152.76,50.32c0,.44-8.55.79-19.1.79s-19.1-.36-19.1-.79,8.56-.79,19.1-.79S152.76,49.88,152.76,50.32Z"/><path class="cls-53" d="M152.23,50.32c0,.42-8.31.77-18.57.77s-18.57-.34-18.57-.77,8.32-.76,18.57-.76S152.23,49.89,152.23,50.32Z"/><path class="cls-54" d="M151.7,50.32c0,.4-8.07.74-18,.74s-18-.33-18-.74,8.08-.73,18-.73S151.7,49.91,151.7,50.32Z"/><path class="cls-55" d="M151.17,50.32c0,.39-7.84.71-17.51.71s-17.51-.32-17.51-.71,7.84-.7,17.51-.7S151.17,49.93,151.17,50.32Z"/><path class="cls-56" d="M150.64,50.32c0,.37-7.6.68-17,.68s-17-.31-17-.68,7.61-.68,17-.68S150.64,49.94,150.64,50.32Z"/><path class="cls-57" d="M150.11,50.32c0,.36-7.36.65-16.45.65s-16.45-.29-16.45-.65,7.37-.65,16.45-.65S150.11,50,150.11,50.32Z"/><path class="cls-58" d="M149.58,50.32c0,.34-7.13.62-15.92.62s-15.92-.28-15.92-.62,7.13-.62,15.92-.62S149.58,50,149.58,50.32Z"/><path class="cls-59" d="M149.05,50.32c0,.32-6.89.59-15.39.59s-15.39-.27-15.39-.59,6.9-.59,15.39-.59S149.05,50,149.05,50.32Z"/><path class="cls-60" d="M148.52,50.32c0,.31-6.65.56-14.86.56s-14.86-.25-14.86-.56,6.66-.56,14.86-.56S148.52,50,148.52,50.32Z"/><path class="cls-61" d="M148,50.32c0,.29-6.41.53-14.33.53s-14.33-.24-14.33-.53,6.42-.53,14.33-.53S148,50,148,50.32Z"/><path class="cls-62" d="M147.46,50.32c0,.28-6.18.51-13.8.51s-13.8-.23-13.8-.51,6.18-.5,13.8-.5S147.46,50,147.46,50.32Z"/><path class="cls-63" d="M146.93,50.32c0,.26-5.94.48-13.27.48s-13.27-.22-13.27-.48,5.95-.47,13.27-.47S146.93,50.05,146.93,50.32Z"/><path class="cls-64" d="M146.4,50.32c0,.24-5.7.45-12.74.45s-12.74-.2-12.74-.45,5.71-.44,12.74-.44S146.4,50.07,146.4,50.32Z"/><path class="cls-65" d="M145.87,50.32c0,.23-5.46.42-12.21.42s-12.21-.19-12.21-.42,5.47-.42,12.21-.42S145.87,50.09,145.87,50.32Z"/><path class="cls-66" d="M145.34,50.32c0,.21-5.23.39-11.68.39S122,50.53,122,50.32s5.24-.39,11.68-.39S145.34,50.1,145.34,50.32Z"/><path class="cls-67" d="M144.81,50.32c0,.2-5,.36-11.15.36s-11.15-.16-11.15-.36,5-.36,11.15-.36S144.81,50.12,144.81,50.32Z"/><path class="cls-68" d="M144.28,50.32c0,.18-4.75.33-10.62.33S123,50.5,123,50.32,127.8,50,133.66,50,144.28,50.13,144.28,50.32Z"/><path class="cls-69" d="M143.75,50.32c0,.16-4.51.3-10.09.3s-10.09-.14-10.09-.3,4.52-.3,10.09-.3S143.75,50.15,143.75,50.32Z"/><path class="cls-70" d="M143.22,50.32a84.27,84.27,0,0,1-9.56.27,84.4,84.4,0,0,1-9.56-.27,83.42,83.42,0,0,1,9.56-.27A83.3,83.3,0,0,1,143.22,50.32Z"/><path class="cls-71" d="M142.69,50.32a84.1,84.1,0,0,1-9,.25,84.24,84.24,0,0,1-9-.25,83.15,83.15,0,0,1,9-.24A83,83,0,0,1,142.69,50.32Z"/><path class="cls-72" d="M142.16,50.32a84.56,84.56,0,0,1-8.5.22,84.72,84.72,0,0,1-8.5-.22,83.44,83.44,0,0,1,8.5-.21A83.29,83.29,0,0,1,142.16,50.32Z"/></g><path class="cls-73" d="M148,35.73c.57.55.29.94-.18,1.39a25.65,25.65,0,0,1-12.39,6.3,31.15,31.15,0,0,1-19.18-1.29,16.25,16.25,0,0,1-6.8-5.07,54.77,54.77,0,0,0,19,2.62,50.4,50.4,0,0,0,18-4.83c.73-.49,1.77-.19,1.31.41Z"/><path class="cls-74" d="M131.89,12.08c0,1.62-.89,1.55-1.71,1.67l-4.55.67-.1-.29c2.11-.7,4.19-1.55,6.34-2.07a40.43,40.43,0,0,1,23,.82,15.79,15.79,0,0,1,7,4.46A8.23,8.23,0,0,1,164,23.06c-2.38-1.6-4.64-3.38-7.13-4.75a42.85,42.85,0,0,0-20.45-5c-.58,0-1.26.2-1.48-.67,0-.05-.62-.09-.73,0C133.37,13.81,132.83,13.77,131.89,12.08Z"/><path class="cls-75" d="M107.85,17.59c2.79,5.61,7.55,8.77,12.72,11.41a47.66,47.66,0,0,0,15.6,4.76,27,27,0,0,1-9.19-.14,37.08,37.08,0,0,1-13.64-4.82,13.94,13.94,0,0,1-5.26-5.1A6.58,6.58,0,0,1,107.85,17.59Z"/><path class="cls-74" d="M129.8,31a34.18,34.18,0,0,1-10.62-4.72A19.76,19.76,0,0,1,113,20.48c-1.65-2.59-1.56-5.17.23-7.3a4.49,4.49,0,0,1,.43-.38C115.6,22,122.3,26.79,129.8,31Z"/><path class="cls-76" d="M118.13,17.24,119.39,15a8.43,8.43,0,0,1,.73,1.05c-.55.53-1.17,1-1.76,1.47Z"/><path class="cls-76" d="M137.48,15.72c.38-.14.79-.44,1.13-.36s.47.55.7.85l-.22.26-1.48-.31Z"/><path class="cls-74" d="M138.85,36.87l.57-.17.1,0,.43-.13h0a29.31,29.31,0,0,0,4.14-1.62,67.27,67.27,0,0,1-7.09.7h0a98.82,98.82,0,0,1-10.2-.32,37.12,37.12,0,0,1-18.42-7.23c-.89-.67-1.72-1.42-2.72-2.25a8.34,8.34,0,0,0,2,5.83,14.86,14.86,0,0,0,5.9,4.16,36,36,0,0,0,14.72,2.54,41.15,41.15,0,0,0,9.85-1.27h0l.17,0,.47-.13Z"/><path class="cls-73" d="M145.77,35.15a65.53,65.53,0,0,0,6.52-4.07s-3.57,6-5.84,7.26c-1.76,1-.68-3.12-.68-3.12"/><path class="cls-74" d="M155.77,27.5a26.05,26.05,0,0,0-9.31-6.84c-1.88-.89-2-1.1-3.93-1.9-2.81-1.32-4.07-.72-4.07-.72s16.2,6.84,17.79,18.33a16.52,16.52,0,0,0,1.31-2.52C158.37,31.37,157.27,29.33,155.77,27.5Z"/><path class="cls-75" d="M159.71,23a25.73,25.73,0,0,0-10-5.71,38.49,38.49,0,0,0-8.81-2,7.32,7.32,0,0,0-5,.78,47.82,47.82,0,0,1,5.69,1.12c8.19,2.65,15.72,6.29,20.36,14.29.15-.5.31-.9.4-1.32C162.93,27.24,161.7,25,159.71,23Z"/><path class="cls-74" d="M132.33,12a43.29,43.29,0,0,0-8.27,2.83s8.79-1.61,12.1-1.42C137.15,13.37,134.65,11.32,132.33,12Z"/><path class="cls-73" d="M160.25,12.15a16.64,16.64,0,0,0-7-5.15,31.12,31.12,0,0,0-19-1.26,25,25,0,0,0-12.81,6.68l0,0a21.07,21.07,0,0,0-4,6,80.44,80.44,0,0,1,7.79-4.91C136.59,8.33,148.17,8.38,160.25,12.15Z"/></g></g></svg>