<?xml version="1.0" encoding="utf-8"?>
<!-- Generator: Adobe Illustrator 21.0.2, SVG Export Plug-In . SVG Version: 6.00 Build 0)  -->
<svg version="1.1" id="Layer_1" xmlns="http://www.w3.org/2000/svg" xmlns:xlink="http://www.w3.org/1999/xlink" x="0px" y="0px"
	 viewBox="0 0 267 100" style="enable-background:new 0 0 267 100;" xml:space="preserve">
<style type="text/css">
	.st0{fill:none;}
	.st1{fill:#959495;}
	.st2{opacity:0.15;}
	.st3{opacity:0;fill:#959495;}
	.st4{opacity:1.515200e-02;fill:#959495;}
	.st5{opacity:3.030300e-02;fill:#959495;}
	.st6{opacity:4.545500e-02;fill:#959495;}
	.st7{opacity:6.060600e-02;fill:#959495;}
	.st8{opacity:7.575800e-02;fill:#959495;}
	.st9{opacity:9.090900e-02;fill:#959495;}
	.st10{opacity:0.1061;fill:#959495;}
	.st11{opacity:0.1212;fill:#959495;}
	.st12{opacity:0.1364;fill:#959495;}
	.st13{opacity:0.1515;fill:#959495;}
	.st14{opacity:0.1667;fill:#959495;}
	.st15{opacity:0.1818;fill:#959495;}
	.st16{opacity:0.197;fill:#959495;}
	.st17{opacity:0.2121;fill:#959495;}
	.st18{opacity:0.2273;fill:#959495;}
	.st19{opacity:0.2424;fill:#959495;}
	.st20{opacity:0.2576;fill:#959495;}
	.st21{opacity:0.2727;fill:#959495;}
	.st22{opacity:0.2879;fill:#959495;}
	.st23{opacity:0.303;fill:#959495;}
	.st24{opacity:0.3182;fill:#959495;}
	.st25{opacity:0.3333;fill:#959495;}
	.st26{opacity:0.3485;fill:#959495;}
	.st27{opacity:0.3636;fill:#959495;}
	.st28{opacity:0.3788;fill:#959495;}
	.st29{opacity:0.3939;fill:#959495;}
	.st30{opacity:0.4091;fill:#959495;}
	.st31{opacity:0.4242;fill:#959495;}
	.st32{opacity:0.4394;fill:#959495;}
	.st33{opacity:0.4545;fill:#959495;}
	.st34{opacity:0.4697;fill:#959495;}
	.st35{opacity:0.4848;fill:#959495;}
	.st36{opacity:0.5;fill:#959495;}
	.st37{opacity:0.5152;fill:#959495;}
	.st38{opacity:0.5303;fill:#959495;}
	.st39{opacity:0.5455;fill:#959495;}
	.st40{opacity:0.5606;fill:#959495;}
	.st41{opacity:0.5758;fill:#959495;}
	.st42{opacity:0.5909;fill:#959495;}
	.st43{opacity:0.6061;fill:#959495;}
	.st44{opacity:0.6212;fill:#959495;}
	.st45{opacity:0.6364;fill:#959495;}
	.st46{opacity:0.6515;fill:#959495;}
	.st47{opacity:0.6667;fill:#959495;}
	.st48{opacity:0.6818;fill:#959495;}
	.st49{opacity:0.697;fill:#959495;}
	.st50{opacity:0.7121;fill:#959495;}
	.st51{opacity:0.7273;fill:#959495;}
	.st52{opacity:0.7424;fill:#959495;}
	.st53{opacity:0.7576;fill:#959495;}
	.st54{opacity:0.7727;fill:#959495;}
	.st55{opacity:0.7879;fill:#959495;}
	.st56{opacity:0.803;fill:#959495;}
	.st57{opacity:0.8182;fill:#959495;}
	.st58{opacity:0.8333;fill:#959495;}
	.st59{opacity:0.8485;fill:#959495;}
	.st60{opacity:0.8636;fill:#959495;}
	.st61{opacity:0.8788;fill:#959495;}
	.st62{opacity:0.8939;fill:#959495;}
	.st63{opacity:0.9091;fill:#959495;}
	.st64{opacity:0.9242;fill:#959495;}
	.st65{opacity:0.9394;fill:#959495;}
	.st66{opacity:0.9545;fill:#959495;}
	.st67{opacity:0.9697;fill:#959495;}
	.st68{opacity:0.9848;fill:#959495;}
	.st69{fill-rule:evenodd;clip-rule:evenodd;fill:#959495;}
</style>
<rect class="st0" width="267" height="100"/>
<g>
	<g>
		<path class="st1" d="M98.3,78.7c-0.7,0-1.3-0.1-1.8-0.3c-0.5-0.2-0.9-0.5-1.2-0.8c-0.3-0.4-0.5-0.8-0.7-1.2
			c-0.1-0.5-0.2-1-0.2-1.7v-4.6c0-1.3,0.3-2.2,0.9-2.9c0.6-0.7,1.6-1,3-1c1.4,0,2.4,0.3,3,1c0.6,0.7,0.9,1.6,0.9,2.9v4.7
			c0,1.3-0.3,2.3-0.9,2.9C100.6,78.4,99.6,78.7,98.3,78.7z M97.3,77.2c0.3,0.1,0.6,0.2,1,0.2c0.4,0,0.7-0.1,1-0.2
			c0.3-0.1,0.5-0.3,0.6-0.5s0.2-0.4,0.3-0.7c0-0.3,0.1-0.6,0.1-0.9v-5.4c0-0.4,0-0.7-0.1-0.9c0-0.2-0.1-0.5-0.3-0.7
			s-0.3-0.4-0.6-0.5c-0.3-0.1-0.6-0.1-1-0.1c-0.4,0-0.7,0-1,0.1c-0.3,0.1-0.5,0.2-0.6,0.5c-0.1,0.2-0.2,0.4-0.3,0.7
			c0,0.2-0.1,0.6-0.1,0.9v5.4c0,0.4,0,0.7,0.1,0.9c0,0.3,0.1,0.5,0.3,0.7C96.8,77,97,77.1,97.3,77.2z M97.8,65.3l1-3h1.9l-2,3H97.8z
			"/>
		<path class="st1" d="M107.7,78.6V66.3h3.5c1.2,0,2.1,0.3,2.7,0.9c0.6,0.6,0.8,1.4,0.8,2.5c0,1-0.3,1.8-0.9,2.3
			c-0.6,0.6-1.5,0.8-2.6,0.8h-1.6v5.7H107.7z M109.7,71.6h0.9c0.9,0,1.5-0.1,1.8-0.4c0.3-0.3,0.5-0.8,0.5-1.5c0-0.3,0-0.6,0-0.8
			c0-0.2-0.1-0.4-0.1-0.6c-0.1-0.2-0.1-0.3-0.2-0.4c-0.1-0.1-0.2-0.2-0.4-0.2c-0.2-0.1-0.4-0.1-0.6-0.1c-0.2,0-0.5,0-0.9,0h-0.9
			V71.6z"/>
		<path class="st1" d="M121.2,78.6v-11h-2.6v-1.3h7.1v1.3h-2.5v11H121.2z"/>
		<path class="st1" d="M130.4,78.6V66.3h2v12.3H130.4z"/>
		<path class="st1" d="M141.8,78.7c-0.6,0-1.1-0.1-1.6-0.2c-0.4-0.1-0.8-0.3-1.1-0.6c-0.3-0.2-0.5-0.5-0.7-0.9
			c-0.2-0.4-0.3-0.7-0.4-1.1c-0.1-0.4-0.1-0.8-0.1-1.3v-4.3c0-0.5,0-1,0.1-1.4c0.1-0.4,0.2-0.8,0.4-1.1c0.2-0.3,0.4-0.6,0.7-0.9
			c0.3-0.2,0.7-0.4,1.1-0.5c0.4-0.1,1-0.2,1.6-0.2c1.3,0,2.2,0.3,2.8,0.9c0.6,0.6,0.8,1.5,0.8,2.6v1h-1.9v-0.9c0-0.2,0-0.3,0-0.4
			c0-0.1,0-0.2,0-0.4c0-0.2,0-0.3,0-0.4c0-0.1-0.1-0.2-0.1-0.3c0-0.1-0.1-0.2-0.1-0.3c-0.1-0.1-0.1-0.1-0.2-0.2
			c-0.1-0.1-0.2-0.1-0.3-0.2c-0.1,0-0.2-0.1-0.4-0.1c-0.1,0-0.3,0-0.5,0c-0.3,0-0.5,0-0.7,0.1c-0.2,0.1-0.4,0.1-0.5,0.2
			c-0.1,0.1-0.2,0.2-0.3,0.4c-0.1,0.1-0.1,0.3-0.2,0.5c0,0.2-0.1,0.4-0.1,0.6c0,0.2,0,0.4,0,0.7v4.9c0,0.9,0.1,1.6,0.4,1.9
			c0.3,0.4,0.8,0.5,1.4,0.5c0.3,0,0.5,0,0.7-0.1c0.2,0,0.4-0.1,0.5-0.2c0.1-0.1,0.2-0.2,0.3-0.4c0.1-0.1,0.1-0.3,0.2-0.5
			c0-0.2,0.1-0.4,0.1-0.6c0-0.2,0-0.4,0-0.7V74h1.9v0.9c0,0.5,0,0.9-0.1,1.3c-0.1,0.4-0.2,0.7-0.4,1c-0.2,0.3-0.4,0.6-0.7,0.8
			c-0.3,0.2-0.6,0.4-1,0.5C142.8,78.7,142.4,78.7,141.8,78.7z"/>
		<path class="st1" d="M150.1,78.6l3.1-12.3h1.9l3.1,12.3h-1.9l-0.7-3.1h-2.9l-0.7,3.1H150.1z M152.9,74.3h2.4l-1.2-5.5L152.9,74.3z
			"/>
		<path class="st1" d="M166.5,78.7c-1.2,0-2.1-0.3-2.7-1c-0.6-0.6-1-1.5-1.1-2.6l1.8-0.4c0.1,1.8,0.8,2.6,2,2.6
			c0.5,0,0.9-0.1,1.2-0.4c0.3-0.2,0.4-0.6,0.4-1.1c0-0.3,0-0.5-0.1-0.7c-0.1-0.2-0.2-0.4-0.4-0.6c-0.2-0.2-0.3-0.4-0.5-0.5
			c-0.1-0.1-0.4-0.3-0.6-0.5l-2.4-1.8c-0.5-0.4-0.8-0.8-1.1-1.2c-0.2-0.4-0.3-0.9-0.3-1.5c0-0.9,0.3-1.6,0.9-2.1
			c0.6-0.5,1.4-0.7,2.5-0.8c1.1,0,2,0.2,2.6,0.8c0.6,0.5,0.9,1.3,1,2.4l-1.7,0.4c0-0.3-0.1-0.5-0.1-0.7c0-0.2-0.1-0.4-0.2-0.6
			c-0.1-0.2-0.2-0.4-0.3-0.5c-0.1-0.1-0.3-0.2-0.5-0.3c-0.2-0.1-0.5-0.1-0.8-0.1c-1.1,0.1-1.6,0.5-1.6,1.3c0,0.4,0.1,0.7,0.2,0.9
			c0.1,0.2,0.4,0.5,0.7,0.8l2.4,1.8c0.6,0.5,1.1,1,1.5,1.6c0.4,0.6,0.6,1.2,0.6,1.9c0,0.9-0.3,1.6-0.9,2.1
			C168.3,78.5,167.5,78.7,166.5,78.7z"/>
	</g>
	<g>
		<path class="st1" d="M101.3,97.1c-0.5,0.1-1.2,0.2-1.9,0.2c-0.7,0-1.4-0.1-1.9-0.2c-0.6-0.1-1-0.3-1.3-0.5
			c-0.3-0.2-0.6-0.5-0.8-0.9c-0.2-0.4-0.4-0.7-0.4-1.1c-0.1-0.4-0.1-0.9-0.1-1.4v-7.8H97v7.9c0,0.3,0,0.6,0,0.9
			c0,0.2,0.1,0.5,0.2,0.7c0.1,0.3,0.2,0.5,0.4,0.6c0.2,0.2,0.4,0.3,0.7,0.4c0.3,0.1,0.6,0.1,1,0.1c0.4,0,0.7,0,1-0.1
			c0.3-0.1,0.5-0.2,0.7-0.4c0.2-0.2,0.3-0.4,0.4-0.6c0.1-0.2,0.2-0.5,0.2-0.7c0-0.2,0-0.5,0-0.9v-7.9h2.3v7.8c0,0.5,0,1-0.1,1.4
			c-0.1,0.4-0.2,0.8-0.4,1.1c-0.2,0.4-0.5,0.6-0.8,0.9C102.3,96.8,101.9,97,101.3,97.1z"/>
		<path class="st1" d="M113.1,97.2V85.3h1.7l5,7.9v-7.9h2v11.8h-1.6l-5-8.1v8.1H113.1z"/>
		<path class="st1" d="M131.1,97.2V85.3h2.4v11.8H131.1z"/>
		<path class="st1" d="M147.3,97.3c-0.9,0-1.6-0.1-2.2-0.3c-0.6-0.2-1.1-0.4-1.5-0.8c-0.4-0.3-0.6-0.7-0.8-1.2
			c-0.2-0.5-0.3-1-0.3-1.6V89c0-1.2,0.4-2.2,1.1-2.8c0.7-0.6,2-1,3.7-1c1.7,0,2.9,0.3,3.7,1c0.7,0.6,1.1,1.6,1.1,2.8v4.5
			c0,1.2-0.4,2.2-1.1,2.8C150.2,97,149,97.3,147.3,97.3z M146.1,95.8c0.3,0.1,0.7,0.2,1.2,0.2c0.5,0,0.9-0.1,1.2-0.2
			c0.3-0.1,0.6-0.3,0.7-0.5c0.2-0.2,0.3-0.4,0.3-0.7c0.1-0.2,0.1-0.5,0.1-0.9v-5.2c0-0.4,0-0.7-0.1-0.9c-0.1-0.2-0.2-0.5-0.3-0.7
			c-0.2-0.2-0.4-0.3-0.7-0.4c-0.3-0.1-0.7-0.1-1.2-0.1c-0.5,0-0.9,0-1.2,0.1c-0.3,0.1-0.6,0.2-0.7,0.4c-0.2,0.2-0.3,0.4-0.3,0.7
			c-0.1,0.2-0.1,0.5-0.1,0.9v5.2c0,0.4,0,0.7,0.1,0.9c0.1,0.2,0.2,0.5,0.3,0.7C145.5,95.6,145.8,95.7,146.1,95.8z M146.7,84.3
			l1.3-2.9h2.3l-2.4,2.9H146.7z"/>
		<path class="st1" d="M161,97.2V85.3h1.7l5,7.9v-7.9h2v11.8h-1.6l-5-8.1v8.1H161z"/>
	</g>
	<g class="st2">
		<path class="st3" d="M177.5,51c0,1.2-20.3,2.2-45.2,2.2c-25,0-45.2-1-45.2-2.2c0-1.2,20.2-2.2,45.2-2.2
			C157.2,48.8,177.5,49.8,177.5,51z"/>
		<path class="st4" d="M176.9,51c0,1.2-20,2.2-44.7,2.2c-24.7,0-44.7-1-44.7-2.2c0-1.2,20-2.2,44.7-2.2
			C156.9,48.9,176.9,49.8,176.9,51z"/>
		<path class="st5" d="M176.4,51c0,1.2-19.8,2.1-44.1,2.1c-24.4,0-44.1-1-44.1-2.1c0-1.2,19.8-2.1,44.1-2.1
			C156.6,48.9,176.4,49.8,176.4,51z"/>
		<path class="st6" d="M175.8,51c0,1.2-19.5,2.1-43.6,2.1c-24.1,0-43.6-0.9-43.6-2.1c0-1.2,19.5-2.1,43.6-2.1
			C156.3,48.9,175.8,49.9,175.8,51z"/>
		<path class="st7" d="M175.3,51c0,1.2-19.3,2.1-43,2.1c-23.8,0-43-0.9-43-2.1c0-1.2,19.3-2.1,43-2.1C156,48.9,175.3,49.9,175.3,51z
			"/>
		<path class="st8" d="M174.7,51c0,1.1-19,2.1-42.5,2.1c-23.5,0-42.5-0.9-42.5-2.1c0-1.1,19-2.1,42.5-2.1
			C155.7,49,174.7,49.9,174.7,51z"/>
		<path class="st9" d="M174.2,51c0,1.1-18.8,2-41.9,2c-23.1,0-41.9-0.9-41.9-2c0-1.1,18.8-2,41.9-2C155.4,49,174.2,49.9,174.2,51z"
			/>
		<path class="st10" d="M173.6,51c0,1.1-18.5,2-41.4,2c-22.8,0-41.4-0.9-41.4-2c0-1.1,18.5-2,41.4-2C155.1,49,173.6,49.9,173.6,51z"
			/>
		<path class="st11" d="M173.1,51c0,1.1-18.3,2-40.8,2c-22.5,0-40.8-0.9-40.8-2c0-1.1,18.3-2,40.8-2C154.8,49.1,173.1,49.9,173.1,51
			z"/>
		<path class="st12" d="M172.5,51c0,1.1-18,1.9-40.3,1.9C110,53,92,52.1,92,51c0-1.1,18-1.9,40.3-1.9C154.5,49.1,172.5,50,172.5,51z
			"/>
		<path class="st13" d="M172,51c0,1.1-17.8,1.9-39.7,1.9c-21.9,0-39.7-0.9-39.7-1.9c0-1.1,17.8-1.9,39.7-1.9
			C154.2,49.1,172,50,172,51z"/>
		<path class="st14" d="M171.4,51c0,1-17.5,1.9-39.2,1.9c-21.6,0-39.2-0.8-39.2-1.9c0-1,17.5-1.9,39.2-1.9
			C153.9,49.2,171.4,50,171.4,51z"/>
		<path class="st15" d="M170.9,51c0,1-17.3,1.8-38.6,1.8c-21.3,0-38.6-0.8-38.6-1.8c0-1,17.3-1.8,38.6-1.8
			C153.6,49.2,170.9,50,170.9,51z"/>
		<path class="st16" d="M170.3,51c0,1-17,1.8-38.1,1.8c-21,0-38.1-0.8-38.1-1.8c0-1,17-1.8,38.1-1.8C153.3,49.2,170.3,50,170.3,51z"
			/>
		<path class="st17" d="M169.7,51c0,1-16.8,1.8-37.5,1.8c-20.7,0-37.5-0.8-37.5-1.8c0-1,16.8-1.8,37.5-1.8
			C153,49.2,169.7,50,169.7,51z"/>
		<path class="st18" d="M169.2,51c0,1-16.5,1.8-37,1.8c-20.4,0-37-0.8-37-1.8c0-1,16.5-1.8,37-1.8C152.7,49.3,169.2,50.1,169.2,51z"
			/>
		<path class="st19" d="M168.6,51c0,1-16.3,1.7-36.4,1.7c-20.1,0-36.4-0.8-36.4-1.7c0-1,16.3-1.7,36.4-1.7
			C152.3,49.3,168.6,50.1,168.6,51z"/>
		<path class="st20" d="M168.1,51c0,0.9-16.1,1.7-35.9,1.7c-19.8,0-35.9-0.8-35.9-1.7c0-0.9,16.1-1.7,35.9-1.7
			C152,49.3,168.1,50.1,168.1,51z"/>
		<path class="st21" d="M167.5,51c0,0.9-15.8,1.7-35.3,1.7c-19.5,0-35.3-0.7-35.3-1.7c0-0.9,15.8-1.7,35.3-1.7
			C151.7,49.4,167.5,50.1,167.5,51z"/>
		<path class="st22" d="M167,51c0,0.9-15.6,1.6-34.8,1.6c-19.2,0-34.8-0.7-34.8-1.6c0-0.9,15.6-1.6,34.8-1.6
			C151.4,49.4,167,50.1,167,51z"/>
		<path class="st23" d="M166.4,51c0,0.9-15.3,1.6-34.2,1.6C113.3,52.6,98,51.9,98,51c0-0.9,15.3-1.6,34.2-1.6
			C151.1,49.4,166.4,50.1,166.4,51z"/>
		<path class="st24" d="M165.9,51c0,0.9-15.1,1.6-33.7,1.6c-18.6,0-33.6-0.7-33.6-1.6c0-0.9,15.1-1.6,33.6-1.6
			C150.8,49.5,165.9,50.2,165.9,51z"/>
		<path class="st25" d="M165.3,51c0,0.9-14.8,1.5-33.1,1.5c-18.3,0-33.1-0.7-33.1-1.5c0-0.9,14.8-1.5,33.1-1.5
			C150.5,49.5,165.3,50.2,165.3,51z"/>
		<path class="st26" d="M164.8,51c0,0.8-14.6,1.5-32.6,1.5c-18,0-32.5-0.7-32.5-1.5c0-0.8,14.6-1.5,32.5-1.5
			C150.2,49.5,164.8,50.2,164.8,51z"/>
		<path class="st27" d="M164.2,51c0,0.8-14.3,1.5-32,1.5c-17.7,0-32-0.7-32-1.5c0-0.8,14.3-1.5,32-1.5
			C149.9,49.5,164.2,50.2,164.2,51z"/>
		<path class="st28" d="M163.7,51c0,0.8-14.1,1.5-31.5,1.5c-17.4,0-31.4-0.7-31.4-1.5c0-0.8,14.1-1.5,31.4-1.5
			C149.6,49.6,163.7,50.2,163.7,51z"/>
		<path class="st29" d="M163.1,51c0,0.8-13.8,1.4-30.9,1.4c-17.1,0-30.9-0.6-30.9-1.4c0-0.8,13.8-1.4,30.9-1.4
			C149.3,49.6,163.1,50.2,163.1,51z"/>
		<path class="st30" d="M162.6,51c0,0.8-13.6,1.4-30.3,1.4c-16.8,0-30.3-0.6-30.3-1.4c0-0.8,13.6-1.4,30.3-1.4
			C149,49.6,162.6,50.3,162.6,51z"/>
		<path class="st31" d="M162,51c0,0.8-13.3,1.4-29.8,1.4c-16.5,0-29.8-0.6-29.8-1.4c0-0.8,13.3-1.4,29.8-1.4
			C148.7,49.7,162,50.3,162,51z"/>
		<path class="st32" d="M161.5,51c0,0.7-13.1,1.3-29.2,1.3c-16.1,0-29.2-0.6-29.2-1.3c0-0.7,13.1-1.3,29.2-1.3
			C148.4,49.7,161.5,50.3,161.5,51z"/>
		<path class="st33" d="M160.9,51c0,0.7-12.8,1.3-28.7,1.3c-15.8,0-28.7-0.6-28.7-1.3c0-0.7,12.8-1.3,28.7-1.3
			C148.1,49.7,160.9,50.3,160.9,51z"/>
		<path class="st34" d="M160.4,51c0,0.7-12.6,1.3-28.1,1.3c-15.5,0-28.1-0.6-28.1-1.3c0-0.7,12.6-1.3,28.1-1.3
			C147.8,49.8,160.4,50.3,160.4,51z"/>
		<path class="st35" d="M159.8,51c0,0.7-12.4,1.2-27.6,1.2c-15.2,0-27.6-0.6-27.6-1.2c0-0.7,12.4-1.2,27.6-1.2
			C147.5,49.8,159.8,50.3,159.8,51z"/>
		<path class="st36" d="M159.3,51c0,0.7-12.1,1.2-27,1.2c-14.9,0-27-0.5-27-1.2c0-0.7,12.1-1.2,27-1.2
			C147.2,49.8,159.3,50.4,159.3,51z"/>
		<path class="st37" d="M158.7,51c0,0.7-11.9,1.2-26.5,1.2c-14.6,0-26.5-0.5-26.5-1.2c0-0.7,11.9-1.2,26.5-1.2
			C146.9,49.8,158.7,50.4,158.7,51z"/>
		<path class="st38" d="M158.2,51c0,0.6-11.6,1.2-25.9,1.2c-14.3,0-25.9-0.5-25.9-1.2c0-0.6,11.6-1.2,25.9-1.2
			C146.6,49.9,158.2,50.4,158.2,51z"/>
		<path class="st39" d="M157.6,51c0,0.6-11.4,1.1-25.4,1.1c-14,0-25.4-0.5-25.4-1.1c0-0.6,11.4-1.1,25.4-1.1
			C146.3,49.9,157.6,50.4,157.6,51z"/>
		<path class="st40" d="M157.1,51c0,0.6-11.1,1.1-24.8,1.1c-13.7,0-24.8-0.5-24.8-1.1c0-0.6,11.1-1.1,24.8-1.1
			C146,49.9,157.1,50.4,157.1,51z"/>
		<path class="st41" d="M156.5,51c0,0.6-10.9,1.1-24.3,1.1c-13.4,0-24.3-0.5-24.3-1.1c0-0.6,10.9-1.1,24.3-1.1
			C145.6,50,156.5,50.4,156.5,51z"/>
		<path class="st42" d="M156,51c0,0.6-10.6,1-23.7,1c-13.1,0-23.7-0.5-23.7-1c0-0.6,10.6-1,23.7-1C145.3,50,156,50.5,156,51z"/>
		<path class="st43" d="M155.4,51c0,0.6-10.4,1-23.2,1c-12.8,0-23.2-0.5-23.2-1c0-0.6,10.4-1,23.2-1C145,50,155.4,50.5,155.4,51z"/>
		<path class="st44" d="M154.9,51c0,0.5-10.1,1-22.6,1c-12.5,0-22.6-0.4-22.6-1c0-0.5,10.1-1,22.6-1C144.7,50.1,154.9,50.5,154.9,51
			z"/>
		<path class="st45" d="M154.3,51c0,0.5-9.9,0.9-22.1,0.9c-12.2,0-22.1-0.4-22.1-0.9c0-0.5,9.9-0.9,22.1-0.9
			C144.4,50.1,154.3,50.5,154.3,51z"/>
		<path class="st46" d="M153.8,51c0,0.5-9.6,0.9-21.5,0.9c-11.9,0-21.5-0.4-21.5-0.9c0-0.5,9.6-0.9,21.5-0.9
			C144.1,50.1,153.8,50.5,153.8,51z"/>
		<path class="st47" d="M153.2,51c0,0.5-9.4,0.9-21,0.9c-11.6,0-21-0.4-21-0.9c0-0.5,9.4-0.9,21-0.9C143.8,50.1,153.2,50.5,153.2,51
			z"/>
		<path class="st48" d="M152.7,51c0,0.5-9.1,0.9-20.4,0.9c-11.3,0-20.4-0.4-20.4-0.9c0-0.5,9.1-0.9,20.4-0.9
			C143.5,50.2,152.7,50.6,152.7,51z"/>
		<path class="st49" d="M152.1,51c0,0.5-8.9,0.8-19.9,0.8c-11,0-19.9-0.4-19.9-0.8c0-0.5,8.9-0.8,19.9-0.8
			C143.2,50.2,152.1,50.6,152.1,51z"/>
		<path class="st50" d="M151.6,51c0,0.4-8.6,0.8-19.3,0.8c-10.7,0-19.3-0.4-19.3-0.8c0-0.4,8.7-0.8,19.3-0.8
			C142.9,50.2,151.6,50.6,151.6,51z"/>
		<path class="st51" d="M151,51c0,0.4-8.4,0.8-18.8,0.8c-10.4,0-18.8-0.3-18.8-0.8c0-0.4,8.4-0.8,18.8-0.8
			C142.6,50.3,151,50.6,151,51z"/>
		<path class="st52" d="M150.5,51c0,0.4-8.2,0.7-18.2,0.7c-10.1,0-18.2-0.3-18.2-0.7c0-0.4,8.2-0.7,18.2-0.7
			C142.3,50.3,150.5,50.6,150.5,51z"/>
		<path class="st53" d="M149.9,51c0,0.4-7.9,0.7-17.7,0.7c-9.8,0-17.7-0.3-17.7-0.7c0-0.4,7.9-0.7,17.7-0.7
			C142,50.3,149.9,50.6,149.9,51z"/>
		<path class="st54" d="M149.3,51c0,0.4-7.7,0.7-17.1,0.7c-9.4,0-17.1-0.3-17.1-0.7c0-0.4,7.7-0.7,17.1-0.7
			C141.7,50.4,149.3,50.7,149.3,51z"/>
		<path class="st55" d="M148.8,51c0,0.4-7.4,0.6-16.6,0.6c-9.1,0-16.6-0.3-16.6-0.6c0-0.4,7.4-0.6,16.6-0.6
			C141.4,50.4,148.8,50.7,148.8,51z"/>
		<path class="st56" d="M148.2,51c0,0.3-7.2,0.6-16,0.6c-8.8,0-16-0.3-16-0.6c0-0.3,7.2-0.6,16-0.6C141.1,50.4,148.2,50.7,148.2,51z
			"/>
		<path class="st57" d="M147.7,51c0,0.3-6.9,0.6-15.5,0.6c-8.5,0-15.5-0.3-15.5-0.6c0-0.3,6.9-0.6,15.5-0.6
			C140.8,50.4,147.7,50.7,147.7,51z"/>
		<path class="st58" d="M147.1,51c0,0.3-6.7,0.6-14.9,0.6c-8.2,0-14.9-0.3-14.9-0.6c0-0.3,6.7-0.6,14.9-0.6
			C140.5,50.5,147.1,50.7,147.1,51z"/>
		<path class="st59" d="M146.6,51c0,0.3-6.4,0.5-14.4,0.5c-7.9,0-14.4-0.2-14.4-0.5c0-0.3,6.4-0.5,14.4-0.5
			C140.2,50.5,146.6,50.7,146.6,51z"/>
		<path class="st60" d="M146,51c0,0.3-6.2,0.5-13.8,0.5c-7.6,0-13.8-0.2-13.8-0.5c0-0.3,6.2-0.5,13.8-0.5
			C139.9,50.5,146,50.8,146,51z"/>
		<path class="st61" d="M145.5,51c0,0.3-5.9,0.5-13.3,0.5c-7.3,0-13.3-0.2-13.3-0.5c0-0.3,5.9-0.5,13.3-0.5
			C139.6,50.6,145.5,50.8,145.5,51z"/>
		<path class="st62" d="M144.9,51c0,0.2-5.7,0.4-12.7,0.4c-7,0-12.7-0.2-12.7-0.4c0-0.2,5.7-0.4,12.7-0.4
			C139.3,50.6,144.9,50.8,144.9,51z"/>
		<path class="st63" d="M144.4,51c0,0.2-5.4,0.4-12.2,0.4c-6.7,0-12.2-0.2-12.2-0.4c0-0.2,5.4-0.4,12.2-0.4
			C138.9,50.6,144.4,50.8,144.4,51z"/>
		<path class="st64" d="M143.8,51c0,0.2-5.2,0.4-11.6,0.4c-6.4,0-11.6-0.2-11.6-0.4c0-0.2,5.2-0.4,11.6-0.4
			C138.6,50.7,143.8,50.8,143.8,51z"/>
		<path class="st65" d="M143.3,51c0,0.2-4.9,0.3-11.1,0.3c-6.1,0-11-0.2-11-0.3c0-0.2,5-0.3,11-0.3C138.3,50.7,143.3,50.8,143.3,51z
			"/>
		<path class="st66" d="M142.7,51c0,0.2-4.7,0.3-10.5,0.3c-5.8,0-10.5-0.1-10.5-0.3c0-0.2,4.7-0.3,10.5-0.3
			C138,50.7,142.7,50.9,142.7,51z"/>
		<path class="st67" d="M142.2,51c0,0.2-4.4,0.3-9.9,0.3c-5.5,0-9.9-0.1-9.9-0.3c0-0.2,4.5-0.3,9.9-0.3
			C137.7,50.7,142.2,50.9,142.2,51z"/>
		<path class="st68" d="M141.6,51c0,0.1-4.2,0.3-9.4,0.3c-5.2,0-9.4-0.1-9.4-0.3c0-0.1,4.2-0.3,9.4-0.3
			C137.4,50.8,141.6,50.9,141.6,51z"/>
		<path class="st1" d="M141.1,51c0,0.1-4,0.2-8.8,0.2c-4.9,0-8.8-0.1-8.8-0.2c0-0.1,4-0.2,8.8-0.2C137.1,50.8,141.1,50.9,141.1,51z"
			/>
	</g>
	<path class="st69" d="M147.2,35.9c0.6,0.6,0.3,1-0.2,1.4c-3.7,3.5-8,5.5-12.9,6.6c-6.8,1.5-13.5,1.3-20-1.3c-2.7-1.1-5-2.7-7.1-5.3
		c6.7,2,13.1,3.1,19.8,2.7c6.5-0.3,12.7-2.3,18.7-5c0.8-0.5,1.8-0.2,1.4,0.4C147,35.5,147.1,35.7,147.2,35.9z"/>
	<path class="st69" d="M130.4,11.3c0,1.7-0.9,1.6-1.8,1.7c-1.6,0.2-3.2,0.5-4.7,0.7c0-0.1-0.1-0.2-0.1-0.3
		C126,12.7,128.1,11.8,130.4,11.3c8-1.9,16-1.9,23.9,0.8c2.8,1,5.3,2.4,7.3,4.6c1.5,1.7,2.3,3.7,2.3,6c-2.5-1.7-4.8-3.5-7.4-4.9
		c-6.6-3.6-13.8-5.1-21.3-5.2c-0.6,0-1.3,0.2-1.5-0.7c0-0.1-0.6-0.1-0.8,0C131.9,13.1,131.4,13,130.4,11.3z"/>
	<path class="st69" d="M105.4,17c2.9,5.8,7.9,9.1,13.2,11.9c5.1,2.6,10.5,4.2,16.2,5c-3.2,0.6-6.4,0.4-9.6-0.2
		c-5-0.8-9.8-2.3-14.2-5c-2.2-1.4-4.2-3-5.5-5.3C104.5,21.4,104.4,19.3,105.4,17z"/>
	<path class="st69" d="M128.2,30.9c-4-1-7.6-2.7-11-4.9c-2.5-1.6-4.8-3.5-6.4-6c-1.7-2.7-1.6-5.4,0.2-7.6c0.1-0.1,0.2-0.2,0.4-0.4
		C113.4,21.6,120.4,26.6,128.2,30.9z"/>
	<path class="st69" d="M116.1,16.6c0.4-0.7,0.8-1.4,1.3-2.4c0.4,0.5,0.8,1.1,0.8,1.1c-0.6,0.6-1.2,1-1.8,1.5
		C116.2,16.8,116.2,16.7,116.1,16.6z"/>
	<path class="st69" d="M136.2,15c0.4-0.1,0.8-0.5,1.2-0.4c0.3,0.1,0.5,0.6,0.7,0.9c-0.1,0.1-0.1,0.2-0.2,0.3c-0.5-0.1-1-0.2-1.5-0.3
		C136.3,15.3,136.2,15.2,136.2,15z"/>
	<path class="st69" d="M137.6,37c0.2-0.1,0.4-0.1,0.6-0.2c0,0,0.1,0,0.1,0c0.1,0,0.3-0.1,0.4-0.1l0,0c2.7-0.9,4.3-1.7,4.3-1.7
		s-5.2,0.8-7.4,0.7c0,0,0,0,0,0c-3.5,0-7.1,0.1-10.6-0.3c-7-0.8-13.5-3.2-19.2-7.5c-0.9-0.7-1.8-1.5-2.8-2.3
		c-0.1,2.4,0.7,4.4,2.1,6.1c1.6,2,3.8,3.3,6.1,4.3c4.9,2.1,10,2.7,15.3,2.6c3.5,0,7-0.5,10.2-1.3c0,0,0,0,0,0c0.1,0,0.1,0,0.2,0
		C137.2,37.2,137.4,37.1,137.6,37C137.6,37.1,137.6,37,137.6,37z"/>
	<path class="st69" d="M144.8,35.3c2.9-1.5,6.8-4.2,6.8-4.2s-3.7,6.2-6.1,7.5C143.7,39.6,144.8,35.3,144.8,35.3"/>
	<path class="st69" d="M155.2,27.3c-2.6-3.2-6-5.4-9.7-7.1c-2-0.9-2.1-1.1-4.1-2c-2.9-1.4-4.2-0.7-4.2-0.7s16.9,7.1,18.5,19.1
		c0.5-0.9,1.1-1.7,1.4-2.6C157.9,31.3,156.8,29.2,155.2,27.3z"/>
	<path class="st69" d="M159.3,22.6c-2.9-2.9-6.6-4.6-10.4-5.9c-3-1-6-1.7-9.2-2c-3.3-0.5-5.2,0.8-5.2,0.8s3.9,0.5,5.9,1.2
		c8.5,2.8,16.4,6.5,21.2,14.9c0.2-0.5,0.3-0.9,0.4-1.4C162.7,27,161.4,24.6,159.3,22.6z"/>
	<path class="st69" d="M130.9,11.1c-5.5,1.4-8.6,2.9-8.6,2.9s9.1-1.7,12.6-1.5C135.9,12.6,133.3,10.5,130.9,11.1z"/>
	<path class="st69" d="M159.9,11.3c-2.1-2.6-4.5-4.2-7.2-5.4c-6.4-2.6-13-2.8-19.7-1.3c-5.1,1.1-9.7,3.2-13.3,6.9c0,0,0,0,0,0
		c-2.5,2.4-4.1,6.2-4.1,6.2s5.2-3.7,8.1-5.1C135.3,7.4,147.3,7.4,159.9,11.3z"/>
</g>
</svg>
