<?xml version="1.0" encoding="utf-8"?>
<!-- Generator: Adobe Illustrator 21.0.2, SVG Export Plug-In . SVG Version: 6.00 Build 0)  -->
<svg version="1.1" id="Layer_1" xmlns="http://www.w3.org/2000/svg" xmlns:xlink="http://www.w3.org/1999/xlink" x="0px" y="0px"
	 viewBox="0 0 267 100" style="enable-background:new 0 0 267 100;" xml:space="preserve">
<style type="text/css">
	.st0{fill:none;}
	.st1{opacity:0.15;}
	.st2{opacity:0;fill:#808285;}
	.st3{opacity:1.515152e-02;fill:#7D7F82;}
	.st4{opacity:3.030303e-02;fill:#7B7D7F;}
	.st5{opacity:4.545455e-02;fill:#797B7D;}
	.st6{opacity:6.060606e-02;fill:#77787B;}
	.st7{opacity:7.575758e-02;fill:#757679;}
	.st8{opacity:9.090909e-02;fill:#747476;}
	.st9{opacity:0.1061;fill:#727274;}
	.st10{opacity:0.1212;fill:#707072;}
	.st11{opacity:0.1364;fill:#6E6E70;}
	.st12{opacity:0.1515;fill:#6C6C6E;}
	.st13{opacity:0.1667;fill:#6A6A6C;}
	.st14{opacity:0.1818;fill:#68686A;}
	.st15{opacity:0.197;fill:#676668;}
	.st16{opacity:0.2121;fill:#656466;}
	.st17{opacity:0.2273;fill:#636264;}
	.st18{opacity:0.2424;fill:#616062;}
	.st19{opacity:0.2576;fill:#5F5E60;}
	.st20{opacity:0.2727;fill:#5E5C5E;}
	.st21{opacity:0.2879;fill:#5C5B5C;}
	.st22{opacity:0.303;fill:#5A595A;}
	.st23{opacity:0.3182;fill:#585758;}
	.st24{opacity:0.3333;fill:#575556;}
	.st25{opacity:0.3485;fill:#555355;}
	.st26{opacity:0.3636;fill:#535253;}
	.st27{opacity:0.3788;fill:#525051;}
	.st28{opacity:0.3939;fill:#504E4F;}
	.st29{opacity:0.4091;fill:#4E4C4D;}
	.st30{opacity:0.4242;fill:#4D4B4C;}
	.st31{opacity:0.4394;fill:#4B494A;}
	.st32{opacity:0.4545;fill:#494748;}
	.st33{opacity:0.4697;fill:#484647;}
	.st34{opacity:0.4848;fill:#464445;}
	.st35{opacity:0.5;fill:#454343;}
	.st36{opacity:0.5152;fill:#434142;}
	.st37{opacity:0.5303;fill:#424040;}
	.st38{opacity:0.5455;fill:#403E3F;}
	.st39{opacity:0.5606;fill:#3F3D3D;}
	.st40{opacity:0.5758;fill:#3D3B3C;}
	.st41{opacity:0.5909;fill:#3C3A3A;}
	.st42{opacity:0.6061;fill:#3B3839;}
	.st43{opacity:0.6212;fill:#393738;}
	.st44{opacity:0.6364;fill:#383636;}
	.st45{opacity:0.6515;fill:#363435;}
	.st46{opacity:0.6667;fill:#353333;}
	.st47{opacity:0.6818;fill:#343132;}
	.st48{opacity:0.697;fill:#323031;}
	.st49{opacity:0.7121;fill:#312F2F;}
	.st50{opacity:0.7273;fill:#302E2E;}
	.st51{opacity:0.7424;fill:#2F2C2D;}
	.st52{opacity:0.7576;fill:#2D2B2C;}
	.st53{opacity:0.7727;fill:#2C2A2A;}
	.st54{opacity:0.7879;fill:#2B2829;}
	.st55{opacity:0.803;fill:#2A2728;}
	.st56{opacity:0.8182;fill:#282627;}
	.st57{opacity:0.8333;fill:#272525;}
	.st58{opacity:0.8485;fill:#262424;}
	.st59{opacity:0.8636;fill:#252223;}
	.st60{opacity:0.8788;fill:#242122;}
	.st61{opacity:0.8939;fill:#222021;}
	.st62{opacity:0.9091;fill:#211F1F;}
	.st63{opacity:0.9242;fill:#201E1E;}
	.st64{opacity:0.9394;fill:#1F1C1D;}
	.st65{opacity:0.9545;fill:#1E1B1C;}
	.st66{opacity:0.9697;fill:#1D1A1B;}
	.st67{opacity:0.9848;fill:#1B1919;}
	.st68{fill:#1A1818;}
	.st69{fill:#78797A;}
	.st70{fill-rule:evenodd;clip-rule:evenodd;fill:#78797A;}
</style>
<rect class="st0" width="267" height="100"/>
<g class="st1">
	<path class="st2" d="M177.4,50.9c0,1.2-19.9,2.2-44.4,2.2c-24.5,0-44.3-1-44.3-2.2c0-1.2,19.9-2.2,44.3-2.2
		C157.5,48.7,177.4,49.7,177.4,50.9z"/>
	<path class="st3" d="M176.9,50.9c0,1.2-19.6,2.1-43.8,2.1c-24.2,0-43.8-1-43.8-2.1c0-1.2,19.6-2.1,43.8-2.1
		C157.2,48.8,176.9,49.7,176.9,50.9z"/>
	<path class="st4" d="M176.3,50.9c0,1.2-19.4,2.1-43.3,2.1c-23.9,0-43.3-0.9-43.3-2.1c0-1.2,19.4-2.1,43.3-2.1
		C156.9,48.8,176.3,49.7,176.3,50.9z"/>
	<path class="st5" d="M175.8,50.9c0,1.1-19.1,2.1-42.7,2.1c-23.6,0-42.7-0.9-42.7-2.1c0-1.2,19.1-2.1,42.7-2.1
		C156.6,48.8,175.8,49.7,175.8,50.9z"/>
	<path class="st6" d="M175.2,50.9c0,1.1-18.9,2-42.2,2c-23.3,0-42.2-0.9-42.2-2c0-1.1,18.9-2,42.2-2
		C156.4,48.9,175.2,49.8,175.2,50.9z"/>
	<path class="st7" d="M174.7,50.9c0,1.1-18.6,2-41.7,2c-23,0-41.6-0.9-41.6-2c0-1.1,18.6-2,41.6-2C156.1,48.9,174.7,49.8,174.7,50.9
		z"/>
	<path class="st8" d="M174.2,50.9c0,1.1-18.4,2-41.1,2c-22.7,0-41.1-0.9-41.1-2c0-1.1,18.4-2,41.1-2
		C155.8,48.9,174.2,49.8,174.2,50.9z"/>
	<path class="st9" d="M173.6,50.9c0,1.1-18.2,2-40.6,2c-22.4,0-40.6-0.9-40.6-2c0-1.1,18.2-2,40.6-2
		C155.5,48.9,173.6,49.8,173.6,50.9z"/>
	<path class="st10" d="M173.1,50.9c0,1.1-17.9,1.9-40,1.9c-22.1,0-40-0.9-40-1.9c0-1.1,17.9-1.9,40-1.9
		C155.2,49,173.1,49.8,173.1,50.9z"/>
	<path class="st11" d="M172.5,50.9c0,1-17.7,1.9-39.5,1.9c-21.8,0-39.5-0.9-39.5-1.9c0-1.1,17.7-1.9,39.5-1.9
		C154.9,49,172.5,49.8,172.5,50.9z"/>
	<path class="st12" d="M172,50.9c0,1-17.4,1.9-38.9,1.9c-21.5,0-38.9-0.8-38.9-1.9c0-1,17.4-1.9,38.9-1.9
		C154.6,49,172,49.9,172,50.9z"/>
	<path class="st13" d="M171.5,50.9c0,1-17.2,1.8-38.4,1.8c-21.2,0-38.4-0.8-38.4-1.8c0-1,17.2-1.8,38.4-1.8
		C154.3,49.1,171.5,49.9,171.5,50.9z"/>
	<path class="st14" d="M170.9,50.9c0,1-17,1.8-37.9,1.8c-20.9,0-37.9-0.8-37.9-1.8c0-1,17-1.8,37.9-1.8
		C154,49.1,170.9,49.9,170.9,50.9z"/>
	<path class="st15" d="M170.4,50.9c0,1-16.7,1.8-37.3,1.8c-20.6,0-37.3-0.8-37.3-1.8c0-1,16.7-1.8,37.3-1.8
		C153.7,49.1,170.4,49.9,170.4,50.9z"/>
	<path class="st16" d="M169.8,50.9c0,1-16.5,1.8-36.8,1.8c-20.3,0-36.8-0.8-36.8-1.8c0-1,16.5-1.8,36.8-1.8
		C153.4,49.1,169.8,49.9,169.8,50.9z"/>
	<path class="st17" d="M169.3,50.9c0,1-16.2,1.7-36.2,1.7c-20,0-36.2-0.8-36.2-1.7c0-1,16.2-1.7,36.2-1.7
		C153.1,49.2,169.3,49.9,169.3,50.9z"/>
	<path class="st18" d="M168.8,50.9c0,0.9-16,1.7-35.7,1.7c-19.7,0-35.7-0.8-35.7-1.7c0-0.9,16-1.7,35.7-1.7
		C152.8,49.2,168.8,50,168.8,50.9z"/>
	<path class="st19" d="M168.2,50.9c0,0.9-15.7,1.7-35.2,1.7c-19.4,0-35.2-0.7-35.2-1.7c0-0.9,15.7-1.7,35.2-1.7
		C152.5,49.2,168.2,50,168.2,50.9z"/>
	<path class="st20" d="M167.7,50.9c0,0.9-15.5,1.6-34.6,1.6c-19.1,0-34.6-0.7-34.6-1.6c0-0.9,15.5-1.6,34.6-1.6
		C152.2,49.3,167.7,50,167.7,50.9z"/>
	<path class="st21" d="M167.1,50.9c0,0.9-15.3,1.6-34.1,1.6c-18.8,0-34.1-0.7-34.1-1.6c0-0.9,15.3-1.6,34.1-1.6
		C151.9,49.3,167.1,50,167.1,50.9z"/>
	<path class="st22" d="M166.6,50.9c0,0.9-15,1.6-33.5,1.6c-18.5,0-33.5-0.7-33.5-1.6c0-0.9,15-1.6,33.5-1.6
		C151.6,49.3,166.6,50,166.6,50.9z"/>
	<path class="st23" d="M166,50.9c0,0.9-14.8,1.5-33,1.5c-18.2,0-33-0.7-33-1.5c0-0.9,14.8-1.5,33-1.5C151.3,49.4,166,50,166,50.9z"
		/>
	<path class="st24" d="M165.5,50.9c0,0.8-14.5,1.5-32.5,1.5c-17.9,0-32.5-0.7-32.5-1.5c0-0.8,14.5-1.5,32.5-1.5
		C151,49.4,165.5,50.1,165.5,50.9z"/>
	<path class="st25" d="M165,50.9c0,0.8-14.3,1.5-31.9,1.5c-17.6,0-31.9-0.7-31.9-1.5c0-0.8,14.3-1.5,31.9-1.5
		C150.7,49.4,165,50.1,165,50.9z"/>
	<path class="st26" d="M164.4,50.9c0,0.8-14,1.5-31.4,1.5c-17.3,0-31.4-0.7-31.4-1.5c0-0.8,14-1.5,31.4-1.5
		C150.4,49.4,164.4,50.1,164.4,50.9z"/>
	<path class="st27" d="M163.9,50.9c0,0.8-13.8,1.4-30.8,1.4c-17,0-30.8-0.6-30.8-1.4c0-0.8,13.8-1.4,30.8-1.4
		C150.1,49.5,163.9,50.1,163.9,50.9z"/>
	<path class="st28" d="M163.3,50.9c0,0.8-13.6,1.4-30.3,1.4c-16.7,0-30.3-0.6-30.3-1.4c0-0.8,13.6-1.4,30.3-1.4
		C149.8,49.5,163.3,50.1,163.3,50.9z"/>
	<path class="st29" d="M162.8,50.9c0,0.8-13.3,1.4-29.8,1.4c-16.4,0-29.8-0.6-29.8-1.4c0-0.8,13.3-1.4,29.8-1.4
		C149.5,49.5,162.8,50.1,162.8,50.9z"/>
	<path class="st30" d="M162.3,50.9c0,0.7-13.1,1.3-29.2,1.3c-16.1,0-29.2-0.6-29.2-1.3c0-0.7,13.1-1.3,29.2-1.3
		C149.2,49.6,162.3,50.2,162.3,50.9z"/>
	<path class="st31" d="M161.7,50.9c0,0.7-12.8,1.3-28.7,1.3c-15.8,0-28.7-0.6-28.7-1.3c0-0.7,12.8-1.3,28.7-1.3
		C148.9,49.6,161.7,50.2,161.7,50.9z"/>
	<path class="st32" d="M161.2,50.9c0,0.7-12.6,1.3-28.1,1.3c-15.5,0-28.1-0.6-28.1-1.3c0-0.7,12.6-1.3,28.1-1.3
		C148.6,49.6,161.2,50.2,161.2,50.9z"/>
	<path class="st33" d="M160.6,50.9c0,0.7-12.4,1.3-27.6,1.3c-15.2,0-27.6-0.6-27.6-1.3c0-0.7,12.4-1.2,27.6-1.2
		C148.3,49.6,160.6,50.2,160.6,50.9z"/>
	<path class="st34" d="M160.1,50.9c0,0.7-12.1,1.2-27.1,1.2c-14.9,0-27-0.5-27-1.2c0-0.7,12.1-1.2,27-1.2
		C148,49.7,160.1,50.2,160.1,50.9z"/>
	<path class="st35" d="M159.6,50.9c0,0.7-11.9,1.2-26.5,1.2c-14.6,0-26.5-0.5-26.5-1.2c0-0.7,11.9-1.2,26.5-1.2
		C147.7,49.7,159.6,50.2,159.6,50.9z"/>
	<path class="st36" d="M159,50.9c0,0.6-11.6,1.2-26,1.2c-14.3,0-26-0.5-26-1.2c0-0.6,11.6-1.2,26-1.2C147.4,49.7,159,50.3,159,50.9z
		"/>
	<path class="st37" d="M158.5,50.9c0,0.6-11.4,1.1-25.4,1.1c-14,0-25.4-0.5-25.4-1.1c0-0.6,11.4-1.1,25.4-1.1
		C147.1,49.8,158.5,50.3,158.5,50.9z"/>
	<path class="st38" d="M157.9,50.9c0,0.6-11.1,1.1-24.9,1.1c-13.7,0-24.9-0.5-24.9-1.1c0-0.6,11.1-1.1,24.9-1.1
		C146.8,49.8,157.9,50.3,157.9,50.9z"/>
	<path class="st39" d="M157.4,50.9c0,0.6-10.9,1.1-24.4,1.1c-13.4,0-24.3-0.5-24.3-1.1c0-0.6,10.9-1.1,24.3-1.1
		C146.5,49.8,157.4,50.3,157.4,50.9z"/>
	<path class="st40" d="M156.9,50.9c0,0.6-10.7,1-23.8,1c-13.1,0-23.8-0.5-23.8-1c0-0.6,10.7-1,23.8-1
		C146.2,49.9,156.9,50.3,156.9,50.9z"/>
	<path class="st41" d="M156.3,50.9c0,0.6-10.4,1-23.3,1c-12.8,0-23.3-0.5-23.3-1c0-0.6,10.4-1,23.3-1
		C145.9,49.9,156.3,50.3,156.3,50.9z"/>
	<path class="st42" d="M155.8,50.9c0,0.5-10.2,1-22.7,1c-12.5,0-22.7-0.4-22.7-1c0-0.5,10.2-1,22.7-1
		C145.6,49.9,155.8,50.3,155.8,50.9z"/>
	<path class="st43" d="M155.2,50.9c0,0.5-9.9,1-22.2,1c-12.2,0-22.2-0.4-22.2-1c0-0.5,9.9-1,22.2-1
		C145.3,49.9,155.2,50.4,155.2,50.9z"/>
	<path class="st44" d="M154.7,50.9c0,0.5-9.7,0.9-21.6,0.9c-11.9,0-21.6-0.4-21.6-0.9c0-0.5,9.7-0.9,21.6-0.9
		C145,50,154.7,50.4,154.7,50.9z"/>
	<path class="st45" d="M154.2,50.9c0,0.5-9.4,0.9-21.1,0.9c-11.7,0-21.1-0.4-21.1-0.9c0-0.5,9.5-0.9,21.1-0.9
		C144.7,50,154.2,50.4,154.2,50.9z"/>
	<path class="st46" d="M153.6,50.9c0,0.5-9.2,0.9-20.6,0.9c-11.4,0-20.6-0.4-20.6-0.9c0-0.5,9.2-0.9,20.6-0.9
		C144.4,50,153.6,50.4,153.6,50.9z"/>
	<path class="st47" d="M153.1,50.9c0,0.5-9,0.8-20,0.8c-11.1,0-20-0.4-20-0.8c0-0.5,9-0.8,20-0.8C144.1,50.1,153.1,50.4,153.1,50.9z
		"/>
	<path class="st48" d="M152.5,50.9c0,0.4-8.7,0.8-19.5,0.8c-10.8,0-19.5-0.4-19.5-0.8c0-0.5,8.7-0.8,19.5-0.8
		C143.8,50.1,152.5,50.4,152.5,50.9z"/>
	<path class="st49" d="M152,50.9c0,0.4-8.5,0.8-18.9,0.8c-10.5,0-18.9-0.4-18.9-0.8c0-0.4,8.5-0.8,18.9-0.8
		C143.5,50.1,152,50.5,152,50.9z"/>
	<path class="st50" d="M151.5,50.9c0,0.4-8.2,0.8-18.4,0.8c-10.2,0-18.4-0.3-18.4-0.8c0-0.4,8.2-0.7,18.4-0.7
		C143.2,50.1,151.5,50.5,151.5,50.9z"/>
	<path class="st51" d="M150.9,50.9c0,0.4-8,0.7-17.9,0.7c-9.9,0-17.9-0.3-17.9-0.7c0-0.4,8-0.7,17.9-0.7
		C142.9,50.2,150.9,50.5,150.9,50.9z"/>
	<path class="st52" d="M150.4,50.9c0,0.4-7.8,0.7-17.3,0.7c-9.6,0-17.3-0.3-17.3-0.7c0-0.4,7.8-0.7,17.3-0.7
		C142.6,50.2,150.4,50.5,150.4,50.9z"/>
	<path class="st53" d="M149.8,50.9c0,0.4-7.5,0.7-16.8,0.7c-9.3,0-16.8-0.3-16.8-0.7c0-0.4,7.5-0.7,16.8-0.7
		C142.3,50.2,149.8,50.5,149.8,50.9z"/>
	<path class="st54" d="M149.3,50.9c0,0.3-7.3,0.6-16.2,0.6c-9,0-16.2-0.3-16.2-0.6c0-0.4,7.3-0.6,16.2-0.6
		C142,50.3,149.3,50.5,149.3,50.9z"/>
	<path class="st55" d="M148.7,50.9c0,0.3-7,0.6-15.7,0.6c-8.7,0-15.7-0.3-15.7-0.6c0-0.3,7-0.6,15.7-0.6
		C141.7,50.3,148.7,50.6,148.7,50.9z"/>
	<path class="st56" d="M148.2,50.9c0,0.3-6.8,0.6-15.2,0.6c-8.4,0-15.2-0.3-15.2-0.6c0-0.3,6.8-0.6,15.2-0.6
		C141.4,50.3,148.2,50.6,148.2,50.9z"/>
	<path class="st57" d="M147.7,50.9c0,0.3-6.5,0.5-14.6,0.5c-8.1,0-14.6-0.2-14.6-0.5c0-0.3,6.5-0.5,14.6-0.5
		C141.1,50.4,147.7,50.6,147.7,50.9z"/>
	<path class="st58" d="M147.1,50.9c0,0.3-6.3,0.5-14.1,0.5c-7.8,0-14.1-0.2-14.1-0.5c0-0.3,6.3-0.5,14.1-0.5
		C140.8,50.4,147.1,50.6,147.1,50.9z"/>
	<path class="st59" d="M146.6,50.9c0,0.3-6.1,0.5-13.5,0.5c-7.5,0-13.5-0.2-13.5-0.5c0-0.3,6.1-0.5,13.5-0.5
		C140.5,50.4,146.6,50.6,146.6,50.9z"/>
	<path class="st60" d="M146,50.9c0,0.2-5.8,0.5-13,0.5c-7.2,0-13-0.2-13-0.5c0-0.3,5.8-0.5,13-0.5C140.2,50.4,146,50.6,146,50.9z"/>
	<path class="st61" d="M145.5,50.9c0,0.2-5.6,0.4-12.5,0.4c-6.9,0-12.5-0.2-12.5-0.4c0-0.2,5.6-0.4,12.5-0.4
		C139.9,50.5,145.5,50.7,145.5,50.9z"/>
	<path class="st62" d="M145,50.9c0,0.2-5.3,0.4-11.9,0.4c-6.6,0-11.9-0.2-11.9-0.4c0-0.2,5.3-0.4,11.9-0.4
		C139.6,50.5,145,50.7,145,50.9z"/>
	<path class="st63" d="M144.4,50.9c0,0.2-5.1,0.4-11.4,0.4c-6.3,0-11.4-0.2-11.4-0.4c0-0.2,5.1-0.4,11.4-0.4
		C139.3,50.5,144.4,50.7,144.4,50.9z"/>
	<path class="st64" d="M143.9,50.9c0,0.2-4.8,0.3-10.8,0.3c-6,0-10.8-0.2-10.8-0.3c0-0.2,4.9-0.3,10.8-0.3
		C139,50.6,143.9,50.7,143.9,50.9z"/>
	<path class="st65" d="M143.3,50.9c0,0.2-4.6,0.3-10.3,0.3c-5.7,0-10.3-0.1-10.3-0.3c0-0.2,4.6-0.3,10.3-0.3
		C138.7,50.6,143.3,50.7,143.3,50.9z"/>
	<path class="st66" d="M142.8,50.9c0,0.2-4.4,0.3-9.8,0.3c-5.4,0-9.8-0.1-9.8-0.3c0-0.2,4.4-0.3,9.8-0.3
		C138.4,50.6,142.8,50.7,142.8,50.9z"/>
	<path class="st67" d="M142.3,50.9c0,0.1-4.1,0.3-9.2,0.3c-5.1,0-9.2-0.1-9.2-0.3c0-0.1,4.1-0.2,9.2-0.2
		C138.1,50.6,142.3,50.8,142.3,50.9z"/>
	<path class="st68" d="M141.7,50.9c0,0.1-3.9,0.2-8.7,0.2c-4.8,0-8.7-0.1-8.7-0.2c0-0.1,3.9-0.2,8.7-0.2
		C137.8,50.7,141.7,50.8,141.7,50.9z"/>
</g>
<g>
	<g>
		<path class="st69" d="M97.8,79.2c-0.7,0-1.4-0.1-1.9-0.3c-0.5-0.2-0.9-0.5-1.3-0.8c-0.3-0.4-0.5-0.8-0.7-1.3
			c-0.1-0.5-0.2-1.1-0.2-1.7v-4.8c0-1.3,0.3-2.3,0.9-3c0.6-0.7,1.7-1,3.1-1c1.4,0,2.5,0.3,3.1,1c0.6,0.7,0.9,1.7,0.9,3v4.8
			c0,1.3-0.3,2.3-1,3.1C100.3,78.9,99.3,79.2,97.8,79.2z M96.8,77.7c0.3,0.1,0.6,0.2,1,0.2c0.4,0,0.7-0.1,1-0.2
			c0.3-0.1,0.5-0.3,0.6-0.5c0.1-0.2,0.2-0.5,0.3-0.7c0.1-0.3,0.1-0.6,0.1-1v-5.6c0-0.4,0-0.7-0.1-1c-0.1-0.3-0.1-0.5-0.3-0.7
			s-0.3-0.4-0.6-0.5c-0.3-0.1-0.6-0.1-1-0.1c-0.4,0-0.7,0-1,0.1c-0.3,0.1-0.5,0.3-0.6,0.5S96,68.7,95.9,69c-0.1,0.3-0.1,0.6-0.1,1
			v5.6c0,0.4,0,0.7,0.1,1c0.1,0.3,0.1,0.5,0.3,0.7C96.4,77.4,96.6,77.6,96.8,77.7z M97.3,65.3l1.1-3.1h2l-2,3.1H97.3z"/>
		<path class="st69" d="M107.6,79.1V66.4h3.7c1.3,0,2.2,0.3,2.8,0.9c0.6,0.6,0.9,1.5,0.9,2.6c0,1-0.3,1.8-0.9,2.4
			c-0.6,0.6-1.5,0.9-2.7,0.9h-1.6v5.9H107.6z M109.7,71.9h0.9c0.9,0,1.5-0.1,1.9-0.4c0.3-0.3,0.5-0.8,0.5-1.6c0-0.3,0-0.6,0-0.8
			c0-0.2-0.1-0.4-0.1-0.6c-0.1-0.2-0.1-0.3-0.2-0.4c-0.1-0.1-0.2-0.2-0.4-0.3c-0.2-0.1-0.4-0.1-0.6-0.1c-0.2,0-0.5,0-0.9,0h-1V71.9z
			"/>
		<path class="st69" d="M121.6,79.1V67.7h-2.7v-1.3h7.4v1.3h-2.6v11.4H121.6z"/>
		<path class="st69" d="M131.2,79.1V66.4h2v12.7H131.2z"/>
		<path class="st69" d="M143,79.2c-0.6,0-1.2-0.1-1.6-0.2c-0.5-0.1-0.8-0.3-1.1-0.6c-0.3-0.2-0.5-0.6-0.7-0.9
			c-0.2-0.4-0.3-0.7-0.4-1.2C139,76,139,75.5,139,75v-4.5c0-0.5,0-1,0.1-1.4c0.1-0.4,0.2-0.8,0.4-1.2c0.2-0.4,0.4-0.7,0.7-0.9
			c0.3-0.2,0.7-0.4,1.1-0.6c0.5-0.1,1-0.2,1.6-0.2c1.3,0,2.3,0.3,2.9,0.9c0.6,0.6,0.9,1.5,0.9,2.7v1h-2V70c0-0.2,0-0.3,0-0.5
			c0-0.1,0-0.2,0-0.4c0-0.2,0-0.3,0-0.4c0-0.1-0.1-0.2-0.1-0.3c0-0.1-0.1-0.2-0.1-0.3c-0.1-0.1-0.1-0.1-0.2-0.2
			c-0.1-0.1-0.2-0.1-0.3-0.2c-0.1,0-0.2-0.1-0.4-0.1c-0.2,0-0.3,0-0.5,0c-0.3,0-0.5,0-0.8,0.1c-0.2,0.1-0.4,0.1-0.5,0.3
			c-0.1,0.1-0.2,0.2-0.3,0.4c-0.1,0.1-0.2,0.3-0.2,0.5c0,0.2-0.1,0.4-0.1,0.6c0,0.2,0,0.5,0,0.7v5c0,1,0.1,1.6,0.4,2
			c0.3,0.4,0.8,0.6,1.5,0.6c0.3,0,0.5,0,0.7-0.1c0.2-0.1,0.4-0.1,0.5-0.3c0.1-0.1,0.2-0.2,0.3-0.4c0.1-0.1,0.1-0.3,0.2-0.5
			c0-0.2,0.1-0.4,0.1-0.6c0-0.2,0-0.4,0-0.7v-0.9h2v0.9c0,0.5,0,0.9-0.1,1.3c-0.1,0.4-0.2,0.7-0.4,1.1c-0.2,0.3-0.4,0.6-0.7,0.8
			c-0.3,0.2-0.6,0.4-1.1,0.5C144,79.2,143.5,79.2,143,79.2z"/>
		<path class="st69" d="M151.5,79.1l3.2-12.7h2l3.2,12.7h-2l-0.7-3.2h-3l-0.7,3.2H151.5z M154.5,74.6h2.5l-1.2-5.7L154.5,74.6z"/>
		<path class="st69" d="M168.5,79.2c-1.2,0-2.2-0.3-2.9-1s-1-1.6-1.1-2.7l1.8-0.4c0.1,1.8,0.8,2.7,2.1,2.7c0.5,0,0.9-0.1,1.2-0.4
			c0.3-0.3,0.4-0.6,0.4-1.1c0-0.3,0-0.5-0.1-0.7c-0.1-0.2-0.2-0.4-0.4-0.6c-0.2-0.2-0.3-0.4-0.5-0.5c-0.2-0.1-0.4-0.3-0.6-0.5
			l-2.5-1.9c-0.5-0.4-0.9-0.8-1.1-1.2c-0.2-0.4-0.3-1-0.3-1.6c0-0.9,0.3-1.6,0.9-2.2s1.5-0.8,2.6-0.8c1.2,0,2.1,0.2,2.7,0.8
			c0.6,0.5,0.9,1.4,1.1,2.5l-1.7,0.4c0-0.3-0.1-0.5-0.1-0.7c0-0.2-0.1-0.4-0.2-0.6c-0.1-0.2-0.2-0.4-0.3-0.5
			c-0.1-0.1-0.3-0.2-0.5-0.3c-0.2-0.1-0.5-0.1-0.8-0.1c-1.1,0.1-1.6,0.5-1.6,1.4c0,0.4,0.1,0.7,0.2,0.9c0.1,0.3,0.4,0.5,0.8,0.8
			l2.5,1.9c0.7,0.5,1.2,1,1.6,1.6c0.4,0.6,0.6,1.2,0.6,1.9c0,0.9-0.3,1.7-1,2.2C170.4,79,169.6,79.2,168.5,79.2z"/>
	</g>
	<g>
		<path class="st69" d="M101,98.3c-0.6,0.1-1.2,0.2-2,0.2c-0.8,0-1.4-0.1-2-0.2c-0.6-0.1-1-0.3-1.4-0.6c-0.4-0.2-0.6-0.5-0.9-0.9
			c-0.2-0.4-0.4-0.8-0.4-1.2c-0.1-0.4-0.1-0.9-0.1-1.4v-8.1h2.4v8.2c0,0.4,0,0.7,0,0.9c0,0.3,0.1,0.5,0.2,0.8
			c0.1,0.3,0.2,0.5,0.4,0.6c0.2,0.2,0.4,0.3,0.7,0.4c0.3,0.1,0.7,0.2,1.1,0.2s0.8-0.1,1.1-0.2c0.3-0.1,0.5-0.2,0.7-0.4
			c0.2-0.2,0.3-0.4,0.4-0.6c0.1-0.3,0.2-0.5,0.2-0.8c0-0.3,0-0.6,0-0.9v-8.2h2.4v8.1c0,0.5,0,1-0.1,1.4c-0.1,0.4-0.2,0.8-0.4,1.2
			s-0.5,0.7-0.9,0.9C102,98,101.6,98.2,101,98.3z"/>
		<path class="st69" d="M113.2,98.4V86.1h1.7l5.2,8.2v-8.2h2.1v12.3h-1.6l-5.2-8.4v8.4H113.2z"/>
		<path class="st69" d="M131.9,98.4V86.1h2.5v12.3H131.9z"/>
		<path class="st69" d="M148.7,98.5c-0.9,0-1.7-0.1-2.3-0.3c-0.6-0.2-1.2-0.5-1.5-0.8c-0.4-0.4-0.7-0.8-0.8-1.2
			c-0.2-0.5-0.3-1-0.3-1.7v-4.6c0-1.3,0.4-2.2,1.2-2.9c0.8-0.7,2-1,3.8-1c1.8,0,3,0.3,3.8,1c0.8,0.7,1.2,1.6,1.2,2.9v4.7
			c0,1.3-0.4,2.3-1.2,2.9C151.7,98.2,150.4,98.5,148.7,98.5z M147.4,97c0.3,0.1,0.7,0.2,1.2,0.2s0.9-0.1,1.2-0.2
			c0.3-0.1,0.6-0.3,0.7-0.5c0.2-0.2,0.3-0.4,0.3-0.7c0.1-0.3,0.1-0.6,0.1-0.9v-5.4c0-0.4,0-0.7-0.1-0.9s-0.2-0.5-0.3-0.7
			c-0.2-0.2-0.4-0.4-0.7-0.5c-0.3-0.1-0.7-0.1-1.2-0.1s-0.9,0-1.2,0.1c-0.3,0.1-0.6,0.2-0.7,0.5c-0.2,0.2-0.3,0.4-0.3,0.7
			c-0.1,0.2-0.1,0.6-0.1,0.9v5.4c0,0.4,0,0.7,0.1,0.9c0.1,0.3,0.2,0.5,0.3,0.7C146.8,96.7,147.1,96.9,147.4,97z M148,85.1l1.3-3h2.4
			l-2.5,3H148z"/>
		<path class="st69" d="M162.8,98.4V86.1h1.7l5.2,8.2v-8.2h2.1v12.3h-1.6L165,90v8.4H162.8z"/>
	</g>
	<path class="st70" d="M148.6,34.8c0.6,0.6,0.3,1-0.2,1.5c-3.8,3.6-8.3,5.7-13.4,6.8c-7,1.6-14,1.4-20.7-1.4
		c-2.8-1.1-5.2-2.8-7.3-5.5c6.9,2.1,13.6,3.2,20.5,2.8c6.8-0.4,13.1-2.4,19.4-5.2c0.8-0.5,1.9-0.2,1.4,0.4
		C148.4,34.5,148.5,34.6,148.6,34.8z"/>
	<path class="st70" d="M131.1,9.3c0,1.7-1,1.7-1.8,1.8c-1.6,0.2-3.3,0.5-4.9,0.7c0-0.1-0.1-0.2-0.1-0.3
		C126.6,10.8,128.8,9.8,131.1,9.3c8.3-2,16.6-2,24.8,0.9c2.9,1,5.5,2.5,7.5,4.8c1.6,1.8,2.4,3.9,2.4,6.2c-2.6-1.7-5-3.6-7.7-5.1
		c-6.8-3.8-14.3-5.2-22.1-5.3c-0.6,0-1.4,0.2-1.6-0.7c0-0.1-0.7-0.1-0.8,0C132.7,11.2,132.2,11.1,131.1,9.3z"/>
	<path class="st70" d="M105.2,15.3c3,6,8.1,9.5,13.7,12.3c5.3,2.7,10.9,4.4,16.8,5.1c-3.3,0.6-6.6,0.4-9.9-0.2
		c-5.2-0.8-10.2-2.4-14.7-5.2c-2.3-1.4-4.4-3.1-5.7-5.5C104.3,19.8,104.2,17.7,105.2,15.3z"/>
	<path class="st70" d="M128.9,29.7c-4.1-1-7.9-2.8-11.4-5.1c-2.6-1.7-5-3.6-6.6-6.2c-1.8-2.8-1.7-5.6,0.2-7.9
		c0.1-0.1,0.3-0.2,0.5-0.4C113.6,20,120.8,25.2,128.9,29.7z"/>
	<path class="st70" d="M116.3,14.9c0.4-0.7,0.8-1.5,1.4-2.5c0.4,0.5,0.8,1.1,0.8,1.1c-0.6,0.6-1.3,1.1-1.9,1.6
		C116.5,15.1,116.4,15,116.3,14.9z"/>
	<path class="st70" d="M137.2,13.2c0.4-0.1,0.9-0.5,1.2-0.4c0.3,0.1,0.5,0.6,0.8,0.9c-0.1,0.1-0.2,0.2-0.2,0.3
		c-0.5-0.1-1.1-0.2-1.6-0.3C137.3,13.6,137.2,13.4,137.2,13.2z"/>
	<path class="st70" d="M138.6,36c0.2-0.1,0.4-0.1,0.6-0.2c0,0,0.1,0,0.1,0c0.2,0,0.3-0.1,0.5-0.1c0,0,0,0,0,0
		c2.8-0.9,4.5-1.7,4.5-1.7s-5.3,0.8-7.6,0.8c0,0,0,0,0,0c-3.7,0-7.4,0.1-11-0.3c-7.3-0.9-14-3.3-19.9-7.8c-1-0.7-1.9-1.5-2.9-2.4
		c-0.1,2.5,0.7,4.5,2.2,6.3c1.7,2.1,3.9,3.5,6.4,4.5c5.1,2.2,10.4,2.8,15.9,2.7c3.6,0,7.2-0.5,10.6-1.4c0,0,0,0,0,0
		c0.1,0,0.1,0,0.2-0.1C138.2,36.2,138.4,36.1,138.6,36C138.6,36.1,138.6,36.1,138.6,36z"/>
	<path class="st70" d="M146.1,34.2c3-1.5,7-4.4,7-4.4s-3.8,6.4-6.3,7.8C144.9,38.8,146.1,34.3,146.1,34.2"/>
	<path class="st70" d="M156.9,25.9c-2.7-3.3-6.2-5.6-10-7.4c-2-1-2.2-1.2-4.2-2.1c-3-1.4-4.4-0.8-4.4-0.8s17.5,7.4,19.2,19.8
		c0.5-0.9,1.1-1.8,1.4-2.7C159.7,30.1,158.5,27.9,156.9,25.9z"/>
	<path class="st70" d="M161.1,21.1c-3.1-3-6.8-4.8-10.8-6.2c-3.1-1.1-6.2-1.8-9.5-2.1c-3.4-0.5-5.4,0.8-5.4,0.8s4,0.6,6.1,1.2
		c8.8,2.9,17,6.8,22,15.4c0.2-0.5,0.3-1,0.4-1.4C164.6,25.7,163.3,23.2,161.1,21.1z"/>
	<path class="st70" d="M131.6,9.2c-5.7,1.4-8.9,3.1-8.9,3.1s9.5-1.7,13-1.5C136.8,10.7,134.1,8.5,131.6,9.2z"/>
	<path class="st70" d="M161.7,9.4c-2.2-2.7-4.7-4.4-7.5-5.6c-6.7-2.7-13.5-2.9-20.5-1.4c-5.3,1.2-10,3.3-13.8,7.2c0,0,0,0,0,0
		c-2.6,2.5-4.3,6.5-4.3,6.5s5.4-3.8,8.4-5.3C136.2,5.3,148.7,5.3,161.7,9.4z"/>
</g>
</svg>
