<svg id="Layer_1" data-name="Layer 1" xmlns="http://www.w3.org/2000/svg" viewBox="0 0 267 100"><defs><style>.cls-1{fill:none;}.cls-2{fill:#78797a;}</style></defs><title>pfizer-8</title><rect class="cls-1" width="267" height="100"/><path class="cls-2" d="M112.86,77.94l8.54-32.87h5.44L123.11,59c1.82,0,3.57,0,5.36,0l4.44-16.6H122.18a4.11,4.11,0,0,1,.06-.52c.58-2.23,1.14-4.47,1.75-6.69a10.89,10.89,0,0,1,1.68-3.74,4.26,4.26,0,0,1,2.51-1.75,3.31,3.31,0,0,1,1.14-.05,1.16,1.16,0,0,1,1,1.42,3.67,3.67,0,0,1-.42,1.06,2.59,2.59,0,0,0,.07,2.76,2.24,2.24,0,0,0,1.43,1,3.33,3.33,0,0,0,4.19-2.31A3.67,3.67,0,0,0,133.53,29a8.22,8.22,0,0,0-3.1-.84,13,13,0,0,0-4,.16,9.46,9.46,0,0,0-4.86,2.83,15.76,15.76,0,0,0-3.51,6.34c-.78,2.54-1.44,5.11-2.12,7.67-1,3.79-2,7.58-3,11.37-.5,1.91-1,3.83-1.48,5.74q-1.49,5.71-3,11.42c-.28,1.08-.56,2.16-.84,3.24a2.32,2.32,0,0,1-.1.24,4.46,4.46,0,0,1-.48-.05,54,54,0,0,1-7.59-2.16,34.44,34.44,0,0,1-8.78-4.68A21,21,0,0,1,85,64a16.12,16.12,0,0,1-2.18-8.51,18.47,18.47,0,0,1,1.42-6.67A29.61,29.61,0,0,1,90,40.09a49.17,49.17,0,0,1,8.39-7.23,68.28,68.28,0,0,1,8.71-5.1,81.23,81.23,0,0,1,8.8-3.7c2.66-.94,5.35-1.77,8.08-2.46a85,85,0,0,1,9.3-1.85c1.65-.22,3.3-.45,5-.62,1.29-.13,2.59-.2,3.89-.25,1.94-.06,3.88-.11,5.82-.11a66.65,66.65,0,0,1,9,.67,59.67,59.67,0,0,1,8.11,1.67,39.85,39.85,0,0,1,11.45,5.07,22,22,0,0,1,6.49,6.4,15.63,15.63,0,0,1,2.44,6.87,18.27,18.27,0,0,1-2,10.14,32.18,32.18,0,0,1-6.09,8.29A55.86,55.86,0,0,1,166,66.6a76.17,76.17,0,0,1-10.38,5.12,84.83,84.83,0,0,1-13.37,4.23c-2,.45-4.06.9-6.11,1.26-1.74.31-3.5.51-5.26.71-1.56.18-3.13.35-4.7.41-2.51.09-5,.15-7.52.1-1.86,0-3.72-.26-5.58-.41A.81.81,0,0,1,112.86,77.94ZM98.48,34,91.73,59h5.4l2.39-8.79c1.83-.14,3.56-.25,5.29-.41a15.73,15.73,0,0,0,5.42-1.48A7.18,7.18,0,0,0,113,45.94,9.78,9.78,0,0,0,114.7,41a5.51,5.51,0,0,0-3.07-5.66,12.5,12.5,0,0,0-5.5-1.29c-2.38-.08-4.76,0-7.14,0ZM153,52.24l.49,0a19.74,19.74,0,0,0,4.36-.46,10.84,10.84,0,0,0,3.34-1.23,6.47,6.47,0,0,0,2.93-3.64,3.24,3.24,0,0,0-1.69-4.12,7.13,7.13,0,0,0-3.11-.8,9.19,9.19,0,0,0-4.18.76c-4.31,1.9-7,5.09-7.37,9.88a6,6,0,0,0,4.53,6.61,9.81,9.81,0,0,0,4.62.11,10,10,0,0,0,5.24-2.72c.14-.14.24-.27.16-.48-.27-.71-.53-1.43-.81-2.19-.44.36-.82.7-1.24,1A6.68,6.68,0,0,1,156,56.49a3.31,3.31,0,0,1-1.88-.68C152.92,54.89,152.86,53.63,153,52.24Zm-4-9.82H135.5L134.79,45h7.63a5.8,5.8,0,0,1-.34.49c-.33.37-.65.75-1,1.09-1.28,1.26-2.58,2.5-3.86,3.75a29.92,29.92,0,0,0-3.37,3.83,9.66,9.66,0,0,0-1.9,4.1c0,.21,0,.42-.06.66h13.93l.87-3.26h-6.41c-.7,0-1.4,0-2.2,0a4.64,4.64,0,0,1,.31-.55A24.88,24.88,0,0,1,140.08,53c1.29-1.32,2.65-2.58,4-3.86a24.89,24.89,0,0,0,4-4.64A8.83,8.83,0,0,0,149.06,42.42ZM169,59c.1-.36.2-.71.3-1.06.52-1.92,1-3.84,1.56-5.77a17.09,17.09,0,0,1,1.58-4.08,7.48,7.48,0,0,1,2.12-2.56A2.25,2.25,0,0,1,176,45a.91.91,0,0,1,1,.83c0,.18.07.36.1.54a1.82,1.82,0,0,0,.66,1.11,2.38,2.38,0,0,0,3.51-.74,3.3,3.3,0,0,0,.21-2.86,2.49,2.49,0,0,0-1.78-1.64,4.59,4.59,0,0,0-3.55.38A11.49,11.49,0,0,0,173,45.14a1.54,1.54,0,0,1-.56.49l.9-3.21h-5.24L163.62,59Z"/><path class="cls-2" d="M103.22,36.48a11.33,11.33,0,0,1,3.85.31,2.76,2.76,0,0,1,2.18,3.06,7.61,7.61,0,0,1-.12,1.14,11.26,11.26,0,0,1-1.07,3.16,5.8,5.8,0,0,1-4.3,3.07,15.85,15.85,0,0,1-3.33.24s-.06,0-.16-.07Z"/><path class="cls-2" d="M153.45,50.08a4.3,4.3,0,0,1,.42-1.5,7.12,7.12,0,0,1,3-3.49,3.36,3.36,0,0,1,2.46-.5,1.19,1.19,0,0,1,1,1.38,3.21,3.21,0,0,1-.81,1.82,6.12,6.12,0,0,1-3.7,2.07c-.59.11-1.19.15-1.79.22A5.56,5.56,0,0,1,153.45,50.08Z"/></svg>