<svg id="Layer_1" data-name="Layer 1" xmlns="http://www.w3.org/2000/svg" viewBox="0 0 267 100"><defs><style>.cls-1{fill:none;}.cls-2{fill:#78797a;fill-rule:evenodd;}</style></defs><title>philips-8</title><rect class="cls-1" width="267" height="100"/><path class="cls-2" d="M178.28,40.11c-1.65-1.67-3.94-2.76-7.74-2.86-2.47-.06-2.78,0-10.26.15v26H167V57.88c1.57,0,2.48,0,3.56,0,9.17-.47,10.44-8,10.47-10.08a10.21,10.21,0,0,0-2.79-7.63Zm-4.58,7.57c-.15,3.45-3,4.59-6.66,4.29V43.2c3.41-.61,6.84.62,6.67,4.49Z"/><path class="cls-2" d="M191.33,46.57l5.54,2c3.69,1.46,4.48,4.42,4.44,7-.08,5.92-4.79,8.13-8.55,8.45a32,32,0,0,1-8.69-.53V57c3.38,1,7.31,1,8.64.47,1-.39,1.77-1,1.7-1.78,0-.43-.07-1-1.34-1.51L188,52.32a6.89,6.89,0,0,1-4.41-7.09c.28-5.62,4.76-8.46,9.23-8.3a48.83,48.83,0,0,1,5.95.39V43.7a15.16,15.16,0,0,0-6-.5c-1.75.22-2.53,1.12-2.5,2.09a1.67,1.67,0,0,0,1.11,1.27Z"/><polygon class="cls-2" points="96.53 47.11 103.8 47.11 103.8 37.43 110.55 37.43 110.55 63.44 103.8 63.44 103.8 53 96.53 53 96.53 63.44 89.77 63.44 89.77 37.43 96.53 37.43 96.53 47.11 96.53 47.11"/><polygon class="cls-2" points="123.67 63.44 123.67 37.43 116.92 37.43 116.92 63.44 123.67 63.44 123.67 63.44"/><polygon class="cls-2" points="153.88 63.44 153.88 37.43 147.12 37.43 147.12 63.44 153.88 63.44 153.88 63.44"/><polygon class="cls-2" points="136.79 57.54 143.76 57.54 143.76 63.44 130.03 63.44 130.03 37.43 136.79 37.43 136.79 57.54 136.79 57.54"/><path class="cls-2" d="M83.69,40.11c-1.65-1.67-3.94-2.76-7.74-2.86-2.48-.06-2.78,0-10.26.15v26h6.77V57.88c1.57,0,2.48,0,3.56,0,9.17-.47,10.44-8,10.47-10.08a10.21,10.21,0,0,0-2.79-7.63Zm-4.57,7.57c-.15,3.45-3,4.59-6.66,4.29V43.2c3.41-.61,6.84.62,6.67,4.49Z"/></svg>