<svg id="Layer_1" data-name="Layer 1" xmlns="http://www.w3.org/2000/svg" xmlns:xlink="http://www.w3.org/1999/xlink" viewBox="0 0 267 100"><defs><style>.cls-1,.cls-2,.cls-7{fill:none;}.cls-1{clip-rule:evenodd;}.cls-11,.cls-3,.cls-9{fill:#78797a;}.cls-4,.cls-6{fill:#b7b7b7;}.cls-10,.cls-11,.cls-12,.cls-14,.cls-4,.cls-8,.cls-9{fill-rule:evenodd;}.cls-5{clip-path:url(#clip-path);}.cls-7{stroke:#909191;}.cls-10,.cls-11,.cls-12,.cls-13,.cls-14,.cls-7{stroke-miterlimit:2.61;stroke-width:0.07px;}.cls-14,.cls-8{fill:#d3d2d2;}.cls-10{fill:#f1efef;stroke:#f1efef;}.cls-11,.cls-12{stroke:#78797a;}.cls-12{fill:#c5c4c4;}.cls-13{fill:#575553;stroke:#575553;}.cls-14{stroke:#d3d2d2;}</style><clipPath id="clip-path"><path class="cls-1" d="M143.41,50.41a8.38,8.38,0,0,0,.82-3.68l13.15,0C156.16,61.2,145,71.5,135.14,75l-.09-19.09a9.86,9.86,0,0,0,8.36-5.47Z"/></clipPath></defs><title>porsche-8</title><rect class="cls-2" width="267" height="100"/><path class="cls-3" d="M109.58,17.58c16.1-7.7,38.66-5.49,49.09-1l-.37,29c.2,13.13-9.24,23.83-19.64,29a17,17,0,0,1-4.1,1.62,1.25,1.25,0,0,1-.41,0,17.49,17.49,0,0,1-3.54-1.1C119.36,70,109.81,57.31,110,45.84l-.37-28.26Z"/><path class="cls-4" d="M111.29,45.62l-.47-20a59.3,59.3,0,0,1,22.72-4.69V45.62Z"/><g class="cls-5"><rect class="cls-6" x="135.06" y="46.7" width="22.32" height="28.27"/></g><path class="cls-7" d="M110.48,24.65a67.94,67.94,0,0,1,23.78-4.76,65.58,65.58,0,0,1,23.28,4.06l-.35-6.45a69,69,0,0,0-14-2.95,69.18,69.18,0,0,0-12.15-.46c-8,.54-16.35,2.49-20.44,4.41l-.14,6.15Z"/><path class="cls-8" d="M143,50.46l.5-.67-.22.65,1.16-.27c.51-2.75,2.41-3.15,4.13-2.72.38.09.23.29.07.38a3.13,3.13,0,0,0-1.64,1.92l.11,0,.71,0c1-3,4-2.94,4.57-1.43A3.07,3.07,0,0,0,150.23,50l.13.11.88.28c.67-1.93,3.38-1.33,4.15-.47v.3c-.26.27-1.17,0-2.14,1l.12.17a3.48,3.48,0,0,1,.93,2.58c-.07.35-.1.51-.36.37-4.27-4-8.63-2.29-13.46-.76L143,50.46Z"/><path class="cls-8" d="M135.65,55.79a13.07,13.07,0,0,0,2.75-.72c.19.39.43.65.31,1.16a1.06,1.06,0,0,1-.64.55.86.86,0,0,1-.48,0,1.43,1.43,0,0,1-.51-.28,1.57,1.57,0,0,1-.41.3.86.86,0,0,1-.37,0c-.44-.14-.54-.62-.65-1Z"/><path class="cls-8" d="M136.44,59.87a1.64,1.64,0,0,1-.39-1.05,1.31,1.31,0,0,1,1.53-.93,1.68,1.68,0,0,1,1,1l.86-.36c-.55-2.73,1-3.8,2.68-3.78.51,0,.31.14.26.28a3.06,3.06,0,0,0-.89,2.6l.89-.32c0-1.54.82-3.9,3.55-3.46.46.11.26.23.18.34a3.61,3.61,0,0,0-1.63,2.69l.63-.06c.38-1.8,1.64-3.63,3.84-2.31.21.13.21.23.08.35a3.09,3.09,0,0,0-1.74,1.78l.94.06a2.08,2.08,0,0,1,3.43-.7c.25.2.15.34.09.41a5.12,5.12,0,0,0-1.7,1c.85,1,1.48,1.77,1.05,3.08-.17.3-.35.26-.52,0-1.44-1.95-3.57-2.31-6.25-1.67a14.58,14.58,0,0,0-4.4,1.65,1.89,1.89,0,0,1,.27,1.14,1.3,1.3,0,0,1-1.43.92,1.52,1.52,0,0,1-.78-.62,1.58,1.58,0,0,1-1.26.33,1.73,1.73,0,0,1-.89-1.17,1,1,0,0,1,.49-1.09l.13-.08Z"/><path class="cls-8" d="M137,69.9A1.31,1.31,0,0,1,136,69a1.14,1.14,0,0,1,.35-.94l.14-.15a1.14,1.14,0,0,1-.5-.67,1,1,0,0,1,.93-1.15,1.55,1.55,0,0,1,1,.59l.22-.14.06-.06c-.82-1.73-.09-3,1.25-3.1.43,0,.27.17.21.25a1.49,1.49,0,0,0-.1,1.81l.5-.17c-.17-1.44.25-3.25,2.43-3.29.34,0,.27.28.24.42a2.39,2.39,0,0,0-1.06,1.93c.05.07,0,.16.06.21l.56-.14c.31-1.45,2.27-3.12,3.71-2,.23.21.15.29.1.36-.8,0-1.5.88-1.88,1.47a.13.13,0,0,0,.14.07l.47.13c.43-.94,1.92-2,3.18-1.06.3.22.15.3.12.39a3.13,3.13,0,0,0-1.64,1.41l.11.14c.32.25.85.68.67,1.24a1.16,1.16,0,0,1-.27.61c-.11.06-.12,0-.2,0-2.36-2.27-5.62-.83-7.36.59l.14.13c.23.28.53.42.51,1.11a1.18,1.18,0,0,1-.8.76,1.33,1.33,0,0,1-1.15-.67s0,0-.05,0a1.16,1.16,0,0,1-1.18.83Z"/><path class="cls-9" d="M141.66,52.54a11.82,11.82,0,0,0,1.08-1.43l2.11-.52a3.81,3.81,0,0,1,.93-2.27,2.42,2.42,0,0,1,2.24-.57s0,0,0,0a3.09,3.09,0,0,0-1.58,2.39,16.75,16.75,0,0,0,1.73.08,4.19,4.19,0,0,1,1.37-2.09,1.9,1.9,0,0,1,2.16,0,3.31,3.31,0,0,0-2.09,1.86.23.23,0,0,0,0,.22l1.64.66h.09a2.63,2.63,0,0,1,1.52-1.37,1.77,1.77,0,0,1,1.64.4,3.21,3.21,0,0,0-2,1.24.15.15,0,0,0,0,.15,2.1,2.1,0,0,1,1.21,2.15,7.1,7.1,0,0,0-4-2.1,16.77,16.77,0,0,0-8,1.11Z"/><path class="cls-9" d="M136.09,55.75c.63-.13,1.24-.27,1.86-.45a1.72,1.72,0,0,1,.28.62c.07.44-.28.52-.54.45a1,1,0,0,1-.56-.46s0,0-.06,0a1,1,0,0,1-.4.46.34.34,0,0,1-.33-.07.71.71,0,0,1-.25-.55Z"/><path class="cls-10" d="M143,50.45c.56-.26.93-2,1.1-3.7l13.26-.06v-.19l-13.51.05a12.58,12.58,0,0,1-.85,3.9Z"/><path class="cls-10" d="M147.12,49.77a5.79,5.79,0,0,1,.28-.53A3.27,3.27,0,0,1,148.83,48a.22.22,0,0,0,0-.24,3.26,3.26,0,0,0-1.72,1.78c-.07.11,0,.16,0,.21Z"/><path class="cls-10" d="M150.22,50a.15.15,0,0,0,.12.1,3,3,0,0,1,2-1.36.19.19,0,0,0,0-.25A2.85,2.85,0,0,0,150.22,50Z"/><path class="cls-10" d="M153.27,51.18a.14.14,0,0,0,.13.11,3.35,3.35,0,0,1,1.81-.71.41.41,0,0,0,.18-.2V50.2h-.06c0,.13-.18.1-.3.14a2.71,2.71,0,0,0-1.76.85Z"/><path class="cls-10" d="M154.31,54l0,.44c-.06.3-.25.23-.41.1l-.17-.14a15.92,15.92,0,0,0-1.43-1.08,8.1,8.1,0,0,0-3.94-1.17,11.26,11.26,0,0,0-2.94.33c-1.62.35-3.3.89-4.93,1.41a8.31,8.31,0,0,1-2.82,1.53,12.68,12.68,0,0,1-2.68.53V75.06l-.29.09,0-19.55a10.5,10.5,0,0,0,5.74-2c.62-.26,1.27-.45,1.93-.65,3.53-1.09,7.63-2.15,11.1,1a5.42,5.42,0,0,0,.5.41.18.18,0,0,0,.28,0l.07-.33Z"/><path class="cls-9" d="M138,60.84a1.9,1.9,0,0,1-.78.79.66.66,0,0,1-.79-.77c0-.25.34-.7.7-1-.32-.26-.67-.56-.62-1-.08-.05.26-.65.87-.55.3.07.68.43.92,1.16l1.75-.93a2.38,2.38,0,0,1,1.41-3.42,3.3,3.3,0,0,0-.44,3l1.81-.54c0-2.4,1-3.43,2.4-3.52a3.42,3.42,0,0,0-1.33,3.31l1.67-.3c.24-1.16,1-3.39,2.79-2.48a2.66,2.66,0,0,0-1.7,2.38l1.72.14c.67-1.27,1.7-1.73,2.55-1.06a3.22,3.22,0,0,0-1.71,1.3,3.29,3.29,0,0,1,1.39,2.39c-1.12-1.45-3.2-1.93-5.2-1.7A15.5,15.5,0,0,0,139,60.3a1.53,1.53,0,0,1,.6.87.69.69,0,0,1-.7.68c-.54-.06-.74-.56-.89-1Z"/><path class="cls-10" d="M136.31,59.94l.13-.08a1.71,1.71,0,0,1-.37-.77,1.27,1.27,0,0,0,.24.85Z"/><path class="cls-10" d="M141.44,57.17a3.63,3.63,0,0,1,.93-2,.17.17,0,0,0-.05-.19,3.11,3.11,0,0,0-.88,2.17Z"/><path class="cls-10" d="M144.47,56.87a4.12,4.12,0,0,1,1.7-2.54.13.13,0,0,0-.09-.18,3.52,3.52,0,0,0-1.61,2.72Z"/><path class="cls-10" d="M147.25,56.61h.09A3.9,3.9,0,0,1,149.09,55c0-.07,0-.17-.06-.21a3.24,3.24,0,0,0-1.77,1.82Z"/><path class="cls-10" d="M150,57.37l.13.12c1-.85,1.56-.66,1.68-1l-.08-.16c-.11.21-.91.17-1.73,1Z"/><path class="cls-10" d="M151.15,60a1.17,1.17,0,0,1-.16.78c-.19.27-.3.09-.43,0-2-2.37-4.44-2.43-8.69-.95a11.87,11.87,0,0,0-1.88.88l-.1-.19a15,15,0,0,1,5.62-1.88,5.1,5.1,0,0,1,5,1.87c.11.15.32.36.5,0l.1-.48Z"/><path class="cls-10" d="M140.18,61.61c-.07.89-.6,1-1,1.14a1.16,1.16,0,0,1-1.2-.62c-1.09.94-2.13,0-2.14-1.09.38,1,1,1.61,2.15.85a1.21,1.21,0,0,0,2.23-.28Z"/><path class="cls-9" d="M137.22,68a1.65,1.65,0,0,1-.78-.76.5.5,0,0,1,.64-.57,1.56,1.56,0,0,1,.76.8l1.06-.92a1.71,1.71,0,0,1,.27-2.71,2.36,2.36,0,0,0,.21,2.27l1.26-.65c-.51-1.78.3-2.87,1.6-3a2.39,2.39,0,0,0-.9,2.67l1.43-.33c.23-1,1.06-2.56,2.67-2.24a2.71,2.71,0,0,0-1.7,2.15,4.35,4.35,0,0,1,1.43.32c.35-.94,1.26-1.94,2.3-1.36a3.62,3.62,0,0,0-1.56,1.74c.61.31,1.17.74,1,1.29a5.19,5.19,0,0,0-3.9-1.06,8.77,8.77,0,0,0-4.36,2.22,2.15,2.15,0,0,1,.89.78.47.47,0,0,1-.55.6,1.86,1.86,0,0,1-.93-.77,2.13,2.13,0,0,1-.83,1,.53.53,0,0,1-.71-.64c.13-.37.26-.48.67-.77Z"/><path class="cls-10" d="M136.39,68.1l.14-.15a1.11,1.11,0,0,1-.52-.67.86.86,0,0,0,.37.82Z"/><path class="cls-10" d="M138.18,66.58h0l.07-.09a3.94,3.94,0,0,1-.35-1.19,2.48,2.48,0,0,0,.28,1.29Z"/><path class="cls-10" d="M139.37,64.72h0a1.49,1.49,0,0,1,.41-.87c0-.08,0-.14-.08-.17a1.43,1.43,0,0,0-.34,1Z"/><path class="cls-10" d="M141.77,64.32a2.81,2.81,0,0,1,1-1.66c0-.08,0-.2,0-.24a2.33,2.33,0,0,0-1,1.9Z"/><path class="cls-10" d="M144.28,64.29l.13,0c.52-.68,1-1.22,1.73-1.29a.21.21,0,0,0,0-.26c-.95.09-1.41.81-1.87,1.52Z"/><path class="cls-10" d="M146.58,65.18c0,.06,0,.12.08.12a3.13,3.13,0,0,1,1.48-1.24l.08-.06,0-.22a2.88,2.88,0,0,0-1.61,1.4Z"/><path class="cls-10" d="M147.32,66.6a1,1,0,0,1-.2.76c-.14.22-.27.07-.4,0-2-1.76-4.79-1.14-7.08.56l-.15-.13c1.43-1.19,4.8-3,7.26-.66.11.06.2.23.39,0l.18-.49Z"/><path class="cls-10" d="M140.14,69a1.08,1.08,0,0,1-.89.76,1.48,1.48,0,0,1-1.09-.69c-.23.43-.55.87-1,.86a1.29,1.29,0,0,1-1.09-.84,1.16,1.16,0,0,0,1.07,1.1c.48,0,.9-.47,1.07-.87a1.45,1.45,0,0,0,1.06.7,1,1,0,0,0,.91-1Z"/><path class="cls-10" d="M135.71,56.08c.2.76.88,1,1.38.42a1,1,0,0,0,1.63-.37.92.92,0,0,1-1.63.64c-.58.64-1.4.26-1.38-.69Z"/><path class="cls-9" d="M110.85,46.52a17.17,17.17,0,0,0,1,5.58h15a8.62,8.62,0,0,1-2.15-5.55l-13.89,0Z"/><path class="cls-4" d="M112.1,52.94h15.37a10.06,10.06,0,0,0,6.36,2.7v3.17H114.56a27.14,27.14,0,0,1-2.46-5.86Z"/><path class="cls-9" d="M115,59.61h18.84l0,5.91H119.22a26.54,26.54,0,0,1-2.5-3.14A24.07,24.07,0,0,1,115,59.61Z"/><path class="cls-4" d="M120.13,66.3h13.71v8.88a24.56,24.56,0,0,1-8.12-4,32,32,0,0,1-5.59-4.9Z"/><path class="cls-4" d="M111,25.59a50.15,50.15,0,0,1,6.74-2.42l-6.46,13.11L111,25.59Z"/><path class="cls-11" d="M110.8,45.63H111l-.18-20c7.68-3.55,18-4.77,22.72-4.69l0,11.75h.26V20.6c-3.06-.33-16.63,1.38-23.31,4.85l.31,20.19Z"/><path class="cls-8" d="M111.86,30.11a1.14,1.14,0,0,1-.09-1,1.3,1.3,0,0,1,1.32-.57c.43,0,.61.33.86.63l.66-.36c-.94-3.6,2.18-4.66,3.31-4.19.19.07.39.16.18.39a3.23,3.23,0,0,0-1.7,2.8l2.07-.6c-.43-3.82,2.8-3.88,3.63-3.51.34.13.3.31,0,.44a3.27,3.27,0,0,0-1.64,2.4l1.82-.41c.67-4.31,3.93-3.21,4.37-2.89.28.18.17.46,0,.45-1.41.57-2,1.15-2.25,2.34H126a2.72,2.72,0,0,1,4.49-1.11c.2.31.15.6-.11.54-1.75-.21-2.33.53-2.32.78a2.46,2.46,0,0,1,2.27,2.47c-.18.67-.59.34-.66.23-3-2.64-9-1.21-14.7,1.65,1,1.46-1.32,2.32-1.94,1.3a1.28,1.28,0,0,1-1.84,0,1.13,1.13,0,0,1,.62-1.73Z"/><path class="cls-8" d="M112,36.63c-1-1.43,1-2.29,1.69-.88l.8-.4c-.26-2.29.62-3.63,2.53-3.61.34,0,.34.07.22.26a3,3,0,0,0-1,2.45,1.93,1.93,0,0,0,.81-.24.39.39,0,0,0,.19-.29c.2-3.33,2.27-3.09,3.19-3.12.37,0,.35.27.14.42a2.79,2.79,0,0,0-1.46,2.22h.22a4.48,4.48,0,0,0,1-.26c.48-2.7,2.42-3.17,4-2.61.45.16.24.56,0,.57a2.19,2.19,0,0,0-2,1.81l1.24,0a2.84,2.84,0,0,1,4.15-1.42c.44.26.22.38.06.45-.52.21-1.74.4-1.95,1l-1,2c-2.18-1.08-7.08.63-10,2.21.84,1.83-1.36,2.19-1.86,1.17-1.25,1.24-2.85-.86-1-1.71Z"/><path class="cls-8" d="M112.6,43.23a1.11,1.11,0,1,1,1.84-1.13l.54-.29c-1.36-3.61,1-3.9,2-3.87.37,0,.31.22.21.33a2.38,2.38,0,0,0-.68,2.61l.86-.41c-.53-3.64,2.12-3.55,2.67-3.51.37,0,.33.29.25.34A2.57,2.57,0,0,0,119,39.94l1-.29c.22-3.26,2.43-3.6,3.43-3.41.68.11.47.32.23.52a4.36,4.36,0,0,0-1.79,2.35l1.44-.16a4.07,4.07,0,0,1,1.52-1.59v3.47a9,9,0,0,0-3.46.18,19.38,19.38,0,0,0-5.73,2.37c1.52,2.09-1.25,2.34-1.62,1.52-2.12,1.53-2.77-1.16-1.4-1.67Z"/><path class="cls-9" d="M112.6,30.14a1.22,1.22,0,0,1-.35-.92.61.61,0,0,1,.52-.41c.5-.08.74.08,1,.84l1.39-.79c-.47-2.25.51-4,2.32-4.11-.65.68-1.94,1.9-1.46,3.55l3-1c-.36-2.69,1.07-3.73,2.63-3.46a3.33,3.33,0,0,0-1.58,3.1l2.73-.64c.13-2.37,1.64-3.53,3.49-3A3.25,3.25,0,0,0,124,26.27l2.53,0c.69-1.57,2.05-2.38,3.66-1.29a2.83,2.83,0,0,0-2.75,1.36c1.2.16,2.56,1,2.57,2-3.58-2.86-10.74-.56-15.6,2,.53.6.45,1.19.17,1.33a.93.93,0,0,1-1.27-.49c-.57.67-1.31.63-1.52.3s-.19-1.05.83-1.29Z"/><polygon class="cls-10" points="111.77 29.54 111.82 30.01 111.92 30.01 111.77 29.54 111.77 29.54"/><path class="cls-10" d="M111.13,31.3c0,.77.34,1,1.06,1.08a1.12,1.12,0,0,0,1-.35,1.1,1.1,0,0,0,1.13.38,1,1,0,0,0,1-1.18,1,1,0,0,1-1,.88,1.12,1.12,0,0,1-1.21-.37,1.28,1.28,0,0,1-1.14.34.94.94,0,0,1-.89-.79Z"/><path class="cls-10" d="M115.25,30.61l0,0-.1-.15a27.32,27.32,0,0,1,8.59-2.89c2.85-.39,4.87.19,6.09,1.26.29.27.48.22.65-.13a.54.54,0,0,1-.14.5.29.29,0,0,1-.43,0c-1.73-1.45-4.08-1.56-6.18-1.28a27.93,27.93,0,0,0-8.44,2.78Z"/><path class="cls-10" d="M128.2,26l0,.08h.15a1.56,1.56,0,0,1,.89-.46,6.29,6.29,0,0,1,1.38,0l.06,0,0,0v-.15a.1.1,0,0,0,0-.07c-1-.06-2-.08-2.5.7Z"/><path class="cls-10" d="M124.52,25.88a2.68,2.68,0,0,1,.77-1.2,4.35,4.35,0,0,1,1.56-.88l.07-.08v-.16l-.11,0a3.05,3.05,0,0,0-2.32,2.31s0,0,0,0Z"/><path class="cls-10" d="M120.59,26.36a4,4,0,0,1,1.81-2.24V24l-.07-.05a3.88,3.88,0,0,0-1.1.92,2.45,2.45,0,0,0-.65,1.52Z"/><path class="cls-10" d="M116.45,27.51v0a2.71,2.71,0,0,1,.24-.78,4.37,4.37,0,0,1,.49-.7,8.26,8.26,0,0,1,1.07-1v-.13l0,0h-.07A4.35,4.35,0,0,0,117,26a2.5,2.5,0,0,0-.54,1.55Z"/><path class="cls-10" d="M114.64,28.67h.05c0-.28-.08-.55-.11-.83a4.12,4.12,0,0,0,.06.83Z"/><path class="cls-9" d="M112.63,36.63c-1-.92-.26-1.59.28-1.37.24.09.42.37.54.88l1.52-.75c-.39-2.65,1-3.38,1.66-3.4a3,3,0,0,0-.66,3l1.91-.82c-.15-1.7.69-3.36,2.1-3.14a4,4,0,0,0-1.33,2.82l2.16-.52c.15-1.72,1.34-3,3-2.63a3.2,3.2,0,0,0-2.07,2.58c.75-.06,1.51-.1,2.28-.11.63-1.76,1.9-2.29,3.11-1.54-.7.28-1.64.51-1.92,1.25l-.36,1.26c-3.78-.41-7.32,1.1-10.6,2.74.76,1,.36,1.43-.15,1.44s-.66-.27-.85-.75a1.09,1.09,0,0,1-1.26.47c-.43-.24-.65-1,.7-1.41Z"/><path class="cls-10" d="M111.91,36.51l.13-.06a2,2,0,0,1-.23-.55,1.23,1.23,0,0,0,.1.61Z"/><path class="cls-10" d="M116.33,33.89h0a4,4,0,0,1,1-1.83c.06-.08,0-.16,0-.17a2.73,2.73,0,0,0-1,2Z"/><path class="cls-10" d="M119.21,33.25a3.2,3.2,0,0,1,1.56-2,.14.14,0,0,0,0-.2,2.63,2.63,0,0,0-1.56,2.23Z"/><path class="cls-10" d="M122.4,32.81a2.28,2.28,0,0,1,2-1.56.3.3,0,0,0,.2-.19v-.17c-.14,0-.06.15-.33.14a2,2,0,0,0-1.88,1.79Z"/><path class="cls-10" d="M125.86,32.85H126c0-.06,0-.07,0-.1.84-.54,1.85-.57,1.92-.79s0-.15-.08-.18c-.72.3-1.76.38-2,1.06Z"/><path class="cls-10" d="M114.89,37l.11.22c4.76-2.5,8.43-2.82,9.85-2.15v-.26c-2.11-.92-6,.19-10,2.2Z"/><path class="cls-10" d="M111.24,37.74a1,1,0,0,0,1.83.71c.52,1.09,2.24.42,2-.45a1.15,1.15,0,0,1-2,.19c-.52.42-1.31.75-1.83-.45Z"/><path class="cls-9" d="M113.33,43.17c-.84-.69-.6-1.35-.17-1.51s.83.09,1.24.86l1.09-.76c-.85-2-.3-3.6,1.11-3.56a3.62,3.62,0,0,0-.32,3.1l1.68-.71c-.62-2.59.69-3.43,1.66-3.46-.5.67-1.49,1.67-.88,3.13l1.88-.58c0-2.5,1.67-3.44,2.6-3.25a3.92,3.92,0,0,0-1.81,3l2.34-.26a2.2,2.2,0,0,1,1.09-1.39l0,2.37a14.38,14.38,0,0,0-7.6,1.72,22,22,0,0,0-2.17,1.32c1,.89.53,1.33.1,1.42s-.79-.14-1.14-.56c-.83.9-1.4.82-1.58.44-.27-.55,0-1,.89-1.33Z"/><path class="cls-10" d="M112.52,43.14l.11-.05a2.48,2.48,0,0,1-.32-.65,1.09,1.09,0,0,0,.21.71Z"/><path class="cls-10" d="M114.93,41.69l.08,0a6.41,6.41,0,0,1-.39-1.5,4.09,4.09,0,0,0,.31,1.53Z"/><path class="cls-10" d="M116.45,39.94a2.4,2.4,0,0,1,.82-1.61c0-.08.06-.09,0-.18a2,2,0,0,0-.78,1.79Z"/><path class="cls-10" d="M119,39.28a3.06,3.06,0,0,1,1.32-1.93c.05-.09,0-.13,0-.19h0A2.52,2.52,0,0,0,119,39.28Z"/><path class="cls-10" d="M121.92,38.94a4.14,4.14,0,0,1,1.91-2.42s0,0,0,.05,0,.13,0,.15A5.16,5.16,0,0,0,122,38.94s0,0,0,0Z"/><path class="cls-10" d="M111.95,44.39c.43,1.3,1.43.79,2.08.39a1.38,1.38,0,0,0,2.1-.18c-.06.92-1.59,1.13-2.1.4-.74.69-2,.73-2.08-.61Z"/><path class="cls-10" d="M115.8,43.41l-.15-.18c2.49-1.56,6.24-3,9.16-2.59v.3c-3.09-.49-6.5,1.09-9,2.47Z"/><path class="cls-9" d="M134.67,20.49V26.1H157.6V24.7a45.54,45.54,0,0,0-9.78-3,62.17,62.17,0,0,0-13.15-1.26Z"/><polygon class="cls-4" points="134.71 26.87 134.71 32.66 157.57 32.68 157.57 26.92 134.71 26.87 134.71 26.87"/><polygon class="cls-9" points="143.71 33.49 143.71 38.53 157.55 38.54 157.54 33.49 143.71 33.49 143.71 33.49"/><polygon class="cls-4" points="143.72 39.38 157.45 39.37 157.44 45.66 143.71 45.67 143.72 39.38 143.72 39.38"/><path class="cls-9" d="M110.46,24.6l0-6.53c4.87-2.19,15.27-4.72,24.88-4.52,8.3.17,17.08,1.65,22.23,3.67l0,6.64-.31-6.38a74.89,74.89,0,0,0-23-3.53c-9.91.07-20.94,2.83-23.66,4.54l-.14,6.1Z"/><path class="cls-12" d="M111.19,23.82c.56-.22,1.2-.45,1.76-.6l0-1.62,4.23-1.33a.8.8,0,0,0,.53-.59l-.05-2.3c0-.16-.11-.77-1.08-.66a18.65,18.65,0,0,0-1.94.55,22.67,22.67,0,0,0-3.53,1.21l.06,5.35Z"/><path class="cls-11" d="M113,22V21.6l4.11-1.29c.27-.1.6-.23.65-.59l0,.41a.7.7,0,0,1-.51.6L113,22Z"/><path class="cls-11" d="M111.27,23.81l0,.43c.58-.19,1.12-.41,1.64-.53v-.49c-.57.17-1.11.36-1.68.59Z"/><path class="cls-12" d="M117.86,17.31l.19,3.47c.16.22.31.6.85.49l4.64-1a1.24,1.24,0,0,0,.71-.94L124.16,16c-.09-.52-.63-.72-1.16-.7l-4.34.89a1.31,1.31,0,0,0-.8,1.12Z"/><path class="cls-11" d="M118.12,20.89c0,.42.3.85.54.87a14.8,14.8,0,0,0,2.22-.4L122,21.1c.54-.11,1.09-.22,1.47-.34s.6-.39.74-1v-.42a1.23,1.23,0,0,1-.69.92l-4.76,1a.67.67,0,0,1-.67-.43Z"/><path class="cls-12" d="M124.74,15.05l.14,5.15a8.5,8.5,0,0,1,1.39-.28l-.07-1.35a.39.39,0,0,1,.19-.18l2.2-.18a.34.34,0,0,1,.32.07,3.47,3.47,0,0,1,.66,1.28,10.85,10.85,0,0,1,1.64-.14,8.8,8.8,0,0,0-.92-1.87,1.2,1.2,0,0,0,.44-.71l-.09-1.7c-.14-.27-.34-.76-1-.69-1.64.18-3.81.37-4.92.6Z"/><path class="cls-11" d="M125,20.19a1.52,1.52,0,0,0,0,.4,5.07,5.07,0,0,1,1.26-.14l0-.51a8.31,8.31,0,0,0-1.25.25Z"/><path class="cls-11" d="M126.25,19a4,4,0,0,1,1.08-.15c.91-.08,1.08-.1,1.46-.12a2.38,2.38,0,0,1,.79,1.37,16.15,16.15,0,0,1,1.65-.17,3.44,3.44,0,0,0-.17-.44,12.56,12.56,0,0,0-1.5.15,2.64,2.64,0,0,0-.19-.55,2.74,2.74,0,0,0-.35-.61c-.11-.17-.22-.23-.36-.21l-2.16.19c-.15,0-.28.11-.26.2l0,.35Z"/><path class="cls-11" d="M130.34,17.55l.16.27a.6.6,0,0,0,.16-.25.4.4,0,0,0,.06-.16c0-.13,0-.3,0-.44a1.23,1.23,0,0,1-.41.58Z"/><path class="cls-12" d="M137.36,14.34v1.27c0,.08,0,.09-.24.13l-4-.07a.31.31,0,0,0-.09.5l3.73,0c.32.09.56.21.56.43l0,2a.68.68,0,0,1-.65.63l-5.23.19V18l4.41-.09v-.25a.19.19,0,0,0-.14-.09l-3.49,0a1,1,0,0,1-.87-.8l.06-1.78a.9.9,0,0,1,1-.62Z"/><path class="cls-11" d="M131.45,19.4v.4l5.2-.12a.66.66,0,0,0,.66-.58v-.47c-.08.29-.22.56-.62.58-1.42.07-2.86.07-4.26.14l-1,0Z"/><path class="cls-11" d="M131.4,16.83v.41A.94.94,0,0,0,132,18l3.84-.06v-.24a.17.17,0,0,1-.07-.08l-3.61,0a.94.94,0,0,1-.79-.72Z"/><path class="cls-11" d="M137.36,15.72v.47l-.27,0a1.78,1.78,0,0,0-.34-.13l-3.72,0a.28.28,0,0,1,.08-.45l4,.08.19,0Z"/><path class="cls-12" d="M143.92,19.92l-5.31-.54a.75.75,0,0,1-.64-.74c0-1.17,0-2.34,0-3.52a.94.94,0,0,1,.86-.67c.77-.08,3.41.29,5.11.41v1.47a30.4,30.4,0,0,0-4.37-.54l-.07,0-.07.07v1.93c0,.24.21.27.36.3l4.1.33v1.46Z"/><path class="cls-11" d="M138,18.68v.46a.81.81,0,0,0,.85.74l5.09.5v-.44h-.11l-5.17-.52a.74.74,0,0,1-.66-.72Z"/><path class="cls-11" d="M139.46,16.33V15.9a.23.23,0,0,1,.13-.09,41.06,41.06,0,0,1,4.37.52v.44l0,0h-.09l0,0c-1.26-.22-2.79-.38-4.26-.5v0l-.06,0Z"/><path class="cls-12" d="M144.22,20a9.68,9.68,0,0,1,1.4.21l0-1.79,2.86.5V20.7L150,21V15.85l-1.51-.39V17.4l-2.85-.49,0-1.86-1.36-.22V20Z"/><path class="cls-11" d="M144.22,20v.47a8.86,8.86,0,0,1,1.37.18l0-.44a8.8,8.8,0,0,0-1.39-.21Z"/><path class="cls-11" d="M145.61,18.4l2.81.49v.46c-1-.16-1.86-.3-2.8-.5V18.4Z"/><path class="cls-11" d="M148.44,20.72v.47a10.54,10.54,0,0,1,1.53.28V21l-1.53-.28Z"/><path class="cls-12" d="M150.59,16c0,.08,0,5.22,0,5.22L156.72,23l0-5.44L150.59,16Z"/><path class="cls-11" d="M150.62,21.22v.46c1.16.33,2.39.7,3.54,1,1,.29,1.85.55,2.56.81v-.47l-6.1-1.84Z"/><path class="cls-13" d="M157.56,23.93l0-6.69c-4-1.72-15.18-3.89-24-3.69-12.09.27-21.53,3.64-23.12,4.52l0,6.53.14-6.1C115.17,16,126.86,14,134.33,14c7-.07,17.25,1.52,22.87,3.53l.36,6.44Z"/><path class="cls-11" d="M111.46,23.47l1.25-.39,0-1.61,4.46-1.41a.48.48,0,0,0,.32-.35l0-2.28a.45.45,0,0,0-.24-.3,1.21,1.21,0,0,0-.4-.07,10.19,10.19,0,0,0-1.87.51l-3.5,1.1.06,4.8Z"/><path class="cls-11" d="M118.16,17.29l.19,3.44a.46.46,0,0,0,.52.36c1.53-.34,4.11-.8,4.58-1a.86.86,0,0,0,.56-.79l-.09-3.16a.66.66,0,0,0-.56-.48H123l-4.17.85a1.11,1.11,0,0,0-.68.79Z"/><path class="cls-11" d="M125.13,19.9c.29,0,.58-.09.87-.15l0-1.27h0a.55.55,0,0,1,.51-.26l2.27-.22a.91.91,0,0,1,.44.29,4.73,4.73,0,0,1,.55,1l1.07-.11a11.19,11.19,0,0,0-.7-1.36,1.1,1.1,0,0,0-.2-.28,4.67,4.67,0,0,0,.44-.43l.07-.15,0-1.67a.73.73,0,0,0-.48-.53h-.33l-4.59.52.12,4.58Z"/><path class="cls-11" d="M131.76,18.36l0,.78,5-.14a.44.44,0,0,0,.3-.28l0-2c-.05-.16-.14-.21-.4-.27l-3.69.07a.55.55,0,0,1-.3-.76.78.78,0,0,1,.3-.3l4.09,0v-.79l-4.84,0a.72.72,0,0,0-.53.35c0,.6-.05,1.17,0,1.79a.71.71,0,0,0,.5.5l3.69,0a.63.63,0,0,1,.31.44.46.46,0,0,1-.19.43l-4.24.12Z"/><path class="cls-11" d="M143.64,19.64v-.83l-4-.35a.63.63,0,0,1-.46-.28v-2.3a1,1,0,0,1,.29-.27c1.28.06,2.81.25,4.21.45l0-.85-4.6-.44c-.29,0-.71.09-.81.46l0,3.55a.5.5,0,0,0,.38.4l5,.47Z"/><polygon class="cls-11" points="144.49 19.77 145.34 19.88 145.35 18.14 148.7 18.74 148.72 20.52 149.71 20.7 149.71 16.09 148.71 15.84 148.74 17.81 145.38 17.25 145.35 15.37 144.47 15.21 144.49 19.77 144.49 19.77"/><path class="cls-11" d="M150.9,16.38V21l5.54,1.67V21.57c-1.51-.43-3-.86-4.51-1.26l0-.84,4.49,1.36v-1.1L152,18.39v-.82l4.43,1.31,0-1-5.53-1.48Z"/><path class="cls-11" d="M152.21,19.85v.25l4.48,1.27v-.12c-1.27-.46-3-1-4.48-1.4Z"/><path class="cls-11" d="M152.24,18v.22l4.41,1.34,0-.19-.28-.12c-1.36-.47-2.73-.88-4.15-1.25Z"/><path class="cls-12" d="M112.67,19.38v1c0,.14.18.11.3.11l3.25-1a1,1,0,0,0,.2-.76c0-.24-.09-.56-.36-.52l-3.15,1a.39.39,0,0,0-.23.18Z"/><path class="cls-11" d="M113,19.55l3-1a.88.88,0,0,1,0,.18.82.82,0,0,1-.06.44l-3,1Z"/><path class="cls-12" d="M119.22,17.69l0,2a.44.44,0,0,0,.25.36h.26l2.73-.57a.5.5,0,0,0,.42-.59l0-1.7a.6.6,0,0,0-.3-.41h-.37l-2.56.49c-.19.1-.36.14-.44.43Z"/><path class="cls-11" d="M119.62,19.66a.34.34,0,0,1,0-.08l0-1.9.18-.08,2.54-.5h.21a.28.28,0,0,1,.07.14l0,1.62c0,.16,0,.2-.18.25l-2.67.55Z"/><path class="cls-12" d="M126,16.27v1a.25.25,0,0,0,.15.18l.3,0,2.57-.3c.27-.09.31-.26.42-.45a1.23,1.23,0,0,0-.06-.69.64.64,0,0,0-.25-.23h-.31s-2.43.28-2.46.3a.44.44,0,0,0-.34.18Z"/><path class="cls-11" d="M126.3,16.45l.18-.06h0c.13,0,1.48-.16,2.32-.25H129l.07.09a1,1,0,0,1,0,.41c-.09.15-.1.17-.2.2l-2.57.29Z"/><path class="cls-14" d="M124.8,32.91c5-.29,12.5-.19,18.89-.18l.18,13.81c-.72,12.6-18.54,11.6-19.11,0l0-13.64Z"/><path class="cls-11" d="M125.38,33.44h17.74l0,13.08c-.43,11-16.57,11.61-17.74,0l0-13.11Z"/><path class="cls-4" d="M126,34l0,12.52c.69,10.09,15.92,10.9,16.54,0V34Z"/><path class="cls-4" d="M126,34h12.59c-.57,1.25-1.19,2.72-2.5,3.27,0,.47-1.2.62-1.44.87l-1,1a29.45,29.45,0,0,1-2.21,2.65,10.94,10.94,0,0,1-1.15.3,7.07,7.07,0,0,0-1.85.75,7.55,7.55,0,0,1-1,.9,2.17,2.17,0,0,1-1.46,1.4L126,34Z"/><path class="cls-4" d="M126,34h12c-.54,1.19-1.13,2.58-2.37,3.11,0,.45-1.14.59-1.36.83l-.94.91a27.94,27.94,0,0,1-2.1,2.52,10.3,10.3,0,0,1-1.09.29,6.75,6.75,0,0,0-1.76.71,7.16,7.16,0,0,1-.92.85A2.07,2.07,0,0,1,126,44.59L126,34Z"/><path class="cls-4" d="M126,34h11.22c-.5,1.12-1.06,2.42-2.23,2.92,0,.42-1.07.55-1.28.78l-.88.85a26.25,26.25,0,0,1-2,2.37,9.74,9.74,0,0,1-1,.27,6.3,6.3,0,0,0-1.65.67,6.68,6.68,0,0,1-.86.8,1.94,1.94,0,0,1-1.3,1.25l0-9.9Z"/><path class="cls-4" d="M126,34.05h10.51c-.47,1-1,2.27-2.09,2.73,0,.39-1,.52-1.2.73l-.82.8a24.59,24.59,0,0,1-1.85,2.22,9.06,9.06,0,0,1-1,.25,5.9,5.9,0,0,0-1.55.63,6.29,6.29,0,0,1-.8.75A1.82,1.82,0,0,1,126,43.33l0-9.27Z"/><path class="cls-4" d="M126,34h9.19a4.2,4.2,0,0,1-1.82,2.39c0,.34-.87.45-1,.64l-.72.7A21.5,21.5,0,0,1,130,39.68a8,8,0,0,1-.84.22,5.16,5.16,0,0,0-1.35.55,5.5,5.5,0,0,1-.7.65,1.59,1.59,0,0,1-1.06,1l0-8.1Z"/><path class="cls-11" d="M128.17,34.88l-.29.22a.67.67,0,0,0-.2-.12.38.38,0,0,0-.28,0,.67.67,0,0,0-.19.14.31.31,0,0,0,0,.24c0,.08.06.15.17.18s.28,0,.42.07a.72.72,0,0,1,.54.49.59.59,0,0,1,0,.4.69.69,0,0,1-.53.46,1.61,1.61,0,0,1-.47,0,.83.83,0,0,1-.51-.34l.31-.17a.5.5,0,0,0,.2.15.73.73,0,0,0,.4,0,.39.39,0,0,0,.24-.2.4.4,0,0,0,0-.21.34.34,0,0,0-.24-.22,1.45,1.45,0,0,1-.43-.07.55.55,0,0,1-.42-.43.74.74,0,0,1,0-.46.65.65,0,0,1,.49-.39,1,1,0,0,1,.43,0,.55.55,0,0,1,.39.25Z"/><polygon class="cls-11" points="128.66 34.55 129.49 34.55 129.49 34.92 129.24 34.92 129.26 36.73 128.91 36.73 128.89 34.92 128.66 34.92 128.66 34.55 128.66 34.55"/><path class="cls-11" d="M130,34.8h.37v1.57a.45.45,0,0,0,.84,0V34.8h.37v1.58a.8.8,0,0,1-1.57,0V34.8Z"/><polygon class="cls-11" points="131.99 34.55 132.82 34.55 132.82 34.92 132.57 34.92 132.59 36.73 132.24 36.73 132.22 34.92 131.99 34.92 131.99 34.55 131.99 34.55"/><polygon class="cls-11" points="133.44 34.55 134.27 34.55 134.27 34.92 134.02 34.92 134.04 36.73 133.69 36.73 133.67 34.92 133.44 34.92 133.44 34.55 133.44 34.55"/><path class="cls-11" d="M136,34.77a.72.72,0,0,0-.69-.19.73.73,0,0,0-.45.4,1.36,1.36,0,0,0-.16.51,1.73,1.73,0,0,0,0,.5,1.52,1.52,0,0,0,.26.7.6.6,0,0,0,.36.23.84.84,0,0,0,.4,0,.72.72,0,0,0,.39-.34.81.81,0,0,0,.15-.41v-.63h-.67v.34h.3a1.55,1.55,0,0,1-.07.49.47.47,0,0,1-.2.22.29.29,0,0,1-.24,0,.88.88,0,0,1-.26-.34,1,1,0,0,1-.06-.24,2,2,0,0,1,0-.53.86.86,0,0,1,.12-.34.63.63,0,0,1,.18-.18.26.26,0,0,1,.24,0,.56.56,0,0,1,.13.09l.26-.26Z"/><polygon class="cls-11" points="137.49 34.25 136.6 36.69 136.94 36.8 137.07 36.41 137.93 36.41 138.05 36.79 138.39 36.66 137.49 34.25 137.49 34.25"/><polygon class="cls-4" points="137.49 35.32 137.21 36.06 137.77 36.06 137.49 35.32 137.49 35.32"/><path class="cls-11" d="M138.69,34.51v2.18h.37v-.55h.29l.47.69.31-.2-.39-.59a.58.58,0,0,0,.46-.39,1.08,1.08,0,0,0,0-.6.76.76,0,0,0-.68-.53Z"/><path class="cls-4" d="M139.06,34.87v.91h.31c.21,0,.4-.07.5-.27a.56.56,0,0,0,0-.34.54.54,0,0,0-.48-.3Z"/><polygon class="cls-11" points="140.67 34.55 141.5 34.55 141.5 34.92 141.25 34.92 141.27 36.73 140.92 36.73 140.9 34.92 140.67 34.92 140.67 34.55 140.67 34.55"/><path class="cls-11" d="M131.34,40.95a.85.85,0,0,0-.24,0c-.21.25-.33.18-.5.32a.13.13,0,0,1-.14,0,.4.4,0,0,1-.14-.07.08.08,0,0,1,0-.11.61.61,0,0,1,.18-.15.08.08,0,0,0,0-.1.33.33,0,0,0-.22,0,.48.48,0,0,1-.14.08H130a.63.63,0,0,1-.25-.18l0,0a4,4,0,0,1,.51-.34,1,1,0,0,1,.13-.22c.25-.17.52-.29.79-.46h.58a.14.14,0,0,0,0-.13l-.47-.46c-.06-.07,0-.12,0-.15h.12a1.12,1.12,0,0,1,.36.13h.38a1.44,1.44,0,0,0,.45-.26,1.22,1.22,0,0,1,.33-.19,1,1,0,0,0,.54-.33,1.37,1.37,0,0,1,.73-.52h.25c.06,0,.06.09,0,.11a.72.72,0,0,0-.42.46.4.4,0,0,0,0,.23.6.6,0,0,0,.32.24h.41a3.33,3.33,0,0,1,.78-.22h.48a.82.82,0,0,1,.39.14c.08,0,0,.09,0,.13l-.39,0a1,1,0,0,0-.4.28.19.19,0,0,0,0,.25.41.41,0,0,1,.15.17,2.11,2.11,0,0,1,.1.26,2.62,2.62,0,0,1,.4.31,2.4,2.4,0,0,1,.46.35.48.48,0,0,1,.11.29c0,.05-.08.05-.12,0a1.37,1.37,0,0,0-.45-.25.23.23,0,0,0-.22,0l-.13.11a.07.07,0,0,0,0,.12,1,1,0,0,1,.45.27,2.11,2.11,0,0,1,.25.56.14.14,0,0,1,0,.12c-.08.08-.1.07-.15,0a1.49,1.49,0,0,0-.6-.42h-.22c-.1,0-.15.06-.06.2a1.24,1.24,0,0,1,.36.49l0,.15v.47c0,.05,0,.05-.08,0a1,1,0,0,0-.42-.36.86.86,0,0,0-.46,0,1.07,1.07,0,0,0-.49.48c-.1.23-.24,1,0,1.23a1.16,1.16,0,0,0,.8.53,13,13,0,0,0,1.92,0h.94a2,2,0,0,1,1.23.77.11.11,0,0,0,.15,0,1.62,1.62,0,0,0,.35-.55.52.52,0,0,0,0-.33,2.56,2.56,0,0,1-.09-.24,5.87,5.87,0,0,0-.85-1.27,1.42,1.42,0,0,1-.28-.57.81.81,0,0,1,0-.39.84.84,0,0,1,.16-.33c.07,0,.1,0,.12,0s0,.24,0,.32a3.42,3.42,0,0,0,.22.37.12.12,0,0,0,.17,0c.06,0,.09-.53.18-.76s.14-.24.24-.32a2.43,2.43,0,0,1,.75-.35c.12-.06.14-.11.21-.29s.15-.09.17,0a.65.65,0,0,1-.14.47,2,2,0,0,1-.28.25.88.88,0,0,0-.18.28,1.31,1.31,0,0,1-.32.45.27.27,0,0,0,0,.32,1.31,1.31,0,0,0,.15.25.16.16,0,0,0,.24,0,.85.85,0,0,0,.34-.71.07.07,0,0,1,.12,0,.59.59,0,0,1,.06.61,2.08,2.08,0,0,1-.43.46s0,.08,0,.13a.93.93,0,0,1,.21.28c0,.11.21.11.4,0a.34.34,0,0,0,.12-.11c0-.09.1-.1.13,0v.21a.81.81,0,0,1-.78.42.23.23,0,0,0,0,.31.44.44,0,0,0,.15.14.32.32,0,0,0,.32,0,1.38,1.38,0,0,0,.41-.41s0,0,0,0a.45.45,0,0,1,0,.38,1.31,1.31,0,0,1-.43.54c-.1.07,0,.18,0,.23a.64.64,0,0,0,.18.16h.41a.66.66,0,0,1-.42.31H141a5.79,5.79,0,0,0-.61-.25.31.31,0,0,0-.25,0,1,1,0,0,0-.36.29c-.06.05-.06.09,0,.13a1.33,1.33,0,0,1,0,.66c-.16.62-.64.88-.86,1.48a1.21,1.21,0,0,0,0,.67,2.69,2.69,0,0,0,.38.59,3.37,3.37,0,0,1,.29.4c0,.07.06.17,0,.21a.22.22,0,0,0-.13.18c0,.24-.07.24-.14.28a3.12,3.12,0,0,0-.58.69,1.27,1.27,0,0,0-.13.25.54.54,0,0,1-.28.34,4.43,4.43,0,0,0-.92.57c-.09.1,0,.27,0,.38a.19.19,0,0,1,0,.16c-.09.2-.47.12-.62.24a.28.28,0,0,1-.26,0c-.1,0-.1-.2,0-.3a5.68,5.68,0,0,1,.38-.51.85.85,0,0,1,.26-.41l.79-.78a3.71,3.71,0,0,0,.56-1.23c.05-.2-.06-.24-.13-.31a1.8,1.8,0,0,1-1.11-.75.14.14,0,0,0-.22,0,1.08,1.08,0,0,1-.19.2c0,.28.07.55.06.82a.78.78,0,0,1-.18.2,11.76,11.76,0,0,1-1.31.79,10.85,10.85,0,0,0-1.09.65c-.12.1-.24.18-.18.4s0,.16,0,.2l-.61.18c-.19,0-.22-.13-.19-.19a4,4,0,0,0,.34-.49,1.18,1.18,0,0,1,.44-.46c.36-.22.68-.43,1-.67a1,1,0,0,0,.28-.29,3.33,3.33,0,0,1,.41-.49.27.27,0,0,0,.15-.28.52.52,0,0,0-.11-.3,2.09,2.09,0,0,1-.46-.65.82.82,0,0,1,0-.53c.1-.29,0-.26-.11-.32-.47-.05-1.15,0-1.79,0L133,47a2,2,0,0,1-.73-.47c-.09-.12-.18-.13-.33,0a1.45,1.45,0,0,1-.58.32,1,1,0,0,1-.51,0,1.72,1.72,0,0,0-.48-.1c-.17,0-.29-.11-.45-.14s-.37,0-.55,0,0,.2-.15.29l-.06.07,0,.67a6.26,6.26,0,0,0,.14.94v.29s0,.07.1.08.14.05.15.13.13.08.23,0H130c.09,0,.14.12.07.25l-.41.47c-.08.07-.13.08-.22,0s-.26-.48-.5-.56a.41.41,0,0,1-.24-.31,10.13,10.13,0,0,1-.05-1.25,4.63,4.63,0,0,0-.08-1c-.08-.25,0-.49.19-.57a1.16,1.16,0,0,0,.32,0c.31-.14.67,0,1.17-.28,0,0,0-.15,0-.19a.78.78,0,0,0-.16-.27l-.21,0c-.32,0-.37-.21-.44-.41s0-.32-.1-.42l-.56-.78a.16.16,0,0,0-.24,0,3.24,3.24,0,0,0-.53.7,2.2,2.2,0,0,0-.19.41c0,.07,0,.21-.06.27a.94.94,0,0,1-.33.44l0,.12a.45.45,0,0,0,0,.33.51.51,0,0,1,.13.1.18.18,0,0,1,0,.22,1.71,1.71,0,0,0-.54.26s-.17,0-.22,0a.43.43,0,0,1,0-.35,1.54,1.54,0,0,1,.21-.34l.14-.16c0-.26.12-.32.15-.47l.19-.6c.14-.26.32-.46.48-.72.06-.06.07-.24.15-.28l.19-.24a.73.73,0,0,1,.32-.37c.13-.08.25-.13.38,0a2,2,0,0,1,.31.54c0,.12.14.2.22.28a1.3,1.3,0,0,1,.25.14.23.23,0,0,0,.3,0c.08-.16.14-.35.21-.53a2.58,2.58,0,0,1,1.1-1.43.34.34,0,0,0,.17-.29.76.76,0,0,1,.22-.38.13.13,0,0,0,0-.2c-.09-.07-.26-.05-.38-.11Z"/><path class="cls-4" d="M133.16,39.39a.85.85,0,0,1,.29.37,5.2,5.2,0,0,1,.27,2.09c0,.11,0,.24,0,.34a.26.26,0,0,0,.32,0,.56.56,0,0,0,.21-.36,6.65,6.65,0,0,0,0-1.6,1.31,1.31,0,0,0-.87-1.12.4.4,0,0,0-.24,0,.2.2,0,0,0,0,.29Z"/><path class="cls-4" d="M133.71,41.45a2,2,0,0,0,0,.73c.24.2.5-.15.53-.36a5.36,5.36,0,0,0,0-1.62l-.16.1c.05.18-.14.6-.19.8a.42.42,0,0,1-.23.36Z"/><path class="cls-4" d="M133.17,39.4a1,1,0,0,1,.27.33.43.43,0,0,1,.1-.15h0c.12-.12.08-.23.13-.38a1,1,0,0,0-.23-.09c-.19-.08-.44.11-.26.28Z"/><path class="cls-10" d="M115.55,43.27l.14.2a20.85,20.85,0,0,1,5.89-2.39,8.84,8.84,0,0,1,3.23-.14v-.3c-1.93-.27-5.24.25-9.25,2.63Z"/><path class="cls-3" d="M113.22,80.65h-6.4v3.67h.71v-.86h5.81a.58.58,0,0,0,.53-.62V81.2C113.88,80.67,113.44,80.65,113.22,80.65Zm-.09,1.68c0,.26-.09.37-.29.37h-5.3V81.33h5.25c.26,0,.35.13.35.27Z"/><path class="cls-3" d="M121.49,80.64h-6.28a.35.35,0,0,0-.34.36v2.93a.35.35,0,0,0,.34.36h6.28a.35.35,0,0,0,.34-.36V81A.35.35,0,0,0,121.49,80.64Zm-.35,2.74a.25.25,0,0,1-.27.23h-5a.25.25,0,0,1-.27-.23V81.52a.25.25,0,0,1,.27-.23h5a.25.25,0,0,1,.27.23Z"/><path class="cls-3" d="M129.47,83.47a.54.54,0,0,0,.37-.58V81.35c0-.44-.18-.69-.55-.69H122.8v3.67h.71v-.88h5.16l.4.84h.84Zm-.33-1.1c0,.22-.09.33-.33.33h-5.28V81.35h5.28c.22,0,.33.11.33.29Z"/><path class="cls-3" d="M137.72,80.62v.73h-5.61a.25.25,0,0,0-.27.27v.24a.23.23,0,0,0,.24.26h5.1a.56.56,0,0,1,.59.58v1a.58.58,0,0,1-.6.62h-6V83.6h5.59c.25,0,.31-.11.31-.26V83c0-.22-.37-.18-.51-.18h-4.86a.5.5,0,0,1-.53-.57V81.13c0-.33.31-.49.62-.49Z"/><path class="cls-3" d="M145.65,80.63v.68h-5.58c-.26,0-.31.18-.31.35v1.61c0,.26.07.33.25.33h5.61v.69h-6c-.51,0-.57-.35-.57-.66V81.11c0-.49.44-.49.59-.49Z"/><polygon class="cls-3" points="152.73 80.6 152.73 82.11 147.46 82.11 147.46 80.6 146.75 80.6 146.75 84.33 147.46 84.33 147.46 82.83 152.73 82.83 152.73 84.33 153.45 84.33 153.45 80.6 152.73 80.6"/><polygon class="cls-3" points="161.59 81.33 161.59 80.62 154.56 80.62 154.56 84.31 161.59 84.31 161.59 83.6 155.27 83.6 155.27 82.79 161.59 82.79 161.59 82.08 155.27 82.08 155.27 81.33 161.59 81.33"/></svg>