<svg id="Layer_1" data-name="Layer 1" xmlns="http://www.w3.org/2000/svg" viewBox="0 0 267 100"><defs><style>.cls-1{fill:none;}.cls-2{fill:#77797a;}</style></defs><title>publicis-8</title><rect class="cls-1" width="267" height="100"/><path class="cls-2" d="M99.8,73.89H94.09v-25h5.62V64a7.59,7.59,0,0,0,6.54-2.93,12.06,12.06,0,0,0,1.49-12.57C106,44.3,102.49,42.34,98,42.11c-6-.31-10.78,2.9-12,8.2a14.89,14.89,0,0,0,.88,9.26c.13.32.27.63.4.94-.42.44-.72.51-1-.09-4.75-8.84-1.09-21.56,11.65-22.54a15,15,0,0,1,15.93,10.8A13.85,13.85,0,0,1,113,58.81a10.87,10.87,0,0,1-9.3,6.22c-1.23.12-2.48,0-3.84,0Z"/><path class="cls-2" d="M145.77,63.3l-.07,1.28h-5.57V33.14h5.57V46.29A17.7,17.7,0,0,1,148,44.77c3.83-1.77,9-.08,10.81,3.75a12.53,12.53,0,0,1-1.22,13.27,8,8,0,0,1-8.29,3.15A14.32,14.32,0,0,1,145.77,63.3Zm6.67-16.57a3.29,3.29,0,0,0-5.47-.19,5.57,5.57,0,0,0-1.17,2.91c-.14,3.63-.13,7.26,0,10.89a3.7,3.7,0,0,0,4.92,3.39,4.06,4.06,0,0,0,2.5-3C153.71,58.64,153.64,48.4,152.45,46.73Z"/><path class="cls-2" d="M130.2,44.88h5.64V64.6H130.2V61.92a6.76,6.76,0,0,1-4.66,3,13.81,13.81,0,0,1-4.5-.22,5.19,5.19,0,0,1-4.14-5.32,82.84,82.84,0,0,1,1.1-8.73c.25-1.64.69-3.25,1-4.88a1,1,0,0,1,1.17-.94c1.51.06,3,0,4.7,0-.36,1.74-.7,3.31-1,4.89-.46,2.48-1,5-1.28,7.47a11.46,11.46,0,0,0,.11,3.71,3.24,3.24,0,0,0,4.81,2.32A4.27,4.27,0,0,0,130.21,59c0-4.29,0-8.59,0-12.88Z"/><path class="cls-2" d="M223.38,38.76a4.69,4.69,0,0,1-1,0,21.86,21.86,0,0,0-3.68-.89,3.18,3.18,0,0,0-3.3,4.3,12.07,12.07,0,0,0,2.22,3.68c1.66,2,3.55,3.79,5.25,5.75A9.87,9.87,0,0,1,225.45,57,6.13,6.13,0,0,1,223,63a10.82,10.82,0,0,1-10.92,1.25,11.26,11.26,0,0,1-1.58-.95l.65-.77A7.86,7.86,0,0,0,217.31,64c2.83-.45,4.18-2.8,2.89-5.36a21.09,21.09,0,0,0-2.8-4c-1.73-2.07-3.68-4-5.34-6.08a11.2,11.2,0,0,1-1.9-3.76A5.93,5.93,0,0,1,214,37.62a10.7,10.7,0,0,1,7.52-.2,19,19,0,0,1,1.94.9Z"/><path class="cls-2" d="M168.78,33.13V64.59h-5.55V33.13Z"/><path class="cls-2" d="M197.88,63.37c-.31.21-.58.43-.87.6a9.89,9.89,0,0,1-14.82-7.78,12.64,12.64,0,0,1,1.28-7.26c2.53-4.6,9.45-6.33,13.69-3.38-.18.57-.48.73-1.06.42a5.93,5.93,0,0,0-1.36-.49,4.36,4.36,0,0,0-5.67,3,17.92,17.92,0,0,0-.79,7.38,18.7,18.7,0,0,0,.66,4c1.13,3.83,4.17,5.08,7.71,3.24C197.11,62.84,197.51,62.62,197.88,63.37Z"/><path class="cls-2" d="M178.7,64.59h-5.59V44.88h5.59Z"/><path class="cls-2" d="M206.44,64.61h-5.52V44.9h5.52Z"/><path class="cls-2" d="M179,38.67a3.09,3.09,0,1,1-3.08-3.07A3,3,0,0,1,179,38.67Z"/><path class="cls-2" d="M200.65,38.69a3,3,0,0,1,3-3.1,3,3,0,1,1,0,6.1A2.93,2.93,0,0,1,200.65,38.69Z"/><path class="cls-2" d="M61.05,58a1.94,1.94,0,0,0,.64-2.47c-.25-.6-.48-1.21-.78-1.94L62.24,53c-.33.84-.19,1.32.8,1.23-.29.38-.64.63-.66.91s.09,1.07.31,1.15a6,6,0,0,1,3.24,3.34c.57,1.12,1.26,2.18,1.87,3.21-1.68-.22-2.52-1.73-3.52-3.17a4,4,0,0,0,3.29,4.07,11.51,11.51,0,0,0,1.45,0c1.8,0,2.11.19,2.79,1.87a3,3,0,0,0,1.94,2.14c.79.22,1.53.33,2.14-.66a7.45,7.45,0,0,1-1.41-.27,1.78,1.78,0,0,1-.9-.71A14.54,14.54,0,0,1,72.7,64a2.69,2.69,0,0,0-2.24-2,4.76,4.76,0,0,1-3.39-2.48c-.91-1.48-2-2.86-3-4.29a2.89,2.89,0,0,1,2.51,1.13c.8.86,1.51,1.81,2.28,2.7,1.87,2.18,3.12,2.38,5.59.91,1.89-1.13,3-1.15,4.38-.08l.13-.61c.07,0,.15.05.16.09a2.07,2.07,0,0,1-.77,2.84c-.26-1,.4-2.88-1.76-2.37a1.71,1.71,0,0,0-1.46,2.15c-.92-1.08-1.51,0-2.33.28l3.27,2H73.79c-.34,1.78.65,2.54,3.6,2.63a7.22,7.22,0,0,1-1.2,1.19c-1.32.76-2.62.16-3.88-.24-.31-.1-.44-.75-.67-1.14a3.46,3.46,0,0,0-4-1.91l4.64,4.74a5.88,5.88,0,0,0-.68,1.15,5.17,5.17,0,0,1-2.72,3.44c.25-.47.37-.72.5-1,.85-1.54.64-2.66-.9-3.49-1.75-.94-2.43-2.54-2.91-4.35.34.4.68.8,1,1.18a33.79,33.79,0,0,0,2.64,2.76,2.81,2.81,0,0,1,.87,3.24,2.46,2.46,0,0,0,.22-3.77c-1.11-1-2.37-2-3.36-3.09-1.58-1.82-3-3.77-4.7-5.94a6.64,6.64,0,0,0,.19,1.52c.27.67.7,1.27,1,1.93a25.37,25.37,0,0,1,1.21,2.95A8,8,0,0,0,66.79,70c-1,.08-1.49-.37-2.33-2-.49-1-.93-2-1.51-2.94.4,2.88,1.63,5.51,2.53,8.43L63,71.94c-.36,1,.25,1.57.77,2.15a1.61,1.61,0,0,1,.24,2,1.38,1.38,0,0,1-1.76.61l.68-.42c-.19-.2-.3-.43-.46-.47-1.61-.43-2-1.88-2.49-3.14-.13-.3.13-.8.3-1.16.4-.89.36-1.57-.63-2a6,6,0,0,1-1.05-.87l-.33,6.17L56.42,72.4c-.93,2.19-2.6,2.59-5,2.44,2.15-1.39,2.32-3,1.1-4.75-.17-.25-.6-.31-.9-.45.1-.26.41-.67.37-1a3.19,3.19,0,0,1,1.47-3c1-.76,1-1.2,0-2.42L48.3,71.52l-.15,0,.55-4a2.71,2.71,0,0,0-2.78,2.16,4.6,4.6,0,0,1-.8,1.77,1.78,1.78,0,0,1-1.45.45,1.68,1.68,0,0,1-1-1c-.32-1,.64-1.11,1.33-1.44-.11-.28-.18-.54-.29-.78a2,2,0,0,1,1.22-3c.74-.29,1.52-.47,2.26-.76a7.48,7.48,0,0,0,1.19-.81L46.84,64c2.22-.88,2.38-1.1,2.21-3.17l-6.6,3.58,1.34-2.39a11,11,0,0,1-3.15.05,12.2,12.2,0,0,1-2.79-1.67c.17-.72.67-1,1.49-.88,2,.33,2.34.2,3.72-1.51l-3.5-1.91.05-.21h4.93c1.52,0,3.05,0,4.57,0,.36,0,.7-.33,1.05-.51A3.49,3.49,0,0,0,49,55a8.42,8.42,0,0,0-2,.26,5.27,5.27,0,0,1-4.45-.73c-.07-.05-.17-.08-.22-.14-1.31-1.75-1.94-1.92-3.88-1a2.42,2.42,0,0,1-.28.09,2.29,2.29,0,0,1,.81-2.76,2.74,2.74,0,0,1,3.28-.33c.5.3.89.79,1.4,1.06a9.42,9.42,0,0,0,1.63.53l.2-.34-2.47-3,.1-.16,4.33,2c-.33-1.1-.27-2.12-1.76-2.28,1-.17,1.08-.64.54-1A10.73,10.73,0,0,0,44.14,46a2.53,2.53,0,0,1-1.6-3.42,1.74,1.74,0,0,1,1.8-1.19A7.21,7.21,0,0,0,45.17,44c.44.51,1.42.56,2.17.82l.19-.32-.52-2,6.11,5.95a1.63,1.63,0,0,1-2.33-.11,7.07,7.07,0,0,1-1.4-2.11c-.47-1.09-.81-1.35-2-1-.45.13-.89.29-1.56.51a2.79,2.79,0,0,1,1.9,2.66c.21,1.52.81,2.81,2.62,3.06l-.05.26a9.49,9.49,0,0,0-1.67,0,7.85,7.85,0,0,0-1.46.58l3.29,1.83-.67-1.61c1-.09,2-.33,2.28-1.61.69.63.77,1.05.12,1.59-.83.69-.62,1.4-.26,2.33l.39-.43,1.22.82.22-.16-.58-1.73-.32,0,.66-.74,1.26.51-.57,1.12a3.76,3.76,0,0,0,1.48.21c1-.3,1.39-1.12,1.59-2.89,1,.28,1,2.16-.12,3.73l1.78.42v.1l-1.9-.1c.55,1.84,1.85,1.21,2.81.95A6.77,6.77,0,0,0,59,58.06c0,.16.63.8.85.74.45-.11.81-.55,1.21-.85Zm-9.67,4.9L51,62.78l1-5.43a4.52,4.52,0,0,0-1.63,3.87c0,2.79-1,4.28-3.25,4.83-.53.13-1.08.17-1.61.31-1.4.36-1.66,1.1-.86,2.31.15.22.28.46.43.72l.55-1-1.13-.8c5.74-1,9.07-4.12,9.42-9.86C52.53,59.11,52.53,61.29,51.38,62.88ZM63,74.49a5.57,5.57,0,0,1-.57-1.23c-.11-.71-.42-1.63-.11-2.11a3.18,3.18,0,0,0,0-3.89c-.28-.42-.44-.92-.69-1.37a4.46,4.46,0,0,1-.44-3.37,7.8,7.8,0,0,0,0-1.84,9.26,9.26,0,0,0-.91,2.16,4.76,4.76,0,0,0,.66,4.86,3.33,3.33,0,0,1,.59,3.3C61.07,72.53,61.49,73.58,63,74.49Zm-9.06-.7.26.12c.26-.37.69-.71.74-1.11a6.29,6.29,0,0,0-.09-2.31,4.77,4.77,0,0,1,.95-4.7c1.17-1.36,1.12-2.27.15-3.83-.21-.34-.41-.69-.62-1a3.3,3.3,0,0,0,0,1.38,1.92,1.92,0,0,0,.13.39c.57,1.34.55,1.76-.56,2.72a3.46,3.46,0,0,0-1.26,4C54.23,70.9,54.7,72.27,53.94,73.79ZM57.69,61A5.75,5.75,0,0,1,57,65.82,5.07,5.07,0,0,0,56.49,71,5.76,5.76,0,0,0,57,69.49a6.54,6.54,0,0,1,1.15-3.78A4,4,0,0,0,57.69,61ZM46.38,54.3c-1.18-.95-2.49-2-3.75-3a3.51,3.51,0,0,0-3.05-.37c-.1.06-.13.21-.34.56,1.72-.47,2.51.65,3.51,1.46A5.21,5.21,0,0,0,46.38,54.3Zm2,3.49,2.23-.92-.09-.3a5.19,5.19,0,0,1-4.36.27c-.84-.24-1.73-.15-2.09.7l4.51,1Zm-4.83,2.27c.84.13,1.73.22,2.6.4a2.78,2.78,0,0,0,3.08-1.17H46.59C45.46,59.29,44.22,58.91,43.52,60.06Zm-4.6.11,0,.24c.3.16.6.3.89.47s.62.43,1,.61c.86.47,1.31.19,1.39-.78Zm17.54-3.33-.09.18.68,1.18-.48.17a1.36,1.36,0,0,0,1.2.2,1.11,1.11,0,0,0,.28-.88A11.89,11.89,0,0,0,56.47,56.84ZM43.93,42a1.42,1.42,0,0,0-.71,1.91,1.75,1.75,0,0,0,2,1.11C43.68,44.33,43.48,43.9,43.93,42Zm.82,28.59-.17-.43c-.53.78-.9.68-1.23-.1a1.85,1.85,0,0,0-.09,1.15.82.82,0,0,0,.76.27A3.5,3.5,0,0,0,44.75,70.58Z"/><path class="cls-2" d="M79,51.13c.11,0,.29.08.3.15a2.72,2.72,0,0,1-1,2.69,2.08,2.08,0,0,1-2.43.16,3.77,3.77,0,0,0-1.11-.54,1.94,1.94,0,0,0-1.08.39c-.08.05.05.45.07.56l-2.37,1,0,.28h6.16l0,.24-4,1.89c1.73.19,3.54-1,5,.73a4.65,4.65,0,0,0-4.16.14,2.85,2.85,0,0,1-3.39-.82c-.42-.46-.73-1-1.13-1.48-.83-1-1.69-1.93-2.62-3a5.17,5.17,0,0,1,1.53.46C71,55.53,72,55.3,72.93,52.72c.47-1.25.94-1.3,2-.34,1.29,1.2,1.49,1.26,3.07.84v.42c.65.1,1.19-1.26,1-2.52Z"/><path class="cls-2" d="M68.32,51.52a8.27,8.27,0,0,1,1.13-.76,16.23,16.23,0,0,1,1.66-.58A3,3,0,0,0,73.48,47c.08-1.8.21-2.1,1.65-3.37l-1.33.22-.14-.21,1.3-.74a2,2,0,0,0-2.35,1.48c-.18.7-.22,1.44-.37,2.15a1.59,1.59,0,0,1-2.31,1.33,2.1,2.1,0,0,0-2.79.81,4.11,4.11,0,0,1-.84.67c.26-1.2.45-2.32.76-3.41A11,11,0,0,1,68,43.61a20.41,20.41,0,0,1,1.53-2.1l-.13,1,1.7-.83.09.12-3.75,4.9c2.31.09,3.48-.69,4.15-2.61a4.54,4.54,0,0,1,3-1.72A2.23,2.23,0,0,1,76.75,44c-.75.25-1.87.28-2.17.79a13.51,13.51,0,0,0-1,3.44h2l.07.23-7.09,3.4Zm3.2-5.44-1.69,1.07C71.35,48.34,71.07,46.59,71.52,46.08Z"/><path class="cls-2" d="M61.43,39.48a1.54,1.54,0,0,1-.55-2.28,10.51,10.51,0,0,1,1.74-1.64,1.92,1.92,0,0,0-2.55,2,12.39,12.39,0,0,0,.48,1.67,8.28,8.28,0,0,1,0,4.89,8.21,8.21,0,0,0,0,2.34l-1.42-1.11c-.79,1.14-.53,1.79.69,1.89-.57.46-1.1.34-1.55-.43a4.07,4.07,0,0,1-.13-3.6,9.71,9.71,0,0,0,.29-1.4l.58.4a16.73,16.73,0,0,0,.23-2.28,14.21,14.21,0,0,0-.39-1.71A2.71,2.71,0,0,1,62.08,35a3.17,3.17,0,0,1,.87.47c-.17.28-.27.66-.51.82A2.54,2.54,0,0,0,61.43,39.48Zm-2.79,4.46c.82-.74,1.7-1.47,1.49-2.79Z"/><path class="cls-2" d="M52.69,36.4l-1.38-.16-.26.34a3.07,3.07,0,0,1,.57.21,1.53,1.53,0,0,1,.69,2c-.34.87-.75,1.71-1.07,2.58-.68,1.8-.34,2.83,1.26,3.9.8.53,1.48,1.12,1.46,1.95a20.39,20.39,0,0,1-2.53-2,19.47,19.47,0,0,1-1.8-2.64,2.87,2.87,0,0,0,.63-.79A15.58,15.58,0,0,0,51,39c.15-1.05-.2-1.28-1.24-1.19a5.69,5.69,0,0,1-1.29-.17c.3-.45.49-1.1.91-1.3a3,3,0,0,1,3.29.07Z"/><path class="cls-2" d="M52.67,36.42c1,.23,1.24,1,1.26,1.87s-.13,1.79-.11,2.69,0,1.63,1.16,1.9l1.07-4.18.16,0,1.06,5.87-2-.87a2.56,2.56,0,0,1-1.69-3c.06-.55.1-1.1.17-1.65a2.91,2.91,0,0,0-1-2.66Z"/><path class="cls-2" d="M79,51.13l-.37-1c-.48,2.44-.7,2.66-2.19,2.37l.7-.41c-1-.46-2-.94-3-1.38a2,2,0,0,0-2.44,1.05c-.81,1.3-.81,1.3-2.33.87a2,2,0,0,1-.94-.45c.37-.09.75-.17,1.11-.27s1.14-.17,1.46-.51a3.08,3.08,0,0,1,3.33-1.06c.14,0,.32-.06.49-.09A2.5,2.5,0,0,0,77,51.56c.69-.06.88-.38,1.17-2,.57.4,1.12.75.84,1.57Z"/><path class="cls-2" d="M64.48,38.88l-2.61,7.33A2.35,2.35,0,0,1,62,43.66a2.67,2.67,0,0,0,.57-2.6c0-.12.11-.35.23-.49.51-.6,1-1.18,1.57-1.77Z"/><path class="cls-2" d="M67,41c0,.06,0,.16-.08.17-2,.53-2.57,2-2.7,3.81-.1,1.34-1.1,1.89-2.19,2.35,0-.1-.08-.19-.07-.2a4.38,4.38,0,0,0,2-3.75c0-.46.41-.92.66-1.36s.48-.74.72-1.12l.3.48L67,41Z"/><path class="cls-2" d="M63.44,51.74,60.7,52.87c-.22-.83-.37-1.54.33-2,.93-.58,1.58.24,2.33.54Z"/><path class="cls-2" d="M56.28,52.83l-2.82-1.07c.9-.62,1.57-1.34,2.38-.82.43.27.53,1.07.78,1.64Z"/><path class="cls-2" d="M51.55,50.11c-.49.06-1.08.32-1.45.14A2.36,2.36,0,0,1,49,49a6.66,6.66,0,0,1-.09-2.7c.19.57.4,1.14.56,1.72.29,1.05.75,1.88,2.09,1.71Z"/><path class="cls-2" d="M64.76,47.92a13.65,13.65,0,0,0,.39-2.16,3.19,3.19,0,0,1,2.43-3.41c-1.5.91-1.83,2.35-2,3.94a6.66,6.66,0,0,1-.71,1.79Z"/><path class="cls-2" d="M52.17,42.59a2.71,2.71,0,0,0,2.1,1.93,11,11,0,0,1,1.91.77c.32.17.52.55.81.88-1.32-.54-2.53-1-3.73-1.53A1.53,1.53,0,0,1,52.17,42.59Z"/><path class="cls-2" d="M67,41c1.6-1.13.83-2.25-.26-3.37l.26-.23,1.33.13c0,.44-.18.76-.09,1,.48,1.31.13,2-1.25,2.45Z"/><path class="cls-2" d="M68.11,49.49l4.15-1.15.09.26-4.07,1.25Z"/><path class="cls-2" d="M61.08,57.95l-1.18.56c-.05-.6-1-1.3.33-1.5l.82,1Z"/><path class="cls-2" d="M61.53,49.92c1-.87,1.76.06,2.78.08C63.2,50.83,62.49,49.77,61.53,49.92Z"/><path class="cls-2" d="M54.79,50.38l-1.41.15-.06-.22,1.15-1.06Z"/></svg>