<svg id="Layer_1" data-name="Layer 1" xmlns="http://www.w3.org/2000/svg" viewBox="0 0 267 100"><defs><style>.cls-1{fill:none;}.cls-2{fill:#78797a;}</style></defs><title>samsung-8</title><rect class="cls-1" width="267" height="100"/><path class="cls-2" d="M52.84,44a3.1,3.1,0,0,1,0-1.31A2.07,2.07,0,0,1,55.11,41a2.14,2.14,0,0,1,2.33,2.27v1.55h6.24V43.09c0-5.45-4.91-6.31-8.45-6.31-4.45,0-8.08,1.47-8.74,5.56a8.59,8.59,0,0,0,0,3.38c1.09,5.12,10,6.6,11.28,9.84a3.18,3.18,0,0,1,0,1.85,2.16,2.16,0,0,1-2.44,1.69,2.23,2.23,0,0,1-2.5-2.28V54.4H46.18v1.91c0,5.6,4.4,7.28,9.1,7.28,4.52,0,8.24-1.54,8.85-5.73a12.48,12.48,0,0,0,0-4.1C63,48.51,53.55,47,52.84,44Zm159.61,4.53v3.65H215v3.62a4.84,4.84,0,0,1-.07,1,2.7,2.7,0,0,1-5.11,0,5.84,5.84,0,0,1-.07-1V44.39a4.93,4.93,0,0,1,.11-1.18,2.62,2.62,0,0,1,5,0,5.88,5.88,0,0,1,.08,1v1.39h6.31v-.82a15,15,0,0,0,0-1.66c-.48-4.69-4.34-6.18-8.78-6.18s-8.24,1.5-8.79,6.18c0,.43-.13,1.2-.13,1.66V55.26a14.51,14.51,0,0,0,.1,1.65c.41,4.57,4.37,6.18,8.8,6.18s8.38-1.62,8.8-6.18c.07-.84.08-1.2.09-1.65V48.55ZM169,37.57h-6.34V56.1a4.4,4.4,0,0,1-.05.95,2.26,2.26,0,0,1-2.41,1.82A2.24,2.24,0,0,1,157.8,57a3.92,3.92,0,0,1-.07-.95V37.57h-6.33V55.52c0,.47,0,1.41.05,1.66.44,4.67,4.12,6.19,8.73,6.19s8.29-1.52,8.74-6.19a15.15,15.15,0,0,0,.06-1.66V37.57Zm-58.18,0-3.16,19.57-3.16-19.57H94.27l-.54,25H100l.17-23.18,4.3,23.18h6.35l4.31-23.18.17,23.18h6.27l-.56-25ZM73,37.57l-4.64,25h6.76l3.5-23.18L82,62.61h6.72l-4.62-25ZM191.11,57.73l-5.89-20.15h-9.29V62.35h6.14l-.35-20.8L188,62.35H197V37.57h-6.19l.34,20.15ZM134.26,44.09a3.31,3.31,0,0,1,0-1.29,2.05,2.05,0,0,1,2.27-1.67,2.11,2.11,0,0,1,2.29,2.25V44.9H145V43.16c0-5.4-4.84-6.24-8.34-6.24-4.41,0-8,1.46-8.67,5.51a8.34,8.34,0,0,0,.06,3.34c1.07,5.06,9.88,6.53,11.16,9.73a3.36,3.36,0,0,1,0,1.84c-.19.83-.75,1.67-2.41,1.67a2.22,2.22,0,0,1-2.5-2.25v-2.4h-6.64v1.91c0,5.53,4.34,7.2,9,7.2,4.47,0,8.16-1.53,8.76-5.67a12.29,12.29,0,0,0,0-4.06c-1-5.19-10.43-6.75-11.14-9.65Z"/></svg>