<svg id="Layer_1" data-name="Layer 1" xmlns="http://www.w3.org/2000/svg" viewBox="0 0 267 100"><defs><style>.cls-1{fill:none;}.cls-2{fill:#909191;}.cls-3{fill:#78797a;}.cls-4{fill:#fff;}</style></defs><title>sams-8</title><rect class="cls-1" width="267" height="100"/><rect class="cls-2" x="106.01" y="22.84" width="55.32" height="55.32" transform="translate(3.44 109.31) rotate(-45)"/><rect class="cls-3" x="106.01" y="22.84" width="55.32" height="55.32" transform="translate(3.44 109.31) rotate(-45)"/><path class="cls-2" d="M94.41,50.83,134,11.25l39.58,39.58L134.23,90.18l-.23.23L94.41,50.83ZM134,89.95l.23-.23-.23.23ZM95.35,50.83,134,89.48l38.65-38.65L134,12.18,95.35,50.83Z"/><path class="cls-2" d="M93.76,50.17l39.58-39.58,39.58,39.58L133.57,89.52l-.23.23L93.76,50.17Zm39.58,39.12.23-.23-.23.23ZM94.69,50.17l38.65,38.65L172,50.17,133.34,11.52,94.69,50.17Z"/><path class="cls-2" d="M94.08,50.5l39.58-39.58L173.25,50.5,133.9,89.85l-.23.23L94.08,50.5Zm39.58,39.12.23-.23-.23.23ZM95,50.5l38.65,38.65L172.32,50.5,133.67,11.85,95,50.5Z"/><path class="cls-4" d="M134.43,40.18l8.27-8.27-8.27-8.27L137,21.07l10.84,10.84L137,42.75l-2.56-2.56Zm0-16.55h0Z"/><path class="cls-4" d="M133.82,40.18l-2.56,2.56L120.43,31.91l10.84-10.84,2.56,2.56-8.27,8.27,8.27,8.27Zm0-16.55h0Z"/><polygon class="cls-4" points="151.31 45.63 153.54 45.88 151.5 48.98 150.97 48.98 151.31 45.63"/><path class="cls-4" d="M107.58,54.79h.58a8.09,8.09,0,0,0,2,3.44,4.57,4.57,0,0,0,3.33,1.37,2.89,2.89,0,0,0,2.16-.88,3,3,0,0,0,.85-2.16,3.94,3.94,0,0,0-.12-1,3.61,3.61,0,0,0-1.26-2,33,33,0,0,0-2.92-1.94,12.16,12.16,0,0,1-2.95-2.35,4.77,4.77,0,0,1,.36-6.15,4.5,4.5,0,0,1,3.26-1.27,6.59,6.59,0,0,1,2.3.45,7.8,7.8,0,0,0,1.41.45q.58,0,.86-.9H118l.59,5.77h-.67a7.5,7.5,0,0,0-1-2.34,5.39,5.39,0,0,0-1.62-1.69,3.78,3.78,0,0,0-2.11-.62,2.79,2.79,0,0,0-2,.68,2.46,2.46,0,0,0-.74,1.91q0,1.72,2.74,3.42,2.57,1.64,3.52,2.32a6.44,6.44,0,0,1,1.65,1.73,4.58,4.58,0,0,1,.69,2.58,4.82,4.82,0,0,1-1.47,3.49,5.31,5.31,0,0,1-4,1.49,5.76,5.76,0,0,1-1.43-.16q-.63-.16-1.44-.43a4.34,4.34,0,0,0-1.16-.27q-.69,0-.78.86h-.54Z"/><path class="cls-4" d="M129,58.41q0,.86.55.86a2.5,2.5,0,0,0,1.37-.65v.73a5.67,5.67,0,0,1-1,1,1.93,1.93,0,0,1-1.1.49q-1.8,0-1.88-2.1-2.15,2.1-3.75,2.1a2.58,2.58,0,0,1-1.94-.84,2.85,2.85,0,0,1-.8-2,3.27,3.27,0,0,1,.64-2,5.54,5.54,0,0,1,1.61-1.45,14.29,14.29,0,0,1,2.06-1l2.06-.83a8.8,8.8,0,0,0-.36-3.08,1.48,1.48,0,0,0-1.52-.83,2.79,2.79,0,0,0-1,.2,1.18,1.18,0,0,0-.69.55,1,1,0,0,0-.08.49q0,.16,0,.53t0,.58a1.17,1.17,0,0,1-.35.83,1.06,1.06,0,0,1-.79.37A1,1,0,0,1,121,51.12a2,2,0,0,1,.27-1q1-2,4.07-2a3.5,3.5,0,0,1,2.91,1,6,6,0,0,1,.8,3.58Zm-2.19-5.06-1.49.58a8,8,0,0,0-1.26.63,3.05,3.05,0,0,0-1,.95,2.65,2.65,0,0,0-.38,1.47,2.56,2.56,0,0,0,.48,1.59,1.6,1.6,0,0,0,1.36.63,3.3,3.3,0,0,0,1.25-.4,2.14,2.14,0,0,0,1-.79Z"/><path class="cls-4" d="M133.55,51.5a2.34,2.34,0,0,0-.32-1.46,1.78,1.78,0,0,0-1.32-.36v-.45l3.87-1.4v1.77q0,.25.12.25a.35.35,0,0,0,.2-.12l.29-.31.3-.32a5.35,5.35,0,0,1,3.19-1.28,2.57,2.57,0,0,1,1.74.64,3,3,0,0,1,1,1.66,7.57,7.57,0,0,1,1.9-1.62,4.17,4.17,0,0,1,2.16-.68q2.11,0,2.73,1.38A9.51,9.51,0,0,1,150,53v5.06a2,2,0,0,0,.36,1.31,1.91,1.91,0,0,0,1.28.5v.37h-5.54v-.37a1.53,1.53,0,0,0,1.68-1.81V52.57a5.59,5.59,0,0,0-.41-2.63,1.81,1.81,0,0,0-1.66-.67,3.25,3.25,0,0,0-2.83,1.65v7.16a1.93,1.93,0,0,0,.37,1.31,2,2,0,0,0,1.31.5v.37H139v-.37a1.9,1.9,0,0,0,1.28-.5,2,2,0,0,0,.36-1.31V52.45a6.69,6.69,0,0,0-.33-2.31,1.39,1.39,0,0,0-1.47-.86,3.72,3.72,0,0,0-1.73.45,3.6,3.6,0,0,0-1.35,1.16v7.2a1.93,1.93,0,0,0,.37,1.31,2,2,0,0,0,1.31.5v.37h-5.54v-.37a1.9,1.9,0,0,0,1.28-.5,2,2,0,0,0,.36-1.31Z"/><path class="cls-4" d="M152.88,56.36h.41q.57,3.79,3.19,3.79a1.92,1.92,0,0,0,1.37-.52,1.84,1.84,0,0,0,.56-1.41,2,2,0,0,0-.65-1.53,16.07,16.07,0,0,0-2-1.45,9.37,9.37,0,0,1-2.11-1.7,3.1,3.1,0,0,1-.72-2.11,3.36,3.36,0,0,1,.47-1.8,3,3,0,0,1,1.24-1.15,3.71,3.71,0,0,1,1.7-.39,5.43,5.43,0,0,1,1.82.49,1.36,1.36,0,0,0,.48.08.45.45,0,0,0,.41-.32h.33V52h-.41a7.3,7.3,0,0,0-1-2.45,1.94,1.94,0,0,0-1.71-.85,1.9,1.9,0,0,0-1.3.49,1.64,1.64,0,0,0-.56,1.29,1.93,1.93,0,0,0,.66,1.49,15.84,15.84,0,0,0,2.12,1.52,11.41,11.41,0,0,1,2.21,1.72,2.72,2.72,0,0,1,.75,1.93,3.5,3.5,0,0,1-1,2.68,3.67,3.67,0,0,1-2.61,1,8.64,8.64,0,0,1-1.74-.41,3,3,0,0,0-1-.21.48.48,0,0,0-.52.37h-.33Z"/><path class="cls-4" d="M125.05,67.89a4.41,4.41,0,0,1-1.64.26c-1.75,0-3-1-3-2.76s1.31-2.85,3.23-2.85a3.76,3.76,0,0,1,1.47.24l-.2.57a3.17,3.17,0,0,0-1.24-.23,2.16,2.16,0,0,0-2.42,2.24,2.1,2.1,0,0,0,2.37,2.18,3.61,3.61,0,0,0,1.31-.23Z"/><path class="cls-4" d="M128.47,62.63h.81v4.84h2.65v.59h-3.45Z"/><path class="cls-4" d="M135.67,62.63v3.22c0,1.21.62,1.72,1.44,1.72s1.51-.53,1.51-1.72V62.63h.81v3.18a2.12,2.12,0,0,1-2.34,2.35,2,2,0,0,1-2.22-2.32v-3.2Z"/><path class="cls-4" d="M143.89,62.71a8,8,0,0,1,1.46-.12A2.78,2.78,0,0,1,147,63a1.1,1.1,0,0,1,.52,1,1.32,1.32,0,0,1-1,1.19v0a1.45,1.45,0,0,1,1.28,1.35,1.37,1.37,0,0,1-.53,1.09,3.38,3.38,0,0,1-2.13.51,10.65,10.65,0,0,1-1.24-.06Zm.8,2.22h.73c.84,0,1.33-.39,1.33-.92s-.54-.89-1.35-.89a3.85,3.85,0,0,0-.71,0Zm0,2.6a5,5,0,0,0,.67,0c.83,0,1.59-.27,1.59-1.06s-.73-1-1.6-1h-.66Z"/><path class="cls-4" d="M150.38,61.6a1.71,1.71,0,1,1-1.52,1.7,1.6,1.6,0,0,1,1.52-1.7Zm0,.26a1.45,1.45,0,0,0,0,2.87,1.46,1.46,0,0,0,0-2.87Zm-.28,2.42h-.27V62.39a2.74,2.74,0,0,1,.48,0,.83.83,0,0,1,.53.14.47.47,0,0,1,.16.39.46.46,0,0,1-.33.46v0c.15,0,.25.18.28.46a1.68,1.68,0,0,0,.11.47h-.28a1.5,1.5,0,0,1-.12-.48c0-.24-.15-.33-.37-.33h-.19Zm0-1h.2c.22,0,.41-.09.41-.32s-.11-.33-.41-.33l-.2,0Z"/></svg>