<?xml version="1.0" encoding="utf-8"?>
<!-- Generator: Adobe Illustrator 21.0.2, SVG Export Plug-In . SVG Version: 6.00 Build 0)  -->
<svg version="1.1" id="Layer_1" xmlns="http://www.w3.org/2000/svg" xmlns:xlink="http://www.w3.org/1999/xlink" x="0px" y="0px"
	 viewBox="0 0 267 100" style="enable-background:new 0 0 267 100;" xml:space="preserve">
<style type="text/css">
	.st0{fill:none;}
	.st1{fill:#5A5B5E;}
	.st2{fill:#6D6F72;}
</style>
<rect class="st0" width="267" height="100"/>
<g>
	<path class="st1" d="M134.5,20.2c0.1,0.1,0.2,0.2,0.3,0.3c0.1,0.1,0.1,0.2,0.2,0.3c0.1,0.2,0.2,0.4,0.3,0.6
		c0.1,0.4,0.2,0.8,0.2,1.2c0,0.4-0.1,0.8-0.2,1.2c-0.1,0.2-0.2,0.4-0.3,0.6c-0.1,0.1-0.1,0.2-0.2,0.3c-0.1,0.1-0.2,0.2-0.3,0.3
		c-0.1-0.1-0.2-0.2-0.3-0.3c-0.1-0.1-0.1-0.2-0.2-0.3c-0.1-0.2-0.2-0.4-0.3-0.6c-0.1-0.4-0.2-0.8-0.2-1.2c0-0.4,0.1-0.8,0.2-1.2
		c0.1-0.2,0.2-0.4,0.3-0.6c0.1-0.1,0.1-0.2,0.2-0.3C134.3,20.4,134.4,20.3,134.5,20.2"/>
	<path class="st1" d="M134.5,14.6c0.1,0.1,0.2,0.2,0.3,0.3c0.1,0.1,0.1,0.2,0.2,0.3c0.1,0.2,0.2,0.4,0.3,0.6
		c0.1,0.4,0.2,0.8,0.2,1.2c0,0.4-0.1,0.8-0.2,1.2c-0.1,0.2-0.2,0.4-0.3,0.6c-0.1,0.1-0.1,0.2-0.2,0.3c-0.1,0.1-0.2,0.2-0.3,0.3
		c-0.1-0.1-0.2-0.2-0.3-0.3c-0.1-0.1-0.1-0.2-0.2-0.3c-0.1-0.2-0.2-0.4-0.3-0.6c-0.1-0.4-0.2-0.8-0.2-1.2c0-0.4,0.1-0.8,0.2-1.2
		c0.1-0.2,0.2-0.4,0.3-0.6c0.1-0.1,0.1-0.2,0.2-0.3C134.3,14.8,134.4,14.7,134.5,14.6"/>
	<path class="st1" d="M138.5,21.7c-0.1,0-0.3,0-0.4,0.1c-0.1,0-0.2,0.1-0.3,0.1c-0.2,0.1-0.4,0.2-0.6,0.3c-0.4,0.2-0.7,0.5-0.9,0.8
		c-0.3,0.3-0.5,0.7-0.6,1.1c-0.1,0.2-0.1,0.4-0.2,0.6c0,0.1,0,0.2,0,0.4c0,0.1,0,0.3,0,0.4c0.1,0,0.3,0,0.4-0.1
		c0.1,0,0.2-0.1,0.4-0.1c0.2-0.1,0.4-0.2,0.6-0.3c0.4-0.2,0.7-0.5,0.9-0.8c0.3-0.3,0.5-0.7,0.6-1.1c0.1-0.2,0.1-0.4,0.2-0.6
		c0-0.1,0-0.2,0.1-0.4C138.5,21.9,138.5,21.8,138.5,21.7"/>
	<path class="st1" d="M141,27.1c-0.1-0.1-0.2-0.2-0.3-0.2c-0.1-0.1-0.2-0.1-0.3-0.2c-0.2-0.1-0.4-0.2-0.6-0.2
		c-0.4-0.1-0.8-0.2-1.2-0.1c-0.4,0-0.8,0.1-1.2,0.3c-0.2,0.1-0.4,0.2-0.6,0.3c-0.1,0.1-0.2,0.1-0.3,0.2c-0.1,0.1-0.2,0.2-0.3,0.3
		c0.1,0.1,0.2,0.2,0.3,0.2c0.1,0.1,0.2,0.1,0.3,0.2c0.2,0.1,0.4,0.2,0.6,0.2c0.4,0.1,0.8,0.2,1.2,0.1c0.4,0,0.8-0.1,1.2-0.3
		c0.2-0.1,0.4-0.2,0.6-0.3c0.1-0.1,0.2-0.1,0.3-0.2C140.8,27.3,140.9,27.2,141,27.1"/>
	<path class="st1" d="M147.9,18.2c-0.1,0-0.3,0-0.4-0.1c-0.1,0-0.2,0-0.4,0c-0.2,0-0.5,0-0.7,0.1c-0.4,0.1-0.8,0.3-1.1,0.5
		c-0.3,0.2-0.7,0.5-0.9,0.8c-0.1,0.2-0.3,0.4-0.4,0.6c-0.1,0.1-0.1,0.2-0.1,0.3c0,0.1-0.1,0.2-0.1,0.4c0.1,0,0.3,0,0.4,0.1
		c0.1,0,0.2,0,0.4,0c0.2,0,0.5,0,0.7-0.1c0.4-0.1,0.8-0.3,1.1-0.5c0.3-0.2,0.7-0.5,0.9-0.8c0.1-0.2,0.3-0.4,0.4-0.6
		c0.1-0.1,0.1-0.2,0.2-0.3C147.8,18.5,147.9,18.3,147.9,18.2"/>
	<path class="st1" d="M141.8,17c-0.1,0-0.3,0-0.4,0.1c-0.1,0-0.2,0.1-0.3,0.1c-0.2,0.1-0.4,0.2-0.6,0.3c-0.4,0.2-0.7,0.5-0.9,0.8
		c-0.3,0.3-0.5,0.7-0.6,1.1c-0.1,0.2-0.1,0.4-0.2,0.6c0,0.1,0,0.2,0,0.4c0,0.1,0,0.3,0,0.4c0.1,0,0.3,0,0.4-0.1
		c0.1,0,0.2-0.1,0.3-0.1c0.2-0.1,0.4-0.2,0.6-0.3c0.4-0.2,0.7-0.5,0.9-0.8c0.3-0.3,0.5-0.7,0.6-1.1c0.1-0.2,0.1-0.4,0.2-0.6
		c0-0.1,0-0.2,0-0.4C141.8,17.3,141.8,17.2,141.8,17"/>
	<path class="st1" d="M137.6,17c-0.1,0.1-0.2,0.1-0.3,0.2c-0.1,0.1-0.2,0.2-0.3,0.2c-0.2,0.2-0.3,0.3-0.4,0.5
		c-0.3,0.3-0.4,0.7-0.6,1.1c-0.1,0.4-0.2,0.8-0.2,1.2c0,0.2,0,0.4,0.1,0.7c0,0.1,0.1,0.2,0.1,0.3c0,0.1,0.1,0.2,0.2,0.4
		c0.1-0.1,0.2-0.1,0.3-0.2c0.1-0.1,0.2-0.2,0.3-0.2c0.2-0.2,0.3-0.3,0.4-0.5c0.3-0.3,0.4-0.7,0.6-1.1c0.1-0.4,0.2-0.8,0.2-1.2
		c0-0.2,0-0.4-0.1-0.7c0-0.1-0.1-0.2-0.1-0.4C137.7,17.3,137.7,17.2,137.6,17"/>
	<path class="st1" d="M140.6,13.4c-0.1,0.1-0.3,0.1-0.4,0.2c-0.1,0.1-0.2,0.1-0.3,0.2c-0.2,0.1-0.4,0.3-0.5,0.4
		c-0.3,0.3-0.5,0.7-0.7,1c-0.2,0.4-0.3,0.8-0.3,1.2c0,0.2,0,0.4,0,0.7c0,0.1,0,0.2,0.1,0.4c0,0.1,0.1,0.3,0.1,0.4
		c0.1,0,0.3-0.1,0.4-0.2c0.1-0.1,0.2-0.1,0.3-0.2c0.2-0.1,0.4-0.3,0.5-0.4c0.3-0.3,0.5-0.7,0.7-1c0.2-0.4,0.3-0.8,0.3-1.2
		c0-0.2,0-0.4,0-0.7c0-0.1,0-0.2-0.1-0.4C140.7,13.6,140.6,13.5,140.6,13.4"/>
	<path class="st1" d="M137.2,11.7c-0.1,0.1-0.2,0.2-0.3,0.2c-0.1,0.1-0.2,0.2-0.3,0.3c-0.2,0.2-0.3,0.4-0.4,0.5
		c-0.2,0.4-0.4,0.7-0.5,1.1c-0.1,0.4-0.1,0.8-0.1,1.2c0,0.2,0.1,0.4,0.1,0.7c0,0.1,0.1,0.2,0.1,0.3c0,0.1,0.1,0.2,0.2,0.4
		c0.1-0.1,0.2-0.2,0.3-0.2c0.1-0.1,0.2-0.2,0.3-0.3c0.2-0.2,0.3-0.4,0.4-0.5c0.2-0.4,0.4-0.7,0.5-1.1c0.1-0.4,0.1-0.8,0.1-1.2
		c0-0.2-0.1-0.4-0.1-0.7c0-0.1-0.1-0.2-0.1-0.3C137.3,11.9,137.3,11.8,137.2,11.7"/>
	<path class="st1" d="M146.2,21.8c-0.1-0.1-0.3-0.1-0.4-0.1c-0.1,0-0.2-0.1-0.4-0.1c-0.2,0-0.5-0.1-0.7,0c-0.4,0-0.8,0.1-1.2,0.2
		c-0.4,0.1-0.7,0.3-1.1,0.6c-0.2,0.1-0.3,0.3-0.5,0.5c-0.1,0.1-0.1,0.2-0.2,0.3c-0.1,0.1-0.1,0.2-0.2,0.3c0.1,0.1,0.3,0.1,0.4,0.1
		c0.1,0,0.2,0.1,0.4,0.1c0.2,0,0.5,0.1,0.7,0c0.4,0,0.8-0.1,1.2-0.2c0.4-0.1,0.7-0.3,1.1-0.6c0.2-0.1,0.3-0.3,0.5-0.5
		c0.1-0.1,0.1-0.2,0.2-0.3C146.1,22,146.2,21.9,146.2,21.8"/>
	<path class="st1" d="M142.9,20.2c-0.1,0-0.3,0-0.4,0c-0.1,0-0.2,0-0.4,0c-0.2,0-0.4,0.1-0.7,0.1c-0.4,0.1-0.8,0.3-1.1,0.6
		c-0.3,0.2-0.6,0.5-0.9,0.9c-0.1,0.2-0.2,0.4-0.3,0.6c0,0.1-0.1,0.2-0.1,0.3c0,0.1-0.1,0.2-0.1,0.4c0.1,0,0.3,0,0.4,0
		c0.1,0,0.2,0,0.4,0c0.2,0,0.4-0.1,0.7-0.1c0.4-0.1,0.8-0.3,1.1-0.6c0.3-0.2,0.6-0.5,0.9-0.9c0.1-0.2,0.2-0.4,0.3-0.6
		c0-0.1,0.1-0.2,0.1-0.3C142.8,20.5,142.8,20.4,142.9,20.2"/>
	<path class="st1" d="M145.3,15.7c-0.1,0-0.3,0-0.4,0.1c-0.1,0-0.2,0.1-0.3,0.1c-0.2,0.1-0.4,0.2-0.6,0.3c-0.4,0.2-0.7,0.5-1,0.8
		c-0.3,0.3-0.5,0.6-0.7,1c-0.1,0.2-0.2,0.4-0.2,0.6c0,0.1,0,0.2-0.1,0.4c0,0.1,0,0.3,0,0.4c0.1,0,0.3,0,0.4-0.1
		c0.1,0,0.2-0.1,0.3-0.1c0.2-0.1,0.4-0.2,0.6-0.3c0.4-0.2,0.7-0.5,1-0.8c0.3-0.3,0.5-0.6,0.7-1c0.1-0.2,0.2-0.4,0.2-0.6
		c0-0.1,0-0.2,0.1-0.4C145.3,16,145.3,15.9,145.3,15.7"/>
	<path class="st1" d="M144.5,12.3c-0.1,0-0.3,0.1-0.4,0.1c-0.1,0-0.2,0.1-0.3,0.1c-0.2,0.1-0.4,0.2-0.6,0.3
		c-0.3,0.3-0.6,0.5-0.9,0.9c-0.2,0.3-0.4,0.7-0.5,1.1c-0.1,0.2-0.1,0.4-0.1,0.7c0,0.1,0,0.2,0,0.4c0,0.1,0,0.3,0,0.4
		c0.1,0,0.3-0.1,0.4-0.1c0.1,0,0.2-0.1,0.3-0.1c0.2-0.1,0.4-0.2,0.6-0.3c0.3-0.3,0.6-0.5,0.9-0.9c0.2-0.3,0.4-0.7,0.5-1.1
		c0.1-0.2,0.1-0.4,0.1-0.7c0-0.1,0-0.2,0-0.4C144.6,12.6,144.6,12.5,144.5,12.3"/>
	<path class="st1" d="M140.7,9.3c-0.1,0-0.3,0.1-0.4,0.2c-0.1,0.1-0.2,0.1-0.3,0.2c-0.2,0.1-0.4,0.3-0.5,0.4c-0.3,0.3-0.5,0.6-0.7,1
		c-0.2,0.4-0.3,0.8-0.4,1.2c0,0.2,0,0.4,0,0.7c0,0.1,0,0.2,0,0.4c0,0.1,0.1,0.3,0.1,0.4c0.1,0,0.3-0.1,0.4-0.2
		c0.1-0.1,0.2-0.1,0.3-0.2c0.2-0.1,0.4-0.3,0.5-0.4c0.3-0.3,0.5-0.6,0.7-1c0.2-0.4,0.3-0.8,0.4-1.2c0-0.2,0-0.4,0-0.7
		c0-0.1,0-0.2,0-0.4C140.8,9.6,140.8,9.5,140.7,9.3"/>
	<path class="st1" d="M134.7,9c-0.1,0.1-0.2,0.2-0.3,0.3c-0.1,0.1-0.2,0.2-0.2,0.3c-0.1,0.2-0.2,0.4-0.3,0.6
		c-0.2,0.4-0.3,0.8-0.3,1.2c0,0.4,0,0.8,0.1,1.2c0.1,0.2,0.1,0.4,0.2,0.6c0,0.1,0.1,0.2,0.2,0.3c0.1,0.1,0.1,0.2,0.2,0.3
		c0.1-0.1,0.2-0.2,0.3-0.3c0.1-0.1,0.2-0.2,0.2-0.3c0.1-0.2,0.2-0.4,0.3-0.6c0.2-0.4,0.3-0.8,0.3-1.2c0-0.4,0-0.8-0.1-1.2
		c-0.1-0.2-0.1-0.4-0.2-0.6c-0.1-0.1-0.1-0.2-0.2-0.3C134.8,9.2,134.7,9.1,134.7,9"/>
	<path class="st1" d="M149.4,14.4c-0.1,0-0.3,0-0.4,0c-0.1,0-0.2,0-0.4,0.1c-0.2,0-0.4,0.1-0.6,0.2c-0.4,0.2-0.7,0.4-1,0.7
		c-0.3,0.3-0.6,0.6-0.8,1c-0.1,0.2-0.2,0.4-0.3,0.6c0,0.1-0.1,0.2-0.1,0.3c0,0.1,0,0.3-0.1,0.4c0.1,0,0.3,0,0.4,0
		c0.1,0,0.2,0,0.4-0.1c0.2,0,0.4-0.1,0.6-0.2c0.4-0.2,0.7-0.4,1-0.7c0.3-0.3,0.6-0.6,0.8-1c0.1-0.2,0.2-0.4,0.3-0.6
		c0-0.1,0.1-0.2,0.1-0.3C149.3,14.7,149.3,14.5,149.4,14.4"/>
	<path class="st1" d="M151.4,19.4c-0.1-0.1-0.3-0.1-0.4-0.1c-0.1,0-0.2-0.1-0.4-0.1c-0.2,0-0.5,0-0.7,0c-0.4,0-0.8,0.1-1.2,0.3
		c-0.4,0.1-0.7,0.3-1.1,0.6c-0.2,0.1-0.3,0.3-0.5,0.5c-0.1,0.1-0.1,0.2-0.2,0.3c-0.1,0.1-0.1,0.2-0.2,0.4c0.1,0.1,0.3,0.1,0.4,0.1
		c0.1,0,0.2,0.1,0.4,0.1c0.2,0,0.5,0,0.7,0c0.4,0,0.8-0.1,1.2-0.3c0.4-0.1,0.7-0.4,1.1-0.6c0.2-0.1,0.3-0.3,0.5-0.5
		c0.1-0.1,0.1-0.2,0.2-0.3C151.3,19.6,151.4,19.5,151.4,19.4"/>
	<path class="st1" d="M130.5,21.7c0.1,0,0.3,0,0.4,0.1c0.1,0,0.2,0.1,0.3,0.1c0.2,0.1,0.4,0.2,0.6,0.3c0.4,0.2,0.7,0.5,0.9,0.8
		c0.3,0.3,0.5,0.7,0.6,1.1c0.1,0.2,0.1,0.4,0.2,0.6c0,0.1,0,0.2,0,0.4c0,0.1,0,0.3,0,0.4c-0.1,0-0.3,0-0.4-0.1
		c-0.1,0-0.2-0.1-0.3-0.1c-0.2-0.1-0.4-0.2-0.6-0.3c-0.4-0.2-0.7-0.5-0.9-0.8c-0.3-0.3-0.5-0.7-0.6-1.1c-0.1-0.2-0.1-0.4-0.2-0.6
		c0-0.1,0-0.2-0.1-0.4C130.5,21.9,130.5,21.8,130.5,21.7"/>
	<path class="st1" d="M121.1,18.2c0.1,0,0.3,0,0.4-0.1c0.1,0,0.2,0,0.4,0c0.2,0,0.5,0,0.7,0.1c0.4,0.1,0.8,0.3,1.1,0.5
		c0.3,0.2,0.7,0.5,0.9,0.8c0.1,0.2,0.3,0.4,0.4,0.6c0.1,0.1,0.1,0.2,0.1,0.3c0,0.1,0.1,0.2,0.1,0.4c-0.1,0-0.3,0-0.4,0.1
		c-0.1,0-0.2,0-0.4,0c-0.2,0-0.5,0-0.7-0.1c-0.4-0.1-0.8-0.3-1.1-0.5c-0.3-0.2-0.7-0.5-0.9-0.8c-0.1-0.2-0.3-0.4-0.4-0.6
		c-0.1-0.1-0.1-0.2-0.2-0.3C121.2,18.5,121.2,18.3,121.1,18.2"/>
	<path class="st1" d="M118.7,22.9c0.1-0.1,0.2-0.1,0.4-0.2c0.1,0,0.2-0.1,0.3-0.1c0.2-0.1,0.4-0.1,0.7-0.1c0.4,0,0.8,0,1.2,0.1
		c0.4,0.1,0.8,0.3,1.1,0.5c0.2,0.1,0.4,0.3,0.5,0.4c0.1,0.1,0.2,0.2,0.2,0.3c0.1,0.1,0.2,0.2,0.2,0.3c-0.1,0.1-0.2,0.1-0.4,0.2
		c-0.1,0-0.2,0.1-0.3,0.1c-0.2,0.1-0.4,0.1-0.7,0.1c-0.4,0-0.8,0-1.2-0.1c-0.4-0.1-0.8-0.3-1.1-0.5c-0.2-0.1-0.4-0.3-0.5-0.4
		c-0.1-0.1-0.2-0.2-0.2-0.3C118.9,23.2,118.8,23.1,118.7,22.9"/>
	<path class="st1" d="M127.2,17c0.1,0,0.3,0,0.4,0.1c0.1,0,0.2,0.1,0.3,0.1c0.2,0.1,0.4,0.2,0.6,0.3c0.4,0.2,0.7,0.5,0.9,0.8
		c0.3,0.3,0.5,0.7,0.6,1.1c0.1,0.2,0.1,0.4,0.2,0.6c0,0.1,0,0.2,0,0.4c0,0.1,0,0.3,0,0.4c-0.1,0-0.3,0-0.4-0.1
		c-0.1,0-0.2-0.1-0.3-0.1c-0.2-0.1-0.4-0.2-0.6-0.3c-0.4-0.2-0.7-0.5-0.9-0.8c-0.3-0.3-0.5-0.7-0.6-1.1c-0.1-0.2-0.1-0.4-0.2-0.6
		c0-0.1,0-0.2,0-0.4C127.2,17.3,127.2,17.2,127.2,17"/>
	<path class="st1" d="M131.4,17c0.1,0.1,0.2,0.1,0.3,0.2c0.1,0.1,0.2,0.2,0.3,0.2c0.2,0.2,0.3,0.3,0.4,0.5c0.3,0.3,0.4,0.7,0.6,1.1
		c0.1,0.4,0.2,0.8,0.2,1.2c0,0.2,0,0.4-0.1,0.7c0,0.1-0.1,0.2-0.1,0.3c0,0.1-0.1,0.2-0.2,0.4c-0.1-0.1-0.2-0.1-0.3-0.2
		c-0.1-0.1-0.2-0.2-0.3-0.2c-0.2-0.2-0.3-0.3-0.4-0.5c-0.3-0.3-0.4-0.7-0.6-1.1c-0.1-0.4-0.2-0.8-0.2-1.2c0-0.2,0-0.4,0.1-0.7
		c0-0.1,0.1-0.2,0.1-0.4C131.3,17.3,131.3,17.2,131.4,17"/>
	<path class="st1" d="M128.4,13.4c0.1,0.1,0.3,0.1,0.4,0.2c0.1,0.1,0.2,0.1,0.3,0.2c0.2,0.1,0.4,0.3,0.5,0.4c0.3,0.3,0.5,0.7,0.7,1
		c0.2,0.4,0.3,0.8,0.3,1.2c0,0.2,0,0.4,0,0.7c0,0.1,0,0.2-0.1,0.4c0,0.1-0.1,0.3-0.1,0.4c-0.1,0-0.3-0.1-0.4-0.2
		c-0.1-0.1-0.2-0.1-0.3-0.2c-0.2-0.1-0.4-0.3-0.5-0.4c-0.3-0.3-0.5-0.7-0.7-1c-0.2-0.4-0.3-0.8-0.3-1.2c0-0.2,0-0.4,0-0.7
		c0-0.1,0-0.2,0.1-0.4C128.3,13.6,128.4,13.5,128.4,13.4"/>
	<path class="st1" d="M131.8,11.7c0.1,0.1,0.2,0.2,0.3,0.2c0.1,0.1,0.2,0.2,0.3,0.3c0.2,0.2,0.3,0.4,0.4,0.5
		c0.2,0.4,0.4,0.7,0.5,1.1c0.1,0.4,0.1,0.8,0.1,1.2c0,0.2-0.1,0.4-0.1,0.7c0,0.1-0.1,0.2-0.1,0.3c-0.1,0.1-0.1,0.2-0.2,0.4
		c-0.1-0.1-0.2-0.2-0.3-0.2c-0.1-0.1-0.2-0.2-0.3-0.3c-0.2-0.2-0.3-0.4-0.4-0.5c-0.2-0.4-0.4-0.7-0.5-1.1c-0.1-0.4-0.1-0.8-0.1-1.2
		c0-0.2,0.1-0.4,0.1-0.7c0-0.1,0.1-0.2,0.1-0.3C131.7,11.9,131.7,11.8,131.8,11.7"/>
	<path class="st1" d="M122.8,21.8c0.1-0.1,0.3-0.1,0.4-0.1c0.1,0,0.2-0.1,0.4-0.1c0.2,0,0.5-0.1,0.7,0c0.4,0,0.8,0.1,1.2,0.2
		c0.4,0.1,0.7,0.3,1.1,0.6c0.2,0.1,0.3,0.3,0.5,0.5c0.1,0.1,0.1,0.2,0.2,0.3c0.1,0.1,0.1,0.2,0.2,0.3c-0.1,0.1-0.3,0.1-0.4,0.1
		c-0.1,0-0.2,0.1-0.4,0.1c-0.2,0-0.5,0.1-0.7,0c-0.4,0-0.8-0.1-1.2-0.2c-0.4-0.1-0.7-0.3-1.1-0.6c-0.2-0.1-0.3-0.3-0.5-0.5
		c-0.1-0.1-0.1-0.2-0.2-0.3C122.9,22,122.8,21.9,122.8,21.8"/>
	<path class="st1" d="M120.3,25.9c0.1-0.1,0.2-0.2,0.3-0.2c0.1-0.1,0.2-0.1,0.3-0.2c0.2-0.1,0.4-0.2,0.6-0.2
		c0.4-0.1,0.8-0.1,1.2-0.1c0.4,0,0.8,0.1,1.2,0.3c0.2,0.1,0.4,0.2,0.6,0.3c0.1,0.1,0.2,0.1,0.3,0.2c0.1,0.1,0.2,0.2,0.3,0.3
		c-0.1,0.1-0.2,0.2-0.3,0.2c-0.1,0.1-0.2,0.1-0.3,0.2c-0.2,0.1-0.4,0.2-0.6,0.2c-0.4,0.1-0.8,0.1-1.2,0.1c-0.4,0-0.8-0.1-1.2-0.3
		c-0.2-0.1-0.4-0.2-0.6-0.3c-0.1-0.1-0.2-0.1-0.3-0.2C120.5,26.1,120.4,26,120.3,25.9"/>
	<path class="st1" d="M126.1,20.2c0.1,0,0.3,0,0.4,0c0.1,0,0.2,0,0.4,0c0.2,0,0.4,0.1,0.7,0.1c0.4,0.1,0.8,0.3,1.1,0.6
		c0.3,0.2,0.6,0.5,0.9,0.9c0.1,0.2,0.2,0.4,0.3,0.6c0,0.1,0.1,0.2,0.1,0.3c0,0.1,0.1,0.2,0.1,0.4c-0.1,0-0.3,0-0.4,0
		c-0.1,0-0.2,0-0.4,0c-0.2,0-0.4-0.1-0.7-0.1c-0.4-0.1-0.8-0.3-1.1-0.6c-0.3-0.2-0.6-0.5-0.9-0.9c-0.1-0.2-0.2-0.4-0.3-0.6
		c0-0.1-0.1-0.2-0.1-0.3C126.2,20.5,126.2,20.4,126.1,20.2"/>
	<path class="st1" d="M124.9,24.8c0.1-0.1,0.2-0.2,0.3-0.2c0.1-0.1,0.2-0.1,0.3-0.2c0.2-0.1,0.4-0.1,0.6-0.2c0.4-0.1,0.8-0.1,1.2,0
		c0.4,0.1,0.8,0.2,1.2,0.4c0.2,0.1,0.4,0.2,0.6,0.4c0.1,0.1,0.2,0.1,0.3,0.2c0.1,0.1,0.2,0.2,0.3,0.3c-0.1,0.1-0.2,0.2-0.3,0.2
		c-0.1,0.1-0.2,0.1-0.3,0.2c-0.2,0.1-0.4,0.1-0.6,0.2c-0.4,0.1-0.8,0.1-1.2,0c-0.4-0.1-0.8-0.2-1.2-0.4c-0.2-0.1-0.4-0.2-0.6-0.4
		c-0.1-0.1-0.2-0.1-0.3-0.2C125.1,25,125,24.9,124.9,24.8"/>
	<path class="st1" d="M123.7,15.7c0.1,0,0.3,0,0.4,0.1c0.1,0,0.2,0.1,0.3,0.1c0.2,0.1,0.4,0.2,0.6,0.3c0.4,0.2,0.7,0.5,1,0.8
		c0.3,0.3,0.5,0.6,0.7,1c0.1,0.2,0.2,0.4,0.2,0.6c0,0.1,0,0.2,0.1,0.4c0,0.1,0,0.3,0,0.4c-0.1,0-0.3,0-0.4-0.1
		c-0.1,0-0.2-0.1-0.3-0.1c-0.2-0.1-0.4-0.2-0.6-0.3c-0.4-0.2-0.7-0.5-1-0.8c-0.3-0.3-0.5-0.6-0.7-1c-0.1-0.2-0.2-0.4-0.2-0.6
		c0-0.1,0-0.2-0.1-0.4C123.7,16,123.7,15.9,123.7,15.7"/>
	<path class="st1" d="M124.5,12.3c0.1,0,0.3,0.1,0.4,0.1c0.1,0,0.2,0.1,0.3,0.1c0.2,0.1,0.4,0.2,0.6,0.3c0.3,0.3,0.6,0.5,0.9,0.9
		c0.2,0.3,0.4,0.7,0.5,1.1c0.1,0.2,0.1,0.4,0.1,0.7c0,0.1,0,0.2,0,0.4c0,0.1,0,0.3,0,0.4c-0.1,0-0.3-0.1-0.4-0.1
		c-0.1,0-0.2-0.1-0.3-0.1c-0.2-0.1-0.4-0.2-0.6-0.3c-0.3-0.3-0.6-0.5-0.9-0.9c-0.2-0.3-0.4-0.7-0.5-1.1c-0.1-0.2-0.1-0.4-0.1-0.7
		c0-0.1,0-0.2,0-0.4C124.4,12.6,124.4,12.5,124.5,12.3"/>
	<path class="st1" d="M128.3,9.3c0.1,0,0.3,0.1,0.4,0.2c0.1,0.1,0.2,0.1,0.3,0.2c0.2,0.1,0.4,0.3,0.5,0.4c0.3,0.3,0.5,0.6,0.7,1
		c0.2,0.4,0.3,0.8,0.4,1.2c0,0.2,0,0.4,0,0.7c0,0.1,0,0.2,0,0.4c0,0.1-0.1,0.3-0.1,0.4c-0.1,0-0.3-0.1-0.4-0.2
		c-0.1-0.1-0.2-0.1-0.3-0.2c-0.2-0.1-0.4-0.3-0.5-0.4c-0.3-0.3-0.5-0.6-0.7-1c-0.2-0.4-0.3-0.8-0.3-1.2c0-0.2,0-0.4,0-0.7
		c0-0.1,0-0.2,0-0.4C128.2,9.6,128.2,9.5,128.3,9.3"/>
	<path class="st1" d="M119.6,14.4c0.1,0,0.3,0,0.4,0c0.1,0,0.2,0,0.4,0.1c0.2,0,0.4,0.1,0.6,0.2c0.4,0.2,0.7,0.4,1,0.7
		c0.3,0.3,0.6,0.6,0.8,1c0.1,0.2,0.2,0.4,0.3,0.6c0,0.1,0.1,0.2,0.1,0.3c0,0.1,0,0.3,0.1,0.4c-0.1,0-0.3,0-0.4,0
		c-0.1,0-0.2,0-0.4-0.1c-0.2,0-0.4-0.1-0.6-0.2c-0.4-0.2-0.7-0.4-1-0.7c-0.3-0.3-0.6-0.6-0.8-1c-0.1-0.2-0.2-0.4-0.3-0.6
		c0-0.1-0.1-0.2-0.1-0.3C119.7,14.7,119.7,14.5,119.6,14.4"/>
	<path class="st1" d="M117.6,19.4c0.1-0.1,0.3-0.1,0.4-0.1c0.1,0,0.2-0.1,0.4-0.1c0.2,0,0.5,0,0.7,0c0.4,0,0.8,0.1,1.2,0.3
		c0.4,0.1,0.7,0.3,1.1,0.6c0.2,0.1,0.3,0.3,0.5,0.5c0.1,0.1,0.1,0.2,0.2,0.3c0.1,0.1,0.1,0.2,0.2,0.4c-0.1,0.1-0.3,0.1-0.4,0.1
		c-0.1,0-0.2,0.1-0.4,0.1c-0.2,0-0.5,0-0.7,0c-0.4,0-0.8-0.1-1.2-0.3c-0.4-0.1-0.7-0.4-1.1-0.6c-0.2-0.1-0.3-0.3-0.5-0.5
		c-0.1-0.1-0.1-0.2-0.2-0.3C117.7,19.6,117.6,19.5,117.6,19.4"/>
	<path class="st1" d="M115.8,15.5c0.1,0,0.3-0.1,0.4-0.1c0.1,0,0.2,0,0.4,0c0.2,0,0.5,0,0.7,0.1c0.4,0.1,0.8,0.2,1.2,0.4
		c0.4,0.2,0.7,0.5,1,0.8c0.1,0.2,0.3,0.3,0.4,0.5c0.1,0.1,0.1,0.2,0.2,0.3c0,0.1,0.1,0.2,0.1,0.4c-0.1,0-0.3,0.1-0.4,0.1
		c-0.1,0-0.2,0-0.4,0c-0.2,0-0.5,0-0.7-0.1c-0.4-0.1-0.8-0.2-1.2-0.4c-0.3-0.2-0.7-0.5-1-0.8c-0.1-0.2-0.3-0.3-0.4-0.5
		c-0.1-0.1-0.1-0.2-0.2-0.3C115.9,15.8,115.9,15.7,115.8,15.5"/>
	<path class="st1" d="M120.6,10.8c0.1,0,0.3,0,0.4,0.1c0.1,0,0.2,0.1,0.3,0.1c0.2,0.1,0.4,0.2,0.6,0.3c0.4,0.2,0.7,0.5,0.9,0.8
		c0.3,0.3,0.5,0.7,0.6,1.1c0.1,0.2,0.1,0.4,0.2,0.6c0,0.1,0,0.2,0,0.4c0,0.1,0,0.3,0,0.4c-0.1,0-0.3,0-0.4-0.1
		c-0.1,0-0.2-0.1-0.3-0.1c-0.2-0.1-0.4-0.2-0.6-0.3c-0.4-0.2-0.7-0.5-0.9-0.8c-0.3-0.3-0.5-0.7-0.6-1.1c-0.1-0.2-0.1-0.4-0.2-0.6
		c0-0.1,0-0.2,0-0.4C120.6,11,120.6,10.9,120.6,10.8"/>
	<path class="st1" d="M124.6,7.9c0.1,0,0.3,0.1,0.4,0.1c0.1,0.1,0.2,0.1,0.3,0.2c0.2,0.1,0.4,0.2,0.5,0.4c0.3,0.3,0.6,0.6,0.8,1
		c0.2,0.4,0.4,0.7,0.4,1.2c0,0.2,0.1,0.4,0.1,0.7c0,0.1,0,0.2,0,0.4c0,0.1,0,0.3-0.1,0.4c-0.1,0-0.3-0.1-0.4-0.1
		c-0.1-0.1-0.2-0.1-0.3-0.2c-0.2-0.1-0.4-0.2-0.5-0.4c-0.3-0.3-0.6-0.6-0.8-1c-0.2-0.4-0.4-0.7-0.4-1.2c0-0.2-0.1-0.4-0.1-0.7
		c0-0.1,0-0.2,0-0.4C124.6,8.2,124.6,8.1,124.6,7.9"/>
	<path class="st1" d="M131,5.5c0.1,0.1,0.2,0.2,0.3,0.3c0.1,0.1,0.2,0.2,0.2,0.3c0.1,0.2,0.3,0.4,0.4,0.6c0.2,0.4,0.3,0.8,0.4,1.2
		c0.1,0.4,0.1,0.8,0,1.2c0,0.2-0.1,0.4-0.2,0.6c0,0.1-0.1,0.2-0.2,0.3c-0.1,0.1-0.1,0.2-0.2,0.3c-0.1-0.1-0.2-0.2-0.3-0.3
		c-0.1-0.1-0.2-0.2-0.2-0.3c-0.1-0.2-0.3-0.4-0.4-0.6c-0.2-0.4-0.3-0.8-0.4-1.2c-0.1-0.4-0.1-0.8,0-1.2c0-0.2,0.1-0.4,0.2-0.6
		c0-0.1,0.1-0.2,0.1-0.3C130.8,5.7,130.9,5.6,131,5.5"/>
	<path class="st1" d="M113.3,21.1c0.1-0.1,0.2-0.1,0.4-0.2c0.1,0,0.2-0.1,0.3-0.1c0.2-0.1,0.4-0.1,0.7-0.1c0.4,0,0.8,0,1.2,0.1
		c0.4,0.1,0.8,0.2,1.1,0.5c0.2,0.1,0.4,0.2,0.5,0.4c0.1,0.1,0.2,0.2,0.3,0.3c0.1,0.1,0.2,0.2,0.2,0.3c-0.1,0.1-0.2,0.1-0.4,0.2
		c-0.1,0-0.2,0.1-0.3,0.1c-0.2,0.1-0.4,0.1-0.7,0.1c-0.4,0-0.8,0-1.2-0.1c-0.4-0.1-0.8-0.2-1.1-0.5c-0.2-0.1-0.4-0.2-0.5-0.4
		c-0.1-0.1-0.2-0.2-0.3-0.3C113.5,21.4,113.4,21.3,113.3,21.1"/>
	<path class="st1" d="M114.7,24.9c0.1-0.1,0.2-0.2,0.3-0.3c0.1-0.1,0.2-0.1,0.3-0.2c0.2-0.1,0.4-0.2,0.6-0.3
		c0.4-0.1,0.8-0.2,1.2-0.2c0.4,0,0.8,0,1.2,0.2c0.2,0.1,0.4,0.2,0.6,0.3c0.1,0.1,0.2,0.1,0.3,0.2c0.1,0.1,0.2,0.2,0.3,0.3
		c-0.1,0.1-0.2,0.2-0.3,0.3c-0.1,0.1-0.2,0.1-0.3,0.2c-0.2,0.1-0.4,0.2-0.6,0.3c-0.4,0.1-0.8,0.2-1.2,0.2c-0.4,0-0.8,0-1.2-0.2
		c-0.2-0.1-0.4-0.2-0.6-0.3c-0.1-0.1-0.2-0.1-0.3-0.2C114.9,25,114.8,25,114.7,24.9"/>
	<path class="st1" d="M150.2,22.9c-0.1-0.1-0.2-0.1-0.4-0.2c-0.1,0-0.2-0.1-0.3-0.1c-0.2-0.1-0.4-0.1-0.7-0.1c-0.4,0-0.8,0-1.2,0.1
		c-0.4,0.1-0.8,0.3-1.1,0.5c-0.2,0.1-0.4,0.3-0.5,0.4c-0.1,0.1-0.2,0.2-0.2,0.3c-0.1,0.1-0.2,0.2-0.2,0.3c0.1,0.1,0.2,0.1,0.4,0.2
		c0.1,0,0.2,0.1,0.3,0.1c0.2,0.1,0.4,0.1,0.7,0.1c0.4,0,0.8,0,1.2-0.1c0.4-0.1,0.8-0.3,1.1-0.5c0.2-0.1,0.4-0.3,0.5-0.4
		c0.1-0.1,0.2-0.2,0.3-0.3C150.1,23.2,150.1,23.1,150.2,22.9"/>
	<path class="st1" d="M152.7,27.1c-0.1-0.1-0.2-0.2-0.3-0.2c-0.1-0.1-0.2-0.1-0.3-0.2c-0.2-0.1-0.4-0.2-0.6-0.2
		c-0.4-0.1-0.8-0.2-1.2-0.1c-0.4,0-0.8,0.1-1.2,0.3c-0.2,0.1-0.4,0.2-0.6,0.3c-0.1,0.1-0.2,0.1-0.3,0.2c-0.1,0.1-0.2,0.2-0.3,0.3
		c0.1,0.1,0.2,0.2,0.3,0.2c0.1,0.1,0.2,0.1,0.3,0.2c0.2,0.1,0.4,0.2,0.6,0.2c0.4,0.1,0.8,0.2,1.2,0.1c0.4,0,0.8-0.1,1.2-0.3
		c0.2-0.1,0.4-0.2,0.6-0.3c0.1-0.1,0.2-0.1,0.3-0.2C152.5,27.3,152.6,27.2,152.7,27.1"/>
	<path class="st1" d="M148.6,25.9c-0.1-0.1-0.2-0.2-0.3-0.2c-0.1-0.1-0.2-0.1-0.3-0.2c-0.2-0.1-0.4-0.2-0.6-0.2
		c-0.4-0.1-0.8-0.1-1.2-0.1c-0.4,0-0.8,0.1-1.2,0.3c-0.2,0.1-0.4,0.2-0.6,0.3c-0.1,0.1-0.2,0.1-0.3,0.2c-0.1,0.1-0.2,0.2-0.3,0.3
		c0.1,0.1,0.2,0.2,0.3,0.2c0.1,0.1,0.2,0.1,0.3,0.2c0.2,0.1,0.4,0.2,0.6,0.2c0.4,0.1,0.8,0.1,1.2,0.1c0.4,0,0.8-0.1,1.2-0.3
		c0.2-0.1,0.4-0.2,0.6-0.3c0.1-0.1,0.2-0.1,0.3-0.2C148.4,26.1,148.5,26,148.6,25.9"/>
	<path class="st1" d="M144.1,24.8c-0.1-0.1-0.2-0.2-0.3-0.2c-0.1-0.1-0.2-0.1-0.3-0.2c-0.2-0.1-0.4-0.1-0.6-0.2
		c-0.4-0.1-0.8-0.1-1.2,0c-0.4,0.1-0.8,0.2-1.2,0.4c-0.2,0.1-0.4,0.2-0.6,0.4c-0.1,0.1-0.2,0.1-0.3,0.2c-0.1,0.1-0.2,0.2-0.3,0.3
		c0.1,0.1,0.2,0.2,0.3,0.2c0.1,0.1,0.2,0.1,0.3,0.2c0.2,0.1,0.4,0.1,0.6,0.2c0.4,0.1,0.8,0.1,1.2,0c0.4-0.1,0.8-0.2,1.2-0.4
		c0.2-0.1,0.4-0.2,0.6-0.4c0.1-0.1,0.2-0.1,0.3-0.2C143.9,25,144,24.9,144.1,24.8"/>
	<path class="st1" d="M153.1,15.5c-0.1,0-0.3-0.1-0.4-0.1c-0.1,0-0.2,0-0.4,0c-0.2,0-0.5,0-0.7,0.1c-0.4,0.1-0.8,0.2-1.2,0.4
		c-0.4,0.2-0.7,0.5-1,0.8c-0.1,0.2-0.3,0.3-0.4,0.5c-0.1,0.1-0.1,0.2-0.2,0.3c-0.1,0.1-0.1,0.2-0.1,0.4c0.1,0,0.3,0.1,0.4,0.1
		c0.1,0,0.2,0,0.4,0c0.2,0,0.5,0,0.7-0.1c0.4-0.1,0.8-0.2,1.2-0.4c0.4-0.2,0.7-0.5,1-0.8c0.1-0.2,0.3-0.3,0.4-0.5
		c0.1-0.1,0.1-0.2,0.2-0.3C153.1,15.8,153.1,15.7,153.1,15.5"/>
	<path class="st1" d="M148.4,10.8c-0.1,0-0.3,0-0.4,0.1c-0.1,0-0.2,0.1-0.3,0.1c-0.2,0.1-0.4,0.2-0.6,0.3c-0.4,0.2-0.7,0.5-0.9,0.8
		c-0.3,0.3-0.5,0.7-0.6,1.1c-0.1,0.2-0.1,0.4-0.2,0.6c0,0.1,0,0.2,0,0.4c0,0.1,0,0.3,0,0.4c0.1,0,0.3,0,0.4-0.1
		c0.1,0,0.2-0.1,0.3-0.1c0.2-0.1,0.4-0.2,0.6-0.3c0.4-0.2,0.7-0.5,0.9-0.8c0.3-0.3,0.5-0.7,0.6-1.1c0.1-0.2,0.1-0.4,0.2-0.6
		c0-0.1,0-0.2,0-0.4C148.4,11,148.4,10.9,148.4,10.8"/>
	<path class="st1" d="M144.3,7.9c-0.1,0-0.3,0.1-0.4,0.1c-0.1,0.1-0.2,0.1-0.3,0.2c-0.2,0.1-0.4,0.2-0.5,0.4c-0.3,0.3-0.6,0.6-0.8,1
		c-0.2,0.4-0.4,0.7-0.4,1.2c0,0.2-0.1,0.4-0.1,0.7c0,0.1,0,0.2,0,0.4c0,0.1,0,0.3,0.1,0.4c0.1,0,0.3-0.1,0.4-0.1
		c0.1-0.1,0.2-0.1,0.3-0.2c0.2-0.1,0.4-0.2,0.5-0.4c0.3-0.3,0.6-0.6,0.8-1c0.2-0.4,0.4-0.7,0.4-1.2c0-0.2,0.1-0.4,0.1-0.7
		c0-0.1,0-0.2,0-0.4C144.4,8.2,144.4,8.1,144.3,7.9"/>
	<path class="st1" d="M138,5.5c-0.1,0.1-0.2,0.2-0.3,0.3c-0.1,0.1-0.2,0.2-0.2,0.3c-0.1,0.2-0.3,0.4-0.4,0.6
		c-0.2,0.4-0.3,0.8-0.4,1.2c-0.1,0.4-0.1,0.8,0,1.2c0,0.2,0.1,0.4,0.2,0.6c0,0.1,0.1,0.2,0.2,0.3c0.1,0.1,0.1,0.2,0.2,0.3
		c0.1-0.1,0.2-0.2,0.3-0.3c0.1-0.1,0.2-0.2,0.2-0.3c0.1-0.2,0.3-0.4,0.4-0.6c0.2-0.4,0.3-0.8,0.4-1.2c0.1-0.4,0.1-0.8,0-1.2
		c0-0.2-0.1-0.4-0.2-0.6c0-0.1-0.1-0.2-0.2-0.3C138.1,5.7,138.1,5.6,138,5.5"/>
	<path class="st1" d="M155.7,21.1c-0.1-0.1-0.2-0.1-0.4-0.2c-0.1,0-0.2-0.1-0.3-0.1c-0.2-0.1-0.4-0.1-0.7-0.1c-0.4,0-0.8,0-1.2,0.1
		c-0.4,0.1-0.8,0.2-1.1,0.5c-0.2,0.1-0.4,0.2-0.5,0.4c-0.1,0.1-0.2,0.2-0.3,0.3c-0.1,0.1-0.2,0.2-0.2,0.3c0.1,0.1,0.2,0.1,0.4,0.2
		c0.1,0,0.2,0.1,0.3,0.1c0.2,0.1,0.4,0.1,0.7,0.1c0.4,0,0.8,0,1.2-0.1c0.4-0.1,0.8-0.2,1.1-0.5c0.2-0.1,0.4-0.2,0.5-0.4
		c0.1-0.1,0.2-0.2,0.3-0.3C155.5,21.4,155.6,21.3,155.7,21.1"/>
	<path class="st1" d="M154.2,24.9c-0.1-0.1-0.2-0.2-0.3-0.3c-0.1-0.1-0.2-0.1-0.3-0.2c-0.2-0.1-0.4-0.2-0.6-0.3
		c-0.4-0.1-0.8-0.2-1.2-0.2c-0.4,0-0.8,0-1.2,0.2c-0.2,0.1-0.4,0.2-0.6,0.3c-0.1,0.1-0.2,0.1-0.3,0.2c-0.1,0.1-0.2,0.2-0.3,0.3
		c0.1,0.1,0.2,0.2,0.3,0.3c0.1,0.1,0.2,0.1,0.3,0.2c0.2,0.1,0.4,0.2,0.6,0.3c0.4,0.1,0.8,0.2,1.2,0.2c0.4,0,0.8,0,1.2-0.2
		c0.2-0.1,0.4-0.2,0.6-0.3c0.1-0.1,0.2-0.1,0.3-0.2C154,25,154.1,25,154.2,24.9"/>
	<path class="st1" d="M158.2,26.9c-0.1-0.1-0.2-0.2-0.3-0.2c-0.1-0.1-0.2-0.1-0.3-0.2c-0.2-0.1-0.4-0.2-0.6-0.3
		c-0.4-0.1-0.8-0.2-1.2-0.2c-0.4,0-0.8,0.1-1.2,0.2c-0.2,0.1-0.4,0.2-0.6,0.3c-0.1,0.1-0.2,0.1-0.3,0.2c-0.1,0.1-0.2,0.2-0.3,0.3
		c0.1,0.1,0.2,0.2,0.3,0.3c0.1,0.1,0.2,0.1,0.3,0.2c0.2,0.1,0.4,0.2,0.6,0.3c0.4,0.1,0.8,0.2,1.2,0.2c0.4,0,0.8-0.1,1.2-0.2
		c0.2-0.1,0.4-0.2,0.6-0.3c0.1-0.1,0.2-0.1,0.3-0.2C158,27.1,158.1,27,158.2,26.9"/>
	<path class="st1" d="M127.9,27.1c0.1-0.1,0.2-0.2,0.3-0.2c0.1-0.1,0.2-0.1,0.3-0.2c0.2-0.1,0.4-0.2,0.6-0.2
		c0.4-0.1,0.8-0.2,1.2-0.1c0.4,0,0.8,0.1,1.2,0.3c0.2,0.1,0.4,0.2,0.6,0.3c0.1,0.1,0.2,0.1,0.3,0.2c0.1,0.1,0.2,0.2,0.3,0.3
		c-0.1,0.1-0.2,0.2-0.3,0.2c-0.1,0.1-0.2,0.1-0.3,0.2c-0.2,0.1-0.4,0.2-0.6,0.2c-0.4,0.1-0.8,0.2-1.2,0.1c-0.4,0-0.8-0.1-1.2-0.3
		c-0.2-0.1-0.4-0.2-0.6-0.3c-0.1-0.1-0.2-0.1-0.3-0.2C128.1,27.3,128,27.2,127.9,27.1"/>
	<path class="st1" d="M116.3,27.1c0.1-0.1,0.2-0.2,0.3-0.2c0.1-0.1,0.2-0.1,0.3-0.2c0.2-0.1,0.4-0.2,0.6-0.2
		c0.4-0.1,0.8-0.2,1.2-0.1c0.4,0,0.8,0.1,1.2,0.3c0.2,0.1,0.4,0.2,0.6,0.3c0.1,0.1,0.2,0.1,0.3,0.2c0.1,0.1,0.2,0.2,0.3,0.3
		c-0.1,0.1-0.2,0.2-0.3,0.2c-0.1,0.1-0.2,0.1-0.3,0.2c-0.2,0.1-0.4,0.2-0.6,0.2c-0.4,0.1-0.8,0.2-1.2,0.1c-0.4,0-0.8-0.1-1.2-0.3
		c-0.2-0.1-0.4-0.2-0.6-0.3c-0.1-0.1-0.2-0.1-0.3-0.2C116.5,27.3,116.4,27.2,116.3,27.1"/>
	<path class="st1" d="M110.8,26.9c0.1-0.1,0.2-0.2,0.3-0.2c0.1-0.1,0.2-0.1,0.3-0.2c0.2-0.1,0.4-0.2,0.6-0.3
		c0.4-0.1,0.8-0.2,1.2-0.2c0.4,0,0.8,0.1,1.2,0.2c0.2,0.1,0.4,0.2,0.6,0.3c0.1,0.1,0.2,0.1,0.3,0.2c0.1,0.1,0.2,0.2,0.3,0.3
		c-0.1,0.1-0.2,0.2-0.3,0.3c-0.1,0.1-0.2,0.1-0.3,0.2c-0.2,0.1-0.4,0.2-0.6,0.3c-0.4,0.1-0.8,0.2-1.2,0.2c-0.4,0-0.8-0.1-1.2-0.2
		c-0.2-0.1-0.4-0.2-0.6-0.3c-0.1-0.1-0.2-0.1-0.3-0.2C111,27.1,110.9,27,110.8,26.9"/>
	<path class="st1" d="M134.5,34.6c0.1-0.1,0.2-0.2,0.3-0.3c0.1-0.1,0.1-0.2,0.2-0.3c0.1-0.2,0.2-0.4,0.3-0.6
		c0.1-0.4,0.2-0.8,0.2-1.2c0-0.4-0.1-0.8-0.2-1.2c-0.1-0.2-0.2-0.4-0.3-0.6c-0.1-0.1-0.1-0.2-0.2-0.3c-0.1-0.1-0.2-0.2-0.3-0.3
		c-0.1,0.1-0.2,0.2-0.3,0.3c-0.1,0.1-0.1,0.2-0.2,0.3c-0.1,0.2-0.2,0.4-0.3,0.6c-0.1,0.4-0.2,0.8-0.2,1.2c0,0.4,0.1,0.8,0.2,1.2
		c0.1,0.2,0.2,0.4,0.3,0.6c0.1,0.1,0.1,0.2,0.2,0.3C134.3,34.4,134.4,34.5,134.5,34.6"/>
	<path class="st1" d="M134.5,40.2c0.1-0.1,0.2-0.2,0.3-0.3c0.1-0.1,0.1-0.2,0.2-0.3c0.1-0.2,0.2-0.4,0.3-0.6
		c0.1-0.4,0.2-0.8,0.2-1.2c0-0.4-0.1-0.8-0.2-1.2c-0.1-0.2-0.2-0.4-0.3-0.6c-0.1-0.1-0.1-0.2-0.2-0.3c-0.1-0.1-0.2-0.2-0.3-0.3
		c-0.1,0.1-0.2,0.2-0.3,0.3c-0.1,0.1-0.1,0.2-0.2,0.3c-0.1,0.2-0.2,0.4-0.3,0.6c-0.1,0.4-0.2,0.8-0.2,1.2c0,0.4,0.1,0.8,0.2,1.2
		c0.1,0.2,0.2,0.4,0.3,0.6c0.1,0.1,0.1,0.2,0.2,0.3C134.3,40,134.4,40.1,134.5,40.2"/>
	<path class="st1" d="M138.5,33.1c-0.1,0-0.3,0-0.4-0.1c-0.1,0-0.2-0.1-0.3-0.1c-0.2-0.1-0.4-0.2-0.6-0.3c-0.4-0.2-0.7-0.5-0.9-0.8
		c-0.3-0.3-0.5-0.7-0.6-1.1c-0.1-0.2-0.1-0.4-0.2-0.6c0-0.1,0-0.2,0-0.4c0-0.1,0-0.3,0-0.4c0.1,0,0.3,0,0.4,0.1
		c0.1,0,0.2,0.1,0.4,0.1c0.2,0.1,0.4,0.2,0.6,0.3c0.4,0.2,0.7,0.5,0.9,0.8c0.3,0.3,0.5,0.7,0.6,1.1c0.1,0.2,0.1,0.4,0.2,0.6
		c0,0.1,0,0.2,0.1,0.4C138.5,32.8,138.5,33,138.5,33.1"/>
	<path class="st1" d="M147.9,36.6c-0.1,0-0.3,0-0.4,0.1c-0.1,0-0.2,0-0.4,0c-0.2,0-0.5,0-0.7-0.1c-0.4-0.1-0.8-0.3-1.1-0.5
		c-0.3-0.2-0.7-0.5-0.9-0.8c-0.1-0.2-0.3-0.4-0.4-0.6c-0.1-0.1-0.1-0.2-0.1-0.3c0-0.1-0.1-0.2-0.1-0.4c0.1,0,0.3,0,0.4-0.1
		c0.1,0,0.2,0,0.4,0c0.2,0,0.5,0,0.7,0.1c0.4,0.1,0.8,0.3,1.1,0.5c0.3,0.2,0.7,0.5,0.9,0.8c0.1,0.2,0.3,0.4,0.4,0.6
		c0.1,0.1,0.1,0.2,0.2,0.3C147.8,36.3,147.9,36.4,147.9,36.6"/>
	<path class="st1" d="M141.8,37.8c-0.1,0-0.3,0-0.4-0.1c-0.1,0-0.2-0.1-0.3-0.1c-0.2-0.1-0.4-0.2-0.6-0.3c-0.4-0.2-0.7-0.5-0.9-0.8
		c-0.3-0.3-0.5-0.7-0.6-1.1c-0.1-0.2-0.1-0.4-0.2-0.6c0-0.1,0-0.2,0-0.4c0-0.1,0-0.3,0-0.4c0.1,0,0.3,0,0.4,0.1
		c0.1,0,0.2,0.1,0.3,0.1c0.2,0.1,0.4,0.2,0.6,0.3c0.4,0.2,0.7,0.5,0.9,0.8c0.3,0.3,0.5,0.7,0.6,1.1c0.1,0.2,0.1,0.4,0.2,0.6
		c0,0.1,0,0.2,0,0.4C141.8,37.5,141.8,37.6,141.8,37.8"/>
	<path class="st1" d="M137.6,37.8c-0.1-0.1-0.2-0.1-0.3-0.2c-0.1-0.1-0.2-0.1-0.3-0.2c-0.2-0.2-0.3-0.3-0.4-0.5
		c-0.3-0.3-0.4-0.7-0.6-1.1c-0.1-0.4-0.2-0.8-0.2-1.2c0-0.2,0-0.4,0.1-0.7c0-0.1,0.1-0.2,0.1-0.3c0-0.1,0.1-0.2,0.2-0.4
		c0.1,0.1,0.2,0.1,0.3,0.2c0.1,0.1,0.2,0.2,0.3,0.2c0.2,0.2,0.3,0.3,0.4,0.5c0.3,0.3,0.4,0.7,0.6,1.1c0.1,0.4,0.2,0.8,0.2,1.2
		c0,0.2,0,0.4-0.1,0.7c0,0.1-0.1,0.2-0.1,0.4C137.7,37.5,137.7,37.6,137.6,37.8"/>
	<path class="st1" d="M140.6,41.4c-0.1-0.1-0.3-0.1-0.4-0.2c-0.1-0.1-0.2-0.1-0.3-0.2c-0.2-0.1-0.4-0.3-0.5-0.4
		c-0.3-0.3-0.5-0.7-0.7-1c-0.2-0.4-0.3-0.8-0.3-1.2c0-0.2,0-0.4,0-0.7c0-0.1,0-0.2,0.1-0.4c0-0.1,0.1-0.2,0.1-0.4
		c0.1,0,0.3,0.1,0.4,0.2c0.1,0.1,0.2,0.1,0.3,0.2c0.2,0.1,0.4,0.3,0.5,0.4c0.3,0.3,0.5,0.7,0.7,1c0.2,0.4,0.3,0.8,0.3,1.2
		c0,0.2,0,0.4,0,0.7c0,0.1,0,0.2-0.1,0.4C140.7,41.1,140.6,41.3,140.6,41.4"/>
	<path class="st1" d="M137.2,43.1c-0.1-0.1-0.2-0.2-0.3-0.2c-0.1-0.1-0.2-0.2-0.3-0.3c-0.2-0.2-0.3-0.4-0.4-0.5
		c-0.2-0.4-0.4-0.7-0.5-1.1c-0.1-0.4-0.1-0.8-0.1-1.2c0-0.2,0.1-0.4,0.1-0.7c0-0.1,0.1-0.2,0.1-0.3c0-0.1,0.1-0.2,0.2-0.4
		c0.1,0.1,0.2,0.2,0.3,0.2c0.1,0.1,0.2,0.2,0.3,0.3c0.2,0.2,0.3,0.3,0.4,0.5c0.2,0.4,0.4,0.7,0.5,1.1c0.1,0.4,0.1,0.8,0.1,1.2
		c0,0.2-0.1,0.4-0.1,0.7c0,0.1-0.1,0.2-0.1,0.3C137.3,42.9,137.3,43,137.2,43.1"/>
	<path class="st1" d="M146.2,33c-0.1,0.1-0.3,0.1-0.4,0.1c-0.1,0-0.2,0.1-0.4,0.1c-0.2,0-0.5,0.1-0.7,0c-0.4,0-0.8-0.1-1.2-0.2
		c-0.4-0.1-0.7-0.3-1.1-0.6c-0.2-0.1-0.3-0.3-0.5-0.5c-0.1-0.1-0.1-0.2-0.2-0.3c-0.1-0.1-0.1-0.2-0.2-0.3c0.1-0.1,0.3-0.1,0.4-0.1
		c0.1,0,0.2-0.1,0.4-0.1c0.2,0,0.5-0.1,0.7,0c0.4,0,0.8,0.1,1.2,0.2c0.4,0.1,0.7,0.3,1.1,0.6c0.2,0.1,0.3,0.3,0.5,0.5
		c0.1,0.1,0.1,0.2,0.2,0.3C146.1,32.8,146.2,32.9,146.2,33"/>
	<path class="st1" d="M142.9,34.5c-0.1,0-0.3,0-0.4,0c-0.1,0-0.2,0-0.4,0c-0.2,0-0.4-0.1-0.7-0.1c-0.4-0.1-0.8-0.3-1.1-0.6
		c-0.3-0.2-0.6-0.5-0.9-0.9c-0.1-0.2-0.2-0.4-0.3-0.6c0-0.1-0.1-0.2-0.1-0.3c0-0.1-0.1-0.2-0.1-0.4c0.1,0,0.3,0,0.4,0
		c0.1,0,0.2,0,0.4,0c0.2,0,0.4,0.1,0.7,0.1c0.4,0.1,0.8,0.3,1.1,0.6c0.3,0.2,0.6,0.5,0.9,0.9c0.1,0.2,0.2,0.4,0.3,0.6
		c0,0.1,0.1,0.2,0.1,0.3C142.8,34.3,142.8,34.4,142.9,34.5"/>
	<path class="st1" d="M145.3,39.1c-0.1,0-0.3,0-0.4-0.1c-0.1,0-0.2-0.1-0.3-0.1c-0.2-0.1-0.4-0.2-0.6-0.3c-0.4-0.2-0.7-0.5-1-0.8
		c-0.3-0.3-0.5-0.6-0.7-1c-0.1-0.2-0.2-0.4-0.2-0.6c0-0.1,0-0.2-0.1-0.4c0-0.1,0-0.3,0-0.4c0.1,0,0.3,0,0.4,0.1
		c0.1,0,0.2,0.1,0.3,0.1c0.2,0.1,0.4,0.2,0.6,0.3c0.4,0.2,0.7,0.5,1,0.8c0.3,0.3,0.5,0.6,0.7,1c0.1,0.2,0.2,0.4,0.2,0.6
		c0,0.1,0,0.2,0.1,0.4C145.3,38.8,145.3,38.9,145.3,39.1"/>
	<path class="st1" d="M144.5,42.4c-0.1,0-0.3-0.1-0.4-0.1c-0.1,0-0.2-0.1-0.3-0.1c-0.2-0.1-0.4-0.2-0.6-0.3
		c-0.3-0.2-0.6-0.5-0.9-0.9c-0.2-0.3-0.4-0.7-0.5-1.1c-0.1-0.2-0.1-0.4-0.1-0.7c0-0.1,0-0.2,0-0.4c0-0.1,0-0.3,0-0.4
		c0.1,0,0.3,0.1,0.4,0.1c0.1,0,0.2,0.1,0.3,0.1c0.2,0.1,0.4,0.2,0.6,0.3c0.3,0.2,0.6,0.5,0.9,0.9c0.2,0.3,0.4,0.7,0.5,1.1
		c0.1,0.2,0.1,0.4,0.1,0.7c0,0.1,0,0.2,0,0.4C144.6,42.2,144.6,42.3,144.5,42.4"/>
	<path class="st1" d="M140.7,45.5c-0.1,0-0.3-0.1-0.4-0.2c-0.1-0.1-0.2-0.1-0.3-0.2c-0.2-0.1-0.4-0.3-0.5-0.4
		c-0.3-0.3-0.5-0.6-0.7-1c-0.2-0.4-0.3-0.8-0.4-1.2c0-0.2,0-0.4,0-0.7c0-0.1,0-0.2,0-0.4c0-0.1,0.1-0.3,0.1-0.4
		c0.1,0,0.3,0.1,0.4,0.2c0.1,0.1,0.2,0.1,0.3,0.2c0.2,0.1,0.4,0.3,0.5,0.4c0.3,0.3,0.5,0.6,0.7,1c0.2,0.4,0.3,0.8,0.4,1.2
		c0,0.2,0,0.4,0,0.7c0,0.1,0,0.2,0,0.4C140.8,45.2,140.8,45.3,140.7,45.5"/>
	<path class="st1" d="M134.7,45.8c-0.1-0.1-0.2-0.2-0.3-0.3c-0.1-0.1-0.2-0.2-0.2-0.3c-0.1-0.2-0.2-0.4-0.3-0.6
		c-0.2-0.4-0.3-0.8-0.3-1.2c0-0.4,0-0.8,0.1-1.2c0.1-0.2,0.1-0.4,0.2-0.6c0-0.1,0.1-0.2,0.2-0.3c0.1-0.1,0.1-0.2,0.2-0.3
		c0.1,0.1,0.2,0.2,0.3,0.3c0.1,0.1,0.2,0.2,0.2,0.3c0.1,0.2,0.2,0.4,0.3,0.6c0.2,0.4,0.3,0.8,0.3,1.2c0,0.4,0,0.8-0.1,1.2
		c-0.1,0.2-0.1,0.4-0.2,0.6c-0.1,0.1-0.1,0.2-0.2,0.3C134.8,45.6,134.7,45.7,134.7,45.8"/>
	<path class="st1" d="M149.4,40.4c-0.1,0-0.3,0-0.4,0c-0.1,0-0.2,0-0.4-0.1c-0.2,0-0.4-0.1-0.6-0.2c-0.4-0.2-0.7-0.4-1-0.7
		c-0.3-0.3-0.6-0.6-0.8-1c-0.1-0.2-0.2-0.4-0.3-0.6c0-0.1-0.1-0.2-0.1-0.3c0-0.1,0-0.3-0.1-0.4c0.1,0,0.3,0,0.4,0
		c0.1,0,0.2,0,0.4,0.1c0.2,0,0.4,0.1,0.6,0.2c0.4,0.2,0.7,0.4,1,0.7c0.3,0.3,0.6,0.6,0.8,1c0.1,0.2,0.2,0.4,0.3,0.6
		c0,0.1,0.1,0.2,0.1,0.3C149.3,40.1,149.3,40.2,149.4,40.4"/>
	<path class="st1" d="M151.4,35.4c-0.1,0.1-0.3,0.1-0.4,0.1c-0.1,0-0.2,0.1-0.4,0.1c-0.2,0-0.5,0-0.7,0c-0.4,0-0.8-0.1-1.2-0.3
		c-0.4-0.1-0.7-0.3-1.1-0.6c-0.2-0.1-0.3-0.3-0.5-0.5c-0.1-0.1-0.1-0.2-0.2-0.3c-0.1-0.1-0.1-0.2-0.2-0.4c0.1-0.1,0.3-0.1,0.4-0.1
		c0.1,0,0.2-0.1,0.4-0.1c0.2,0,0.5,0,0.7,0c0.4,0,0.8,0.1,1.2,0.3c0.4,0.1,0.7,0.4,1.1,0.6c0.2,0.1,0.3,0.3,0.5,0.5
		c0.1,0.1,0.1,0.2,0.2,0.3C151.3,35.1,151.4,35.2,151.4,35.4"/>
	<path class="st1" d="M130.5,33.1c0.1,0,0.3,0,0.4-0.1c0.1,0,0.2-0.1,0.3-0.1c0.2-0.1,0.4-0.2,0.6-0.3c0.4-0.2,0.7-0.5,0.9-0.8
		c0.3-0.3,0.5-0.7,0.6-1.1c0.1-0.2,0.1-0.4,0.2-0.6c0-0.1,0-0.2,0-0.4c0-0.1,0-0.3,0-0.4c-0.1,0-0.3,0-0.4,0.1
		c-0.1,0-0.2,0.1-0.3,0.1c-0.2,0.1-0.4,0.2-0.6,0.3c-0.4,0.2-0.7,0.5-0.9,0.8c-0.3,0.3-0.5,0.7-0.6,1.1c-0.1,0.2-0.1,0.4-0.2,0.6
		c0,0.1,0,0.2-0.1,0.4C130.5,32.8,130.5,33,130.5,33.1"/>
	<path class="st1" d="M121.1,36.6c0.1,0,0.3,0,0.4,0.1c0.1,0,0.2,0,0.4,0c0.2,0,0.5,0,0.7-0.1c0.4-0.1,0.8-0.3,1.1-0.5
		c0.3-0.2,0.7-0.5,0.9-0.8c0.1-0.2,0.3-0.4,0.4-0.6c0.1-0.1,0.1-0.2,0.1-0.3c0-0.1,0.1-0.2,0.1-0.4c-0.1,0-0.3,0-0.4-0.1
		c-0.1,0-0.2,0-0.4,0c-0.2,0-0.5,0-0.7,0.1c-0.4,0.1-0.8,0.3-1.1,0.5c-0.3,0.2-0.7,0.5-0.9,0.8c-0.1,0.2-0.3,0.4-0.4,0.6
		c-0.1,0.1-0.1,0.2-0.2,0.3C121.2,36.3,121.2,36.4,121.1,36.6"/>
	<path class="st1" d="M118.7,31.8c0.1,0.1,0.2,0.1,0.4,0.2c0.1,0,0.2,0.1,0.3,0.1c0.2,0.1,0.4,0.1,0.7,0.1c0.4,0,0.8,0,1.2-0.1
		c0.4-0.1,0.8-0.3,1.1-0.5c0.2-0.1,0.4-0.3,0.5-0.4c0.1-0.1,0.2-0.2,0.2-0.3c0.1-0.1,0.2-0.2,0.2-0.3c-0.1-0.1-0.2-0.1-0.4-0.2
		c-0.1,0-0.2-0.1-0.3-0.1c-0.2-0.1-0.4-0.1-0.7-0.1c-0.4,0-0.8,0-1.2,0.1c-0.4,0.1-0.8,0.3-1.1,0.5c-0.2,0.1-0.4,0.3-0.5,0.4
		c-0.1,0.1-0.2,0.2-0.2,0.3C118.9,31.6,118.8,31.7,118.7,31.8"/>
	<path class="st1" d="M127.2,37.8c0.1,0,0.3,0,0.4-0.1c0.1,0,0.2-0.1,0.3-0.1c0.2-0.1,0.4-0.2,0.6-0.3c0.4-0.2,0.7-0.5,0.9-0.8
		c0.3-0.3,0.5-0.7,0.6-1.1c0.1-0.2,0.1-0.4,0.2-0.6c0-0.1,0-0.2,0-0.4c0-0.1,0-0.3,0-0.4c-0.1,0-0.3,0-0.4,0.1
		c-0.1,0-0.2,0.1-0.3,0.1c-0.2,0.1-0.4,0.2-0.6,0.3c-0.4,0.2-0.7,0.5-0.9,0.8c-0.3,0.3-0.5,0.7-0.6,1.1c-0.1,0.2-0.1,0.4-0.2,0.6
		c0,0.1,0,0.2,0,0.4C127.2,37.5,127.2,37.6,127.2,37.8"/>
	<path class="st1" d="M131.4,37.8c0.1-0.1,0.2-0.1,0.3-0.2c0.1-0.1,0.2-0.1,0.3-0.2c0.2-0.2,0.3-0.3,0.4-0.5
		c0.3-0.3,0.4-0.7,0.6-1.1c0.1-0.4,0.2-0.8,0.2-1.2c0-0.2,0-0.4-0.1-0.7c0-0.1-0.1-0.2-0.1-0.3c0-0.1-0.1-0.2-0.2-0.4
		c-0.1,0.1-0.2,0.1-0.3,0.2c-0.1,0.1-0.2,0.2-0.3,0.2c-0.2,0.2-0.3,0.3-0.4,0.5c-0.3,0.3-0.4,0.7-0.6,1.1c-0.1,0.4-0.2,0.8-0.2,1.2
		c0,0.2,0,0.4,0.1,0.7c0,0.1,0.1,0.2,0.1,0.4C131.3,37.5,131.3,37.6,131.4,37.8"/>
	<path class="st1" d="M128.4,41.4c0.1-0.1,0.3-0.1,0.4-0.2c0.1-0.1,0.2-0.1,0.3-0.2c0.2-0.1,0.4-0.3,0.5-0.4c0.3-0.3,0.5-0.7,0.7-1
		c0.2-0.4,0.3-0.8,0.3-1.2c0-0.2,0-0.4,0-0.7c0-0.1,0-0.2-0.1-0.4c0-0.1-0.1-0.2-0.1-0.4c-0.1,0-0.3,0.1-0.4,0.2
		c-0.1,0.1-0.2,0.1-0.3,0.2c-0.2,0.1-0.4,0.3-0.5,0.4c-0.3,0.3-0.5,0.7-0.7,1c-0.2,0.4-0.3,0.8-0.3,1.2c0,0.2,0,0.4,0,0.7
		c0,0.1,0,0.2,0.1,0.4C128.3,41.1,128.4,41.3,128.4,41.4"/>
	<path class="st1" d="M131.8,43.1c0.1-0.1,0.2-0.2,0.3-0.2c0.1-0.1,0.2-0.2,0.3-0.3c0.2-0.2,0.3-0.4,0.4-0.5
		c0.2-0.4,0.4-0.7,0.5-1.1c0.1-0.4,0.1-0.8,0.1-1.2c0-0.2-0.1-0.4-0.1-0.7c0-0.1-0.1-0.2-0.1-0.3c-0.1-0.1-0.1-0.2-0.2-0.4
		c-0.1,0.1-0.2,0.2-0.3,0.2c-0.1,0.1-0.2,0.2-0.3,0.3c-0.2,0.2-0.3,0.3-0.4,0.5c-0.2,0.4-0.4,0.7-0.5,1.1c-0.1,0.4-0.1,0.8-0.1,1.2
		c0,0.2,0.1,0.4,0.1,0.7c0,0.1,0.1,0.2,0.1,0.3C131.7,42.9,131.7,43,131.8,43.1"/>
	<path class="st1" d="M122.8,33c0.1,0.1,0.3,0.1,0.4,0.1c0.1,0,0.2,0.1,0.4,0.1c0.2,0,0.5,0.1,0.7,0c0.4,0,0.8-0.1,1.2-0.2
		c0.4-0.1,0.7-0.3,1.1-0.6c0.2-0.1,0.3-0.3,0.5-0.5c0.1-0.1,0.1-0.2,0.2-0.3c0.1-0.1,0.1-0.2,0.2-0.3c-0.1-0.1-0.3-0.1-0.4-0.1
		c-0.1,0-0.2-0.1-0.4-0.1c-0.2,0-0.5-0.1-0.7,0c-0.4,0-0.8,0.1-1.2,0.2c-0.4,0.1-0.7,0.3-1.1,0.6c-0.2,0.1-0.3,0.3-0.5,0.5
		c-0.1,0.1-0.1,0.2-0.2,0.3C122.9,32.8,122.8,32.9,122.8,33"/>
	<path class="st1" d="M120.3,28.9c0.1,0.1,0.2,0.2,0.3,0.2c0.1,0.1,0.2,0.1,0.3,0.2c0.2,0.1,0.4,0.2,0.6,0.2
		c0.4,0.1,0.8,0.1,1.2,0.1c0.4,0,0.8-0.1,1.2-0.3c0.2-0.1,0.4-0.2,0.6-0.3c0.1-0.1,0.2-0.1,0.3-0.2c0.1-0.1,0.2-0.2,0.3-0.3
		c-0.1-0.1-0.2-0.2-0.3-0.2c-0.1-0.1-0.2-0.1-0.3-0.2c-0.2-0.1-0.4-0.2-0.6-0.2c-0.4-0.1-0.8-0.1-1.2-0.1c-0.4,0-0.8,0.1-1.2,0.3
		c-0.2,0.1-0.4,0.2-0.6,0.3c-0.1,0.1-0.2,0.1-0.3,0.2C120.5,28.7,120.4,28.8,120.3,28.9"/>
	<path class="st1" d="M126.1,34.5c0.1,0,0.3,0,0.4,0c0.1,0,0.2,0,0.4,0c0.2,0,0.4-0.1,0.7-0.1c0.4-0.1,0.8-0.3,1.1-0.6
		c0.3-0.2,0.6-0.5,0.9-0.9c0.1-0.2,0.2-0.4,0.3-0.6c0-0.1,0.1-0.2,0.1-0.3c0-0.1,0.1-0.2,0.1-0.4c-0.1,0-0.3,0-0.4,0
		c-0.1,0-0.2,0-0.4,0c-0.2,0-0.4,0.1-0.7,0.1c-0.4,0.1-0.8,0.3-1.1,0.6c-0.3,0.2-0.6,0.5-0.9,0.9c-0.1,0.2-0.2,0.4-0.3,0.6
		c0,0.1-0.1,0.2-0.1,0.3C126.2,34.3,126.2,34.4,126.1,34.5"/>
	<path class="st1" d="M124.9,30c0.1,0.1,0.2,0.2,0.3,0.2c0.1,0.1,0.2,0.1,0.3,0.2c0.2,0.1,0.4,0.1,0.6,0.2c0.4,0.1,0.8,0.1,1.2,0
		c0.4-0.1,0.8-0.2,1.2-0.4c0.2-0.1,0.4-0.2,0.6-0.4c0.1-0.1,0.2-0.1,0.3-0.2c0.1-0.1,0.2-0.2,0.3-0.3c-0.1-0.1-0.2-0.2-0.3-0.2
		c-0.1-0.1-0.2-0.1-0.3-0.2c-0.2-0.1-0.4-0.2-0.6-0.2c-0.4-0.1-0.8-0.1-1.2,0c-0.4,0.1-0.8,0.2-1.2,0.4c-0.2,0.1-0.4,0.2-0.6,0.4
		c-0.1,0.1-0.2,0.1-0.3,0.2C125.1,29.8,125,29.9,124.9,30"/>
	<path class="st1" d="M123.7,39.1c0.1,0,0.3,0,0.4-0.1c0.1,0,0.2-0.1,0.3-0.1c0.2-0.1,0.4-0.2,0.6-0.3c0.4-0.2,0.7-0.5,1-0.8
		c0.3-0.3,0.5-0.6,0.7-1c0.1-0.2,0.2-0.4,0.2-0.6c0-0.1,0-0.2,0.1-0.4c0-0.1,0-0.3,0-0.4c-0.1,0-0.3,0-0.4,0.1
		c-0.1,0-0.2,0.1-0.3,0.1c-0.2,0.1-0.4,0.2-0.6,0.3c-0.4,0.2-0.7,0.5-1,0.8c-0.3,0.3-0.5,0.6-0.7,1c-0.1,0.2-0.2,0.4-0.2,0.6
		c0,0.1,0,0.2-0.1,0.4C123.7,38.8,123.7,38.9,123.7,39.1"/>
	<path class="st1" d="M124.5,42.4c0.1,0,0.3-0.1,0.4-0.1c0.1,0,0.2-0.1,0.3-0.1c0.2-0.1,0.4-0.2,0.6-0.3c0.3-0.2,0.6-0.5,0.9-0.9
		c0.2-0.3,0.4-0.7,0.5-1.1c0.1-0.2,0.1-0.4,0.1-0.7c0-0.1,0-0.2,0-0.4c0-0.1,0-0.3,0-0.4c-0.1,0-0.3,0.1-0.4,0.1
		c-0.1,0-0.2,0.1-0.3,0.1c-0.2,0.1-0.4,0.2-0.6,0.3c-0.3,0.2-0.6,0.5-0.9,0.9c-0.2,0.3-0.4,0.7-0.5,1.1c-0.1,0.2-0.1,0.4-0.1,0.7
		c0,0.1,0,0.2,0,0.4C124.4,42.2,124.4,42.3,124.5,42.4"/>
	<path class="st1" d="M128.3,45.5c0.1,0,0.3-0.1,0.4-0.2c0.1-0.1,0.2-0.1,0.3-0.2c0.2-0.1,0.4-0.3,0.5-0.4c0.3-0.3,0.5-0.6,0.7-1
		c0.2-0.4,0.3-0.8,0.4-1.2c0-0.2,0-0.4,0-0.7c0-0.1,0-0.2,0-0.4c0-0.1-0.1-0.3-0.1-0.4c-0.1,0-0.3,0.1-0.4,0.2
		c-0.1,0.1-0.2,0.1-0.3,0.2c-0.2,0.1-0.4,0.3-0.5,0.4c-0.3,0.3-0.5,0.6-0.7,1c-0.2,0.4-0.3,0.8-0.3,1.2c0,0.2,0,0.4,0,0.7
		c0,0.1,0,0.2,0,0.4C128.2,45.2,128.2,45.3,128.3,45.5"/>
	<path class="st1" d="M119.6,40.4c0.1,0,0.3,0,0.4,0c0.1,0,0.2,0,0.4-0.1c0.2,0,0.4-0.1,0.6-0.2c0.4-0.2,0.7-0.4,1-0.7
		c0.3-0.3,0.6-0.6,0.8-1c0.1-0.2,0.2-0.4,0.3-0.6c0-0.1,0.1-0.2,0.1-0.3c0-0.1,0-0.3,0.1-0.4c-0.1,0-0.3,0-0.4,0
		c-0.1,0-0.2,0-0.4,0.1c-0.2,0-0.4,0.1-0.6,0.2c-0.4,0.2-0.7,0.4-1,0.7c-0.3,0.3-0.6,0.6-0.8,1c-0.1,0.2-0.2,0.4-0.3,0.6
		c0,0.1-0.1,0.2-0.1,0.3C119.7,40.1,119.7,40.2,119.6,40.4"/>
	<path class="st1" d="M117.6,35.4c0.1,0.1,0.3,0.1,0.4,0.1c0.1,0,0.2,0.1,0.4,0.1c0.2,0,0.5,0,0.7,0c0.4,0,0.8-0.1,1.2-0.3
		c0.4-0.1,0.7-0.3,1.1-0.6c0.2-0.1,0.3-0.3,0.5-0.5c0.1-0.1,0.1-0.2,0.2-0.3c0.1-0.1,0.1-0.2,0.2-0.4c-0.1-0.1-0.3-0.1-0.4-0.1
		c-0.1,0-0.2-0.1-0.4-0.1c-0.2,0-0.5,0-0.7,0c-0.4,0-0.8,0.1-1.2,0.3c-0.4,0.1-0.7,0.4-1.1,0.6c-0.2,0.1-0.3,0.3-0.5,0.5
		c-0.1,0.1-0.1,0.2-0.2,0.3C117.7,35.1,117.6,35.2,117.6,35.4"/>
	<path class="st1" d="M115.8,39.2c0.1,0,0.3,0.1,0.4,0.1c0.1,0,0.2,0,0.4,0c0.2,0,0.5,0,0.7-0.1c0.4-0.1,0.8-0.2,1.2-0.4
		c0.4-0.2,0.7-0.5,1-0.8c0.1-0.2,0.3-0.3,0.4-0.5c0.1-0.1,0.1-0.2,0.2-0.3c0-0.1,0.1-0.2,0.1-0.4c-0.1,0-0.3-0.1-0.4-0.1
		c-0.1,0-0.2,0-0.4,0c-0.2,0-0.5,0-0.7,0.1c-0.4,0.1-0.8,0.2-1.2,0.4c-0.3,0.2-0.7,0.5-1,0.8c-0.1,0.2-0.3,0.3-0.4,0.5
		c-0.1,0.1-0.1,0.2-0.2,0.3C115.9,39,115.9,39.1,115.8,39.2"/>
	<path class="st1" d="M120.6,44c0.1,0,0.3,0,0.4-0.1c0.1,0,0.2-0.1,0.3-0.1c0.2-0.1,0.4-0.2,0.6-0.3c0.4-0.2,0.7-0.5,0.9-0.8
		c0.3-0.3,0.5-0.7,0.6-1.1c0.1-0.2,0.1-0.4,0.2-0.6c0-0.1,0-0.2,0-0.4c0-0.1,0-0.3,0-0.4c-0.1,0-0.3,0-0.4,0.1
		c-0.1,0-0.2,0.1-0.3,0.1c-0.2,0.1-0.4,0.2-0.6,0.3c-0.4,0.2-0.7,0.5-0.9,0.8c-0.3,0.3-0.5,0.7-0.6,1.1c-0.1,0.2-0.1,0.4-0.2,0.6
		c0,0.1,0,0.2,0,0.4C120.6,43.7,120.6,43.9,120.6,44"/>
	<path class="st1" d="M124.6,46.9c0.1,0,0.3-0.1,0.4-0.1c0.1,0,0.2-0.1,0.3-0.2c0.2-0.1,0.4-0.2,0.5-0.4c0.3-0.3,0.6-0.6,0.8-0.9
		c0.2-0.4,0.4-0.7,0.4-1.2c0-0.2,0.1-0.4,0.1-0.7c0-0.1,0-0.2,0-0.4c0-0.1,0-0.3-0.1-0.4c-0.1,0-0.3,0.1-0.4,0.1
		c-0.1,0.1-0.2,0.1-0.3,0.2c-0.2,0.1-0.4,0.2-0.5,0.4c-0.3,0.3-0.6,0.6-0.8,1c-0.2,0.4-0.4,0.7-0.4,1.2c0,0.2-0.1,0.4-0.1,0.7
		c0,0.1,0,0.2,0,0.4C124.6,46.6,124.6,46.7,124.6,46.9"/>
	<path class="st1" d="M131,49.3c0.1-0.1,0.2-0.2,0.3-0.3c0.1-0.1,0.2-0.2,0.2-0.3c0.1-0.2,0.3-0.4,0.4-0.6c0.2-0.4,0.3-0.8,0.4-1.2
		c0.1-0.4,0.1-0.8,0-1.2c0-0.2-0.1-0.4-0.2-0.6c0-0.1-0.1-0.2-0.2-0.3c-0.1-0.1-0.1-0.2-0.2-0.3c-0.1,0.1-0.2,0.2-0.3,0.3
		c-0.1,0.1-0.2,0.2-0.2,0.3c-0.1,0.2-0.3,0.4-0.4,0.6c-0.2,0.4-0.3,0.8-0.4,1.2c-0.1,0.4-0.1,0.8,0,1.2c0,0.2,0.1,0.4,0.2,0.6
		c0,0.1,0.1,0.2,0.1,0.3C130.8,49.1,130.9,49.2,131,49.3"/>
	<path class="st1" d="M113.3,33.6c0.1,0.1,0.2,0.1,0.4,0.2c0.1,0,0.2,0.1,0.3,0.1c0.2,0.1,0.4,0.1,0.7,0.1c0.4,0,0.8,0,1.2-0.1
		c0.4-0.1,0.8-0.2,1.1-0.5c0.2-0.1,0.4-0.2,0.5-0.4c0.1-0.1,0.2-0.2,0.3-0.3c0.1-0.1,0.2-0.2,0.2-0.3c-0.1-0.1-0.2-0.1-0.4-0.2
		c-0.1-0.1-0.2-0.1-0.3-0.1c-0.2-0.1-0.4-0.1-0.7-0.1c-0.4,0-0.8,0-1.2,0.1c-0.4,0.1-0.8,0.2-1.1,0.5c-0.2,0.1-0.4,0.2-0.5,0.4
		c-0.1,0.1-0.2,0.2-0.3,0.3C113.5,33.4,113.4,33.5,113.3,33.6"/>
	<path class="st1" d="M114.7,29.9c0.1,0.1,0.2,0.2,0.3,0.3c0.1,0.1,0.2,0.1,0.3,0.2c0.2,0.1,0.4,0.2,0.6,0.3
		c0.4,0.1,0.8,0.2,1.2,0.2c0.4,0,0.8,0,1.2-0.2c0.2-0.1,0.4-0.2,0.6-0.3c0.1-0.1,0.2-0.1,0.3-0.2c0.1-0.1,0.2-0.2,0.3-0.3
		c-0.1-0.1-0.2-0.2-0.3-0.3c-0.1-0.1-0.2-0.1-0.3-0.2c-0.2-0.1-0.4-0.2-0.6-0.3c-0.4-0.1-0.8-0.2-1.2-0.2c-0.4,0-0.8,0-1.2,0.2
		c-0.2,0.1-0.4,0.2-0.6,0.3c-0.1,0.1-0.2,0.1-0.3,0.2C114.9,29.7,114.8,29.8,114.7,29.9"/>
	<path class="st1" d="M150.2,31.8c-0.1,0.1-0.2,0.1-0.4,0.2c-0.1,0-0.2,0.1-0.3,0.1c-0.2,0.1-0.4,0.1-0.7,0.1c-0.4,0-0.8,0-1.2-0.1
		c-0.4-0.1-0.8-0.3-1.1-0.5c-0.2-0.1-0.4-0.3-0.5-0.4c-0.1-0.1-0.2-0.2-0.2-0.3c-0.1-0.1-0.2-0.2-0.2-0.3c0.1-0.1,0.2-0.1,0.4-0.2
		c0.1,0,0.2-0.1,0.3-0.1c0.2-0.1,0.4-0.1,0.7-0.1c0.4,0,0.8,0,1.2,0.1c0.4,0.1,0.8,0.3,1.1,0.5c0.2,0.1,0.4,0.3,0.5,0.4
		c0.1,0.1,0.2,0.2,0.3,0.3C150.1,31.6,150.1,31.7,150.2,31.8"/>
	<path class="st1" d="M148.6,28.9c-0.1,0.1-0.2,0.2-0.3,0.2c-0.1,0.1-0.2,0.1-0.3,0.2c-0.2,0.1-0.4,0.2-0.6,0.2
		c-0.4,0.1-0.8,0.1-1.2,0.1c-0.4,0-0.8-0.1-1.2-0.3c-0.2-0.1-0.4-0.2-0.6-0.3c-0.1-0.1-0.2-0.1-0.3-0.2c-0.1-0.1-0.2-0.2-0.3-0.3
		c0.1-0.1,0.2-0.2,0.3-0.2c0.1-0.1,0.2-0.1,0.3-0.2c0.2-0.1,0.4-0.2,0.6-0.2c0.4-0.1,0.8-0.1,1.2-0.1c0.4,0,0.8,0.1,1.2,0.3
		c0.2,0.1,0.4,0.2,0.6,0.3c0.1,0.1,0.2,0.1,0.3,0.2C148.4,28.7,148.5,28.8,148.6,28.9"/>
	<path class="st1" d="M144.1,30c-0.1,0.1-0.2,0.2-0.3,0.2c-0.1,0.1-0.2,0.1-0.3,0.2c-0.2,0.1-0.4,0.1-0.6,0.2
		c-0.4,0.1-0.8,0.1-1.2,0c-0.4-0.1-0.8-0.2-1.2-0.4c-0.2-0.1-0.4-0.2-0.6-0.4c-0.1-0.1-0.2-0.1-0.3-0.2c-0.1-0.1-0.2-0.2-0.3-0.3
		c0.1-0.1,0.2-0.2,0.3-0.2c0.1-0.1,0.2-0.1,0.3-0.2c0.2-0.1,0.4-0.2,0.6-0.2c0.4-0.1,0.8-0.1,1.2,0c0.4,0.1,0.8,0.2,1.2,0.4
		c0.2,0.1,0.4,0.2,0.6,0.4c0.1,0.1,0.2,0.1,0.3,0.2C143.9,29.8,144,29.9,144.1,30"/>
	<path class="st1" d="M153.1,39.2c-0.1,0-0.3,0.1-0.4,0.1c-0.1,0-0.2,0-0.4,0c-0.2,0-0.5,0-0.7-0.1c-0.4-0.1-0.8-0.2-1.2-0.4
		c-0.4-0.2-0.7-0.5-1-0.8c-0.1-0.2-0.3-0.3-0.4-0.5c-0.1-0.1-0.1-0.2-0.2-0.3c-0.1-0.1-0.1-0.2-0.1-0.4c0.1,0,0.3-0.1,0.4-0.1
		c0.1,0,0.2,0,0.4,0c0.2,0,0.5,0,0.7,0.1c0.4,0.1,0.8,0.2,1.2,0.4c0.4,0.2,0.7,0.5,1,0.8c0.1,0.2,0.3,0.3,0.4,0.5
		c0.1,0.1,0.1,0.2,0.2,0.3C153.1,39,153.1,39.1,153.1,39.2"/>
	<path class="st1" d="M148.4,44c-0.1,0-0.3,0-0.4-0.1c-0.1,0-0.2-0.1-0.3-0.1c-0.2-0.1-0.4-0.2-0.6-0.3c-0.4-0.2-0.7-0.5-0.9-0.8
		c-0.3-0.3-0.5-0.7-0.6-1.1c-0.1-0.2-0.1-0.4-0.2-0.6c0-0.1,0-0.2,0-0.4c0-0.1,0-0.3,0-0.4c0.1,0,0.3,0,0.4,0.1
		c0.1,0,0.2,0.1,0.3,0.1c0.2,0.1,0.4,0.2,0.6,0.3c0.4,0.2,0.7,0.5,0.9,0.8c0.3,0.3,0.5,0.7,0.6,1.1c0.1,0.2,0.1,0.4,0.2,0.6
		c0,0.1,0,0.2,0,0.4C148.4,43.7,148.4,43.9,148.4,44"/>
	<path class="st1" d="M144.3,46.9c-0.1,0-0.3-0.1-0.4-0.1c-0.1,0-0.2-0.1-0.3-0.2c-0.2-0.1-0.4-0.2-0.5-0.4
		c-0.3-0.3-0.6-0.6-0.8-0.9c-0.2-0.4-0.4-0.7-0.4-1.2c0-0.2-0.1-0.4-0.1-0.7c0-0.1,0-0.2,0-0.4c0-0.1,0-0.3,0.1-0.4
		c0.1,0,0.3,0.1,0.4,0.1c0.1,0.1,0.2,0.1,0.3,0.2c0.2,0.1,0.4,0.2,0.5,0.4c0.3,0.3,0.6,0.6,0.8,1c0.2,0.4,0.4,0.7,0.4,1.2
		c0,0.2,0.1,0.4,0.1,0.7c0,0.1,0,0.2,0,0.4C144.4,46.6,144.4,46.7,144.3,46.9"/>
	<path class="st1" d="M138,49.3c-0.1-0.1-0.2-0.2-0.3-0.3c-0.1-0.1-0.2-0.2-0.2-0.3c-0.1-0.2-0.3-0.4-0.4-0.6
		c-0.2-0.4-0.3-0.8-0.4-1.2c-0.1-0.4-0.1-0.8,0-1.2c0-0.2,0.1-0.4,0.2-0.6c0-0.1,0.1-0.2,0.2-0.3c0.1-0.1,0.1-0.2,0.2-0.3
		c0.1,0.1,0.2,0.2,0.3,0.3c0.1,0.1,0.2,0.2,0.2,0.3c0.1,0.2,0.3,0.4,0.4,0.6c0.2,0.4,0.3,0.8,0.4,1.2c0.1,0.4,0.1,0.8,0,1.2
		c0,0.2-0.1,0.4-0.2,0.6c0,0.1-0.1,0.2-0.2,0.3C138.1,49.1,138.1,49.2,138,49.3"/>
	<path class="st1" d="M155.7,33.6c-0.1,0.1-0.2,0.1-0.4,0.2c-0.1,0-0.2,0.1-0.3,0.1c-0.2,0.1-0.4,0.1-0.7,0.1c-0.4,0-0.8,0-1.2-0.1
		c-0.4-0.1-0.8-0.2-1.1-0.5c-0.2-0.1-0.4-0.2-0.5-0.4c-0.1-0.1-0.2-0.2-0.3-0.3c-0.1-0.1-0.2-0.2-0.2-0.3c0.1-0.1,0.2-0.1,0.4-0.2
		c0.1-0.1,0.2-0.1,0.3-0.1c0.2-0.1,0.4-0.1,0.7-0.1c0.4,0,0.8,0,1.2,0.1c0.4,0.1,0.8,0.2,1.1,0.5c0.2,0.1,0.4,0.2,0.5,0.4
		c0.1,0.1,0.2,0.2,0.3,0.3C155.5,33.4,155.6,33.5,155.7,33.6"/>
	<path class="st1" d="M154.2,29.9c-0.1,0.1-0.2,0.2-0.3,0.3c-0.1,0.1-0.2,0.1-0.3,0.2c-0.2,0.1-0.4,0.2-0.6,0.3
		c-0.4,0.1-0.8,0.2-1.2,0.2c-0.4,0-0.8,0-1.2-0.2c-0.2-0.1-0.4-0.2-0.6-0.3c-0.1-0.1-0.2-0.1-0.3-0.2c-0.1-0.1-0.2-0.2-0.3-0.3
		c0.1-0.1,0.2-0.2,0.3-0.3c0.1-0.1,0.2-0.1,0.3-0.2c0.2-0.1,0.4-0.2,0.6-0.3c0.4-0.1,0.8-0.2,1.2-0.2c0.4,0,0.8,0,1.2,0.2
		c0.2,0.1,0.4,0.2,0.6,0.3c0.1,0.1,0.2,0.1,0.3,0.2C154,29.7,154.1,29.8,154.2,29.9"/>
	<g>
		<path class="st2" d="M66.6,88.7c0,0.1,0,0.1-0.1,0.1c-0.1,0-0.1-0.1-0.2-0.3c0-0.1,0-0.2,0-0.4c0-0.2-0.1-0.5-0.2-0.6
			c-0.1-0.2-0.4-0.4-0.7-0.4c-0.2,0-0.4-0.1-0.5-0.1c-0.3,0-0.5,0-0.6,0v6.1c0,0.2,0.1,0.4,0.2,0.5c0.1,0,0.3,0.1,0.6,0.1
			c0.1,0,0.1,0,0.1,0.1c0,0.1-0.1,0.1-0.2,0.1c-0.1,0-0.1,0-0.1,0c-0.4,0-0.7,0-0.9,0c-0.2,0-0.4,0-0.6,0c-0.2,0-0.4,0-0.8,0
			c-0.2,0-0.2,0-0.2-0.1c0-0.1,0.1-0.1,0.4-0.1c0.2,0,0.3,0,0.4-0.1c0-0.1,0.1-0.2,0.1-0.4v-6.1c-0.7,0-1.1,0-1.3,0.1
			c-0.4,0.2-0.7,0.6-0.8,1.3c0,0.2-0.1,0.3-0.1,0.3c-0.1,0-0.1-0.1-0.1-0.2c0-0.1,0-0.1,0-0.2l0-0.2c0-0.3,0.1-0.7,0.1-1.2h0.5
			l2.1,0c0.2,0,0.6,0,1.1,0l1.7,0c0,0.4,0.1,0.9,0.1,1.7C66.6,88.6,66.6,88.6,66.6,88.7C66.6,88.7,66.6,88.7,66.6,88.7z"/>
		<path class="st2" d="M76.8,93.9c0,0-0.1,0.1-0.3,0.1c0,0,0,0-0.1,0c-0.1,0-0.1,0-0.2,0h-0.8c-0.1,0-0.2,0-0.2,0h-0.2
			c-0.1,0-0.2,0-0.2-0.1c0,0,0.1-0.1,0.2-0.1c0.2,0,0.3,0,0.4-0.1c0,0,0-0.1,0-0.3v-1.9h-1.9v2.1c0,0.1,0,0.1,0.1,0.1
			c0,0,0.2,0,0.3,0c0.1,0,0.1,0,0.1,0.1c0,0-0.1,0.1-0.2,0.1h-0.2c-0.1,0-0.2,0-0.4,0h-1c-0.1,0-0.2,0-0.2-0.1c0,0,0.1-0.1,0.3-0.1
			c0.1,0,0.2,0,0.2-0.1v-3.8c0-0.2,0-0.3,0-0.3c0-0.1-0.1-0.1-0.2-0.1c-0.2,0-0.3,0-0.3-0.1c0,0,0-0.1,0.1-0.1h0.1
			c0.1,0,0.3,0,0.4,0c0.1,0,0.2,0,0.3,0c0.1,0,0.2,0,0.4,0c0.2,0,0.3,0,0.4,0h0.1c0.1,0,0.2,0,0.2,0.1c0,0.1-0.1,0.1-0.3,0.1
			c-0.1,0-0.2,0-0.2,0c0,0,0,0.1,0,0.2v1.6h1.9V90c0-0.2,0-0.3,0-0.4c0-0.1-0.1-0.1-0.2-0.1H75c-0.1,0-0.1,0-0.1-0.1
			c0-0.1,0.1-0.1,0.2-0.1h0.2c0.1,0,0.2,0,0.4,0c0.2,0,0.3,0,0.4,0c0.2,0,0.3,0,0.3,0h0.1c0.2,0,0.2,0,0.2,0.1c0,0.1,0,0.1-0.1,0.1
			c-0.1,0-0.2,0-0.2,0c-0.1,0-0.1,0-0.2,0.1c0,0,0,0.1,0,0.3v3.5c0,0.2,0,0.4,0.1,0.4c0,0,0.2,0,0.4,0
			C76.8,93.8,76.8,93.8,76.8,93.9z"/>
		<path class="st2" d="M86.3,92.9c0,0,0,0,0,0.1c0,0.1,0,0.1,0,0.2v0.6c0,0.1,0,0.1,0,0.2l-1.7,0l-1.9,0c-0.1,0-0.2,0-0.2-0.1
			c0-0.1,0-0.1,0.1-0.1c0.2,0,0.3,0,0.4,0c0,0,0.1-0.1,0.1-0.3v-3.5c0-0.3,0-0.4-0.1-0.4c0,0-0.2,0-0.4,0c-0.1,0-0.1,0-0.1-0.1
			c0-0.1,0-0.1,0.1-0.1h0.2c0.1,0,0.1,0,0.2,0h0.1h0.3c0,0,0.2,0,0.5,0c0.3,0,0.7,0,1.1,0h0.6c0.2,0,0.3,0,0.4,0v0.1l0,0.1
			c0,0.1,0,0.4,0.1,0.9c0,0,0,0.1,0,0.1c0,0.1,0,0.1-0.1,0.1c-0.1,0-0.1-0.1-0.1-0.2c-0.1-0.5-0.3-0.8-0.5-0.9
			c-0.1,0-0.5-0.1-1.1-0.1h-0.5v1.9h0.2c0.4,0,0.7,0,0.8-0.1c0.1-0.1,0.2-0.3,0.2-0.6c0-0.2,0.1-0.3,0.1-0.3c0.1,0,0.1,0.1,0.1,0.2
			c0,0.1,0,0.2,0,0.4c0,0.2,0,0.3,0,0.4c0,0.4,0,0.7,0,0.9c0,0.1,0,0.1,0,0.1c0,0.1,0,0.2-0.1,0.2c-0.1,0-0.1-0.1-0.1-0.3
			c0-0.4-0.1-0.6-0.2-0.7c-0.1-0.1-0.4-0.1-0.8-0.1h-0.3v2.2c1,0,1.6,0,1.8-0.1c0.3-0.1,0.4-0.4,0.5-1c0-0.1,0-0.2,0.1-0.2
			C86.2,92.6,86.3,92.7,86.3,92.9z"/>
		<path class="st2" d="M102.6,93c0,0.4,0,0.7,0,1c0,0-0.1,0-0.2,0c0,0-0.1,0-0.2,0c-0.1,0-0.2,0-0.4,0h-0.5l-1.7,0h-0.8
			c-0.1,0-0.1,0-0.1-0.1c0,0,0.1-0.1,0.4-0.1c0.1,0,0.1,0,0.1-0.1c0,0,0-0.1,0-0.2v-3.4c0-0.4,0-0.6-0.1-0.6c0,0-0.1,0-0.2,0
			c-0.1,0-0.2,0-0.2,0c-0.1,0-0.1,0-0.1-0.1c0,0,0-0.1,0.1-0.1h1.4c0.1,0,0.2,0,0.2,0c0.1,0,0.2,0,0.2,0.1c0,0-0.1,0.1-0.3,0.1
			c-0.1,0-0.2,0-0.2,0.1c0,0,0,0.2,0,0.4v3.8c0.3,0,0.5,0,0.6,0c0.7,0,1.2-0.1,1.4-0.2c0.1-0.1,0.2-0.4,0.3-0.7
			c0-0.2,0.1-0.2,0.1-0.2C102.6,92.6,102.6,92.7,102.6,93z"/>
		<path class="st2" d="M110,93.9C110,93.9,110,94,110,93.9l-0.2,0.1h-0.2h-0.3c-0.1,0-0.1,0-0.2,0c-0.1,0-0.1,0-0.1,0
			c-0.1,0-0.2,0-0.4,0c-0.2,0-0.3,0-0.4,0h0c-0.1,0-0.2,0-0.2-0.1c0,0,0.1-0.1,0.2-0.1c0.2,0,0.3,0,0.3-0.1c0,0,0-0.2,0-0.4V90
			c0-0.3,0-0.4,0-0.5c0,0-0.1-0.1-0.2-0.1h-0.2h-0.1c-0.1,0-0.1,0-0.1-0.1c0,0,0-0.1,0.1-0.1c0,0,0,0,0.1,0c0,0,0.1,0,0.2,0h0.7
			c0,0,0.1,0,0.2,0c0.1,0,0.2,0,0.2,0h0.3c0.1,0,0.2,0,0.2,0.1c0,0-0.1,0.1-0.3,0.1c-0.1,0-0.2,0-0.2,0c0,0,0,0.1,0,0.3v3.8
			c0,0.1,0,0.1,0.1,0.1c0.1,0,0.2,0,0.4,0.1C109.9,93.8,110,93.9,110,93.9z"/>
		<path class="st2" d="M119.3,90.6c0,0.1,0,0.1-0.1,0.1c-0.1,0-0.1-0.1-0.1-0.2c0-0.4-0.1-0.6-0.3-0.8c-0.1-0.2-0.5-0.2-1.1-0.2
			c-0.2,0-0.4,0-0.7,0v1.9h0.2c0.4,0,0.7,0,0.8-0.1c0.1-0.1,0.2-0.3,0.2-0.7c0-0.1,0-0.1,0.1-0.1c0.1,0,0.1,0.1,0.1,0.2
			c0,0.1,0,0.1,0,0.2c0,0.1,0,0.3,0,0.7c0,0.1,0,0.2,0,0.3c0,0.1,0,0.3,0,0.5v0c0,0.1,0,0.2-0.1,0.2c-0.1,0-0.1-0.1-0.1-0.2
			c0-0.4-0.1-0.7-0.2-0.7c-0.1-0.1-0.3-0.1-0.7-0.1H117v2c0,0.1,0,0.2,0.1,0.2c0,0,0.1,0,0.3,0c0.1,0,0.1,0,0.1,0.1
			c0,0,0,0.1-0.1,0.1h-0.1c0,0-0.1,0-0.3,0c-0.1,0-0.2,0-0.2,0H116c-0.1,0-0.1,0-0.2,0c-0.1,0-0.1,0-0.1,0c-0.1,0-0.2,0-0.2-0.1
			c0-0.1,0-0.1,0.1-0.1c0.2,0,0.3,0,0.4,0c0,0,0.1-0.1,0.1-0.3v-3.6c0-0.2,0-0.3-0.1-0.3c0,0-0.2,0-0.4-0.1c-0.1,0-0.1,0-0.1-0.1
			c0-0.1,0.1-0.1,0.2-0.1h1.9c0.7,0,1.2,0,1.4,0l0,0.1l0,0.5l0.1,0.5C119.3,90.5,119.3,90.6,119.3,90.6z"/>
		<path class="st2" d="M128.6,92.9c0,0,0,0,0,0.1c0,0.1,0,0.1,0,0.2v0.6c0,0.1,0,0.1,0,0.2l-1.7,0l-1.9,0c-0.1,0-0.2,0-0.2-0.1
			c0-0.1,0-0.1,0.1-0.1c0.2,0,0.3,0,0.4,0c0,0,0.1-0.1,0.1-0.3v-3.5c0-0.3,0-0.4-0.1-0.4c0,0-0.2,0-0.4,0c-0.1,0-0.1,0-0.1-0.1
			c0-0.1,0-0.1,0.1-0.1h0.2c0.1,0,0.1,0,0.2,0h0.1h0.3c0,0,0.2,0,0.5,0c0.3,0,0.7,0,1.1,0h0.6c0.2,0,0.3,0,0.4,0v0.1l0,0.1
			c0,0.1,0,0.4,0.1,0.9c0,0,0,0.1,0,0.1c0,0.1,0,0.1-0.1,0.1c-0.1,0-0.1-0.1-0.1-0.2c-0.1-0.5-0.3-0.8-0.5-0.9
			c-0.1,0-0.5-0.1-1.1-0.1h-0.5v1.9h0.2c0.4,0,0.7,0,0.8-0.1c0.1-0.1,0.2-0.3,0.2-0.6c0-0.2,0.1-0.3,0.1-0.3c0.1,0,0.1,0.1,0.1,0.2
			c0,0.1,0,0.2,0,0.4c0,0.2,0,0.3,0,0.4c0,0.4,0,0.7,0,0.9c0,0.1,0,0.1,0,0.1c0,0.1,0,0.2-0.1,0.2c-0.1,0-0.1-0.1-0.1-0.3
			c0-0.4-0.1-0.6-0.2-0.7c-0.1-0.1-0.4-0.1-0.8-0.1h-0.3v2.2c1,0,1.6,0,1.8-0.1c0.3-0.1,0.4-0.4,0.5-1c0-0.1,0-0.2,0.1-0.2
			S128.6,92.7,128.6,92.9z"/>
		<path class="st2" d="M137.3,92.7c0,0.4-0.2,0.7-0.5,1c-0.3,0.3-0.7,0.4-1.2,0.4c-0.3,0-0.7-0.1-1.1-0.3c0,0-0.1,0-0.1,0
			c0,0-0.1,0-0.1,0.1c0,0.1,0,0.1,0,0.2c0,0,0,0.1-0.1,0.1c-0.1,0-0.1,0-0.1-0.1c0,0,0-0.1,0-0.3c0-0.2,0-0.4,0-0.5
			c0-0.1,0-0.1,0-0.3c0-0.1,0-0.2,0-0.3c0-0.1,0-0.2,0.1-0.2c0.1,0,0.1,0.1,0.2,0.3c0.1,0.7,0.5,1.1,1.2,1.1c0.6,0,0.9-0.3,0.9-0.9
			c0-0.3-0.1-0.5-0.2-0.6c-0.1-0.2-0.4-0.3-0.8-0.5c-0.5-0.3-0.8-0.5-1-0.6c-0.2-0.2-0.3-0.4-0.3-0.7c0-0.4,0.1-0.7,0.4-0.9
			c0.3-0.2,0.6-0.4,1-0.4c0.3,0,0.5,0.1,0.8,0.2c0,0,0.1,0,0.1,0c0,0,0.1,0,0.1-0.1c0-0.1,0.1-0.1,0.1-0.1c0.1,0,0.1,0,0.1,0.1
			c0,0,0,0,0,0.1c0,0.1,0,0.2,0,0.4c0,0.1,0,0.3,0,0.5c0,0,0,0.1,0,0.1c0,0.1,0,0.1-0.1,0.1c-0.1,0-0.1-0.1-0.1-0.2
			c-0.1-0.3-0.2-0.5-0.4-0.7c-0.2-0.2-0.4-0.3-0.7-0.3c-0.5,0-0.7,0.3-0.7,0.8c0,0.2,0.1,0.4,0.2,0.6c0.1,0.1,0.1,0.1,0.2,0.2
			c0.1,0,0.3,0.2,0.7,0.4c0.4,0.2,0.8,0.4,0.9,0.6C137.2,92.1,137.3,92.4,137.3,92.7z"/>
		<path class="st2" d="M146.8,90.6c0,0.1,0,0.1-0.1,0.1c-0.1,0-0.1-0.1-0.1-0.2c0-0.3-0.1-0.5-0.2-0.7c-0.1-0.2-0.4-0.4-0.9-0.4
			c-0.1,0-0.2,0-0.3,0v4.1c0,0.1,0.1,0.2,0.3,0.2c0.2,0,0.3,0,0.3,0.1c0,0-0.1,0.1-0.2,0.1h-0.1c-0.1,0-0.2,0-0.3,0
			c-0.1,0-0.2,0-0.3,0c0,0-0.1,0-0.2,0c-0.1,0-0.3,0-0.5,0h-0.2c-0.1,0-0.2,0-0.2-0.1c0,0,0.1-0.1,0.3-0.1c0.1,0,0.1,0,0.2,0
			c0.1,0,0.1,0,0.1-0.1c0-0.1,0-0.2,0-0.5v-3.7c-0.5,0-0.9,0-1,0.2c-0.2,0.1-0.3,0.4-0.3,0.8c0,0.2-0.1,0.2-0.1,0.2
			c-0.1,0-0.1-0.1-0.1-0.2c0-0.2,0-0.6,0.1-1.1h2.4c0.2,0,0.6,0,1.3,0c0.1,0,0.1,0,0.2,0l0,0.2l0,0.4l0,0.4l0,0.2
			C146.8,90.5,146.8,90.5,146.8,90.6z"/>
		<path class="st2" d="M156.5,89.4c0,0,0,0.1-0.1,0.1c-0.2,0-0.4,0.1-0.5,0.1c-0.1,0.1-0.2,0.3-0.5,0.8c-0.2,0.4-0.4,0.8-0.6,1.2
			c-0.1,0.1-0.1,0.3-0.2,0.3c0,0.1,0,0.2,0,0.4v1.3c0,0.1,0,0.2,0.1,0.2c0,0,0.2,0,0.4,0.1c0.1,0,0.2,0,0.2,0.1c0,0,0,0.1-0.1,0.1
			h-0.1h-0.2h-0.3c-0.1,0-0.2,0-0.3,0c-0.1,0-0.2,0-0.3,0c0,0,0,0-0.2,0c-0.1,0-0.3,0-0.5,0h-0.1c-0.1,0-0.1,0-0.1-0.1
			c0-0.1,0.1-0.1,0.3-0.1c0.2,0,0.3,0,0.3-0.1c0,0,0-0.2,0-0.4V92c0-0.1-0.1-0.2-0.2-0.4l-0.7-1.2c-0.1-0.2-0.2-0.3-0.2-0.5
			c-0.1-0.1-0.1-0.2-0.2-0.4c-0.1-0.1-0.2-0.1-0.5-0.1c-0.1,0-0.1,0-0.1-0.1c0-0.1,0-0.1,0.1-0.1c0,0,0.1,0,0.2,0c0.1,0,0.3,0,0.4,0
			h0.3h0.9c0,0,0.1,0,0.1,0c0.1,0,0.2,0,0.2,0.1c0,0-0.1,0.1-0.3,0.1c-0.3,0-0.4,0-0.4,0.1c0,0.1,0.4,0.8,1.1,2c0.7-1.3,1-2,1-2
			c0-0.1-0.1-0.1-0.2-0.1h-0.2h-0.1c-0.1,0-0.2,0-0.2-0.1c0,0,0.1-0.1,0.2-0.1h0.4h0.2C156.3,89.3,156.5,89.3,156.5,89.4z"/>
		<path class="st2" d="M165.6,93c0,0.4,0,0.7,0,1c0,0-0.1,0-0.2,0c0,0-0.1,0-0.2,0c-0.1,0-0.2,0-0.4,0h-0.5l-1.7,0h-0.8
			c-0.1,0-0.1,0-0.1-0.1c0,0,0.1-0.1,0.4-0.1c0.1,0,0.1,0,0.1-0.1c0,0,0-0.1,0-0.2v-3.4c0-0.4,0-0.6-0.1-0.6c0,0-0.1,0-0.2,0
			c-0.1,0-0.2,0-0.2,0c-0.1,0-0.1,0-0.1-0.1c0,0,0-0.1,0.1-0.1h1.4c0.1,0,0.2,0,0.2,0c0.1,0,0.2,0,0.2,0.1c0,0-0.1,0.1-0.3,0.1
			c-0.1,0-0.2,0-0.2,0.1c0,0,0,0.2,0,0.4v3.8c0.3,0,0.5,0,0.6,0c0.7,0,1.2-0.1,1.4-0.2c0.1-0.1,0.2-0.4,0.3-0.7
			c0-0.2,0.1-0.2,0.1-0.2C165.6,92.6,165.6,92.7,165.6,93z"/>
		<path class="st2" d="M174.9,92.9c0,0,0,0,0,0.1c0,0.1,0,0.1,0,0.2v0.6c0,0.1,0,0.1,0,0.2l-1.7,0l-1.9,0c-0.1,0-0.2,0-0.2-0.1
			c0-0.1,0-0.1,0.1-0.1c0.2,0,0.3,0,0.4,0c0,0,0.1-0.1,0.1-0.3v-3.5c0-0.3,0-0.4-0.1-0.4c0,0-0.2,0-0.4,0c-0.1,0-0.1,0-0.1-0.1
			c0-0.1,0-0.1,0.1-0.1h0.2c0.1,0,0.1,0,0.2,0h0.1h0.3c0,0,0.2,0,0.5,0c0.3,0,0.7,0,1.1,0h0.6c0.2,0,0.3,0,0.4,0v0.1l0,0.1
			c0,0.1,0,0.4,0.1,0.9c0,0,0,0.1,0,0.1c0,0.1,0,0.1-0.1,0.1c-0.1,0-0.1-0.1-0.1-0.2c-0.1-0.5-0.3-0.8-0.5-0.9
			c-0.1,0-0.5-0.1-1.1-0.1h-0.5v1.9h0.2c0.4,0,0.7,0,0.8-0.1c0.1-0.1,0.2-0.3,0.2-0.6c0-0.2,0.1-0.3,0.1-0.3c0.1,0,0.1,0.1,0.1,0.2
			c0,0.1,0,0.2,0,0.4c0,0.2,0,0.3,0,0.4c0,0.4,0,0.7,0,0.9c0,0.1,0,0.1,0,0.1c0,0.1,0,0.2-0.1,0.2c-0.1,0-0.1-0.1-0.1-0.3
			c0-0.4-0.1-0.6-0.2-0.7c-0.1-0.1-0.4-0.1-0.8-0.1h-0.3v2.2c1,0,1.6,0,1.8-0.1c0.3-0.1,0.4-0.4,0.5-1c0-0.1,0-0.2,0.1-0.2
			C174.9,92.6,174.9,92.7,174.9,92.9z"/>
		<path class="st2" d="M190.6,92.7c0,0.4-0.2,0.7-0.5,1c-0.3,0.3-0.7,0.4-1.2,0.4c-0.3,0-0.7-0.1-1.1-0.3c0,0-0.1,0-0.1,0
			c0,0-0.1,0-0.1,0.1c0,0.1,0,0.1,0,0.2c0,0,0,0.1-0.1,0.1c-0.1,0-0.1,0-0.1-0.1c0,0,0-0.1,0-0.3c0-0.2,0-0.4,0-0.5
			c0-0.1,0-0.1,0-0.3c0-0.1,0-0.2,0-0.3c0-0.1,0-0.2,0.1-0.2c0.1,0,0.1,0.1,0.2,0.3c0.1,0.7,0.5,1.1,1.2,1.1c0.6,0,0.9-0.3,0.9-0.9
			c0-0.3-0.1-0.5-0.2-0.6c-0.1-0.2-0.4-0.3-0.8-0.5c-0.5-0.3-0.8-0.5-1-0.6c-0.2-0.2-0.3-0.4-0.3-0.7c0-0.4,0.1-0.7,0.4-0.9
			c0.3-0.2,0.6-0.4,1-0.4c0.3,0,0.5,0.1,0.8,0.2c0,0,0.1,0,0.1,0c0,0,0.1,0,0.1-0.1c0-0.1,0.1-0.1,0.1-0.1c0.1,0,0.1,0,0.1,0.1
			c0,0,0,0,0,0.1c0,0.1,0,0.2,0,0.4c0,0.1,0,0.3,0,0.5c0,0,0,0.1,0,0.1c0,0.1,0,0.1-0.1,0.1c-0.1,0-0.1-0.1-0.1-0.2
			c-0.1-0.3-0.2-0.5-0.4-0.7c-0.2-0.2-0.4-0.3-0.7-0.3c-0.5,0-0.7,0.3-0.7,0.8c0,0.2,0.1,0.4,0.2,0.6c0.1,0.1,0.1,0.1,0.2,0.2
			c0.1,0,0.3,0.2,0.7,0.4c0.4,0.2,0.8,0.4,0.9,0.6C190.5,92.1,190.6,92.4,190.6,92.7z"/>
		<path class="st2" d="M199.7,90.4c0,0.4-0.2,0.7-0.5,0.9c-0.3,0.2-0.7,0.3-1.2,0.3c-0.1,0-0.2,0-0.4,0h-0.1v1.8
			c0,0.2,0,0.3,0.1,0.3c0.1,0,0.2,0,0.4,0c0.1,0,0.1,0,0.1,0.1c0,0,0,0.1-0.1,0.1c-0.1,0-0.3,0-0.8,0c-0.6,0-0.9,0-1,0
			c-0.1,0-0.1,0-0.1-0.1c0-0.1,0-0.1,0.1-0.1h0.2c0.2,0,0.2,0,0.3,0c0,0,0,0,0.1,0c0,0,0-0.1,0-0.3V90c0-0.3,0-0.4,0-0.4
			c0-0.1-0.1-0.1-0.3-0.1h-0.1c-0.1,0-0.1,0-0.1-0.1c0,0,0-0.1,0.1-0.1c0.1,0,0.3,0,0.8,0c0.9,0,1.4,0,1.6,0.1
			C199.3,89.5,199.7,89.9,199.7,90.4z M198.8,90.5c0-0.6-0.3-1-0.9-1c-0.2,0-0.3,0-0.3,0c0,0-0.1,0.1-0.1,0.2v1.8
			C198.4,91.5,198.8,91.2,198.8,90.5z"/>
		<path class="st2" d="M209.7,93.9c0,0-0.1,0.1-0.2,0.1h-0.1h-0.6h-0.3c-0.1,0-0.3,0-0.5,0h-0.3h-0.2h-0.1c-0.1,0-0.2,0-0.2-0.1
			c0-0.1,0.1-0.1,0.4-0.1c0.3,0,0.4,0,0.4-0.1c0,0,0-0.1-0.1-0.2c0-0.1-0.1-0.3-0.2-0.7l-0.1-0.3h-1.5c-0.3,0.7-0.4,1.1-0.4,1.2
			c0,0.1,0,0.1,0.1,0.1l0.1,0h0.2l0.1,0c0.1,0,0.1,0,0.1,0.1c0,0-0.1,0.1-0.2,0.1c0,0-0.1,0-0.4,0c-0.2,0-0.4,0-0.6,0h-0.1l-0.1,0
			l-0.1,0h0c-0.1,0-0.2,0-0.2-0.1c0,0,0-0.1,0.1-0.1c0.1,0,0.2,0,0.2,0c0.1,0,0.2-0.1,0.2-0.1c0,0,0.2-0.4,0.5-1.2
			c0.1-0.3,0.2-0.6,0.3-0.9c0-0.1,0.1-0.2,0.1-0.2c0,0,0-0.1,0.1-0.2c0.1-0.3,0.3-0.7,0.5-1.3l0.2-0.4l0.1-0.2
			c0-0.1,0.1-0.2,0.1-0.2c0,0,0.1,0.1,0.1,0.3c0.2,0.5,0.7,1.8,1.6,3.9c0.1,0.2,0.2,0.3,0.2,0.3c0,0,0.1,0,0.3,0
			C209.6,93.8,209.7,93.9,209.7,93.9z M207.6,92.3l-0.7-1.7c-0.2,0.4-0.4,1-0.7,1.7H207.6z"/>
	</g>
	<path d="M72.4,58.8c-0.4,0-0.6,0.1-0.6,0.2l-8.7,16.7l0.7,1.4l9.3-17.9C73.2,58.9,73,58.8,72.4,58.8z"/>
	<path d="M62.3,77.4L52.8,59c-0.1-0.1-0.3-0.2-0.7-0.2c-0.6,0-0.8,0.1-0.7,0.3l10.2,19.6c0.1,0.1,0.3,0.2,0.7,0.2
		c0.4,0,0.6-0.1,0.7-0.2l0,0L62.3,77.4L62.3,77.4z"/>
	<path d="M115.3,77.4L105.8,59c-0.1-0.1-0.3-0.2-0.7-0.2c-0.6,0-0.8,0.1-0.7,0.3l10.2,19.6c0.1,0.1,0.3,0.2,0.7,0.2
		c0.4,0,0.6-0.1,0.7-0.2l0-0.1L115.3,77.4L115.3,77.4z"/>
	<path d="M125.5,58.8c-0.4,0-0.6,0.1-0.6,0.2l-8.6,16.6l0.7,1.4l9.3-17.9C126.3,58.9,126,58.8,125.5,58.8z"/>
	<path d="M154.3,78.6h-14v-9.4H151c0.4,0,0.6-0.1,0.6-0.3c0-0.2-0.2-0.2-0.6-0.2h-10.6v-9.4h13.4c0.4,0,0.6-0.1,0.6-0.3
		c0-0.2-0.2-0.2-0.6-0.2h-13.9c-0.2,0-0.3,0-0.4,0c-0.4,0-0.5,0.1-0.5,0.3v19.6c0,0.2,0.2,0.3,0.5,0.3c0.1,0,0.2,0,0.4,0h14.5
		c0.4,0,0.6-0.1,0.6-0.3C155,78.7,154.7,78.6,154.3,78.6z"/>
	<path d="M169.4,59.4l-0.3-0.3c-0.1-0.1-0.4-0.2-0.8-0.2c-0.4,0-0.6,0.1-0.6,0.2v19.7c0,0.2,0.2,0.3,0.7,0.3c0.5,0,0.7-0.1,0.7-0.3
		V61l13,16.1v-1.8L169.4,59.4z"/>
	<path d="M184.2,58.9c-0.5,0-0.7,0.1-0.7,0.3v14.6v5l0.1,0.1c0.1,0.1,0.4,0.1,0.7,0.1c0.4,0,0.6-0.1,0.6-0.2V59.2
		C184.9,59,184.7,58.9,184.2,58.9z"/>
	<path d="M212.2,70.1c-1.4-0.9-3-1.4-4.9-1.4h-2.5c-0.8,0-1.6-0.1-2.4-0.4c-1.1-0.4-2-1-2.6-1.9c-0.6-0.9-0.8-1.8-0.7-2.8
		c0.1-1.5,1-2.7,2.7-3.6c0.8-0.4,2.2-0.7,4.3-0.7c1.9,0,3.3,0.3,4.3,0.8c1.7,0.9,2.5,2.2,2.6,3.9c0,0.2,0.2,0.3,0.7,0.3
		c0.5,0,0.7-0.1,0.7-0.3c0-1.8-1-3.2-2.9-4.3c-1.2-0.6-2.8-0.9-4.9-0.9c-2.2,0-3.8,0.2-4.8,0.5c-1.2,0.4-2.2,1-2.9,1.9
		c-0.7,0.9-1.1,1.8-1.1,2.9c0,1.5,0.7,2.7,2.2,3.7c1.4,0.9,3,1.4,4.9,1.4h2.4c0.8,0,1.6,0.1,2.4,0.4c1.2,0.4,2,1,2.6,1.9
		c0.5,0.8,0.8,1.8,0.7,2.8c-0.1,1.5-1,2.7-2.7,3.6c-0.8,0.4-2.2,0.7-4.3,0.7c-1.9,0-3.4-0.3-4.3-0.8c-1.6-0.9-2.4-2.2-2.5-3.9
		c0-0.2-0.2-0.3-0.7-0.3c-0.5,0-0.7,0.1-0.7,0.3c0.1,1.8,1,3.3,2.9,4.2c1.1,0.6,2.8,0.9,4.9,0.9c2.3,0,3.9-0.1,4.8-0.4
		c1.2-0.4,2.2-1,2.9-1.9c0.7-0.9,1.1-1.8,1.1-2.9C214.4,72.3,213.7,71.1,212.2,70.1z"/>
	<path d="M89.7,59c0-0.1-0.1-0.1-0.1-0.1h-1.2c-0.1,0-0.1,0.1-0.1,0.1v19.8c0,0.1,0.1,0.1,0.1,0.1h1.2c0.1,0,0.1-0.1,0.1-0.1V59z"/>
</g>
</svg>
