<svg id="Layer_1" data-name="Layer 1" xmlns="http://www.w3.org/2000/svg" viewBox="0 0 267 100"><defs><style>.cls-1{fill:none;}.cls-2,.cls-3,.cls-4{fill:#959495;}.cls-3,.cls-4{stroke:#959495;stroke-linecap:round;stroke-linejoin:round;}.cls-3{stroke-width:0.28px;}.cls-4{stroke-width:0.57px;}</style></defs><title>vivens-8</title><rect class="cls-1" width="267" height="100"/><path class="cls-2" d="M135.83,22.9a2.53,2.53,0,0,1,.24.29,2.86,2.86,0,0,1,.18.29,3.39,3.39,0,0,1,.26.57,3.56,3.56,0,0,1,.19,1.14,3.5,3.5,0,0,1-.19,1.14,3.24,3.24,0,0,1-.26.57,3.34,3.34,0,0,1-.18.29,2.63,2.63,0,0,1-.24.29,2.35,2.35,0,0,1-.24-.29,2.83,2.83,0,0,1-.18-.29,3.26,3.26,0,0,1-.26-.57,3.5,3.5,0,0,1-.19-1.14,3.61,3.61,0,0,1,.19-1.14,3.4,3.4,0,0,1,.26-.57,3.13,3.13,0,0,1,.18-.29,2.4,2.4,0,0,1,.24-.29"/><path class="cls-2" d="M135.83,17.68a2.45,2.45,0,0,1,.24.29,2.87,2.87,0,0,1,.18.29,3.41,3.41,0,0,1,.26.57A3.56,3.56,0,0,1,136.7,20a3.5,3.5,0,0,1-.19,1.14,3.24,3.24,0,0,1-.26.57,3.29,3.29,0,0,1-.18.29,2.47,2.47,0,0,1-.24.29,2.22,2.22,0,0,1-.24-.29,2.79,2.79,0,0,1-.18-.29,3.26,3.26,0,0,1-.26-.57A3.5,3.5,0,0,1,135,20a3.61,3.61,0,0,1,.19-1.14,3.42,3.42,0,0,1,.26-.57,3.15,3.15,0,0,1,.18-.29,2.33,2.33,0,0,1,.24-.29"/><path class="cls-2" d="M139.6,24.32a2.21,2.21,0,0,0-.37.06l-.32.1a3.29,3.29,0,0,0-.57.27,3.56,3.56,0,0,0-.89.75,3.49,3.49,0,0,0-.61,1,3.19,3.19,0,0,0-.18.6,3,3,0,0,0,0,.34,2.08,2.08,0,0,0,0,.37,2.41,2.41,0,0,0,.37-.06l.33-.1a3.26,3.26,0,0,0,.57-.27,3.6,3.6,0,0,0,1.49-1.74,3.18,3.18,0,0,0,.18-.6,2.92,2.92,0,0,0,0-.34,2.48,2.48,0,0,0,0-.37"/><path class="cls-2" d="M142,29.45a2.12,2.12,0,0,0-.3-.23l-.29-.17a3.4,3.4,0,0,0-.59-.23,3.61,3.61,0,0,0-2.29.12,3.44,3.44,0,0,0-.56.29l-.27.2a2.18,2.18,0,0,0-.27.26,2.18,2.18,0,0,0,.3.23l.29.17a3.4,3.4,0,0,0,.58.23,3.61,3.61,0,0,0,2.29-.13,3.39,3.39,0,0,0,.56-.29l.27-.2a2.08,2.08,0,0,0,.27-.26"/><path class="cls-2" d="M148.4,21.06a2.28,2.28,0,0,0-.37,0h-.34a3.29,3.29,0,0,0-.62.09,3.58,3.58,0,0,0-1.06.46,3.53,3.53,0,0,0-.86.77,3.31,3.31,0,0,0-.34.53,3,3,0,0,0-.14.31,2,2,0,0,0-.11.36,2.21,2.21,0,0,0,.37,0h.34a3.25,3.25,0,0,0,.62-.09,3.61,3.61,0,0,0,1.92-1.24,3.21,3.21,0,0,0,.34-.53,2.73,2.73,0,0,0,.14-.31,2.19,2.19,0,0,0,.11-.36"/><path class="cls-2" d="M142.67,20a2.29,2.29,0,0,0-.37.06l-.32.1a3.44,3.44,0,0,0-.57.27,3.55,3.55,0,0,0-.89.75,3.51,3.51,0,0,0-.61,1,3.55,3.55,0,0,0-.18.6,3,3,0,0,0,0,.34,2.34,2.34,0,0,0,0,.38,2.26,2.26,0,0,0,.37-.06l.33-.1A3.28,3.28,0,0,0,141,23a3.55,3.55,0,0,0,.89-.75,3.65,3.65,0,0,0,.6-1,3.44,3.44,0,0,0,.18-.6,3.21,3.21,0,0,0,0-.34,2.22,2.22,0,0,0,0-.37"/><path class="cls-2" d="M138.75,20a2.08,2.08,0,0,0-.32.2l-.26.22a3.41,3.41,0,0,0-.42.47A3.6,3.6,0,0,0,137,23a3.21,3.21,0,0,0,.07.62,3,3,0,0,0,.09.33,2.28,2.28,0,0,0,.14.35,2.44,2.44,0,0,0,.32-.2l.26-.22a3.44,3.44,0,0,0,.42-.46,3.61,3.61,0,0,0,.7-2.18,3.33,3.33,0,0,0-.07-.62,3.15,3.15,0,0,0-.09-.33,2.29,2.29,0,0,0-.14-.35"/><path class="cls-2" d="M141.56,16.54a2.4,2.4,0,0,0-.34.16l-.28.18a3.52,3.52,0,0,0-.47.42,3.62,3.62,0,0,0-.95,2.08,3.19,3.19,0,0,0,0,.63c0,.11,0,.22,0,.34a2.42,2.42,0,0,0,.1.36,2.35,2.35,0,0,0,.34-.16l.28-.18a3.22,3.22,0,0,0,.47-.41,3.53,3.53,0,0,0,.64-1,3.58,3.58,0,0,0,.3-1.12,3.26,3.26,0,0,0,0-.63,2.74,2.74,0,0,0,0-.34,2.37,2.37,0,0,0-.1-.36"/><path class="cls-2" d="M138.39,14.93a2.51,2.51,0,0,0-.3.23l-.24.24a3.3,3.3,0,0,0-.38.5,3.64,3.64,0,0,0-.51,2.23,3.28,3.28,0,0,0,.12.62,3.39,3.39,0,0,0,.12.32,2,2,0,0,0,.17.33,2.23,2.23,0,0,0,.3-.23l.24-.24a3.28,3.28,0,0,0,.38-.5,3.55,3.55,0,0,0,.43-1.07,3.59,3.59,0,0,0,.07-1.16,3.3,3.3,0,0,0-.12-.62,3,3,0,0,0-.12-.32,2.23,2.23,0,0,0-.17-.33"/><path class="cls-2" d="M146.84,24.4a2.38,2.38,0,0,0-.35-.13l-.33-.07a3.22,3.22,0,0,0-.62,0,3.63,3.63,0,0,0-2.15.78,3.32,3.32,0,0,0-.45.44,2.83,2.83,0,0,0-.21.27,2.13,2.13,0,0,0-.19.33,2.11,2.11,0,0,0,.35.13l.33.08a3.34,3.34,0,0,0,.62,0,3.62,3.62,0,0,0,2.15-.79,3.31,3.31,0,0,0,.45-.44,2.89,2.89,0,0,0,.21-.27,2.32,2.32,0,0,0,.19-.32"/><path class="cls-2" d="M143.68,23a2.25,2.25,0,0,0-.37,0L143,23a3.34,3.34,0,0,0-.61.13,3.58,3.58,0,0,0-1,.52,3.48,3.48,0,0,0-.82.82,3.27,3.27,0,0,0-.31.54,3.17,3.17,0,0,0-.12.32,2.3,2.3,0,0,0-.09.36,2.16,2.16,0,0,0,.38,0l.34,0a3.27,3.27,0,0,0,.61-.13,3.51,3.51,0,0,0,1-.52,3.61,3.61,0,0,0,.82-.82,3.43,3.43,0,0,0,.31-.54c0-.1.09-.21.12-.32a2.54,2.54,0,0,0,.09-.36"/><path class="cls-2" d="M146,18.74a2.12,2.12,0,0,0-.37.05l-.33.09a3.36,3.36,0,0,0-.57.26,3.57,3.57,0,0,0-.9.73,3.45,3.45,0,0,0-.62,1,3.27,3.27,0,0,0-.19.6,3,3,0,0,0-.05.34,2.09,2.09,0,0,0,0,.37,2.26,2.26,0,0,0,.37-.05l.33-.09a3.22,3.22,0,0,0,.57-.26,3.52,3.52,0,0,0,.9-.73,3.57,3.57,0,0,0,.62-1,3.33,3.33,0,0,0,.19-.6,3.14,3.14,0,0,0,.05-.34,2.43,2.43,0,0,0,0-.37"/><path class="cls-2" d="M145.26,15.57a2.38,2.38,0,0,0-.36.09l-.32.13a3.33,3.33,0,0,0-.54.32,3.57,3.57,0,0,0-.82.82,3.49,3.49,0,0,0-.51,1,3.28,3.28,0,0,0-.12.61,3.34,3.34,0,0,0,0,.34,2.27,2.27,0,0,0,0,.37,2.32,2.32,0,0,0,.36-.09l.32-.13a3.43,3.43,0,0,0,.54-.32,3.61,3.61,0,0,0,1.33-1.86,3.24,3.24,0,0,0,.12-.61,2.91,2.91,0,0,0,0-.34,2.16,2.16,0,0,0,0-.37"/><path class="cls-2" d="M141.69,12.74a2.2,2.2,0,0,0-.34.15l-.29.18a3.31,3.31,0,0,0-.48.4,3.63,3.63,0,0,0-1,2.06,3.31,3.31,0,0,0,0,1,2.42,2.42,0,0,0,.09.36,2.3,2.3,0,0,0,.34-.15l.29-.18a3.35,3.35,0,0,0,.48-.4,3.51,3.51,0,0,0,1-2.69,3.29,3.29,0,0,0,0-.34,2.22,2.22,0,0,0-.09-.36"/><path class="cls-2" d="M136,12.41a2.33,2.33,0,0,0-.26.27,3,3,0,0,0-.2.27,3.22,3.22,0,0,0-.3.55,3.63,3.63,0,0,0-.17,2.28,3.45,3.45,0,0,0,.22.59c0,.1.1.2.16.3a2.41,2.41,0,0,0,.22.3,2.19,2.19,0,0,0,.26-.27,3,3,0,0,0,.21-.27,3.45,3.45,0,0,0,.3-.55,3.61,3.61,0,0,0,.16-2.28,3.13,3.13,0,0,0-.21-.59c0-.1-.1-.2-.16-.3a2.4,2.4,0,0,0-.22-.3"/><path class="cls-2" d="M149.78,17.5a2.2,2.2,0,0,0-.38,0l-.33.05a3.26,3.26,0,0,0-.6.18,3.63,3.63,0,0,0-1.72,1.51,3.42,3.42,0,0,0-.35.9,2.28,2.28,0,0,0-.05.37,2.24,2.24,0,0,0,.37,0l.34-.05a3.32,3.32,0,0,0,.6-.18,3.51,3.51,0,0,0,1-.62,3.55,3.55,0,0,0,.74-.9,3.37,3.37,0,0,0,.26-.57,3.17,3.17,0,0,0,.09-.33,2.17,2.17,0,0,0,.05-.37"/><path class="cls-2" d="M151.71,22.19a2.26,2.26,0,0,0-.35-.12L151,22a3.32,3.32,0,0,0-.63,0,3.61,3.61,0,0,0-2.13.82,3.35,3.35,0,0,0-.44.45c-.07.08-.13.18-.2.27a2.13,2.13,0,0,0-.18.33,2.13,2.13,0,0,0,.36.12l.33.07a3.26,3.26,0,0,0,.63,0,3.47,3.47,0,0,0,1.13-.24,3.52,3.52,0,0,0,1-.59,3.39,3.39,0,0,0,.44-.45c.07-.09.14-.18.2-.28a2.14,2.14,0,0,0,.18-.33"/><path class="cls-2" d="M132.09,24.32a2.17,2.17,0,0,1,.37.06l.33.1a3.35,3.35,0,0,1,.57.27,3.62,3.62,0,0,1,1.49,1.74,3.1,3.1,0,0,1,.18.6,3.21,3.21,0,0,1,0,.34,2.13,2.13,0,0,1,0,.37,2.51,2.51,0,0,1-.37-.06l-.33-.1a3.31,3.31,0,0,1-.57-.27,3.58,3.58,0,0,1-.89-.75,3.5,3.5,0,0,1-.6-1,3.23,3.23,0,0,1-.18-.6,2.92,2.92,0,0,1,0-.34,2.4,2.4,0,0,1,0-.37"/><path class="cls-2" d="M123.3,21.06a2.34,2.34,0,0,1,.37,0H124a3.29,3.29,0,0,1,.62.09,3.58,3.58,0,0,1,1.06.46,3.53,3.53,0,0,1,.86.77,3.45,3.45,0,0,1,.34.53,3.06,3.06,0,0,1,.14.31,2.12,2.12,0,0,1,.11.36,2.28,2.28,0,0,1-.37,0h-.34a3.27,3.27,0,0,1-.62-.09,3.53,3.53,0,0,1-1.06-.46,3.63,3.63,0,0,1-.86-.78,3.39,3.39,0,0,1-.34-.53,2.93,2.93,0,0,1-.14-.31,2.51,2.51,0,0,1-.11-.36"/><path class="cls-2" d="M121.08,25.5a2.43,2.43,0,0,1,.34-.17l.32-.11a3.3,3.3,0,0,1,.62-.11,3.62,3.62,0,0,1,2.22.55,3.32,3.32,0,0,1,.49.39,2.79,2.79,0,0,1,.23.25,2.14,2.14,0,0,1,.22.3,2.06,2.06,0,0,1-.34.17l-.32.11a3.16,3.16,0,0,1-.62.11,3.46,3.46,0,0,1-1.16-.1,3.54,3.54,0,0,1-1.06-.46,3.3,3.3,0,0,1-.49-.39l-.23-.25a2.21,2.21,0,0,1-.22-.3"/><path class="cls-2" d="M129,20a2.28,2.28,0,0,1,.37.06l.33.1a3.4,3.4,0,0,1,.57.27,3.56,3.56,0,0,1,.89.75,3.49,3.49,0,0,1,.6,1,3.29,3.29,0,0,1,.18.6,2.82,2.82,0,0,1,0,.34,2.2,2.2,0,0,1,0,.38,2.28,2.28,0,0,1-.37-.06l-.33-.1a3.25,3.25,0,0,1-.57-.27,3.46,3.46,0,0,1-.88-.75,3.53,3.53,0,0,1-.6-1,3.3,3.3,0,0,1-.18-.6,3,3,0,0,1,0-.34,2.24,2.24,0,0,1,0-.37"/><path class="cls-2" d="M133,20a2.44,2.44,0,0,1,.32.2l.26.22a3.36,3.36,0,0,1,.42.47,3.52,3.52,0,0,1,.53,1,3.46,3.46,0,0,1,.18,1.15,3.15,3.15,0,0,1-.07.62,3,3,0,0,1-.09.33,2.24,2.24,0,0,1-.14.35,2.27,2.27,0,0,1-.32-.2l-.26-.22a3.25,3.25,0,0,1-.42-.46,3.52,3.52,0,0,1-.53-1,3.57,3.57,0,0,1-.17-1.15,3.18,3.18,0,0,1,.07-.62,3.24,3.24,0,0,1,.09-.33A2.34,2.34,0,0,1,133,20"/><path class="cls-2" d="M130.13,16.54a2.37,2.37,0,0,1,.34.16l.29.18a3.59,3.59,0,0,1,1.42,2.5,3.34,3.34,0,0,1,0,.63,3.22,3.22,0,0,1,0,.34,2.65,2.65,0,0,1-.1.36,2.27,2.27,0,0,1-.34-.16l-.29-.18a3.27,3.27,0,0,1-.47-.41,3.5,3.5,0,0,1-.64-1,3.55,3.55,0,0,1-.3-1.12,3.41,3.41,0,0,1,0-.63c0-.11,0-.22,0-.34a2.56,2.56,0,0,1,.1-.36"/><path class="cls-2" d="M133.31,14.93a2.48,2.48,0,0,1,.3.23l.24.24a3.28,3.28,0,0,1,.38.5,3.61,3.61,0,0,1,.51,2.23,3.44,3.44,0,0,1-.12.62c0,.11-.07.21-.12.32a2.57,2.57,0,0,1-.17.33,2.33,2.33,0,0,1-.3-.23l-.24-.24a3.47,3.47,0,0,1-.38-.5,3.63,3.63,0,0,1-.5-2.23,3.45,3.45,0,0,1,.12-.62,3.34,3.34,0,0,1,.12-.32,2.38,2.38,0,0,1,.17-.33"/><path class="cls-2" d="M124.86,24.4a2.31,2.31,0,0,1,.35-.13l.33-.07a3.24,3.24,0,0,1,.63,0,3.63,3.63,0,0,1,2.15.78,3.46,3.46,0,0,1,.45.44c.07.08.14.17.2.27a2.25,2.25,0,0,1,.19.33,2.14,2.14,0,0,1-.35.13l-.33.08a3.37,3.37,0,0,1-.62,0,3.62,3.62,0,0,1-2.15-.79,3.38,3.38,0,0,1-.45-.44l-.21-.27a2.39,2.39,0,0,1-.19-.32"/><path class="cls-2" d="M122.58,28.3a2.29,2.29,0,0,1,.3-.22l.3-.16a3.4,3.4,0,0,1,.59-.22,3.6,3.6,0,0,1,1.15-.11,3.54,3.54,0,0,1,1.13.26,3.3,3.3,0,0,1,.56.29l.27.2a2.36,2.36,0,0,1,.27.26,2.47,2.47,0,0,1-.3.22l-.3.17a3.27,3.27,0,0,1-.59.22,3.51,3.51,0,0,1-1.15.11,3.59,3.59,0,0,1-1.13-.26,3.43,3.43,0,0,1-.56-.29l-.27-.2a2.16,2.16,0,0,1-.27-.26"/><path class="cls-2" d="M128,23a2.26,2.26,0,0,1,.37,0l.34,0a3.37,3.37,0,0,1,.61.13,3.59,3.59,0,0,1,1,.52,3.54,3.54,0,0,1,.82.82,3.34,3.34,0,0,1,.31.54,3.07,3.07,0,0,1,.12.32,2.37,2.37,0,0,1,.09.36,2.14,2.14,0,0,1-.37,0l-.34,0a3.26,3.26,0,0,1-.61-.13,3.62,3.62,0,0,1-1.85-1.35,3.36,3.36,0,0,1-.31-.54,3.24,3.24,0,0,1-.12-.32A2.31,2.31,0,0,1,128,23"/><path class="cls-2" d="M126.86,27.25a2.1,2.1,0,0,1,.31-.2l.31-.14a3.34,3.34,0,0,1,.6-.18,3.59,3.59,0,0,1,1.16,0,3.53,3.53,0,0,1,1.11.33,3.29,3.29,0,0,1,.53.33l.26.22a2.12,2.12,0,0,1,.25.28,2.11,2.11,0,0,1-.32.2l-.31.15a3.27,3.27,0,0,1-.6.18,3.5,3.5,0,0,1-1.16,0,3.54,3.54,0,0,1-1.11-.34,3.31,3.31,0,0,1-.53-.33l-.26-.22a2.13,2.13,0,0,1-.25-.28"/><path class="cls-2" d="M125.74,18.74a2.11,2.11,0,0,1,.37.05l.33.09a3.27,3.27,0,0,1,.57.26,3.62,3.62,0,0,1,1.52,1.71,3.4,3.4,0,0,1,.19.6,2.75,2.75,0,0,1,.05.34,2.27,2.27,0,0,1,0,.37,2.24,2.24,0,0,1-.37-.05l-.33-.09a3.22,3.22,0,0,1-.57-.26A3.61,3.61,0,0,1,126,20a3.42,3.42,0,0,1-.19-.6,3,3,0,0,1-.05-.34,2.23,2.23,0,0,1,0-.37"/><path class="cls-2" d="M126.43,15.57a2.33,2.33,0,0,1,.36.09l.32.13a3.23,3.23,0,0,1,.54.32,3.59,3.59,0,0,1,.82.82,3.49,3.49,0,0,1,.51,1,3.18,3.18,0,0,1,.12.61,3.34,3.34,0,0,1,0,.34,2.28,2.28,0,0,1,0,.37,2.29,2.29,0,0,1-.36-.09l-.32-.13a3.41,3.41,0,0,1-.54-.32,3.6,3.6,0,0,1-1.33-1.86,3.28,3.28,0,0,1-.12-.61,2.48,2.48,0,0,1,0-.34,2.11,2.11,0,0,1,0-.37"/><path class="cls-2" d="M130,12.74a2.14,2.14,0,0,1,.34.15l.29.18a3.46,3.46,0,0,1,.48.4,3.58,3.58,0,0,1,.66.95,3.52,3.52,0,0,1,.33,1.11,3.24,3.24,0,0,1,0,.63,2.93,2.93,0,0,1,0,.34,2.3,2.3,0,0,1-.1.36,2.22,2.22,0,0,1-.34-.15l-.29-.18a3.39,3.39,0,0,1-.48-.4,3.62,3.62,0,0,1-1-2.06,3.39,3.39,0,0,1,0-.63,2.86,2.86,0,0,1,0-.34,2.28,2.28,0,0,1,.09-.36"/><path class="cls-2" d="M121.92,17.5a2.18,2.18,0,0,1,.37,0l.34.05a3.31,3.31,0,0,1,.6.18,3.6,3.6,0,0,1,1,.62,3.56,3.56,0,0,1,.74.89,3.34,3.34,0,0,1,.26.57,3,3,0,0,1,.09.33,2.41,2.41,0,0,1,.05.37,2.25,2.25,0,0,1-.38,0l-.34-.05a3.26,3.26,0,0,1-.6-.18,3.63,3.63,0,0,1-1.72-1.51,3.33,3.33,0,0,1-.26-.57c0-.1-.06-.21-.09-.33a2.4,2.4,0,0,1-.05-.37"/><path class="cls-2" d="M120,22.19a2.25,2.25,0,0,1,.35-.12l.33-.07a3.33,3.33,0,0,1,.63,0,3.61,3.61,0,0,1,2.13.82,3.38,3.38,0,0,1,.44.45l.2.27a2.19,2.19,0,0,1,.18.33,2.18,2.18,0,0,1-.35.12l-.33.07a3.24,3.24,0,0,1-.63,0,3.46,3.46,0,0,1-1.13-.24,3.55,3.55,0,0,1-1-.59,3.33,3.33,0,0,1-.44-.45c-.07-.09-.14-.18-.2-.28a2.4,2.4,0,0,1-.18-.33"/><path class="cls-2" d="M118.34,18.57a2.28,2.28,0,0,1,.37-.07l.34,0a3.29,3.29,0,0,1,.62.06,3.63,3.63,0,0,1,2,1.14,3.26,3.26,0,0,1,.37.51,3.32,3.32,0,0,1,.16.3,2.23,2.23,0,0,1,.13.35,2.22,2.22,0,0,1-.37.07l-.34,0a3.27,3.27,0,0,1-.62-.06,3.61,3.61,0,0,1-2-1.15,3.26,3.26,0,0,1-.37-.51,2.76,2.76,0,0,1-.15-.3,2.16,2.16,0,0,1-.13-.35"/><path class="cls-2" d="M122.82,14.1a2.25,2.25,0,0,1,.37.07l.32.11a3.32,3.32,0,0,1,.56.29,3.6,3.6,0,0,1,1.43,1.79,3.19,3.19,0,0,1,.16.61,3.13,3.13,0,0,1,0,.34,2,2,0,0,1,0,.37,2.34,2.34,0,0,1-.37-.07L125,17.5a3.41,3.41,0,0,1-.56-.29,3.48,3.48,0,0,1-.86-.78,3.56,3.56,0,0,1-.57-1,3.52,3.52,0,0,1-.16-.61c0-.11,0-.22,0-.34a2.12,2.12,0,0,1,0-.37"/><path class="cls-2" d="M126.61,11.42a2.26,2.26,0,0,1,.35.13l.3.15a3.26,3.26,0,0,1,.51.36,3.61,3.61,0,0,1,1.16,2,3.27,3.27,0,0,1,.07.62c0,.11,0,.22,0,.34a2.31,2.31,0,0,1-.07.37,2.18,2.18,0,0,1-.35-.12l-.3-.15a3.26,3.26,0,0,1-.51-.36,3.63,3.63,0,0,1-1.15-2,3.32,3.32,0,0,1-.07-.62c0-.11,0-.22,0-.34a2.24,2.24,0,0,1,.06-.37"/><path class="cls-2" d="M132.55,9.16a2.45,2.45,0,0,1,.28.25l.22.26a3.59,3.59,0,0,1,.67,2.79,3.13,3.13,0,0,1-.17.6,3.07,3.07,0,0,1-.14.31,2.29,2.29,0,0,1-.2.32,2.28,2.28,0,0,1-.28-.25l-.22-.26a3.5,3.5,0,0,1-.34-.53,3.56,3.56,0,0,1-.35-1.11,3.6,3.6,0,0,1,0-1.16,3.45,3.45,0,0,1,.17-.6c0-.1.09-.21.14-.31a2.43,2.43,0,0,1,.2-.32"/><path class="cls-2" d="M116,23.82a2.4,2.4,0,0,1,.33-.17l.32-.12a3.32,3.32,0,0,1,.61-.13,3.55,3.55,0,0,1,1.16.07,3.49,3.49,0,0,1,1.08.43,3.37,3.37,0,0,1,.5.38,2.9,2.9,0,0,1,.24.24,2.19,2.19,0,0,1,.23.3,2.19,2.19,0,0,1-.33.18l-.32.12a3.38,3.38,0,0,1-.61.13,3.51,3.51,0,0,1-1.16-.07,3.57,3.57,0,0,1-1.08-.43,3.36,3.36,0,0,1-.5-.38l-.24-.24a2.26,2.26,0,0,1-.23-.3"/><path class="cls-2" d="M117.31,27.31a2.11,2.11,0,0,1,.28-.25l.28-.19a3.53,3.53,0,0,1,.57-.27,3.6,3.6,0,0,1,1.14-.21,3.51,3.51,0,0,1,1.15.16,3.29,3.29,0,0,1,.57.25l.29.18a2.22,2.22,0,0,1,.29.24,2.14,2.14,0,0,1-.28.25l-.28.19a3.34,3.34,0,0,1-.57.27,3.61,3.61,0,0,1-2.29,0,3.25,3.25,0,0,1-.57-.25l-.29-.18a2.2,2.2,0,0,1-.29-.24"/><path class="cls-2" d="M150.59,25.5a2.57,2.57,0,0,0-.34-.17l-.32-.11a3.33,3.33,0,0,0-.62-.11,3.62,3.62,0,0,0-2.22.55,3.34,3.34,0,0,0-.49.39,2.83,2.83,0,0,0-.23.25,2.39,2.39,0,0,0-.22.3,2.11,2.11,0,0,0,.34.17l.32.11a3.15,3.15,0,0,0,.62.11,3.46,3.46,0,0,0,1.16-.1,3.51,3.51,0,0,0,1.07-.46,3.22,3.22,0,0,0,.49-.39l.24-.25a2.3,2.3,0,0,0,.22-.3"/><path class="cls-2" d="M152.87,29.44a2.44,2.44,0,0,0-.3-.23l-.3-.17a3.36,3.36,0,0,0-.58-.22,3.61,3.61,0,0,0-2.29.13,3.27,3.27,0,0,0-.56.29l-.28.2a2.13,2.13,0,0,0-.27.26,2.23,2.23,0,0,0,.3.23l.3.17a3.25,3.25,0,0,0,.58.22,3.62,3.62,0,0,0,2.29-.13,3.4,3.4,0,0,0,.56-.29l.27-.2a2.22,2.22,0,0,0,.27-.26"/><path class="cls-2" d="M149.09,28.3a2.4,2.4,0,0,0-.3-.22l-.3-.16a3.4,3.4,0,0,0-.59-.22,3.6,3.6,0,0,0-1.15-.11,3.53,3.53,0,0,0-1.13.26,3.14,3.14,0,0,0-.55.29l-.27.2a2.17,2.17,0,0,0-.27.26,2.26,2.26,0,0,0,.3.22l.3.17a3.29,3.29,0,0,0,.59.22,3.5,3.5,0,0,0,1.15.11,3.6,3.6,0,0,0,1.13-.26,3.41,3.41,0,0,0,.55-.29l.27-.2a2.45,2.45,0,0,0,.27-.26"/><path class="cls-2" d="M144.81,27.25a2.29,2.29,0,0,0-.32-.2l-.31-.14a3.32,3.32,0,0,0-.6-.18,3.58,3.58,0,0,0-1.16,0,3.52,3.52,0,0,0-1.11.33,3.31,3.31,0,0,0-.53.33l-.26.22a2.23,2.23,0,0,0-.25.28,2.06,2.06,0,0,0,.31.2l.31.15a3.25,3.25,0,0,0,.6.18,3.49,3.49,0,0,0,1.16,0,3.56,3.56,0,0,0,1.11-.34,3.25,3.25,0,0,0,.53-.33l.26-.22a2.17,2.17,0,0,0,.25-.28"/><path class="cls-2" d="M153.33,18.57a2.3,2.3,0,0,0-.37-.07l-.34,0a3.28,3.28,0,0,0-.62.06,3.59,3.59,0,0,0-1.09.41,3.51,3.51,0,0,0-.9.73,3.35,3.35,0,0,0-.37.51,3.2,3.2,0,0,0-.16.3,2.35,2.35,0,0,0-.13.35,2.25,2.25,0,0,0,.37.07l.34,0a3.31,3.31,0,0,0,.62-.06,3.51,3.51,0,0,0,1.08-.41,3.55,3.55,0,0,0,.9-.73,3.35,3.35,0,0,0,.37-.51,3.26,3.26,0,0,0,.15-.3,2.25,2.25,0,0,0,.13-.35"/><path class="cls-2" d="M148.84,14.1a2.26,2.26,0,0,0-.37.07l-.32.11a3.34,3.34,0,0,0-.56.29,3.61,3.61,0,0,0-1.43,1.79A3.26,3.26,0,0,0,146,17a3.23,3.23,0,0,0,0,.34,2,2,0,0,0,0,.37,2.26,2.26,0,0,0,.37-.07l.32-.11a3.35,3.35,0,0,0,.56-.29,3.5,3.5,0,0,0,1.58-2.4c0-.11,0-.22,0-.34a2.26,2.26,0,0,0,0-.37"/><path class="cls-2" d="M145.06,11.42a2.38,2.38,0,0,0-.35.13l-.3.15a3.25,3.25,0,0,0-.51.36,3.55,3.55,0,0,0-.74.89,3.5,3.5,0,0,0-.42,1.08,3.24,3.24,0,0,0-.07.62,3,3,0,0,0,0,.34,2.29,2.29,0,0,0,.07.37,2.25,2.25,0,0,0,.35-.12l.3-.15a3.3,3.3,0,0,0,.51-.36,3.62,3.62,0,0,0,1.15-2,3.37,3.37,0,0,0,.07-.62,3.19,3.19,0,0,0,0-.34,2.17,2.17,0,0,0-.06-.37"/><path class="cls-2" d="M139.12,9.16a2.4,2.4,0,0,0-.28.25,3.13,3.13,0,0,0-.22.26,3.46,3.46,0,0,0-.34.53,3.57,3.57,0,0,0-.35,1.11,3.48,3.48,0,0,0,0,1.16,3.2,3.2,0,0,0,.31.91,2.34,2.34,0,0,0,.2.32,2.18,2.18,0,0,0,.28-.25,3.18,3.18,0,0,0,.22-.26,3.47,3.47,0,0,0,.34-.53,3.63,3.63,0,0,0,.33-2.26,3.33,3.33,0,0,0-.17-.6,3.11,3.11,0,0,0-.14-.31,2.13,2.13,0,0,0-.2-.32"/><path class="cls-2" d="M155.7,23.82a2.45,2.45,0,0,0-.33-.17l-.32-.12a3.34,3.34,0,0,0-.62-.13,3.56,3.56,0,0,0-1.16.07,3.47,3.47,0,0,0-1.08.43,3.34,3.34,0,0,0-.5.38l-.24.24a2.3,2.3,0,0,0-.23.3,2.21,2.21,0,0,0,.33.18l.32.12a3.37,3.37,0,0,0,.61.13,3.52,3.52,0,0,0,1.16-.07,3.59,3.59,0,0,0,1.08-.43,3.44,3.44,0,0,0,.5-.38l.24-.24a2.34,2.34,0,0,0,.23-.3"/><path class="cls-2" d="M154.35,27.31a2.13,2.13,0,0,0-.28-.25l-.28-.19a3.41,3.41,0,0,0-.57-.27,3.6,3.6,0,0,0-1.14-.21,3.49,3.49,0,0,0-1.14.16,3.32,3.32,0,0,0-.58.25l-.29.18a2.19,2.19,0,0,0-.29.24,2.31,2.31,0,0,0,.28.25l.28.19a3.41,3.41,0,0,0,.57.27,3.62,3.62,0,0,0,2.29,0,3.24,3.24,0,0,0,.57-.25l.29-.18a2.46,2.46,0,0,0,.29-.24"/><path class="cls-2" d="M158,29.26a2.16,2.16,0,0,0-.29-.23l-.29-.18a3.14,3.14,0,0,0-.58-.24,3.61,3.61,0,0,0-2.29.06,3.24,3.24,0,0,0-.57.27l-.28.19a2.35,2.35,0,0,0-.28.25,2.32,2.32,0,0,0,.29.24l.29.18a3.33,3.33,0,0,0,.58.24,3.49,3.49,0,0,0,1.15.15,3.55,3.55,0,0,0,1.14-.22,3.39,3.39,0,0,0,.57-.27l.28-.19a2.4,2.4,0,0,0,.28-.25"/><path class="cls-2" d="M129.69,29.45a2.45,2.45,0,0,1,.3-.23l.3-.17a3.31,3.31,0,0,1,.58-.23,3.61,3.61,0,0,1,2.28.12,3.39,3.39,0,0,1,.56.29l.28.2a2.23,2.23,0,0,1,.27.26,2.19,2.19,0,0,1-.3.23l-.3.17a3.34,3.34,0,0,1-.58.23,3.61,3.61,0,0,1-2.29-.13,3.47,3.47,0,0,1-.56-.29l-.27-.2a2.43,2.43,0,0,1-.27-.26"/><path class="cls-2" d="M118.79,29.44a2.46,2.46,0,0,1,.3-.23l.3-.17a3.41,3.41,0,0,1,.59-.22,3.61,3.61,0,0,1,2.29.13,3.32,3.32,0,0,1,.56.29l.27.2a2.2,2.2,0,0,1,.27.26,2.16,2.16,0,0,1-.3.23l-.3.17a3.22,3.22,0,0,1-.58.22,3.61,3.61,0,0,1-2.28-.13,3.41,3.41,0,0,1-.56-.29l-.28-.2a2.3,2.3,0,0,1-.27-.26"/><path class="cls-2" d="M113.63,29.26a2.22,2.22,0,0,1,.29-.23l.29-.18a3.12,3.12,0,0,1,.58-.24,3.61,3.61,0,0,1,2.29.06,3.2,3.2,0,0,1,.56.27l.28.19a2.35,2.35,0,0,1,.28.25,2.33,2.33,0,0,1-.29.24l-.29.18A3.34,3.34,0,0,1,117,30a3.49,3.49,0,0,1-1.15.15,3.55,3.55,0,0,1-1.14-.22,3.31,3.31,0,0,1-.57-.27l-.28-.19a2.33,2.33,0,0,1-.28-.25"/><path class="cls-2" d="M135.83,36.47a2.6,2.6,0,0,0,.24-.29,3,3,0,0,0,.18-.29,3.39,3.39,0,0,0,.26-.57,3.57,3.57,0,0,0,.19-1.14,3.5,3.5,0,0,0-.19-1.14,3.22,3.22,0,0,0-.26-.57,3.31,3.31,0,0,0-.18-.29,2.58,2.58,0,0,0-.24-.29,2.31,2.31,0,0,0-.24.29,2.8,2.8,0,0,0-.18.29,3.25,3.25,0,0,0-.26.57,3.5,3.5,0,0,0-.19,1.14,3.62,3.62,0,0,0,.19,1.14,3.4,3.4,0,0,0,.26.57,3.27,3.27,0,0,0,.18.29,2.47,2.47,0,0,0,.24.29"/><path class="cls-2" d="M135.83,41.69a2.49,2.49,0,0,0,.24-.29,2.86,2.86,0,0,0,.18-.29,3.32,3.32,0,0,0,.26-.57,3.57,3.57,0,0,0,.19-1.14,3.49,3.49,0,0,0-.19-1.14,3.16,3.16,0,0,0-.26-.57,3.28,3.28,0,0,0-.18-.29,2.46,2.46,0,0,0-.24-.29,2.21,2.21,0,0,0-.24.29,2.79,2.79,0,0,0-.18.29,3.19,3.19,0,0,0-.26.57A3.49,3.49,0,0,0,135,39.4a3.61,3.61,0,0,0,.19,1.14,3.33,3.33,0,0,0,.26.57,3.13,3.13,0,0,0,.18.29,2.37,2.37,0,0,0,.24.29"/><path class="cls-2" d="M139.6,35.05a2.2,2.2,0,0,1-.37-.06l-.32-.1a3.4,3.4,0,0,1-.57-.27,3.56,3.56,0,0,1-.89-.75,3.49,3.49,0,0,1-.61-1,3.19,3.19,0,0,1-.18-.6,3,3,0,0,1,0-.34,2.07,2.07,0,0,1,0-.37,2.18,2.18,0,0,1,.37.06l.33.1a3.33,3.33,0,0,1,.57.27,3.6,3.6,0,0,1,1.49,1.74,3.18,3.18,0,0,1,.18.6,2.91,2.91,0,0,1,0,.34,2.49,2.49,0,0,1,0,.38"/><path class="cls-2" d="M148.4,38.31a2.29,2.29,0,0,1-.37,0h-.34a3.32,3.32,0,0,1-.62-.09A3.61,3.61,0,0,1,145.14,37a3.34,3.34,0,0,1-.34-.53,3.06,3.06,0,0,1-.14-.31,2,2,0,0,1-.11-.36,2.06,2.06,0,0,1,.37,0h.34a3.2,3.2,0,0,1,.62.09,3.61,3.61,0,0,1,1.92,1.24,3.19,3.19,0,0,1,.34.53,2.83,2.83,0,0,1,.14.31,2.24,2.24,0,0,1,.11.36"/><path class="cls-2" d="M142.67,39.4a2.24,2.24,0,0,1-.37-.06l-.32-.1a3.37,3.37,0,0,1-.57-.27,3.55,3.55,0,0,1-.89-.75,3.4,3.4,0,0,1-.78-1.59,3,3,0,0,1,0-.34,2.35,2.35,0,0,1,0-.38,2.22,2.22,0,0,1,.37.06l.33.1a3.13,3.13,0,0,1,.57.27,3.53,3.53,0,0,1,.89.75,3.63,3.63,0,0,1,.6,1,3.41,3.41,0,0,1,.18.6,3.1,3.1,0,0,1,0,.34,2.22,2.22,0,0,1,0,.37"/><path class="cls-2" d="M138.75,39.4a2,2,0,0,1-.32-.2l-.26-.21a3.35,3.35,0,0,1-.42-.47,3.6,3.6,0,0,1-.7-2.18,3.2,3.2,0,0,1,.07-.62,3,3,0,0,1,.09-.33,2.27,2.27,0,0,1,.14-.35,2.13,2.13,0,0,1,.32.2l.26.21a3.4,3.4,0,0,1,.95,1.5,3.52,3.52,0,0,1,.17,1.15,3.33,3.33,0,0,1-.07.62,3.16,3.16,0,0,1-.09.33,2.29,2.29,0,0,1-.14.35"/><path class="cls-2" d="M141.56,42.83a2.29,2.29,0,0,1-.34-.16l-.28-.18a3.43,3.43,0,0,1-.47-.41,3.58,3.58,0,0,1-.64-1,3.55,3.55,0,0,1-.3-1.12,3.19,3.19,0,0,1,0-.63c0-.11,0-.22,0-.34a2.45,2.45,0,0,1,.1-.36,2.2,2.2,0,0,1,.34.16l.28.18a3.19,3.19,0,0,1,.47.41,3.52,3.52,0,0,1,.64,1,3.59,3.59,0,0,1,.3,1.12,3.26,3.26,0,0,1,0,.63,2.69,2.69,0,0,1,0,.34,2.31,2.31,0,0,1-.1.36"/><path class="cls-2" d="M138.39,44.44a2.23,2.23,0,0,1-.3-.23l-.24-.24a3.37,3.37,0,0,1-.38-.5,3.63,3.63,0,0,1-.51-2.23,3.29,3.29,0,0,1,.12-.61c0-.11.07-.21.12-.32a2,2,0,0,1,.17-.33,2.23,2.23,0,0,1,.3.23l.24.24a3.23,3.23,0,0,1,.38.5,3.54,3.54,0,0,1,.43,1.08,3.59,3.59,0,0,1,.07,1.16,3.3,3.3,0,0,1-.12.62,3.12,3.12,0,0,1-.12.32,2.27,2.27,0,0,1-.17.33"/><path class="cls-2" d="M146.84,35a2.51,2.51,0,0,1-.35.13l-.33.07a3.37,3.37,0,0,1-.62,0,3.63,3.63,0,0,1-2.15-.78,3.31,3.31,0,0,1-.45-.44,2.71,2.71,0,0,1-.21-.27,2,2,0,0,1-.19-.33,2.29,2.29,0,0,1,.35-.13l.33-.08a3.35,3.35,0,0,1,.62,0,3.51,3.51,0,0,1,1.14.22,3.55,3.55,0,0,1,1,.57,3.3,3.3,0,0,1,.45.44,2.84,2.84,0,0,1,.21.27,2.25,2.25,0,0,1,.19.33"/><path class="cls-2" d="M143.68,36.4a2.66,2.66,0,0,1-.37,0l-.34,0a3.35,3.35,0,0,1-.61-.13,3.56,3.56,0,0,1-1-.52,3.44,3.44,0,0,1-.82-.82,3.21,3.21,0,0,1-.31-.55,3.1,3.1,0,0,1-.12-.32,2.29,2.29,0,0,1-.09-.37,2.37,2.37,0,0,1,.38,0l.34,0a3.39,3.39,0,0,1,.61.13,3.63,3.63,0,0,1,1.85,1.35,3.38,3.38,0,0,1,.31.54c0,.1.09.21.12.32a2.49,2.49,0,0,1,.09.36"/><path class="cls-2" d="M146,40.63a2.23,2.23,0,0,1-.37-.05l-.33-.09a3.36,3.36,0,0,1-.57-.25,3.58,3.58,0,0,1-.9-.73,3.46,3.46,0,0,1-.62-1,3.28,3.28,0,0,1-.19-.6,3.07,3.07,0,0,1-.05-.34,2.1,2.1,0,0,1,0-.38,2.1,2.1,0,0,1,.37.05l.33.09a3.22,3.22,0,0,1,.57.26,3.53,3.53,0,0,1,.9.73,3.61,3.61,0,0,1,.62,1,3.37,3.37,0,0,1,.19.6,3.24,3.24,0,0,1,.05.34,2.44,2.44,0,0,1,0,.37"/><path class="cls-2" d="M145.26,43.8a2.29,2.29,0,0,1-.36-.09l-.32-.13a3.44,3.44,0,0,1-.54-.32,3.61,3.61,0,0,1-1.33-1.86,3.29,3.29,0,0,1-.12-.62,3.35,3.35,0,0,1,0-.34,2.28,2.28,0,0,1,0-.37,2.31,2.31,0,0,1,.36.09l.32.13a3.38,3.38,0,0,1,.54.32,3.53,3.53,0,0,1,.82.82,3.58,3.58,0,0,1,.51,1,3.26,3.26,0,0,1,.12.62,2.9,2.9,0,0,1,0,.34,2.14,2.14,0,0,1,0,.37"/><path class="cls-2" d="M141.69,46.63a2.37,2.37,0,0,1-.34-.15l-.29-.18a3.39,3.39,0,0,1-.48-.4,3.63,3.63,0,0,1-1-2.06,3.39,3.39,0,0,1,0-.63,3.33,3.33,0,0,1,0-.34,2.38,2.38,0,0,1,.09-.36,2.36,2.36,0,0,1,.34.15l.29.18a3.42,3.42,0,0,1,.48.4,3.63,3.63,0,0,1,1,2.06,3.47,3.47,0,0,1,0,.63,3.35,3.35,0,0,1,0,.34,2.27,2.27,0,0,1-.09.36"/><path class="cls-2" d="M136,47a2.23,2.23,0,0,1-.26-.27,2.74,2.74,0,0,1-.2-.27,3.2,3.2,0,0,1-.3-.55,3.63,3.63,0,0,1-.17-2.28,3.38,3.38,0,0,1,.22-.59,3.18,3.18,0,0,1,.16-.3,2.36,2.36,0,0,1,.22-.3,2,2,0,0,1,.26.27,3.17,3.17,0,0,1,.21.27,3.49,3.49,0,0,1,.3.55,3.62,3.62,0,0,1,.16,2.28,3.15,3.15,0,0,1-.21.59c0,.1-.1.2-.16.3a2.33,2.33,0,0,1-.22.3"/><path class="cls-2" d="M149.78,41.87a2.24,2.24,0,0,1-.38,0l-.33-.05a3.36,3.36,0,0,1-.6-.19,3.63,3.63,0,0,1-1.72-1.51,3.22,3.22,0,0,1-.26-.57,3,3,0,0,1-.1-.33,2.33,2.33,0,0,1-.05-.37,2.32,2.32,0,0,1,.37,0l.34.05a3.27,3.27,0,0,1,.6.18,3.47,3.47,0,0,1,1,.62,3.56,3.56,0,0,1,.74.9,3.38,3.38,0,0,1,.26.57,3.3,3.3,0,0,1,.09.33,2.19,2.19,0,0,1,.05.37"/><path class="cls-2" d="M151.71,37.18a2.33,2.33,0,0,1-.35.12l-.33.07a3.29,3.29,0,0,1-.63,0,3.57,3.57,0,0,1-1.13-.24,3.51,3.51,0,0,1-1-.59,3.46,3.46,0,0,1-.44-.45,3.31,3.31,0,0,1-.2-.28,2.12,2.12,0,0,1-.18-.33,1.93,1.93,0,0,1,.36-.12l.33-.07a3.24,3.24,0,0,1,.63,0,3.62,3.62,0,0,1,2.13.83,3.47,3.47,0,0,1,.44.45l.2.27a2.14,2.14,0,0,1,.18.33"/><path class="cls-2" d="M132.09,35.05a2.17,2.17,0,0,0,.37-.06l.33-.1a3.47,3.47,0,0,0,.57-.27,3.62,3.62,0,0,0,1.49-1.74,3.11,3.11,0,0,0,.18-.6,3.21,3.21,0,0,0,0-.34,2.13,2.13,0,0,0,0-.37,2.28,2.28,0,0,0-.37.06l-.33.1a3.38,3.38,0,0,0-.57.27,3.56,3.56,0,0,0-.89.75,3.51,3.51,0,0,0-.6,1,3.24,3.24,0,0,0-.18.6,2.91,2.91,0,0,0,0,.34,2.41,2.41,0,0,0,0,.38"/><path class="cls-2" d="M123.3,38.31a2.35,2.35,0,0,0,.37,0H124a3.33,3.33,0,0,0,.62-.09A3.62,3.62,0,0,0,126.56,37a3.48,3.48,0,0,0,.34-.53,3.18,3.18,0,0,0,.14-.31,2.11,2.11,0,0,0,.11-.36,2.12,2.12,0,0,0-.37,0h-.34a3.22,3.22,0,0,0-.62.09,3.49,3.49,0,0,0-1.06.46,3.62,3.62,0,0,0-.86.77,3.37,3.37,0,0,0-.34.53,3.05,3.05,0,0,0-.14.31,2.57,2.57,0,0,0-.11.36"/><path class="cls-2" d="M121.08,33.86a2.19,2.19,0,0,0,.34.17l.32.11a3.32,3.32,0,0,0,.62.11,3.6,3.6,0,0,0,1.16-.09,3.54,3.54,0,0,0,1.07-.45,3.32,3.32,0,0,0,.49-.39l.23-.25a2.16,2.16,0,0,0,.22-.3,2.12,2.12,0,0,0-.34-.17l-.32-.11a3.31,3.31,0,0,0-.62-.11,3.5,3.5,0,0,0-1.16.1,3.6,3.6,0,0,0-1.06.46,3.29,3.29,0,0,0-.49.39l-.23.25a2.18,2.18,0,0,0-.22.3"/><path class="cls-2" d="M129,39.4a2.23,2.23,0,0,0,.37-.06l.33-.1a3.34,3.34,0,0,0,.57-.27,3.56,3.56,0,0,0,.89-.75,3.48,3.48,0,0,0,.6-1,3.21,3.21,0,0,0,.18-.6,2.8,2.8,0,0,0,0-.34,2.21,2.21,0,0,0,0-.38,2.25,2.25,0,0,0-.37.06l-.33.1a3.09,3.09,0,0,0-.57.27,3.45,3.45,0,0,0-.88.75,3.52,3.52,0,0,0-.6,1,3.28,3.28,0,0,0-.18.6,2.88,2.88,0,0,0,0,.34,2.24,2.24,0,0,0,0,.37"/><path class="cls-2" d="M133,39.4a2.27,2.27,0,0,0,.32-.2l.26-.21a3.3,3.3,0,0,0,.42-.47,3.53,3.53,0,0,0,.53-1,3.46,3.46,0,0,0,.18-1.15,3.14,3.14,0,0,0-.07-.62,3,3,0,0,0-.09-.33,2.23,2.23,0,0,0-.14-.35,2,2,0,0,0-.32.2l-.26.21a3.29,3.29,0,0,0-.42.47,3.52,3.52,0,0,0-.53,1,3.57,3.57,0,0,0-.17,1.15,3.18,3.18,0,0,0,.07.62,3.25,3.25,0,0,0,.09.33,2.34,2.34,0,0,0,.14.35"/><path class="cls-2" d="M130.13,42.83a2.26,2.26,0,0,0,.34-.16l.29-.18a3.43,3.43,0,0,0,.47-.41,3.63,3.63,0,0,0,.95-2.08,3.33,3.33,0,0,0,0-.63,3.3,3.3,0,0,0,0-.34,2.69,2.69,0,0,0-.1-.36,2.13,2.13,0,0,0-.34.16l-.29.18a3.24,3.24,0,0,0-.47.41,3.5,3.5,0,0,0-.64,1,3.55,3.55,0,0,0-.3,1.12,3.41,3.41,0,0,0,0,.63c0,.11,0,.22,0,.34a2.48,2.48,0,0,0,.1.36"/><path class="cls-2" d="M133.31,44.44a2.21,2.21,0,0,0,.3-.23l.24-.24a3.35,3.35,0,0,0,.38-.5,3.61,3.61,0,0,0,.51-2.23,3.45,3.45,0,0,0-.12-.61c0-.11-.07-.21-.12-.32a2.52,2.52,0,0,0-.17-.33,2.32,2.32,0,0,0-.3.23l-.24.24a3.41,3.41,0,0,0-.38.5A3.54,3.54,0,0,0,133,42a3.58,3.58,0,0,0-.07,1.16,3.46,3.46,0,0,0,.12.62c0,.1.07.21.12.32a2.43,2.43,0,0,0,.17.33"/><path class="cls-2" d="M124.86,35a2.43,2.43,0,0,0,.35.13l.33.07a3.39,3.39,0,0,0,.63,0,3.63,3.63,0,0,0,2.15-.78,3.44,3.44,0,0,0,.45-.44,3.3,3.3,0,0,0,.2-.27,2.09,2.09,0,0,0,.19-.33,2.33,2.33,0,0,0-.35-.13l-.33-.08a3.38,3.38,0,0,0-.62,0,3.53,3.53,0,0,0-1.14.22,3.59,3.59,0,0,0-1,.57,3.37,3.37,0,0,0-.45.44l-.21.27a2.32,2.32,0,0,0-.19.33"/><path class="cls-2" d="M122.58,31.07a2.42,2.42,0,0,0,.3.22l.3.17a3.47,3.47,0,0,0,.59.22,3.56,3.56,0,0,0,1.15.11,3.49,3.49,0,0,0,1.13-.26,3.29,3.29,0,0,0,.56-.29l.27-.2a2.3,2.3,0,0,0,.27-.26,2.4,2.4,0,0,0-.3-.22l-.3-.17a3.4,3.4,0,0,0-.59-.22,3.61,3.61,0,0,0-2.28.15,3.28,3.28,0,0,0-.56.29l-.27.2a2.14,2.14,0,0,0-.27.26"/><path class="cls-2" d="M128,36.4a2.67,2.67,0,0,0,.37,0l.34,0a3.38,3.38,0,0,0,.61-.13,3.57,3.57,0,0,0,1-.52,3.49,3.49,0,0,0,.82-.82,3.28,3.28,0,0,0,.31-.55,3,3,0,0,0,.12-.32,2.36,2.36,0,0,0,.09-.37,2.35,2.35,0,0,0-.37,0l-.34,0a3.38,3.38,0,0,0-.61.13,3.52,3.52,0,0,0-1,.52,3.48,3.48,0,0,0-.82.82,3.32,3.32,0,0,0-.31.54,3.17,3.17,0,0,0-.12.32,2.28,2.28,0,0,0-.09.36"/><path class="cls-2" d="M126.86,32.12a2.17,2.17,0,0,0,.31.2l.31.14a3.34,3.34,0,0,0,.6.18,3.62,3.62,0,0,0,2.27-.3,3.22,3.22,0,0,0,.53-.33l.26-.22a2.14,2.14,0,0,0,.25-.28,2.17,2.17,0,0,0-.32-.2l-.31-.14a3.28,3.28,0,0,0-.6-.18,3.61,3.61,0,0,0-2.27.31,3.23,3.23,0,0,0-.53.33l-.26.22a2.15,2.15,0,0,0-.25.28"/><path class="cls-2" d="M125.74,40.63a2.21,2.21,0,0,0,.37-.05l.33-.09a3.28,3.28,0,0,0,.57-.25,3.62,3.62,0,0,0,1.52-1.71,3.41,3.41,0,0,0,.19-.6,2.85,2.85,0,0,0,.05-.34,2.28,2.28,0,0,0,0-.38,2.08,2.08,0,0,0-.37.05l-.33.09a3.22,3.22,0,0,0-.57.26A3.6,3.6,0,0,0,126,39.32a3.47,3.47,0,0,0-.19.6,3.09,3.09,0,0,0-.05.34,2.23,2.23,0,0,0,0,.37"/><path class="cls-2" d="M126.43,43.8a2.25,2.25,0,0,0,.36-.09l.32-.13a3.34,3.34,0,0,0,.54-.32A3.61,3.61,0,0,0,129,41.41a3.19,3.19,0,0,0,.12-.62,3.35,3.35,0,0,0,0-.34,2.29,2.29,0,0,0,0-.37,2.29,2.29,0,0,0-.36.09l-.32.13a3.36,3.36,0,0,0-.54.32,3.51,3.51,0,0,0-.82.82,3.55,3.55,0,0,0-.51,1,3.29,3.29,0,0,0-.12.62,2.47,2.47,0,0,0,0,.34,2.1,2.1,0,0,0,0,.37"/><path class="cls-2" d="M130,46.63a2.3,2.3,0,0,0,.34-.15l.29-.18a3.55,3.55,0,0,0,.48-.4,3.6,3.6,0,0,0,.66-.95,3.53,3.53,0,0,0,.33-1.11,3.26,3.26,0,0,0,0-.63,2.9,2.9,0,0,0,0-.34,2.26,2.26,0,0,0-.1-.36,2.27,2.27,0,0,0-.34.15l-.29.18a3.46,3.46,0,0,0-.48.4,3.53,3.53,0,0,0-.66,1,3.48,3.48,0,0,0-.33,1.11,3.37,3.37,0,0,0,0,.63,2.9,2.9,0,0,0,0,.34,2.33,2.33,0,0,0,.09.36"/><path class="cls-2" d="M121.92,41.87a2.22,2.22,0,0,0,.37,0l.34-.05a3.42,3.42,0,0,0,.6-.19,3.61,3.61,0,0,0,1-.62,3.55,3.55,0,0,0,.74-.89,3.42,3.42,0,0,0,.26-.57,2.8,2.8,0,0,0,.09-.33,2.46,2.46,0,0,0,.05-.37,2.33,2.33,0,0,0-.38,0l-.34.05a3.22,3.22,0,0,0-.6.18,3.47,3.47,0,0,0-1,.62,3.55,3.55,0,0,0-.74.9,3.34,3.34,0,0,0-.26.57c0,.1-.06.21-.09.33a2.42,2.42,0,0,0-.05.37"/><path class="cls-2" d="M120,37.18a2.31,2.31,0,0,0,.35.12l.33.07a3.3,3.3,0,0,0,.63,0,3.62,3.62,0,0,0,2.13-.82,3.49,3.49,0,0,0,.44-.45,3.35,3.35,0,0,0,.2-.28,2.18,2.18,0,0,0,.18-.33,2,2,0,0,0-.35-.12l-.33-.07a3.21,3.21,0,0,0-.63,0,3.5,3.5,0,0,0-1.13.24,3.57,3.57,0,0,0-1,.59,3.4,3.4,0,0,0-.44.45c-.07.09-.14.18-.2.27a2.39,2.39,0,0,0-.18.33"/><path class="cls-2" d="M118.34,40.8a2.24,2.24,0,0,0,.37.07l.34,0a3.31,3.31,0,0,0,.62-.06,3.62,3.62,0,0,0,2-1.14,3.21,3.21,0,0,0,.37-.51,3.38,3.38,0,0,0,.16-.3,2.25,2.25,0,0,0,.13-.35,2.36,2.36,0,0,0-.37-.07l-.34,0a3.22,3.22,0,0,0-.62.06,3.62,3.62,0,0,0-2,1.15,3.45,3.45,0,0,0-.37.51,2.71,2.71,0,0,0-.15.3,2.17,2.17,0,0,0-.13.35"/><path class="cls-2" d="M122.82,45.27a2.34,2.34,0,0,0,.37-.07l.32-.11a3.27,3.27,0,0,0,.56-.29A3.61,3.61,0,0,0,125.5,43a3.17,3.17,0,0,0,.16-.61,3.11,3.11,0,0,0,0-.34,2,2,0,0,0,0-.37,2.32,2.32,0,0,0-.37.07l-.32.11a3.47,3.47,0,0,0-.56.29,3.52,3.52,0,0,0-.86.78,3.43,3.43,0,0,0-.73,1.62c0,.11,0,.22,0,.34a2.13,2.13,0,0,0,0,.38"/><path class="cls-2" d="M126.61,47.95a1.92,1.92,0,0,0,.35-.13l.3-.15a3.19,3.19,0,0,0,.51-.36,3.59,3.59,0,0,0,1.16-2,3.27,3.27,0,0,0,.07-.62c0-.11,0-.22,0-.34a2.26,2.26,0,0,0-.07-.37,2.27,2.27,0,0,0-.35.12l-.3.15a3.25,3.25,0,0,0-.51.36,3.47,3.47,0,0,0-.74.89,3.55,3.55,0,0,0-.42,1.08,3.32,3.32,0,0,0-.07.62c0,.11,0,.22,0,.34a2.22,2.22,0,0,0,.06.37"/><path class="cls-2" d="M132.55,50.21a2.46,2.46,0,0,0,.28-.25l.22-.26a3.59,3.59,0,0,0,.67-2.79,3.17,3.17,0,0,0-.31-.91,2.52,2.52,0,0,0-.2-.32,2.25,2.25,0,0,0-.28.25,3.06,3.06,0,0,0-.22.26,3.55,3.55,0,0,0-.34.53A3.62,3.62,0,0,0,132,49a3.47,3.47,0,0,0,.17.6q.06.15.14.31a2.35,2.35,0,0,0,.2.32"/><path class="cls-2" d="M116,35.55a2.51,2.51,0,0,0,.33.18l.32.12a3.3,3.3,0,0,0,.61.13,3.57,3.57,0,0,0,1.16-.06,3.53,3.53,0,0,0,1.08-.43,3.31,3.31,0,0,0,.5-.38,2.93,2.93,0,0,0,.24-.24,2.32,2.32,0,0,0,.23-.3,2.08,2.08,0,0,0-.33-.18l-.32-.12a3.35,3.35,0,0,0-.61-.13,3.5,3.5,0,0,0-1.16.07,3.56,3.56,0,0,0-1.08.43,3.35,3.35,0,0,0-.5.37l-.24.24a2.37,2.37,0,0,0-.23.3"/><path class="cls-2" d="M117.31,32.06a2.17,2.17,0,0,0,.28.25l.28.19a3.46,3.46,0,0,0,.57.27,3.57,3.57,0,0,0,1.14.21,3.49,3.49,0,0,0,1.15-.16,3.19,3.19,0,0,0,.57-.25l.29-.18a2.27,2.27,0,0,0,.29-.24,2.16,2.16,0,0,0-.28-.25l-.28-.19a3.3,3.3,0,0,0-.57-.27,3.51,3.51,0,0,0-1.14-.2,3.58,3.58,0,0,0-1.15.17,3.39,3.39,0,0,0-.57.25l-.29.18a2.24,2.24,0,0,0-.29.24"/><path class="cls-2" d="M150.59,33.86a2.3,2.3,0,0,1-.34.17l-.32.11a3.35,3.35,0,0,1-.62.11,3.6,3.6,0,0,1-1.16-.09,3.55,3.55,0,0,1-1.07-.45,3.35,3.35,0,0,1-.49-.39,2.93,2.93,0,0,1-.23-.25,2.41,2.41,0,0,1-.22-.3,2.17,2.17,0,0,1,.34-.17l.32-.11a3.29,3.29,0,0,1,.62-.11,3.51,3.51,0,0,1,1.16.1,3.57,3.57,0,0,1,1.07.46,3.21,3.21,0,0,1,.49.39l.24.25a2.28,2.28,0,0,1,.22.3"/><path class="cls-2" d="M149.09,31.07a2.54,2.54,0,0,1-.3.22l-.3.17a3.46,3.46,0,0,1-.59.22,3.57,3.57,0,0,1-1.15.11,3.47,3.47,0,0,1-1.13-.26,3.13,3.13,0,0,1-.55-.29l-.27-.2a2.12,2.12,0,0,1-.27-.26,2.21,2.21,0,0,1,.3-.22l.3-.17a3.42,3.42,0,0,1,.59-.22,3.62,3.62,0,0,1,2.28.15,3.26,3.26,0,0,1,.55.29l.27.2a2.43,2.43,0,0,1,.27.26"/><path class="cls-2" d="M144.81,32.12a2.38,2.38,0,0,1-.32.2l-.31.14a3.32,3.32,0,0,1-.6.18,3.62,3.62,0,0,1-2.27-.3,3.25,3.25,0,0,1-.53-.33l-.26-.22a2.25,2.25,0,0,1-.25-.28,2.11,2.11,0,0,1,.31-.2l.31-.14a3.26,3.26,0,0,1,.6-.18,3.52,3.52,0,0,1,1.16,0,3.58,3.58,0,0,1,1.11.34,3.17,3.17,0,0,1,.53.33l.26.22a2.2,2.2,0,0,1,.25.28"/><path class="cls-2" d="M153.33,40.8a2.25,2.25,0,0,1-.37.07l-.34,0a3.31,3.31,0,0,1-.62-.06,3.57,3.57,0,0,1-1.09-.41,3.52,3.52,0,0,1-.9-.73,3.31,3.31,0,0,1-.37-.51,3.25,3.25,0,0,1-.16-.3,2.37,2.37,0,0,1-.13-.35,2.4,2.4,0,0,1,.37-.07l.34,0a3.27,3.27,0,0,1,.62.06,3.63,3.63,0,0,1,2,1.15,3.56,3.56,0,0,1,.37.51,3.2,3.2,0,0,1,.15.3,2.27,2.27,0,0,1,.13.35"/><path class="cls-2" d="M148.84,45.27a2.35,2.35,0,0,1-.37-.07l-.32-.11a3.29,3.29,0,0,1-.56-.29,3.51,3.51,0,0,1-.86-.78,3.55,3.55,0,0,1-.57-1,3.25,3.25,0,0,1-.16-.61,3.21,3.21,0,0,1,0-.34,2,2,0,0,1,0-.37,2.23,2.23,0,0,1,.37.07l.32.11a3.41,3.41,0,0,1,.56.29,3.64,3.64,0,0,1,1.43,1.79,3.6,3.6,0,0,1,.16.61c0,.11,0,.22,0,.34a2.28,2.28,0,0,1,0,.38"/><path class="cls-2" d="M145.06,47.95a2,2,0,0,1-.35-.13l-.3-.15a3.18,3.18,0,0,1-.51-.36,3.59,3.59,0,0,1-.74-.89,3.53,3.53,0,0,1-.42-1.08,3.25,3.25,0,0,1-.07-.62,3,3,0,0,1,0-.34,2.24,2.24,0,0,1,.07-.37,2.35,2.35,0,0,1,.35.12l.3.15a3.29,3.29,0,0,1,.51.36,3.51,3.51,0,0,1,.74.89,3.58,3.58,0,0,1,.42,1.08,3.37,3.37,0,0,1,.07.62,3.19,3.19,0,0,1,0,.34,2.15,2.15,0,0,1-.06.37"/><path class="cls-2" d="M139.12,50.21a2.4,2.4,0,0,1-.28-.25l-.22-.26a3.46,3.46,0,0,1-.34-.53,3.57,3.57,0,0,1-.35-1.11,3.48,3.48,0,0,1,0-1.16,3.17,3.17,0,0,1,.17-.6,3.25,3.25,0,0,1,.14-.31,2.58,2.58,0,0,1,.2-.32,2.16,2.16,0,0,1,.28.25l.22.26a3.51,3.51,0,0,1,.34.53,3.59,3.59,0,0,1,.35,1.11,3.53,3.53,0,0,1,0,1.16,3.21,3.21,0,0,1-.31.91,2.06,2.06,0,0,1-.2.32"/><path class="cls-2" d="M155.7,35.55a2.56,2.56,0,0,1-.33.18l-.32.12a3.32,3.32,0,0,1-.62.13,3.58,3.58,0,0,1-1.16-.06,3.51,3.51,0,0,1-1.08-.43,3.29,3.29,0,0,1-.5-.38l-.24-.24a2.45,2.45,0,0,1-.23-.3,2.09,2.09,0,0,1,.33-.18l.32-.12a3.34,3.34,0,0,1,.61-.13,3.51,3.51,0,0,1,1.16.07,3.58,3.58,0,0,1,1.08.43,3.43,3.43,0,0,1,.5.37l.24.24a2.45,2.45,0,0,1,.23.3"/><path class="cls-2" d="M154.35,32.06a2.19,2.19,0,0,1-.28.25l-.28.19a3.35,3.35,0,0,1-.57.27,3.58,3.58,0,0,1-1.14.21,3.47,3.47,0,0,1-1.14-.16,3.22,3.22,0,0,1-.58-.25l-.29-.18a2.24,2.24,0,0,1-.29-.24,2.33,2.33,0,0,1,.28-.25l.28-.19a3.37,3.37,0,0,1,.57-.27,3.52,3.52,0,0,1,1.14-.2,3.57,3.57,0,0,1,1.15.17,3.37,3.37,0,0,1,.57.25l.29.18a2.5,2.5,0,0,1,.29.24"/><path class="cls-3" d="M72.22,87.18c0,.08,0,.12-.12.12s-.13-.08-.16-.25l0-.34a1.68,1.68,0,0,0-.22-.58.93.93,0,0,0-.66-.4,2,2,0,0,0-.48,0l-.54,0v5.76c0,.23.06.37.18.43a1.76,1.76,0,0,0,.53.06c.08,0,.11,0,.11.08s-.05.08-.15.08h-.13l-.81,0h-1.3c-.15,0-.22,0-.22-.08s.14-.09.41-.1.33,0,.38-.12a.94.94,0,0,0,0-.39V85.7a4.71,4.71,0,0,0-1.17.1q-.6.22-.71,1.17c0,.19-.06.29-.13.29s-.11-.07-.11-.2,0-.14,0-.21l0-.22c0-.29,0-.68.09-1.15h.43l1.95,0h1.07l1.58,0q0,.53.12,1.58a.38.38,0,0,0,0,.07Z"/><path class="cls-3" d="M81.79,92s-.09.07-.29.07H80.17c-.14,0-.21,0-.21-.06S80,92,80.12,92s.32,0,.33-.09a1.48,1.48,0,0,0,0-.31V89.83h-1.8v2a.17.17,0,0,0,.08.13,1.16,1.16,0,0,0,.32,0c.07,0,.1,0,.1.07s-.06.07-.19.07H77.5c-.09,0-.14,0-.14-.07s.09-.07.28-.08.22,0,.23-.11V88.28a1.85,1.85,0,0,0,0-.29q0-.08-.17-.08-.33,0-.32-.09s0-.06.13-.06H79c.11,0,.16,0,.16.08s-.08.08-.25.08a.37.37,0,0,0-.2,0s0,.09,0,.2v1.51h1.8V88.36a1.56,1.56,0,0,0,0-.34c0-.08-.08-.11-.19-.09h-.18c-.08,0-.12,0-.12-.08s.07-.08.2-.08h1.38c.15,0,.23,0,.23.07s0,.08-.13.08h-.21c-.08,0-.13,0-.14,0a1.3,1.3,0,0,0,0,.3v3.3c0,.22,0,.34,0,.36a.85.85,0,0,0,.33,0C81.74,92,81.79,92,81.79,92Z"/><path class="cls-3" d="M90.61,91.08v.12a1.59,1.59,0,0,0,0,.2V92a.74.74,0,0,0,0,.19l-1.59,0-1.82,0c-.13,0-.2,0-.2-.08s0-.09.11-.09a.79.79,0,0,0,.36,0s.05-.13.05-.31V88.35c0-.26,0-.4-.07-.41a1.32,1.32,0,0,0-.33,0c-.08,0-.11,0-.11-.07s0-.08.12-.08h3.26V88c0,.09,0,.38.08.85a.56.56,0,0,1,0,.11c0,.08,0,.12-.07.12s-.1-.06-.12-.19c-.09-.48-.26-.77-.5-.85a4.28,4.28,0,0,0-1-.07h-.48v1.78h.23a1.65,1.65,0,0,0,.75-.1c.1-.07.16-.25.19-.55s.06-.27.11-.27.09.06.09.19,0,.19,0,.35,0,.28,0,.36c0,.41,0,.7,0,.85s0,.09,0,.12,0,.15-.09.15-.09-.08-.11-.24q-.06-.52-.19-.62a1.58,1.58,0,0,0-.74-.1h-.24V92A10.89,10.89,0,0,0,90,91.88c.25-.07.4-.37.45-.92,0-.09,0-.14.1-.14S90.61,90.9,90.61,91.08Z"/><path class="cls-3" d="M105.94,91.25q0,.53,0,.9h-1.1l-1.63,0h-.78c-.08,0-.12,0-.12-.06s.12-.06.37-.08c.07,0,.11,0,.13,0a.53.53,0,0,0,0-.21V88.5c0-.36,0-.54-.09-.56a.45.45,0,0,0-.17,0h-.17c-.07,0-.1,0-.1-.08s0-.07.12-.07H104c.12,0,.18,0,.18.08s-.1.06-.31.06-.16,0-.18.07a1.47,1.47,0,0,0,0,.41v3.55h.55a2.49,2.49,0,0,0,1.28-.2,1,1,0,0,0,.27-.69c0-.15,0-.23.11-.23S105.94,91,105.94,91.25Z"/><path class="cls-3" d="M112.86,92s0,.06-.09.06h-1.6c-.11,0-.16,0-.16,0s.07-.07.21-.07.29,0,.3-.07a2.73,2.73,0,0,0,0-.41V88.41a2.69,2.69,0,0,0,0-.44s-.06-.07-.14-.07h-.29c-.06,0-.09,0-.09-.07s0-.07.12-.07h1.57c.1,0,.15,0,.15.08s-.11.06-.32.07-.14,0-.16,0a.65.65,0,0,0,0,.26v3.6a.12.12,0,0,0,.07.12,1.48,1.48,0,0,0,.34,0C112.82,92,112.86,92,112.86,92Z"/><path class="cls-3" d="M121.56,88.92c0,.08,0,.12-.07.12s-.1-.06-.12-.19a1.27,1.27,0,0,0-.28-.73,1.65,1.65,0,0,0-1.05-.21h-.65v1.81h.22a1.52,1.52,0,0,0,.77-.11c.09-.08.16-.3.19-.68,0-.08,0-.12.1-.12s.1.05.1.15,0,.12,0,.21,0,.3,0,.65q0,.09,0,.28c0,.13,0,.3,0,.5v0c0,.12,0,.18-.1.18s-.08-.05-.1-.15a1.36,1.36,0,0,0-.18-.68,1.27,1.27,0,0,0-.68-.1h-.3v1.84c0,.12,0,.19.13.22a1.15,1.15,0,0,0,.29,0c.09,0,.13,0,.13.07s0,.07-.12.07h-1.59c-.11,0-.16,0-.16-.07s0-.08.13-.08a.73.73,0,0,0,.34,0s0-.13,0-.29V88.27c0-.17,0-.27,0-.3a.75.75,0,0,0-.33-.05c-.09,0-.13,0-.13-.09s.07-.08.2-.08h1.82a10.89,10.89,0,0,0,1.35,0v.09l0,.44,0,.49C121.55,88.87,121.56,88.93,121.56,88.92Z"/><path class="cls-3" d="M130.28,91.08l0,.12a1.59,1.59,0,0,0,0,.2V92a.74.74,0,0,0,0,.19l-1.59,0-1.82,0c-.13,0-.2,0-.2-.08s0-.09.11-.09a.79.79,0,0,0,.36,0s.05-.13.05-.31V88.35q0-.39-.07-.41a1.32,1.32,0,0,0-.33,0c-.08,0-.11,0-.11-.07s0-.08.12-.08h3.26V88c0,.09,0,.38.08.85a.63.63,0,0,1,0,.11c0,.08,0,.12-.07.12s-.1-.06-.12-.19c-.09-.48-.26-.77-.5-.85a4.27,4.27,0,0,0-1-.07H128v1.78h.23a1.65,1.65,0,0,0,.75-.1c.09-.07.16-.25.19-.55s.06-.27.11-.27.1.06.1.19,0,.19,0,.35,0,.28,0,.36c0,.41,0,.7,0,.85s0,.09,0,.12,0,.15-.09.15-.09-.08-.11-.24q-.06-.52-.19-.62a1.59,1.59,0,0,0-.74-.1H128V92a10.89,10.89,0,0,0,1.64-.08c.25-.07.4-.37.45-.92q0-.14.11-.14C130.25,90.82,130.28,90.9,130.28,91.08Z"/><path class="cls-3" d="M138.44,90.88a1.15,1.15,0,0,1-.46.91,1.68,1.68,0,0,1-1.11.38,2,2,0,0,1-1-.3l-.08,0s-.06,0-.07.09a.91.91,0,0,1,0,.16.09.09,0,0,1-.1.07.08.08,0,0,1-.09-.09s0-.11,0-.29,0-.33,0-.46v-.49c0-.12,0-.18.1-.18s.11.1.14.3A1.08,1.08,0,0,0,136.91,92a.71.71,0,0,0,.8-.8.84.84,0,0,0-.19-.57,2.49,2.49,0,0,0-.74-.49,3.84,3.84,0,0,1-.93-.57,1,1,0,0,1-.26-.68A1.1,1.1,0,0,1,136,88a1.4,1.4,0,0,1,1-.34,1.65,1.65,0,0,1,.77.22l.08,0s.07,0,.09-.14.05-.14.12-.14a.08.08,0,0,1,.09.1.77.77,0,0,1,0,.08,3.13,3.13,0,0,0,0,.39c0,.1,0,.27,0,.51a.35.35,0,0,1,0,.09c0,.08,0,.11-.07.11s-.1-.06-.12-.17a1.24,1.24,0,0,0-.35-.67.86.86,0,0,0-.62-.25q-.69,0-.69.73a.78.78,0,0,0,.18.53.82.82,0,0,0,.21.18l.67.33a3,3,0,0,1,.88.58A1,1,0,0,1,138.44,90.88Z"/><path class="cls-3" d="M147.35,88.92c0,.09,0,.13-.11.13s-.13-.06-.13-.18a1.53,1.53,0,0,0-.16-.62c-.12-.22-.4-.33-.83-.33h-.3v3.84c0,.12.09.18.28.19s.28,0,.28.08-.05.07-.16.07h-1.56c-.13,0-.19,0-.19-.07s.1-.07.32-.08l.15,0a.11.11,0,0,0,.09-.1c0-.05,0-.22,0-.48V87.93a1.86,1.86,0,0,0-1,.15,1.11,1.11,0,0,0-.3.76c0,.15-.06.22-.12.22s-.09-.07-.09-.22,0-.54.09-1.07h2.22l1.2,0,.2,0v.2l0,.34,0,.39,0,.17A1,1,0,0,1,147.35,88.92Z"/><path class="cls-3" d="M156.49,87.83s0,.06-.12.07a.87.87,0,0,0-.42.11,3.85,3.85,0,0,0-.42.74q-.3.6-.59,1.11a1.25,1.25,0,0,0-.14.3,1.89,1.89,0,0,0,0,.35v1.18c0,.13,0,.2.06.22a1.3,1.3,0,0,0,.39.05c.11,0,.17,0,.17.08s0,.07-.13.07h-1.77c-.08,0-.12,0-.12-.07s.09-.08.28-.09.3,0,.32-.06a.71.71,0,0,0,0-.33V90.29l-.17-.33-.66-1.16-.23-.43-.2-.36c-.06-.06-.22-.1-.48-.11-.08,0-.12,0-.12-.07s0-.08.12-.08h1.83c.09,0,.14,0,.14.08s-.08.07-.25.07-.38,0-.38.12a12.54,12.54,0,0,0,1,1.87,20.71,20.71,0,0,0,1-1.91c0-.05-.05-.08-.16-.09h-.26c-.11,0-.16,0-.16-.08s.05-.07.16-.07h.6C156.25,87.73,156.49,87.76,156.49,87.83Z"/><path class="cls-3" d="M165.05,91.25q0,.53,0,.9h-1.1l-1.63,0h-.78c-.08,0-.12,0-.12-.06s.12-.06.37-.08c.07,0,.11,0,.13,0a.56.56,0,0,0,0-.21V88.5c0-.36,0-.54-.09-.56a.43.43,0,0,0-.17,0h-.17c-.07,0-.11,0-.11-.08s0-.07.13-.07h1.54c.12,0,.18,0,.18.08s-.11.06-.31.06-.16,0-.18.07a1.54,1.54,0,0,0,0,.41v3.55h.55a2.49,2.49,0,0,0,1.28-.2,1,1,0,0,0,.26-.69c0-.15,0-.23.11-.23S165.05,91,165.05,91.25Z"/><path class="cls-3" d="M173.74,91.08v.12a1.59,1.59,0,0,0,0,.2V92a.71.71,0,0,0,0,.19l-1.59,0-1.82,0c-.13,0-.2,0-.2-.08s0-.09.12-.09a.79.79,0,0,0,.36,0s.05-.13.05-.31V88.35c0-.26,0-.4-.07-.41a1.31,1.31,0,0,0-.33,0c-.08,0-.11,0-.11-.07s0-.08.12-.08h3.26V88c0,.09,0,.38.08.85a.61.61,0,0,1,0,.11c0,.08,0,.12-.07.12s-.1-.06-.12-.19c-.09-.48-.26-.77-.5-.85a4.27,4.27,0,0,0-1-.07h-.48v1.78h.23a1.65,1.65,0,0,0,.75-.1c.09-.07.16-.25.19-.55s.06-.27.11-.27.1.06.1.19,0,.19,0,.35,0,.28,0,.36c0,.41,0,.7,0,.85s0,.09,0,.12,0,.15-.09.15-.1-.08-.11-.24c0-.34-.1-.55-.19-.62a1.58,1.58,0,0,0-.74-.1h-.23V92a10.88,10.88,0,0,0,1.64-.08c.25-.07.4-.37.45-.92,0-.09,0-.14.11-.14S173.74,90.9,173.74,91.08Z"/><path class="cls-3" d="M188.44,90.88a1.15,1.15,0,0,1-.46.91,1.68,1.68,0,0,1-1.11.38,2,2,0,0,1-1-.3l-.08,0s-.06,0-.07.09a.85.85,0,0,1,0,.16.09.09,0,0,1-.1.07.08.08,0,0,1-.1-.09s0-.11,0-.29,0-.33,0-.46v-.49c0-.12,0-.18.1-.18s.11.1.14.3A1.08,1.08,0,0,0,186.91,92a.71.71,0,0,0,.8-.8.83.83,0,0,0-.19-.57,2.53,2.53,0,0,0-.74-.49,3.82,3.82,0,0,1-.93-.57,1,1,0,0,1-.26-.68A1.1,1.1,0,0,1,186,88a1.4,1.4,0,0,1,1-.34,1.65,1.65,0,0,1,.77.22l.08,0s.07,0,.08-.14.05-.14.12-.14a.08.08,0,0,1,.09.1s0,0,0,.08a3.5,3.5,0,0,0,0,.39c0,.1,0,.27,0,.51a.38.38,0,0,1,0,.09c0,.08,0,.11-.08.11s-.1-.06-.12-.17a1.25,1.25,0,0,0-.35-.67.86.86,0,0,0-.62-.25c-.46,0-.69.24-.69.73a.78.78,0,0,0,.18.53.81.81,0,0,0,.21.18l.67.33a3.05,3.05,0,0,1,.88.58A1,1,0,0,1,188.44,90.88Z"/><path class="cls-3" d="M196.95,88.81a1,1,0,0,1-.43.85,1.82,1.82,0,0,1-1.12.32l-.38,0H195v1.73c0,.17,0,.27.13.28a2,2,0,0,0,.36,0c.07,0,.1,0,.1.07s0,.05-.11.06h-1.7c-.09,0-.13,0-.13-.06s0-.07.08-.06h.14l.26,0a.07.07,0,0,0,.06,0,1.24,1.24,0,0,0,0-.32V88.4a3.65,3.65,0,0,0,0-.41c0-.06-.12-.09-.31-.09h-.13c-.07,0-.11,0-.11-.08s0,0,.1-.06h.72a13,13,0,0,1,1.5,0Q196.95,88,196.95,88.81Zm-.83,0q0-.91-.8-.91a.65.65,0,0,0-.29,0s-.06.1-.06.22v1.65Q196.11,89.82,196.12,88.82Z"/><path class="cls-3" d="M206.35,92.06s-.06.06-.19.06h-1.88c-.11,0-.17,0-.17-.08s.11-.08.34-.08.41,0,.41-.09a1.36,1.36,0,0,0-.06-.18c0-.05-.09-.26-.22-.63l-.11-.32h-1.36a6.16,6.16,0,0,0-.39,1.14c0,.06,0,.09.11.1h.27l.09,0c.08,0,.11,0,.11.06s-.07.07-.2.07h-1.18c-.1,0-.15,0-.15-.06s0-.07.12-.08l.23,0a.37.37,0,0,0,.21-.09,6.68,6.68,0,0,0,.47-1.09q.16-.43.31-.8a1.65,1.65,0,0,0,.08-.2,1.89,1.89,0,0,1,.08-.2c.11-.26.26-.66.46-1.18l.14-.4.07-.17c0-.1.08-.14.12-.14s.06.09.12.27q.29.7,1.48,3.68c.08.2.15.3.22.32l.3,0Q206.35,92,206.35,92.06Zm-1.94-1.5-.61-1.63q-.23.57-.64,1.63Z"/><path class="cls-4" d="M77.64,59.17c-.36,0-.56.06-.6.19L68.92,75l.68,1.33,8.71-16.83Q78.46,59.17,77.64,59.17Z"/><path class="cls-4" d="M68.1,76.54,59.21,59.36c-.07-.13-.28-.19-.64-.19q-.83,0-.67.31L67.47,77.9c.07.14.28.2.64.2s.6-.07.67-.2l0,0-.68-1.33Z"/><path class="cls-4" d="M117.84,76.54l-8.89-17.19q-.1-.19-.64-.19-.83,0-.67.31l9.57,18.42c.07.14.28.2.64.2s.6-.07.67-.2l0-.08-.69-1.33Z"/><path class="cls-4" d="M127.37,59.17q-.53,0-.6.19l-8.1,15.59.68,1.32L128,59.48Q128.2,59.17,127.37,59.17Z"/><path class="cls-4" d="M154.43,77.72H141.34V69h9.94q.6,0,.6-.24c0-.15-.2-.22-.6-.22h-9.94V59.7H153.9c.4,0,.6-.08.6-.24s-.2-.22-.6-.22H140.5c-.33,0-.5.09-.5.26V77.91c0,.18.17.27.52.27h13.91c.4,0,.6-.08.6-.24S154.83,77.72,154.43,77.72Z"/><path class="cls-4" d="M168.55,59.74l-.28-.32a1,1,0,0,0-.7-.18c-.4,0-.6.08-.6.23V77.91c0,.16.22.24.67.24s.67-.08.67-.24V61.2l12.16,15.06v-1.7Z"/><path class="cls-4" d="M182.48,59.24q-.67,0-.67.26V77.9l.08.13a1.26,1.26,0,0,0,.69.13c.38,0,.57-.07.57-.22V59.49C183.15,59.32,182.93,59.24,182.48,59.24Z"/><path class="cls-4" d="M208.74,69.76a8.07,8.07,0,0,0-4.61-1.31h-2.31a6.72,6.72,0,0,1-2.21-.37,4.68,4.68,0,0,1-2.42-1.81,3.91,3.91,0,0,1-.7-2.6A4.22,4.22,0,0,1,199,60.31a9.3,9.3,0,0,1,4-.61,8.71,8.71,0,0,1,4,.72,4.13,4.13,0,0,1,2.4,3.67c0,.16.22.24.68.24s.66-.08.66-.24a4.55,4.55,0,0,0-2.77-4,10,10,0,0,0-4.58-.86,16.68,16.68,0,0,0-4.53.45,5.73,5.73,0,0,0-2.75,1.77,4,4,0,0,0,1,6.15,8.07,8.07,0,0,0,4.61,1.31h2.28a6.79,6.79,0,0,1,2.24.39,4.72,4.72,0,0,1,2.45,1.79,4,4,0,0,1,.65,2.62,4.21,4.21,0,0,1-2.54,3.34,9.28,9.28,0,0,1-4,.61,8.91,8.91,0,0,1-4.05-.72,4.08,4.08,0,0,1-2.35-3.64q0-.26-.67-.26c-.46,0-.68.09-.67.26a4.53,4.53,0,0,0,2.75,4,10.1,10.1,0,0,0,4.6.84,17.08,17.08,0,0,0,4.53-.42,5.8,5.8,0,0,0,2.75-1.79,4.12,4.12,0,0,0,1-2.71A4.06,4.06,0,0,0,208.74,69.76Z"/><path class="cls-4" d="M92.53,59.25h1.16a.11.11,0,0,1,.11.11V77.93a.11.11,0,0,1-.11.11H92.53a.12.12,0,0,1-.12-.12V59.36A.11.11,0,0,1,92.53,59.25Z"/></svg>