<?xml version="1.0" encoding="utf-8"?>
<!-- Generator: Adobe Illustrator 21.0.2, SVG Export Plug-In . SVG Version: 6.00 Build 0)  -->
<svg version="1.1" id="Layer_1" xmlns="http://www.w3.org/2000/svg" xmlns:xlink="http://www.w3.org/1999/xlink" x="0px" y="0px"
	 viewBox="0 0 267 100" style="enable-background:new 0 0 267 100;" xml:space="preserve">
<style type="text/css">
	.st0{fill:none;}
	.st1{fill:#78797A;}
</style>
<rect class="st0" width="267" height="100"/>
<g>
	<path class="st1" d="M136.1,18.2c0.1,0.1,0.2,0.2,0.3,0.3c0.1,0.1,0.2,0.2,0.2,0.3c0.1,0.2,0.2,0.4,0.3,0.7
		c0.1,0.4,0.2,0.9,0.2,1.3c0,0.4-0.1,0.9-0.2,1.3c-0.1,0.2-0.2,0.4-0.3,0.7c-0.1,0.1-0.1,0.2-0.2,0.3c-0.1,0.1-0.2,0.2-0.3,0.3
		c-0.1-0.1-0.2-0.2-0.3-0.3c-0.1-0.1-0.2-0.2-0.2-0.3c-0.1-0.2-0.2-0.4-0.3-0.7c-0.1-0.4-0.2-0.9-0.2-1.3c0-0.4,0.1-0.9,0.2-1.3
		c0.1-0.2,0.2-0.4,0.3-0.7c0.1-0.1,0.1-0.2,0.2-0.3C135.9,18.4,136,18.3,136.1,18.2"/>
	<path class="st1" d="M136.1,12.2c0.1,0.1,0.2,0.2,0.3,0.3c0.1,0.1,0.2,0.2,0.2,0.3c0.1,0.2,0.2,0.4,0.3,0.7
		c0.1,0.4,0.2,0.9,0.2,1.3c0,0.4-0.1,0.9-0.2,1.3c-0.1,0.2-0.2,0.4-0.3,0.7c-0.1,0.1-0.1,0.2-0.2,0.3c-0.1,0.1-0.2,0.2-0.3,0.3
		c-0.1-0.1-0.2-0.2-0.3-0.3c-0.1-0.1-0.2-0.2-0.2-0.3c-0.1-0.2-0.2-0.4-0.3-0.7c-0.1-0.4-0.2-0.9-0.2-1.3c0-0.4,0.1-0.9,0.2-1.3
		c0.1-0.2,0.2-0.4,0.3-0.7c0.1-0.1,0.1-0.2,0.2-0.3C135.9,12.4,136,12.3,136.1,12.2"/>
	<path class="st1" d="M140.5,19.9c-0.2,0-0.3,0-0.4,0.1c-0.1,0-0.3,0.1-0.4,0.1c-0.2,0.1-0.5,0.2-0.7,0.3c-0.4,0.2-0.7,0.5-1,0.9
		c-0.3,0.3-0.5,0.7-0.7,1.1c-0.1,0.2-0.2,0.4-0.2,0.7c0,0.1,0,0.3-0.1,0.4c0,0.1,0,0.3,0,0.4c0.2,0,0.3,0,0.4-0.1
		c0.1,0,0.3-0.1,0.4-0.1c0.2-0.1,0.5-0.2,0.7-0.3c0.4-0.2,0.7-0.5,1-0.9c0.3-0.3,0.5-0.7,0.7-1.2c0.1-0.2,0.2-0.4,0.2-0.7
		c0-0.1,0-0.3,0.1-0.4C140.5,20.2,140.5,20,140.5,19.9"/>
	<path class="st1" d="M143.2,25.8c-0.1-0.1-0.2-0.2-0.3-0.3c-0.1-0.1-0.2-0.1-0.3-0.2c-0.2-0.1-0.5-0.2-0.7-0.3
		c-0.5-0.1-0.9-0.2-1.3-0.1c-0.4,0-0.9,0.1-1.3,0.3c-0.2,0.1-0.4,0.2-0.6,0.3c-0.1,0.1-0.2,0.1-0.3,0.2c-0.1,0.1-0.2,0.2-0.3,0.3
		c0.1,0.1,0.2,0.2,0.3,0.3c0.1,0.1,0.2,0.1,0.3,0.2c0.2,0.1,0.5,0.2,0.7,0.3c0.5,0.1,0.9,0.2,1.3,0.1c0.4,0,0.9-0.1,1.3-0.3
		c0.2-0.1,0.4-0.2,0.6-0.3c0.1-0.1,0.2-0.1,0.3-0.2C143,26,143.1,26,143.2,25.8"/>
	<path class="st1" d="M150.7,16.1c-0.2,0-0.3,0-0.4-0.1c-0.1,0-0.3,0-0.4,0c-0.3,0-0.5,0.1-0.7,0.1c-0.5,0.1-0.9,0.3-1.2,0.5
		c-0.4,0.2-0.7,0.5-1,0.9c-0.1,0.2-0.3,0.4-0.4,0.6c-0.1,0.1-0.1,0.2-0.2,0.4c-0.1,0.1-0.1,0.3-0.1,0.4c0.2,0,0.3,0,0.4,0.1
		c0.1,0,0.3,0,0.4,0c0.3,0,0.5-0.1,0.7-0.1c0.5-0.1,0.9-0.3,1.2-0.5c0.4-0.2,0.7-0.5,1-0.9c0.1-0.2,0.3-0.4,0.4-0.6
		c0.1-0.1,0.1-0.2,0.2-0.4C150.6,16.4,150.7,16.2,150.7,16.1"/>
	<path class="st1" d="M144.1,14.8c-0.2,0-0.3,0-0.4,0.1c-0.1,0-0.3,0.1-0.4,0.1c-0.2,0.1-0.5,0.2-0.7,0.3c-0.4,0.2-0.7,0.5-1,0.9
		c-0.3,0.3-0.5,0.7-0.7,1.1c-0.1,0.2-0.2,0.4-0.2,0.7c0,0.1,0,0.3-0.1,0.4c0,0.1,0,0.3,0,0.4c0.2,0,0.3,0,0.4-0.1
		c0.1,0,0.3-0.1,0.4-0.1c0.2-0.1,0.5-0.2,0.7-0.3c0.4-0.2,0.7-0.5,1-0.9c0.3-0.3,0.5-0.7,0.7-1.1c0.1-0.2,0.2-0.5,0.2-0.7
		c0-0.1,0-0.3,0.1-0.4C144.1,15.1,144.1,15,144.1,14.8"/>
	<path class="st1" d="M139.5,14.8c-0.1,0.1-0.3,0.1-0.4,0.2c-0.1,0.1-0.2,0.2-0.3,0.2c-0.2,0.2-0.3,0.4-0.5,0.5
		c-0.3,0.4-0.5,0.8-0.6,1.2c-0.1,0.4-0.2,0.9-0.2,1.3c0,0.2,0,0.5,0.1,0.7c0,0.1,0.1,0.3,0.1,0.4c0,0.1,0.1,0.3,0.2,0.4
		c0.1-0.1,0.3-0.1,0.4-0.2c0.1-0.1,0.2-0.2,0.3-0.3c0.2-0.2,0.3-0.4,0.5-0.5c0.3-0.4,0.5-0.8,0.6-1.2c0.1-0.4,0.2-0.9,0.2-1.3
		c0-0.2,0-0.5-0.1-0.7c0-0.1-0.1-0.3-0.1-0.4C139.6,15.1,139.6,15,139.5,14.8"/>
	<path class="st1" d="M142.8,10.8c-0.1,0.1-0.3,0.1-0.4,0.2c-0.1,0.1-0.2,0.1-0.3,0.2c-0.2,0.2-0.4,0.3-0.5,0.5
		c-0.3,0.3-0.6,0.7-0.7,1.1c-0.2,0.4-0.3,0.8-0.4,1.3c0,0.2,0,0.5,0,0.7c0,0.1,0,0.3,0.1,0.4c0,0.1,0.1,0.3,0.1,0.4
		c0.1-0.1,0.3-0.1,0.4-0.2c0.1-0.1,0.2-0.1,0.3-0.2c0.2-0.1,0.4-0.3,0.5-0.5c0.3-0.3,0.6-0.7,0.7-1.1c0.2-0.4,0.3-0.8,0.4-1.3
		c0-0.2,0-0.5,0-0.7c0-0.1,0-0.3-0.1-0.4C142.9,11.1,142.8,11,142.8,10.8"/>
	<path class="st1" d="M139.1,9c-0.1,0.1-0.2,0.2-0.3,0.3c-0.1,0.1-0.2,0.2-0.3,0.3c-0.2,0.2-0.3,0.4-0.4,0.6
		c-0.2,0.4-0.4,0.8-0.5,1.2c-0.1,0.4-0.1,0.9-0.1,1.3c0,0.2,0.1,0.5,0.1,0.7c0,0.1,0.1,0.2,0.1,0.4c0.1,0.1,0.1,0.3,0.2,0.4
		c0.1-0.1,0.2-0.2,0.3-0.3c0.1-0.1,0.2-0.2,0.3-0.3c0.2-0.2,0.3-0.4,0.4-0.6c0.2-0.4,0.4-0.8,0.5-1.2c0.1-0.4,0.1-0.9,0.1-1.3
		c0-0.2-0.1-0.5-0.1-0.7c0-0.1-0.1-0.2-0.1-0.4C139.2,9.2,139.2,9.1,139.1,9"/>
	<path class="st1" d="M148.9,20c-0.1-0.1-0.3-0.1-0.4-0.2c-0.1,0-0.3-0.1-0.4-0.1c-0.2,0-0.5-0.1-0.7-0.1c-0.5,0-0.9,0.1-1.3,0.3
		c-0.4,0.2-0.8,0.4-1.2,0.7c-0.2,0.1-0.4,0.3-0.5,0.5c-0.1,0.1-0.2,0.2-0.2,0.3c-0.1,0.1-0.2,0.2-0.2,0.4c0.1,0.1,0.3,0.1,0.4,0.2
		c0.1,0,0.3,0.1,0.4,0.1c0.2,0,0.5,0.1,0.7,0.1c0.5,0,0.9-0.1,1.3-0.3c0.4-0.2,0.8-0.4,1.2-0.7c0.2-0.1,0.4-0.3,0.5-0.5
		c0.1-0.1,0.2-0.2,0.2-0.3C148.8,20.2,148.8,20.1,148.9,20"/>
	<path class="st1" d="M145.2,18.3c-0.2,0-0.3,0-0.4,0c-0.1,0-0.3,0-0.4,0c-0.3,0-0.5,0.1-0.7,0.1c-0.4,0.1-0.8,0.3-1.2,0.6
		c-0.4,0.3-0.7,0.6-0.9,1c-0.1,0.2-0.3,0.4-0.4,0.6c-0.1,0.1-0.1,0.2-0.1,0.4c0,0.1-0.1,0.3-0.1,0.4c0.2,0,0.3,0,0.4,0
		c0.1,0,0.3,0,0.4,0c0.3,0,0.5-0.1,0.7-0.1c0.4-0.1,0.8-0.3,1.2-0.6c0.4-0.3,0.7-0.6,1-1c0.1-0.2,0.3-0.4,0.4-0.6
		c0.1-0.1,0.1-0.2,0.1-0.4C145.2,18.6,145.2,18.5,145.2,18.3"/>
	<path class="st1" d="M147.9,13.4c-0.2,0-0.3,0-0.4,0.1c-0.1,0-0.3,0.1-0.4,0.1c-0.2,0.1-0.5,0.2-0.7,0.3c-0.4,0.2-0.8,0.5-1,0.8
		c-0.3,0.3-0.5,0.7-0.7,1.1c-0.1,0.2-0.2,0.4-0.2,0.7c0,0.1,0,0.3-0.1,0.4c0,0.1,0,0.3,0,0.4c0.2,0,0.3,0,0.4-0.1
		c0.1,0,0.3-0.1,0.4-0.1c0.2-0.1,0.5-0.2,0.7-0.3c0.4-0.2,0.8-0.5,1-0.9c0.3-0.3,0.5-0.7,0.7-1.1c0.1-0.2,0.2-0.4,0.2-0.7
		c0-0.1,0-0.3,0.1-0.4C147.9,13.7,147.9,13.5,147.9,13.4"/>
	<path class="st1" d="M147.1,9.7c-0.2,0-0.3,0.1-0.4,0.1c-0.1,0-0.3,0.1-0.4,0.1c-0.2,0.1-0.4,0.2-0.6,0.4c-0.4,0.3-0.7,0.6-0.9,1
		c-0.3,0.4-0.5,0.8-0.6,1.2c-0.1,0.2-0.1,0.5-0.1,0.7c0,0.1,0,0.3,0,0.4c0,0.1,0,0.3,0,0.4c0.2,0,0.3-0.1,0.4-0.1
		c0.1,0,0.3-0.1,0.4-0.1c0.2-0.1,0.4-0.2,0.6-0.4c0.4-0.3,0.7-0.6,0.9-1c0.3-0.4,0.5-0.8,0.6-1.2c0.1-0.2,0.1-0.5,0.1-0.7
		c0-0.1,0-0.3,0-0.4C147.1,10,147.1,9.9,147.1,9.7"/>
	<path class="st1" d="M142.9,6.4c-0.2,0-0.3,0.1-0.4,0.2c-0.1,0.1-0.2,0.1-0.3,0.2c-0.2,0.1-0.4,0.3-0.6,0.5
		c-0.3,0.3-0.6,0.7-0.8,1.1c-0.2,0.4-0.3,0.8-0.4,1.3c0,0.2,0,0.5,0,0.7c0,0.1,0,0.3,0,0.4c0,0.1,0.1,0.3,0.1,0.4
		c0.2-0.1,0.3-0.1,0.4-0.2c0.1-0.1,0.2-0.1,0.3-0.2c0.2-0.1,0.4-0.3,0.6-0.5c0.3-0.3,0.6-0.7,0.8-1.1c0.2-0.4,0.3-0.8,0.4-1.3
		c0-0.2,0-0.5,0-0.7c0-0.1,0-0.3,0-0.4C143,6.7,143,6.6,142.9,6.4"/>
	<path class="st1" d="M136.3,6c-0.1,0.1-0.2,0.2-0.3,0.3c-0.1,0.1-0.2,0.2-0.2,0.3c-0.1,0.2-0.3,0.4-0.3,0.6
		c-0.2,0.4-0.3,0.9-0.3,1.3c0,0.4,0,0.9,0.1,1.3c0.1,0.2,0.1,0.5,0.3,0.7c0.1,0.1,0.1,0.2,0.2,0.3c0.1,0.1,0.2,0.2,0.3,0.4
		c0.1-0.1,0.2-0.2,0.3-0.3c0.1-0.1,0.2-0.2,0.2-0.3c0.1-0.2,0.3-0.4,0.3-0.6c0.2-0.4,0.3-0.9,0.3-1.3c0-0.4,0-0.9-0.1-1.3
		c-0.1-0.2-0.1-0.5-0.2-0.7c-0.1-0.1-0.1-0.2-0.2-0.3C136.5,6.3,136.4,6.1,136.3,6"/>
	<path class="st1" d="M152.3,11.9c-0.2,0-0.3,0-0.4,0c-0.1,0-0.3,0-0.4,0.1c-0.3,0.1-0.5,0.1-0.7,0.2c-0.4,0.2-0.8,0.4-1.1,0.7
		c-0.3,0.3-0.6,0.6-0.9,1c-0.1,0.2-0.2,0.4-0.3,0.7c0,0.1-0.1,0.2-0.1,0.4c0,0.1-0.1,0.3-0.1,0.4c0.2,0,0.3,0,0.4,0
		c0.1,0,0.3,0,0.4-0.1c0.2-0.1,0.5-0.1,0.7-0.2c0.4-0.2,0.8-0.4,1.1-0.7c0.3-0.3,0.6-0.6,0.9-1c0.1-0.2,0.2-0.4,0.3-0.7
		c0-0.1,0.1-0.2,0.1-0.4C152.3,12.2,152.3,12.1,152.3,11.9"/>
	<path class="st1" d="M154.6,17.4c-0.1-0.1-0.3-0.1-0.4-0.1c-0.1,0-0.3-0.1-0.4-0.1c-0.3,0-0.5,0-0.7,0c-0.5,0-0.9,0.1-1.3,0.3
		c-0.4,0.2-0.8,0.4-1.2,0.7c-0.2,0.1-0.4,0.3-0.5,0.5c-0.1,0.1-0.2,0.2-0.2,0.3c-0.1,0.1-0.1,0.2-0.2,0.4c0.1,0.1,0.3,0.1,0.4,0.1
		c0.1,0,0.3,0.1,0.4,0.1c0.3,0,0.5,0,0.7,0c0.5,0,0.9-0.1,1.3-0.3c0.4-0.2,0.8-0.4,1.2-0.7c0.2-0.1,0.4-0.3,0.5-0.5
		c0.1-0.1,0.2-0.2,0.2-0.3C154.4,17.7,154.5,17.5,154.6,17.4"/>
	<path class="st1" d="M131.8,19.9c0.2,0,0.3,0,0.4,0.1c0.1,0,0.3,0.1,0.4,0.1c0.2,0.1,0.5,0.2,0.7,0.3c0.4,0.2,0.7,0.5,1,0.9
		c0.3,0.3,0.5,0.7,0.7,1.1c0.1,0.2,0.2,0.4,0.2,0.7c0,0.1,0,0.3,0.1,0.4c0,0.1,0,0.3,0,0.4c-0.2,0-0.3,0-0.4-0.1
		c-0.1,0-0.3-0.1-0.4-0.1c-0.2-0.1-0.5-0.2-0.7-0.3c-0.4-0.2-0.7-0.5-1-0.9c-0.3-0.3-0.5-0.7-0.7-1.2c-0.1-0.2-0.2-0.4-0.2-0.7
		c0-0.1,0-0.3-0.1-0.4C131.8,20.2,131.7,20,131.8,19.9"/>
	<path class="st1" d="M121.5,16.1c0.2,0,0.3,0,0.4-0.1c0.1,0,0.3,0,0.4,0c0.3,0,0.5,0.1,0.7,0.1c0.5,0.1,0.9,0.3,1.2,0.5
		c0.4,0.2,0.7,0.5,1,0.9c0.1,0.2,0.3,0.4,0.4,0.6c0.1,0.1,0.1,0.2,0.2,0.4c0,0.1,0.1,0.3,0.1,0.4c-0.2,0-0.3,0-0.4,0.1
		c-0.1,0-0.3,0-0.4,0c-0.3,0-0.5-0.1-0.7-0.1c-0.5-0.1-0.9-0.3-1.2-0.5c-0.4-0.2-0.7-0.5-1-0.9c-0.1-0.2-0.3-0.4-0.4-0.6
		c-0.1-0.1-0.1-0.2-0.2-0.4C121.6,16.4,121.6,16.2,121.5,16.1"/>
	<path class="st1" d="M119,21.3c0.1-0.1,0.3-0.1,0.4-0.2c0.1-0.1,0.3-0.1,0.4-0.1c0.2-0.1,0.5-0.1,0.7-0.1c0.5,0,0.9,0,1.3,0.1
		c0.4,0.1,0.8,0.3,1.2,0.5c0.2,0.1,0.4,0.3,0.6,0.5c0.1,0.1,0.2,0.2,0.3,0.3c0.1,0.1,0.2,0.2,0.3,0.4c-0.1,0.1-0.3,0.1-0.4,0.2
		c-0.1,0.1-0.3,0.1-0.4,0.1c-0.2,0.1-0.5,0.1-0.7,0.1c-0.5,0-0.9,0-1.3-0.1c-0.4-0.1-0.8-0.3-1.2-0.5c-0.2-0.1-0.4-0.3-0.6-0.4
		c-0.1-0.1-0.2-0.2-0.3-0.3C119.1,21.5,119,21.4,119,21.3"/>
	<path class="st1" d="M128.2,14.8c0.2,0,0.3,0,0.4,0.1c0.1,0,0.3,0.1,0.4,0.1c0.2,0.1,0.5,0.2,0.7,0.3c0.4,0.2,0.7,0.5,1,0.9
		c0.3,0.3,0.5,0.7,0.7,1.1c0.1,0.2,0.2,0.4,0.2,0.7c0,0.1,0,0.3,0.1,0.4c0,0.1,0,0.3,0,0.4c-0.2,0-0.3,0-0.4-0.1
		c-0.1,0-0.3-0.1-0.4-0.1c-0.2-0.1-0.5-0.2-0.7-0.3c-0.4-0.2-0.7-0.5-1-0.9c-0.3-0.3-0.5-0.7-0.7-1.1c-0.1-0.2-0.2-0.5-0.2-0.7
		c0-0.1,0-0.3-0.1-0.4C128.2,15.1,128.2,15,128.2,14.8"/>
	<path class="st1" d="M132.8,14.8c0.1,0.1,0.3,0.1,0.4,0.2c0.1,0.1,0.2,0.2,0.3,0.2c0.2,0.2,0.3,0.4,0.5,0.5
		c0.3,0.4,0.5,0.8,0.6,1.2c0.1,0.4,0.2,0.9,0.2,1.3c0,0.2,0,0.5-0.1,0.7c0,0.1-0.1,0.3-0.1,0.4c0,0.1-0.1,0.3-0.2,0.4
		c-0.1-0.1-0.3-0.1-0.4-0.2c-0.1-0.1-0.2-0.2-0.3-0.3c-0.2-0.2-0.3-0.4-0.5-0.5c-0.3-0.4-0.5-0.8-0.6-1.2c-0.1-0.4-0.2-0.9-0.2-1.3
		c0-0.2,0-0.5,0.1-0.7c0-0.1,0.1-0.3,0.1-0.4C132.6,15.1,132.7,15,132.8,14.8"/>
	<path class="st1" d="M129.5,10.8c0.1,0.1,0.3,0.1,0.4,0.2c0.1,0.1,0.2,0.1,0.3,0.2c0.2,0.2,0.4,0.3,0.5,0.5
		c0.3,0.3,0.6,0.7,0.7,1.1c0.2,0.4,0.3,0.8,0.4,1.3c0,0.2,0,0.5,0,0.7c0,0.1,0,0.3-0.1,0.4c0,0.1-0.1,0.3-0.1,0.4
		c-0.1-0.1-0.3-0.1-0.4-0.2c-0.1-0.1-0.2-0.1-0.3-0.2c-0.2-0.1-0.4-0.3-0.5-0.5c-0.3-0.3-0.6-0.7-0.7-1.1c-0.2-0.4-0.3-0.8-0.4-1.3
		c0-0.2,0-0.5,0-0.7c0-0.1,0-0.3,0.1-0.4C129.4,11.1,129.4,11,129.5,10.8"/>
	<path class="st1" d="M133.2,9c0.1,0.1,0.2,0.2,0.3,0.3c0.1,0.1,0.2,0.2,0.3,0.3c0.2,0.2,0.3,0.4,0.4,0.6c0.2,0.4,0.4,0.8,0.5,1.2
		c0.1,0.4,0.1,0.9,0.1,1.3c0,0.2-0.1,0.5-0.1,0.7c0,0.1-0.1,0.2-0.1,0.4c-0.1,0.1-0.1,0.3-0.2,0.4c-0.1-0.1-0.2-0.2-0.3-0.3
		c-0.1-0.1-0.2-0.2-0.3-0.3c-0.2-0.2-0.3-0.4-0.4-0.6c-0.2-0.4-0.4-0.8-0.5-1.2c-0.1-0.4-0.1-0.9-0.1-1.3c0-0.2,0.1-0.5,0.1-0.7
		c0-0.1,0.1-0.2,0.1-0.4C133,9.2,133.1,9.1,133.2,9"/>
	<path class="st1" d="M123.3,20c0.1-0.1,0.3-0.1,0.4-0.2c0.1,0,0.3-0.1,0.4-0.1c0.3,0,0.5-0.1,0.7-0.1c0.5,0,0.9,0.1,1.3,0.3
		c0.4,0.2,0.8,0.4,1.2,0.7c0.2,0.1,0.4,0.3,0.5,0.5c0.1,0.1,0.2,0.2,0.2,0.3c0.1,0.1,0.2,0.2,0.2,0.4c-0.1,0.1-0.3,0.1-0.4,0.2
		c-0.1,0-0.3,0.1-0.4,0.1c-0.3,0-0.5,0.1-0.7,0.1c-0.5,0-0.9-0.1-1.3-0.3c-0.4-0.2-0.8-0.4-1.2-0.7c-0.2-0.1-0.4-0.3-0.5-0.5
		c-0.1-0.1-0.2-0.2-0.2-0.3C123.5,20.2,123.4,20.1,123.3,20"/>
	<path class="st1" d="M120.7,24.5c0.1-0.1,0.2-0.2,0.3-0.3c0.1-0.1,0.2-0.1,0.3-0.2c0.2-0.1,0.5-0.2,0.7-0.3
		c0.5-0.1,0.9-0.2,1.3-0.1c0.4,0,0.9,0.1,1.3,0.3c0.2,0.1,0.4,0.2,0.6,0.3c0.1,0.1,0.2,0.1,0.3,0.2c0.1,0.1,0.2,0.2,0.3,0.3
		c-0.1,0.1-0.2,0.2-0.3,0.3c-0.1,0.1-0.2,0.1-0.3,0.2c-0.2,0.1-0.5,0.2-0.7,0.3c-0.5,0.1-0.9,0.2-1.3,0.1c-0.4,0-0.9-0.1-1.3-0.3
		c-0.2-0.1-0.4-0.2-0.6-0.3c-0.1-0.1-0.2-0.1-0.3-0.2C120.9,24.7,120.8,24.6,120.7,24.5"/>
	<path class="st1" d="M127,18.3c0.2,0,0.3,0,0.4,0c0.1,0,0.3,0,0.4,0c0.3,0,0.5,0.1,0.7,0.1c0.4,0.1,0.8,0.3,1.2,0.6
		c0.4,0.3,0.7,0.6,1,1c0.1,0.2,0.3,0.4,0.4,0.6c0.1,0.1,0.1,0.2,0.1,0.4c0,0.1,0.1,0.3,0.1,0.4c-0.2,0-0.3,0-0.4,0
		c-0.1,0-0.3,0-0.4,0c-0.3,0-0.5-0.1-0.7-0.1c-0.4-0.1-0.8-0.3-1.2-0.6c-0.4-0.3-0.7-0.6-0.9-1c-0.1-0.2-0.3-0.4-0.4-0.6
		c-0.1-0.1-0.1-0.2-0.1-0.4C127.1,18.6,127,18.5,127,18.3"/>
	<path class="st1" d="M125.7,23.3c0.1-0.1,0.2-0.2,0.4-0.2c0.1-0.1,0.2-0.1,0.4-0.2c0.2-0.1,0.5-0.2,0.7-0.2c0.5-0.1,0.9-0.1,1.3,0
		c0.4,0.1,0.9,0.2,1.3,0.4c0.2,0.1,0.4,0.2,0.6,0.4c0.1,0.1,0.2,0.2,0.3,0.3c0.1,0.1,0.2,0.2,0.3,0.3c-0.1,0.1-0.2,0.2-0.4,0.2
		c-0.1,0.1-0.2,0.1-0.4,0.2c-0.2,0.1-0.5,0.2-0.7,0.2c-0.5,0.1-0.9,0.1-1.3,0c-0.4-0.1-0.9-0.2-1.3-0.4c-0.2-0.1-0.4-0.2-0.6-0.4
		c-0.1-0.1-0.2-0.2-0.3-0.3C125.9,23.5,125.8,23.4,125.7,23.3"/>
	<path class="st1" d="M124.4,13.4c0.2,0,0.3,0,0.4,0.1c0.1,0,0.3,0.1,0.4,0.1c0.2,0.1,0.5,0.2,0.7,0.3c0.4,0.2,0.8,0.5,1,0.8
		c0.3,0.3,0.5,0.7,0.7,1.1c0.1,0.2,0.2,0.4,0.2,0.7c0,0.1,0,0.3,0.1,0.4c0,0.1,0,0.3,0,0.4c-0.2,0-0.3,0-0.4-0.1
		c-0.1,0-0.3-0.1-0.4-0.1c-0.2-0.1-0.5-0.2-0.7-0.3c-0.4-0.2-0.8-0.5-1-0.9c-0.3-0.3-0.5-0.7-0.7-1.1c-0.1-0.2-0.2-0.4-0.2-0.7
		c0-0.1,0-0.3-0.1-0.4C124.4,13.7,124.4,13.5,124.4,13.4"/>
	<path class="st1" d="M125.2,9.7c0.2,0,0.3,0.1,0.4,0.1c0.1,0,0.3,0.1,0.4,0.1c0.2,0.1,0.4,0.2,0.6,0.4c0.4,0.3,0.7,0.6,0.9,1
		c0.3,0.4,0.5,0.8,0.6,1.2c0.1,0.2,0.1,0.5,0.1,0.7c0,0.1,0,0.3,0,0.4c0,0.1,0,0.3,0,0.4c-0.2,0-0.3-0.1-0.4-0.1
		c-0.1,0-0.3-0.1-0.4-0.1c-0.2-0.1-0.4-0.2-0.6-0.4c-0.4-0.3-0.7-0.6-0.9-1c-0.3-0.4-0.5-0.8-0.6-1.2c-0.1-0.2-0.1-0.5-0.1-0.7
		c0-0.1,0-0.3,0-0.4C125.1,10,125.2,9.9,125.2,9.7"/>
	<path class="st1" d="M129.3,6.4c0.2,0,0.3,0.1,0.4,0.2c0.1,0.1,0.2,0.1,0.3,0.2c0.2,0.1,0.4,0.3,0.6,0.5c0.3,0.3,0.6,0.7,0.8,1.1
		c0.2,0.4,0.3,0.8,0.4,1.3c0,0.2,0,0.5,0,0.7c0,0.1,0,0.3,0,0.4c0,0.1-0.1,0.3-0.1,0.4c-0.2-0.1-0.3-0.1-0.4-0.2
		c-0.1-0.1-0.2-0.1-0.3-0.2c-0.2-0.1-0.4-0.3-0.6-0.5c-0.3-0.3-0.6-0.7-0.8-1.1c-0.2-0.4-0.3-0.8-0.4-1.3c0-0.2,0-0.5,0-0.7
		c0-0.1,0-0.3,0-0.4C129.3,6.7,129.3,6.6,129.3,6.4"/>
	<path class="st1" d="M119.9,11.9c0.2,0,0.3,0,0.4,0c0.1,0,0.3,0,0.4,0.1c0.3,0.1,0.5,0.1,0.7,0.2c0.4,0.2,0.8,0.4,1.1,0.7
		c0.3,0.3,0.6,0.6,0.9,1c0.1,0.2,0.2,0.4,0.3,0.7c0,0.1,0.1,0.2,0.1,0.4c0,0.1,0.1,0.3,0.1,0.4c-0.2,0-0.3,0-0.4,0
		c-0.1,0-0.3,0-0.4-0.1c-0.3-0.1-0.5-0.1-0.7-0.2c-0.4-0.2-0.8-0.4-1.1-0.7c-0.3-0.3-0.6-0.6-0.9-1c-0.1-0.2-0.2-0.4-0.3-0.7
		c0-0.1-0.1-0.2-0.1-0.4C120,12.2,119.9,12.1,119.9,11.9"/>
	<path class="st1" d="M117.7,17.4c0.1-0.1,0.3-0.1,0.4-0.1c0.1,0,0.3-0.1,0.4-0.1c0.3,0,0.5,0,0.7,0c0.5,0,0.9,0.1,1.3,0.3
		c0.4,0.2,0.8,0.4,1.2,0.7c0.2,0.1,0.3,0.3,0.5,0.5c0.1,0.1,0.2,0.2,0.2,0.3c0.1,0.1,0.1,0.2,0.2,0.4c-0.1,0.1-0.3,0.1-0.4,0.1
		c-0.1,0-0.3,0.1-0.4,0.1c-0.3,0-0.5,0-0.7,0c-0.5,0-0.9-0.1-1.3-0.3s-0.8-0.4-1.2-0.7c-0.2-0.1-0.4-0.3-0.5-0.5
		c-0.1-0.1-0.2-0.2-0.2-0.3C117.8,17.7,117.7,17.5,117.7,17.4"/>
	<path class="st1" d="M115.8,13.2c0.2,0,0.3-0.1,0.4-0.1c0.1,0,0.3,0,0.4,0c0.3,0,0.5,0,0.7,0.1c0.5,0.1,0.9,0.3,1.3,0.5
		c0.4,0.2,0.7,0.5,1,0.9c0.2,0.2,0.3,0.4,0.4,0.6c0.1,0.1,0.1,0.2,0.2,0.4c0.1,0.1,0.1,0.3,0.1,0.4c-0.2,0-0.3,0.1-0.4,0.1
		c-0.1,0-0.3,0-0.4,0c-0.3,0-0.5,0-0.7-0.1c-0.5-0.1-0.9-0.3-1.3-0.5c-0.4-0.2-0.7-0.5-1-0.9c-0.2-0.2-0.3-0.4-0.4-0.6
		c-0.1-0.1-0.1-0.2-0.2-0.4C115.9,13.5,115.8,13.3,115.8,13.2"/>
	<path class="st1" d="M121,8c0.2,0,0.3,0,0.4,0.1c0.1,0,0.3,0.1,0.4,0.1c0.2,0.1,0.5,0.2,0.6,0.3c0.4,0.3,0.7,0.6,1,0.9
		c0.3,0.3,0.5,0.7,0.7,1.2c0.1,0.2,0.1,0.5,0.2,0.7c0,0.1,0,0.3,0,0.4c0,0.1,0,0.3,0,0.4c-0.2,0-0.3,0-0.4-0.1
		c-0.1,0-0.3-0.1-0.4-0.1c-0.2-0.1-0.5-0.2-0.7-0.3c-0.4-0.3-0.7-0.6-1-0.9c-0.3-0.3-0.5-0.7-0.7-1.2c-0.1-0.2-0.1-0.5-0.2-0.7
		c0-0.1,0-0.3,0-0.4C121,8.3,121,8.2,121,8"/>
	<path class="st1" d="M125.4,4.9c0.2,0,0.3,0.1,0.4,0.1c0.1,0.1,0.2,0.1,0.4,0.2c0.2,0.1,0.4,0.3,0.6,0.4c0.4,0.3,0.6,0.7,0.9,1
		c0.2,0.4,0.4,0.8,0.5,1.3c0,0.2,0.1,0.5,0.1,0.7c0,0.1,0,0.3,0,0.4c0,0.1,0,0.3-0.1,0.4c-0.2,0-0.3-0.1-0.4-0.1
		c-0.1-0.1-0.2-0.1-0.4-0.2c-0.2-0.1-0.4-0.3-0.6-0.4c-0.4-0.3-0.6-0.7-0.9-1c-0.2-0.4-0.4-0.8-0.5-1.3c0-0.2-0.1-0.5-0.1-0.7
		c0-0.1,0-0.3,0-0.4C125.3,5.2,125.3,5,125.4,4.9"/>
	<path class="st1" d="M132.3,2.2c0.1,0.1,0.2,0.2,0.3,0.3c0.1,0.1,0.2,0.2,0.3,0.3c0.2,0.2,0.3,0.4,0.4,0.6c0.2,0.4,0.3,0.8,0.4,1.3
		c0.1,0.4,0.1,0.9,0,1.3c0,0.2-0.1,0.5-0.2,0.7c0,0.1-0.1,0.2-0.2,0.4c-0.1,0.1-0.1,0.2-0.2,0.4c-0.1-0.1-0.2-0.2-0.3-0.3
		c-0.1-0.1-0.2-0.2-0.3-0.3c-0.2-0.2-0.3-0.4-0.4-0.6c-0.2-0.4-0.3-0.8-0.4-1.3c-0.1-0.4-0.1-0.9,0-1.3c0-0.2,0.1-0.5,0.2-0.7
		c0-0.1,0.1-0.2,0.2-0.4C132.1,2.5,132.2,2.4,132.3,2.2"/>
	<path class="st1" d="M113,19.3c0.1-0.1,0.3-0.1,0.4-0.2c0.1-0.1,0.2-0.1,0.4-0.1c0.2-0.1,0.5-0.1,0.7-0.1c0.5-0.1,0.9,0,1.3,0.1
		c0.4,0.1,0.9,0.3,1.3,0.5c0.2,0.1,0.4,0.3,0.6,0.4c0.1,0.1,0.2,0.2,0.3,0.3c0.1,0.1,0.2,0.2,0.3,0.3c-0.1,0.1-0.3,0.1-0.4,0.2
		c-0.1,0.1-0.2,0.1-0.4,0.1c-0.2,0.1-0.5,0.1-0.7,0.1c-0.5,0.1-0.9,0-1.3-0.1c-0.4-0.1-0.9-0.3-1.3-0.5c-0.2-0.1-0.4-0.3-0.6-0.4
		c-0.1-0.1-0.2-0.2-0.3-0.3C113.2,19.5,113.1,19.4,113,19.3"/>
	<path class="st1" d="M114.6,23.4c0.1-0.1,0.2-0.2,0.3-0.3c0.1-0.1,0.2-0.2,0.3-0.2c0.2-0.1,0.4-0.2,0.7-0.3
		c0.4-0.2,0.9-0.2,1.3-0.2c0.4,0,0.9,0,1.3,0.2c0.2,0.1,0.4,0.2,0.7,0.3c0.1,0.1,0.2,0.1,0.3,0.2c0.1,0.1,0.2,0.2,0.3,0.3
		c-0.1,0.1-0.2,0.2-0.3,0.3c-0.1,0.1-0.2,0.2-0.3,0.2c-0.2,0.1-0.4,0.2-0.7,0.3c-0.4,0.2-0.9,0.2-1.3,0.2c-0.4,0-0.9-0.1-1.3-0.2
		c-0.2-0.1-0.4-0.2-0.7-0.3c-0.1-0.1-0.2-0.1-0.3-0.2C114.8,23.6,114.7,23.5,114.6,23.4"/>
	<path class="st1" d="M153.3,21.3c-0.1-0.1-0.3-0.1-0.4-0.2c-0.1-0.1-0.3-0.1-0.4-0.1c-0.2-0.1-0.5-0.1-0.7-0.1
		c-0.5,0-0.9,0-1.3,0.1c-0.4,0.1-0.8,0.3-1.2,0.5c-0.2,0.1-0.4,0.3-0.6,0.5c-0.1,0.1-0.2,0.2-0.3,0.3c-0.1,0.1-0.2,0.2-0.3,0.4
		c0.1,0.1,0.3,0.1,0.4,0.2c0.1,0.1,0.3,0.1,0.4,0.1c0.2,0.1,0.5,0.1,0.7,0.1c0.5,0,0.9,0,1.3-0.1c0.4-0.1,0.8-0.3,1.2-0.5
		c0.2-0.1,0.4-0.3,0.6-0.4c0.1-0.1,0.2-0.2,0.3-0.3C153.1,21.5,153.2,21.4,153.3,21.3"/>
	<path class="st1" d="M155.9,25.8c-0.1-0.1-0.2-0.2-0.3-0.3c-0.1-0.1-0.2-0.1-0.3-0.2c-0.2-0.1-0.5-0.2-0.7-0.3
		c-0.5-0.1-0.9-0.2-1.3-0.1c-0.4,0-0.9,0.1-1.3,0.3c-0.2,0.1-0.4,0.2-0.6,0.3c-0.1,0.1-0.2,0.1-0.3,0.2c-0.1,0.1-0.2,0.2-0.3,0.3
		c0.1,0.1,0.2,0.2,0.3,0.3c0.1,0.1,0.2,0.1,0.3,0.2c0.2,0.1,0.5,0.2,0.7,0.3c0.5,0.1,0.9,0.2,1.3,0.1c0.4,0,0.9-0.1,1.3-0.3
		c0.2-0.1,0.4-0.2,0.6-0.3c0.1-0.1,0.2-0.1,0.3-0.2C155.7,26,155.8,25.9,155.9,25.8"/>
	<path class="st1" d="M151.5,24.5c-0.1-0.1-0.2-0.2-0.3-0.3c-0.1-0.1-0.2-0.1-0.3-0.2c-0.2-0.1-0.5-0.2-0.7-0.3
		c-0.5-0.1-0.9-0.2-1.3-0.1c-0.4,0-0.9,0.1-1.3,0.3c-0.2,0.1-0.4,0.2-0.6,0.3c-0.1,0.1-0.2,0.1-0.3,0.2c-0.1,0.1-0.2,0.2-0.3,0.3
		c0.1,0.1,0.2,0.2,0.3,0.3c0.1,0.1,0.2,0.1,0.3,0.2c0.2,0.1,0.5,0.2,0.7,0.3c0.5,0.1,0.9,0.2,1.3,0.1c0.4,0,0.9-0.1,1.3-0.3
		c0.2-0.1,0.4-0.2,0.6-0.3c0.1-0.1,0.2-0.1,0.3-0.2C151.3,24.7,151.4,24.6,151.5,24.5"/>
	<path class="st1" d="M146.5,23.3c-0.1-0.1-0.2-0.2-0.4-0.2c-0.1-0.1-0.2-0.1-0.4-0.2c-0.2-0.1-0.5-0.2-0.7-0.2
		c-0.5-0.1-0.9-0.1-1.3,0c-0.4,0.1-0.9,0.2-1.3,0.4c-0.2,0.1-0.4,0.2-0.6,0.4c-0.1,0.1-0.2,0.2-0.3,0.3c-0.1,0.1-0.2,0.2-0.3,0.3
		c0.1,0.1,0.2,0.2,0.4,0.2c0.1,0.1,0.2,0.1,0.4,0.2c0.2,0.1,0.5,0.2,0.7,0.2c0.5,0.1,0.9,0.1,1.3,0c0.4-0.1,0.9-0.2,1.3-0.4
		c0.2-0.1,0.4-0.2,0.6-0.4c0.1-0.1,0.2-0.2,0.3-0.3C146.3,23.5,146.4,23.4,146.5,23.3"/>
	<path class="st1" d="M156.4,13.2c-0.2,0-0.3-0.1-0.4-0.1c-0.1,0-0.3,0-0.4,0c-0.3,0-0.5,0-0.7,0.1c-0.5,0.1-0.9,0.3-1.3,0.5
		c-0.4,0.2-0.7,0.5-1,0.9c-0.2,0.2-0.3,0.4-0.4,0.6c-0.1,0.1-0.1,0.2-0.2,0.4c-0.1,0.1-0.1,0.3-0.1,0.4c0.2,0,0.3,0.1,0.4,0.1
		c0.1,0,0.3,0,0.4,0c0.3,0,0.5,0,0.7-0.1c0.5-0.1,0.9-0.3,1.3-0.5c0.4-0.2,0.7-0.5,1-0.9c0.2-0.2,0.3-0.4,0.4-0.6
		c0.1-0.1,0.1-0.2,0.2-0.4C156.3,13.5,156.4,13.3,156.4,13.2"/>
	<path class="st1" d="M151.2,8c-0.2,0-0.3,0-0.4,0.1c-0.1,0-0.3,0.1-0.4,0.1c-0.2,0.1-0.5,0.2-0.6,0.3c-0.4,0.3-0.7,0.6-1,0.9
		c-0.3,0.3-0.5,0.7-0.7,1.2c-0.1,0.2-0.1,0.5-0.2,0.7c0,0.1,0,0.3,0,0.4c0,0.1,0,0.3,0,0.4c0.2,0,0.3,0,0.4-0.1
		c0.1,0,0.3-0.1,0.4-0.1c0.2-0.1,0.5-0.2,0.6-0.3c0.4-0.3,0.7-0.6,1-0.9c0.3-0.3,0.5-0.7,0.7-1.2c0.1-0.2,0.1-0.5,0.2-0.7
		c0-0.1,0-0.3,0-0.4C151.2,8.3,151.2,8.2,151.2,8"/>
	<path class="st1" d="M146.8,4.9c-0.2,0-0.3,0.1-0.4,0.1c-0.1,0.1-0.2,0.1-0.4,0.2c-0.2,0.1-0.4,0.3-0.6,0.4c-0.4,0.3-0.6,0.7-0.9,1
		c-0.2,0.4-0.4,0.8-0.5,1.3c0,0.2-0.1,0.5-0.1,0.7c0,0.1,0,0.3,0,0.4c0,0.1,0,0.3,0.1,0.4c0.2,0,0.3-0.1,0.4-0.1
		c0.1-0.1,0.2-0.1,0.4-0.2c0.2-0.1,0.4-0.3,0.6-0.4c0.4-0.3,0.6-0.7,0.9-1c0.2-0.4,0.4-0.8,0.5-1.3c0-0.2,0.1-0.5,0.1-0.7
		c0-0.1,0-0.3,0-0.4C146.9,5.2,146.9,5,146.8,4.9"/>
	<path class="st1" d="M139.9,2.2c-0.1,0.1-0.2,0.2-0.3,0.3c-0.1,0.1-0.2,0.2-0.3,0.3c-0.2,0.2-0.3,0.4-0.4,0.6
		c-0.2,0.4-0.3,0.8-0.4,1.3c-0.1,0.4-0.1,0.9,0,1.3c0,0.2,0.1,0.5,0.2,0.7c0,0.1,0.1,0.2,0.2,0.4c0.1,0.1,0.1,0.2,0.2,0.4
		c0.1-0.1,0.2-0.2,0.3-0.3c0.1-0.1,0.2-0.2,0.3-0.3c0.2-0.2,0.3-0.4,0.4-0.6c0.2-0.4,0.3-0.8,0.4-1.3c0.1-0.4,0.1-0.9,0-1.3
		c0-0.2-0.1-0.5-0.2-0.7c0-0.1-0.1-0.2-0.2-0.4C140.1,2.5,140,2.4,139.9,2.2"/>
	<path class="st1" d="M159.2,19.3c-0.1-0.1-0.3-0.1-0.4-0.2c-0.1-0.1-0.2-0.1-0.4-0.1c-0.2-0.1-0.5-0.1-0.7-0.1
		c-0.5-0.1-0.9,0-1.3,0.1c-0.4,0.1-0.9,0.3-1.3,0.5c-0.2,0.1-0.4,0.3-0.6,0.4c-0.1,0.1-0.2,0.2-0.3,0.3c-0.1,0.1-0.2,0.2-0.3,0.3
		c0.1,0.1,0.3,0.1,0.4,0.2c0.1,0.1,0.2,0.1,0.4,0.1c0.2,0.1,0.5,0.1,0.7,0.1c0.5,0.1,0.9,0,1.3-0.1c0.4-0.1,0.9-0.3,1.3-0.5
		c0.2-0.1,0.4-0.3,0.6-0.4c0.1-0.1,0.2-0.2,0.3-0.3C159,19.5,159.1,19.4,159.2,19.3"/>
	<path class="st1" d="M157.6,23.4c-0.1-0.1-0.2-0.2-0.3-0.3c-0.1-0.1-0.2-0.2-0.3-0.2c-0.2-0.1-0.4-0.2-0.7-0.3
		c-0.4-0.2-0.9-0.2-1.3-0.2c-0.4,0-0.9,0-1.3,0.2c-0.2,0.1-0.4,0.2-0.7,0.3c-0.1,0.1-0.2,0.1-0.3,0.2c-0.1,0.1-0.2,0.2-0.3,0.3
		c0.1,0.1,0.2,0.2,0.3,0.3c0.1,0.1,0.2,0.2,0.3,0.2c0.2,0.1,0.4,0.2,0.7,0.3c0.4,0.2,0.9,0.2,1.3,0.2c0.4,0,0.9-0.1,1.3-0.2
		c0.2-0.1,0.4-0.2,0.7-0.3c0.1-0.1,0.2-0.1,0.3-0.2C157.4,23.6,157.5,23.5,157.6,23.4"/>
	<path class="st1" d="M161.9,25.6c-0.1-0.1-0.2-0.2-0.3-0.3c-0.1-0.1-0.2-0.1-0.3-0.2c-0.2-0.1-0.4-0.2-0.7-0.3
		c-0.4-0.1-0.9-0.2-1.3-0.2c-0.4,0-0.9,0.1-1.3,0.2c-0.2,0.1-0.4,0.2-0.7,0.3c-0.1,0.1-0.2,0.1-0.3,0.2c-0.1,0.1-0.2,0.2-0.3,0.3
		c0.1,0.1,0.2,0.2,0.3,0.3c0.1,0.1,0.2,0.1,0.3,0.2c0.2,0.1,0.4,0.2,0.7,0.3c0.4,0.1,0.9,0.2,1.3,0.2c0.4,0,0.9-0.1,1.3-0.3
		c0.2-0.1,0.4-0.2,0.7-0.3c0.1-0.1,0.2-0.1,0.3-0.2C161.7,25.8,161.8,25.7,161.9,25.6"/>
	<path class="st1" d="M129,25.8c0.1-0.1,0.2-0.2,0.3-0.3c0.1-0.1,0.2-0.1,0.3-0.2c0.2-0.1,0.5-0.2,0.7-0.3c0.4-0.1,0.9-0.2,1.3-0.1
		c0.4,0,0.9,0.1,1.3,0.3c0.2,0.1,0.4,0.2,0.6,0.3c0.1,0.1,0.2,0.1,0.3,0.2c0.1,0.1,0.2,0.2,0.3,0.3c-0.1,0.1-0.2,0.2-0.3,0.3
		c-0.1,0.1-0.2,0.1-0.3,0.2c-0.2,0.1-0.5,0.2-0.7,0.3c-0.5,0.1-0.9,0.2-1.3,0.1c-0.4,0-0.9-0.1-1.3-0.3c-0.2-0.1-0.4-0.2-0.6-0.3
		c-0.1-0.1-0.2-0.1-0.3-0.2C129.2,26,129.1,26,129,25.8"/>
	<path class="st1" d="M116.3,25.8c0.1-0.1,0.2-0.2,0.3-0.3c0.1-0.1,0.2-0.1,0.3-0.2c0.2-0.1,0.5-0.2,0.7-0.3
		c0.5-0.1,0.9-0.2,1.3-0.1c0.4,0,0.9,0.1,1.3,0.3c0.2,0.1,0.4,0.2,0.6,0.3c0.1,0.1,0.2,0.1,0.3,0.2c0.1,0.1,0.2,0.2,0.3,0.3
		c-0.1,0.1-0.2,0.2-0.3,0.3c-0.1,0.1-0.2,0.1-0.3,0.2c-0.2,0.1-0.5,0.2-0.7,0.3c-0.5,0.1-0.9,0.2-1.3,0.1c-0.4,0-0.9-0.1-1.3-0.3
		c-0.2-0.1-0.4-0.2-0.6-0.3c-0.1-0.1-0.2-0.1-0.3-0.2C116.5,26,116.4,25.9,116.3,25.8"/>
	<path class="st1" d="M110.3,25.6c0.1-0.1,0.2-0.2,0.3-0.3c0.1-0.1,0.2-0.1,0.3-0.2c0.2-0.1,0.4-0.2,0.7-0.3
		c0.4-0.1,0.9-0.2,1.3-0.2c0.4,0,0.9,0.1,1.3,0.2c0.2,0.1,0.4,0.2,0.7,0.3c0.1,0.1,0.2,0.1,0.3,0.2c0.1,0.1,0.2,0.2,0.3,0.3
		c-0.1,0.1-0.2,0.2-0.3,0.3c-0.1,0.1-0.2,0.1-0.3,0.2c-0.2,0.1-0.4,0.2-0.7,0.3c-0.4,0.1-0.9,0.2-1.3,0.2c-0.4,0-0.9-0.1-1.3-0.3
		c-0.2-0.1-0.4-0.2-0.7-0.3c-0.1-0.1-0.2-0.1-0.3-0.2C110.5,25.8,110.4,25.7,110.3,25.6"/>
	<path class="st1" d="M136.1,34c0.1-0.1,0.2-0.2,0.3-0.3c0.1-0.1,0.2-0.2,0.2-0.3c0.1-0.2,0.2-0.4,0.3-0.7c0.1-0.4,0.2-0.9,0.2-1.3
		c0-0.4-0.1-0.9-0.2-1.3c-0.1-0.2-0.2-0.4-0.3-0.7c-0.1-0.1-0.1-0.2-0.2-0.3c-0.1-0.1-0.2-0.2-0.3-0.3c-0.1,0.1-0.2,0.2-0.3,0.3
		c-0.1,0.1-0.2,0.2-0.2,0.3c-0.1,0.2-0.2,0.4-0.3,0.7c-0.1,0.4-0.2,0.9-0.2,1.3c0,0.4,0.1,0.9,0.2,1.3c0.1,0.2,0.2,0.4,0.3,0.7
		c0.1,0.1,0.1,0.2,0.2,0.3C135.9,33.8,136,33.9,136.1,34"/>
	<path class="st1" d="M136.1,40.1c0.1-0.1,0.2-0.2,0.3-0.3c0.1-0.1,0.2-0.2,0.2-0.3c0.1-0.2,0.2-0.4,0.3-0.7
		c0.1-0.4,0.2-0.9,0.2-1.3c0-0.4-0.1-0.9-0.2-1.3c-0.1-0.2-0.2-0.4-0.3-0.7c-0.1-0.1-0.1-0.2-0.2-0.3c-0.1-0.1-0.2-0.2-0.3-0.3
		c-0.1,0.1-0.2,0.2-0.3,0.3c-0.1,0.1-0.2,0.2-0.2,0.3c-0.1,0.2-0.2,0.4-0.3,0.7c-0.1,0.4-0.2,0.9-0.2,1.3c0,0.4,0.1,0.9,0.2,1.3
		c0.1,0.2,0.2,0.4,0.3,0.7c0.1,0.1,0.1,0.2,0.2,0.3C135.9,39.8,136,40,136.1,40.1"/>
	<path class="st1" d="M140.5,32.3c-0.2,0-0.3,0-0.4-0.1c-0.1,0-0.3-0.1-0.4-0.1c-0.2-0.1-0.5-0.2-0.7-0.3c-0.4-0.2-0.7-0.5-1-0.9
		c-0.3-0.3-0.5-0.7-0.7-1.1c-0.1-0.2-0.2-0.4-0.2-0.7c0-0.1,0-0.3-0.1-0.4c0-0.1,0-0.3,0-0.4c0.2,0,0.3,0,0.4,0.1
		c0.1,0,0.3,0.1,0.4,0.1c0.2,0.1,0.5,0.2,0.7,0.3c0.4,0.2,0.7,0.5,1,0.9c0.3,0.3,0.5,0.7,0.7,1.2c0.1,0.2,0.2,0.5,0.2,0.7
		c0,0.1,0,0.3,0.1,0.4C140.5,32,140.5,32.2,140.5,32.3"/>
	<path class="st1" d="M150.7,36.1c-0.2,0-0.3,0-0.4,0.1c-0.1,0-0.3,0-0.4,0c-0.3,0-0.5-0.1-0.7-0.1c-0.5-0.1-0.9-0.3-1.2-0.5
		c-0.4-0.2-0.7-0.5-1-0.9c-0.1-0.2-0.3-0.4-0.4-0.6c-0.1-0.1-0.1-0.2-0.2-0.4c-0.1-0.1-0.1-0.3-0.1-0.4c0.2,0,0.3-0.1,0.4-0.1
		c0.1,0,0.3,0,0.4,0c0.3,0,0.5,0.1,0.7,0.1c0.5,0.1,0.9,0.3,1.2,0.5c0.4,0.2,0.7,0.5,1,0.9c0.1,0.2,0.3,0.4,0.4,0.6
		c0.1,0.1,0.1,0.2,0.2,0.4C150.6,35.9,150.7,36,150.7,36.1"/>
	<path class="st1" d="M144.1,37.4c-0.2,0-0.3,0-0.4-0.1c-0.1,0-0.3-0.1-0.4-0.1c-0.2-0.1-0.5-0.2-0.7-0.3c-0.4-0.2-0.7-0.5-1-0.9
		c-0.3-0.3-0.5-0.7-0.7-1.1c-0.1-0.2-0.2-0.4-0.2-0.7c0-0.1,0-0.3-0.1-0.4c0-0.1,0-0.3,0-0.4c0.2,0,0.3,0,0.4,0.1
		c0.1,0,0.3,0.1,0.4,0.1c0.2,0.1,0.5,0.2,0.7,0.3c0.4,0.2,0.7,0.5,1,0.9c0.3,0.3,0.5,0.7,0.7,1.2c0.1,0.2,0.2,0.4,0.2,0.7
		c0,0.1,0,0.3,0.1,0.4C144.1,37.1,144.1,37.3,144.1,37.4"/>
	<path class="st1" d="M139.5,37.4c-0.1-0.1-0.3-0.1-0.4-0.2c-0.1-0.1-0.2-0.2-0.3-0.2c-0.2-0.2-0.3-0.4-0.5-0.5
		c-0.3-0.4-0.5-0.8-0.6-1.2c-0.1-0.4-0.2-0.9-0.2-1.3c0-0.2,0-0.5,0.1-0.7c0-0.1,0.1-0.3,0.1-0.4c0-0.1,0.1-0.3,0.2-0.4
		c0.1,0.1,0.3,0.1,0.4,0.2c0.1,0.1,0.2,0.2,0.3,0.2c0.2,0.2,0.3,0.4,0.5,0.5c0.3,0.4,0.5,0.8,0.6,1.2c0.1,0.4,0.2,0.9,0.2,1.3
		c0,0.2,0,0.5-0.1,0.7c0,0.1-0.1,0.3-0.1,0.4C139.6,37.1,139.6,37.3,139.5,37.4"/>
	<path class="st1" d="M142.8,41.4c-0.1-0.1-0.3-0.1-0.4-0.2c-0.1-0.1-0.2-0.1-0.3-0.2c-0.2-0.2-0.4-0.3-0.5-0.5
		c-0.3-0.3-0.6-0.7-0.7-1.1c-0.2-0.4-0.3-0.8-0.4-1.3c0-0.2,0-0.5,0-0.7c0-0.1,0-0.3,0.1-0.4c0-0.1,0.1-0.3,0.1-0.4
		c0.1,0.1,0.3,0.1,0.4,0.2c0.1,0.1,0.2,0.1,0.3,0.2c0.2,0.1,0.4,0.3,0.5,0.5c0.3,0.3,0.6,0.7,0.7,1.1c0.2,0.4,0.3,0.8,0.4,1.3
		c0,0.2,0,0.5,0,0.7c0,0.1,0,0.3-0.1,0.4C142.9,41.1,142.8,41.2,142.8,41.4"/>
	<path class="st1" d="M139.1,43.3c-0.1-0.1-0.2-0.2-0.3-0.3c-0.1-0.1-0.2-0.2-0.3-0.3c-0.2-0.2-0.3-0.4-0.4-0.6
		c-0.2-0.4-0.4-0.8-0.5-1.2c-0.1-0.4-0.1-0.9-0.1-1.3c0-0.2,0.1-0.5,0.1-0.7c0-0.1,0.1-0.2,0.1-0.4c0.1-0.1,0.1-0.3,0.2-0.4
		c0.1,0.1,0.2,0.2,0.3,0.3c0.1,0.1,0.2,0.2,0.3,0.3c0.2,0.2,0.3,0.4,0.4,0.6c0.2,0.4,0.4,0.8,0.5,1.2c0.1,0.4,0.1,0.9,0.1,1.3
		c0,0.2-0.1,0.5-0.1,0.7c0,0.1-0.1,0.2-0.1,0.4C139.2,43,139.2,43.1,139.1,43.3"/>
	<path class="st1" d="M148.9,32.3c-0.1,0.1-0.3,0.1-0.4,0.1c-0.1,0-0.3,0.1-0.4,0.1c-0.2,0-0.5,0.1-0.7,0.1c-0.5,0-0.9-0.1-1.3-0.3
		c-0.4-0.2-0.8-0.4-1.2-0.7c-0.2-0.1-0.4-0.3-0.5-0.5c-0.1-0.1-0.2-0.2-0.2-0.3c-0.1-0.1-0.2-0.2-0.2-0.4c0.1-0.1,0.3-0.1,0.4-0.2
		c0.1,0,0.3-0.1,0.4-0.1c0.2,0,0.5-0.1,0.7-0.1c0.5,0,0.9,0.1,1.3,0.3c0.4,0.2,0.8,0.4,1.2,0.7c0.2,0.1,0.4,0.3,0.5,0.5
		c0.1,0.1,0.2,0.2,0.2,0.3C148.8,32,148.8,32.1,148.9,32.3"/>
	<path class="st1" d="M145.2,33.9c-0.2,0-0.3,0-0.4,0c-0.1,0-0.3,0-0.4,0c-0.3,0-0.5-0.1-0.7-0.1c-0.4-0.1-0.8-0.3-1.2-0.6
		c-0.4-0.3-0.7-0.6-0.9-1c-0.1-0.2-0.3-0.4-0.4-0.6c-0.1-0.1-0.1-0.2-0.1-0.4c0-0.1-0.1-0.3-0.1-0.4c0.2,0,0.3,0,0.4,0
		c0.1,0,0.3,0,0.4,0c0.3,0,0.5,0.1,0.7,0.1c0.4,0.1,0.8,0.3,1.2,0.6c0.4,0.3,0.7,0.6,1,1c0.1,0.2,0.3,0.4,0.4,0.6
		c0.1,0.1,0.1,0.2,0.1,0.4C145.2,33.6,145.2,33.8,145.2,33.9"/>
	<path class="st1" d="M147.9,38.8c-0.2,0-0.3,0-0.4-0.1c-0.1,0-0.3-0.1-0.4-0.1c-0.2-0.1-0.5-0.2-0.7-0.3c-0.4-0.2-0.8-0.5-1-0.8
		c-0.3-0.3-0.5-0.7-0.7-1.1c-0.1-0.2-0.2-0.4-0.2-0.7c0-0.1,0-0.3-0.1-0.4c0-0.1,0-0.3,0-0.4c0.2,0,0.3,0,0.4,0.1
		c0.1,0,0.3,0.1,0.4,0.1c0.2,0.1,0.5,0.2,0.7,0.3c0.4,0.2,0.8,0.5,1,0.9c0.3,0.3,0.5,0.7,0.7,1.1c0.1,0.2,0.2,0.4,0.2,0.7
		c0,0.1,0,0.3,0.1,0.4C147.9,38.5,147.9,38.7,147.9,38.8"/>
	<path class="st1" d="M147.1,42.5c-0.2,0-0.3-0.1-0.4-0.1c-0.1,0-0.3-0.1-0.4-0.1c-0.2-0.1-0.4-0.2-0.6-0.4c-0.4-0.3-0.7-0.6-0.9-1
		c-0.3-0.4-0.5-0.8-0.6-1.2c-0.1-0.2-0.1-0.5-0.1-0.7c0-0.1,0-0.3,0-0.4c0-0.1,0-0.3,0-0.4c0.2,0,0.3,0.1,0.4,0.1
		c0.1,0,0.3,0.1,0.4,0.1c0.2,0.1,0.4,0.2,0.6,0.4c0.4,0.3,0.7,0.6,0.9,1c0.3,0.4,0.5,0.8,0.6,1.2c0.1,0.2,0.1,0.5,0.1,0.7
		c0,0.1,0,0.3,0,0.4C147.1,42.2,147.1,42.4,147.1,42.5"/>
	<path class="st1" d="M142.9,45.8c-0.2-0.1-0.3-0.1-0.4-0.2c-0.1-0.1-0.2-0.1-0.3-0.2c-0.2-0.1-0.4-0.3-0.6-0.5
		c-0.3-0.3-0.6-0.7-0.8-1.1c-0.2-0.4-0.3-0.8-0.4-1.3c0-0.2,0-0.5,0-0.7c0-0.1,0-0.3,0-0.4c0-0.1,0.1-0.3,0.1-0.4
		c0.2,0.1,0.3,0.1,0.4,0.2c0.1,0.1,0.2,0.1,0.3,0.2c0.2,0.1,0.4,0.3,0.6,0.5c0.3,0.3,0.6,0.7,0.8,1.1c0.2,0.4,0.3,0.8,0.4,1.3
		c0,0.2,0,0.5,0,0.7c0,0.1,0,0.3,0,0.4C143,45.5,143,45.7,142.9,45.8"/>
	<path class="st1" d="M136.3,46.2c-0.1-0.1-0.2-0.2-0.3-0.3c-0.1-0.1-0.2-0.2-0.2-0.3c-0.1-0.2-0.3-0.4-0.3-0.6
		c-0.2-0.4-0.3-0.9-0.3-1.3c0-0.4,0-0.9,0.1-1.3c0.1-0.2,0.1-0.5,0.3-0.7c0.1-0.1,0.1-0.2,0.2-0.3c0.1-0.1,0.2-0.2,0.3-0.4
		c0.1,0.1,0.2,0.2,0.3,0.3c0.1,0.1,0.2,0.2,0.2,0.3c0.1,0.2,0.3,0.4,0.3,0.6c0.2,0.4,0.3,0.9,0.3,1.3c0,0.4,0,0.9-0.1,1.3
		c-0.1,0.2-0.1,0.5-0.2,0.7c-0.1,0.1-0.1,0.2-0.2,0.3C136.5,46,136.4,46.1,136.3,46.2"/>
	<path class="st1" d="M152.3,40.3c-0.2,0-0.3,0-0.4,0c-0.1,0-0.3,0-0.4-0.1c-0.3-0.1-0.5-0.1-0.7-0.2c-0.4-0.2-0.8-0.4-1.1-0.7
		c-0.3-0.3-0.6-0.6-0.9-1c-0.1-0.2-0.2-0.4-0.3-0.7c0-0.1-0.1-0.2-0.1-0.4c0-0.1-0.1-0.3-0.1-0.4c0.2,0,0.3,0,0.4,0
		c0.1,0,0.3,0,0.4,0.1c0.2,0.1,0.5,0.1,0.7,0.2c0.4,0.2,0.8,0.4,1.1,0.7c0.3,0.3,0.6,0.6,0.9,1c0.1,0.2,0.2,0.4,0.3,0.7
		c0,0.1,0.1,0.2,0.1,0.4C152.3,40,152.3,40.1,152.3,40.3"/>
	<path class="st1" d="M154.6,34.8c-0.1,0.1-0.3,0.1-0.4,0.1c-0.1,0-0.3,0.1-0.4,0.1c-0.3,0-0.5,0-0.7,0c-0.5,0-0.9-0.1-1.3-0.3
		c-0.4-0.2-0.8-0.4-1.2-0.7c-0.2-0.2-0.4-0.3-0.5-0.5c-0.1-0.1-0.2-0.2-0.2-0.3c-0.1-0.1-0.1-0.2-0.2-0.4c0.1-0.1,0.3-0.1,0.4-0.1
		c0.1,0,0.3-0.1,0.4-0.1c0.3,0,0.5,0,0.7,0c0.5,0,0.9,0.1,1.3,0.3c0.4,0.2,0.8,0.4,1.2,0.7c0.2,0.2,0.4,0.3,0.5,0.5
		c0.1,0.1,0.2,0.2,0.2,0.3C154.4,34.6,154.5,34.7,154.6,34.8"/>
	<path class="st1" d="M131.8,32.3c0.2,0,0.3,0,0.4-0.1c0.1,0,0.3-0.1,0.4-0.1c0.2-0.1,0.5-0.2,0.7-0.3c0.4-0.2,0.7-0.5,1-0.9
		c0.3-0.3,0.5-0.7,0.7-1.1c0.1-0.2,0.2-0.4,0.2-0.7c0-0.1,0-0.3,0.1-0.4c0-0.1,0-0.3,0-0.4c-0.2,0-0.3,0-0.4,0.1
		c-0.1,0-0.3,0.1-0.4,0.1c-0.2,0.1-0.5,0.2-0.7,0.3c-0.4,0.2-0.7,0.5-1,0.9c-0.3,0.3-0.5,0.7-0.7,1.2c-0.1,0.2-0.2,0.5-0.2,0.7
		c0,0.1,0,0.3-0.1,0.4C131.8,32,131.7,32.2,131.8,32.3"/>
	<path class="st1" d="M121.5,36.1c0.2,0,0.3,0,0.4,0.1c0.1,0,0.3,0,0.4,0c0.3,0,0.5-0.1,0.7-0.1c0.5-0.1,0.9-0.3,1.2-0.5
		c0.4-0.2,0.7-0.5,1-0.9c0.1-0.2,0.3-0.4,0.4-0.6c0.1-0.1,0.1-0.2,0.2-0.4c0-0.1,0.1-0.3,0.1-0.4c-0.2,0-0.3-0.1-0.4-0.1
		c-0.1,0-0.3,0-0.4,0c-0.3,0-0.5,0.1-0.7,0.1c-0.5,0.1-0.9,0.3-1.2,0.5c-0.4,0.2-0.7,0.5-1,0.9c-0.1,0.2-0.3,0.4-0.4,0.6
		c-0.1,0.1-0.1,0.2-0.2,0.4C121.6,35.9,121.6,36,121.5,36.1"/>
	<path class="st1" d="M119,31c0.1,0.1,0.3,0.1,0.4,0.2c0.1,0.1,0.3,0.1,0.4,0.1c0.2,0.1,0.5,0.1,0.7,0.1c0.5,0,0.9,0,1.3-0.1
		c0.4-0.1,0.8-0.3,1.2-0.5c0.2-0.1,0.4-0.3,0.6-0.5c0.1-0.1,0.2-0.2,0.3-0.3c0.1-0.1,0.2-0.2,0.3-0.4c-0.1-0.1-0.3-0.1-0.4-0.2
		c-0.1-0.1-0.3-0.1-0.4-0.1c-0.2-0.1-0.5-0.1-0.7-0.1c-0.5,0-0.9,0-1.3,0.1c-0.4,0.1-0.8,0.3-1.2,0.5c-0.2,0.1-0.4,0.3-0.6,0.5
		c-0.1,0.1-0.2,0.2-0.3,0.3C119.1,30.7,119,30.8,119,31"/>
	<path class="st1" d="M128.2,37.4c0.2,0,0.3,0,0.4-0.1c0.1,0,0.3-0.1,0.4-0.1c0.2-0.1,0.5-0.2,0.7-0.3c0.4-0.2,0.7-0.5,1-0.9
		c0.3-0.3,0.5-0.7,0.7-1.1c0.1-0.2,0.2-0.4,0.2-0.7c0-0.1,0-0.3,0.1-0.4c0-0.1,0-0.3,0-0.4c-0.2,0-0.3,0-0.4,0.1
		c-0.1,0-0.3,0.1-0.4,0.1c-0.2,0.1-0.5,0.2-0.7,0.3c-0.4,0.2-0.7,0.5-1,0.9c-0.3,0.3-0.5,0.7-0.7,1.2c-0.1,0.2-0.2,0.4-0.2,0.7
		c0,0.1,0,0.3-0.1,0.4C128.2,37.1,128.2,37.3,128.2,37.4"/>
	<path class="st1" d="M132.8,37.4c0.1-0.1,0.3-0.1,0.4-0.2c0.1-0.1,0.2-0.2,0.3-0.2c0.2-0.2,0.3-0.4,0.5-0.5
		c0.3-0.4,0.5-0.8,0.6-1.2c0.1-0.4,0.2-0.9,0.2-1.3c0-0.2,0-0.5-0.1-0.7c0-0.1-0.1-0.3-0.1-0.4c0-0.1-0.1-0.3-0.2-0.4
		c-0.1,0.1-0.3,0.1-0.4,0.2c-0.1,0.1-0.2,0.2-0.3,0.2c-0.2,0.2-0.3,0.4-0.5,0.5c-0.3,0.4-0.5,0.8-0.6,1.2c-0.1,0.4-0.2,0.9-0.2,1.3
		c0,0.2,0,0.5,0.1,0.7c0,0.1,0.1,0.3,0.1,0.4C132.6,37.1,132.7,37.3,132.8,37.4"/>
	<path class="st1" d="M129.5,41.4c0.1-0.1,0.3-0.1,0.4-0.2c0.1-0.1,0.2-0.1,0.3-0.2c0.2-0.2,0.4-0.3,0.5-0.5
		c0.3-0.3,0.6-0.7,0.7-1.1c0.2-0.4,0.3-0.8,0.4-1.3c0-0.2,0-0.5,0-0.7c0-0.1,0-0.3-0.1-0.4c0-0.1-0.1-0.3-0.1-0.4
		c-0.1,0.1-0.3,0.1-0.4,0.2c-0.1,0.1-0.2,0.1-0.3,0.2c-0.2,0.1-0.4,0.3-0.5,0.5c-0.3,0.3-0.6,0.7-0.7,1.1c-0.2,0.4-0.3,0.8-0.4,1.3
		c0,0.2,0,0.5,0,0.7c0,0.1,0,0.3,0.1,0.4C129.4,41.1,129.4,41.2,129.5,41.4"/>
	<path class="st1" d="M133.2,43.3c0.1-0.1,0.2-0.2,0.3-0.3c0.1-0.1,0.2-0.2,0.3-0.3c0.2-0.2,0.3-0.4,0.4-0.6
		c0.2-0.4,0.4-0.8,0.5-1.2c0.1-0.4,0.1-0.9,0.1-1.3c0-0.2-0.1-0.5-0.1-0.7c0-0.1-0.1-0.2-0.1-0.4c-0.1-0.1-0.1-0.3-0.2-0.4
		c-0.1,0.1-0.2,0.2-0.3,0.3c-0.1,0.1-0.2,0.2-0.3,0.3c-0.2,0.2-0.3,0.4-0.4,0.6c-0.2,0.4-0.4,0.8-0.5,1.2c-0.1,0.4-0.1,0.9-0.1,1.3
		c0,0.2,0.1,0.5,0.1,0.7c0,0.1,0.1,0.2,0.1,0.4C133,43,133.1,43.1,133.2,43.3"/>
	<path class="st1" d="M123.3,32.3c0.1,0.1,0.3,0.1,0.4,0.1c0.1,0,0.3,0.1,0.4,0.1c0.3,0,0.5,0.1,0.7,0.1c0.5,0,0.9-0.1,1.3-0.3
		c0.4-0.2,0.8-0.4,1.2-0.7c0.2-0.1,0.4-0.3,0.5-0.5c0.1-0.1,0.2-0.2,0.2-0.3c0.1-0.1,0.2-0.2,0.2-0.4c-0.1-0.1-0.3-0.1-0.4-0.2
		c-0.1,0-0.3-0.1-0.4-0.1c-0.3,0-0.5-0.1-0.7-0.1c-0.5,0-0.9,0.1-1.3,0.3c-0.4,0.2-0.8,0.4-1.2,0.7c-0.2,0.1-0.4,0.3-0.5,0.5
		c-0.1,0.1-0.2,0.2-0.2,0.3C123.5,32,123.4,32.1,123.3,32.3"/>
	<path class="st1" d="M120.7,27.7c0.1,0.1,0.2,0.2,0.3,0.3c0.1,0.1,0.2,0.1,0.3,0.2c0.2,0.1,0.5,0.2,0.7,0.3
		c0.5,0.1,0.9,0.2,1.3,0.1c0.4,0,0.9-0.1,1.3-0.3c0.2-0.1,0.4-0.2,0.6-0.3c0.1-0.1,0.2-0.1,0.3-0.2c0.1-0.1,0.2-0.2,0.3-0.3
		c-0.1-0.1-0.2-0.2-0.3-0.3c-0.1-0.1-0.2-0.1-0.3-0.2c-0.2-0.1-0.5-0.2-0.7-0.3c-0.5-0.1-0.9-0.2-1.3-0.1c-0.4,0-0.9,0.1-1.3,0.3
		c-0.2,0.1-0.4,0.2-0.6,0.3c-0.1,0.1-0.2,0.1-0.3,0.2C120.9,27.5,120.8,27.6,120.7,27.7"/>
	<path class="st1" d="M127,33.9c0.2,0,0.3,0,0.4,0c0.1,0,0.3,0,0.4,0c0.3,0,0.5-0.1,0.7-0.1c0.4-0.1,0.8-0.3,1.2-0.6
		c0.4-0.3,0.7-0.6,1-1c0.1-0.2,0.3-0.4,0.4-0.6c0.1-0.1,0.1-0.2,0.1-0.4c0-0.1,0.1-0.3,0.1-0.4c-0.2,0-0.3,0-0.4,0
		c-0.1,0-0.3,0-0.4,0c-0.3,0-0.5,0.1-0.7,0.1c-0.4,0.1-0.8,0.3-1.2,0.6c-0.4,0.3-0.7,0.6-0.9,1c-0.1,0.2-0.3,0.4-0.4,0.6
		c-0.1,0.1-0.1,0.2-0.1,0.4C127.1,33.6,127,33.8,127,33.9"/>
	<path class="st1" d="M125.7,28.9c0.1,0.1,0.2,0.2,0.4,0.2c0.1,0.1,0.2,0.1,0.4,0.2c0.2,0.1,0.5,0.2,0.7,0.2c0.5,0.1,0.9,0.1,1.3,0
		c0.4-0.1,0.9-0.2,1.3-0.4c0.2-0.1,0.4-0.2,0.6-0.4c0.1-0.1,0.2-0.2,0.3-0.3c0.1-0.1,0.2-0.2,0.3-0.3c-0.1-0.1-0.2-0.2-0.4-0.2
		c-0.1-0.1-0.2-0.1-0.4-0.2c-0.2-0.1-0.5-0.2-0.7-0.2c-0.5-0.1-0.9-0.1-1.3,0c-0.4,0.1-0.9,0.2-1.3,0.4c-0.2,0.1-0.4,0.2-0.6,0.4
		c-0.1,0.1-0.2,0.2-0.3,0.3C125.9,28.7,125.8,28.8,125.7,28.9"/>
	<path class="st1" d="M124.4,38.8c0.2,0,0.3,0,0.4-0.1c0.1,0,0.3-0.1,0.4-0.1c0.2-0.1,0.5-0.2,0.7-0.3c0.4-0.2,0.8-0.5,1-0.8
		c0.3-0.3,0.5-0.7,0.7-1.1c0.1-0.2,0.2-0.4,0.2-0.7c0-0.1,0-0.3,0.1-0.4c0-0.1,0-0.3,0-0.4c-0.2,0-0.3,0-0.4,0.1
		c-0.1,0-0.3,0.1-0.4,0.1c-0.2,0.1-0.5,0.2-0.7,0.3c-0.4,0.2-0.8,0.5-1,0.9c-0.3,0.3-0.5,0.7-0.7,1.1c-0.1,0.2-0.2,0.4-0.2,0.7
		c0,0.1,0,0.3-0.1,0.4C124.4,38.5,124.4,38.7,124.4,38.8"/>
	<path class="st1" d="M125.2,42.5c0.2,0,0.3-0.1,0.4-0.1c0.1,0,0.3-0.1,0.4-0.1c0.2-0.1,0.4-0.2,0.6-0.4c0.4-0.3,0.7-0.6,0.9-1
		c0.3-0.4,0.5-0.8,0.6-1.2c0.1-0.2,0.1-0.5,0.1-0.7c0-0.1,0-0.3,0-0.4c0-0.1,0-0.3,0-0.4c-0.2,0-0.3,0.1-0.4,0.1
		c-0.1,0-0.3,0.1-0.4,0.1c-0.2,0.1-0.4,0.2-0.6,0.4c-0.4,0.3-0.7,0.6-0.9,1c-0.3,0.4-0.5,0.8-0.6,1.2c-0.1,0.2-0.1,0.5-0.1,0.7
		c0,0.1,0,0.3,0,0.4C125.1,42.2,125.2,42.4,125.2,42.5"/>
	<path class="st1" d="M129.3,45.8c0.2-0.1,0.3-0.1,0.4-0.2c0.1-0.1,0.2-0.1,0.3-0.2c0.2-0.1,0.4-0.3,0.6-0.5
		c0.3-0.3,0.6-0.7,0.8-1.1c0.2-0.4,0.3-0.8,0.4-1.3c0-0.2,0-0.5,0-0.7c0-0.1,0-0.3,0-0.4c0-0.1-0.1-0.3-0.1-0.4
		c-0.2,0.1-0.3,0.1-0.4,0.2c-0.1,0.1-0.2,0.1-0.3,0.2c-0.2,0.1-0.4,0.3-0.6,0.5c-0.3,0.3-0.6,0.7-0.8,1.1c-0.2,0.4-0.3,0.8-0.4,1.3
		c0,0.2,0,0.5,0,0.7c0,0.1,0,0.3,0,0.4C129.3,45.5,129.3,45.7,129.3,45.8"/>
	<path class="st1" d="M119.9,40.3c0.2,0,0.3,0,0.4,0c0.1,0,0.3,0,0.4-0.1c0.3-0.1,0.5-0.1,0.7-0.2c0.4-0.2,0.8-0.4,1.1-0.7
		c0.3-0.3,0.6-0.6,0.9-1c0.1-0.2,0.2-0.4,0.3-0.7c0-0.1,0.1-0.2,0.1-0.4c0-0.1,0.1-0.3,0.1-0.4c-0.2,0-0.3,0-0.4,0
		c-0.1,0-0.3,0-0.4,0.1c-0.3,0.1-0.5,0.1-0.7,0.2c-0.4,0.2-0.8,0.4-1.1,0.7c-0.3,0.3-0.6,0.6-0.9,1c-0.1,0.2-0.2,0.4-0.3,0.7
		c0,0.1-0.1,0.2-0.1,0.4C120,40,119.9,40.1,119.9,40.3"/>
	<path class="st1" d="M117.7,34.8c0.1,0.1,0.3,0.1,0.4,0.1c0.1,0,0.3,0.1,0.4,0.1c0.3,0,0.5,0,0.7,0c0.5,0,0.9-0.1,1.3-0.3
		c0.4-0.2,0.8-0.4,1.2-0.7c0.2-0.2,0.3-0.3,0.5-0.5c0.1-0.1,0.2-0.2,0.2-0.3c0.1-0.1,0.1-0.2,0.2-0.4c-0.1-0.1-0.3-0.1-0.4-0.1
		c-0.1,0-0.3-0.1-0.4-0.1c-0.3,0-0.5,0-0.7,0c-0.5,0-0.9,0.1-1.3,0.3c-0.4,0.2-0.8,0.4-1.2,0.7c-0.2,0.2-0.4,0.3-0.5,0.5
		c-0.1,0.1-0.2,0.2-0.2,0.3C117.8,34.6,117.7,34.7,117.7,34.8"/>
	<path class="st1" d="M115.8,39c0.2,0,0.3,0.1,0.4,0.1c0.1,0,0.3,0,0.4,0c0.3,0,0.5,0,0.7-0.1c0.5-0.1,0.9-0.3,1.3-0.5
		c0.4-0.2,0.7-0.5,1-0.9c0.2-0.2,0.3-0.4,0.4-0.6c0.1-0.1,0.1-0.2,0.2-0.4c0.1-0.1,0.1-0.3,0.1-0.4c-0.2,0-0.3-0.1-0.4-0.1
		c-0.1,0-0.3,0-0.4,0c-0.3,0-0.5,0-0.7,0.1c-0.5,0.1-0.9,0.3-1.3,0.5c-0.4,0.2-0.7,0.5-1,0.9c-0.2,0.2-0.3,0.4-0.4,0.6
		c-0.1,0.1-0.1,0.2-0.2,0.4C115.9,38.7,115.8,38.9,115.8,39"/>
	<path class="st1" d="M121,44.2c0.2,0,0.3,0,0.4-0.1c0.1,0,0.3-0.1,0.4-0.1c0.2-0.1,0.5-0.2,0.6-0.3c0.4-0.3,0.7-0.6,1-0.9
		c0.3-0.3,0.5-0.7,0.7-1.2c0.1-0.2,0.1-0.5,0.2-0.7c0-0.1,0-0.3,0-0.4c0-0.1,0-0.3,0-0.4c-0.2,0-0.3,0-0.4,0.1
		c-0.1,0-0.3,0.1-0.4,0.1c-0.2,0.1-0.5,0.2-0.7,0.3c-0.4,0.3-0.7,0.6-1,0.9c-0.3,0.3-0.5,0.7-0.7,1.2c-0.1,0.2-0.1,0.5-0.2,0.7
		c0,0.1,0,0.3,0,0.4C121,43.9,121,44.1,121,44.2"/>
	<path class="st1" d="M125.4,47.3c0.2,0,0.3-0.1,0.4-0.1c0.1-0.1,0.2-0.1,0.4-0.2c0.2-0.1,0.4-0.3,0.6-0.4c0.4-0.3,0.6-0.7,0.9-1
		c0.2-0.4,0.4-0.8,0.5-1.3c0-0.2,0.1-0.5,0.1-0.7c0-0.1,0-0.3,0-0.4c0-0.1,0-0.3-0.1-0.4c-0.2,0-0.3,0.1-0.4,0.1
		c-0.1,0.1-0.2,0.1-0.4,0.2c-0.2,0.1-0.4,0.3-0.6,0.4c-0.4,0.3-0.6,0.7-0.9,1c-0.2,0.4-0.4,0.8-0.5,1.3c0,0.2-0.1,0.5-0.1,0.7
		c0,0.1,0,0.3,0,0.4C125.3,47,125.3,47.2,125.4,47.3"/>
	<path class="st1" d="M132.3,50c0.1-0.1,0.2-0.2,0.3-0.3c0.1-0.1,0.2-0.2,0.3-0.3c0.2-0.2,0.3-0.4,0.4-0.6c0.2-0.4,0.3-0.8,0.4-1.3
		c0.1-0.4,0.1-0.9,0-1.3c0-0.2-0.1-0.5-0.2-0.7c0-0.1-0.1-0.2-0.2-0.4c-0.1-0.1-0.1-0.2-0.2-0.4c-0.1,0.1-0.2,0.2-0.3,0.3
		c-0.1,0.1-0.2,0.2-0.3,0.3c-0.2,0.2-0.3,0.4-0.4,0.6c-0.2,0.4-0.3,0.8-0.4,1.3c-0.1,0.4-0.1,0.9,0,1.3c0,0.2,0.1,0.5,0.2,0.7
		c0,0.1,0.1,0.2,0.2,0.4C132.1,49.7,132.2,49.8,132.3,50"/>
	<path class="st1" d="M113,32.9c0.1,0.1,0.3,0.1,0.4,0.2c0.1,0.1,0.2,0.1,0.4,0.1c0.2,0.1,0.5,0.1,0.7,0.1c0.5,0.1,0.9,0,1.3-0.1
		c0.4-0.1,0.9-0.3,1.3-0.5c0.2-0.1,0.4-0.3,0.6-0.4c0.1-0.1,0.2-0.2,0.3-0.3c0.1-0.1,0.2-0.2,0.3-0.3c-0.1-0.1-0.3-0.1-0.4-0.2
		c-0.1-0.1-0.2-0.1-0.4-0.1c-0.2-0.1-0.5-0.1-0.7-0.1c-0.5-0.1-0.9,0-1.3,0.1c-0.4,0.1-0.9,0.3-1.3,0.5c-0.2,0.1-0.4,0.3-0.6,0.4
		c-0.1,0.1-0.2,0.2-0.3,0.3C113.2,32.7,113.1,32.8,113,32.9"/>
	<path class="st1" d="M114.6,28.9c0.1,0.1,0.2,0.2,0.3,0.3c0.1,0.1,0.2,0.2,0.3,0.2c0.2,0.1,0.4,0.2,0.7,0.3
		c0.4,0.2,0.9,0.2,1.3,0.2c0.4,0,0.9,0,1.3-0.2c0.2-0.1,0.4-0.2,0.7-0.3c0.1-0.1,0.2-0.1,0.3-0.2c0.1-0.1,0.2-0.2,0.3-0.3
		c-0.1-0.1-0.2-0.2-0.3-0.3c-0.1-0.1-0.2-0.2-0.3-0.2c-0.2-0.1-0.4-0.2-0.7-0.3c-0.4-0.2-0.9-0.2-1.3-0.2c-0.4,0-0.9,0.1-1.3,0.2
		c-0.2,0.1-0.4,0.2-0.7,0.3c-0.1,0.1-0.2,0.1-0.3,0.2C114.8,28.7,114.7,28.8,114.6,28.9"/>
	<path class="st1" d="M153.3,31c-0.1,0.1-0.3,0.1-0.4,0.2c-0.1,0.1-0.3,0.1-0.4,0.1c-0.2,0.1-0.5,0.1-0.7,0.1c-0.5,0-0.9,0-1.3-0.1
		c-0.4-0.1-0.8-0.3-1.2-0.5c-0.2-0.1-0.4-0.3-0.6-0.5c-0.1-0.1-0.2-0.2-0.3-0.3c-0.1-0.1-0.2-0.2-0.3-0.4c0.1-0.1,0.3-0.1,0.4-0.2
		c0.1-0.1,0.3-0.1,0.4-0.1c0.2-0.1,0.5-0.1,0.7-0.1c0.5,0,0.9,0,1.3,0.1c0.4,0.1,0.8,0.3,1.2,0.5c0.2,0.1,0.4,0.3,0.6,0.5
		c0.1,0.1,0.2,0.2,0.3,0.3C153.1,30.7,153.2,30.8,153.3,31"/>
	<path class="st1" d="M151.5,27.7c-0.1,0.1-0.2,0.2-0.3,0.3c-0.1,0.1-0.2,0.1-0.3,0.2c-0.2,0.1-0.5,0.2-0.7,0.3
		c-0.5,0.1-0.9,0.2-1.3,0.1c-0.4,0-0.9-0.1-1.3-0.3c-0.2-0.1-0.4-0.2-0.6-0.3c-0.1-0.1-0.2-0.1-0.3-0.2c-0.1-0.1-0.2-0.2-0.3-0.3
		c0.1-0.1,0.2-0.2,0.3-0.3c0.1-0.1,0.2-0.1,0.3-0.2c0.2-0.1,0.5-0.2,0.7-0.3c0.5-0.1,0.9-0.2,1.3-0.1c0.4,0,0.9,0.1,1.3,0.3
		c0.2,0.1,0.4,0.2,0.6,0.3c0.1,0.1,0.2,0.1,0.3,0.2C151.3,27.5,151.4,27.6,151.5,27.7"/>
	<path class="st1" d="M146.5,28.9c-0.1,0.1-0.2,0.2-0.4,0.2c-0.1,0.1-0.2,0.1-0.4,0.2c-0.2,0.1-0.5,0.2-0.7,0.2
		c-0.5,0.1-0.9,0.1-1.3,0c-0.4-0.1-0.9-0.2-1.3-0.4c-0.2-0.1-0.4-0.2-0.6-0.4c-0.1-0.1-0.2-0.2-0.3-0.3c-0.1-0.1-0.2-0.2-0.3-0.3
		c0.1-0.1,0.2-0.2,0.4-0.2c0.1-0.1,0.2-0.1,0.4-0.2c0.2-0.1,0.5-0.2,0.7-0.2c0.5-0.1,0.9-0.1,1.3,0c0.4,0.1,0.9,0.2,1.3,0.4
		c0.2,0.1,0.4,0.2,0.6,0.4c0.1,0.1,0.2,0.2,0.3,0.3C146.3,28.7,146.4,28.8,146.5,28.9"/>
	<path class="st1" d="M156.4,39c-0.2,0-0.3,0.1-0.4,0.1c-0.1,0-0.3,0-0.4,0c-0.3,0-0.5,0-0.7-0.1c-0.5-0.1-0.9-0.3-1.3-0.5
		c-0.4-0.2-0.7-0.5-1-0.9c-0.2-0.2-0.3-0.4-0.4-0.6c-0.1-0.1-0.1-0.2-0.2-0.4c-0.1-0.1-0.1-0.3-0.1-0.4c0.2,0,0.3-0.1,0.4-0.1
		c0.1,0,0.3,0,0.4,0c0.3,0,0.5,0,0.7,0.1c0.5,0.1,0.9,0.3,1.3,0.5c0.4,0.2,0.7,0.5,1,0.9c0.2,0.2,0.3,0.4,0.4,0.6
		c0.1,0.1,0.1,0.2,0.2,0.4C156.3,38.7,156.4,38.9,156.4,39"/>
	<path class="st1" d="M151.2,44.2c-0.2,0-0.3,0-0.4-0.1c-0.1,0-0.3-0.1-0.4-0.1c-0.2-0.1-0.5-0.2-0.6-0.3c-0.4-0.3-0.7-0.6-1-0.9
		c-0.3-0.3-0.5-0.7-0.7-1.2c-0.1-0.2-0.1-0.5-0.2-0.7c0-0.1,0-0.3,0-0.4c0-0.1,0-0.3,0-0.4c0.2,0,0.3,0,0.4,0.1
		c0.1,0,0.3,0.1,0.4,0.1c0.2,0.1,0.5,0.2,0.6,0.3c0.4,0.3,0.7,0.6,1,0.9c0.3,0.3,0.5,0.7,0.7,1.2c0.1,0.2,0.1,0.5,0.2,0.7
		c0,0.1,0,0.3,0,0.4C151.2,43.9,151.2,44.1,151.2,44.2"/>
	<path class="st1" d="M146.8,47.3c-0.2,0-0.3-0.1-0.4-0.1c-0.1-0.1-0.2-0.1-0.4-0.2c-0.2-0.1-0.4-0.3-0.6-0.4
		c-0.4-0.3-0.6-0.7-0.9-1c-0.2-0.4-0.4-0.8-0.5-1.3c0-0.2-0.1-0.5-0.1-0.7c0-0.1,0-0.3,0-0.4c0-0.1,0-0.3,0.1-0.4
		c0.2,0,0.3,0.1,0.4,0.1c0.1,0.1,0.2,0.1,0.4,0.2c0.2,0.1,0.4,0.3,0.6,0.4c0.4,0.3,0.6,0.7,0.9,1c0.2,0.4,0.4,0.8,0.5,1.3
		c0,0.2,0.1,0.5,0.1,0.7c0,0.1,0,0.3,0,0.4C146.9,47,146.9,47.2,146.8,47.3"/>
	<path class="st1" d="M139.9,50c-0.1-0.1-0.2-0.2-0.3-0.3c-0.1-0.1-0.2-0.2-0.3-0.3c-0.2-0.2-0.3-0.4-0.4-0.6
		c-0.2-0.4-0.3-0.8-0.4-1.3c-0.1-0.4-0.1-0.9,0-1.3c0-0.2,0.1-0.5,0.2-0.7c0-0.1,0.1-0.2,0.2-0.4c0.1-0.1,0.1-0.2,0.2-0.4
		c0.1,0.1,0.2,0.2,0.3,0.3c0.1,0.1,0.2,0.2,0.3,0.3c0.2,0.2,0.3,0.4,0.4,0.6c0.2,0.4,0.3,0.8,0.4,1.3c0.1,0.4,0.1,0.9,0,1.3
		c0,0.2-0.1,0.5-0.2,0.7c0,0.1-0.1,0.2-0.2,0.4C140.1,49.7,140,49.8,139.9,50"/>
	<path class="st1" d="M159.2,32.9c-0.1,0.1-0.3,0.1-0.4,0.2c-0.1,0.1-0.2,0.1-0.4,0.1c-0.2,0.1-0.5,0.1-0.7,0.1
		c-0.5,0.1-0.9,0-1.3-0.1c-0.4-0.1-0.9-0.3-1.3-0.5c-0.2-0.1-0.4-0.3-0.6-0.4c-0.1-0.1-0.2-0.2-0.3-0.3c-0.1-0.1-0.2-0.2-0.3-0.3
		c0.1-0.1,0.3-0.1,0.4-0.2c0.1-0.1,0.2-0.1,0.4-0.1c0.2-0.1,0.5-0.1,0.7-0.1c0.5-0.1,0.9,0,1.3,0.1c0.4,0.1,0.9,0.3,1.3,0.5
		c0.2,0.1,0.4,0.3,0.6,0.4c0.1,0.1,0.2,0.2,0.3,0.3C159,32.7,159.1,32.8,159.2,32.9"/>
	<path class="st1" d="M157.6,28.9c-0.1,0.1-0.2,0.2-0.3,0.3c-0.1,0.1-0.2,0.2-0.3,0.2c-0.2,0.1-0.4,0.2-0.7,0.3
		c-0.4,0.2-0.9,0.2-1.3,0.2c-0.4,0-0.9,0-1.3-0.2c-0.2-0.1-0.4-0.2-0.7-0.3c-0.1-0.1-0.2-0.1-0.3-0.2c-0.1-0.1-0.2-0.2-0.3-0.3
		c0.1-0.1,0.2-0.2,0.3-0.3c0.1-0.1,0.2-0.2,0.3-0.2c0.2-0.1,0.4-0.2,0.7-0.3c0.4-0.2,0.9-0.2,1.3-0.2c0.4,0,0.9,0.1,1.3,0.2
		c0.2,0.1,0.4,0.2,0.7,0.3c0.1,0.1,0.2,0.1,0.3,0.2C157.4,28.7,157.5,28.8,157.6,28.9"/>
	<g>
		<path class="st1" d="M62.2,93c0,0.1,0,0.1-0.1,0.1c-0.1,0-0.2-0.1-0.2-0.3c0-0.1,0-0.3,0-0.4c-0.1-0.3-0.1-0.5-0.3-0.7
			c-0.2-0.2-0.4-0.4-0.8-0.5c-0.2,0-0.4-0.1-0.6-0.1c-0.3,0-0.6,0-0.6,0v6.7c0,0.3,0.1,0.4,0.2,0.5c0.1,0,0.3,0.1,0.6,0.1
			c0.1,0,0.1,0,0.1,0.1c0,0.1-0.1,0.1-0.2,0.1c-0.1,0-0.1,0-0.2,0c-0.4,0-0.8,0-0.9,0c-0.2,0-0.5,0-0.7,0c-0.2,0-0.5,0-0.8,0
			c-0.2,0-0.3,0-0.3-0.1c0-0.1,0.2-0.1,0.5-0.1c0.2,0,0.4,0,0.4-0.1c0-0.1,0.1-0.2,0.1-0.5v-6.7c-0.7,0-1.2,0-1.4,0.1
			c-0.5,0.2-0.7,0.6-0.8,1.4c0,0.2-0.1,0.3-0.2,0.3C56.1,93,56,93,56,92.8c0-0.1,0-0.2,0-0.2l0-0.3c0-0.3,0.1-0.8,0.1-1.3h0.5l2.3,0
			c0.3,0,0.7,0,1.2,0l1.8,0c0,0.4,0.1,1,0.1,1.8C62.1,92.8,62.1,92.9,62.2,93C62.2,92.9,62.2,92.9,62.2,93z"/>
		<path class="st1" d="M73.3,98.6c0,0.1-0.1,0.1-0.3,0.1c0,0,0,0-0.1,0c-0.1,0-0.1,0-0.2,0h-0.8c-0.1,0-0.2,0-0.2,0h-0.2
			c-0.2,0-0.2,0-0.2-0.1c0,0,0.1-0.1,0.2-0.1c0.2,0,0.4,0,0.4-0.1c0,0,0-0.2,0-0.4v-2h-2.1v2.3c0,0.1,0,0.1,0.1,0.2c0,0,0.2,0,0.4,0
			c0.1,0,0.1,0,0.1,0.1c0,0.1-0.1,0.1-0.2,0.1h-0.2c-0.1,0-0.3,0-0.5,0h-1.1c-0.1,0-0.2,0-0.2-0.1c0-0.1,0.1-0.1,0.3-0.1
			c0.2,0,0.3-0.1,0.3-0.1v-4.1c0-0.2,0-0.3,0-0.3c0-0.1-0.1-0.1-0.2-0.1c-0.3,0-0.4,0-0.4-0.1c0,0,0.1-0.1,0.2-0.1h0.1
			c0.2,0,0.3,0,0.4,0c0.1,0,0.2,0,0.3,0c0.1,0,0.2,0,0.4,0c0.2,0,0.3,0,0.4,0H70c0.1,0,0.2,0,0.2,0.1c0,0.1-0.1,0.1-0.3,0.1
			c-0.1,0-0.2,0-0.2,0c0,0,0,0.1,0,0.2v1.8h2.1v-1.5c0-0.2,0-0.4,0-0.4c0-0.1-0.1-0.1-0.2-0.1h-0.2c-0.1,0-0.1,0-0.1-0.1
			c0-0.1,0.1-0.1,0.2-0.1h0.2c0.1,0,0.2,0,0.4,0c0.2,0,0.3,0,0.4,0c0.2,0,0.3,0,0.4,0H73c0.2,0,0.3,0,0.3,0.1c0,0.1-0.1,0.1-0.2,0.1
			c-0.1,0-0.2,0-0.2,0c-0.1,0-0.2,0-0.2,0.1c0,0,0,0.2,0,0.4v3.8c0,0.3,0,0.4,0.1,0.4c0,0,0.2,0,0.4,0
			C73.2,98.5,73.3,98.5,73.3,98.6z"/>
		<path class="st1" d="M83.5,97.5c0,0,0,0.1,0,0.1c0,0.1,0,0.2,0,0.2v0.6c0,0.1,0,0.1,0,0.2l-1.9,0l-2.1,0c-0.2,0-0.2,0-0.2-0.1
			c0-0.1,0-0.1,0.1-0.1c0.2,0,0.4,0,0.4-0.1c0,0,0.1-0.2,0.1-0.4v-3.8c0-0.3,0-0.5-0.1-0.5c-0.1,0-0.2,0-0.4,0c-0.1,0-0.1,0-0.1-0.1
			c0-0.1,0-0.1,0.1-0.1h0.3c0.1,0,0.1,0,0.2,0h0.1h0.3c0,0,0.2,0,0.6,0c0.3,0,0.7,0,1.2,0h0.7c0.2,0,0.4,0,0.5,0v0.1l0,0.2
			c0,0.1,0,0.4,0.1,1c0,0,0,0.1,0,0.1c0,0.1,0,0.1-0.1,0.1c-0.1,0-0.1-0.1-0.1-0.2c-0.1-0.6-0.3-0.9-0.6-1c-0.2-0.1-0.5-0.1-1.1-0.1
			h-0.6v2.1h0.3c0.5,0,0.8,0,0.9-0.1c0.1-0.1,0.2-0.3,0.2-0.6c0-0.2,0.1-0.3,0.1-0.3c0.1,0,0.1,0.1,0.1,0.2c0,0.1,0,0.2,0,0.4
			c0,0.2,0,0.3,0,0.4c0,0.5,0,0.8,0,1c0,0.1,0,0.1,0,0.1c0,0.1,0,0.2-0.1,0.2c-0.1,0-0.1-0.1-0.1-0.3c0-0.4-0.1-0.6-0.2-0.7
			c-0.1-0.1-0.4-0.1-0.9-0.1h-0.3v2.4c1.1,0,1.7,0,1.9-0.1c0.3-0.1,0.5-0.4,0.5-1.1c0-0.1,0-0.2,0.1-0.2
			C83.5,97.2,83.5,97.3,83.5,97.5z"/>
		<path class="st1" d="M101.4,97.7c0,0.4,0,0.8,0,1c0,0-0.1,0-0.2,0c0,0-0.1,0-0.2,0c-0.1,0-0.2,0-0.4,0h-0.5l-1.9,0h-0.9
			c-0.1,0-0.1,0-0.1-0.1c0,0,0.1-0.1,0.4-0.1c0.1,0,0.1,0,0.1-0.1c0,0,0-0.1,0-0.2v-3.7c0-0.4,0-0.6-0.1-0.7c0,0-0.1,0-0.2,0
			s-0.2,0-0.2,0c-0.1,0-0.1,0-0.1-0.1c0-0.1,0-0.1,0.1-0.1h1.5c0.1,0,0.2,0,0.3,0c0.1,0,0.2,0,0.2,0.1c0,0-0.1,0.1-0.4,0.1
			c-0.1,0-0.2,0-0.2,0.1c0,0,0,0.2,0,0.5v4.1c0.3,0,0.5,0,0.6,0c0.8,0,1.3-0.1,1.5-0.2c0.2-0.1,0.3-0.4,0.3-0.8
			c0-0.2,0.1-0.3,0.1-0.3C101.3,97.2,101.4,97.3,101.4,97.7z"/>
		<path class="st1" d="M109.4,98.6C109.4,98.7,109.4,98.7,109.4,98.6l-0.2,0.1H109h-0.3c-0.1,0-0.1,0-0.2,0c-0.1,0-0.1,0-0.1,0
			c-0.1,0-0.2,0-0.4,0c-0.2,0-0.4,0-0.5,0h0c-0.1,0-0.2,0-0.2-0.1c0-0.1,0.1-0.1,0.2-0.1c0.2,0,0.3,0,0.3-0.1c0,0,0-0.2,0-0.5v-3.6
			c0-0.3,0-0.5,0-0.5c0,0-0.1-0.1-0.2-0.1h-0.2h-0.1c-0.1,0-0.1,0-0.1-0.1c0-0.1,0-0.1,0.1-0.1c0,0,0,0,0.1,0c0.1,0,0.1,0,0.2,0h0.8
			c0,0,0.1,0,0.2,0c0.1,0,0.2,0,0.2,0h0.3c0.1,0,0.2,0,0.2,0.1c0,0-0.1,0.1-0.4,0.1c-0.1,0-0.2,0-0.2,0.1c0,0,0,0.1,0,0.3v4.2
			c0,0.1,0,0.1,0.1,0.1c0.1,0,0.2,0,0.4,0.1C109.4,98.5,109.4,98.6,109.4,98.6z"/>
		<path class="st1" d="M119.5,95c0,0.1,0,0.1-0.1,0.1c-0.1,0-0.1-0.1-0.1-0.2c-0.1-0.4-0.2-0.7-0.3-0.8c-0.2-0.2-0.6-0.2-1.2-0.2
			c-0.2,0-0.4,0-0.8,0v2.1h0.3c0.5,0,0.8,0,0.9-0.1c0.1-0.1,0.2-0.4,0.2-0.8c0-0.1,0-0.1,0.1-0.1c0.1,0,0.1,0.1,0.1,0.2
			c0,0.1,0,0.1,0,0.2c0,0.1,0,0.4,0,0.8c0,0.1,0,0.2,0,0.3c0,0.2,0,0.4,0,0.6v0c0,0.1,0,0.2-0.1,0.2c-0.1,0-0.1-0.1-0.1-0.2
			c-0.1-0.4-0.1-0.7-0.2-0.8c-0.1-0.1-0.4-0.1-0.8-0.1H117v2.1c0,0.1,0,0.2,0.2,0.3c0,0,0.1,0,0.3,0c0.1,0,0.2,0,0.2,0.1
			c0,0.1,0,0.1-0.1,0.1h-0.1c-0.1,0-0.1,0-0.3,0c-0.1,0-0.2,0-0.2,0H116c-0.1,0-0.2,0-0.2,0c-0.1,0-0.1,0-0.1,0
			c-0.1,0-0.2,0-0.2-0.1c0-0.1,0.1-0.1,0.2-0.1c0.2,0,0.4,0,0.4-0.1c0,0,0.1-0.1,0.1-0.3v-3.9c0-0.2,0-0.3-0.1-0.3
			c0,0-0.2-0.1-0.4-0.1c-0.1,0-0.2,0-0.2-0.1c0-0.1,0.1-0.1,0.2-0.1h2.1c0.8,0,1.3,0,1.6,0l0,0.1l0,0.5l0.1,0.6
			C119.5,94.9,119.5,95,119.5,95z"/>
		<path class="st1" d="M129.7,97.5c0,0,0,0.1,0,0.1c0,0.1,0,0.2,0,0.2v0.6c0,0.1,0,0.1,0,0.2l-1.9,0l-2.1,0c-0.2,0-0.2,0-0.2-0.1
			c0-0.1,0-0.1,0.1-0.1c0.2,0,0.4,0,0.4-0.1c0,0,0.1-0.2,0.1-0.4v-3.8c0-0.3,0-0.5-0.1-0.5c-0.1,0-0.2,0-0.4,0c-0.1,0-0.1,0-0.1-0.1
			c0-0.1,0-0.1,0.1-0.1h0.3c0.1,0,0.1,0,0.2,0h0.1h0.3c0,0,0.2,0,0.6,0c0.3,0,0.7,0,1.2,0h0.7c0.2,0,0.4,0,0.5,0v0.1l0,0.2
			c0,0.1,0,0.4,0.1,1c0,0,0,0.1,0,0.1c0,0.1,0,0.1-0.1,0.1c-0.1,0-0.1-0.1-0.1-0.2c-0.1-0.6-0.3-0.9-0.6-1c-0.2-0.1-0.5-0.1-1.1-0.1
			H127v2.1h0.3c0.5,0,0.8,0,0.9-0.1c0.1-0.1,0.2-0.3,0.2-0.6c0-0.2,0.1-0.3,0.1-0.3c0.1,0,0.1,0.1,0.1,0.2c0,0.1,0,0.2,0,0.4
			c0,0.2,0,0.3,0,0.4c0,0.5,0,0.8,0,1c0,0.1,0,0.1,0,0.1c0,0.1,0,0.2-0.1,0.2c-0.1,0-0.1-0.1-0.1-0.3c0-0.4-0.1-0.6-0.2-0.7
			c-0.1-0.1-0.4-0.1-0.9-0.1H127v2.4c1.1,0,1.7,0,1.9-0.1c0.3-0.1,0.5-0.4,0.5-1.1c0-0.1,0-0.2,0.1-0.2S129.7,97.3,129.7,97.5z"/>
		<path class="st1" d="M139.1,97.2c0,0.4-0.2,0.8-0.5,1.1c-0.4,0.3-0.8,0.4-1.3,0.4c-0.4,0-0.8-0.1-1.2-0.3c0,0-0.1,0-0.1,0
			c0,0-0.1,0-0.1,0.1c0,0.1,0,0.1,0,0.2c0,0.1-0.1,0.1-0.1,0.1c-0.1,0-0.1,0-0.1-0.1c0,0,0-0.1,0-0.3c0-0.2,0-0.4,0-0.5
			c0-0.1,0-0.2,0-0.3c0-0.1,0-0.2,0-0.3c0-0.1,0-0.2,0.1-0.2c0.1,0,0.1,0.1,0.2,0.3c0.1,0.8,0.6,1.2,1.3,1.2c0.6,0,0.9-0.3,0.9-0.9
			c0-0.3-0.1-0.5-0.2-0.7c-0.1-0.2-0.4-0.4-0.9-0.6c-0.6-0.3-0.9-0.5-1.1-0.7c-0.2-0.2-0.3-0.5-0.3-0.8c0-0.4,0.1-0.7,0.4-1
			c0.3-0.3,0.7-0.4,1.1-0.4c0.3,0,0.6,0.1,0.9,0.3c0,0,0.1,0,0.1,0c0.1,0,0.1-0.1,0.1-0.2c0-0.1,0.1-0.2,0.1-0.2
			c0.1,0,0.1,0,0.1,0.1c0,0,0,0,0,0.1c0,0.1,0,0.3,0,0.5c0,0.1,0,0.3,0,0.6c0,0,0,0.1,0,0.1c0,0.1,0,0.1-0.1,0.1
			c-0.1,0-0.1-0.1-0.1-0.2c-0.1-0.3-0.2-0.6-0.4-0.8c-0.2-0.2-0.4-0.3-0.7-0.3c-0.5,0-0.8,0.3-0.8,0.9c0,0.3,0.1,0.5,0.2,0.6
			c0.1,0.1,0.2,0.2,0.2,0.2c0.1,0.1,0.3,0.2,0.8,0.4c0.5,0.2,0.8,0.5,1,0.7C139,96.7,139.1,97,139.1,97.2z"/>
		<path class="st1" d="M149.5,95c0,0.1,0,0.2-0.1,0.2c-0.1,0-0.1-0.1-0.2-0.2c0-0.3-0.1-0.5-0.2-0.7c-0.1-0.3-0.5-0.4-1-0.4
			c-0.1,0-0.2,0-0.3,0v4.5c0,0.1,0.1,0.2,0.3,0.2c0.2,0,0.3,0,0.3,0.1c0,0.1-0.1,0.1-0.2,0.1h-0.1c-0.1,0-0.2,0-0.3,0
			c-0.1,0-0.2,0-0.3,0c0,0-0.1,0-0.3,0c-0.2,0-0.4,0-0.6,0h-0.3c-0.1,0-0.2,0-0.2-0.1c0-0.1,0.1-0.1,0.4-0.1c0.1,0,0.1,0,0.2,0
			c0.1,0,0.1-0.1,0.1-0.1c0-0.1,0-0.3,0-0.6v-4c-0.6,0-1,0.1-1.1,0.2c-0.2,0.1-0.3,0.4-0.3,0.9c0,0.2-0.1,0.3-0.1,0.3
			c-0.1,0-0.1-0.1-0.1-0.3c0-0.2,0-0.6,0.1-1.2h2.6c0.2,0,0.7,0,1.4,0c0.1,0,0.1,0,0.2,0l0,0.2l0,0.4l0,0.5l0,0.2
			C149.5,94.9,149.5,95,149.5,95z"/>
		<path class="st1" d="M160.1,93.7c0,0,0,0.1-0.1,0.1c-0.3,0-0.4,0.1-0.5,0.1c-0.1,0.1-0.2,0.3-0.5,0.9c-0.2,0.5-0.5,0.9-0.7,1.3
			c-0.1,0.2-0.2,0.3-0.2,0.3c0,0.1,0,0.2,0,0.4v1.4c0,0.1,0,0.2,0.1,0.3c0,0,0.2,0,0.5,0.1c0.1,0,0.2,0,0.2,0.1
			c0,0.1-0.1,0.1-0.2,0.1h-0.1h-0.2h-0.3c-0.1,0-0.2,0-0.3,0c-0.2,0-0.3,0-0.3,0c0,0,0,0-0.2,0c-0.1,0-0.3,0-0.5,0h-0.1
			c-0.1,0-0.1,0-0.1-0.1c0-0.1,0.1-0.1,0.3-0.1c0.2,0,0.3,0,0.4-0.1c0,0,0-0.2,0-0.4v-1.5c0-0.1-0.1-0.2-0.2-0.4l-0.8-1.4
			c-0.1-0.2-0.2-0.4-0.3-0.5c-0.1-0.1-0.1-0.3-0.2-0.4c-0.1-0.1-0.3-0.1-0.6-0.1c-0.1,0-0.1,0-0.1-0.1c0-0.1,0-0.1,0.1-0.1
			c0,0,0.1,0,0.2,0c0.1,0,0.3,0,0.5,0h0.3h1c0,0,0.1,0,0.1,0c0.1,0,0.2,0,0.2,0.1c0,0.1-0.1,0.1-0.3,0.1c-0.3,0-0.4,0-0.4,0.1
			c0,0.1,0.4,0.8,1.2,2.2c0.8-1.4,1.1-2.1,1.1-2.2c0-0.1-0.1-0.1-0.2-0.1h-0.2h-0.1c-0.1,0-0.2,0-0.2-0.1c0-0.1,0.1-0.1,0.2-0.1h0.4
			h0.3C159.8,93.6,160.1,93.6,160.1,93.7z"/>
		<path class="st1" d="M170.1,97.7c0,0.4,0,0.8,0,1c0,0-0.1,0-0.2,0c0,0-0.1,0-0.2,0c-0.1,0-0.2,0-0.4,0h-0.5l-1.9,0H166
			c-0.1,0-0.1,0-0.1-0.1c0,0,0.1-0.1,0.4-0.1c0.1,0,0.1,0,0.2-0.1c0,0,0-0.1,0-0.2v-3.7c0-0.4,0-0.6-0.1-0.7c0,0-0.1,0-0.2,0
			c-0.1,0-0.2,0-0.2,0c-0.1,0-0.1,0-0.1-0.1c0-0.1,0-0.1,0.1-0.1h1.5c0.1,0,0.2,0,0.3,0c0.1,0,0.2,0,0.2,0.1c0,0-0.1,0.1-0.4,0.1
			c-0.1,0-0.2,0-0.2,0.1c0,0,0,0.2,0,0.5v4.1c0.3,0,0.5,0,0.6,0c0.8,0,1.3-0.1,1.5-0.2c0.2-0.1,0.3-0.4,0.3-0.8
			c0-0.2,0.1-0.3,0.1-0.3C170,97.2,170.1,97.3,170.1,97.7z"/>
		<path class="st1" d="M180.2,97.5c0,0,0,0.1,0,0.1c0,0.1,0,0.2,0,0.2v0.6c0,0.1,0,0.1,0,0.2l-1.9,0l-2.1,0c-0.2,0-0.2,0-0.2-0.1
			c0-0.1,0-0.1,0.1-0.1c0.2,0,0.4,0,0.4-0.1c0,0,0.1-0.2,0.1-0.4v-3.8c0-0.3,0-0.5-0.1-0.5c-0.1,0-0.2,0-0.4,0c-0.1,0-0.1,0-0.1-0.1
			c0-0.1,0-0.1,0.1-0.1h0.3c0.1,0,0.1,0,0.2,0h0.1h0.3c0,0,0.2,0,0.6,0c0.3,0,0.7,0,1.2,0h0.7c0.2,0,0.4,0,0.5,0v0.1l0,0.2
			c0,0.1,0,0.4,0.1,1c0,0,0,0.1,0,0.1c0,0.1,0,0.1-0.1,0.1c-0.1,0-0.1-0.1-0.1-0.2c-0.1-0.6-0.3-0.9-0.6-1c-0.2-0.1-0.5-0.1-1.1-0.1
			h-0.6v2.1h0.3c0.5,0,0.8,0,0.9-0.1c0.1-0.1,0.2-0.3,0.2-0.6c0-0.2,0.1-0.3,0.1-0.3c0.1,0,0.1,0.1,0.1,0.2c0,0.1,0,0.2,0,0.4
			c0,0.2,0,0.3,0,0.4c0,0.5,0,0.8,0,1c0,0.1,0,0.1,0,0.1c0,0.1,0,0.2-0.1,0.2c-0.1,0-0.1-0.1-0.1-0.3c0-0.4-0.1-0.6-0.2-0.7
			c-0.1-0.1-0.4-0.1-0.9-0.1h-0.3v2.4c1.1,0,1.7,0,1.9-0.1c0.3-0.1,0.5-0.4,0.5-1.1c0-0.1,0-0.2,0.1-0.2
			C180.1,97.2,180.2,97.3,180.2,97.5z"/>
		<path class="st1" d="M197.3,97.2c0,0.4-0.2,0.8-0.5,1.1c-0.4,0.3-0.8,0.4-1.3,0.4c-0.4,0-0.8-0.1-1.2-0.3c0,0-0.1,0-0.1,0
			c0,0-0.1,0-0.1,0.1c0,0.1,0,0.1,0,0.2c0,0.1-0.1,0.1-0.1,0.1c-0.1,0-0.1,0-0.1-0.1c0,0,0-0.1,0-0.3c0-0.2,0-0.4,0-0.5
			c0-0.1,0-0.2,0-0.3c0-0.1,0-0.2,0-0.3c0-0.1,0-0.2,0.1-0.2c0.1,0,0.1,0.1,0.2,0.3c0.1,0.8,0.6,1.2,1.3,1.2c0.6,0,0.9-0.3,0.9-0.9
			c0-0.3-0.1-0.5-0.2-0.7c-0.1-0.2-0.4-0.4-0.9-0.6c-0.6-0.3-0.9-0.5-1.1-0.7c-0.2-0.2-0.3-0.5-0.3-0.8c0-0.4,0.1-0.7,0.4-1
			c0.3-0.3,0.7-0.4,1.1-0.4c0.3,0,0.6,0.1,0.9,0.3c0,0,0.1,0,0.1,0c0.1,0,0.1-0.1,0.1-0.2c0-0.1,0.1-0.2,0.1-0.2
			c0.1,0,0.1,0,0.1,0.1c0,0,0,0,0,0.1c0,0.1,0,0.3,0,0.5c0,0.1,0,0.3,0,0.6c0,0,0,0.1,0,0.1c0,0.1,0,0.1-0.1,0.1
			c-0.1,0-0.1-0.1-0.1-0.2c-0.1-0.3-0.2-0.6-0.4-0.8c-0.2-0.2-0.4-0.3-0.7-0.3c-0.5,0-0.8,0.3-0.8,0.9c0,0.3,0.1,0.5,0.2,0.6
			c0.1,0.1,0.2,0.2,0.2,0.2c0.1,0.1,0.3,0.2,0.8,0.4c0.5,0.2,0.8,0.5,1,0.7C197.2,96.7,197.3,97,197.3,97.2z"/>
		<path class="st1" d="M207.1,94.8c0,0.4-0.2,0.7-0.5,1c-0.3,0.2-0.8,0.4-1.3,0.4c-0.1,0-0.2,0-0.4,0h-0.1v2c0,0.2,0,0.3,0.1,0.3
			c0.1,0,0.2,0,0.4,0c0.1,0,0.1,0,0.1,0.1c0,0,0,0.1-0.1,0.1c-0.1,0-0.4,0-0.9,0c-0.6,0-1,0-1.1,0c-0.1,0-0.2,0-0.2-0.1
			c0-0.1,0-0.1,0.1-0.1h0.2c0.2,0,0.3,0,0.3,0c0,0,0.1,0,0.1,0c0,0,0-0.1,0-0.4v-3.7c0-0.3,0-0.5,0-0.5c0-0.1-0.1-0.1-0.4-0.1h-0.1
			c-0.1,0-0.1,0-0.1-0.1c0,0,0-0.1,0.1-0.1c0.1,0,0.4,0,0.8,0c0.9,0,1.5,0,1.7,0.1C206.8,93.8,207.1,94.2,207.1,94.8z M206.2,94.9
			c0-0.7-0.3-1.1-0.9-1.1c-0.2,0-0.3,0-0.3,0c0,0-0.1,0.1-0.1,0.3V96C205.7,96,206.2,95.6,206.2,94.9z"/>
		<path class="st1" d="M218.1,98.6c0,0-0.1,0.1-0.2,0.1h-0.1h-0.7h-0.3c-0.1,0-0.3,0-0.5,0h-0.3h-0.2h-0.1c-0.1,0-0.2,0-0.2-0.1
			c0-0.1,0.1-0.1,0.4-0.1c0.3,0,0.5,0,0.5-0.1c0,0,0-0.1-0.1-0.2c0-0.1-0.1-0.3-0.3-0.7l-0.1-0.4h-1.6c-0.3,0.8-0.5,1.2-0.5,1.3
			c0,0.1,0,0.1,0.1,0.1l0.1,0h0.2l0.1,0c0.1,0,0.1,0,0.1,0.1c0,0.1-0.1,0.1-0.2,0.1c0,0-0.2,0-0.4,0c-0.2,0-0.5,0-0.6,0h-0.1l-0.1,0
			l-0.1,0h0c-0.1,0-0.2,0-0.2-0.1c0-0.1,0-0.1,0.1-0.1c0.1,0,0.2,0,0.3,0c0.1,0,0.2-0.1,0.2-0.1c0,0,0.2-0.4,0.5-1.3
			c0.1-0.3,0.2-0.6,0.4-0.9c0-0.1,0.1-0.2,0.1-0.2c0-0.1,0-0.1,0.1-0.2c0.1-0.3,0.3-0.8,0.5-1.4l0.2-0.5l0.1-0.2
			c0-0.1,0.1-0.2,0.1-0.2c0,0,0.1,0.1,0.1,0.3c0.2,0.5,0.8,2,1.7,4.3c0.1,0.2,0.2,0.4,0.3,0.4c0,0,0.1,0,0.4,0
			C218,98.5,218.1,98.6,218.1,98.6z M215.8,96.9l-0.7-1.9c-0.2,0.4-0.4,1.1-0.7,1.9H215.8z"/>
	</g>
	<path class="st1" d="M68.5,60.4c-0.4,0-0.6,0.1-0.7,0.2l-9.4,18.2l0.8,1.5l10.1-19.6C69.4,60.5,69.1,60.4,68.5,60.4z"/>
	<path class="st1" d="M57.4,80.6L47,60.6c-0.1-0.1-0.3-0.2-0.7-0.2c-0.6,0-0.9,0.1-0.8,0.4l11.1,21.4c0.1,0.2,0.3,0.2,0.7,0.2
		c0.4,0,0.7-0.1,0.8-0.2l0-0.1L57.4,80.6L57.4,80.6z"/>
	<path class="st1" d="M115.2,80.6l-10.3-20c-0.1-0.1-0.3-0.2-0.7-0.2c-0.6,0-0.9,0.1-0.8,0.4l11.1,21.4c0.1,0.2,0.3,0.2,0.7,0.2
		c0.4,0,0.7-0.1,0.8-0.2l0-0.1L115.2,80.6L115.2,80.6z"/>
	<path class="st1" d="M126.3,60.4c-0.4,0-0.6,0.1-0.7,0.2l-9.4,18.1l0.8,1.5l10.1-19.5C127.2,60.5,126.9,60.4,126.3,60.4z"/>
	<path class="st1" d="M157.7,82h-15.2V71.8h11.6c0.5,0,0.7-0.1,0.7-0.3c0-0.2-0.2-0.3-0.7-0.3h-11.6V61h14.6c0.5,0,0.7-0.1,0.7-0.3
		c0-0.2-0.2-0.3-0.7-0.3H142c-0.2,0-0.3,0-0.4,0c-0.4,0-0.6,0.1-0.6,0.3v21.4c0,0.2,0.2,0.3,0.6,0.3c0.1,0,0.3,0,0.4,0h15.8
		c0.5,0,0.7-0.1,0.7-0.3C158.4,82,158.2,82,157.7,82z"/>
	<path class="st1" d="M174.1,61l-0.3-0.4c-0.1-0.1-0.4-0.2-0.8-0.2c-0.5,0-0.7,0.1-0.7,0.3v21.4c0,0.2,0.3,0.3,0.8,0.3
		c0.5,0,0.8-0.1,0.8-0.3V62.7L188,80.2v-2L174.1,61z"/>
	<path class="st1" d="M190.3,60.5c-0.5,0-0.8,0.1-0.8,0.3v15.9v5.5l0.1,0.1c0.1,0.1,0.4,0.1,0.8,0.1c0.4,0,0.7-0.1,0.7-0.3V60.8
		C191.1,60.6,190.9,60.5,190.3,60.5z"/>
	<path class="st1" d="M220.9,72.7c-1.5-1-3.3-1.5-5.4-1.5h-2.7c-0.9,0-1.7-0.1-2.6-0.4c-1.2-0.4-2.1-1.1-2.8-2.1
		c-0.6-0.9-0.9-1.9-0.8-3c0.1-1.6,1.1-2.9,3-3.9c0.9-0.5,2.4-0.7,4.7-0.7c2.1,0,3.6,0.3,4.6,0.8c1.8,1,2.7,2.4,2.8,4.3
		c0,0.2,0.3,0.3,0.8,0.3c0.5,0,0.8-0.1,0.8-0.3c-0.1-2-1.1-3.5-3.2-4.6c-1.3-0.7-3-1-5.3-1c-2.4,0-4.2,0.2-5.3,0.5
		c-1.3,0.4-2.4,1.1-3.2,2.1c-0.8,1-1.2,2-1.2,3.1c0,1.6,0.8,2.9,2.4,4c1.5,1,3.3,1.5,5.4,1.5h2.6c0.9,0,1.7,0.2,2.6,0.5
		c1.3,0.4,2.2,1.1,2.8,2.1c0.6,0.9,0.8,1.9,0.8,3c-0.1,1.6-1.1,2.9-3,3.9c-0.9,0.5-2.4,0.7-4.7,0.7c-2.1,0-3.7-0.3-4.7-0.8
		c-1.8-0.9-2.7-2.3-2.7-4.2c0-0.2-0.3-0.3-0.8-0.3c-0.5,0-0.8,0.1-0.8,0.3c0.1,2,1.1,3.5,3.2,4.6c1.2,0.7,3,1,5.4,1
		c2.5,0,4.2-0.2,5.3-0.5c1.3-0.4,2.4-1.1,3.2-2.1c0.8-1,1.2-2,1.2-3.1C223.2,75.1,222.5,73.8,220.9,72.7z"/>
	<path class="st1" d="M87.2,60.6c0-0.1-0.1-0.1-0.1-0.1h-1.3c-0.1,0-0.1,0.1-0.1,0.1v21.6c0,0.1,0.1,0.1,0.1,0.1h1.3
		c0.1,0,0.1-0.1,0.1-0.1V60.6z"/>
</g>
</svg>
