<?xml version="1.0" encoding="utf-8"?>
<!-- Generator: Adobe Illustrator 21.0.2, SVG Export Plug-In . SVG Version: 6.00 Build 0)  -->
<svg version="1.1" id="Layer_1" xmlns="http://www.w3.org/2000/svg" xmlns:xlink="http://www.w3.org/1999/xlink" x="0px" y="0px"
	 viewBox="0 0 267 100" style="enable-background:new 0 0 267 100;" xml:space="preserve">
<style type="text/css">
	.st0{fill:none;}
	.st1{fill:#959495;}
	.st2{fill:#959495;stroke:#959495;stroke-width:0.2835;stroke-linecap:round;stroke-linejoin:round;stroke-miterlimit:10;}
	.st3{fill:#959495;stroke:#959495;stroke-width:0.5669;stroke-linecap:round;stroke-linejoin:round;stroke-miterlimit:10;}
</style>
<rect class="st0" width="267" height="100"/>
<g>
	<path class="st1" d="M135.8,22.9c0.1,0.1,0.2,0.2,0.2,0.3c0.1,0.1,0.1,0.2,0.2,0.3c0.1,0.2,0.2,0.4,0.3,0.6
		c0.1,0.4,0.2,0.8,0.2,1.1c0,0.4-0.1,0.8-0.2,1.1c-0.1,0.2-0.1,0.4-0.3,0.6c-0.1,0.1-0.1,0.2-0.2,0.3c-0.1,0.1-0.1,0.2-0.2,0.3
		c-0.1-0.1-0.2-0.2-0.2-0.3c-0.1-0.1-0.1-0.2-0.2-0.3c-0.1-0.2-0.2-0.4-0.3-0.6c-0.1-0.4-0.2-0.8-0.2-1.1c0-0.4,0.1-0.8,0.2-1.1
		c0.1-0.2,0.1-0.4,0.3-0.6c0.1-0.1,0.1-0.2,0.2-0.3C135.7,23.1,135.7,23,135.8,22.9"/>
	<path class="st1" d="M135.8,17.7c0.1,0.1,0.2,0.2,0.2,0.3c0.1,0.1,0.1,0.2,0.2,0.3c0.1,0.2,0.2,0.4,0.3,0.6
		c0.1,0.4,0.2,0.8,0.2,1.1c0,0.4-0.1,0.8-0.2,1.1c-0.1,0.2-0.1,0.4-0.3,0.6c-0.1,0.1-0.1,0.2-0.2,0.3c-0.1,0.1-0.1,0.2-0.2,0.3
		c-0.1-0.1-0.2-0.2-0.2-0.3c-0.1-0.1-0.1-0.2-0.2-0.3c-0.1-0.2-0.2-0.4-0.3-0.6c-0.1-0.4-0.2-0.8-0.2-1.1c0-0.4,0.1-0.8,0.2-1.1
		c0.1-0.2,0.1-0.4,0.3-0.6c0.1-0.1,0.1-0.2,0.2-0.3C135.7,17.9,135.7,17.8,135.8,17.7"/>
	<path class="st1" d="M139.6,24.3c-0.1,0-0.3,0-0.4,0.1c-0.1,0-0.2,0.1-0.3,0.1c-0.2,0.1-0.4,0.2-0.6,0.3c-0.3,0.2-0.6,0.5-0.9,0.7
		c-0.2,0.3-0.5,0.6-0.6,1c-0.1,0.2-0.1,0.4-0.2,0.6c0,0.1,0,0.2,0,0.3c0,0.1,0,0.2,0,0.4c0.1,0,0.3,0,0.4-0.1c0.1,0,0.2-0.1,0.3-0.1
		c0.2-0.1,0.4-0.2,0.6-0.3c0.3-0.2,0.6-0.5,0.9-0.7c0.2-0.3,0.5-0.6,0.6-1c0.1-0.2,0.1-0.4,0.2-0.6c0-0.1,0-0.2,0-0.3
		C139.6,24.6,139.6,24.5,139.6,24.3"/>
	<path class="st1" d="M142,29.4c-0.1-0.1-0.2-0.2-0.3-0.2c-0.1-0.1-0.2-0.1-0.3-0.2c-0.2-0.1-0.4-0.2-0.6-0.2
		c-0.4-0.1-0.8-0.1-1.2-0.1c-0.4,0-0.8,0.1-1.1,0.2c-0.2,0.1-0.4,0.2-0.6,0.3c-0.1,0.1-0.2,0.1-0.3,0.2c-0.1,0.1-0.2,0.2-0.3,0.3
		c0.1,0.1,0.2,0.2,0.3,0.2c0.1,0.1,0.2,0.1,0.3,0.2c0.2,0.1,0.4,0.2,0.6,0.2c0.4,0.1,0.8,0.1,1.2,0.1c0.4,0,0.8-0.1,1.1-0.2
		c0.2-0.1,0.4-0.2,0.6-0.3c0.1-0.1,0.2-0.1,0.3-0.2C141.8,29.6,141.9,29.5,142,29.4"/>
	<path class="st1" d="M148.4,21.1c-0.1,0-0.3,0-0.4,0c-0.1,0-0.2,0-0.3,0c-0.2,0-0.4,0-0.6,0.1c-0.4,0.1-0.7,0.3-1.1,0.5
		c-0.3,0.2-0.6,0.5-0.9,0.8c-0.1,0.2-0.2,0.3-0.3,0.5c-0.1,0.1-0.1,0.2-0.1,0.3c0,0.1-0.1,0.2-0.1,0.4c0.1,0,0.3,0,0.4,0
		c0.1,0,0.2,0,0.3,0c0.2,0,0.4,0,0.6-0.1c0.4-0.1,0.7-0.3,1.1-0.5c0.3-0.2,0.6-0.5,0.9-0.8c0.1-0.2,0.2-0.3,0.3-0.5
		c0.1-0.1,0.1-0.2,0.1-0.3C148.3,21.3,148.4,21.2,148.4,21.1"/>
	<path class="st1" d="M142.7,20c-0.1,0-0.3,0-0.4,0.1c-0.1,0-0.2,0.1-0.3,0.1c-0.2,0.1-0.4,0.2-0.6,0.3c-0.3,0.2-0.6,0.5-0.9,0.7
		c-0.2,0.3-0.5,0.6-0.6,1c-0.1,0.2-0.1,0.4-0.2,0.6c0,0.1,0,0.2,0,0.3c0,0.1,0,0.2,0,0.4c0.1,0,0.3,0,0.4-0.1c0.1,0,0.2-0.1,0.3-0.1
		c0.2-0.1,0.4-0.2,0.6-0.3c0.3-0.2,0.6-0.5,0.9-0.7c0.2-0.3,0.5-0.6,0.6-1c0.1-0.2,0.1-0.4,0.2-0.6c0-0.1,0-0.2,0-0.3
		C142.7,20.2,142.7,20.1,142.7,20"/>
	<path class="st1" d="M138.7,20c-0.1,0.1-0.2,0.1-0.3,0.2c-0.1,0.1-0.2,0.1-0.3,0.2c-0.2,0.1-0.3,0.3-0.4,0.5
		c-0.2,0.3-0.4,0.7-0.5,1c-0.1,0.4-0.2,0.7-0.2,1.1c0,0.2,0,0.4,0.1,0.6c0,0.1,0.1,0.2,0.1,0.3c0,0.1,0.1,0.2,0.1,0.3
		c0.1-0.1,0.2-0.1,0.3-0.2c0.1-0.1,0.2-0.1,0.3-0.2c0.2-0.1,0.3-0.3,0.4-0.5c0.2-0.3,0.4-0.7,0.5-1c0.1-0.4,0.2-0.7,0.2-1.1
		c0-0.2,0-0.4-0.1-0.6c0-0.1-0.1-0.2-0.1-0.3C138.9,20.2,138.8,20.1,138.7,20"/>
	<path class="st1" d="M141.6,16.5c-0.1,0-0.2,0.1-0.3,0.2c-0.1,0.1-0.2,0.1-0.3,0.2c-0.2,0.1-0.3,0.3-0.5,0.4
		c-0.3,0.3-0.5,0.6-0.6,1c-0.2,0.3-0.3,0.7-0.3,1.1c0,0.2,0,0.4,0,0.6c0,0.1,0,0.2,0,0.3c0,0.1,0.1,0.2,0.1,0.4
		c0.1,0,0.2-0.1,0.3-0.2c0.1-0.1,0.2-0.1,0.3-0.2c0.2-0.1,0.3-0.3,0.5-0.4c0.3-0.3,0.5-0.6,0.6-1c0.2-0.3,0.3-0.7,0.3-1.1
		c0-0.2,0-0.4,0-0.6c0-0.1,0-0.2,0-0.3C141.6,16.8,141.6,16.7,141.6,16.5"/>
	<path class="st1" d="M138.4,14.9c-0.1,0.1-0.2,0.1-0.3,0.2c-0.1,0.1-0.2,0.2-0.2,0.2c-0.1,0.2-0.3,0.3-0.4,0.5
		c-0.2,0.3-0.4,0.7-0.4,1.1c-0.1,0.4-0.1,0.8-0.1,1.2c0,0.2,0.1,0.4,0.1,0.6c0,0.1,0.1,0.2,0.1,0.3c0,0.1,0.1,0.2,0.2,0.3
		c0.1-0.1,0.2-0.1,0.3-0.2c0.1-0.1,0.2-0.2,0.2-0.2c0.1-0.2,0.3-0.3,0.4-0.5c0.2-0.3,0.4-0.7,0.4-1.1c0.1-0.4,0.1-0.8,0.1-1.2
		c0-0.2-0.1-0.4-0.1-0.6c0-0.1-0.1-0.2-0.1-0.3C138.5,15.2,138.5,15,138.4,14.9"/>
	<path class="st1" d="M146.8,24.4c-0.1-0.1-0.2-0.1-0.4-0.1c-0.1,0-0.2-0.1-0.3-0.1c-0.2,0-0.4-0.1-0.6,0c-0.4,0-0.8,0.1-1.1,0.2
		c-0.4,0.1-0.7,0.3-1,0.6c-0.2,0.1-0.3,0.3-0.4,0.4c-0.1,0.1-0.1,0.2-0.2,0.3c-0.1,0.1-0.1,0.2-0.2,0.3c0.1,0.1,0.2,0.1,0.4,0.1
		c0.1,0,0.2,0.1,0.3,0.1c0.2,0,0.4,0.1,0.6,0c0.4,0,0.8-0.1,1.1-0.2c0.4-0.1,0.7-0.3,1-0.6c0.2-0.1,0.3-0.3,0.4-0.4
		c0.1-0.1,0.1-0.2,0.2-0.3C146.7,24.6,146.8,24.5,146.8,24.4"/>
	<path class="st1" d="M143.7,23c-0.1,0-0.3,0-0.4,0c-0.1,0-0.2,0-0.3,0c-0.2,0-0.4,0.1-0.6,0.1c-0.4,0.1-0.7,0.3-1,0.5
		c-0.3,0.2-0.6,0.5-0.8,0.8c-0.1,0.2-0.2,0.3-0.3,0.5c0,0.1-0.1,0.2-0.1,0.3c0,0.1-0.1,0.2-0.1,0.4c0.1,0,0.3,0,0.4,0
		c0.1,0,0.2,0,0.3,0c0.2,0,0.4-0.1,0.6-0.1c0.4-0.1,0.7-0.3,1-0.5c0.3-0.2,0.6-0.5,0.8-0.8c0.1-0.2,0.2-0.3,0.3-0.5
		c0-0.1,0.1-0.2,0.1-0.3C143.6,23.2,143.7,23.1,143.7,23"/>
	<path class="st1" d="M146,18.7c-0.1,0-0.3,0-0.4,0.1c-0.1,0-0.2,0.1-0.3,0.1c-0.2,0.1-0.4,0.2-0.6,0.3c-0.3,0.2-0.6,0.4-0.9,0.7
		c-0.3,0.3-0.5,0.6-0.6,1c-0.1,0.2-0.1,0.4-0.2,0.6c0,0.1,0,0.2-0.1,0.3c0,0.1,0,0.2,0,0.4c0.1,0,0.3,0,0.4-0.1
		c0.1,0,0.2-0.1,0.3-0.1c0.2-0.1,0.4-0.2,0.6-0.3c0.4-0.2,0.6-0.4,0.9-0.7c0.3-0.3,0.5-0.6,0.6-1c0.1-0.2,0.1-0.4,0.2-0.6
		c0-0.1,0-0.2,0.1-0.3C146,19,146,18.9,146,18.7"/>
	<path class="st1" d="M145.3,15.6c-0.1,0-0.2,0.1-0.4,0.1c-0.1,0-0.2,0.1-0.3,0.1c-0.2,0.1-0.4,0.2-0.5,0.3
		c-0.3,0.2-0.6,0.5-0.8,0.8c-0.2,0.3-0.4,0.7-0.5,1c-0.1,0.2-0.1,0.4-0.1,0.6c0,0.1,0,0.2,0,0.3c0,0.1,0,0.2,0,0.4
		c0.1,0,0.2-0.1,0.4-0.1c0.1,0,0.2-0.1,0.3-0.1c0.2-0.1,0.4-0.2,0.5-0.3c0.3-0.2,0.6-0.5,0.8-0.8c0.2-0.3,0.4-0.7,0.5-1
		c0.1-0.2,0.1-0.4,0.1-0.6c0-0.1,0-0.2,0-0.3C145.3,15.8,145.3,15.7,145.3,15.6"/>
	<path class="st1" d="M141.7,12.7c-0.1,0-0.2,0.1-0.3,0.2c-0.1,0.1-0.2,0.1-0.3,0.2c-0.2,0.1-0.3,0.3-0.5,0.4
		c-0.3,0.3-0.5,0.6-0.7,0.9c-0.2,0.3-0.3,0.7-0.3,1.1c0,0.2,0,0.4,0,0.6c0,0.1,0,0.2,0,0.3c0,0.1,0,0.2,0.1,0.4
		c0.1,0,0.2-0.1,0.3-0.2c0.1-0.1,0.2-0.1,0.3-0.2c0.2-0.1,0.3-0.3,0.5-0.4c0.3-0.3,0.5-0.6,0.7-1c0.2-0.3,0.3-0.7,0.3-1.1
		c0-0.2,0-0.4,0-0.6c0-0.1,0-0.2,0-0.3C141.8,13,141.7,12.9,141.7,12.7"/>
	<path class="st1" d="M136,12.4c-0.1,0.1-0.2,0.2-0.3,0.3c-0.1,0.1-0.1,0.2-0.2,0.3c-0.1,0.2-0.2,0.4-0.3,0.6
		c-0.2,0.4-0.2,0.7-0.3,1.1c0,0.4,0,0.8,0.1,1.2c0.1,0.2,0.1,0.4,0.2,0.6c0,0.1,0.1,0.2,0.2,0.3c0.1,0.1,0.1,0.2,0.2,0.3
		c0.1-0.1,0.2-0.2,0.3-0.3c0.1-0.1,0.1-0.2,0.2-0.3c0.1-0.2,0.2-0.4,0.3-0.6c0.2-0.4,0.2-0.7,0.3-1.1c0-0.4,0-0.8-0.1-1.2
		c0-0.2-0.1-0.4-0.2-0.6c0-0.1-0.1-0.2-0.2-0.3C136.1,12.6,136.1,12.5,136,12.4"/>
	<path class="st1" d="M149.8,17.5c-0.1,0-0.3,0-0.4,0c-0.1,0-0.2,0-0.3,0.1c-0.2,0-0.4,0.1-0.6,0.2c-0.4,0.2-0.7,0.4-1,0.6
		c-0.3,0.3-0.5,0.5-0.7,0.9c-0.1,0.2-0.2,0.4-0.3,0.6c0,0.1-0.1,0.2-0.1,0.3c0,0.1,0,0.2-0.1,0.4c0.1,0,0.3,0,0.4,0
		c0.1,0,0.2,0,0.3-0.1c0.2,0,0.4-0.1,0.6-0.2c0.4-0.2,0.7-0.4,1-0.6c0.3-0.3,0.5-0.5,0.7-0.9c0.1-0.2,0.2-0.4,0.3-0.6
		c0-0.1,0.1-0.2,0.1-0.3C149.7,17.8,149.8,17.6,149.8,17.5"/>
	<path class="st1" d="M151.7,22.2c-0.1-0.1-0.2-0.1-0.4-0.1c-0.1,0-0.2-0.1-0.3-0.1c-0.2,0-0.4,0-0.6,0c-0.4,0-0.8,0.1-1.1,0.2
		c-0.4,0.1-0.7,0.3-1,0.6c-0.2,0.1-0.3,0.3-0.4,0.4c-0.1,0.1-0.1,0.2-0.2,0.3c-0.1,0.1-0.1,0.2-0.2,0.3c0.1,0.1,0.2,0.1,0.4,0.1
		c0.1,0,0.2,0.1,0.3,0.1c0.2,0,0.4,0,0.6,0c0.4,0,0.8-0.1,1.1-0.2c0.4-0.1,0.7-0.3,1-0.6c0.2-0.1,0.3-0.3,0.4-0.4
		c0.1-0.1,0.1-0.2,0.2-0.3C151.6,22.4,151.7,22.3,151.7,22.2"/>
	<path class="st1" d="M132.1,24.3c0.1,0,0.3,0,0.4,0.1c0.1,0,0.2,0.1,0.3,0.1c0.2,0.1,0.4,0.2,0.6,0.3c0.3,0.2,0.6,0.5,0.9,0.7
		c0.2,0.3,0.5,0.6,0.6,1c0.1,0.2,0.1,0.4,0.2,0.6c0,0.1,0,0.2,0,0.3c0,0.1,0,0.2,0,0.4c-0.1,0-0.3,0-0.4-0.1c-0.1,0-0.2-0.1-0.3-0.1
		c-0.2-0.1-0.4-0.2-0.6-0.3c-0.3-0.2-0.6-0.5-0.9-0.7c-0.2-0.3-0.5-0.6-0.6-1c-0.1-0.2-0.1-0.4-0.2-0.6c0-0.1,0-0.2,0-0.3
		C132.1,24.6,132.1,24.5,132.1,24.3"/>
	<path class="st1" d="M123.3,21.1c0.1,0,0.3,0,0.4,0c0.1,0,0.2,0,0.3,0c0.2,0,0.4,0,0.6,0.1c0.4,0.1,0.7,0.3,1.1,0.5
		c0.3,0.2,0.6,0.5,0.9,0.8c0.1,0.2,0.2,0.3,0.3,0.5c0.1,0.1,0.1,0.2,0.1,0.3c0,0.1,0.1,0.2,0.1,0.4c-0.1,0-0.3,0-0.4,0
		c-0.1,0-0.2,0-0.3,0c-0.2,0-0.4,0-0.6-0.1c-0.4-0.1-0.7-0.3-1.1-0.5c-0.3-0.2-0.6-0.5-0.9-0.8c-0.1-0.2-0.2-0.3-0.3-0.5
		c-0.1-0.1-0.1-0.2-0.1-0.3C123.4,21.3,123.3,21.2,123.3,21.1"/>
	<path class="st1" d="M121.1,25.5c0.1-0.1,0.2-0.1,0.3-0.2c0.1,0,0.2-0.1,0.3-0.1c0.2-0.1,0.4-0.1,0.6-0.1c0.4,0,0.8,0,1.2,0.1
		c0.4,0.1,0.7,0.2,1.1,0.5c0.2,0.1,0.3,0.2,0.5,0.4c0.1,0.1,0.2,0.2,0.2,0.2c0.1,0.1,0.2,0.2,0.2,0.3c-0.1,0.1-0.2,0.1-0.3,0.2
		c-0.1,0-0.2,0.1-0.3,0.1c-0.2,0.1-0.4,0.1-0.6,0.1c-0.4,0-0.8,0-1.2-0.1c-0.4-0.1-0.7-0.2-1.1-0.5c-0.2-0.1-0.3-0.2-0.5-0.4
		c-0.1-0.1-0.2-0.2-0.2-0.2C121.2,25.7,121.1,25.6,121.1,25.5"/>
	<path class="st1" d="M129,20c0.1,0,0.3,0,0.4,0.1c0.1,0,0.2,0.1,0.3,0.1c0.2,0.1,0.4,0.2,0.6,0.3c0.3,0.2,0.6,0.5,0.9,0.7
		c0.2,0.3,0.5,0.6,0.6,1c0.1,0.2,0.1,0.4,0.2,0.6c0,0.1,0,0.2,0,0.3c0,0.1,0,0.2,0,0.4c-0.1,0-0.3,0-0.4-0.1c-0.1,0-0.2-0.1-0.3-0.1
		c-0.2-0.1-0.4-0.2-0.6-0.3c-0.3-0.2-0.6-0.5-0.9-0.7c-0.2-0.3-0.5-0.6-0.6-1c-0.1-0.2-0.1-0.4-0.2-0.6c0-0.1,0-0.2,0-0.3
		C129,20.2,129,20.1,129,20"/>
	<path class="st1" d="M133,20c0.1,0.1,0.2,0.1,0.3,0.2c0.1,0.1,0.2,0.1,0.3,0.2c0.2,0.1,0.3,0.3,0.4,0.5c0.2,0.3,0.4,0.7,0.5,1
		c0.1,0.4,0.2,0.7,0.2,1.1c0,0.2,0,0.4-0.1,0.6c0,0.1-0.1,0.2-0.1,0.3c0,0.1-0.1,0.2-0.1,0.3c-0.1-0.1-0.2-0.1-0.3-0.2
		c-0.1-0.1-0.2-0.1-0.3-0.2c-0.2-0.1-0.3-0.3-0.4-0.5c-0.2-0.3-0.4-0.7-0.5-1c-0.1-0.4-0.2-0.7-0.2-1.1c0-0.2,0-0.4,0.1-0.6
		c0-0.1,0.1-0.2,0.1-0.3C132.8,20.2,132.9,20.1,133,20"/>
	<path class="st1" d="M130.1,16.5c0.1,0,0.2,0.1,0.3,0.2c0.1,0.1,0.2,0.1,0.3,0.2c0.2,0.1,0.3,0.3,0.5,0.4c0.3,0.3,0.5,0.6,0.6,1
		c0.2,0.3,0.3,0.7,0.3,1.1c0,0.2,0,0.4,0,0.6c0,0.1,0,0.2,0,0.3c0,0.1-0.1,0.2-0.1,0.4c-0.1,0-0.2-0.1-0.3-0.2
		c-0.1-0.1-0.2-0.1-0.3-0.2c-0.2-0.1-0.3-0.3-0.5-0.4c-0.3-0.3-0.5-0.6-0.6-1c-0.2-0.3-0.3-0.7-0.3-1.1c0-0.2,0-0.4,0-0.6
		c0-0.1,0-0.2,0-0.3C130.1,16.8,130.1,16.7,130.1,16.5"/>
	<path class="st1" d="M133.3,14.9c0.1,0.1,0.2,0.1,0.3,0.2c0.1,0.1,0.2,0.2,0.2,0.2c0.1,0.2,0.3,0.3,0.4,0.5
		c0.2,0.3,0.4,0.7,0.4,1.1c0.1,0.4,0.1,0.8,0.1,1.2c0,0.2-0.1,0.4-0.1,0.6c0,0.1-0.1,0.2-0.1,0.3c0,0.1-0.1,0.2-0.2,0.3
		c-0.1-0.1-0.2-0.1-0.3-0.2c-0.1-0.1-0.2-0.2-0.2-0.2c-0.1-0.2-0.3-0.3-0.4-0.5c-0.2-0.3-0.3-0.7-0.4-1.1c-0.1-0.4-0.1-0.8-0.1-1.2
		c0-0.2,0.1-0.4,0.1-0.6c0-0.1,0.1-0.2,0.1-0.3C133.2,15.2,133.2,15,133.3,14.9"/>
	<path class="st1" d="M124.9,24.4c0.1-0.1,0.2-0.1,0.4-0.1c0.1,0,0.2-0.1,0.3-0.1c0.2,0,0.4-0.1,0.6,0c0.4,0,0.8,0.1,1.1,0.2
		c0.4,0.1,0.7,0.3,1,0.6c0.2,0.1,0.3,0.3,0.4,0.4c0.1,0.1,0.1,0.2,0.2,0.3c0.1,0.1,0.1,0.2,0.2,0.3c-0.1,0.1-0.2,0.1-0.4,0.1
		c-0.1,0-0.2,0.1-0.3,0.1c-0.2,0-0.4,0.1-0.6,0c-0.4,0-0.8-0.1-1.1-0.2c-0.4-0.1-0.7-0.3-1-0.6c-0.2-0.1-0.3-0.3-0.4-0.4
		c-0.1-0.1-0.1-0.2-0.2-0.3C125,24.6,124.9,24.5,124.9,24.4"/>
	<path class="st1" d="M122.6,28.3c0.1-0.1,0.2-0.2,0.3-0.2c0.1-0.1,0.2-0.1,0.3-0.2c0.2-0.1,0.4-0.2,0.6-0.2
		c0.4-0.1,0.8-0.1,1.2-0.1c0.4,0,0.8,0.1,1.1,0.3c0.2,0.1,0.4,0.2,0.6,0.3c0.1,0.1,0.2,0.1,0.3,0.2c0.1,0.1,0.2,0.2,0.3,0.3
		c-0.1,0.1-0.2,0.2-0.3,0.2c-0.1,0.1-0.2,0.1-0.3,0.2c-0.2,0.1-0.4,0.2-0.6,0.2c-0.4,0.1-0.8,0.1-1.2,0.1c-0.4,0-0.8-0.1-1.1-0.3
		c-0.2-0.1-0.4-0.2-0.6-0.3c-0.1-0.1-0.2-0.1-0.3-0.2C122.8,28.5,122.7,28.4,122.6,28.3"/>
	<path class="st1" d="M128,23c0.1,0,0.3,0,0.4,0c0.1,0,0.2,0,0.3,0c0.2,0,0.4,0.1,0.6,0.1c0.4,0.1,0.7,0.3,1,0.5
		c0.3,0.2,0.6,0.5,0.8,0.8c0.1,0.2,0.2,0.3,0.3,0.5c0,0.1,0.1,0.2,0.1,0.3c0,0.1,0.1,0.2,0.1,0.4c-0.1,0-0.3,0-0.4,0
		c-0.1,0-0.2,0-0.3,0c-0.2,0-0.4-0.1-0.6-0.1c-0.4-0.1-0.7-0.3-1-0.5c-0.3-0.2-0.6-0.5-0.8-0.8c-0.1-0.2-0.2-0.3-0.3-0.5
		c0-0.1-0.1-0.2-0.1-0.3C128.1,23.2,128,23.1,128,23"/>
	<path class="st1" d="M126.9,27.3c0.1-0.1,0.2-0.1,0.3-0.2c0.1-0.1,0.2-0.1,0.3-0.1c0.2-0.1,0.4-0.1,0.6-0.2c0.4-0.1,0.8-0.1,1.2,0
		c0.4,0.1,0.7,0.2,1.1,0.3c0.2,0.1,0.4,0.2,0.5,0.3c0.1,0.1,0.2,0.1,0.3,0.2c0.1,0.1,0.2,0.2,0.3,0.3c-0.1,0.1-0.2,0.1-0.3,0.2
		c-0.1,0.1-0.2,0.1-0.3,0.1c-0.2,0.1-0.4,0.1-0.6,0.2c-0.4,0.1-0.8,0.1-1.2,0c-0.4-0.1-0.7-0.2-1.1-0.3c-0.2-0.1-0.4-0.2-0.5-0.3
		c-0.1-0.1-0.2-0.1-0.3-0.2C127,27.4,126.9,27.4,126.9,27.3"/>
	<path class="st1" d="M125.7,18.7c0.1,0,0.3,0,0.4,0.1c0.1,0,0.2,0.1,0.3,0.1c0.2,0.1,0.4,0.2,0.6,0.3c0.4,0.2,0.6,0.4,0.9,0.7
		c0.3,0.3,0.5,0.6,0.6,1c0.1,0.2,0.1,0.4,0.2,0.6c0,0.1,0,0.2,0.1,0.3c0,0.1,0,0.2,0,0.4c-0.1,0-0.3,0-0.4-0.1
		c-0.1,0-0.2-0.1-0.3-0.1c-0.2-0.1-0.4-0.2-0.6-0.3c-0.4-0.2-0.6-0.4-0.9-0.7c-0.3-0.3-0.5-0.6-0.6-1c-0.1-0.2-0.1-0.4-0.2-0.6
		c0-0.1,0-0.2-0.1-0.3C125.7,19,125.7,18.9,125.7,18.7"/>
	<path class="st1" d="M126.4,15.6c0.1,0,0.3,0.1,0.4,0.1c0.1,0,0.2,0.1,0.3,0.1c0.2,0.1,0.4,0.2,0.5,0.3c0.3,0.2,0.6,0.5,0.8,0.8
		c0.2,0.3,0.4,0.7,0.5,1c0.1,0.2,0.1,0.4,0.1,0.6c0,0.1,0,0.2,0,0.3c0,0.1,0,0.2,0,0.4c-0.1,0-0.3-0.1-0.4-0.1
		c-0.1,0-0.2-0.1-0.3-0.1c-0.2-0.1-0.4-0.2-0.5-0.3c-0.3-0.2-0.6-0.5-0.8-0.8c-0.2-0.3-0.4-0.7-0.5-1c-0.1-0.2-0.1-0.4-0.1-0.6
		c0-0.1,0-0.2,0-0.3C126.4,15.8,126.4,15.7,126.4,15.6"/>
	<path class="st1" d="M130,12.7c0.1,0,0.2,0.1,0.3,0.2c0.1,0.1,0.2,0.1,0.3,0.2c0.2,0.1,0.3,0.3,0.5,0.4c0.3,0.3,0.5,0.6,0.7,0.9
		c0.2,0.3,0.3,0.7,0.3,1.1c0,0.2,0,0.4,0,0.6c0,0.1,0,0.2,0,0.3c0,0.1,0,0.2-0.1,0.4c-0.1,0-0.2-0.1-0.3-0.2
		c-0.1-0.1-0.2-0.1-0.3-0.2c-0.2-0.1-0.3-0.3-0.5-0.4c-0.3-0.3-0.5-0.6-0.7-1c-0.2-0.3-0.3-0.7-0.3-1.1c0-0.2,0-0.4,0-0.6
		c0-0.1,0-0.2,0-0.3C129.9,13,130,12.9,130,12.7"/>
	<path class="st1" d="M121.9,17.5c0.1,0,0.3,0,0.4,0c0.1,0,0.2,0,0.3,0.1c0.2,0,0.4,0.1,0.6,0.2c0.4,0.2,0.7,0.4,1,0.6
		c0.3,0.3,0.5,0.5,0.7,0.9c0.1,0.2,0.2,0.4,0.3,0.6c0,0.1,0.1,0.2,0.1,0.3c0,0.1,0,0.2,0.1,0.4c-0.1,0-0.3,0-0.4,0
		c-0.1,0-0.2,0-0.3-0.1c-0.2,0-0.4-0.1-0.6-0.2c-0.4-0.2-0.7-0.4-1-0.6c-0.3-0.3-0.5-0.5-0.7-0.9c-0.1-0.2-0.2-0.4-0.3-0.6
		c0-0.1-0.1-0.2-0.1-0.3C122,17.8,121.9,17.6,121.9,17.5"/>
	<path class="st1" d="M120,22.2c0.1-0.1,0.2-0.1,0.4-0.1c0.1,0,0.2-0.1,0.3-0.1c0.2,0,0.4,0,0.6,0c0.4,0,0.8,0.1,1.1,0.2
		c0.4,0.1,0.7,0.3,1,0.6c0.2,0.1,0.3,0.3,0.4,0.4c0.1,0.1,0.1,0.2,0.2,0.3c0.1,0.1,0.1,0.2,0.2,0.3c-0.1,0.1-0.2,0.1-0.4,0.1
		c-0.1,0-0.2,0.1-0.3,0.1c-0.2,0-0.4,0-0.6,0c-0.4,0-0.8-0.1-1.1-0.2c-0.4-0.1-0.7-0.3-1-0.6c-0.2-0.1-0.3-0.3-0.4-0.4
		c-0.1-0.1-0.1-0.2-0.2-0.3C120.1,22.4,120,22.3,120,22.2"/>
	<path class="st1" d="M118.3,18.6c0.1,0,0.3-0.1,0.4-0.1c0.1,0,0.2,0,0.3,0c0.2,0,0.4,0,0.6,0.1c0.4,0.1,0.8,0.2,1.1,0.4
		c0.3,0.2,0.6,0.4,0.9,0.7c0.1,0.2,0.3,0.3,0.4,0.5c0.1,0.1,0.1,0.2,0.2,0.3c0,0.1,0.1,0.2,0.1,0.4c-0.1,0-0.3,0.1-0.4,0.1
		c-0.1,0-0.2,0-0.3,0c-0.2,0-0.4,0-0.6-0.1c-0.4-0.1-0.8-0.2-1.1-0.4c-0.3-0.2-0.6-0.4-0.9-0.7c-0.1-0.2-0.3-0.3-0.4-0.5
		c-0.1-0.1-0.1-0.2-0.2-0.3C118.4,18.8,118.4,18.7,118.3,18.6"/>
	<path class="st1" d="M122.8,14.1c0.1,0,0.3,0,0.4,0.1c0.1,0,0.2,0.1,0.3,0.1c0.2,0.1,0.4,0.2,0.6,0.3c0.3,0.2,0.6,0.5,0.9,0.8
		c0.2,0.3,0.4,0.6,0.6,1c0.1,0.2,0.1,0.4,0.2,0.6c0,0.1,0,0.2,0,0.3c0,0.1,0,0.2,0,0.4c-0.1,0-0.3,0-0.4-0.1c-0.1,0-0.2-0.1-0.3-0.1
		c-0.2-0.1-0.4-0.2-0.6-0.3c-0.3-0.2-0.6-0.5-0.9-0.8c-0.2-0.3-0.4-0.6-0.6-1c-0.1-0.2-0.1-0.4-0.2-0.6c0-0.1,0-0.2,0-0.3
		C122.8,14.4,122.8,14.2,122.8,14.1"/>
	<path class="st1" d="M126.6,11.4c0.1,0,0.2,0.1,0.4,0.1c0.1,0,0.2,0.1,0.3,0.2c0.2,0.1,0.4,0.2,0.5,0.4c0.3,0.3,0.5,0.6,0.7,0.9
		c0.2,0.3,0.3,0.7,0.4,1.1c0,0.2,0.1,0.4,0.1,0.6c0,0.1,0,0.2,0,0.3c0,0.1,0,0.2-0.1,0.4c-0.1,0-0.2-0.1-0.4-0.1
		c-0.1,0-0.2-0.1-0.3-0.2c-0.2-0.1-0.4-0.2-0.5-0.4c-0.3-0.3-0.5-0.6-0.7-0.9c-0.2-0.3-0.3-0.7-0.4-1.1c0-0.2-0.1-0.4-0.1-0.6
		c0-0.1,0-0.2,0-0.3C126.6,11.7,126.6,11.6,126.6,11.4"/>
	<path class="st1" d="M132.6,9.2c0.1,0.1,0.2,0.2,0.3,0.2c0.1,0.1,0.2,0.2,0.2,0.3c0.1,0.2,0.2,0.4,0.3,0.5c0.2,0.4,0.3,0.7,0.3,1.1
		c0.1,0.4,0.1,0.8,0,1.2c0,0.2-0.1,0.4-0.2,0.6c0,0.1-0.1,0.2-0.1,0.3c-0.1,0.1-0.1,0.2-0.2,0.3c-0.1-0.1-0.2-0.2-0.3-0.2
		c-0.1-0.1-0.2-0.2-0.2-0.3c-0.1-0.2-0.2-0.4-0.3-0.5c-0.2-0.4-0.3-0.7-0.3-1.1c-0.1-0.4-0.1-0.8,0-1.2c0-0.2,0.1-0.4,0.2-0.6
		c0-0.1,0.1-0.2,0.1-0.3C132.4,9.4,132.5,9.3,132.6,9.2"/>
	<path class="st1" d="M116,23.8c0.1-0.1,0.2-0.1,0.3-0.2c0.1,0,0.2-0.1,0.3-0.1c0.2-0.1,0.4-0.1,0.6-0.1c0.4,0,0.8,0,1.2,0.1
		c0.4,0.1,0.7,0.2,1.1,0.4c0.2,0.1,0.3,0.2,0.5,0.4c0.1,0.1,0.2,0.2,0.2,0.2c0.1,0.1,0.2,0.2,0.2,0.3c-0.1,0.1-0.2,0.1-0.3,0.2
		c-0.1,0-0.2,0.1-0.3,0.1c-0.2,0.1-0.4,0.1-0.6,0.1c-0.4,0-0.8,0-1.2-0.1c-0.4-0.1-0.7-0.2-1.1-0.4c-0.2-0.1-0.3-0.2-0.5-0.4
		c-0.1-0.1-0.2-0.2-0.2-0.2C116.1,24,116,23.9,116,23.8"/>
	<path class="st1" d="M117.3,27.3c0.1-0.1,0.2-0.2,0.3-0.2c0.1-0.1,0.2-0.1,0.3-0.2c0.2-0.1,0.4-0.2,0.6-0.3
		c0.4-0.1,0.8-0.2,1.1-0.2c0.4,0,0.8,0,1.1,0.2c0.2,0.1,0.4,0.1,0.6,0.2c0.1,0.1,0.2,0.1,0.3,0.2c0.1,0.1,0.2,0.1,0.3,0.2
		c-0.1,0.1-0.2,0.2-0.3,0.2c-0.1,0.1-0.2,0.1-0.3,0.2c-0.2,0.1-0.4,0.2-0.6,0.3c-0.4,0.1-0.8,0.2-1.1,0.2c-0.4,0-0.8,0-1.1-0.2
		c-0.2-0.1-0.4-0.1-0.6-0.2c-0.1-0.1-0.2-0.1-0.3-0.2C117.5,27.5,117.4,27.4,117.3,27.3"/>
	<path class="st1" d="M150.6,25.5c-0.1-0.1-0.2-0.1-0.3-0.2c-0.1,0-0.2-0.1-0.3-0.1c-0.2-0.1-0.4-0.1-0.6-0.1c-0.4,0-0.8,0-1.2,0.1
		c-0.4,0.1-0.7,0.2-1.1,0.5c-0.2,0.1-0.3,0.2-0.5,0.4c-0.1,0.1-0.2,0.2-0.2,0.2c-0.1,0.1-0.2,0.2-0.2,0.3c0.1,0.1,0.2,0.1,0.3,0.2
		c0.1,0,0.2,0.1,0.3,0.1c0.2,0.1,0.4,0.1,0.6,0.1c0.4,0,0.8,0,1.2-0.1c0.4-0.1,0.7-0.2,1.1-0.5c0.2-0.1,0.3-0.2,0.5-0.4
		c0.1-0.1,0.2-0.2,0.2-0.2C150.4,25.7,150.5,25.6,150.6,25.5"/>
	<path class="st1" d="M152.9,29.4c-0.1-0.1-0.2-0.2-0.3-0.2c-0.1-0.1-0.2-0.1-0.3-0.2c-0.2-0.1-0.4-0.2-0.6-0.2
		c-0.4-0.1-0.8-0.1-1.2-0.1c-0.4,0-0.8,0.1-1.1,0.2c-0.2,0.1-0.4,0.2-0.6,0.3c-0.1,0.1-0.2,0.1-0.3,0.2c-0.1,0.1-0.2,0.2-0.3,0.3
		c0.1,0.1,0.2,0.2,0.3,0.2c0.1,0.1,0.2,0.1,0.3,0.2c0.2,0.1,0.4,0.2,0.6,0.2c0.4,0.1,0.8,0.1,1.2,0.1c0.4,0,0.8-0.1,1.1-0.3
		c0.2-0.1,0.4-0.2,0.6-0.3c0.1-0.1,0.2-0.1,0.3-0.2C152.7,29.6,152.8,29.5,152.9,29.4"/>
	<path class="st1" d="M149.1,28.3c-0.1-0.1-0.2-0.2-0.3-0.2c-0.1-0.1-0.2-0.1-0.3-0.2c-0.2-0.1-0.4-0.2-0.6-0.2
		c-0.4-0.1-0.8-0.1-1.2-0.1c-0.4,0-0.8,0.1-1.1,0.3c-0.2,0.1-0.4,0.2-0.6,0.3c-0.1,0.1-0.2,0.1-0.3,0.2c-0.1,0.1-0.2,0.2-0.3,0.3
		c0.1,0.1,0.2,0.2,0.3,0.2c0.1,0.1,0.2,0.1,0.3,0.2c0.2,0.1,0.4,0.2,0.6,0.2c0.4,0.1,0.8,0.1,1.2,0.1c0.4,0,0.8-0.1,1.1-0.3
		c0.2-0.1,0.4-0.2,0.6-0.3c0.1-0.1,0.2-0.1,0.3-0.2C148.9,28.5,149,28.4,149.1,28.3"/>
	<path class="st1" d="M144.8,27.3c-0.1-0.1-0.2-0.1-0.3-0.2c-0.1-0.1-0.2-0.1-0.3-0.1c-0.2-0.1-0.4-0.1-0.6-0.2
		c-0.4-0.1-0.8-0.1-1.2,0c-0.4,0.1-0.7,0.2-1.1,0.3c-0.2,0.1-0.4,0.2-0.5,0.3c-0.1,0.1-0.2,0.1-0.3,0.2c-0.1,0.1-0.2,0.2-0.3,0.3
		c0.1,0.1,0.2,0.1,0.3,0.2c0.1,0.1,0.2,0.1,0.3,0.1c0.2,0.1,0.4,0.1,0.6,0.2c0.4,0.1,0.8,0.1,1.2,0c0.4-0.1,0.7-0.2,1.1-0.3
		c0.2-0.1,0.4-0.2,0.5-0.3c0.1-0.1,0.2-0.1,0.3-0.2C144.6,27.4,144.7,27.4,144.8,27.3"/>
	<path class="st1" d="M153.3,18.6c-0.1,0-0.3-0.1-0.4-0.1c-0.1,0-0.2,0-0.3,0c-0.2,0-0.4,0-0.6,0.1c-0.4,0.1-0.8,0.2-1.1,0.4
		c-0.3,0.2-0.6,0.4-0.9,0.7c-0.1,0.2-0.3,0.3-0.4,0.5c-0.1,0.1-0.1,0.2-0.2,0.3c0,0.1-0.1,0.2-0.1,0.4c0.1,0,0.3,0.1,0.4,0.1
		c0.1,0,0.2,0,0.3,0c0.2,0,0.4,0,0.6-0.1c0.4-0.1,0.8-0.2,1.1-0.4c0.3-0.2,0.6-0.4,0.9-0.7c0.1-0.2,0.3-0.3,0.4-0.5
		c0.1-0.1,0.1-0.2,0.2-0.3C153.2,18.8,153.3,18.7,153.3,18.6"/>
	<path class="st1" d="M148.8,14.1c-0.1,0-0.3,0-0.4,0.1c-0.1,0-0.2,0.1-0.3,0.1c-0.2,0.1-0.4,0.2-0.6,0.3c-0.3,0.2-0.6,0.5-0.9,0.8
		c-0.2,0.3-0.4,0.6-0.6,1c-0.1,0.2-0.1,0.4-0.2,0.6c0,0.1,0,0.2,0,0.3c0,0.1,0,0.2,0,0.4c0.1,0,0.3,0,0.4-0.1c0.1,0,0.2-0.1,0.3-0.1
		c0.2-0.1,0.4-0.2,0.6-0.3c0.3-0.2,0.6-0.5,0.9-0.8c0.2-0.3,0.4-0.6,0.6-1c0.1-0.2,0.1-0.4,0.2-0.6c0-0.1,0-0.2,0-0.3
		C148.9,14.4,148.9,14.2,148.8,14.1"/>
	<path class="st1" d="M145.1,11.4c-0.1,0-0.2,0.1-0.4,0.1c-0.1,0-0.2,0.1-0.3,0.2c-0.2,0.1-0.4,0.2-0.5,0.4
		c-0.3,0.3-0.5,0.6-0.7,0.9c-0.2,0.3-0.3,0.7-0.4,1.1c0,0.2-0.1,0.4-0.1,0.6c0,0.1,0,0.2,0,0.3c0,0.1,0,0.2,0.1,0.4
		c0.1,0,0.2-0.1,0.4-0.1c0.1,0,0.2-0.1,0.3-0.2c0.2-0.1,0.4-0.2,0.5-0.4c0.3-0.3,0.5-0.6,0.7-0.9c0.2-0.3,0.3-0.7,0.4-1.1
		c0-0.2,0.1-0.4,0.1-0.6c0-0.1,0-0.2,0-0.3C145.1,11.7,145.1,11.6,145.1,11.4"/>
	<path class="st1" d="M139.1,9.2c-0.1,0.1-0.2,0.2-0.3,0.2c-0.1,0.1-0.2,0.2-0.2,0.3c-0.1,0.2-0.2,0.4-0.3,0.5
		c-0.2,0.4-0.3,0.7-0.3,1.1c-0.1,0.4-0.1,0.8,0,1.2c0,0.2,0.1,0.4,0.2,0.6c0,0.1,0.1,0.2,0.1,0.3c0.1,0.1,0.1,0.2,0.2,0.3
		c0.1-0.1,0.2-0.2,0.3-0.2c0.1-0.1,0.2-0.2,0.2-0.3c0.1-0.2,0.2-0.4,0.3-0.5c0.2-0.4,0.3-0.7,0.3-1.1c0.1-0.4,0.1-0.8,0-1.2
		c0-0.2-0.1-0.4-0.2-0.6c0-0.1-0.1-0.2-0.1-0.3C139.3,9.4,139.2,9.3,139.1,9.2"/>
	<path class="st1" d="M155.7,23.8c-0.1-0.1-0.2-0.1-0.3-0.2c-0.1,0-0.2-0.1-0.3-0.1c-0.2-0.1-0.4-0.1-0.6-0.1c-0.4,0-0.8,0-1.2,0.1
		c-0.4,0.1-0.7,0.2-1.1,0.4c-0.2,0.1-0.3,0.2-0.5,0.4c-0.1,0.1-0.2,0.2-0.2,0.2c-0.1,0.1-0.2,0.2-0.2,0.3c0.1,0.1,0.2,0.1,0.3,0.2
		c0.1,0,0.2,0.1,0.3,0.1c0.2,0.1,0.4,0.1,0.6,0.1c0.4,0,0.8,0,1.2-0.1c0.4-0.1,0.7-0.2,1.1-0.4c0.2-0.1,0.3-0.2,0.5-0.4
		c0.1-0.1,0.2-0.2,0.2-0.2C155.5,24,155.6,23.9,155.7,23.8"/>
	<path class="st1" d="M154.4,27.3c-0.1-0.1-0.2-0.2-0.3-0.2c-0.1-0.1-0.2-0.1-0.3-0.2c-0.2-0.1-0.4-0.2-0.6-0.3
		c-0.4-0.1-0.8-0.2-1.1-0.2c-0.4,0-0.8,0-1.1,0.2c-0.2,0.1-0.4,0.1-0.6,0.2c-0.1,0.1-0.2,0.1-0.3,0.2c-0.1,0.1-0.2,0.1-0.3,0.2
		c0.1,0.1,0.2,0.2,0.3,0.2c0.1,0.1,0.2,0.1,0.3,0.2c0.2,0.1,0.4,0.2,0.6,0.3c0.4,0.1,0.8,0.2,1.1,0.2c0.4,0,0.8,0,1.1-0.2
		c0.2-0.1,0.4-0.1,0.6-0.2c0.1-0.1,0.2-0.1,0.3-0.2C154.2,27.5,154.3,27.4,154.4,27.3"/>
	<path class="st1" d="M158,29.3c-0.1-0.1-0.2-0.2-0.3-0.2c-0.1-0.1-0.2-0.1-0.3-0.2c-0.2-0.1-0.4-0.2-0.6-0.2
		c-0.4-0.1-0.8-0.2-1.1-0.2c-0.4,0-0.8,0.1-1.1,0.2c-0.2,0.1-0.4,0.2-0.6,0.3c-0.1,0.1-0.2,0.1-0.3,0.2c-0.1,0.1-0.2,0.2-0.3,0.3
		c0.1,0.1,0.2,0.2,0.3,0.2c0.1,0.1,0.2,0.1,0.3,0.2c0.2,0.1,0.4,0.2,0.6,0.2c0.4,0.1,0.8,0.2,1.1,0.2c0.4,0,0.8-0.1,1.1-0.2
		c0.2-0.1,0.4-0.2,0.6-0.3c0.1-0.1,0.2-0.1,0.3-0.2C157.9,29.4,157.9,29.4,158,29.3"/>
	<path class="st1" d="M129.7,29.4c0.1-0.1,0.2-0.2,0.3-0.2c0.1-0.1,0.2-0.1,0.3-0.2c0.2-0.1,0.4-0.2,0.6-0.2
		c0.4-0.1,0.8-0.1,1.2-0.1c0.4,0,0.8,0.1,1.1,0.2c0.2,0.1,0.4,0.2,0.6,0.3c0.1,0.1,0.2,0.1,0.3,0.2c0.1,0.1,0.2,0.2,0.3,0.3
		c-0.1,0.1-0.2,0.2-0.3,0.2c-0.1,0.1-0.2,0.1-0.3,0.2c-0.2,0.1-0.4,0.2-0.6,0.2c-0.4,0.1-0.8,0.1-1.2,0.1c-0.4,0-0.8-0.1-1.1-0.2
		c-0.2-0.1-0.4-0.2-0.6-0.3c-0.1-0.1-0.2-0.1-0.3-0.2C129.9,29.6,129.8,29.5,129.7,29.4"/>
	<path class="st1" d="M118.8,29.4c0.1-0.1,0.2-0.2,0.3-0.2c0.1-0.1,0.2-0.1,0.3-0.2c0.2-0.1,0.4-0.2,0.6-0.2
		c0.4-0.1,0.8-0.1,1.2-0.1c0.4,0,0.8,0.1,1.1,0.2c0.2,0.1,0.4,0.2,0.6,0.3c0.1,0.1,0.2,0.1,0.3,0.2c0.1,0.1,0.2,0.2,0.3,0.3
		c-0.1,0.1-0.2,0.2-0.3,0.2c-0.1,0.1-0.2,0.1-0.3,0.2c-0.2,0.1-0.4,0.2-0.6,0.2c-0.4,0.1-0.8,0.1-1.2,0.1c-0.4,0-0.8-0.1-1.1-0.3
		c-0.2-0.1-0.4-0.2-0.6-0.3c-0.1-0.1-0.2-0.1-0.3-0.2C119,29.6,118.9,29.5,118.8,29.4"/>
	<path class="st1" d="M113.6,29.3c0.1-0.1,0.2-0.2,0.3-0.2c0.1-0.1,0.2-0.1,0.3-0.2c0.2-0.1,0.4-0.2,0.6-0.2
		c0.4-0.1,0.8-0.2,1.1-0.2c0.4,0,0.8,0.1,1.1,0.2c0.2,0.1,0.4,0.2,0.6,0.3c0.1,0.1,0.2,0.1,0.3,0.2c0.1,0.1,0.2,0.2,0.3,0.3
		c-0.1,0.1-0.2,0.2-0.3,0.2c-0.1,0.1-0.2,0.1-0.3,0.2c-0.2,0.1-0.4,0.2-0.6,0.2c-0.4,0.1-0.8,0.2-1.1,0.2c-0.4,0-0.8-0.1-1.1-0.2
		c-0.2-0.1-0.4-0.2-0.6-0.3c-0.1-0.1-0.2-0.1-0.3-0.2C113.8,29.4,113.7,29.4,113.6,29.3"/>
	<path class="st1" d="M135.8,36.5c0.1-0.1,0.2-0.2,0.2-0.3c0.1-0.1,0.1-0.2,0.2-0.3c0.1-0.2,0.2-0.4,0.3-0.6
		c0.1-0.4,0.2-0.8,0.2-1.1c0-0.4-0.1-0.8-0.2-1.1c-0.1-0.2-0.1-0.4-0.3-0.6c-0.1-0.1-0.1-0.2-0.2-0.3c-0.1-0.1-0.1-0.2-0.2-0.3
		c-0.1,0.1-0.2,0.2-0.2,0.3c-0.1,0.1-0.1,0.2-0.2,0.3c-0.1,0.2-0.2,0.4-0.3,0.6c-0.1,0.4-0.2,0.8-0.2,1.1c0,0.4,0.1,0.8,0.2,1.1
		c0.1,0.2,0.1,0.4,0.3,0.6c0.1,0.1,0.1,0.2,0.2,0.3C135.7,36.3,135.7,36.4,135.8,36.5"/>
	<path class="st1" d="M135.8,41.7c0.1-0.1,0.2-0.2,0.2-0.3c0.1-0.1,0.1-0.2,0.2-0.3c0.1-0.2,0.2-0.4,0.3-0.6
		c0.1-0.4,0.2-0.8,0.2-1.1c0-0.4-0.1-0.8-0.2-1.1c-0.1-0.2-0.1-0.4-0.3-0.6c-0.1-0.1-0.1-0.2-0.2-0.3c-0.1-0.1-0.1-0.2-0.2-0.3
		c-0.1,0.1-0.2,0.2-0.2,0.3c-0.1,0.1-0.1,0.2-0.2,0.3c-0.1,0.2-0.2,0.4-0.3,0.6c-0.1,0.4-0.2,0.8-0.2,1.1c0,0.4,0.1,0.8,0.2,1.1
		c0.1,0.2,0.1,0.4,0.3,0.6c0.1,0.1,0.1,0.2,0.2,0.3C135.7,41.5,135.7,41.6,135.8,41.7"/>
	<path class="st1" d="M139.6,35c-0.1,0-0.3,0-0.4-0.1c-0.1,0-0.2-0.1-0.3-0.1c-0.2-0.1-0.4-0.2-0.6-0.3c-0.3-0.2-0.6-0.5-0.9-0.7
		c-0.2-0.3-0.5-0.6-0.6-1c-0.1-0.2-0.1-0.4-0.2-0.6c0-0.1,0-0.2,0-0.3c0-0.1,0-0.2,0-0.4c0.1,0,0.3,0,0.4,0.1c0.1,0,0.2,0.1,0.3,0.1
		c0.2,0.1,0.4,0.2,0.6,0.3c0.3,0.2,0.6,0.5,0.9,0.7c0.2,0.3,0.5,0.6,0.6,1c0.1,0.2,0.1,0.4,0.2,0.6c0,0.1,0,0.2,0,0.3
		C139.6,34.8,139.6,34.9,139.6,35"/>
	<path class="st1" d="M148.4,38.3c-0.1,0-0.3,0-0.4,0c-0.1,0-0.2,0-0.3,0c-0.2,0-0.4,0-0.6-0.1c-0.4-0.1-0.7-0.3-1.1-0.5
		c-0.3-0.2-0.6-0.5-0.9-0.8c-0.1-0.2-0.2-0.3-0.3-0.5c-0.1-0.1-0.1-0.2-0.1-0.3c0-0.1-0.1-0.2-0.1-0.4c0.1,0,0.3,0,0.4,0
		c0.1,0,0.2,0,0.3,0c0.2,0,0.4,0,0.6,0.1c0.4,0.1,0.7,0.3,1.1,0.5c0.3,0.2,0.6,0.5,0.9,0.8c0.1,0.2,0.2,0.3,0.3,0.5
		c0.1,0.1,0.1,0.2,0.1,0.3C148.3,38.1,148.4,38.2,148.4,38.3"/>
	<path class="st1" d="M142.7,39.4c-0.1,0-0.3,0-0.4-0.1c-0.1,0-0.2-0.1-0.3-0.1c-0.2-0.1-0.4-0.2-0.6-0.3c-0.3-0.2-0.6-0.5-0.9-0.7
		c-0.2-0.3-0.5-0.6-0.6-1c-0.1-0.2-0.1-0.4-0.2-0.6c0-0.1,0-0.2,0-0.3c0-0.1,0-0.2,0-0.4c0.1,0,0.3,0,0.4,0.1c0.1,0,0.2,0.1,0.3,0.1
		c0.2,0.1,0.4,0.2,0.6,0.3c0.3,0.2,0.6,0.5,0.9,0.7c0.2,0.3,0.5,0.6,0.6,1c0.1,0.2,0.1,0.4,0.2,0.6c0,0.1,0,0.2,0,0.3
		C142.7,39.1,142.7,39.3,142.7,39.4"/>
	<path class="st1" d="M138.7,39.4c-0.1-0.1-0.2-0.1-0.3-0.2c-0.1-0.1-0.2-0.1-0.3-0.2c-0.2-0.1-0.3-0.3-0.4-0.5
		c-0.2-0.3-0.4-0.7-0.5-1c-0.1-0.4-0.2-0.7-0.2-1.1c0-0.2,0-0.4,0.1-0.6c0-0.1,0.1-0.2,0.1-0.3c0-0.1,0.1-0.2,0.1-0.3
		c0.1,0.1,0.2,0.1,0.3,0.2c0.1,0.1,0.2,0.1,0.3,0.2c0.2,0.1,0.3,0.3,0.4,0.5c0.2,0.3,0.4,0.7,0.5,1c0.1,0.4,0.2,0.7,0.2,1.1
		c0,0.2,0,0.4-0.1,0.6c0,0.1-0.1,0.2-0.1,0.3C138.9,39.2,138.8,39.3,138.7,39.4"/>
	<path class="st1" d="M141.6,42.8c-0.1,0-0.2-0.1-0.3-0.2c-0.1-0.1-0.2-0.1-0.3-0.2c-0.2-0.1-0.3-0.3-0.5-0.4
		c-0.3-0.3-0.5-0.6-0.6-1c-0.2-0.3-0.3-0.7-0.3-1.1c0-0.2,0-0.4,0-0.6c0-0.1,0-0.2,0-0.3c0-0.1,0.1-0.2,0.1-0.4
		c0.1,0,0.2,0.1,0.3,0.2c0.1,0.1,0.2,0.1,0.3,0.2c0.2,0.1,0.3,0.3,0.5,0.4c0.3,0.3,0.5,0.6,0.6,1c0.2,0.3,0.3,0.7,0.3,1.1
		c0,0.2,0,0.4,0,0.6c0,0.1,0,0.2,0,0.3C141.6,42.6,141.6,42.7,141.6,42.8"/>
	<path class="st1" d="M138.4,44.4c-0.1-0.1-0.2-0.1-0.3-0.2c-0.1-0.1-0.2-0.2-0.2-0.2c-0.1-0.2-0.3-0.3-0.4-0.5
		c-0.2-0.3-0.4-0.7-0.4-1.1c-0.1-0.4-0.1-0.8-0.1-1.2c0-0.2,0.1-0.4,0.1-0.6c0-0.1,0.1-0.2,0.1-0.3c0-0.1,0.1-0.2,0.2-0.3
		c0.1,0.1,0.2,0.1,0.3,0.2c0.1,0.1,0.2,0.2,0.2,0.2c0.1,0.2,0.3,0.3,0.4,0.5c0.2,0.3,0.4,0.7,0.4,1.1c0.1,0.4,0.1,0.8,0.1,1.2
		c0,0.2-0.1,0.4-0.1,0.6c0,0.1-0.1,0.2-0.1,0.3C138.5,44.2,138.5,44.3,138.4,44.4"/>
	<path class="st1" d="M146.8,35c-0.1,0.1-0.2,0.1-0.4,0.1c-0.1,0-0.2,0.1-0.3,0.1c-0.2,0-0.4,0-0.6,0c-0.4,0-0.8-0.1-1.1-0.2
		c-0.4-0.1-0.7-0.3-1-0.6c-0.2-0.1-0.3-0.3-0.4-0.4c-0.1-0.1-0.1-0.2-0.2-0.3c-0.1-0.1-0.1-0.2-0.2-0.3c0.1-0.1,0.2-0.1,0.4-0.1
		c0.1,0,0.2-0.1,0.3-0.1c0.2,0,0.4,0,0.6,0c0.4,0,0.8,0.1,1.1,0.2c0.4,0.1,0.7,0.3,1,0.6c0.2,0.1,0.3,0.3,0.4,0.4
		c0.1,0.1,0.1,0.2,0.2,0.3C146.7,34.7,146.8,34.8,146.8,35"/>
	<path class="st1" d="M143.7,36.4c-0.1,0-0.3,0-0.4,0c-0.1,0-0.2,0-0.3,0c-0.2,0-0.4-0.1-0.6-0.1c-0.4-0.1-0.7-0.3-1-0.5
		c-0.3-0.2-0.6-0.5-0.8-0.8c-0.1-0.2-0.2-0.3-0.3-0.5c0-0.1-0.1-0.2-0.1-0.3c0-0.1-0.1-0.2-0.1-0.4c0.1,0,0.3,0,0.4,0
		c0.1,0,0.2,0,0.3,0c0.2,0,0.4,0.1,0.6,0.1c0.4,0.1,0.7,0.3,1,0.5c0.3,0.2,0.6,0.5,0.8,0.8c0.1,0.2,0.2,0.3,0.3,0.5
		c0,0.1,0.1,0.2,0.1,0.3C143.6,36.1,143.7,36.3,143.7,36.4"/>
	<path class="st1" d="M146,40.6c-0.1,0-0.3,0-0.4-0.1c-0.1,0-0.2-0.1-0.3-0.1c-0.2-0.1-0.4-0.2-0.6-0.3c-0.3-0.2-0.6-0.4-0.9-0.7
		c-0.3-0.3-0.5-0.6-0.6-1c-0.1-0.2-0.1-0.4-0.2-0.6c0-0.1,0-0.2-0.1-0.3c0-0.1,0-0.2,0-0.4c0.1,0,0.3,0,0.4,0.1
		c0.1,0,0.2,0.1,0.3,0.1c0.2,0.1,0.4,0.2,0.6,0.3c0.4,0.2,0.6,0.4,0.9,0.7c0.3,0.3,0.5,0.6,0.6,1c0.1,0.2,0.1,0.4,0.2,0.6
		c0,0.1,0,0.2,0.1,0.3C146,40.4,146,40.5,146,40.6"/>
	<path class="st1" d="M145.3,43.8c-0.1,0-0.2-0.1-0.4-0.1c-0.1,0-0.2-0.1-0.3-0.1c-0.2-0.1-0.4-0.2-0.5-0.3
		c-0.3-0.2-0.6-0.5-0.8-0.8c-0.2-0.3-0.4-0.7-0.5-1c-0.1-0.2-0.1-0.4-0.1-0.6c0-0.1,0-0.2,0-0.3c0-0.1,0-0.2,0-0.4
		c0.1,0,0.2,0.1,0.4,0.1c0.1,0,0.2,0.1,0.3,0.1c0.2,0.1,0.4,0.2,0.5,0.3c0.3,0.2,0.6,0.5,0.8,0.8c0.2,0.3,0.4,0.7,0.5,1
		c0.1,0.2,0.1,0.4,0.1,0.6c0,0.1,0,0.2,0,0.3C145.3,43.5,145.3,43.7,145.3,43.8"/>
	<path class="st1" d="M141.7,46.6c-0.1,0-0.2-0.1-0.3-0.2c-0.1-0.1-0.2-0.1-0.3-0.2c-0.2-0.1-0.3-0.3-0.5-0.4
		c-0.3-0.3-0.5-0.6-0.7-0.9c-0.2-0.3-0.3-0.7-0.3-1.1c0-0.2,0-0.4,0-0.6c0-0.1,0-0.2,0-0.3c0-0.1,0-0.2,0.1-0.4
		c0.1,0,0.2,0.1,0.3,0.2c0.1,0.1,0.2,0.1,0.3,0.2c0.2,0.1,0.3,0.3,0.5,0.4c0.3,0.3,0.5,0.6,0.7,1c0.2,0.3,0.3,0.7,0.3,1.1
		c0,0.2,0,0.4,0,0.6c0,0.1,0,0.2,0,0.3C141.8,46.4,141.7,46.5,141.7,46.6"/>
	<path class="st1" d="M136,47c-0.1-0.1-0.2-0.2-0.3-0.3c-0.1-0.1-0.1-0.2-0.2-0.3c-0.1-0.2-0.2-0.4-0.3-0.6
		c-0.2-0.4-0.2-0.7-0.3-1.1c0-0.4,0-0.8,0.1-1.2c0.1-0.2,0.1-0.4,0.2-0.6c0-0.1,0.1-0.2,0.2-0.3c0.1-0.1,0.1-0.2,0.2-0.3
		c0.1,0.1,0.2,0.2,0.3,0.3c0.1,0.1,0.1,0.2,0.2,0.3c0.1,0.2,0.2,0.4,0.3,0.6c0.2,0.4,0.2,0.7,0.3,1.1c0,0.4,0,0.8-0.1,1.2
		c0,0.2-0.1,0.4-0.2,0.6c0,0.1-0.1,0.2-0.2,0.3C136.1,46.8,136.1,46.9,136,47"/>
	<path class="st1" d="M149.8,41.9c-0.1,0-0.3,0-0.4,0c-0.1,0-0.2,0-0.3-0.1c-0.2,0-0.4-0.1-0.6-0.2c-0.4-0.2-0.7-0.4-1-0.6
		c-0.3-0.3-0.5-0.5-0.7-0.9c-0.1-0.2-0.2-0.4-0.3-0.6c0-0.1-0.1-0.2-0.1-0.3c0-0.1,0-0.2-0.1-0.4c0.1,0,0.3,0,0.4,0
		c0.1,0,0.2,0,0.3,0.1c0.2,0,0.4,0.1,0.6,0.2c0.4,0.2,0.7,0.4,1,0.6c0.3,0.3,0.5,0.5,0.7,0.9c0.1,0.2,0.2,0.4,0.3,0.6
		c0,0.1,0.1,0.2,0.1,0.3C149.7,41.6,149.8,41.7,149.8,41.9"/>
	<path class="st1" d="M151.7,37.2c-0.1,0.1-0.2,0.1-0.4,0.1c-0.1,0-0.2,0.1-0.3,0.1c-0.2,0-0.4,0-0.6,0c-0.4,0-0.8-0.1-1.1-0.2
		c-0.4-0.1-0.7-0.3-1-0.6c-0.2-0.1-0.3-0.3-0.4-0.4c-0.1-0.1-0.1-0.2-0.2-0.3c-0.1-0.1-0.1-0.2-0.2-0.3c0.1-0.1,0.2-0.1,0.4-0.1
		c0.1,0,0.2-0.1,0.3-0.1c0.2,0,0.4,0,0.6,0c0.4,0,0.8,0.1,1.1,0.2c0.4,0.1,0.7,0.3,1,0.6c0.2,0.1,0.3,0.3,0.4,0.4
		c0.1,0.1,0.1,0.2,0.2,0.3C151.6,36.9,151.7,37.1,151.7,37.2"/>
	<path class="st1" d="M132.1,35c0.1,0,0.3,0,0.4-0.1c0.1,0,0.2-0.1,0.3-0.1c0.2-0.1,0.4-0.2,0.6-0.3c0.3-0.2,0.6-0.5,0.9-0.7
		c0.2-0.3,0.5-0.6,0.6-1c0.1-0.2,0.1-0.4,0.2-0.6c0-0.1,0-0.2,0-0.3c0-0.1,0-0.2,0-0.4c-0.1,0-0.3,0-0.4,0.1c-0.1,0-0.2,0.1-0.3,0.1
		c-0.2,0.1-0.4,0.2-0.6,0.3c-0.3,0.2-0.6,0.5-0.9,0.7c-0.2,0.3-0.5,0.6-0.6,1c-0.1,0.2-0.1,0.4-0.2,0.6c0,0.1,0,0.2,0,0.3
		C132.1,34.8,132.1,34.9,132.1,35"/>
	<path class="st1" d="M123.3,38.3c0.1,0,0.3,0,0.4,0c0.1,0,0.2,0,0.3,0c0.2,0,0.4,0,0.6-0.1c0.4-0.1,0.7-0.3,1.1-0.5
		c0.3-0.2,0.6-0.5,0.9-0.8c0.1-0.2,0.2-0.3,0.3-0.5c0.1-0.1,0.1-0.2,0.1-0.3c0-0.1,0.1-0.2,0.1-0.4c-0.1,0-0.3,0-0.4,0
		c-0.1,0-0.2,0-0.3,0c-0.2,0-0.4,0-0.6,0.1c-0.4,0.1-0.7,0.3-1.1,0.5c-0.3,0.2-0.6,0.5-0.9,0.8c-0.1,0.2-0.2,0.3-0.3,0.5
		c-0.1,0.1-0.1,0.2-0.1,0.3C123.4,38.1,123.3,38.2,123.3,38.3"/>
	<path class="st1" d="M121.1,33.9c0.1,0.1,0.2,0.1,0.3,0.2c0.1,0,0.2,0.1,0.3,0.1c0.2,0.1,0.4,0.1,0.6,0.1c0.4,0,0.8,0,1.2-0.1
		c0.4-0.1,0.7-0.2,1.1-0.5c0.2-0.1,0.3-0.2,0.5-0.4c0.1-0.1,0.2-0.2,0.2-0.2c0.1-0.1,0.2-0.2,0.2-0.3c-0.1-0.1-0.2-0.1-0.3-0.2
		c-0.1,0-0.2-0.1-0.3-0.1c-0.2-0.1-0.4-0.1-0.6-0.1c-0.4,0-0.8,0-1.2,0.1c-0.4,0.1-0.7,0.2-1.1,0.5c-0.2,0.1-0.3,0.2-0.5,0.4
		c-0.1,0.1-0.2,0.2-0.2,0.2C121.2,33.7,121.1,33.7,121.1,33.9"/>
	<path class="st1" d="M129,39.4c0.1,0,0.3,0,0.4-0.1c0.1,0,0.2-0.1,0.3-0.1c0.2-0.1,0.4-0.2,0.6-0.3c0.3-0.2,0.6-0.5,0.9-0.7
		c0.2-0.3,0.5-0.6,0.6-1c0.1-0.2,0.1-0.4,0.2-0.6c0-0.1,0-0.2,0-0.3c0-0.1,0-0.2,0-0.4c-0.1,0-0.3,0-0.4,0.1c-0.1,0-0.2,0.1-0.3,0.1
		c-0.2,0.1-0.4,0.2-0.6,0.3c-0.3,0.2-0.6,0.5-0.9,0.7c-0.2,0.3-0.5,0.6-0.6,1c-0.1,0.2-0.1,0.4-0.2,0.6c0,0.1,0,0.2,0,0.3
		C129,39.1,129,39.3,129,39.4"/>
	<path class="st1" d="M133,39.4c0.1-0.1,0.2-0.1,0.3-0.2c0.1-0.1,0.2-0.1,0.3-0.2c0.2-0.1,0.3-0.3,0.4-0.5c0.2-0.3,0.4-0.7,0.5-1
		c0.1-0.4,0.2-0.7,0.2-1.1c0-0.2,0-0.4-0.1-0.6c0-0.1-0.1-0.2-0.1-0.3c0-0.1-0.1-0.2-0.1-0.3c-0.1,0.1-0.2,0.1-0.3,0.2
		c-0.1,0.1-0.2,0.1-0.3,0.2c-0.2,0.1-0.3,0.3-0.4,0.5c-0.2,0.3-0.4,0.7-0.5,1c-0.1,0.4-0.2,0.7-0.2,1.1c0,0.2,0,0.4,0.1,0.6
		c0,0.1,0.1,0.2,0.1,0.3C132.8,39.2,132.9,39.3,133,39.4"/>
	<path class="st1" d="M130.1,42.8c0.1,0,0.2-0.1,0.3-0.2c0.1-0.1,0.2-0.1,0.3-0.2c0.2-0.1,0.3-0.3,0.5-0.4c0.3-0.3,0.5-0.6,0.6-1
		c0.2-0.3,0.3-0.7,0.3-1.1c0-0.2,0-0.4,0-0.6c0-0.1,0-0.2,0-0.3c0-0.1-0.1-0.2-0.1-0.4c-0.1,0-0.2,0.1-0.3,0.2
		c-0.1,0.1-0.2,0.1-0.3,0.2c-0.2,0.1-0.3,0.3-0.5,0.4c-0.3,0.3-0.5,0.6-0.6,1c-0.2,0.3-0.3,0.7-0.3,1.1c0,0.2,0,0.4,0,0.6
		c0,0.1,0,0.2,0,0.3C130.1,42.6,130.1,42.7,130.1,42.8"/>
	<path class="st1" d="M133.3,44.4c0.1-0.1,0.2-0.1,0.3-0.2c0.1-0.1,0.2-0.2,0.2-0.2c0.1-0.2,0.3-0.3,0.4-0.5
		c0.2-0.3,0.4-0.7,0.4-1.1c0.1-0.4,0.1-0.8,0.1-1.2c0-0.2-0.1-0.4-0.1-0.6c0-0.1-0.1-0.2-0.1-0.3c0-0.1-0.1-0.2-0.2-0.3
		c-0.1,0.1-0.2,0.1-0.3,0.2c-0.1,0.1-0.2,0.2-0.2,0.2c-0.1,0.2-0.3,0.3-0.4,0.5c-0.2,0.3-0.3,0.7-0.4,1.1c-0.1,0.4-0.1,0.8-0.1,1.2
		c0,0.2,0.1,0.4,0.1,0.6c0,0.1,0.1,0.2,0.1,0.3C133.2,44.2,133.2,44.3,133.3,44.4"/>
	<path class="st1" d="M124.9,35c0.1,0.1,0.2,0.1,0.4,0.1c0.1,0,0.2,0.1,0.3,0.1c0.2,0,0.4,0,0.6,0c0.4,0,0.8-0.1,1.1-0.2
		c0.4-0.1,0.7-0.3,1-0.6c0.2-0.1,0.3-0.3,0.4-0.4c0.1-0.1,0.1-0.2,0.2-0.3c0.1-0.1,0.1-0.2,0.2-0.3c-0.1-0.1-0.2-0.1-0.4-0.1
		c-0.1,0-0.2-0.1-0.3-0.1c-0.2,0-0.4,0-0.6,0c-0.4,0-0.8,0.1-1.1,0.2c-0.4,0.1-0.7,0.3-1,0.6c-0.2,0.1-0.3,0.3-0.4,0.4
		c-0.1,0.1-0.1,0.2-0.2,0.3C125,34.7,124.9,34.8,124.9,35"/>
	<path class="st1" d="M122.6,31.1c0.1,0.1,0.2,0.2,0.3,0.2c0.1,0.1,0.2,0.1,0.3,0.2c0.2,0.1,0.4,0.2,0.6,0.2
		c0.4,0.1,0.8,0.1,1.2,0.1c0.4,0,0.8-0.1,1.1-0.3c0.2-0.1,0.4-0.2,0.6-0.3c0.1-0.1,0.2-0.1,0.3-0.2c0.1-0.1,0.2-0.2,0.3-0.3
		c-0.1-0.1-0.2-0.2-0.3-0.2c-0.1-0.1-0.2-0.1-0.3-0.2c-0.2-0.1-0.4-0.2-0.6-0.2c-0.4-0.1-0.8-0.1-1.2-0.1c-0.4,0-0.8,0.1-1.1,0.3
		c-0.2,0.1-0.4,0.2-0.6,0.3c-0.1,0.1-0.2,0.1-0.3,0.2C122.8,30.9,122.7,31,122.6,31.1"/>
	<path class="st1" d="M128,36.4c0.1,0,0.3,0,0.4,0c0.1,0,0.2,0,0.3,0c0.2,0,0.4-0.1,0.6-0.1c0.4-0.1,0.7-0.3,1-0.5
		c0.3-0.2,0.6-0.5,0.8-0.8c0.1-0.2,0.2-0.3,0.3-0.5c0-0.1,0.1-0.2,0.1-0.3c0-0.1,0.1-0.2,0.1-0.4c-0.1,0-0.3,0-0.4,0
		c-0.1,0-0.2,0-0.3,0c-0.2,0-0.4,0.1-0.6,0.1c-0.4,0.1-0.7,0.3-1,0.5c-0.3,0.2-0.6,0.5-0.8,0.8c-0.1,0.2-0.2,0.3-0.3,0.5
		c0,0.1-0.1,0.2-0.1,0.3C128.1,36.1,128,36.3,128,36.4"/>
	<path class="st1" d="M126.9,32.1c0.1,0.1,0.2,0.1,0.3,0.2c0.1,0.1,0.2,0.1,0.3,0.1c0.2,0.1,0.4,0.1,0.6,0.2c0.4,0.1,0.8,0.1,1.2,0
		c0.4-0.1,0.7-0.2,1.1-0.3c0.2-0.1,0.4-0.2,0.5-0.3c0.1-0.1,0.2-0.1,0.3-0.2c0.1-0.1,0.2-0.2,0.3-0.3c-0.1-0.1-0.2-0.1-0.3-0.2
		c-0.1-0.1-0.2-0.1-0.3-0.1c-0.2-0.1-0.4-0.1-0.6-0.2c-0.4-0.1-0.8-0.1-1.2,0c-0.4,0.1-0.7,0.2-1.1,0.3c-0.2,0.1-0.4,0.2-0.5,0.3
		c-0.1,0.1-0.2,0.1-0.3,0.2C127,31.9,126.9,32,126.9,32.1"/>
	<path class="st1" d="M125.7,40.6c0.1,0,0.3,0,0.4-0.1c0.1,0,0.2-0.1,0.3-0.1c0.2-0.1,0.4-0.2,0.6-0.3c0.4-0.2,0.6-0.4,0.9-0.7
		c0.3-0.3,0.5-0.6,0.6-1c0.1-0.2,0.1-0.4,0.2-0.6c0-0.1,0-0.2,0.1-0.3c0-0.1,0-0.2,0-0.4c-0.1,0-0.3,0-0.4,0.1
		c-0.1,0-0.2,0.1-0.3,0.1c-0.2,0.1-0.4,0.2-0.6,0.3c-0.4,0.2-0.6,0.4-0.9,0.7c-0.3,0.3-0.5,0.6-0.6,1c-0.1,0.2-0.1,0.4-0.2,0.6
		c0,0.1,0,0.2-0.1,0.3C125.7,40.4,125.7,40.5,125.7,40.6"/>
	<path class="st1" d="M126.4,43.8c0.1,0,0.3-0.1,0.4-0.1c0.1,0,0.2-0.1,0.3-0.1c0.2-0.1,0.4-0.2,0.5-0.3c0.3-0.2,0.6-0.5,0.8-0.8
		c0.2-0.3,0.4-0.7,0.5-1c0.1-0.2,0.1-0.4,0.1-0.6c0-0.1,0-0.2,0-0.3c0-0.1,0-0.2,0-0.4c-0.1,0-0.3,0.1-0.4,0.1
		c-0.1,0-0.2,0.1-0.3,0.1c-0.2,0.1-0.4,0.2-0.5,0.3c-0.3,0.2-0.6,0.5-0.8,0.8c-0.2,0.3-0.4,0.7-0.5,1c-0.1,0.2-0.1,0.4-0.1,0.6
		c0,0.1,0,0.2,0,0.3C126.4,43.5,126.4,43.7,126.4,43.8"/>
	<path class="st1" d="M130,46.6c0.1,0,0.2-0.1,0.3-0.2c0.1-0.1,0.2-0.1,0.3-0.2c0.2-0.1,0.3-0.3,0.5-0.4c0.3-0.3,0.5-0.6,0.7-0.9
		c0.2-0.3,0.3-0.7,0.3-1.1c0-0.2,0-0.4,0-0.6c0-0.1,0-0.2,0-0.3c0-0.1,0-0.2-0.1-0.4c-0.1,0-0.2,0.1-0.3,0.2
		c-0.1,0.1-0.2,0.1-0.3,0.2c-0.2,0.1-0.3,0.3-0.5,0.4c-0.3,0.3-0.5,0.6-0.7,1c-0.2,0.3-0.3,0.7-0.3,1.1c0,0.2,0,0.4,0,0.6
		c0,0.1,0,0.2,0,0.3C129.9,46.4,130,46.5,130,46.6"/>
	<path class="st1" d="M121.9,41.9c0.1,0,0.3,0,0.4,0c0.1,0,0.2,0,0.3-0.1c0.2,0,0.4-0.1,0.6-0.2c0.4-0.2,0.7-0.4,1-0.6
		c0.3-0.3,0.5-0.5,0.7-0.9c0.1-0.2,0.2-0.4,0.3-0.6c0-0.1,0.1-0.2,0.1-0.3c0-0.1,0-0.2,0.1-0.4c-0.1,0-0.3,0-0.4,0
		c-0.1,0-0.2,0-0.3,0.1c-0.2,0-0.4,0.1-0.6,0.2c-0.4,0.2-0.7,0.4-1,0.6c-0.3,0.3-0.5,0.5-0.7,0.9c-0.1,0.2-0.2,0.4-0.3,0.6
		c0,0.1-0.1,0.2-0.1,0.3C122,41.6,121.9,41.7,121.9,41.9"/>
	<path class="st1" d="M120,37.2c0.1,0.1,0.2,0.1,0.4,0.1c0.1,0,0.2,0.1,0.3,0.1c0.2,0,0.4,0,0.6,0c0.4,0,0.8-0.1,1.1-0.2
		c0.4-0.1,0.7-0.3,1-0.6c0.2-0.1,0.3-0.3,0.4-0.4c0.1-0.1,0.1-0.2,0.2-0.3c0.1-0.1,0.1-0.2,0.2-0.3c-0.1-0.1-0.2-0.1-0.4-0.1
		c-0.1,0-0.2-0.1-0.3-0.1c-0.2,0-0.4,0-0.6,0c-0.4,0-0.8,0.1-1.1,0.2c-0.4,0.1-0.7,0.3-1,0.6c-0.2,0.1-0.3,0.3-0.4,0.4
		c-0.1,0.1-0.1,0.2-0.2,0.3C120.1,36.9,120,37.1,120,37.2"/>
	<path class="st1" d="M118.3,40.8c0.1,0,0.3,0.1,0.4,0.1c0.1,0,0.2,0,0.3,0c0.2,0,0.4,0,0.6-0.1c0.4-0.1,0.8-0.2,1.1-0.4
		c0.3-0.2,0.6-0.4,0.9-0.7c0.1-0.2,0.3-0.3,0.4-0.5c0.1-0.1,0.1-0.2,0.2-0.3c0-0.1,0.1-0.2,0.1-0.4c-0.1,0-0.3-0.1-0.4-0.1
		c-0.1,0-0.2,0-0.3,0c-0.2,0-0.4,0-0.6,0.1c-0.4,0.1-0.8,0.2-1.1,0.4c-0.3,0.2-0.6,0.4-0.9,0.7c-0.1,0.2-0.3,0.3-0.4,0.5
		c-0.1,0.1-0.1,0.2-0.2,0.3C118.4,40.6,118.4,40.7,118.3,40.8"/>
	<path class="st1" d="M122.8,45.3c0.1,0,0.3,0,0.4-0.1c0.1,0,0.2-0.1,0.3-0.1c0.2-0.1,0.4-0.2,0.6-0.3c0.3-0.2,0.6-0.5,0.9-0.8
		c0.2-0.3,0.4-0.6,0.6-1c0.1-0.2,0.1-0.4,0.2-0.6c0-0.1,0-0.2,0-0.3c0-0.1,0-0.2,0-0.4c-0.1,0-0.3,0-0.4,0.1c-0.1,0-0.2,0.1-0.3,0.1
		c-0.2,0.1-0.4,0.2-0.6,0.3c-0.3,0.2-0.6,0.5-0.9,0.8c-0.2,0.3-0.4,0.6-0.6,1c-0.1,0.2-0.1,0.4-0.2,0.6c0,0.1,0,0.2,0,0.3
		C122.8,45,122.8,45.1,122.8,45.3"/>
	<path class="st1" d="M126.6,47.9c0.1,0,0.2-0.1,0.4-0.1c0.1,0,0.2-0.1,0.3-0.2c0.2-0.1,0.4-0.2,0.5-0.4c0.3-0.3,0.5-0.6,0.7-0.9
		c0.2-0.3,0.3-0.7,0.4-1.1c0-0.2,0.1-0.4,0.1-0.6c0-0.1,0-0.2,0-0.3c0-0.1,0-0.2-0.1-0.4c-0.1,0-0.2,0.1-0.4,0.1
		c-0.1,0-0.2,0.1-0.3,0.2c-0.2,0.1-0.4,0.2-0.5,0.4c-0.3,0.3-0.5,0.6-0.7,0.9c-0.2,0.3-0.3,0.7-0.4,1.1c0,0.2-0.1,0.4-0.1,0.6
		c0,0.1,0,0.2,0,0.3C126.6,47.7,126.6,47.8,126.6,47.9"/>
	<path class="st1" d="M132.6,50.2c0.1-0.1,0.2-0.2,0.3-0.2c0.1-0.1,0.2-0.2,0.2-0.3c0.1-0.2,0.2-0.3,0.3-0.5
		c0.2-0.4,0.3-0.7,0.3-1.1c0.1-0.4,0.1-0.8,0-1.2c0-0.2-0.1-0.4-0.2-0.6c0-0.1-0.1-0.2-0.1-0.3c-0.1-0.1-0.1-0.2-0.2-0.3
		c-0.1,0.1-0.2,0.2-0.3,0.2c-0.1,0.1-0.2,0.2-0.2,0.3c-0.1,0.2-0.2,0.3-0.3,0.5c-0.2,0.4-0.3,0.7-0.3,1.1c-0.1,0.4-0.1,0.8,0,1.2
		c0,0.2,0.1,0.4,0.2,0.6c0,0.1,0.1,0.2,0.1,0.3C132.4,50,132.5,50.1,132.6,50.2"/>
	<path class="st1" d="M116,35.5c0.1,0.1,0.2,0.1,0.3,0.2c0.1,0,0.2,0.1,0.3,0.1c0.2,0.1,0.4,0.1,0.6,0.1c0.4,0,0.8,0,1.2-0.1
		c0.4-0.1,0.7-0.2,1.1-0.4c0.2-0.1,0.3-0.2,0.5-0.4c0.1-0.1,0.2-0.2,0.2-0.2c0.1-0.1,0.2-0.2,0.2-0.3c-0.1-0.1-0.2-0.1-0.3-0.2
		c-0.1,0-0.2-0.1-0.3-0.1c-0.2-0.1-0.4-0.1-0.6-0.1c-0.4,0-0.8,0-1.2,0.1c-0.4,0.1-0.7,0.2-1.1,0.4c-0.2,0.1-0.3,0.2-0.5,0.4
		c-0.1,0.1-0.2,0.2-0.2,0.2C116.1,35.3,116,35.4,116,35.5"/>
	<path class="st1" d="M117.3,32.1c0.1,0.1,0.2,0.2,0.3,0.2c0.1,0.1,0.2,0.1,0.3,0.2c0.2,0.1,0.4,0.2,0.6,0.3
		c0.4,0.1,0.8,0.2,1.1,0.2c0.4,0,0.8,0,1.1-0.2c0.2-0.1,0.4-0.1,0.6-0.2c0.1-0.1,0.2-0.1,0.3-0.2c0.1-0.1,0.2-0.1,0.3-0.2
		c-0.1-0.1-0.2-0.2-0.3-0.2c-0.1-0.1-0.2-0.1-0.3-0.2c-0.2-0.1-0.4-0.2-0.6-0.3c-0.4-0.1-0.8-0.2-1.1-0.2c-0.4,0-0.8,0-1.1,0.2
		c-0.2,0.1-0.4,0.1-0.6,0.2c-0.1,0.1-0.2,0.1-0.3,0.2C117.5,31.9,117.4,32,117.3,32.1"/>
	<path class="st1" d="M150.6,33.9c-0.1,0.1-0.2,0.1-0.3,0.2c-0.1,0-0.2,0.1-0.3,0.1c-0.2,0.1-0.4,0.1-0.6,0.1c-0.4,0-0.8,0-1.2-0.1
		c-0.4-0.1-0.7-0.2-1.1-0.5c-0.2-0.1-0.3-0.2-0.5-0.4c-0.1-0.1-0.2-0.2-0.2-0.2c-0.1-0.1-0.2-0.2-0.2-0.3c0.1-0.1,0.2-0.1,0.3-0.2
		c0.1,0,0.2-0.1,0.3-0.1c0.2-0.1,0.4-0.1,0.6-0.1c0.4,0,0.8,0,1.2,0.1c0.4,0.1,0.7,0.2,1.1,0.5c0.2,0.1,0.3,0.2,0.5,0.4
		c0.1,0.1,0.2,0.2,0.2,0.2C150.4,33.7,150.5,33.7,150.6,33.9"/>
	<path class="st1" d="M149.1,31.1c-0.1,0.1-0.2,0.2-0.3,0.2c-0.1,0.1-0.2,0.1-0.3,0.2c-0.2,0.1-0.4,0.2-0.6,0.2
		c-0.4,0.1-0.8,0.1-1.2,0.1c-0.4,0-0.8-0.1-1.1-0.3c-0.2-0.1-0.4-0.2-0.6-0.3c-0.1-0.1-0.2-0.1-0.3-0.2c-0.1-0.1-0.2-0.2-0.3-0.3
		c0.1-0.1,0.2-0.2,0.3-0.2c0.1-0.1,0.2-0.1,0.3-0.2c0.2-0.1,0.4-0.2,0.6-0.2c0.4-0.1,0.8-0.1,1.2-0.1c0.4,0,0.8,0.1,1.1,0.3
		c0.2,0.1,0.4,0.2,0.6,0.3c0.1,0.1,0.2,0.1,0.3,0.2C148.9,30.9,149,31,149.1,31.1"/>
	<path class="st1" d="M144.8,32.1c-0.1,0.1-0.2,0.1-0.3,0.2c-0.1,0.1-0.2,0.1-0.3,0.1c-0.2,0.1-0.4,0.1-0.6,0.2
		c-0.4,0.1-0.8,0.1-1.2,0c-0.4-0.1-0.7-0.2-1.1-0.3c-0.2-0.1-0.4-0.2-0.5-0.3c-0.1-0.1-0.2-0.1-0.3-0.2c-0.1-0.1-0.2-0.2-0.3-0.3
		c0.1-0.1,0.2-0.1,0.3-0.2c0.1-0.1,0.2-0.1,0.3-0.1c0.2-0.1,0.4-0.1,0.6-0.2c0.4-0.1,0.8-0.1,1.2,0c0.4,0.1,0.7,0.2,1.1,0.3
		c0.2,0.1,0.4,0.2,0.5,0.3c0.1,0.1,0.2,0.1,0.3,0.2C144.6,31.9,144.7,32,144.8,32.1"/>
	<path class="st1" d="M153.3,40.8c-0.1,0-0.3,0.1-0.4,0.1c-0.1,0-0.2,0-0.3,0c-0.2,0-0.4,0-0.6-0.1c-0.4-0.1-0.8-0.2-1.1-0.4
		c-0.3-0.2-0.6-0.4-0.9-0.7c-0.1-0.2-0.3-0.3-0.4-0.5c-0.1-0.1-0.1-0.2-0.2-0.3c0-0.1-0.1-0.2-0.1-0.4c0.1,0,0.3-0.1,0.4-0.1
		c0.1,0,0.2,0,0.3,0c0.2,0,0.4,0,0.6,0.1c0.4,0.1,0.8,0.2,1.1,0.4c0.3,0.2,0.6,0.4,0.9,0.7c0.1,0.2,0.3,0.3,0.4,0.5
		c0.1,0.1,0.1,0.2,0.2,0.3C153.2,40.6,153.3,40.7,153.3,40.8"/>
	<path class="st1" d="M148.8,45.3c-0.1,0-0.3,0-0.4-0.1c-0.1,0-0.2-0.1-0.3-0.1c-0.2-0.1-0.4-0.2-0.6-0.3c-0.3-0.2-0.6-0.5-0.9-0.8
		c-0.2-0.3-0.4-0.6-0.6-1c-0.1-0.2-0.1-0.4-0.2-0.6c0-0.1,0-0.2,0-0.3c0-0.1,0-0.2,0-0.4c0.1,0,0.3,0,0.4,0.1c0.1,0,0.2,0.1,0.3,0.1
		c0.2,0.1,0.4,0.2,0.6,0.3c0.3,0.2,0.6,0.5,0.9,0.8c0.2,0.3,0.4,0.6,0.6,1c0.1,0.2,0.1,0.4,0.2,0.6c0,0.1,0,0.2,0,0.3
		C148.9,45,148.9,45.1,148.8,45.3"/>
	<path class="st1" d="M145.1,47.9c-0.1,0-0.2-0.1-0.4-0.1c-0.1,0-0.2-0.1-0.3-0.2c-0.2-0.1-0.4-0.2-0.5-0.4
		c-0.3-0.3-0.5-0.6-0.7-0.9c-0.2-0.3-0.3-0.7-0.4-1.1c0-0.2-0.1-0.4-0.1-0.6c0-0.1,0-0.2,0-0.3c0-0.1,0-0.2,0.1-0.4
		c0.1,0,0.2,0.1,0.4,0.1c0.1,0,0.2,0.1,0.3,0.2c0.2,0.1,0.4,0.2,0.5,0.4c0.3,0.3,0.5,0.6,0.7,0.9c0.2,0.3,0.3,0.7,0.4,1.1
		c0,0.2,0.1,0.4,0.1,0.6c0,0.1,0,0.2,0,0.3C145.1,47.7,145.1,47.8,145.1,47.9"/>
	<path class="st1" d="M139.1,50.2c-0.1-0.1-0.2-0.2-0.3-0.2c-0.1-0.1-0.2-0.2-0.2-0.3c-0.1-0.2-0.2-0.3-0.3-0.5
		c-0.2-0.4-0.3-0.7-0.3-1.1c-0.1-0.4-0.1-0.8,0-1.2c0-0.2,0.1-0.4,0.2-0.6c0-0.1,0.1-0.2,0.1-0.3c0.1-0.1,0.1-0.2,0.2-0.3
		c0.1,0.1,0.2,0.2,0.3,0.2c0.1,0.1,0.2,0.2,0.2,0.3c0.1,0.2,0.2,0.3,0.3,0.5c0.2,0.4,0.3,0.7,0.3,1.1c0.1,0.4,0.1,0.8,0,1.2
		c0,0.2-0.1,0.4-0.2,0.6c0,0.1-0.1,0.2-0.1,0.3C139.3,50,139.2,50.1,139.1,50.2"/>
	<path class="st1" d="M155.7,35.5c-0.1,0.1-0.2,0.1-0.3,0.2c-0.1,0-0.2,0.1-0.3,0.1c-0.2,0.1-0.4,0.1-0.6,0.1c-0.4,0-0.8,0-1.2-0.1
		c-0.4-0.1-0.7-0.2-1.1-0.4c-0.2-0.1-0.3-0.2-0.5-0.4c-0.1-0.1-0.2-0.2-0.2-0.2c-0.1-0.1-0.2-0.2-0.2-0.3c0.1-0.1,0.2-0.1,0.3-0.2
		c0.1,0,0.2-0.1,0.3-0.1c0.2-0.1,0.4-0.1,0.6-0.1c0.4,0,0.8,0,1.2,0.1c0.4,0.1,0.7,0.2,1.1,0.4c0.2,0.1,0.3,0.2,0.5,0.4
		c0.1,0.1,0.2,0.2,0.2,0.2C155.5,35.3,155.6,35.4,155.7,35.5"/>
	<path class="st1" d="M154.4,32.1c-0.1,0.1-0.2,0.2-0.3,0.2c-0.1,0.1-0.2,0.1-0.3,0.2c-0.2,0.1-0.4,0.2-0.6,0.3
		c-0.4,0.1-0.8,0.2-1.1,0.2c-0.4,0-0.8,0-1.1-0.2c-0.2-0.1-0.4-0.1-0.6-0.2c-0.1-0.1-0.2-0.1-0.3-0.2c-0.1-0.1-0.2-0.1-0.3-0.2
		c0.1-0.1,0.2-0.2,0.3-0.2c0.1-0.1,0.2-0.1,0.3-0.2c0.2-0.1,0.4-0.2,0.6-0.3c0.4-0.1,0.8-0.2,1.1-0.2c0.4,0,0.8,0,1.1,0.2
		c0.2,0.1,0.4,0.1,0.6,0.2c0.1,0.1,0.2,0.1,0.3,0.2C154.2,31.9,154.3,32,154.4,32.1"/>
	<g>
		<path class="st2" d="M72.2,87.2c0,0.1,0,0.1-0.1,0.1s-0.1-0.1-0.2-0.2c0-0.1,0-0.2,0-0.3c0-0.2-0.1-0.4-0.2-0.6
			c-0.1-0.2-0.4-0.3-0.7-0.4c-0.2,0-0.4-0.1-0.5,0c-0.3,0-0.5,0-0.5,0v5.8c0,0.2,0.1,0.4,0.2,0.4c0.1,0,0.2,0.1,0.5,0.1
			c0.1,0,0.1,0,0.1,0.1c0,0.1-0.1,0.1-0.2,0.1c-0.1,0-0.1,0-0.1,0c-0.4,0-0.7,0-0.8,0c-0.2,0-0.4,0-0.6,0c-0.2,0-0.4,0-0.7,0
			c-0.1,0-0.2,0-0.2-0.1c0-0.1,0.1-0.1,0.4-0.1c0.2,0,0.3,0,0.4-0.1c0-0.1,0-0.2,0-0.4v-5.7c-0.6,0-1,0-1.2,0.1
			c-0.4,0.1-0.6,0.5-0.7,1.2c0,0.2-0.1,0.3-0.1,0.3c-0.1,0-0.1-0.1-0.1-0.2c0-0.1,0-0.1,0-0.2l0-0.2c0-0.3,0-0.7,0.1-1.2h0.4l1.9,0
			c0.2,0,0.6,0,1.1,0l1.6,0c0,0.4,0.1,0.9,0.1,1.6C72.2,87.1,72.2,87.1,72.2,87.2C72.2,87.2,72.2,87.2,72.2,87.2z"/>
		<path class="st2" d="M81.8,92c0,0-0.1,0.1-0.3,0.1c0,0,0,0-0.1,0c-0.1,0-0.1,0-0.2,0h-0.7c-0.1,0-0.2,0-0.2,0h-0.2
			c-0.1,0-0.2,0-0.2-0.1c0,0,0.1-0.1,0.2-0.1c0.2,0,0.3,0,0.3-0.1c0,0,0-0.1,0-0.3v-1.7h-1.8v2c0,0.1,0,0.1,0.1,0.1c0,0,0.1,0,0.3,0
			c0.1,0,0.1,0,0.1,0.1c0,0-0.1,0.1-0.2,0.1h-0.2c-0.1,0-0.2,0-0.4,0h-0.9c-0.1,0-0.1,0-0.1-0.1c0,0,0.1-0.1,0.3-0.1
			c0.1,0,0.2,0,0.2-0.1v-3.6c0-0.2,0-0.3,0-0.3c0-0.1-0.1-0.1-0.2-0.1c-0.2,0-0.3,0-0.3-0.1c0,0,0-0.1,0.1-0.1h0.1
			c0.1,0,0.3,0,0.4,0c0.1,0,0.2,0,0.3,0c0.1,0,0.2,0,0.4,0c0.2,0,0.3,0,0.3,0H79c0.1,0,0.2,0,0.2,0.1c0,0.1-0.1,0.1-0.3,0.1
			c-0.1,0-0.2,0-0.2,0c0,0,0,0.1,0,0.2v1.5h1.8v-1.3c0-0.2,0-0.3,0-0.3c0-0.1-0.1-0.1-0.2-0.1h-0.2c-0.1,0-0.1,0-0.1-0.1
			c0-0.1,0.1-0.1,0.2-0.1h0.2c0.1,0,0.2,0,0.4,0c0.2,0,0.3,0,0.4,0c0.2,0,0.3,0,0.3,0h0.1c0.2,0,0.2,0,0.2,0.1c0,0.1,0,0.1-0.1,0.1
			c-0.1,0-0.2,0-0.2,0c-0.1,0-0.1,0-0.1,0c0,0,0,0.1,0,0.3v3.3c0,0.2,0,0.3,0,0.4c0,0,0.1,0,0.3,0C81.7,92,81.8,92,81.8,92z"/>
		<path class="st2" d="M90.6,91.1c0,0,0,0,0,0.1c0,0.1,0,0.1,0,0.2V92c0,0.1,0,0.1,0,0.2l-1.6,0l-1.8,0c-0.1,0-0.2,0-0.2-0.1
			c0-0.1,0-0.1,0.1-0.1c0.2,0,0.3,0,0.4,0c0,0,0.1-0.1,0.1-0.3v-3.3c0-0.3,0-0.4-0.1-0.4c0,0-0.2,0-0.3,0c-0.1,0-0.1,0-0.1-0.1
			c0-0.1,0-0.1,0.1-0.1h0.2c0.1,0,0.1,0,0.2,0h0.1h0.2c0,0,0.2,0,0.5,0c0.3,0,0.6,0,1,0H90c0.2,0,0.3,0,0.4,0v0.1l0,0.1
			c0,0.1,0,0.4,0.1,0.8c0,0,0,0.1,0,0.1c0,0.1,0,0.1-0.1,0.1c-0.1,0-0.1-0.1-0.1-0.2c-0.1-0.5-0.3-0.8-0.5-0.8c-0.1,0-0.5-0.1-1-0.1
			h-0.5v1.8h0.2c0.4,0,0.7,0,0.7-0.1c0.1-0.1,0.2-0.2,0.2-0.5c0-0.2,0.1-0.3,0.1-0.3c0.1,0,0.1,0.1,0.1,0.2c0,0.1,0,0.2,0,0.4
			c0,0.2,0,0.3,0,0.4c0,0.4,0,0.7,0,0.8c0,0.1,0,0.1,0,0.1c0,0.1,0,0.2-0.1,0.2c-0.1,0-0.1-0.1-0.1-0.2c0-0.3-0.1-0.5-0.2-0.6
			c-0.1-0.1-0.3-0.1-0.7-0.1h-0.2V92c0.9,0,1.5,0,1.6-0.1c0.3-0.1,0.4-0.4,0.4-0.9c0-0.1,0-0.1,0.1-0.1
			C90.6,90.8,90.6,90.9,90.6,91.1z"/>
		<path class="st2" d="M105.9,91.2c0,0.4,0,0.7,0,0.9c0,0-0.1,0-0.1,0c0,0-0.1,0-0.1,0c-0.1,0-0.2,0-0.4,0h-0.4l-1.6,0h-0.8
			c-0.1,0-0.1,0-0.1-0.1c0,0,0.1-0.1,0.4-0.1c0.1,0,0.1,0,0.1,0c0,0,0-0.1,0-0.2v-3.2c0-0.4,0-0.5-0.1-0.6c0,0-0.1,0-0.2,0
			s-0.1,0-0.2,0c-0.1,0-0.1,0-0.1-0.1c0,0,0-0.1,0.1-0.1h1.3c0.1,0,0.1,0,0.2,0c0.1,0,0.2,0,0.2,0.1c0,0-0.1,0.1-0.3,0.1
			c-0.1,0-0.2,0-0.2,0.1c0,0,0,0.2,0,0.4v3.5c0.3,0,0.4,0,0.6,0c0.7,0,1.1-0.1,1.3-0.2c0.1-0.1,0.2-0.3,0.3-0.7c0-0.2,0-0.2,0.1-0.2
			C105.9,90.8,105.9,91,105.9,91.2z"/>
		<path class="st2" d="M112.9,92C112.9,92.1,112.8,92.1,112.9,92l-0.2,0.1h-0.2h-0.2c-0.1,0-0.1,0-0.2,0c-0.1,0-0.1,0-0.1,0
			c-0.1,0-0.2,0-0.4,0c-0.2,0-0.3,0-0.4,0h0c-0.1,0-0.2,0-0.2,0c0,0,0.1-0.1,0.2-0.1c0.2,0,0.3,0,0.3-0.1c0,0,0-0.2,0-0.4v-3.1
			c0-0.2,0-0.4,0-0.4c0,0-0.1-0.1-0.1-0.1h-0.2h-0.1c-0.1,0-0.1,0-0.1-0.1c0,0,0-0.1,0.1-0.1c0,0,0,0,0.1,0c0,0,0.1,0,0.2,0h0.7
			c0,0,0.1,0,0.2,0c0.1,0,0.1,0,0.2,0h0.2c0.1,0,0.2,0,0.2,0.1c0,0-0.1,0.1-0.3,0.1c-0.1,0-0.1,0-0.2,0c0,0,0,0.1,0,0.3v3.6
			c0,0.1,0,0.1,0.1,0.1c0,0,0.2,0,0.3,0C112.8,92,112.9,92,112.9,92z"/>
		<path class="st2" d="M121.6,88.9c0,0.1,0,0.1-0.1,0.1c-0.1,0-0.1-0.1-0.1-0.2c0-0.3-0.1-0.6-0.3-0.7c-0.1-0.1-0.5-0.2-1.1-0.2
			c-0.2,0-0.4,0-0.6,0v1.8h0.2c0.4,0,0.7,0,0.8-0.1c0.1-0.1,0.2-0.3,0.2-0.7c0-0.1,0-0.1,0.1-0.1c0.1,0,0.1,0.1,0.1,0.2
			c0,0.1,0,0.1,0,0.2c0,0.1,0,0.3,0,0.6c0,0.1,0,0.2,0,0.3c0,0.1,0,0.3,0,0.5v0c0,0.1,0,0.2-0.1,0.2c-0.1,0-0.1-0.1-0.1-0.2
			c0-0.4-0.1-0.6-0.2-0.7c-0.1-0.1-0.3-0.1-0.7-0.1h-0.3v1.8c0,0.1,0,0.2,0.1,0.2c0,0,0.1,0,0.3,0c0.1,0,0.1,0,0.1,0.1
			c0,0,0,0.1-0.1,0.1h-0.1c0,0-0.1,0-0.2,0c-0.1,0-0.2,0-0.2,0h-0.7c-0.1,0-0.1,0-0.2,0c-0.1,0-0.1,0-0.1,0c-0.1,0-0.2,0-0.2-0.1
			c0-0.1,0-0.1,0.1-0.1c0.2,0,0.3,0,0.3,0c0,0,0-0.1,0-0.3v-3.4c0-0.2,0-0.3,0-0.3c0,0-0.1,0-0.3-0.1c-0.1,0-0.1,0-0.1-0.1
			c0,0,0.1-0.1,0.2-0.1h1.8c0.7,0,1.1,0,1.3,0l0,0.1l0,0.4l0,0.5C121.6,88.9,121.6,88.9,121.6,88.9z"/>
		<path class="st2" d="M130.3,91.1c0,0,0,0,0,0.1c0,0.1,0,0.1,0,0.2V92c0,0.1,0,0.1,0,0.2l-1.6,0l-1.8,0c-0.1,0-0.2,0-0.2-0.1
			c0-0.1,0-0.1,0.1-0.1c0.2,0,0.3,0,0.4,0c0,0,0.1-0.1,0.1-0.3v-3.3c0-0.3,0-0.4-0.1-0.4c0,0-0.2,0-0.3,0c-0.1,0-0.1,0-0.1-0.1
			c0-0.1,0-0.1,0.1-0.1h0.2c0.1,0,0.1,0,0.2,0h0.1h0.2c0,0,0.2,0,0.5,0c0.3,0,0.6,0,1,0h0.6c0.2,0,0.3,0,0.4,0v0.1l0,0.1
			c0,0.1,0,0.4,0.1,0.8c0,0,0,0.1,0,0.1c0,0.1,0,0.1-0.1,0.1c-0.1,0-0.1-0.1-0.1-0.2c-0.1-0.5-0.3-0.8-0.5-0.8c-0.1,0-0.5-0.1-1-0.1
			H128v1.8h0.2c0.4,0,0.7,0,0.7-0.1c0.1-0.1,0.2-0.2,0.2-0.5c0-0.2,0.1-0.3,0.1-0.3c0.1,0,0.1,0.1,0.1,0.2c0,0.1,0,0.2,0,0.4
			c0,0.2,0,0.3,0,0.4c0,0.4,0,0.7,0,0.8c0,0.1,0,0.1,0,0.1c0,0.1,0,0.2-0.1,0.2c-0.1,0-0.1-0.1-0.1-0.2c0-0.3-0.1-0.5-0.2-0.6
			c-0.1-0.1-0.3-0.1-0.7-0.1H128V92c0.9,0,1.5,0,1.6-0.1c0.3-0.1,0.4-0.4,0.4-0.9c0-0.1,0-0.1,0.1-0.1
			C130.2,90.8,130.3,90.9,130.3,91.1z"/>
		<path class="st2" d="M138.4,90.9c0,0.4-0.2,0.7-0.5,0.9c-0.3,0.3-0.7,0.4-1.1,0.4c-0.3,0-0.7-0.1-1-0.3c0,0-0.1,0-0.1,0
			c0,0-0.1,0-0.1,0.1c0,0.1,0,0.1,0,0.2c0,0,0,0.1-0.1,0.1c-0.1,0-0.1,0-0.1-0.1c0,0,0-0.1,0-0.3c0-0.2,0-0.3,0-0.5
			c0-0.1,0-0.1,0-0.2c0-0.1,0-0.2,0-0.2c0-0.1,0-0.2,0.1-0.2c0.1,0,0.1,0.1,0.1,0.3c0.1,0.7,0.5,1.1,1.1,1.1c0.5,0,0.8-0.3,0.8-0.8
			c0-0.2-0.1-0.4-0.2-0.6c-0.1-0.1-0.4-0.3-0.7-0.5c-0.5-0.2-0.8-0.4-0.9-0.6c-0.2-0.2-0.3-0.4-0.3-0.7c0-0.3,0.1-0.6,0.4-0.9
			c0.3-0.2,0.6-0.3,1-0.3c0.2,0,0.5,0.1,0.8,0.2c0,0,0.1,0,0.1,0c0,0,0.1,0,0.1-0.1s0.1-0.1,0.1-0.1c0.1,0,0.1,0,0.1,0.1
			c0,0,0,0,0,0.1c0,0.1,0,0.2,0,0.4c0,0.1,0,0.3,0,0.5c0,0,0,0.1,0,0.1c0,0.1,0,0.1-0.1,0.1c-0.1,0-0.1-0.1-0.1-0.2
			c-0.1-0.3-0.2-0.5-0.3-0.7c-0.2-0.2-0.4-0.3-0.6-0.3c-0.5,0-0.7,0.2-0.7,0.7c0,0.2,0.1,0.4,0.2,0.5c0.1,0.1,0.1,0.1,0.2,0.2
			c0.1,0,0.3,0.2,0.7,0.3c0.4,0.2,0.7,0.4,0.9,0.6C138.3,90.4,138.4,90.6,138.4,90.9z"/>
		<path class="st2" d="M147.3,88.9c0,0.1,0,0.1-0.1,0.1c-0.1,0-0.1-0.1-0.1-0.2c0-0.3-0.1-0.5-0.2-0.6c-0.1-0.2-0.4-0.3-0.8-0.3
			c-0.1,0-0.2,0-0.3,0v3.8c0,0.1,0.1,0.2,0.3,0.2c0.2,0,0.3,0,0.3,0.1c0,0-0.1,0.1-0.2,0.1h-0.1c-0.1,0-0.1,0-0.3,0
			c-0.1,0-0.2,0-0.3,0c0,0-0.1,0-0.2,0c-0.1,0-0.3,0-0.5,0h-0.2c-0.1,0-0.2,0-0.2-0.1c0,0,0.1-0.1,0.3-0.1c0.1,0,0.1,0,0.2,0
			c0.1,0,0.1,0,0.1-0.1c0-0.1,0-0.2,0-0.5v-3.4c-0.5,0-0.8,0-1,0.2c-0.1,0.1-0.2,0.4-0.3,0.8c0,0.1-0.1,0.2-0.1,0.2
			c-0.1,0-0.1-0.1-0.1-0.2c0-0.2,0-0.5,0.1-1.1h2.2c0.2,0,0.6,0,1.2,0c0.1,0,0.1,0,0.2,0l0,0.2l0,0.3l0,0.4l0,0.2
			C147.3,88.9,147.3,88.9,147.3,88.9z"/>
		<path class="st2" d="M156.5,87.8c0,0,0,0.1-0.1,0.1c-0.2,0-0.4,0.1-0.4,0.1c-0.1,0.1-0.2,0.3-0.4,0.7c-0.2,0.4-0.4,0.8-0.6,1.1
			c-0.1,0.1-0.1,0.2-0.1,0.3c0,0.1,0,0.2,0,0.4v1.2c0,0.1,0,0.2,0.1,0.2c0,0,0.2,0,0.4,0.1c0.1,0,0.2,0,0.2,0.1c0,0,0,0.1-0.1,0.1
			h-0.1H155h-0.2c-0.1,0-0.1,0-0.3,0c-0.1,0-0.2,0-0.3,0c0,0,0,0-0.1,0c-0.1,0-0.3,0-0.5,0h-0.1c-0.1,0-0.1,0-0.1-0.1
			c0,0,0.1-0.1,0.3-0.1c0.2,0,0.3,0,0.3-0.1c0,0,0-0.1,0-0.3v-1.3c0-0.1-0.1-0.2-0.2-0.3l-0.7-1.2c-0.1-0.2-0.2-0.3-0.2-0.4
			c-0.1-0.1-0.1-0.2-0.2-0.4c-0.1-0.1-0.2-0.1-0.5-0.1c-0.1,0-0.1,0-0.1-0.1c0,0,0-0.1,0.1-0.1c0,0,0.1,0,0.2,0c0.1,0,0.3,0,0.4,0
			h0.3h0.8c0,0,0.1,0,0.1,0c0.1,0,0.1,0,0.1,0.1c0,0-0.1,0.1-0.2,0.1c-0.3,0-0.4,0-0.4,0.1c0,0.1,0.3,0.7,1,1.9c0.6-1.2,1-1.8,1-1.9
			c0-0.1-0.1-0.1-0.2-0.1h-0.2h-0.1c-0.1,0-0.2,0-0.2-0.1c0,0,0.1-0.1,0.2-0.1h0.4h0.2C156.2,87.7,156.5,87.8,156.5,87.8z"/>
		<path class="st2" d="M165.1,91.2c0,0.4,0,0.7,0,0.9c0,0-0.1,0-0.1,0c0,0-0.1,0-0.1,0c-0.1,0-0.2,0-0.4,0h-0.4l-1.6,0h-0.8
			c-0.1,0-0.1,0-0.1-0.1c0,0,0.1-0.1,0.4-0.1c0.1,0,0.1,0,0.1,0c0,0,0-0.1,0-0.2v-3.2c0-0.4,0-0.5-0.1-0.6c0,0-0.1,0-0.2,0
			c-0.1,0-0.1,0-0.2,0c-0.1,0-0.1,0-0.1-0.1c0,0,0-0.1,0.1-0.1h1.3c0.1,0,0.1,0,0.2,0c0.1,0,0.2,0,0.2,0.1c0,0-0.1,0.1-0.3,0.1
			c-0.1,0-0.2,0-0.2,0.1c0,0,0,0.2,0,0.4v3.5c0.3,0,0.4,0,0.6,0c0.7,0,1.1-0.1,1.3-0.2c0.1-0.1,0.2-0.3,0.3-0.7c0-0.2,0-0.2,0.1-0.2
			C165,90.8,165.1,91,165.1,91.2z"/>
		<path class="st2" d="M173.7,91.1c0,0,0,0,0,0.1c0,0.1,0,0.1,0,0.2V92c0,0.1,0,0.1,0,0.2l-1.6,0l-1.8,0c-0.1,0-0.2,0-0.2-0.1
			c0-0.1,0-0.1,0.1-0.1c0.2,0,0.3,0,0.4,0c0,0,0.1-0.1,0.1-0.3v-3.3c0-0.3,0-0.4-0.1-0.4c0,0-0.2,0-0.3,0c-0.1,0-0.1,0-0.1-0.1
			c0-0.1,0-0.1,0.1-0.1h0.2c0.1,0,0.1,0,0.2,0h0.1h0.2c0,0,0.2,0,0.5,0c0.3,0,0.6,0,1,0h0.6c0.2,0,0.3,0,0.4,0v0.1l0,0.1
			c0,0.1,0,0.4,0.1,0.8c0,0,0,0.1,0,0.1c0,0.1,0,0.1-0.1,0.1c-0.1,0-0.1-0.1-0.1-0.2c-0.1-0.5-0.3-0.8-0.5-0.8c-0.1,0-0.5-0.1-1-0.1
			h-0.5v1.8h0.2c0.4,0,0.7,0,0.7-0.1c0.1-0.1,0.2-0.2,0.2-0.5c0-0.2,0.1-0.3,0.1-0.3c0.1,0,0.1,0.1,0.1,0.2c0,0.1,0,0.2,0,0.4
			c0,0.2,0,0.3,0,0.4c0,0.4,0,0.7,0,0.8c0,0.1,0,0.1,0,0.1c0,0.1,0,0.2-0.1,0.2c-0.1,0-0.1-0.1-0.1-0.2c0-0.3-0.1-0.5-0.2-0.6
			c-0.1-0.1-0.3-0.1-0.7-0.1h-0.2V92c0.9,0,1.5,0,1.6-0.1c0.3-0.1,0.4-0.4,0.4-0.9c0-0.1,0-0.1,0.1-0.1
			C173.7,90.8,173.7,90.9,173.7,91.1z"/>
		<path class="st2" d="M188.4,90.9c0,0.4-0.2,0.7-0.5,0.9c-0.3,0.3-0.7,0.4-1.1,0.4c-0.3,0-0.7-0.1-1-0.3c0,0-0.1,0-0.1,0
			c0,0-0.1,0-0.1,0.1c0,0.1,0,0.1,0,0.2c0,0,0,0.1-0.1,0.1c-0.1,0-0.1,0-0.1-0.1c0,0,0-0.1,0-0.3c0-0.2,0-0.3,0-0.5
			c0-0.1,0-0.1,0-0.2c0-0.1,0-0.2,0-0.2c0-0.1,0-0.2,0.1-0.2c0.1,0,0.1,0.1,0.1,0.3c0.1,0.7,0.5,1.1,1.1,1.1c0.5,0,0.8-0.3,0.8-0.8
			c0-0.2-0.1-0.4-0.2-0.6c-0.1-0.1-0.4-0.3-0.7-0.5c-0.5-0.2-0.8-0.4-0.9-0.6c-0.2-0.2-0.3-0.4-0.3-0.7c0-0.3,0.1-0.6,0.4-0.9
			c0.3-0.2,0.6-0.3,1-0.3c0.2,0,0.5,0.1,0.8,0.2c0,0,0.1,0,0.1,0c0,0,0.1,0,0.1-0.1c0-0.1,0.1-0.1,0.1-0.1c0.1,0,0.1,0,0.1,0.1
			c0,0,0,0,0,0.1c0,0.1,0,0.2,0,0.4c0,0.1,0,0.3,0,0.5c0,0,0,0.1,0,0.1c0,0.1,0,0.1-0.1,0.1c-0.1,0-0.1-0.1-0.1-0.2
			c-0.1-0.3-0.2-0.5-0.3-0.7c-0.2-0.2-0.4-0.3-0.6-0.3c-0.5,0-0.7,0.2-0.7,0.7c0,0.2,0.1,0.4,0.2,0.5c0.1,0.1,0.1,0.1,0.2,0.2
			c0.1,0,0.3,0.2,0.7,0.3c0.4,0.2,0.7,0.4,0.9,0.6C188.3,90.4,188.4,90.6,188.4,90.9z"/>
		<path class="st2" d="M196.9,88.8c0,0.4-0.1,0.6-0.4,0.8c-0.3,0.2-0.7,0.3-1.1,0.3c-0.1,0-0.2,0-0.4,0H195v1.7c0,0.2,0,0.3,0.1,0.3
			c0.1,0,0.2,0,0.4,0c0.1,0,0.1,0,0.1,0.1c0,0,0,0.1-0.1,0.1c-0.1,0-0.3,0-0.8,0c-0.5,0-0.9,0-0.9,0c-0.1,0-0.1,0-0.1-0.1
			c0,0,0-0.1,0.1-0.1h0.1c0.1,0,0.2,0,0.3,0c0,0,0,0,0.1,0c0,0,0-0.1,0-0.3v-3.2c0-0.3,0-0.4,0-0.4c0-0.1-0.1-0.1-0.3-0.1h-0.1
			c-0.1,0-0.1,0-0.1-0.1c0,0,0,0,0.1-0.1c0.1,0,0.3,0,0.7,0c0.8,0,1.3,0,1.5,0C196.6,87.9,196.9,88.3,196.9,88.8z M196.1,88.8
			c0-0.6-0.3-0.9-0.8-0.9c-0.2,0-0.3,0-0.3,0c0,0-0.1,0.1-0.1,0.2v1.6C195.7,89.8,196.1,89.5,196.1,88.8z"/>
		<path class="st2" d="M206.4,92.1c0,0-0.1,0.1-0.2,0.1h-0.1h-0.6h-0.3c-0.1,0-0.3,0-0.4,0h-0.3h-0.2h0c-0.1,0-0.2,0-0.2-0.1
			c0,0,0.1-0.1,0.3-0.1c0.3,0,0.4,0,0.4-0.1c0,0,0-0.1-0.1-0.2c0-0.1-0.1-0.3-0.2-0.6l-0.1-0.3h-1.4c-0.3,0.7-0.4,1-0.4,1.1
			c0,0.1,0,0.1,0.1,0.1l0.1,0h0.1l0.1,0c0.1,0,0.1,0,0.1,0.1c0,0-0.1,0.1-0.2,0.1c0,0-0.1,0-0.3,0c-0.2,0-0.4,0-0.5,0h-0.1l-0.1,0
			l-0.1,0h0c-0.1,0-0.2,0-0.2-0.1c0,0,0-0.1,0.1-0.1c0.1,0,0.2,0,0.2,0c0.1,0,0.2,0,0.2-0.1c0,0,0.2-0.4,0.5-1.1
			c0.1-0.3,0.2-0.6,0.3-0.8c0-0.1,0.1-0.2,0.1-0.2c0,0,0-0.1,0.1-0.2c0.1-0.3,0.3-0.7,0.5-1.2l0.1-0.4l0.1-0.2
			c0-0.1,0.1-0.1,0.1-0.1c0,0,0.1,0.1,0.1,0.3c0.2,0.5,0.7,1.7,1.5,3.7c0.1,0.2,0.1,0.3,0.2,0.3c0,0,0.1,0,0.3,0
			C206.3,92,206.4,92,206.4,92.1z M204.4,90.6l-0.6-1.6c-0.2,0.4-0.4,0.9-0.6,1.6H204.4z"/>
	</g>
	<path class="st3" d="M77.6,59.2c-0.4,0-0.6,0.1-0.6,0.2L68.9,75l0.7,1.3l8.7-16.8C78.4,59.3,78.2,59.2,77.6,59.2z"/>
	<path class="st3" d="M68.1,76.5l-8.9-17.2c-0.1-0.1-0.3-0.2-0.6-0.2c-0.6,0-0.8,0.1-0.7,0.3l9.6,18.4c0.1,0.1,0.3,0.2,0.6,0.2
		c0.4,0,0.6-0.1,0.7-0.2l0,0L68.1,76.5L68.1,76.5z"/>
	<path class="st3" d="M117.8,76.5l-8.9-17.2c-0.1-0.1-0.3-0.2-0.6-0.2c-0.6,0-0.8,0.1-0.7,0.3l9.6,18.4c0.1,0.1,0.3,0.2,0.6,0.2
		c0.4,0,0.6-0.1,0.7-0.2l0-0.1L117.8,76.5L117.8,76.5z"/>
	<path class="st3" d="M127.4,59.2c-0.4,0-0.6,0.1-0.6,0.2l-8.1,15.6l0.7,1.3l8.7-16.8C128.1,59.3,127.9,59.2,127.4,59.2z"/>
	<path class="st3" d="M154.4,77.7h-13.1V69h9.9c0.4,0,0.6-0.1,0.6-0.2c0-0.1-0.2-0.2-0.6-0.2h-9.9v-8.8h12.6c0.4,0,0.6-0.1,0.6-0.2
		c0-0.1-0.2-0.2-0.6-0.2h-13c-0.1,0-0.3,0-0.4,0c-0.3,0-0.5,0.1-0.5,0.3v18.4c0,0.2,0.2,0.3,0.5,0.3c0.1,0,0.2,0,0.4,0h13.6
		c0.4,0,0.6-0.1,0.6-0.2C155,77.8,154.8,77.7,154.4,77.7z"/>
	<path class="st3" d="M168.6,59.7l-0.3-0.3c-0.1-0.1-0.3-0.2-0.7-0.2c-0.4,0-0.6,0.1-0.6,0.2v18.4c0,0.2,0.2,0.2,0.7,0.2
		c0.4,0,0.7-0.1,0.7-0.2V61.2l12.2,15.1v-1.7L168.6,59.7z"/>
	<path class="st3" d="M182.5,59.2c-0.4,0-0.7,0.1-0.7,0.3v13.7v4.7l0.1,0.1c0.1,0.1,0.3,0.1,0.7,0.1c0.4,0,0.6-0.1,0.6-0.2V59.5
		C183.2,59.3,182.9,59.2,182.5,59.2z"/>
	<path class="st3" d="M208.7,69.8c-1.3-0.9-2.8-1.3-4.6-1.3h-2.3c-0.8,0-1.5-0.1-2.2-0.4c-1-0.4-1.8-1-2.4-1.8
		c-0.5-0.8-0.8-1.7-0.7-2.6c0.1-1.4,1-2.5,2.6-3.4c0.8-0.4,2.1-0.6,4-0.6c1.8,0,3.1,0.2,4,0.7c1.6,0.8,2.4,2.1,2.4,3.7
		c0,0.2,0.2,0.2,0.7,0.2c0.4,0,0.7-0.1,0.7-0.2c0-1.7-1-3-2.8-4c-1.1-0.6-2.6-0.9-4.6-0.9c-2.1,0-3.6,0.1-4.5,0.4
		c-1.1,0.4-2.1,0.9-2.7,1.8c-0.7,0.8-1,1.7-1,2.7c0,1.4,0.7,2.5,2.1,3.5c1.3,0.9,2.8,1.3,4.6,1.3h2.3c0.7,0,1.5,0.1,2.2,0.4
		c1.1,0.4,1.9,1,2.5,1.8c0.5,0.8,0.7,1.6,0.7,2.6c-0.1,1.4-1,2.5-2.5,3.3c-0.8,0.4-2.1,0.6-4,0.6c-1.8,0-3.1-0.2-4.1-0.7
		c-1.5-0.8-2.3-2-2.4-3.6c0-0.2-0.2-0.3-0.7-0.3c-0.5,0-0.7,0.1-0.7,0.3c0.1,1.7,1,3.1,2.7,4c1.1,0.6,2.6,0.8,4.6,0.8
		c2.1,0,3.6-0.1,4.5-0.4c1.1-0.4,2-1,2.7-1.8c0.7-0.8,1-1.7,1-2.7C210.8,71.8,210.1,70.7,208.7,69.8z"/>
	<path class="st3" d="M93.8,59.4c0-0.1-0.1-0.1-0.1-0.1h-1.2c-0.1,0-0.1,0.1-0.1,0.1v18.6c0,0.1,0.1,0.1,0.1,0.1h1.2
		c0.1,0,0.1-0.1,0.1-0.1V59.4z"/>
</g>
</svg>
