<svg id="Layer_1" data-name="Layer 1" xmlns="http://www.w3.org/2000/svg" viewBox="0 0 267 100"><defs><style>.cls-1{fill:none;}.cls-2{fill:#78797a;fill-rule:evenodd;}</style></defs><title>walmart-8</title><rect class="cls-1" width="267" height="100"/><path class="cls-2" d="M143.39,53.75a3.26,3.26,0,0,1-.12.92,3.21,3.21,0,0,1-3.09,2.17,2.1,2.1,0,0,1-2.28-2.25c0-2.33,2.57-3,5.49-3v2.12ZM148,49.7c0-3.84-1.64-7.22-7.19-7.22A13.12,13.12,0,0,0,134.44,44l.9,3.09a9.26,9.26,0,0,1,4.63-1.3c2.81,0,3.27,1.59,3.27,2.62v.24c-6.13,0-10,2.12-10,6.44a5.11,5.11,0,0,0,5.4,5.12A6.15,6.15,0,0,0,143.57,58h.11s.7,2.93,4.56,1.81a25.34,25.34,0,0,1-.27-4.09v-6Z"/><path class="cls-2" d="M52.42,37.24s4,16.42,4.65,19.08c.74,3.12,2.09,4.26,6,3.49l2.5-10.18c.63-2.53,1.06-4.33,1.47-6.9h.07a68,68,0,0,0,1.22,6.92s1,4.62,1.54,7,2,4,5.78,3.12l6-22.57H76.76l-2,9.76c-.55,2.84-1,5.06-1.43,7.66h-.07c-.35-2.57-.79-4.7-1.35-7.47l-2.12-9.94h-5l-2.27,9.69c-.64,2.95-1.24,5.33-1.63,7.83h-.07c-.39-2.36-.91-5.35-1.48-8.2,0,0-1.35-6.93-1.82-9.32Z"/><path class="cls-2" d="M90.67,53.75a3.17,3.17,0,0,1-.11.92,3.21,3.21,0,0,1-3.09,2.17,2.1,2.1,0,0,1-2.28-2.25c0-2.33,2.56-3,5.48-3v2.12Zm4.58-4.06c0-3.84-1.64-7.22-7.19-7.22A13.13,13.13,0,0,0,81.72,44l.91,3.09a9.24,9.24,0,0,1,4.62-1.3c2.81,0,3.27,1.59,3.27,2.62v.24c-6.14,0-10,2.12-10,6.44a5.1,5.1,0,0,0,5.4,5.12A6.15,6.15,0,0,0,90.85,58H91s.7,2.93,4.56,1.81a24.64,24.64,0,0,1-.27-4.09v-6Z"/><polygon class="cls-2" points="102.89 55.02 102.89 37.24 98.31 37.24 98.31 59.81 102.89 59.81 102.89 55.02 102.89 55.02"/><path class="cls-2" d="M162.86,37.24V53.89c0,2.29.43,3.9,1.36,4.88a5.07,5.07,0,0,0,3.73,1.41,10.91,10.91,0,0,0,3.32-.49l-.06-3.58a7,7,0,0,1-1.74.2c-1.56,0-2.08-1-2.08-3.06V46.9h4V42.58h-4V37.24Z"/><path class="cls-2" d="M151,42.86v17h4.73V51.13a6.65,6.65,0,0,1,.1-1.25,3.57,3.57,0,0,1,3.74-3A8.73,8.73,0,0,1,161,47V42.58a4.39,4.39,0,0,0-1-.11,5,5,0,0,0-4.61,3.58h-.13v-3.2Z"/><path class="cls-2" d="M106.1,42.86v17h4.61V49.87a3.93,3.93,0,0,1,.22-1.39,3.12,3.12,0,0,1,2.8-2.18c1.86,0,2.73,1.57,2.73,3.84v9.66h4.6V49.75a4.76,4.76,0,0,1,.19-1.38A2.91,2.91,0,0,1,124,46.3c1.88,0,2.79,1.55,2.79,4.22v9.29h4.61v-10c0-5.27-2.68-7.35-5.7-7.35a6.14,6.14,0,0,0-3.34.92,7.12,7.12,0,0,0-2.15,2.11h-.07a4.84,4.84,0,0,0-4.67-3,5.33,5.33,0,0,0-4.94,2.69h-.07v-2.3Z"/><path class="cls-2" d="M197.06,43.1a1.53,1.53,0,0,0,1.61-1l.82-9.32c0-.92-1.08-1.68-2.44-1.68s-2.43.76-2.43,1.68l.82,9.32a1.53,1.53,0,0,0,1.61,1Z"/><path class="cls-2" d="M192,46a1.52,1.52,0,0,0-.06-1.89l-7.66-5.38c-.8-.46-2,.09-2.67,1.27s-.56,2.49.23,2.95l8.48,4A1.54,1.54,0,0,0,192,46Z"/><path class="cls-2" d="M202.11,46a1.54,1.54,0,0,0,1.67.9l8.48-4c.8-.46.91-1.77.23-2.95s-1.87-1.73-2.67-1.27l-7.66,5.38a1.52,1.52,0,0,0-.05,1.89Z"/><path class="cls-2" d="M197.06,54.74a1.53,1.53,0,0,1,1.61,1l.82,9.32c0,.92-1.08,1.68-2.44,1.68s-2.43-.76-2.43-1.68l.82-9.32a1.53,1.53,0,0,1,1.61-1Z"/><path class="cls-2" d="M202.11,51.84a1.53,1.53,0,0,1,1.67-.9l8.48,3.95c.8.46.91,1.77.23,2.95s-1.87,1.73-2.67,1.27l-7.66-5.38a1.53,1.53,0,0,1-.05-1.9Z"/><path class="cls-2" d="M192,51.83a1.52,1.52,0,0,1-.06,1.9l-7.66,5.37c-.8.46-2-.09-2.67-1.27s-.56-2.49.23-3l8.48-3.95a1.53,1.53,0,0,1,1.67.9Z"/><path class="cls-2" d="M213,60.63a.72.72,0,0,0,.35.09c.17,0,.26-.08.26-.2s-.07-.18-.26-.24-.39-.21-.39-.42.2-.42.51-.42a.75.75,0,0,1,.35.07l-.07.21a.59.59,0,0,0-.29-.07c-.17,0-.24.09-.24.17s.08.16.28.24.37.22.37.43-.17.44-.55.44a.87.87,0,0,1-.39-.09l.06-.22Z"/><path class="cls-2" d="M215.38,60.33c0-.19,0-.41,0-.61h0c0,.18-.11.37-.17.55l-.21.63h-.2l-.19-.62c-.05-.19-.11-.38-.14-.56h0c0,.19,0,.42,0,.62l0,.58h-.25l.1-1.45h.35l.19.58c.05.17.09.34.13.5h0c0-.15.09-.34.14-.5l.2-.58h.34l.09,1.45h-.26l0-.59Z"/></svg>